<?xml version="1.0" standalone="no"?>
 <!DOCTYPE svg PUBLIC "-//W3C//DTD SVG 1.1//EN" 
 "http://www.w3.org/Graphics/SVG/1.1/DTD/svg11.dtd"> 
<svg
  xmlns:svg="http://www.w3.org/2000/svg"
  xmlns="http://www.w3.org/2000/svg"
  xmlns:xlink="http://www.w3.org/1999/xlink"
  version="1.1"
  width="54.9148mm" height="64.0080mm" viewBox="0.0000 0.0000 54.9148 64.0080">
<title>SVG Image created as back.svg date 2025/12/14 15:46:19 </title>
  <desc>Image generated by PCBNEW </desc>
<g style="fill:#000000; fill-opacity:1.0000;stroke:#000000; stroke-opacity:1.0000;
stroke-linecap:round; stroke-linejoin:round;"
 transform="translate(0 0) scale(1 1)">
</g>
<g style="fill:#000000; fill-opacity:1.0000; 
stroke:#000000; stroke-width:0.0212; stroke-opacity:1; 
stroke-linecap:round; stroke-linejoin:round;">
<rect x="-5.203200" y="-5.025000" width="65.143000" height="74.058000" rx="0.000000" />
<path style="fill:#FFFFFF; fill-opacity:1.0000; stroke:none;fill-rule:evenodd;"
d="M 46.9328,30.7287
45.1548,30.7287
45.1548,32.7607
46.9328,32.7607
Z" /> 
</g>
<g style="fill:#FFFFFF; fill-opacity:1.0000; stroke:none;">
<circle cx="48.5838" cy="31.7447" r="1.0160" /> 
</g>
<g style="fill:#FFFFFF; fill-opacity:1.0000; stroke:none;">
<circle cx="51.1238" cy="31.7447" r="1.0160" /> 
<path style="fill:#FFFFFF; fill-opacity:1.0000; stroke:none;fill-rule:evenodd;"
d="M 9.5758,10.0330
11.3538,10.0330
11.3538,8.0010
9.5758,8.0010
Z" /> 
</g>
<g style="fill:#FFFFFF; fill-opacity:1.0000; stroke:none;">
<circle cx="7.9248" cy="9.0170" r="1.0160" /> 
</g>
<g style="fill:#FFFFFF; fill-opacity:1.0000; stroke:none;">
<circle cx="5.3848" cy="9.0170" r="1.0160" /> 
</g>
<g style="fill:#FFFFFF; fill-opacity:1.0000; stroke:none;">
<circle cx="2.8448" cy="9.0170" r="1.0160" /> 
<path style="fill:#FFFFFF; fill-opacity:1.0000; stroke:none;fill-rule:evenodd;"
d="M 9.5758,17.5260
11.3538,17.5260
11.3538,15.4940
9.5758,15.4940
Z" /> 
</g>
<g style="fill:#FFFFFF; fill-opacity:1.0000; stroke:none;">
<circle cx="7.9248" cy="16.5100" r="1.0160" /> 
</g>
<g style="fill:#FFFFFF; fill-opacity:1.0000; stroke:none;">
<circle cx="5.3848" cy="16.5100" r="1.0160" /> 
</g>
<g style="fill:#FFFFFF; fill-opacity:1.0000; stroke:none;">
<circle cx="2.8448" cy="16.5100" r="1.0160" /> 
<path style="fill:#FFFFFF; fill-opacity:1.0000; stroke:none;fill-rule:evenodd;"
d="M 9.5758,6.3500
11.3538,6.3500
11.3538,4.3180
9.5758,4.3180
Z" /> 
</g>
<g style="fill:#FFFFFF; fill-opacity:1.0000; stroke:none;">
<circle cx="7.9248" cy="5.3340" r="1.0160" /> 
</g>
<g style="fill:#FFFFFF; fill-opacity:1.0000; stroke:none;">
<circle cx="5.3848" cy="5.3340" r="1.0160" /> 
</g>
<g style="fill:#FFFFFF; fill-opacity:1.0000; stroke:none;">
<circle cx="2.8448" cy="5.3340" r="1.0160" /> 
<path style="fill:#FFFFFF; fill-opacity:1.0000; stroke:none;fill-rule:evenodd;"
d="M 47.6951,53.0740
45.9171,53.0740
45.9171,55.1060
47.6951,55.1060
Z" /> 
</g>
<g style="fill:#FFFFFF; fill-opacity:1.0000; stroke:none;">
<circle cx="49.3461" cy="54.0900" r="1.0160" /> 
</g>
<g style="fill:#FFFFFF; fill-opacity:1.0000; stroke:none;">
<circle cx="51.8861" cy="54.0900" r="1.0160" /> 
<path style="fill:#FFFFFF; fill-opacity:1.0000; stroke:none;fill-rule:evenodd;"
d="M 37.0078,6.2230
38.7858,6.2230
38.7858,4.1910
37.0078,4.1910
Z" /> 
</g>
<g style="fill:#FFFFFF; fill-opacity:1.0000; stroke:none;">
<circle cx="35.3568" cy="5.2070" r="1.0160" /> 
</g>
<g style="fill:#FFFFFF; fill-opacity:1.0000; stroke:none;">
<circle cx="32.8168" cy="5.2070" r="1.0160" /> 
<path style="fill:#FFFFFF; fill-opacity:1.0000; stroke:none;fill-rule:evenodd;"
d="M 8.3058,53.0860
10.0838,53.0860
10.0838,51.0540
8.3058,51.0540
Z" /> 
</g>
<g style="fill:#FFFFFF; fill-opacity:1.0000; stroke:none;">
<circle cx="6.6548" cy="52.0700" r="1.0160" /> 
</g>
<g style="fill:#FFFFFF; fill-opacity:1.0000; stroke:none;">
<circle cx="4.1148" cy="52.0700" r="1.0160" /> 
<path style="fill:#FFFFFF; fill-opacity:1.0000; stroke:none;fill-rule:evenodd;"
d="M 47.6951,56.6300
45.9171,56.6300
45.9171,58.6620
47.6951,58.6620
Z" /> 
</g>
<g style="fill:#FFFFFF; fill-opacity:1.0000; stroke:none;">
<circle cx="49.3461" cy="57.6460" r="1.0160" /> 
</g>
<g style="fill:#FFFFFF; fill-opacity:1.0000; stroke:none;">
<circle cx="51.8861" cy="57.6460" r="1.0160" /> 
<path style="fill:#FFFFFF; fill-opacity:1.0000; stroke:none;fill-rule:evenodd;"
d="M 46.9328,12.9487
45.1548,12.9487
45.1548,14.9807
46.9328,14.9807
Z" /> 
</g>
<g style="fill:#FFFFFF; fill-opacity:1.0000; stroke:none;">
<circle cx="48.5838" cy="13.9647" r="1.0160" /> 
</g>
<g style="fill:#FFFFFF; fill-opacity:1.0000; stroke:none;">
<circle cx="51.1238" cy="13.9647" r="1.0160" /> 
<path style="fill:#FFFFFF; fill-opacity:1.0000; stroke:none;fill-rule:evenodd;"
d="M 46.9328,19.9337
45.1548,19.9337
45.1548,21.9657
46.9328,21.9657
Z" /> 
</g>
<g style="fill:#FFFFFF; fill-opacity:1.0000; stroke:none;">
<circle cx="48.5838" cy="20.9497" r="1.0160" /> 
</g>
<g style="fill:#FFFFFF; fill-opacity:1.0000; stroke:none;">
<circle cx="51.1238" cy="20.9497" r="1.0160" /> 
<path style="fill:#FFFFFF; fill-opacity:1.0000; stroke:none;fill-rule:evenodd;"
d="M 9.5758,13.7160
11.3538,13.7160
11.3538,11.6840
9.5758,11.6840
Z" /> 
</g>
<g style="fill:#FFFFFF; fill-opacity:1.0000; stroke:none;">
<circle cx="7.9248" cy="12.7000" r="1.0160" /> 
</g>
<g style="fill:#FFFFFF; fill-opacity:1.0000; stroke:none;">
<circle cx="5.3848" cy="12.7000" r="1.0160" /> 
</g>
<g style="fill:#FFFFFF; fill-opacity:1.0000; stroke:none;">
<circle cx="2.8448" cy="12.7000" r="1.0160" /> 
<path style="fill:#FFFFFF; fill-opacity:1.0000; stroke:none;fill-rule:evenodd;"
d="M 7.6073,21.1700
7.6073,19.4700
4.4323,19.4700
4.4323,21.1700
Z" /> 
<path style="fill:#FFFFFF; fill-opacity:1.0000; stroke:none;fill-rule:evenodd;"
d="M 7.6073,23.7100
7.6073,22.0100
4.4323,22.0100
4.4323,23.7100
Z" /> 
<path style="fill:#FFFFFF; fill-opacity:1.0000; stroke:none;fill-rule:evenodd;"
d="M 7.6073,26.2500
7.6073,24.5500
4.4323,24.5500
4.4323,26.2500
Z" /> 
<path style="fill:#FFFFFF; fill-opacity:1.0000; stroke:none;fill-rule:evenodd;"
d="M 7.6073,28.7900
7.6073,27.0900
4.4323,27.0900
4.4323,28.7900
Z" /> 
<path style="fill:#FFFFFF; fill-opacity:1.0000; stroke:none;fill-rule:evenodd;"
d="M 7.6073,31.3300
7.6073,29.6300
4.4323,29.6300
4.4323,31.3300
Z" /> 
<path style="fill:#FFFFFF; fill-opacity:1.0000; stroke:none;fill-rule:evenodd;"
d="M 7.6073,33.8700
7.6073,32.1700
4.4323,32.1700
4.4323,33.8700
Z" /> 
<path style="fill:#FFFFFF; fill-opacity:1.0000; stroke:none;fill-rule:evenodd;"
d="M 8.3058,56.8960
10.0838,56.8960
10.0838,54.8640
8.3058,54.8640
Z" /> 
</g>
<g style="fill:#FFFFFF; fill-opacity:1.0000; stroke:none;">
<circle cx="6.6548" cy="55.8800" r="1.0160" /> 
</g>
<g style="fill:#FFFFFF; fill-opacity:1.0000; stroke:none;">
<circle cx="4.1148" cy="55.8800" r="1.0160" /> 
<path style="fill:#FFFFFF; fill-opacity:1.0000; stroke:none;fill-rule:evenodd;"
d="M 46.9328,16.7587
45.1548,16.7587
45.1548,18.7907
46.9328,18.7907
Z" /> 
</g>
<g style="fill:#FFFFFF; fill-opacity:1.0000; stroke:none;">
<circle cx="48.5838" cy="17.7747" r="1.0160" /> 
</g>
<g style="fill:#FFFFFF; fill-opacity:1.0000; stroke:none;">
<circle cx="51.1238" cy="17.7747" r="1.0160" /> 
<path style="fill:#FFFFFF; fill-opacity:1.0000; stroke:none;fill-rule:evenodd;"
d="M 8.3058,37.8460
10.0838,37.8460
10.0838,35.8140
8.3058,35.8140
Z" /> 
</g>
<g style="fill:#FFFFFF; fill-opacity:1.0000; stroke:none;">
<circle cx="6.6548" cy="36.8300" r="1.0160" /> 
</g>
<g style="fill:#FFFFFF; fill-opacity:1.0000; stroke:none;">
<circle cx="4.1148" cy="36.8300" r="1.0160" /> 
<path style="fill:#FFFFFF; fill-opacity:1.0000; stroke:none;fill-rule:evenodd;"
d="M 46.5618,48.8765
46.5618,50.6545
48.5938,50.6545
48.5938,48.8765
Z" /> 
</g>
<g style="fill:#FFFFFF; fill-opacity:1.0000; stroke:none;">
<circle cx="47.5778" cy="47.2255" r="1.0160" /> 
</g>
<g style="fill:#FFFFFF; fill-opacity:1.0000; stroke:none;">
<circle cx="47.5778" cy="44.6855" r="1.0160" /> 
</g>
<g style="fill:#FFFFFF; fill-opacity:1.0000; stroke:none;">
<circle cx="47.5778" cy="42.1455" r="1.0160" /> 
</g>
<g style="fill:#FFFFFF; fill-opacity:1.0000; stroke:none;">
<circle cx="47.5778" cy="39.6055" r="1.0160" /> 
</g>
<g style="fill:#FFFFFF; fill-opacity:1.0000; stroke:none;">
<circle cx="47.5778" cy="37.0655" r="1.0160" /> 
<path style="fill:#FFFFFF; fill-opacity:1.0000; stroke:none;fill-rule:evenodd;"
d="M 23.5458,6.0960
25.3238,6.0960
25.3238,4.0640
23.5458,4.0640
Z" /> 
</g>
<g style="fill:#FFFFFF; fill-opacity:1.0000; stroke:none;">
<circle cx="21.8948" cy="5.0800" r="1.0160" /> 
</g>
<g style="fill:#FFFFFF; fill-opacity:1.0000; stroke:none;">
<circle cx="19.3548" cy="5.0800" r="1.0160" /> 
</g>
<g style="fill:#FFFFFF; fill-opacity:1.0000; stroke:none;">
<circle cx="16.8148" cy="5.0800" r="1.0160" /> 
<path style="fill:#FFFFFF; fill-opacity:1.0000; stroke:none;fill-rule:evenodd;"
d="M 46.9328,26.9187
45.1548,26.9187
45.1548,28.9507
46.9328,28.9507
Z" /> 
</g>
<g style="fill:#FFFFFF; fill-opacity:1.0000; stroke:none;">
<circle cx="48.5838" cy="27.9347" r="1.0160" /> 
</g>
<g style="fill:#FFFFFF; fill-opacity:1.0000; stroke:none;">
<circle cx="51.1238" cy="27.9347" r="1.0160" /> 
<path style="fill:#FFFFFF; fill-opacity:1.0000; stroke:none;fill-rule:evenodd;"
d="M 41.2623,10.9220
41.2623,9.3980
38.0873,9.3980
38.0873,10.9220
Z" /> 
<path style="fill:#FFFFFF; fill-opacity:1.0000; stroke:none;fill-rule:evenodd;"
d="M 41.2623,13.4620
41.2623,11.9380
38.0873,11.9380
38.0873,13.4620
Z" /> 
<path style="fill:#FFFFFF; fill-opacity:1.0000; stroke:none;fill-rule:evenodd;"
d="M 41.2623,16.0020
41.2623,14.4780
38.0873,14.4780
38.0873,16.0020
Z" /> 
<path style="fill:#FFFFFF; fill-opacity:1.0000; stroke:none;fill-rule:evenodd;"
d="M 41.2623,18.5420
41.2623,17.0180
38.0873,17.0180
38.0873,18.5420
Z" /> 
<path style="fill:#FFFFFF; fill-opacity:1.0000; stroke:none;fill-rule:evenodd;"
d="M 41.2623,21.0820
41.2623,19.5580
38.0873,19.5580
38.0873,21.0820
Z" /> 
<path style="fill:#FFFFFF; fill-opacity:1.0000; stroke:none;fill-rule:evenodd;"
d="M 41.2623,23.6220
41.2623,22.0980
38.0873,22.0980
38.0873,23.6220
Z" /> 
<path style="fill:#FFFFFF; fill-opacity:1.0000; stroke:none;fill-rule:evenodd;"
d="M 41.2623,26.1620
41.2623,24.6380
38.0873,24.6380
38.0873,26.1620
Z" /> 
<path style="fill:#FFFFFF; fill-opacity:1.0000; stroke:none;fill-rule:evenodd;"
d="M 41.2623,28.7020
41.2623,27.1780
38.0873,27.1780
38.0873,28.7020
Z" /> 
<path style="fill:#FFFFFF; fill-opacity:1.0000; stroke:none;fill-rule:evenodd;"
d="M 41.2623,31.2420
41.2623,29.7180
38.0873,29.7180
38.0873,31.2420
Z" /> 
<path style="fill:#FFFFFF; fill-opacity:1.0000; stroke:none;fill-rule:evenodd;"
d="M 41.2623,33.7820
41.2623,32.2580
38.0873,32.2580
38.0873,33.7820
Z" /> 
<path style="fill:#FFFFFF; fill-opacity:1.0000; stroke:none;fill-rule:evenodd;"
d="M 41.2623,36.3220
41.2623,34.7980
38.0873,34.7980
38.0873,36.3220
Z" /> 
<path style="fill:#FFFFFF; fill-opacity:1.0000; stroke:none;fill-rule:evenodd;"
d="M 41.2623,38.8620
41.2623,37.3380
38.0873,37.3380
38.0873,38.8620
Z" /> 
<path style="fill:#FFFFFF; fill-opacity:1.0000; stroke:none;fill-rule:evenodd;"
d="M 41.2623,41.4020
41.2623,39.8780
38.0873,39.8780
38.0873,41.4020
Z" /> 
<path style="fill:#FFFFFF; fill-opacity:1.0000; stroke:none;fill-rule:evenodd;"
d="M 41.2623,43.9420
41.2623,42.4180
38.0873,42.4180
38.0873,43.9420
Z" /> 
<path style="fill:#FFFFFF; fill-opacity:1.0000; stroke:none;fill-rule:evenodd;"
d="M 41.2623,46.4820
41.2623,44.9580
38.0873,44.9580
38.0873,46.4820
Z" /> 
<path style="fill:#FFFFFF; fill-opacity:1.0000; stroke:none;fill-rule:evenodd;"
d="M 41.2623,49.0220
41.2623,47.4980
38.0873,47.4980
38.0873,49.0220
Z" /> 
<path style="fill:#FFFFFF; fill-opacity:1.0000; stroke:none;fill-rule:evenodd;"
d="M 41.2623,51.5620
41.2623,50.0380
38.0873,50.0380
38.0873,51.5620
Z" /> 
<path style="fill:#FFFFFF; fill-opacity:1.0000; stroke:none;fill-rule:evenodd;"
d="M 41.2623,54.1020
41.2623,52.5780
38.0873,52.5780
38.0873,54.1020
Z" /> 
<path style="fill:#FFFFFF; fill-opacity:1.0000; stroke:none;fill-rule:evenodd;"
d="M 41.2623,56.6420
41.2623,55.1180
38.0873,55.1180
38.0873,56.6420
Z" /> 
<path style="fill:#FFFFFF; fill-opacity:1.0000; stroke:none;fill-rule:evenodd;"
d="M 18.4023,10.9220
18.4023,9.3980
15.2273,9.3980
15.2273,10.9220
Z" /> 
<path style="fill:#FFFFFF; fill-opacity:1.0000; stroke:none;fill-rule:evenodd;"
d="M 18.4023,13.4620
18.4023,11.9380
15.2273,11.9380
15.2273,13.4620
Z" /> 
<path style="fill:#FFFFFF; fill-opacity:1.0000; stroke:none;fill-rule:evenodd;"
d="M 18.4023,16.0020
18.4023,14.4780
15.2273,14.4780
15.2273,16.0020
Z" /> 
<path style="fill:#FFFFFF; fill-opacity:1.0000; stroke:none;fill-rule:evenodd;"
d="M 18.4023,18.5420
18.4023,17.0180
15.2273,17.0180
15.2273,18.5420
Z" /> 
<path style="fill:#FFFFFF; fill-opacity:1.0000; stroke:none;fill-rule:evenodd;"
d="M 18.4023,21.0820
18.4023,19.5580
15.2273,19.5580
15.2273,21.0820
Z" /> 
<path style="fill:#FFFFFF; fill-opacity:1.0000; stroke:none;fill-rule:evenodd;"
d="M 18.4023,23.6220
18.4023,22.0980
15.2273,22.0980
15.2273,23.6220
Z" /> 
<path style="fill:#FFFFFF; fill-opacity:1.0000; stroke:none;fill-rule:evenodd;"
d="M 18.4023,26.1620
18.4023,24.6380
15.2273,24.6380
15.2273,26.1620
Z" /> 
<path style="fill:#FFFFFF; fill-opacity:1.0000; stroke:none;fill-rule:evenodd;"
d="M 18.4023,28.7020
18.4023,27.1780
15.2273,27.1780
15.2273,28.7020
Z" /> 
<path style="fill:#FFFFFF; fill-opacity:1.0000; stroke:none;fill-rule:evenodd;"
d="M 18.4023,31.2420
18.4023,29.7180
15.2273,29.7180
15.2273,31.2420
Z" /> 
<path style="fill:#FFFFFF; fill-opacity:1.0000; stroke:none;fill-rule:evenodd;"
d="M 18.4023,33.7820
18.4023,32.2580
15.2273,32.2580
15.2273,33.7820
Z" /> 
<path style="fill:#FFFFFF; fill-opacity:1.0000; stroke:none;fill-rule:evenodd;"
d="M 18.4023,36.3220
18.4023,34.7980
15.2273,34.7980
15.2273,36.3220
Z" /> 
<path style="fill:#FFFFFF; fill-opacity:1.0000; stroke:none;fill-rule:evenodd;"
d="M 18.4023,38.8620
18.4023,37.3380
15.2273,37.3380
15.2273,38.8620
Z" /> 
<path style="fill:#FFFFFF; fill-opacity:1.0000; stroke:none;fill-rule:evenodd;"
d="M 18.4023,41.4020
18.4023,39.8780
15.2273,39.8780
15.2273,41.4020
Z" /> 
<path style="fill:#FFFFFF; fill-opacity:1.0000; stroke:none;fill-rule:evenodd;"
d="M 18.4023,43.9420
18.4023,42.4180
15.2273,42.4180
15.2273,43.9420
Z" /> 
<path style="fill:#FFFFFF; fill-opacity:1.0000; stroke:none;fill-rule:evenodd;"
d="M 18.4023,46.4820
18.4023,44.9580
15.2273,44.9580
15.2273,46.4820
Z" /> 
<path style="fill:#FFFFFF; fill-opacity:1.0000; stroke:none;fill-rule:evenodd;"
d="M 18.4023,49.0220
18.4023,47.4980
15.2273,47.4980
15.2273,49.0220
Z" /> 
<path style="fill:#FFFFFF; fill-opacity:1.0000; stroke:none;fill-rule:evenodd;"
d="M 18.4023,51.5620
18.4023,50.0380
15.2273,50.0380
15.2273,51.5620
Z" /> 
<path style="fill:#FFFFFF; fill-opacity:1.0000; stroke:none;fill-rule:evenodd;"
d="M 18.4023,54.1020
18.4023,52.5780
15.2273,52.5780
15.2273,54.1020
Z" /> 
<path style="fill:#FFFFFF; fill-opacity:1.0000; stroke:none;fill-rule:evenodd;"
d="M 18.4023,56.6420
18.4023,55.1180
15.2273,55.1180
15.2273,56.6420
Z" /> 
<path style="fill:#FFFFFF; fill-opacity:1.0000; stroke:none;fill-rule:evenodd;"
d="M 8.3058,45.4660
10.0838,45.4660
10.0838,43.4340
8.3058,43.4340
Z" /> 
</g>
<g style="fill:#FFFFFF; fill-opacity:1.0000; stroke:none;">
<circle cx="6.6548" cy="44.4500" r="1.0160" /> 
</g>
<g style="fill:#FFFFFF; fill-opacity:1.0000; stroke:none;">
<circle cx="4.1148" cy="44.4500" r="1.0160" /> 
<path style="fill:#FFFFFF; fill-opacity:1.0000; stroke:none;fill-rule:evenodd;"
d="M 46.8938,23.9097
45.1938,23.9097
45.1938,25.6097
46.8938,25.6097
Z" /> 
</g>
<g style="fill:#FFFFFF; fill-opacity:1.0000; stroke:none;">
<circle cx="48.5838" cy="24.7597" r="1.0160" /> 
</g>
<g style="fill:#FFFFFF; fill-opacity:1.0000; stroke:none;">
<circle cx="51.1238" cy="24.7597" r="1.0160" /> 
<path style="fill:#FFFFFF; fill-opacity:1.0000; stroke:none;fill-rule:evenodd;"
d="M 8.3058,49.2760
10.0838,49.2760
10.0838,47.2440
8.3058,47.2440
Z" /> 
</g>
<g style="fill:#FFFFFF; fill-opacity:1.0000; stroke:none;">
<circle cx="6.6548" cy="48.2600" r="1.0160" /> 
</g>
<g style="fill:#FFFFFF; fill-opacity:1.0000; stroke:none;">
<circle cx="4.1148" cy="48.2600" r="1.0160" /> 
<path style="fill:#FFFFFF; fill-opacity:1.0000; stroke:none;fill-rule:evenodd;"
d="M 8.3058,41.6560
10.0838,41.6560
10.0838,39.6240
8.3058,39.6240
Z" /> 
</g>
<g style="fill:#FFFFFF; fill-opacity:1.0000; stroke:none;">
<circle cx="6.6548" cy="40.6400" r="1.0160" /> 
</g>
<g style="fill:#FFFFFF; fill-opacity:1.0000; stroke:none;">
<circle cx="4.1148" cy="40.6400" r="1.0160" /> 
</g>
<g style="fill:#FFFFFF; fill-opacity:1.0000; stroke:none;">
<circle cx="29.0703" cy="8.0057" r="0.8890" /> 
</g>
<g style="fill:#FFFFFF; fill-opacity:1.0000; stroke:none;">
<circle cx="39.6748" cy="8.0010" r="0.8890" /> 
</g>
<g style="fill:#FFFFFF; fill-opacity:1.0000; stroke:none;">
<circle cx="23.1648" cy="25.4000" r="0.7620" /> 
</g>
<g style="fill:#FFFFFF; fill-opacity:1.0000; stroke:none;">
<circle cx="19.9898" cy="10.1600" r="0.8890" /> 
</g>
<g style="fill:#FFFFFF; fill-opacity:1.0000; stroke:none;">
<circle cx="30.7848" cy="10.1600" r="0.8890" /> 
</g>
<g style="fill:#FFFFFF; fill-opacity:1.0000; stroke:none;">
<circle cx="11.7348" cy="31.1150" r="0.8890" /> 
</g>
<g style="fill:#FFFFFF; fill-opacity:1.0000; stroke:none;">
<circle cx="13.6398" cy="12.7000" r="0.8890" /> 
</g>
<g style="fill:none; 
stroke:#FFFFFF; stroke-width:0.8890; stroke-opacity:1; 
stroke-linecap:round; stroke-linejoin:round;">
<path d="M10.4648 35.5600
L9.1948 36.8300
" />
<path d="M16.8148 35.5600
L10.4648 35.5600
" />
</g>
<g style="fill:none; 
stroke:#FFFFFF; stroke-width:0.7620; stroke-opacity:1; 
stroke-linecap:round; stroke-linejoin:round;">
<path d="M28.1178 8.0010
L29.0656 8.0010
" />
</g>
<g style="fill:none; 
stroke:#FFFFFF; stroke-width:1.5240; stroke-opacity:1; 
stroke-linecap:round; stroke-linejoin:round;">
<path d="M48.5838 31.7447
L48.5838 33.1815
" />
</g>
<g style="fill:none; 
stroke:#FFFFFF; stroke-width:0.8890; stroke-opacity:1; 
stroke-linecap:round; stroke-linejoin:round;">
<path d="M6.6548 52.0700
L6.6548 55.8800
" />
</g>
<g style="fill:none; 
stroke:#FFFFFF; stroke-width:1.5240; stroke-opacity:1; 
stroke-linecap:round; stroke-linejoin:round;">
<path d="M49.3461 59.9247
L49.3461 57.6460
" />
</g>
<g style="fill:none; 
stroke:#FFFFFF; stroke-width:1.0160; stroke-opacity:1; 
stroke-linecap:round; stroke-linejoin:round;">
<path d="M29.0656 8.0010
L29.0703 8.0057
" />
</g>
<g style="fill:none; 
stroke:#FFFFFF; stroke-width:1.5240; stroke-opacity:1; 
stroke-linecap:round; stroke-linejoin:round;">
<path d="M48.3108 60.9600
L49.3461 59.9247
" />
</g>
<g style="fill:none; 
stroke:#FFFFFF; stroke-width:0.8890; stroke-opacity:1; 
stroke-linecap:round; stroke-linejoin:round;">
<path d="M48.5838 24.7597
L48.5838 27.9347
" />
</g>
<g style="fill:none; 
stroke:#FFFFFF; stroke-width:1.0160; stroke-opacity:1; 
stroke-linecap:round; stroke-linejoin:round;">
<path d="M39.6748 10.1600
L39.6748 8.0010
" />
<path d="M46.2160 10.1600
L48.5838 12.5278
" />
</g>
<g style="fill:none; 
stroke:#FFFFFF; stroke-width:0.8890; stroke-opacity:1; 
stroke-linecap:round; stroke-linejoin:round;">
<path d="M48.5838 20.9497
L48.5838 24.7597
" />
</g>
<g style="fill:none; 
stroke:#FFFFFF; stroke-width:1.5240; stroke-opacity:1; 
stroke-linecap:round; stroke-linejoin:round;">
<path d="M6.6548 55.8800
L6.6548 59.6900
" />
<path d="M49.3461 57.6460
L49.3461 54.0900
" />
</g>
<g style="fill:none; 
stroke:#FFFFFF; stroke-width:0.7620; stroke-opacity:1; 
stroke-linecap:round; stroke-linejoin:round;">
<path d="M19.3548 3.6432
L19.3548 5.0800
" />
</g>
<g style="fill:none; 
stroke:#FFFFFF; stroke-width:1.5240; stroke-opacity:1; 
stroke-linecap:round; stroke-linejoin:round;">
<path d="M49.3461 54.0900
L49.3461 52.6981
" />
</g>
<g style="fill:none; 
stroke:#FFFFFF; stroke-width:0.7620; stroke-opacity:1; 
stroke-linecap:round; stroke-linejoin:round;">
<path d="M6.7818 2.2860
L18.3388 2.2860
" />
<path d="M28.1178 3.8100
L28.1178 8.0010
" />
</g>
<g style="fill:none; 
stroke:#FFFFFF; stroke-width:1.0160; stroke-opacity:1; 
stroke-linecap:round; stroke-linejoin:round;">
<path d="M46.5779 39.4795
L47.4518 39.4795
" />
</g>
<g style="fill:none; 
stroke:#FFFFFF; stroke-width:1.5240; stroke-opacity:1; 
stroke-linecap:round; stroke-linejoin:round;">
<path d="M7.9248 60.9600
L48.3108 60.9600
" />
</g>
<g style="fill:none; 
stroke:#FFFFFF; stroke-width:0.8890; stroke-opacity:1; 
stroke-linecap:round; stroke-linejoin:round;">
<path d="M48.5838 31.7447
L48.6293 31.7902
" />
</g>
<g style="fill:none; 
stroke:#FFFFFF; stroke-width:0.7620; stroke-opacity:1; 
stroke-linecap:round; stroke-linejoin:round;">
<path d="M18.6021 2.8905
L19.3548 3.6432
" />
</g>
<g style="fill:none; 
stroke:#FFFFFF; stroke-width:1.5240; stroke-opacity:1; 
stroke-linecap:round; stroke-linejoin:round;">
<path d="M47.4518 39.4795
L47.5778 39.6055
" />
</g>
<g style="fill:none; 
stroke:#FFFFFF; stroke-width:0.8890; stroke-opacity:1; 
stroke-linecap:round; stroke-linejoin:round;">
<path d="M6.6548 36.8300
L6.6548 40.6400
" />
<path d="M48.5838 13.9647
L48.5838 17.7747
" />
<path d="M48.5838 17.7747
L48.5838 20.9497
" />
<path d="M48.5838 27.9347
L48.5838 31.7447
" />
<path d="M6.6548 48.2600
L6.6548 52.0700
" />
<path d="M5.3848 8.8900
L5.3848 12.7000
" />
</g>
<g style="fill:none; 
stroke:#FFFFFF; stroke-width:1.5240; stroke-opacity:1; 
stroke-linecap:round; stroke-linejoin:round;">
<path d="M49.0147 39.6055
L47.5778 39.6055
" />
</g>
<g style="fill:none; 
stroke:#FFFFFF; stroke-width:0.7620; stroke-opacity:1; 
stroke-linecap:round; stroke-linejoin:round;">
<path d="M26.9748 2.2860
L6.6548 2.2860
" />
</g>
<g style="fill:none; 
stroke:#FFFFFF; stroke-width:0.8890; stroke-opacity:1; 
stroke-linecap:round; stroke-linejoin:round;">
<path d="M48.5838 12.5278
L48.5838 13.9647
" />
<path d="M6.0198 33.0200
L6.0198 36.1950
" />
</g>
<g style="fill:none; 
stroke:#FFFFFF; stroke-width:1.5240; stroke-opacity:1; 
stroke-linecap:round; stroke-linejoin:round;">
<path d="M49.9918 40.5826
L49.0147 39.6055
" />
<path d="M49.9918 52.0525
L49.9918 40.5826
" />
</g>
<g style="fill:none; 
stroke:#FFFFFF; stroke-width:0.8890; stroke-opacity:1; 
stroke-linecap:round; stroke-linejoin:round;">
<path d="M6.6548 44.4500
L6.6548 48.2600
" />
<path d="M6.6548 40.6400
L6.6548 44.4500
" />
</g>
<g style="fill:none; 
stroke:#FFFFFF; stroke-width:1.0160; stroke-opacity:1; 
stroke-linecap:round; stroke-linejoin:round;">
<path d="M46.9394 34.2900
L45.1638 36.0655
" />
<path d="M47.4753 34.2900
L46.9394 34.2900
" />
</g>
<g style="fill:none; 
stroke:#FFFFFF; stroke-width:0.8890; stroke-opacity:1; 
stroke-linecap:round; stroke-linejoin:round;">
<path d="M5.3848 4.8600
L5.3848 8.8900
" />
<path d="M5.3848 12.7000
L5.3848 16.5100
" />
</g>
<g style="fill:none; 
stroke:#FFFFFF; stroke-width:1.0160; stroke-opacity:1; 
stroke-linecap:round; stroke-linejoin:round;">
<path d="M45.1638 36.0655
L45.1638 38.0654
" />
</g>
<g style="fill:none; 
stroke:#FFFFFF; stroke-width:0.8890; stroke-opacity:1; 
stroke-linecap:round; stroke-linejoin:round;">
<path d="M6.0198 36.1950
L6.6548 36.8300
" />
</g>
<g style="fill:none; 
stroke:#FFFFFF; stroke-width:1.0160; stroke-opacity:1; 
stroke-linecap:round; stroke-linejoin:round;">
<path d="M48.5838 33.1815
L47.4753 34.2900
" />
</g>
<g style="fill:none; 
stroke:#FFFFFF; stroke-width:1.5240; stroke-opacity:1; 
stroke-linecap:round; stroke-linejoin:round;">
<path d="M49.3461 52.6981
L49.9918 52.0525
" />
</g>
<g style="fill:none; 
stroke:#FFFFFF; stroke-width:0.7620; stroke-opacity:1; 
stroke-linecap:round; stroke-linejoin:round;">
<path d="M5.3848 3.1750
L5.3848 4.8600
" />
<path d="M28.1178 3.4290
L26.9748 2.2860
" />
<path d="M6.6548 2.2860
L5.3848 3.1750
" />
<path d="M18.3388 2.2860
L18.6021 2.8905
" />
</g>
<g style="fill:none; 
stroke:#FFFFFF; stroke-width:1.5240; stroke-opacity:1; 
stroke-linecap:round; stroke-linejoin:round;">
<path d="M6.6548 59.6900
L7.9248 60.9600
" />
</g>
<g style="fill:none; 
stroke:#FFFFFF; stroke-width:0.7620; stroke-opacity:1; 
stroke-linecap:round; stroke-linejoin:round;">
<path d="M28.1178 3.8100
L28.1178 3.4290
" />
</g>
<g style="fill:none; 
stroke:#FFFFFF; stroke-width:1.0160; stroke-opacity:1; 
stroke-linecap:round; stroke-linejoin:round;">
<path d="M39.6748 10.1600
L46.2160 10.1600
" />
<path d="M45.1638 38.0654
L46.5779 39.4795
" />
</g>
<g style="fill:none; 
stroke:#FFFFFF; stroke-width:0.6350; stroke-opacity:1; 
stroke-linecap:round; stroke-linejoin:round;">
<path d="M51.8861 57.6460
L51.8861 54.0900
" />
<path d="M51.1048 31.7636
L51.1238 31.7447
" />
</g>
<g style="fill:none; 
stroke:#FFFFFF; stroke-width:0.8890; stroke-opacity:1; 
stroke-linecap:round; stroke-linejoin:round;">
<path d="M4.1148 55.8800
L4.1148 52.0700
" />
</g>
<g style="fill:none; 
stroke:#FFFFFF; stroke-width:0.6350; stroke-opacity:1; 
stroke-linecap:round; stroke-linejoin:round;">
<path d="M47.5778 37.0655
L51.1238 33.5195
" />
<path d="M51.8861 61.4487
L51.8861 57.6460
" />
<path d="M0.9398 58.4200
L5.3848 62.8650
" />
</g>
<g style="fill:none; 
stroke:#FFFFFF; stroke-width:0.8890; stroke-opacity:1; 
stroke-linecap:round; stroke-linejoin:round;">
<path d="M4.1148 55.8800
L2.0828 57.9120
" />
</g>
<g style="fill:none; 
stroke:#FFFFFF; stroke-width:1.0160; stroke-opacity:1; 
stroke-linecap:round; stroke-linejoin:round;">
<path d="M5.4495 0.8185
L47.9298 0.8185
" />
</g>
<g style="fill:none; 
stroke:#FFFFFF; stroke-width:0.6350; stroke-opacity:1; 
stroke-linecap:round; stroke-linejoin:round;">
<path d="M51.1238 4.0125
L51.1238 13.9647
" />
</g>
<g style="fill:none; 
stroke:#FFFFFF; stroke-width:0.8890; stroke-opacity:1; 
stroke-linecap:round; stroke-linejoin:round;">
<path d="M16.8148 25.4000
L12.9043 25.4000
" />
<path d="M2.8448 4.8600
L2.8448 8.8900
" />
</g>
<g style="fill:none; 
stroke:#FFFFFF; stroke-width:0.6350; stroke-opacity:1; 
stroke-linecap:round; stroke-linejoin:round;">
<path d="M16.8148 10.1600
L19.9898 10.1600
" />
<path d="M30.7848 10.1600
L30.7848 17.7800
" />
</g>
<g style="fill:none; 
stroke:#FFFFFF; stroke-width:0.8890; stroke-opacity:1; 
stroke-linecap:round; stroke-linejoin:round;">
<path d="M51.1238 24.7597
L51.1238 20.9497
" />
<path d="M51.1238 27.9347
L51.1238 24.7597
" />
</g>
<g style="fill:none; 
stroke:#FFFFFF; stroke-width:0.6350; stroke-opacity:1; 
stroke-linecap:round; stroke-linejoin:round;">
<path d="M49.0147 37.0655
L47.5778 37.0655
" />
<path d="M30.7848 10.1600
L30.7848 7.2390
" />
</g>
<g style="fill:none; 
stroke:#FFFFFF; stroke-width:1.0160; stroke-opacity:1; 
stroke-linecap:round; stroke-linejoin:round;">
<path d="M2.8448 3.4232
L5.4495 0.8185
" />
</g>
<g style="fill:none; 
stroke:#FFFFFF; stroke-width:0.6350; stroke-opacity:1; 
stroke-linecap:round; stroke-linejoin:round;">
<path d="M23.1648 31.7500
L23.1648 25.4000
" />
</g>
<g style="fill:none; 
stroke:#FFFFFF; stroke-width:0.8890; stroke-opacity:1; 
stroke-linecap:round; stroke-linejoin:round;">
<path d="M51.1238 20.9497
L51.1238 17.7747
" />
<path d="M7.8243 20.3200
L6.0198 20.3200
" />
<path d="M6.0198 20.3200
L2.8448 17.1450
" />
<path d="M12.9043 25.4000
L7.8243 20.3200
" />
</g>
<g style="fill:none; 
stroke:#FFFFFF; stroke-width:0.6350; stroke-opacity:1; 
stroke-linecap:round; stroke-linejoin:round;">
<path d="M30.7848 7.2390
L32.8168 5.2070
" />
<path d="M34.5948 43.1800
L23.1648 31.7500
" />
</g>
<g style="fill:none; 
stroke:#FFFFFF; stroke-width:0.8890; stroke-opacity:1; 
stroke-linecap:round; stroke-linejoin:round;">
<path d="M2.8448 4.8600
L2.8448 3.4232
" />
</g>
<g style="fill:none; 
stroke:#FFFFFF; stroke-width:0.6350; stroke-opacity:1; 
stroke-linecap:round; stroke-linejoin:round;">
<path d="M30.7848 17.7800
L23.1648 25.4000
" />
</g>
<g style="fill:none; 
stroke:#FFFFFF; stroke-width:0.8890; stroke-opacity:1; 
stroke-linecap:round; stroke-linejoin:round;">
<path d="M2.0828 57.9120
L0.9455 57.9120
" />
</g>
<g style="fill:none; 
stroke:#FFFFFF; stroke-width:0.6350; stroke-opacity:1; 
stroke-linecap:round; stroke-linejoin:round;">
<path d="M51.8861 54.0900
L51.8861 39.9369
" />
</g>
<g style="fill:none; 
stroke:#FFFFFF; stroke-width:0.8890; stroke-opacity:1; 
stroke-linecap:round; stroke-linejoin:round;">
<path d="M4.1148 48.2600
L4.1148 44.4500
" />
<path d="M51.1238 17.7747
L51.1238 13.9647
" />
</g>
<g style="fill:none; 
stroke:#FFFFFF; stroke-width:0.6350; stroke-opacity:1; 
stroke-linecap:round; stroke-linejoin:round;">
<path d="M51.1238 33.5195
L51.1238 31.7447
" />
</g>
<g style="fill:none; 
stroke:#FFFFFF; stroke-width:0.8890; stroke-opacity:1; 
stroke-linecap:round; stroke-linejoin:round;">
<path d="M2.8448 17.1450
L2.8448 16.5100
" />
<path d="M2.8448 12.7000
L2.8448 16.5100
" />
</g>
<g style="fill:none; 
stroke:#FFFFFF; stroke-width:0.6350; stroke-opacity:1; 
stroke-linecap:round; stroke-linejoin:round;">
<path d="M50.4698 62.8650
L51.8861 61.4487
" />
<path d="M47.9298 0.8185
L51.1238 4.0125
" />
</g>
<g style="fill:none; 
stroke:#FFFFFF; stroke-width:0.8890; stroke-opacity:1; 
stroke-linecap:round; stroke-linejoin:round;">
<path d="M4.1148 44.4500
L4.1148 40.6400
" />
<path d="M2.8448 16.5100
L0.9398 18.4150
" />
</g>
<g style="fill:none; 
stroke:#FFFFFF; stroke-width:0.6350; stroke-opacity:1; 
stroke-linecap:round; stroke-linejoin:round;">
<path d="M0.9398 18.4150
L0.9398 58.4200
" />
<path d="M5.3848 62.8650
L50.4698 62.8650
" />
</g>
<g style="fill:none; 
stroke:#FFFFFF; stroke-width:0.8890; stroke-opacity:1; 
stroke-linecap:round; stroke-linejoin:round;">
<path d="M2.8448 8.8900
L2.8448 12.7000
" />
<path d="M4.1148 52.0700
L4.1148 48.2600
" />
</g>
<g style="fill:none; 
stroke:#FFFFFF; stroke-width:0.6350; stroke-opacity:1; 
stroke-linecap:round; stroke-linejoin:round;">
<path d="M51.8861 39.9369
L49.0147 37.0655
" />
</g>
<g style="fill:none; 
stroke:#FFFFFF; stroke-width:0.8890; stroke-opacity:1; 
stroke-linecap:round; stroke-linejoin:round;">
<path d="M51.1238 31.7447
L51.1238 27.9347
" />
</g>
<g style="fill:none; 
stroke:#FFFFFF; stroke-width:0.6350; stroke-opacity:1; 
stroke-linecap:round; stroke-linejoin:round;">
<path d="M23.1648 25.4000
L16.8148 25.4000
" />
</g>
<g style="fill:none; 
stroke:#FFFFFF; stroke-width:0.8890; stroke-opacity:1; 
stroke-linecap:round; stroke-linejoin:round;">
<path d="M4.1148 40.6400
L4.1148 36.8300
" />
</g>
<g style="fill:none; 
stroke:#FFFFFF; stroke-width:0.6350; stroke-opacity:1; 
stroke-linecap:round; stroke-linejoin:round;">
<path d="M16.8148 5.0800
L16.8148 10.1600
" />
<path d="M39.6748 43.1800
L34.5948 43.1800
" />
</g>
<g style="fill:none; 
stroke:#FFFFFF; stroke-width:0.8890; stroke-opacity:1; 
stroke-linecap:round; stroke-linejoin:round;">
<path d="M16.8148 38.1000
L13.0048 38.1000
" />
<path d="M13.0048 38.1000
L10.4648 40.6400
" />
<path d="M10.4648 40.6400
L9.1948 40.6400
" />
<path d="M10.4648 44.4500
L9.1948 44.4500
" />
<path d="M14.2748 40.6400
L10.4648 44.4500
" />
<path d="M16.8148 40.6400
L14.2748 40.6400
" />
<path d="M14.5923 43.1800
L10.4648 47.3075
" />
<path d="M10.4648 47.3075
L10.4648 48.2600
" />
<path d="M10.4648 48.2600
L9.1948 48.2600
" />
<path d="M16.8148 43.1800
L14.5923 43.1800
" />
<path d="M7.9248 8.8900
L7.9248 12.7000
" />
<path d="M7.9248 17.7121
L7.9248 16.5100
" />
</g>
<g style="fill:none; 
stroke:#FFFFFF; stroke-width:0.6350; stroke-opacity:1; 
stroke-linecap:round; stroke-linejoin:round;">
<path d="M7.9248 7.4493
L7.9248 8.8900
" />
<path d="M10.4648 4.8600
L10.4648 6.5110
" />
</g>
<g style="fill:none; 
stroke:#FFFFFF; stroke-width:0.8890; stroke-opacity:1; 
stroke-linecap:round; stroke-linejoin:round;">
<path d="M16.8148 22.8600
L13.0727 22.8600
" />
<path d="M7.9248 12.7000
L7.9248 16.5100
" />
</g>
<g style="fill:none; 
stroke:#FFFFFF; stroke-width:0.6350; stroke-opacity:1; 
stroke-linecap:round; stroke-linejoin:round;">
<path d="M10.4648 6.5110
L9.4488 7.1120
" />
<path d="M9.4488 7.1120
L7.9248 7.4493
" />
</g>
<g style="fill:none; 
stroke:#FFFFFF; stroke-width:0.8890; stroke-opacity:1; 
stroke-linecap:round; stroke-linejoin:round;">
<path d="M13.0727 22.8600
L7.9248 17.7121
" />
</g>
<g style="fill:none; 
stroke:#FFFFFF; stroke-width:0.5080; stroke-opacity:1; 
stroke-linecap:round; stroke-linejoin:round;">
<path d="M11.2268 8.1280
L12.3698 6.9850
" />
<path d="M8.2670 3.5550
L7.9248 3.8972
" />
</g>
<g style="fill:none; 
stroke:#FFFFFF; stroke-width:0.8890; stroke-opacity:1; 
stroke-linecap:round; stroke-linejoin:round;">
<path d="M10.4648 8.8900
L10.4648 12.7000
" />
</g>
<g style="fill:none; 
stroke:#FFFFFF; stroke-width:0.5080; stroke-opacity:1; 
stroke-linecap:round; stroke-linejoin:round;">
<path d="M12.3043 3.5550
L8.2670 3.5550
" />
</g>
<g style="fill:none; 
stroke:#FFFFFF; stroke-width:0.6350; stroke-opacity:1; 
stroke-linecap:round; stroke-linejoin:round;">
<path d="M10.4648 8.8900
L11.2268 8.1280
" />
</g>
<g style="fill:none; 
stroke:#FFFFFF; stroke-width:0.5080; stroke-opacity:1; 
stroke-linecap:round; stroke-linejoin:round;">
<path d="M7.9248 3.8972
L7.9248 5.3340
" />
</g>
<g style="fill:none; 
stroke:#FFFFFF; stroke-width:0.8890; stroke-opacity:1; 
stroke-linecap:round; stroke-linejoin:round;">
<path d="M11.7348 15.2400
L10.4648 16.5100
" />
</g>
<g style="fill:none; 
stroke:#FFFFFF; stroke-width:0.5080; stroke-opacity:1; 
stroke-linecap:round; stroke-linejoin:round;">
<path d="M12.3698 3.6205
L12.3043 3.5550
" />
<path d="M12.3698 6.9850
L12.3698 3.6205
" />
</g>
<g style="fill:none; 
stroke:#FFFFFF; stroke-width:0.8890; stroke-opacity:1; 
stroke-linecap:round; stroke-linejoin:round;">
<path d="M10.4648 16.5100
L10.4648 12.7000
" />
<path d="M16.8148 15.2400
L11.7348 15.2400
" />
</g>
<g style="fill:none; 
stroke:#FFFFFF; stroke-width:0.7620; stroke-opacity:1; 
stroke-linecap:round; stroke-linejoin:round;">
<path d="M21.8948 14.9225
L19.0373 17.7800
" />
<path d="M21.8948 5.0800
L21.8948 14.9225
" />
<path d="M19.0373 17.7800
L16.8148 17.7800
" />
<path d="M24.4348 5.0800
L24.4348 14.9225
" />
<path d="M19.0373 20.3200
L16.8148 20.3200
" />
<path d="M24.4348 14.9225
L19.0373 20.3200
" />
</g>
<g style="fill:none; 
stroke:#FFFFFF; stroke-width:0.8890; stroke-opacity:1; 
stroke-linecap:round; stroke-linejoin:round;">
<path d="M16.8148 45.7200
L15.5448 45.7200
" />
<path d="M15.5448 45.7200
L11.7348 49.5300
" />
<path d="M11.7348 49.5300
L11.7348 52.0700
" />
<path d="M11.7348 52.0700
L9.1948 52.0700
" />
</g>
<g style="fill:none; 
stroke:#FFFFFF; stroke-width:0.7620; stroke-opacity:1; 
stroke-linecap:round; stroke-linejoin:round;">
<path d="M16.8148 33.0200
L10.4648 33.0200
" />
<path d="M10.4648 33.0200
L7.9248 30.4800
" />
<path d="M7.9248 30.4800
L6.0198 30.4800
" />
<path d="M6.0198 27.9400
L8.5598 27.9400
" />
</g>
<g style="fill:none; 
stroke:#FFFFFF; stroke-width:0.6350; stroke-opacity:1; 
stroke-linecap:round; stroke-linejoin:round;">
<path d="M16.8148 12.7000
L13.6398 12.7000
" />
</g>
<g style="fill:none; 
stroke:#FFFFFF; stroke-width:0.7620; stroke-opacity:1; 
stroke-linecap:round; stroke-linejoin:round;">
<path d="M8.5598 27.9400
L11.7348 31.1150
" />
<path d="M16.8148 30.4800
L13.7055 30.4800
" />
<path d="M8.6255 25.4000
L6.0198 25.4000
" />
<path d="M13.7055 30.4800
L8.6255 25.4000
" />
<path d="M16.8148 27.9400
L12.9630 27.9400
" />
<path d="M7.8830 22.8600
L6.0198 22.8600
" />
<path d="M12.9630 27.9400
L7.8830 22.8600
" />
</g>
<g style="fill:none; 
stroke:#FFFFFF; stroke-width:0.8890; stroke-opacity:1; 
stroke-linecap:round; stroke-linejoin:round;">
<path d="M10.6798 55.8800
L9.1948 55.8800
" />
<path d="M16.8148 48.2600
L14.8023 48.2600
" />
<path d="M13.0058 53.5540
L10.6798 55.8800
" />
<path d="M14.8023 48.2600
L13.0058 50.0565
" />
<path d="M13.0058 50.0565
L13.0058 53.5540
" />
<path d="M46.0438 27.9347
L43.4984 30.4800
" />
<path d="M43.4984 30.4800
L39.6748 30.4800
" />
<path d="M46.0438 31.7447
L44.7684 33.0200
" />
<path d="M44.7684 33.0200
L39.6748 33.0200
" />
</g>
<g style="fill:none; 
stroke:#FFFFFF; stroke-width:0.6350; stroke-opacity:1; 
stroke-linecap:round; stroke-linejoin:round;">
<path d="M41.7068 45.7200
L45.7523 49.7655
" />
<path d="M45.7523 49.7655
L47.5778 49.7655
" />
<path d="M41.8338 45.7200
L39.6748 45.7200
" />
<path d="M39.6748 45.7200
L41.7068 45.7200
" />
<path d="M40.9448 40.6400
L45.6083 45.3035
" />
<path d="M45.6083 46.6928
L46.1410 47.2255
" />
<path d="M41.4420 40.6400
L39.6748 40.6400
" />
<path d="M46.1410 47.2255
L47.5778 47.2255
" />
<path d="M45.6083 45.3035
L45.6083 46.6928
" />
<path d="M39.6748 40.6400
L40.9448 40.6400
" />
<path d="M43.4848 35.5600
L43.4848 38.4532
" />
<path d="M47.1770 42.1455
L47.5778 42.1455
" />
<path d="M39.6748 35.5600
L43.4848 35.5600
" />
<path d="M43.4848 38.4532
L47.1770 42.1455
" />
<path d="M44.8700 41.6359
L44.8700 42.6719
" />
<path d="M39.6748 38.1000
L41.3341 38.1000
" />
<path d="M46.8835 44.6855
L47.5778 44.6855
" />
<path d="M44.8700 42.6719
L46.8835 44.6855
" />
<path d="M41.3341 38.1000
L44.8700 41.6359
" />
</g>
<g style="fill:none; 
stroke:#FFFFFF; stroke-width:1.2700; stroke-opacity:1; 
stroke-linecap:round; stroke-linejoin:round;">
<path d="M40.4368 55.8800
L42.2148 57.6580
" />
</g>
<g style="fill:none; 
stroke:#FFFFFF; stroke-width:0.6350; stroke-opacity:1; 
stroke-linecap:round; stroke-linejoin:round;">
<path d="M39.6748 55.8800
L40.4368 55.8800
" />
</g>
<g style="fill:none; 
stroke:#FFFFFF; stroke-width:1.2700; stroke-opacity:1; 
stroke-linecap:round; stroke-linejoin:round;">
<path d="M42.2268 57.6460
L46.8061 57.6460
" />
</g>
<g style="fill:none; 
stroke:#FFFFFF; stroke-width:0.6350; stroke-opacity:1; 
stroke-linecap:round; stroke-linejoin:round;">
<path d="M42.2148 57.6580
L42.2268 57.6460
" />
</g>
<g style="fill:none; 
stroke:#FFFFFF; stroke-width:1.2700; stroke-opacity:1; 
stroke-linecap:round; stroke-linejoin:round;">
<path d="M46.8061 54.0900
L46.8061 57.6460
" />
</g>
<g style="fill:none; 
stroke:#FFFFFF; stroke-width:0.8890; stroke-opacity:1; 
stroke-linecap:round; stroke-linejoin:round;">
<path d="M41.3913 20.3200
L39.6748 20.3200
" />
<path d="M43.2308 14.4780
L43.2308 18.4805
" />
<path d="M43.2308 18.4805
L41.3913 20.3200
" />
<path d="M43.7441 13.9647
L43.2308 14.4780
" />
<path d="M46.0438 13.9647
L43.7441 13.9647
" />
<path d="M40.9584 22.8600
L39.6748 22.8600
" />
<path d="M46.0438 17.7747
L40.9584 22.8600
" />
<path d="M46.0438 20.9497
L41.5934 25.4000
" />
<path d="M41.5934 25.4000
L39.6748 25.4000
" />
<path d="M46.0438 24.7597
L42.8634 27.9400
" />
<path d="M42.8634 27.9400
L39.6748 27.9400
" />
</g>
<g style="fill:none; 
stroke:#FFFFFF; stroke-width:0.7620; stroke-opacity:1; 
stroke-linecap:round; stroke-linejoin:round;">
<path d="M36.6268 7.8740
L36.6268 14.3510
" />
<path d="M36.6268 14.3510
L37.5158 15.2400
" />
<path d="M37.8968 5.2070
L37.8968 6.6040
" />
<path d="M37.8968 6.6040
L36.6268 7.8740
" />
<path d="M37.5158 15.2400
L39.6748 15.2400
" />
<path d="M35.3568 6.4770
L35.3568 5.2070
" />
<path d="M39.6748 17.7800
L35.9918 17.7800
" />
<path d="M35.9918 17.7800
L34.7218 16.5100
" />
<path d="M34.7218 7.1120
L35.3568 6.4770
" />
<path d="M34.7218 16.5100
L34.7218 7.1120
" />
<path style="fill:#FFFFFF; fill-opacity:1.0000; stroke:none;fill-rule:evenodd;"
d="M 27.4774,0.5196
27.3822,0.5745
27.3115,0.6587
27.2739,0.7620
27.2739,0.8720
27.3115,0.9752
27.3822,1.0595
27.4520,1.1018
27.4514,1.1029
27.6407,1.1994
27.8025,1.3169
29.0869,2.6013
29.2044,2.7631
29.2952,2.9413
29.2952,2.9413
29.2952,2.9413
29.2952,2.9413
29.3387,3.0750
29.3570,3.1315
29.3570,3.1315
29.3883,3.3290
29.3883,6.1426
29.4074,6.2509
29.4623,6.3461
29.5465,6.4167
29.6070,6.4436
29.7043,6.4752
29.9359,6.5933
29.9359,6.5933
29.9359,6.5933
30.0803,6.6982
30.1462,6.7461
30.3300,6.9299
30.3300,6.9299
30.3300,6.9299
30.4793,7.1354
30.4828,7.1402
30.6008,7.3718
30.6008,7.3718
30.6811,7.6190
30.6811,7.6190
30.7218,7.8758
30.7218,7.8758
30.7218,8.1357
30.7218,8.1357
30.6811,8.3925
30.6811,8.3925
30.6008,8.6397
30.6008,8.6397
30.6008,8.6397
30.6008,8.6397
30.4828,8.8713
30.3300,9.0816
30.1462,9.2654
29.9359,9.4182
29.7043,9.5363
29.7043,9.5363
29.7043,9.5363
29.7043,9.5363
29.4570,9.6166
29.4570,9.6166
29.4570,9.6166
29.4570,9.6166
29.4570,9.6166
29.3287,9.6369
29.2003,9.6572
29.2003,9.6572
28.9403,9.6572
28.9403,9.6572
28.6836,9.6166
28.4363,9.5363
28.2047,9.4182
28.0600,9.3131
27.9612,9.2649
27.9235,9.2566
27.8203,9.2402
27.6301,9.1784
27.5421,9.1336
27.4519,9.0876
27.4519,9.0876
27.2901,8.9701
27.1487,8.8287
27.0312,8.6669
27.0239,8.6526
26.9404,8.4887
26.9404,8.4887
26.9404,8.4887
26.8786,8.2985
26.8528,8.1357
26.8473,8.1010
26.8473,8.1010
26.8473,4.0864
26.8282,3.9781
26.7733,3.8829
26.7546,3.8626
26.6891,3.7970
26.6222,3.7301
26.5322,3.6671
26.4260,3.6387
26.3165,3.6482
26.2169,3.6947
26.1391,3.7724
26.0927,3.8720
26.0831,3.9815
26.0835,3.9861
26.0863,4.0132
26.0863,6.1468
26.0863,6.1468
26.0756,6.2512
26.0197,6.4200
26.0196,6.4204
25.9260,6.5721
25.7999,6.6982
25.7286,6.7422
25.6465,6.8152
25.5944,6.9120
25.5783,7.0115
25.5783,15.0125
25.5783,15.0125
25.5501,15.1903
25.5501,15.1903
25.5128,15.3051
25.5032,15.3348
25.4945,15.3615
25.4493,15.4503
25.4128,15.5218
25.3070,15.6674
19.9095,21.0649
19.7822,21.1922
19.6375,21.2974
19.6366,21.2980
19.6366,21.2980
19.6366,21.2980
19.4763,21.3797
19.4400,21.3915
19.3405,21.4238
19.3198,21.4306
19.2227,21.4822
19.1492,21.5639
19.1080,21.6658
19.1042,21.7756
19.1171,21.8311
19.1541,21.9428
19.1541,21.9428
19.1648,22.0472
19.1648,23.6728
19.1648,23.6728
19.1541,23.7772
19.0981,23.9464
19.0981,23.9464
19.0045,24.0981
18.8784,24.2242
18.7267,24.3178
18.5575,24.3738
18.4531,24.3845
15.1765,24.3845
15.0721,24.3738
14.9029,24.3178
14.7512,24.2242
14.6867,24.1597
14.5966,24.0967
14.4904,24.0682
14.4629,24.0670
12.9777,24.0670
12.9777,24.0670
12.9777,24.0670
12.9777,24.0670
12.8702,24.0500
12.7901,24.0373
12.6094,23.9786
12.6094,23.9786
12.6031,23.9753
12.6031,23.9753
12.6031,23.9753
12.4401,23.8923
12.2864,23.7806
12.1521,23.6463
7.0042,18.4984
6.8925,18.3447
6.8062,18.1754
6.8062,18.1754
6.8015,18.1639
6.7991,18.1649
6.7571,18.0860
6.6755,18.0124
6.5736,17.9712
6.4637,17.9674
6.3592,18.0013
6.3494,18.0067
6.2343,18.0732
6.1731,18.1085
5.9577,18.1977
5.7325,18.2581
5.7325,18.2581
5.7325,18.2581
5.5014,18.2885
5.5014,18.2885
5.5014,18.2885
5.5014,18.2885
5.2682,18.2885
5.2682,18.2885
5.2682,18.2885
5.2682,18.2885
5.0371,18.2581
5.0371,18.2581
5.0371,18.2581
4.8119,18.1977
4.5965,18.1085
4.3946,17.9919
4.2096,17.8500
4.0448,17.6852
3.9029,17.5002
3.7863,17.2983
3.6971,17.0829
3.6367,16.8577
3.6367,16.8577
3.6063,16.6266
3.6063,16.6266
3.6063,16.3934
3.6063,16.3934
3.6367,16.1623
3.6367,16.1623
3.6634,16.0626
3.6971,15.9371
3.7863,15.7217
3.9029,15.5198
3.9029,15.5198
4.0448,15.3348
4.0448,15.3348
4.0851,15.2945
4.1481,15.2045
4.1766,15.0983
4.1778,15.0707
4.1778,14.1393
4.1587,14.0310
4.1038,13.9358
4.0851,13.9155
4.0448,13.8752
3.9029,13.6902
3.7863,13.4883
3.6971,13.2729
3.6367,13.0477
3.6367,13.0477
3.6063,12.8166
3.6063,12.8166
3.6063,12.5834
3.6063,12.5834
3.6367,12.3523
3.6367,12.3523
3.6694,12.2303
3.6971,12.1271
3.7863,11.9117
3.9029,11.7098
3.9029,11.7098
4.0448,11.5248
4.0448,11.5248
4.0851,11.4845
4.1481,11.3945
4.1766,11.2883
4.1778,11.2607
4.1778,10.4563
4.1587,10.3480
4.1038,10.2528
4.0851,10.2325
4.0448,10.1922
3.9029,10.0072
3.7863,9.8053
3.6971,9.5899
3.6367,9.3647
3.6299,9.3131
3.6063,9.1336
3.6063,9.1336
3.6063,8.9004
3.6063,8.9004
3.6367,8.6693
3.6367,8.6693
3.6412,8.6526
3.6971,8.4441
3.7863,8.2287
3.9029,8.0268
3.9029,8.0268
4.0448,7.8418
4.0448,7.8418
4.0851,7.8015
4.1481,7.7115
4.1766,7.6053
4.1778,7.5777
4.1778,6.7733
4.1587,6.6650
4.1038,6.5698
4.0851,6.5495
4.0448,6.5092
3.9029,6.3242
3.7863,6.1223
3.6971,5.9069
3.6367,5.6817
3.6367,5.6817
3.6063,5.4506
3.6063,5.4506
3.6063,5.2174
3.6063,5.2174
3.6367,4.9863
3.6367,4.9863
3.6708,4.8593
3.6971,4.7611
3.7863,4.5457
3.9029,4.3438
3.9029,4.3438
4.0448,4.1588
4.0448,4.1588
4.1486,4.0550
4.1566,4.0436
4.1673,4.0347
4.1879,3.9989
4.2116,3.9650
4.2153,3.9515
4.2222,3.9395
4.2294,3.8987
4.2401,3.8588
4.2413,3.8312
4.2413,3.2770
4.2399,3.2573
4.2406,3.2573
4.2399,3.2449
4.2413,3.1677
4.2413,3.1677
4.2413,3.1649
4.2413,3.0850
4.2429,3.0750
4.2431,3.0649
4.2431,3.0649
4.2431,3.0649
4.2570,2.9862
4.2695,2.9072
4.2726,2.8976
4.2743,2.8877
4.2743,2.8877
4.2743,2.8877
4.3004,2.8121
4.3251,2.7360
4.3297,2.7270
4.3330,2.7175
4.3330,2.7175
4.3692,2.6493
4.3705,2.6469
4.4068,2.5757
4.4127,2.5675
4.4175,2.5586
4.4175,2.5586
4.4175,2.5586
4.4640,2.4969
4.4672,2.4925
4.4909,2.4599
4.5126,2.4301
4.5197,2.4229
4.5258,2.4148
4.5833,2.3593
4.6399,2.3028
4.6399,2.3028
4.6399,2.3028
4.6475,2.2962
4.6553,2.2898
4.7185,2.2456
4.7185,2.2456
4.7208,2.2440
4.7855,2.1970
4.7945,2.1924
4.8126,2.1797
5.9885,1.3566
5.9930,1.3534
6.0555,1.3080
6.0645,1.3034
6.0728,1.2976
6.1446,1.2626
6.1471,1.2613
6.1471,1.2613
6.1841,1.2424
6.2158,1.2263
6.2159,1.2263
6.2159,1.2263
6.2255,1.2231
6.2346,1.2187
6.3110,1.1954
6.3136,1.1945
6.3136,1.1945
6.3870,1.1707
6.3894,1.1703
6.3970,1.1691
6.4067,1.1661
6.4858,1.1550
6.4886,1.1546
6.4886,1.1546
6.5648,1.1425
6.5750,1.1417
6.5849,1.1411
6.6612,1.1424
6.6621,1.1425
6.6677,1.1425
17.7166,1.1425
17.7263,1.1408
17.7361,1.1419
17.7802,1.1313
17.8248,1.1234
17.8430,1.1162
17.8637,1.1072
17.9553,1.0464
18.0206,0.9580
18.0518,0.8526
18.0450,0.7429
18.0011,0.6421
17.9253,0.5625
17.8269,0.5135
17.7373,0.5005
0.8170,0.5005
0.7088,0.5196
0.6136,0.5745
0.5429,0.6587
0.5053,0.7620
0.5005,0.8170
0.5005,63.1910
0.5196,63.2992
0.5745,63.3944
0.6587,63.4651
0.7620,63.5027
0.8170,63.5075
54.0978,63.5075
54.2060,63.4884
54.3012,63.4335
54.3719,63.3492
54.4095,63.2460
54.4143,63.1910
54.4143,40.4626
51.5163,40.4626
51.5163,52.1725
51.4788,52.4094
51.4788,52.4095
51.4508,52.4957
51.4060,52.6334
51.4046,52.6377
51.2957,52.8515
51.2907,52.8583
51.1546,53.0456
51.1546,53.0456
51.0807,53.1196
51.0176,53.2096
50.9892,53.3158
50.9988,53.4253
51.0121,53.4645
51.0339,53.5171
51.0942,53.7423
51.0942,53.7423
51.1246,53.9734
51.1246,54.2066
51.0942,54.4377
51.0942,54.4377
51.0339,54.6629
50.9447,54.8783
50.9130,54.9331
50.8755,55.0363
50.8706,55.0913
50.8706,56.6447
50.8897,56.7530
50.9130,56.8030
50.9447,56.8577
51.0339,57.0731
51.0942,57.2983
51.0942,57.2983
51.1246,57.5294
51.1246,57.7626
51.0942,57.9937
51.0942,57.9937
51.0339,58.2189
50.9447,58.4343
50.9130,58.4891
50.8755,58.5923
50.8706,58.6473
50.8706,60.0446
50.8331,60.2816
50.8331,60.2817
50.8028,60.3748
50.8028,60.3748
50.7590,60.5099
50.7590,60.5099
50.7590,60.5099
50.6500,60.7237
50.5090,60.9178
49.3039,62.1228
49.1098,62.2639
48.8960,62.3728
48.6678,62.4470
48.5615,62.4638
48.4308,62.4845
48.4308,62.4845
48.4308,62.4845
48.4308,62.4845
48.4308,62.4845
7.8048,62.4845
7.8048,62.4845
7.8048,62.4845
7.8048,62.4845
7.8048,62.4845
7.7096,62.4694
7.5678,62.4470
7.3396,62.3728
7.1258,62.2639
6.9317,62.1228
5.4920,60.6831
5.3509,60.4890
5.2420,60.2752
5.2049,60.1610
5.1678,60.0470
5.1303,59.8100
5.1303,56.8813
5.1112,56.7730
5.0879,56.7230
5.0563,56.6683
4.9671,56.4529
4.9067,56.2277
4.9056,56.2189
4.8763,55.9966
4.8763,55.9966
4.8763,55.7634
4.8763,55.7634
4.9067,55.5323
4.9067,55.5323
4.9671,55.3071
5.0563,55.0917
5.0563,55.0917
5.0704,55.0672
5.1729,54.8898
5.1729,54.8898
5.3148,54.7048
5.3148,54.7048
5.3551,54.6645
5.4181,54.5745
5.4466,54.4683
5.4478,54.4407
5.4478,53.5093
5.4287,53.4010
5.3738,53.3058
5.3551,53.2855
5.3148,53.2452
5.1729,53.0602
5.0563,52.8583
4.9671,52.6429
4.9067,52.4177
4.9056,52.4094
4.8763,52.1866
4.8763,52.1866
4.8763,51.9534
4.8763,51.9534
4.9067,51.7223
4.9067,51.7223
4.9163,51.6867
4.9671,51.4971
5.0563,51.2817
5.1729,51.0798
5.1729,51.0798
5.3148,50.8948
5.3148,50.8948
5.3551,50.8545
5.4181,50.7645
5.4466,50.6583
5.4478,50.6307
5.4478,49.6993
5.4287,49.5910
5.3738,49.4958
5.3551,49.4755
5.3148,49.4352
5.1729,49.2502
5.0563,49.0483
4.9671,48.8329
4.9067,48.6077
4.9067,48.6077
4.8763,48.3766
4.8763,48.3766
4.8763,48.1434
4.8763,48.1434
4.9067,47.9123
4.9067,47.9123
4.9671,47.6871
5.0563,47.4717
5.0563,47.4717
5.0704,47.4472
5.1729,47.2698
5.1729,47.2698
5.3148,47.0848
5.3148,47.0848
5.3551,47.0445
5.4181,46.9545
5.4466,46.8483
5.4478,46.8207
5.4478,45.8893
5.4287,45.7810
5.3738,45.6858
5.3551,45.6655
5.3148,45.6252
5.1729,45.4402
5.0563,45.2383
4.9671,45.0229
4.9067,44.7977
4.9065,44.7963
4.8763,44.5666
4.8763,44.5666
4.8763,44.3334
4.8763,44.3334
4.9067,44.1023
4.9067,44.1023
4.9081,44.0972
4.9671,43.8771
5.0563,43.6617
5.1729,43.4598
5.1729,43.4598
5.3148,43.2748
5.3148,43.2748
5.3551,43.2345
5.4181,43.1445
5.4466,43.0383
5.4478,43.0107
5.4478,42.0793
5.4287,41.9710
5.3738,41.8758
5.3551,41.8555
5.3148,41.8152
5.1729,41.6302
5.0563,41.4283
4.9671,41.2129
4.9067,40.9877
4.8763,40.7566
4.8763,40.5234
4.8843,40.4626
4.9067,40.2923
4.9067,40.2923
4.9671,40.0671
5.0563,39.8517
5.1729,39.6498
5.1729,39.6498
5.3148,39.4648
5.3148,39.4648
5.3551,39.4245
5.4181,39.3345
5.4466,39.2283
5.4478,39.2007
5.4478,38.2693
5.4287,38.1610
5.3738,38.0658
5.3551,38.0455
5.3148,38.0052
5.1729,37.8202
5.0563,37.6183
4.9671,37.4029
4.9067,37.1777
4.8922,37.0677
4.8763,36.9466
4.8763,36.9466
4.8763,36.7134
4.8793,36.6906
4.8745,36.5808
4.8665,36.5515
4.8425,36.4776
4.8128,36.2900
4.8128,36.1000
4.8128,34.9490
4.7937,34.8407
4.7388,34.7456
4.6545,34.6749
4.5513,34.6373
4.4963,34.6325
4.3815,34.6325
4.3815,34.6325
4.2771,34.6218
4.1079,34.5658
3.9562,34.4722
3.8301,34.3461
3.7365,34.1944
3.6805,34.0252
3.6698,33.9208
3.6698,32.1192
3.6805,32.0148
3.7352,31.8496
3.7511,31.7408
3.7352,31.6505
3.6805,31.4852
3.6698,31.3808
3.6698,29.5792
3.6805,29.4748
3.7352,29.3096
3.7511,29.2008
3.7352,29.1105
3.6805,28.9452
3.6698,28.8408
3.6698,27.0392
3.6805,26.9348
3.7352,26.7696
3.7511,26.6608
3.7352,26.5705
3.6805,26.4052
3.6698,26.3008
3.6698,24.4992
3.6805,24.3948
3.7352,24.2296
3.7511,24.1208
3.7352,24.0305
3.6805,23.8652
3.6698,23.7608
3.6698,21.9592
3.6805,21.8548
3.7365,21.6856
3.8301,21.5339
3.9562,21.4078
4.1079,21.3142
4.1079,21.3142
4.1079,21.3142
4.2771,21.2582
4.2771,21.2582
4.3815,21.2475
7.6581,21.2475
7.6581,21.2475
7.7625,21.2582
7.9317,21.3142
7.9317,21.3142
8.0835,21.4078
8.2095,21.5338
8.2095,21.5338
8.2095,21.5339
8.2245,21.5581
8.3031,21.6856
8.3041,21.6886
8.3071,21.6943
8.3109,21.7023
8.3113,21.7021
8.3562,21.7854
8.4384,21.8584
8.4608,21.8711
8.4823,21.8820
8.4823,21.8820
8.6279,21.9878
13.3439,26.7038
13.4339,26.7668
13.5401,26.7953
13.5677,26.7965
14.3994,26.7965
14.5076,26.7774
14.6028,26.7225
14.6232,26.7038
14.7511,26.5758
14.7512,26.5758
14.9029,26.4822
14.9029,26.4822
14.9029,26.4822
15.0721,26.4262
15.0721,26.4262
15.1765,26.4155
18.4531,26.4155
18.4531,26.4155
18.5575,26.4262
18.7267,26.4822
18.7267,26.4822
18.8697,26.5704
18.8785,26.5758
19.0045,26.7018
19.0045,26.7019
19.0045,26.7019
19.0152,26.7192
19.0981,26.8536
19.0981,26.8536
19.1541,27.0228
19.1541,27.0228
19.1648,27.1272
19.1648,28.7528
19.1648,28.7528
19.1541,28.8572
19.0981,29.0264
19.0981,29.0264
19.0873,29.0438
19.0467,29.1460
19.0435,29.2559
19.0781,29.3602
19.0873,29.3762
19.0981,29.3936
19.0981,29.3936
19.1541,29.5628
19.1541,29.5628
19.1648,29.6672
19.1648,31.2928
19.1648,31.2928
19.1541,31.3972
19.0981,31.5664
19.0981,31.5664
19.0873,31.5838
19.0467,31.6860
19.0435,31.7959
19.0781,31.9002
19.0873,31.9162
19.0981,31.9336
19.0981,31.9336
19.1541,32.1028
19.1541,32.1028
19.1648,32.2072
19.1648,33.8328
19.1648,33.8328
19.1541,33.9372
19.0981,34.1064
19.0981,34.1064
19.0873,34.1238
19.0467,34.2260
19.0435,34.3359
19.0781,34.4402
19.0873,34.4562
19.0981,34.4736
19.0981,34.4736
19.1541,34.6428
19.1541,34.6428
19.1648,34.7472
19.1648,36.3728
19.1648,36.3728
19.1541,36.4772
19.0981,36.6464
19.0981,36.6464
19.0873,36.6638
19.0467,36.7660
19.0435,36.8759
19.0781,36.9802
19.0873,36.9962
19.0981,37.0136
19.0981,37.0136
19.1541,37.1828
19.1541,37.1828
19.1648,37.2872
19.1648,38.9128
19.1648,38.9128
19.1541,39.0172
19.0981,39.1864
19.0981,39.1864
19.0873,39.2038
19.0467,39.3060
19.0435,39.4159
19.0781,39.5202
19.0873,39.5362
19.0981,39.5536
19.0981,39.5536
19.1541,39.7228
19.1541,39.7228
19.1648,39.8272
19.1648,41.4528
19.1648,41.4528
19.1541,41.5572
19.0981,41.7264
19.0981,41.7264
19.0873,41.7438
19.0467,41.8460
19.0435,41.9559
19.0781,42.0602
19.0873,42.0762
19.0981,42.0936
19.0981,42.0936
19.1541,42.2628
19.1541,42.2628
19.1648,42.3672
19.1648,43.9928
19.1648,43.9928
19.1541,44.0972
19.0981,44.2664
19.0981,44.2664
19.0873,44.2838
19.0467,44.3860
19.0435,44.4959
19.0781,44.6002
19.0873,44.6162
19.0981,44.6336
19.0981,44.6336
19.1541,44.8028
19.1541,44.8028
19.1648,44.9072
19.1648,46.5328
19.1648,46.5328
19.1541,46.6372
19.0981,46.8064
19.0981,46.8064
19.0873,46.8238
19.0467,46.9260
19.0435,47.0359
19.0781,47.1402
19.0873,47.1562
19.0981,47.1736
19.0981,47.1736
19.1541,47.3428
19.1541,47.3428
19.1648,47.4472
19.1648,49.0728
19.1648,49.0728
19.1541,49.1772
19.0981,49.3464
19.0981,49.3464
19.0873,49.3638
19.0467,49.4660
19.0435,49.5759
19.0781,49.6802
19.0873,49.6962
19.0981,49.7136
19.0981,49.7136
19.1541,49.8828
19.1541,49.8828
19.1648,49.9872
19.1648,51.6128
19.1648,51.6128
19.1541,51.7172
19.0981,51.8864
19.0981,51.8864
19.0873,51.9038
19.0467,52.0060
19.0435,52.1159
19.0781,52.2202
19.0873,52.2362
19.0981,52.2536
19.0981,52.2536
19.1541,52.4228
19.1541,52.4228
19.1648,52.5272
19.1648,54.1528
19.1648,54.1528
19.1541,54.2572
19.0981,54.4264
19.0981,54.4264
19.0873,54.4438
19.0467,54.5460
19.0435,54.6559
19.0781,54.7602
19.0873,54.7762
19.0981,54.7936
19.0981,54.7936
19.1541,54.9628
19.1541,54.9628
19.1648,55.0672
19.1648,56.6928
19.1648,56.6928
19.1541,56.7972
19.0981,56.9664
19.0981,56.9664
19.0045,57.1181
18.8784,57.2442
18.7267,57.3378
18.5575,57.3938
18.4531,57.4045
15.1765,57.4045
15.0721,57.3938
14.9029,57.3378
14.7512,57.2442
14.6251,57.1181
14.5315,56.9664
14.4755,56.7972
14.4648,56.6928
14.4648,55.0672
14.4755,54.9628
14.5315,54.7936
14.5423,54.7762
14.5579,54.7368
14.5767,54.6988
14.5781,54.6860
14.5829,54.6740
14.5841,54.6317
14.5887,54.5896
14.5856,54.5797
14.5861,54.5641
14.5627,54.4828
14.5538,54.4626
14.5315,54.4264
14.5117,54.3667
14.5058,54.3531
14.4834,54.3195
14.4642,54.2840
14.4531,54.2741
14.4448,54.2616
14.4123,54.2377
14.3821,54.2109
14.3682,54.2054
14.3562,54.1966
14.3175,54.1852
14.2800,54.1703
14.2650,54.1699
14.2507,54.1657
14.2104,54.1683
14.1701,54.1671
14.1559,54.1718
14.1410,54.1728
14.1041,54.1890
14.0657,54.2017
14.0540,54.2110
14.0404,54.2170
14.0112,54.2449
13.9795,54.2699
13.9613,54.2925
13.9609,54.2929
13.9607,54.2932
13.9599,54.2943
13.9264,54.3403
13.9264,54.3403
12.7345,55.5323
11.6004,56.6663
11.4661,56.8006
11.3124,56.9123
11.1711,56.9843
11.1431,56.9986
10.9675,57.0556
10.8704,57.1073
10.7969,57.1889
10.7811,57.2179
10.7072,57.3378
10.6860,57.3721
10.5599,57.4982
10.4082,57.5918
10.2390,57.6478
10.1346,57.6585
8.4958,57.6585
8.3876,57.6776
8.2924,57.7325
8.2217,57.8167
8.1841,57.9200
8.1793,57.9750
8.1793,58.9274
8.1817,58.9411
8.1805,58.9550
8.1912,58.9950
8.1984,59.0357
8.2054,59.0477
8.2090,59.0612
8.2327,59.0951
8.2533,59.1309
8.2720,59.1512
8.4636,59.3428
8.5536,59.4058
8.6598,59.4343
8.6874,59.4355
41.3103,59.4355
41.4185,59.4164
41.5137,59.3615
41.5844,59.2772
41.6220,59.1740
41.6220,59.0640
41.5844,58.9607
41.5137,58.8765
41.4921,58.8610
41.4924,58.8606
41.3044,58.7240
41.3044,58.7240
41.3044,58.7240
40.0776,57.4972
39.9876,57.4342
39.8814,57.4057
39.8538,57.4045
38.0365,57.4045
38.0365,57.4045
37.9321,57.3938
37.7629,57.3378
37.6112,57.2442
37.4851,57.1181
37.3915,56.9664
37.3355,56.7972
37.3248,56.6928
37.3248,55.0672
37.3355,54.9628
37.3915,54.7936
37.4023,54.7762
37.4429,54.6740
37.4461,54.5641
37.4115,54.4598
37.4023,54.4438
37.3915,54.4264
37.3355,54.2572
37.3248,54.1528
37.3248,52.5272
37.3355,52.4228
37.3915,52.2536
37.4023,52.2362
37.4429,52.1340
37.4461,52.0241
37.4115,51.9198
37.4023,51.9038
37.3915,51.8864
37.3355,51.7172
37.3248,51.6128
37.3248,51.2979
30.0826,51.2979
30.0826,51.5721
30.0468,51.8440
30.0468,51.8440
30.0468,51.8440
29.9789,52.0975
29.9758,52.1088
29.8709,52.3622
29.8244,52.4428
29.7756,52.5272
29.7338,52.5996
29.5669,52.8172
29.5669,52.8172
29.3730,53.0111
29.3730,53.0111
29.1554,53.1780
29.1554,53.1780
29.1554,53.1780
28.9340,53.3058
28.9180,53.3151
28.8335,53.3501
28.6646,53.4200
28.3998,53.4910
28.3998,53.4910
28.1279,53.5268
28.1279,53.5268
28.1279,53.5268
28.1279,53.5268
27.8537,53.5268
27.8537,53.5268
27.8537,53.5268
27.8537,53.5268
27.6821,53.5042
27.5818,53.4910
27.3170,53.4200
27.0636,53.3151
26.8262,53.1780
26.6086,53.0111
26.4147,52.8172
26.2478,52.5996
26.1107,52.3622
26.0058,52.1088
25.9348,51.8440
25.9044,51.6128
25.8990,51.5721
25.8990,51.5721
25.8990,51.2979
25.8990,51.2979
25.9348,51.0260
25.9348,51.0260
26.0058,50.7612
26.1107,50.5078
26.2478,50.2704
26.2478,50.2704
26.2478,50.2704
26.4147,50.0528
26.4147,50.0528
26.6086,49.8589
26.6086,49.8589
26.8262,49.6920
26.8262,49.6920
26.8262,49.6920
26.9959,49.5940
27.0636,49.5549
27.3170,49.4500
27.3170,49.4500
27.3170,49.4500
27.5818,49.3790
27.5818,49.3790
27.5818,49.3790
27.8537,49.3432
27.8537,49.3432
28.1279,49.3432
28.1279,49.3432
28.3998,49.3790
28.3998,49.3790
28.3998,49.3790
28.4028,49.3798
28.6646,49.4500
28.9180,49.5549
29.1554,49.6920
29.3730,49.8589
29.3730,49.8589
29.5669,50.0528
29.5669,50.0528
29.7338,50.2704
29.8709,50.5078
29.9758,50.7612
30.0468,51.0260
30.0826,51.2979
37.3248,51.2979
37.3248,50.7926
37.3248,49.9872
37.3248,49.9872
37.3355,49.8828
37.3915,49.7136
37.4023,49.6962
37.4429,49.5940
37.4461,49.4841
37.4115,49.3798
37.4023,49.3638
37.3915,49.3464
37.3355,49.1772
37.3248,49.0728
37.3248,47.4472
37.3355,47.3428
37.3915,47.1736
37.4023,47.1562
37.4429,47.0540
37.4461,46.9441
37.4115,46.8398
37.4023,46.8238
37.3915,46.8064
37.3355,46.6372
37.3248,46.5328
37.3248,44.9072
37.3355,44.8028
37.3915,44.6336
37.4851,44.4819
37.6112,44.3558
37.7629,44.2622
37.7629,44.2622
37.7629,44.2622
37.9321,44.2062
37.9321,44.2062
38.0365,44.1955
41.3131,44.1955
41.3131,44.1955
41.4175,44.2062
41.5867,44.2622
41.5867,44.2622
41.7022,44.3334
41.7385,44.3558
41.8645,44.4819
41.8911,44.5250
41.9642,44.6071
42.0609,44.6592
42.0866,44.6666
42.0867,44.6666
42.2484,44.7191
42.3998,44.7963
42.3998,44.7963
42.5374,44.8962
42.6576,45.0164
42.7575,45.1540
42.8276,45.2915
42.8858,45.3717
43.9880,46.4739
44.0219,46.4976
44.0536,46.5242
44.0667,46.5289
44.0781,46.5369
44.1180,46.5476
44.1569,46.5618
44.1708,46.5618
44.1842,46.5654
44.2254,46.5618
44.2668,46.5618
44.2799,46.5570
44.2937,46.5558
44.3312,46.5383
44.3701,46.5242
44.3807,46.5152
44.3934,46.5093
44.4226,46.4801
44.4543,46.4535
44.4612,46.4415
44.4711,46.4316
44.4886,46.3941
44.5092,46.3583
44.5116,46.3446
44.5175,46.3320
44.5283,46.2501
44.5283,45.8820
44.5092,45.7737
44.4543,45.6785
44.4356,45.6582
41.0346,42.2572
40.9446,42.1942
40.8384,42.1657
40.8109,42.1645
38.0365,42.1645
38.0365,42.1645
37.9321,42.1538
37.7629,42.0978
37.6112,42.0042
37.4851,41.8781
37.3915,41.7264
37.3355,41.5572
37.3248,41.4528
37.3248,39.8272
37.3355,39.7228
37.3915,39.5536
37.4023,39.5362
37.4429,39.4340
37.4461,39.3241
37.4115,39.2198
37.4023,39.2038
37.3915,39.1864
37.3355,39.0172
37.3248,38.9128
37.3248,37.2872
37.3355,37.1828
37.3915,37.0136
37.4023,36.9962
37.4429,36.8940
37.4461,36.7841
37.4115,36.6798
37.4023,36.6638
37.3915,36.6464
37.3355,36.4772
37.3248,36.3728
37.3248,34.7472
37.3355,34.6428
37.3915,34.4736
37.4023,34.4562
37.4429,34.3540
37.4461,34.2441
37.4115,34.1398
37.4023,34.1238
37.3915,34.1064
37.3355,33.9372
37.3248,33.8328
37.3248,32.2072
37.3355,32.1028
37.3915,31.9336
37.4023,31.9162
37.4429,31.8140
37.4461,31.7041
37.4115,31.5998
37.4023,31.5838
37.3915,31.5664
37.3355,31.3972
37.3248,31.2928
37.3248,29.6672
37.3355,29.5628
37.3915,29.3936
37.4023,29.3762
37.4429,29.2740
37.4461,29.1641
37.4115,29.0598
37.4023,29.0438
37.3915,29.0264
37.3355,28.8572
37.3248,28.7528
37.3248,27.1272
37.3355,27.0228
37.3915,26.8536
37.4023,26.8362
37.4429,26.7340
37.4461,26.6241
37.4115,26.5198
37.4023,26.5039
37.3915,26.4864
37.3355,26.3172
37.3248,26.2128
37.3248,24.5872
37.3355,24.4828
37.3915,24.3136
37.4023,24.2962
37.4429,24.1940
37.4461,24.0841
37.4115,23.9798
37.4023,23.9639
37.3915,23.9464
37.3355,23.7772
37.3248,23.6728
37.3248,22.0472
37.3355,21.9428
37.3915,21.7736
37.4023,21.7562
37.4429,21.6540
37.4461,21.5441
37.4115,21.4398
37.4023,21.4239
37.3915,21.4064
37.3355,21.2372
37.3248,21.1328
37.3248,19.5072
37.3355,19.4028
37.3564,19.3396
37.3723,19.2308
37.3501,19.1231
37.2924,19.0296
37.2062,18.9614
37.1019,18.9268
37.0560,18.9235
35.9018,18.9235
35.9018,18.9235
35.7240,18.8953
35.6351,18.8664
35.6117,18.8589
35.6117,18.8589
35.5891,18.8515
35.5528,18.8397
35.3925,18.7580
35.3737,18.7444
35.2469,18.6522
33.8496,17.2549
33.7891,17.1717
33.7438,17.1093
33.6621,16.9490
33.6065,16.7778
33.5909,16.6798
33.5783,16.6000
33.5783,16.4200
33.5783,7.0220
33.5783,7.0220
33.5783,7.0220
33.5796,7.0135
33.5841,6.9855
33.6065,6.8442
33.6621,6.6730
33.7188,6.5617
33.7438,6.5127
33.7710,6.4752
33.7975,6.4388
33.8457,6.3400
33.8572,6.2306
33.8306,6.1240
33.8155,6.0945
33.7833,6.0386
33.7583,5.9953
33.6691,5.7799
33.6087,5.5547
33.5950,5.4506
33.5783,5.3236
33.5783,5.3236
33.5783,5.0904
33.5783,5.0904
33.6087,4.8593
33.6087,4.8593
33.6350,4.7611
33.6691,4.6341
33.7583,4.4187
33.8749,4.2168
33.8749,4.2168
34.0168,4.0318
34.0168,4.0318
34.1816,3.8670
34.1816,3.8670
34.3666,3.7251
34.5685,3.6085
34.5685,3.6085
34.7839,3.5193
35.0091,3.4589
35.0091,3.4589
35.2402,3.4285
35.2402,3.4285
35.4734,3.4285
35.4734,3.4285
35.7045,3.4589
35.7045,3.4589
35.9297,3.5193
36.1451,3.6085
36.1681,3.6218
36.2714,3.6594
36.3813,3.6594
36.4846,3.6218
36.5226,3.5959
36.5316,3.5888
36.5317,3.5888
36.6834,3.4952
36.6834,3.4952
36.6834,3.4952
36.8526,3.4392
36.8526,3.4392
36.9570,3.4285
38.8366,3.4285
38.8366,3.4285
38.9410,3.4392
39.1102,3.4952
39.1102,3.4952
39.2604,3.5879
39.2620,3.5888
39.3880,3.7148
39.3880,3.7148
39.3880,3.7149
39.4387,3.7970
39.4816,3.8666
39.4816,3.8666
39.5376,4.0358
39.5376,4.0358
39.5483,4.1402
39.5483,6.0386
39.5674,6.1468
39.6223,6.2420
39.7066,6.3127
39.8098,6.3503
39.8153,6.3512
40.0615,6.3902
40.0615,6.3902
40.3088,6.4705
40.3088,6.4705
40.5404,6.5885
40.5404,6.5885
40.5404,6.5885
40.6913,6.6982
40.7507,6.7413
40.9345,6.9251
41.0873,7.1354
41.2053,7.3670
41.2053,7.3670
41.2856,7.6143
41.2856,7.6143
41.3263,7.8710
41.3263,7.8710
41.3263,8.1310
41.2954,8.3263
41.2973,8.4362
41.3367,8.5389
41.4088,8.6218
41.4544,8.6526
41.4803,8.6670
41.5867,8.7022
41.7384,8.7958
41.7708,8.8282
41.8097,8.8497
41.8203,8.8534
41.8295,8.8598
41.8720,8.8712
41.9136,8.8856
41.9248,8.8854
41.9357,8.8883
41.9632,8.8895
46.3160,8.8895
46.4714,8.9141
46.4936,8.9176
46.5072,8.9198
46.5135,8.9208
46.7037,8.9826
46.7037,8.9826
46.8819,9.0734
47.0437,9.1909
49.5529,11.7001
49.6704,11.8619
49.7612,12.0401
49.7612,12.0401
49.7612,12.0401
49.7612,12.0401
49.8032,12.1695
49.8230,12.2303
49.8230,12.2303
49.8543,12.4278
49.8543,12.5915
49.8734,12.6997
49.9197,12.7841
50.0657,12.9744
50.0657,12.9744
50.1823,13.1763
50.1823,13.1764
50.2715,13.3917
50.3319,13.6169
50.3319,13.6169
50.3623,13.8481
50.3623,14.0812
50.3319,14.3124
50.3319,14.3124
50.2715,14.5376
50.1823,14.7529
50.1823,14.7530
50.0657,14.9549
50.0657,14.9549
49.9238,15.1398
49.9238,15.1398
49.9238,15.1398
49.8835,15.1801
49.8204,15.2702
49.7920,15.3763
49.7908,15.4039
49.7908,16.3354
49.8099,16.4436
49.8648,16.5388
49.8835,16.5592
49.9238,16.5995
49.9238,16.5995
50.0657,16.7844
50.0657,16.7844
50.1823,16.9863
50.1823,16.9864
50.2715,17.2017
50.3319,17.4269
50.3319,17.4269
50.3623,17.6581
50.3623,17.8912
50.3319,18.1224
50.3319,18.1224
50.2715,18.3476
50.1823,18.5629
50.1823,18.5630
50.0657,18.7649
50.0657,18.7649
49.9238,18.9498
49.9238,18.9498
49.9238,18.9498
49.8835,18.9901
49.8755,19.0015
49.8648,19.0105
49.8442,19.0463
49.8204,19.0802
49.8168,19.0936
49.8099,19.1057
49.8027,19.1464
49.7920,19.1863
49.7908,19.2139
49.7908,19.5104
49.8099,19.6186
49.8648,19.7138
49.8835,19.7342
49.9238,19.7745
49.9238,19.7745
50.0657,19.9594
50.0657,19.9594
50.1823,20.1613
50.1823,20.1614
50.2715,20.3767
50.3319,20.6019
50.3319,20.6019
50.3623,20.8331
50.3623,21.0662
50.3319,21.2974
50.3319,21.2974
50.2715,21.5226
50.1823,21.7379
50.1823,21.7380
50.0657,21.9399
50.0657,21.9399
49.9238,22.1248
49.9238,22.1248
49.9238,22.1248
49.8835,22.1651
49.8204,22.2552
49.7920,22.3613
49.7908,22.3889
49.7908,23.3204
49.8099,23.4286
49.8648,23.5238
49.8835,23.5442
49.9238,23.5845
49.9238,23.5845
50.0657,23.7694
50.0657,23.7694
50.1823,23.9713
50.1823,23.9714
50.2715,24.1867
50.3319,24.4119
50.3319,24.4119
50.3623,24.6431
50.3623,24.8762
50.3319,25.1074
50.3319,25.1074
50.2715,25.3326
50.1823,25.5479
50.1823,25.5480
50.0657,25.7499
50.0657,25.7499
49.9238,25.9348
49.9238,25.9348
49.9238,25.9348
49.8835,25.9751
49.8755,25.9865
49.8648,25.9955
49.8442,26.0313
49.8204,26.0652
49.8168,26.0786
49.8099,26.0907
49.8027,26.1314
49.7920,26.1713
49.7908,26.1989
49.7908,26.4954
49.8099,26.6036
49.8648,26.6988
49.8835,26.7192
49.9238,26.7595
49.9238,26.7595
50.0657,26.9444
50.0657,26.9444
50.1823,27.1463
50.1823,27.1464
50.2715,27.3617
50.3319,27.5869
50.3319,27.5869
50.3623,27.8181
50.3623,28.0512
50.3319,28.2824
50.3319,28.2824
50.2715,28.5076
50.1823,28.7229
50.1823,28.7230
50.0657,28.9249
50.0657,28.9249
49.9238,29.1098
49.9238,29.1098
49.9238,29.1098
49.8835,29.1501
49.8204,29.2402
49.7920,29.3463
49.7908,29.3739
49.7908,30.3054
49.8099,30.4136
49.8648,30.5088
49.8835,30.5292
49.9238,30.5695
49.9238,30.5695
50.0657,30.7544
50.0657,30.7544
50.1823,30.9563
50.1823,30.9564
50.2715,31.1717
50.3319,31.3969
50.3319,31.3969
50.3623,31.6281
50.3623,31.8612
50.3319,32.0924
50.3319,32.0924
50.2715,32.3176
50.1823,32.5329
50.1507,32.5877
50.1131,32.6910
50.1083,32.7459
50.1083,33.3015
50.0708,33.5385
49.9966,33.7667
49.8877,33.9805
49.8877,33.9805
49.7466,34.1746
49.5769,34.3443
49.3828,34.4854
49.3828,34.4854
49.1690,34.5943
49.1247,34.6087
48.9431,34.6677
48.8461,34.7193
48.8171,34.7449
48.3030,35.2591
48.1412,35.3766
47.9630,35.4674
47.9630,35.4674
47.7728,35.5292
47.7728,35.5292
47.7728,35.5292
47.5753,35.5605
47.5753,35.5605
47.5753,35.5605
47.5753,35.5605
47.5727,35.5607
47.5706,35.5612
47.5630,35.5624
47.5631,35.5632
47.4662,35.5882
47.3757,35.6505
47.3737,35.6524
46.5270,36.4991
46.4640,36.5891
46.4355,36.6953
46.4343,36.7229
46.4343,37.4080
46.4367,37.4217
46.4355,37.4356
46.4462,37.4755
46.4534,37.5163
46.4604,37.5283
46.4640,37.5418
46.4877,37.5756
46.5084,37.6115
46.5270,37.6318
46.7243,37.8291
46.8143,37.8921
46.9205,37.9206
47.0300,37.9110
47.0300,37.9110
47.0300,37.9110
47.2301,37.8574
47.2301,37.8574
47.4612,37.8270
47.4612,37.8270
47.6944,37.8270
47.6944,37.8270
47.9255,37.8574
47.9255,37.8574
48.1507,37.9177
48.3661,38.0069
48.4024,38.0279
48.4209,38.0386
48.5242,38.0762
48.5791,38.0810
49.1346,38.0810
49.3716,38.1185
49.3716,38.1185
49.5763,38.1850
49.5999,38.1926
49.5999,38.1927
49.8137,38.3016
50.0078,38.4426
50.0078,38.4426
51.1546,39.5895
51.1546,39.5895
51.2957,39.7836
51.2957,39.7836
51.2957,39.7836
51.3304,39.8517
51.3868,39.9624
51.3868,39.9624
51.4046,39.9974
51.4046,39.9974
51.4788,40.2256
51.4788,40.2256
51.5163,40.4626
54.4143,40.4626
54.4143,0.8170
54.3952,0.7088
54.3403,0.6136
54.2560,0.5429
54.1528,0.5053
54.0978,0.5005
27.5856,0.5005
Z" /> 
<path style="fill:#FFFFFF; fill-opacity:1.0000; stroke:none;fill-rule:evenodd;"
d="M 13.5946,3.4486
13.4994,3.5035
13.4287,3.5877
13.3911,3.6910
13.3863,3.7460
13.3863,7.0851
13.3642,7.1964
13.3472,7.2815
13.3098,7.3718
13.2706,7.4665
13.1594,7.6330
13.1594,7.6330
12.2402,8.5522
12.1820,8.6323
12.1508,8.6935
12.1187,8.7986
12.1163,8.8371
12.1163,10.0838
12.1163,10.0838
12.1056,10.1882
12.0603,10.3252
12.0496,10.3574
11.9560,10.5091
11.9560,10.5092
11.8304,10.6347
11.8262,10.6408
11.8203,10.6453
11.7948,10.6856
11.7674,10.7247
11.7655,10.7319
11.7615,10.7381
11.7513,10.7848
11.7389,10.8309
11.7396,10.8383
11.7380,10.8455
11.7444,10.8928
11.7485,10.9404
11.7516,10.9471
11.7526,10.9544
11.7630,10.9715
11.7950,11.0400
11.8036,11.0518
11.8239,11.0781
11.8299,11.0818
11.9560,11.2079
12.0496,11.3596
12.0560,11.3790
12.0840,11.4153
12.0991,11.4291
12.1108,11.4458
12.1395,11.4658
12.1653,11.4894
12.1842,11.4971
12.2009,11.5088
12.2346,11.5179
12.2669,11.5312
12.2873,11.5320
12.3071,11.5373
12.3419,11.5342
12.3767,11.5357
12.3962,11.5295
12.4166,11.5277
12.4482,11.5129
12.4815,11.5024
12.4977,11.4899
12.5162,11.4812
12.5584,11.4458
12.5639,11.4403
12.5639,11.4403
12.7742,11.2875
13.0058,11.1695
13.0058,11.1695
13.0058,11.1695
13.0058,11.1695
13.2531,11.0892
13.2531,11.0892
13.5098,11.0485
13.5098,11.0485
13.5098,11.0485
13.7698,11.0485
13.7698,11.0485
13.7698,11.0485
14.0265,11.0892
14.0265,11.0892
14.2737,11.1695
14.2855,11.1755
14.5054,11.2875
14.5054,11.2875
14.5165,11.2932
14.5173,11.2915
14.6043,11.3258
14.7142,11.3286
14.8184,11.2937
14.8336,11.2850
14.9029,11.2422
14.9029,11.2422
15.0721,11.1862
15.0721,11.1862
15.1765,11.1755
18.4531,11.1755
18.4531,11.1755
18.5575,11.1862
18.7267,11.2422
18.7267,11.2422
18.7960,11.2850
18.8785,11.3358
19.0045,11.4618
19.0045,11.4619
19.0045,11.4619
19.0510,11.5373
19.0981,11.6136
19.0981,11.6136
19.1541,11.7828
19.1541,11.7828
19.1648,11.8872
19.1648,13.5128
19.1648,13.5128
19.1541,13.6172
19.0981,13.7864
19.0981,13.7864
19.0873,13.8038
19.0467,13.9060
19.0435,14.0159
19.0781,14.1202
19.0873,14.1362
19.0981,14.1536
19.0981,14.1536
19.1541,14.3228
19.1541,14.3228
19.1648,14.4272
19.1648,15.2712
19.1839,15.3795
19.2388,15.4747
19.3230,15.5453
19.4263,15.5829
19.5363,15.5829
19.6395,15.5453
19.7051,15.4950
20.6586,14.5415
20.7216,14.4515
20.7501,14.3453
20.7513,14.3177
20.7513,6.8756
20.7322,6.7673
20.6773,6.6721
20.5930,6.6015
20.4898,6.5639
20.3798,6.5639
20.2766,6.6015
20.1431,6.6785
20.1431,6.6785
19.9277,6.7677
19.7025,6.8281
19.7025,6.8281
19.7025,6.8281
19.4714,6.8585
19.4714,6.8585
19.4714,6.8585
19.4714,6.8585
19.2382,6.8585
19.2382,6.8585
19.2382,6.8585
19.2382,6.8585
19.0071,6.8281
19.0071,6.8281
19.0071,6.8281
18.7819,6.7677
18.5665,6.6785
18.3646,6.5619
18.1796,6.4200
18.0148,6.2552
17.8729,6.0702
17.7563,5.8683
17.6671,5.6529
17.6067,5.4277
17.5930,5.3236
17.5763,5.1966
17.5763,5.1966
17.5763,4.9634
17.5763,4.9634
17.6067,4.7323
17.6067,4.7323
17.6330,4.6341
17.6671,4.5071
17.7563,4.2917
17.7563,4.2917
17.7991,4.2176
17.8127,4.1802
17.8298,4.1444
17.8314,4.1289
17.8367,4.1143
17.8367,4.0745
17.8405,4.0350
17.8367,4.0199
17.8367,4.0044
17.8231,3.9670
17.8132,3.9285
17.8053,3.9183
17.7991,3.9011
17.7511,3.8379
17.7392,3.8258
17.7175,3.8079
17.6777,3.7629
17.6722,3.7573
17.6718,3.7570
17.6699,3.7550
17.6331,3.7182
17.6194,3.6994
17.6003,3.6756
17.5849,3.6582
17.5569,3.6143
17.5461,3.5985
17.5181,3.5600
17.4390,3.4836
17.3386,3.4389
17.2621,3.4295
13.7028,3.4295
Z" /> 
<path style="fill:#FFFFFF; fill-opacity:1.0000; stroke:none;fill-rule:evenodd;"
d="M 18.8315,0.5196
18.7363,0.5745
18.6656,0.6587
18.6280,0.7620
18.6280,0.8720
18.6656,0.9752
18.7363,1.0595
18.8239,1.1116
18.8468,1.1206
18.9545,1.1424
18.9626,1.1425
26.3445,1.1425
26.3578,1.1402
26.3713,1.1414
26.4041,1.1320
26.4528,1.1234
26.4775,1.1132
26.4829,1.1107
26.4871,1.1086
26.4885,1.1081
26.4970,1.1042
26.5368,1.0765
26.5778,1.0504
26.5818,1.0452
26.5872,1.0414
26.6151,1.0017
26.6447,0.9631
26.6467,0.9569
26.6505,0.9515
26.6632,0.9046
26.6778,0.8583
26.6775,0.8518
26.6792,0.8454
26.6751,0.7970
26.6730,0.7485
26.6705,0.7424
26.6699,0.7359
26.6495,0.6918
26.6309,0.6469
26.6265,0.6421
26.6237,0.6362
26.5895,0.6017
26.5567,0.5659
26.5508,0.5629
26.5462,0.5582
26.5022,0.5376
26.4592,0.5151
26.4522,0.5141
26.4467,0.5115
26.4196,0.5091
26.3640,0.5005
18.9397,0.5005
Z" /> 
</g>
<g style="fill:none; 
stroke:#FFFFFF; stroke-width:0.0500; stroke-opacity:1; 
stroke-linecap:round; stroke-linejoin:round;">
<circle cx="27.9908" cy="51.4350" r="1.5913" /> 
<path style="fill:none; 
stroke:#FFFFFF; stroke-width:0.0500; stroke-opacity:1; 
stroke-linecap:round; stroke-linejoin:round;fill:none"
d="M 54.9148,0.0000
0.0000,0.0000
0.0000,64.0080
54.9148,64.0080
Z" /> 
</g>
<g style="fill:#000000; fill-opacity:1.0000; stroke:none;">
<circle cx="29.0703" cy="8.0057" r="0.3810" /> 
</g>
<g style="fill:#000000; fill-opacity:1.0000; stroke:none;">
<circle cx="39.6748" cy="8.0010" r="0.3810" /> 
</g>
<g style="fill:#000000; fill-opacity:1.0000; stroke:none;">
<circle cx="23.1648" cy="25.4000" r="0.3810" /> 
</g>
<g style="fill:#000000; fill-opacity:1.0000; stroke:none;">
<circle cx="19.9898" cy="10.1600" r="0.3810" /> 
</g>
<g style="fill:#000000; fill-opacity:1.0000; stroke:none;">
<circle cx="30.7848" cy="10.1600" r="0.3810" /> 
</g>
<g style="fill:#000000; fill-opacity:1.0000; stroke:none;">
<circle cx="11.7348" cy="31.1150" r="0.3810" /> 
</g>
<g style="fill:#000000; fill-opacity:1.0000; stroke:none;">
<circle cx="13.6398" cy="12.7000" r="0.3810" /> 
</g>
<g style="fill:#000000; fill-opacity:1.0000; stroke:none;">
<circle cx="46.0438" cy="31.7447" r="0.5000" /> 
</g>
<g style="fill:#000000; fill-opacity:1.0000; stroke:none;">
<circle cx="48.5838" cy="31.7447" r="0.5000" /> 
</g>
<g style="fill:#000000; fill-opacity:1.0000; stroke:none;">
<circle cx="51.1238" cy="31.7447" r="0.5000" /> 
</g>
<g style="fill:#000000; fill-opacity:1.0000; stroke:none;">
<circle cx="10.4648" cy="9.0170" r="0.5000" /> 
</g>
<g style="fill:#000000; fill-opacity:1.0000; stroke:none;">
<circle cx="7.9248" cy="9.0170" r="0.5000" /> 
</g>
<g style="fill:#000000; fill-opacity:1.0000; stroke:none;">
<circle cx="5.3848" cy="9.0170" r="0.5000" /> 
</g>
<g style="fill:#000000; fill-opacity:1.0000; stroke:none;">
<circle cx="2.8448" cy="9.0170" r="0.5000" /> 
</g>
<g style="fill:#000000; fill-opacity:1.0000; stroke:none;">
<circle cx="10.4648" cy="16.5100" r="0.5000" /> 
</g>
<g style="fill:#000000; fill-opacity:1.0000; stroke:none;">
<circle cx="7.9248" cy="16.5100" r="0.5000" /> 
</g>
<g style="fill:#000000; fill-opacity:1.0000; stroke:none;">
<circle cx="5.3848" cy="16.5100" r="0.5000" /> 
</g>
<g style="fill:#000000; fill-opacity:1.0000; stroke:none;">
<circle cx="2.8448" cy="16.5100" r="0.5000" /> 
</g>
<g style="fill:#000000; fill-opacity:1.0000; stroke:none;">
<circle cx="10.4648" cy="5.3340" r="0.5000" /> 
</g>
<g style="fill:#000000; fill-opacity:1.0000; stroke:none;">
<circle cx="7.9248" cy="5.3340" r="0.5000" /> 
</g>
<g style="fill:#000000; fill-opacity:1.0000; stroke:none;">
<circle cx="5.3848" cy="5.3340" r="0.5000" /> 
</g>
<g style="fill:#000000; fill-opacity:1.0000; stroke:none;">
<circle cx="2.8448" cy="5.3340" r="0.5000" /> 
</g>
<g style="fill:#000000; fill-opacity:1.0000; stroke:none;">
<circle cx="46.8061" cy="54.0900" r="0.5000" /> 
</g>
<g style="fill:#000000; fill-opacity:1.0000; stroke:none;">
<circle cx="49.3461" cy="54.0900" r="0.5000" /> 
</g>
<g style="fill:#000000; fill-opacity:1.0000; stroke:none;">
<circle cx="51.8861" cy="54.0900" r="0.5000" /> 
</g>
<g style="fill:#000000; fill-opacity:1.0000; stroke:none;">
<circle cx="37.8968" cy="5.2070" r="0.5000" /> 
</g>
<g style="fill:#000000; fill-opacity:1.0000; stroke:none;">
<circle cx="35.3568" cy="5.2070" r="0.5000" /> 
</g>
<g style="fill:#000000; fill-opacity:1.0000; stroke:none;">
<circle cx="32.8168" cy="5.2070" r="0.5000" /> 
</g>
<g style="fill:#000000; fill-opacity:1.0000; stroke:none;">
<circle cx="9.1948" cy="52.0700" r="0.5000" /> 
</g>
<g style="fill:#000000; fill-opacity:1.0000; stroke:none;">
<circle cx="6.6548" cy="52.0700" r="0.5000" /> 
</g>
<g style="fill:#000000; fill-opacity:1.0000; stroke:none;">
<circle cx="4.1148" cy="52.0700" r="0.5000" /> 
</g>
<g style="fill:#000000; fill-opacity:1.0000; stroke:none;">
<circle cx="46.8061" cy="57.6460" r="0.5000" /> 
</g>
<g style="fill:#000000; fill-opacity:1.0000; stroke:none;">
<circle cx="49.3461" cy="57.6460" r="0.5000" /> 
</g>
<g style="fill:#000000; fill-opacity:1.0000; stroke:none;">
<circle cx="51.8861" cy="57.6460" r="0.5000" /> 
</g>
<g style="fill:#000000; fill-opacity:1.0000; stroke:none;">
<circle cx="46.0438" cy="13.9647" r="0.5000" /> 
</g>
<g style="fill:#000000; fill-opacity:1.0000; stroke:none;">
<circle cx="48.5838" cy="13.9647" r="0.5000" /> 
</g>
<g style="fill:#000000; fill-opacity:1.0000; stroke:none;">
<circle cx="51.1238" cy="13.9647" r="0.5000" /> 
</g>
<g style="fill:#000000; fill-opacity:1.0000; stroke:none;">
<circle cx="46.0438" cy="20.9497" r="0.5000" /> 
</g>
<g style="fill:#000000; fill-opacity:1.0000; stroke:none;">
<circle cx="48.5838" cy="20.9497" r="0.5000" /> 
</g>
<g style="fill:#000000; fill-opacity:1.0000; stroke:none;">
<circle cx="51.1238" cy="20.9497" r="0.5000" /> 
</g>
<g style="fill:#000000; fill-opacity:1.0000; stroke:none;">
<circle cx="10.4648" cy="12.7000" r="0.5000" /> 
</g>
<g style="fill:#000000; fill-opacity:1.0000; stroke:none;">
<circle cx="7.9248" cy="12.7000" r="0.5000" /> 
</g>
<g style="fill:#000000; fill-opacity:1.0000; stroke:none;">
<circle cx="5.3848" cy="12.7000" r="0.5000" /> 
</g>
<g style="fill:#000000; fill-opacity:1.0000; stroke:none;">
<circle cx="2.8448" cy="12.7000" r="0.5000" /> 
</g>
<g style="fill:#000000; fill-opacity:1.0000; stroke:none;">
<circle cx="6.0198" cy="20.3200" r="0.5000" /> 
</g>
<g style="fill:#000000; fill-opacity:1.0000; stroke:none;">
<circle cx="6.0198" cy="22.8600" r="0.5000" /> 
</g>
<g style="fill:#000000; fill-opacity:1.0000; stroke:none;">
<circle cx="6.0198" cy="25.4000" r="0.5000" /> 
</g>
<g style="fill:#000000; fill-opacity:1.0000; stroke:none;">
<circle cx="6.0198" cy="27.9400" r="0.5000" /> 
</g>
<g style="fill:#000000; fill-opacity:1.0000; stroke:none;">
<circle cx="6.0198" cy="30.4800" r="0.5000" /> 
</g>
<g style="fill:#000000; fill-opacity:1.0000; stroke:none;">
<circle cx="6.0198" cy="33.0200" r="0.5000" /> 
</g>
<g style="fill:#000000; fill-opacity:1.0000; stroke:none;">
<circle cx="9.1948" cy="55.8800" r="0.5000" /> 
</g>
<g style="fill:#000000; fill-opacity:1.0000; stroke:none;">
<circle cx="6.6548" cy="55.8800" r="0.5000" /> 
</g>
<g style="fill:#000000; fill-opacity:1.0000; stroke:none;">
<circle cx="4.1148" cy="55.8800" r="0.5000" /> 
</g>
<g style="fill:#000000; fill-opacity:1.0000; stroke:none;">
<circle cx="46.0438" cy="17.7747" r="0.5000" /> 
</g>
<g style="fill:#000000; fill-opacity:1.0000; stroke:none;">
<circle cx="48.5838" cy="17.7747" r="0.5000" /> 
</g>
<g style="fill:#000000; fill-opacity:1.0000; stroke:none;">
<circle cx="51.1238" cy="17.7747" r="0.5000" /> 
</g>
<g style="fill:#000000; fill-opacity:1.0000; stroke:none;">
<circle cx="9.1948" cy="36.8300" r="0.5000" /> 
</g>
<g style="fill:#000000; fill-opacity:1.0000; stroke:none;">
<circle cx="6.6548" cy="36.8300" r="0.5000" /> 
</g>
<g style="fill:#000000; fill-opacity:1.0000; stroke:none;">
<circle cx="4.1148" cy="36.8300" r="0.5000" /> 
</g>
<g style="fill:#000000; fill-opacity:1.0000; stroke:none;">
<circle cx="47.5778" cy="49.7655" r="0.5000" /> 
</g>
<g style="fill:#000000; fill-opacity:1.0000; stroke:none;">
<circle cx="47.5778" cy="47.2255" r="0.5000" /> 
</g>
<g style="fill:#000000; fill-opacity:1.0000; stroke:none;">
<circle cx="47.5778" cy="44.6855" r="0.5000" /> 
</g>
<g style="fill:#000000; fill-opacity:1.0000; stroke:none;">
<circle cx="47.5778" cy="42.1455" r="0.5000" /> 
</g>
<g style="fill:#000000; fill-opacity:1.0000; stroke:none;">
<circle cx="47.5778" cy="39.6055" r="0.5000" /> 
</g>
<g style="fill:#000000; fill-opacity:1.0000; stroke:none;">
<circle cx="47.5778" cy="37.0655" r="0.5000" /> 
</g>
<g style="fill:#000000; fill-opacity:1.0000; stroke:none;">
<circle cx="24.4348" cy="5.0800" r="0.5000" /> 
</g>
<g style="fill:#000000; fill-opacity:1.0000; stroke:none;">
<circle cx="21.8948" cy="5.0800" r="0.5000" /> 
</g>
<g style="fill:#000000; fill-opacity:1.0000; stroke:none;">
<circle cx="19.3548" cy="5.0800" r="0.5000" /> 
</g>
<g style="fill:#000000; fill-opacity:1.0000; stroke:none;">
<circle cx="16.8148" cy="5.0800" r="0.5000" /> 
</g>
<g style="fill:#000000; fill-opacity:1.0000; stroke:none;">
<circle cx="46.0438" cy="27.9347" r="0.5000" /> 
</g>
<g style="fill:#000000; fill-opacity:1.0000; stroke:none;">
<circle cx="48.5838" cy="27.9347" r="0.5000" /> 
</g>
<g style="fill:#000000; fill-opacity:1.0000; stroke:none;">
<circle cx="51.1238" cy="27.9347" r="0.5000" /> 
</g>
<g style="fill:#000000; fill-opacity:1.0000; stroke:none;">
<circle cx="39.6748" cy="10.1600" r="0.3937" /> 
</g>
<g style="fill:#000000; fill-opacity:1.0000; stroke:none;">
<circle cx="39.6748" cy="12.7000" r="0.3937" /> 
</g>
<g style="fill:#000000; fill-opacity:1.0000; stroke:none;">
<circle cx="39.6748" cy="15.2400" r="0.3937" /> 
</g>
<g style="fill:#000000; fill-opacity:1.0000; stroke:none;">
<circle cx="39.6748" cy="17.7800" r="0.3937" /> 
</g>
<g style="fill:#000000; fill-opacity:1.0000; stroke:none;">
<circle cx="39.6748" cy="20.3200" r="0.3937" /> 
</g>
<g style="fill:#000000; fill-opacity:1.0000; stroke:none;">
<circle cx="39.6748" cy="22.8600" r="0.3937" /> 
</g>
<g style="fill:#000000; fill-opacity:1.0000; stroke:none;">
<circle cx="39.6748" cy="25.4000" r="0.3937" /> 
</g>
<g style="fill:#000000; fill-opacity:1.0000; stroke:none;">
<circle cx="39.6748" cy="27.9400" r="0.3937" /> 
</g>
<g style="fill:#000000; fill-opacity:1.0000; stroke:none;">
<circle cx="39.6748" cy="30.4800" r="0.3937" /> 
</g>
<g style="fill:#000000; fill-opacity:1.0000; stroke:none;">
<circle cx="39.6748" cy="33.0200" r="0.3937" /> 
</g>
<g style="fill:#000000; fill-opacity:1.0000; stroke:none;">
<circle cx="39.6748" cy="35.5600" r="0.3937" /> 
</g>
<g style="fill:#000000; fill-opacity:1.0000; stroke:none;">
<circle cx="39.6748" cy="38.1000" r="0.3937" /> 
</g>
<g style="fill:#000000; fill-opacity:1.0000; stroke:none;">
<circle cx="39.6748" cy="40.6400" r="0.3937" /> 
</g>
<g style="fill:#000000; fill-opacity:1.0000; stroke:none;">
<circle cx="39.6748" cy="43.1800" r="0.3937" /> 
</g>
<g style="fill:#000000; fill-opacity:1.0000; stroke:none;">
<circle cx="39.6748" cy="45.7200" r="0.3937" /> 
</g>
<g style="fill:#000000; fill-opacity:1.0000; stroke:none;">
<circle cx="39.6748" cy="48.2600" r="0.3937" /> 
</g>
<g style="fill:#000000; fill-opacity:1.0000; stroke:none;">
<circle cx="39.6748" cy="50.8000" r="0.3937" /> 
</g>
<g style="fill:#000000; fill-opacity:1.0000; stroke:none;">
<circle cx="39.6748" cy="53.3400" r="0.3937" /> 
</g>
<g style="fill:#000000; fill-opacity:1.0000; stroke:none;">
<circle cx="39.6748" cy="55.8800" r="0.3937" /> 
</g>
<g style="fill:#000000; fill-opacity:1.0000; stroke:none;">
<circle cx="16.8148" cy="10.1600" r="0.3937" /> 
</g>
<g style="fill:#000000; fill-opacity:1.0000; stroke:none;">
<circle cx="16.8148" cy="12.7000" r="0.3937" /> 
</g>
<g style="fill:#000000; fill-opacity:1.0000; stroke:none;">
<circle cx="16.8148" cy="15.2400" r="0.3937" /> 
</g>
<g style="fill:#000000; fill-opacity:1.0000; stroke:none;">
<circle cx="16.8148" cy="17.7800" r="0.3937" /> 
</g>
<g style="fill:#000000; fill-opacity:1.0000; stroke:none;">
<circle cx="16.8148" cy="20.3200" r="0.3937" /> 
</g>
<g style="fill:#000000; fill-opacity:1.0000; stroke:none;">
<circle cx="16.8148" cy="22.8600" r="0.3937" /> 
</g>
<g style="fill:#000000; fill-opacity:1.0000; stroke:none;">
<circle cx="16.8148" cy="25.4000" r="0.3937" /> 
</g>
<g style="fill:#000000; fill-opacity:1.0000; stroke:none;">
<circle cx="16.8148" cy="27.9400" r="0.3937" /> 
</g>
<g style="fill:#000000; fill-opacity:1.0000; stroke:none;">
<circle cx="16.8148" cy="30.4800" r="0.3937" /> 
</g>
<g style="fill:#000000; fill-opacity:1.0000; stroke:none;">
<circle cx="16.8148" cy="33.0200" r="0.3937" /> 
</g>
<g style="fill:#000000; fill-opacity:1.0000; stroke:none;">
<circle cx="16.8148" cy="35.5600" r="0.3937" /> 
</g>
<g style="fill:#000000; fill-opacity:1.0000; stroke:none;">
<circle cx="16.8148" cy="38.1000" r="0.3937" /> 
</g>
<g style="fill:#000000; fill-opacity:1.0000; stroke:none;">
<circle cx="16.8148" cy="40.6400" r="0.3937" /> 
</g>
<g style="fill:#000000; fill-opacity:1.0000; stroke:none;">
<circle cx="16.8148" cy="43.1800" r="0.3937" /> 
</g>
<g style="fill:#000000; fill-opacity:1.0000; stroke:none;">
<circle cx="16.8148" cy="45.7200" r="0.3937" /> 
</g>
<g style="fill:#000000; fill-opacity:1.0000; stroke:none;">
<circle cx="16.8148" cy="48.2600" r="0.3937" /> 
</g>
<g style="fill:#000000; fill-opacity:1.0000; stroke:none;">
<circle cx="16.8148" cy="50.8000" r="0.3937" /> 
</g>
<g style="fill:#000000; fill-opacity:1.0000; stroke:none;">
<circle cx="16.8148" cy="53.3400" r="0.3937" /> 
</g>
<g style="fill:#000000; fill-opacity:1.0000; stroke:none;">
<circle cx="16.8148" cy="55.8800" r="0.3937" /> 
</g>
<g style="fill:#000000; fill-opacity:1.0000; stroke:none;">
<circle cx="9.1948" cy="44.4500" r="0.5000" /> 
</g>
<g style="fill:#000000; fill-opacity:1.0000; stroke:none;">
<circle cx="6.6548" cy="44.4500" r="0.5000" /> 
</g>
<g style="fill:#000000; fill-opacity:1.0000; stroke:none;">
<circle cx="4.1148" cy="44.4500" r="0.5000" /> 
</g>
<g style="fill:#000000; fill-opacity:1.0000; stroke:none;">
<circle cx="46.0438" cy="24.7597" r="0.5000" /> 
</g>
<g style="fill:#000000; fill-opacity:1.0000; stroke:none;">
<circle cx="48.5838" cy="24.7597" r="0.5000" /> 
</g>
<g style="fill:#000000; fill-opacity:1.0000; stroke:none;">
<circle cx="51.1238" cy="24.7597" r="0.5000" /> 
</g>
<g style="fill:#000000; fill-opacity:1.0000; stroke:none;">
<circle cx="9.1948" cy="48.2600" r="0.5000" /> 
</g>
<g style="fill:#000000; fill-opacity:1.0000; stroke:none;">
<circle cx="6.6548" cy="48.2600" r="0.5000" /> 
</g>
<g style="fill:#000000; fill-opacity:1.0000; stroke:none;">
<circle cx="4.1148" cy="48.2600" r="0.5000" /> 
</g>
<g style="fill:#000000; fill-opacity:1.0000; stroke:none;">
<circle cx="9.1948" cy="40.6400" r="0.5000" /> 
</g>
<g style="fill:#000000; fill-opacity:1.0000; stroke:none;">
<circle cx="6.6548" cy="40.6400" r="0.5000" /> 
</g>
<g style="fill:#000000; fill-opacity:1.0000; stroke:none;">
<circle cx="4.1148" cy="40.6400" r="0.5000" /> 
</g> 
</svg>
