<?xml version="1.0" standalone="no"?>
 <!DOCTYPE svg PUBLIC "-//W3C//DTD SVG 1.1//EN" 
 "http://www.w3.org/Graphics/SVG/1.1/DTD/svg11.dtd"> 
<svg
  xmlns:svg="http://www.w3.org/2000/svg"
  xmlns="http://www.w3.org/2000/svg"
  xmlns:xlink="http://www.w3.org/1999/xlink"
  version="1.1"
  width="54.9148mm" height="64.0080mm" viewBox="0.0000 0.0000 54.9148 64.0080">
<title>SVG Image created as front.svg date 2025/12/14 15:46:21 </title>
  <desc>Image generated by PCBNEW </desc>
<g style="fill:#000000; fill-opacity:1.0000;stroke:#000000; stroke-opacity:1.0000;
stroke-linecap:round; stroke-linejoin:round;"
 transform="translate(0 0) scale(1 1)">
</g>
<g style="fill:#000000; fill-opacity:1.0000; 
stroke:#000000; stroke-width:0.0212; stroke-opacity:1; 
stroke-linecap:round; stroke-linejoin:round;">
<rect x="-5.025000" y="-5.025000" width="65.143000" height="74.058000" rx="0.000000" />
<path style="fill:#FFFFFF; fill-opacity:1.0000; stroke:none;fill-rule:evenodd;"
d="M 7.9820,30.7287
9.7600,30.7287
9.7600,32.7607
7.9820,32.7607
Z" /> 
</g>
<g style="fill:#FFFFFF; fill-opacity:1.0000; stroke:none;">
<circle cx="6.3310" cy="31.7447" r="1.0160" /> 
</g>
<g style="fill:#FFFFFF; fill-opacity:1.0000; stroke:none;">
<circle cx="3.7910" cy="31.7447" r="1.0160" /> 
<path style="fill:#FFFFFF; fill-opacity:1.0000; stroke:none;fill-rule:evenodd;"
d="M 45.3390,10.0330
43.5610,10.0330
43.5610,8.0010
45.3390,8.0010
Z" /> 
</g>
<g style="fill:#FFFFFF; fill-opacity:1.0000; stroke:none;">
<circle cx="46.9900" cy="9.0170" r="1.0160" /> 
</g>
<g style="fill:#FFFFFF; fill-opacity:1.0000; stroke:none;">
<circle cx="49.5300" cy="9.0170" r="1.0160" /> 
</g>
<g style="fill:#FFFFFF; fill-opacity:1.0000; stroke:none;">
<circle cx="52.0700" cy="9.0170" r="1.0160" /> 
<path style="fill:#FFFFFF; fill-opacity:1.0000; stroke:none;fill-rule:evenodd;"
d="M 45.3390,17.5260
43.5610,17.5260
43.5610,15.4940
45.3390,15.4940
Z" /> 
</g>
<g style="fill:#FFFFFF; fill-opacity:1.0000; stroke:none;">
<circle cx="46.9900" cy="16.5100" r="1.0160" /> 
</g>
<g style="fill:#FFFFFF; fill-opacity:1.0000; stroke:none;">
<circle cx="49.5300" cy="16.5100" r="1.0160" /> 
</g>
<g style="fill:#FFFFFF; fill-opacity:1.0000; stroke:none;">
<circle cx="52.0700" cy="16.5100" r="1.0160" /> 
<path style="fill:#FFFFFF; fill-opacity:1.0000; stroke:none;fill-rule:evenodd;"
d="M 45.3390,6.3500
43.5610,6.3500
43.5610,4.3180
45.3390,4.3180
Z" /> 
</g>
<g style="fill:#FFFFFF; fill-opacity:1.0000; stroke:none;">
<circle cx="46.9900" cy="5.3340" r="1.0160" /> 
</g>
<g style="fill:#FFFFFF; fill-opacity:1.0000; stroke:none;">
<circle cx="49.5300" cy="5.3340" r="1.0160" /> 
</g>
<g style="fill:#FFFFFF; fill-opacity:1.0000; stroke:none;">
<circle cx="52.0700" cy="5.3340" r="1.0160" /> 
<path style="fill:#FFFFFF; fill-opacity:1.0000; stroke:none;fill-rule:evenodd;"
d="M 7.2197,53.0740
8.9977,53.0740
8.9977,55.1060
7.2197,55.1060
Z" /> 
</g>
<g style="fill:#FFFFFF; fill-opacity:1.0000; stroke:none;">
<circle cx="5.5687" cy="54.0900" r="1.0160" /> 
</g>
<g style="fill:#FFFFFF; fill-opacity:1.0000; stroke:none;">
<circle cx="3.0287" cy="54.0900" r="1.0160" /> 
<path style="fill:#FFFFFF; fill-opacity:1.0000; stroke:none;fill-rule:evenodd;"
d="M 17.9070,6.2230
16.1290,6.2230
16.1290,4.1910
17.9070,4.1910
Z" /> 
</g>
<g style="fill:#FFFFFF; fill-opacity:1.0000; stroke:none;">
<circle cx="19.5580" cy="5.2070" r="1.0160" /> 
</g>
<g style="fill:#FFFFFF; fill-opacity:1.0000; stroke:none;">
<circle cx="22.0980" cy="5.2070" r="1.0160" /> 
<path style="fill:#FFFFFF; fill-opacity:1.0000; stroke:none;fill-rule:evenodd;"
d="M 46.6090,53.0860
44.8310,53.0860
44.8310,51.0540
46.6090,51.0540
Z" /> 
</g>
<g style="fill:#FFFFFF; fill-opacity:1.0000; stroke:none;">
<circle cx="48.2600" cy="52.0700" r="1.0160" /> 
</g>
<g style="fill:#FFFFFF; fill-opacity:1.0000; stroke:none;">
<circle cx="50.8000" cy="52.0700" r="1.0160" /> 
<path style="fill:#FFFFFF; fill-opacity:1.0000; stroke:none;fill-rule:evenodd;"
d="M 7.2197,56.6300
8.9977,56.6300
8.9977,58.6620
7.2197,58.6620
Z" /> 
</g>
<g style="fill:#FFFFFF; fill-opacity:1.0000; stroke:none;">
<circle cx="5.5687" cy="57.6460" r="1.0160" /> 
</g>
<g style="fill:#FFFFFF; fill-opacity:1.0000; stroke:none;">
<circle cx="3.0287" cy="57.6460" r="1.0160" /> 
<path style="fill:#FFFFFF; fill-opacity:1.0000; stroke:none;fill-rule:evenodd;"
d="M 7.9820,12.9487
9.7600,12.9487
9.7600,14.9807
7.9820,14.9807
Z" /> 
</g>
<g style="fill:#FFFFFF; fill-opacity:1.0000; stroke:none;">
<circle cx="6.3310" cy="13.9647" r="1.0160" /> 
</g>
<g style="fill:#FFFFFF; fill-opacity:1.0000; stroke:none;">
<circle cx="3.7910" cy="13.9647" r="1.0160" /> 
<path style="fill:#FFFFFF; fill-opacity:1.0000; stroke:none;fill-rule:evenodd;"
d="M 7.9820,19.9337
9.7600,19.9337
9.7600,21.9657
7.9820,21.9657
Z" /> 
</g>
<g style="fill:#FFFFFF; fill-opacity:1.0000; stroke:none;">
<circle cx="6.3310" cy="20.9497" r="1.0160" /> 
</g>
<g style="fill:#FFFFFF; fill-opacity:1.0000; stroke:none;">
<circle cx="3.7910" cy="20.9497" r="1.0160" /> 
<path style="fill:#FFFFFF; fill-opacity:1.0000; stroke:none;fill-rule:evenodd;"
d="M 45.3390,13.7160
43.5610,13.7160
43.5610,11.6840
45.3390,11.6840
Z" /> 
</g>
<g style="fill:#FFFFFF; fill-opacity:1.0000; stroke:none;">
<circle cx="46.9900" cy="12.7000" r="1.0160" /> 
</g>
<g style="fill:#FFFFFF; fill-opacity:1.0000; stroke:none;">
<circle cx="49.5300" cy="12.7000" r="1.0160" /> 
</g>
<g style="fill:#FFFFFF; fill-opacity:1.0000; stroke:none;">
<circle cx="52.0700" cy="12.7000" r="1.0160" /> 
<path style="fill:#FFFFFF; fill-opacity:1.0000; stroke:none;fill-rule:evenodd;"
d="M 47.3075,21.1700
47.3075,19.4700
50.4825,19.4700
50.4825,21.1700
Z" /> 
<path style="fill:#FFFFFF; fill-opacity:1.0000; stroke:none;fill-rule:evenodd;"
d="M 47.3075,23.7100
47.3075,22.0100
50.4825,22.0100
50.4825,23.7100
Z" /> 
<path style="fill:#FFFFFF; fill-opacity:1.0000; stroke:none;fill-rule:evenodd;"
d="M 47.3075,26.2500
47.3075,24.5500
50.4825,24.5500
50.4825,26.2500
Z" /> 
<path style="fill:#FFFFFF; fill-opacity:1.0000; stroke:none;fill-rule:evenodd;"
d="M 47.3075,28.7900
47.3075,27.0900
50.4825,27.0900
50.4825,28.7900
Z" /> 
<path style="fill:#FFFFFF; fill-opacity:1.0000; stroke:none;fill-rule:evenodd;"
d="M 47.3075,31.3300
47.3075,29.6300
50.4825,29.6300
50.4825,31.3300
Z" /> 
<path style="fill:#FFFFFF; fill-opacity:1.0000; stroke:none;fill-rule:evenodd;"
d="M 47.3075,33.8700
47.3075,32.1700
50.4825,32.1700
50.4825,33.8700
Z" /> 
<path style="fill:#FFFFFF; fill-opacity:1.0000; stroke:none;fill-rule:evenodd;"
d="M 46.6090,56.8960
44.8310,56.8960
44.8310,54.8640
46.6090,54.8640
Z" /> 
</g>
<g style="fill:#FFFFFF; fill-opacity:1.0000; stroke:none;">
<circle cx="48.2600" cy="55.8800" r="1.0160" /> 
</g>
<g style="fill:#FFFFFF; fill-opacity:1.0000; stroke:none;">
<circle cx="50.8000" cy="55.8800" r="1.0160" /> 
<path style="fill:#FFFFFF; fill-opacity:1.0000; stroke:none;fill-rule:evenodd;"
d="M 7.9820,16.7587
9.7600,16.7587
9.7600,18.7907
7.9820,18.7907
Z" /> 
</g>
<g style="fill:#FFFFFF; fill-opacity:1.0000; stroke:none;">
<circle cx="6.3310" cy="17.7747" r="1.0160" /> 
</g>
<g style="fill:#FFFFFF; fill-opacity:1.0000; stroke:none;">
<circle cx="3.7910" cy="17.7747" r="1.0160" /> 
<path style="fill:#FFFFFF; fill-opacity:1.0000; stroke:none;fill-rule:evenodd;"
d="M 46.6090,37.8460
44.8310,37.8460
44.8310,35.8140
46.6090,35.8140
Z" /> 
</g>
<g style="fill:#FFFFFF; fill-opacity:1.0000; stroke:none;">
<circle cx="48.2600" cy="36.8300" r="1.0160" /> 
</g>
<g style="fill:#FFFFFF; fill-opacity:1.0000; stroke:none;">
<circle cx="50.8000" cy="36.8300" r="1.0160" /> 
<path style="fill:#FFFFFF; fill-opacity:1.0000; stroke:none;fill-rule:evenodd;"
d="M 8.3530,48.8765
8.3530,50.6545
6.3210,50.6545
6.3210,48.8765
Z" /> 
</g>
<g style="fill:#FFFFFF; fill-opacity:1.0000; stroke:none;">
<circle cx="7.3370" cy="47.2255" r="1.0160" /> 
</g>
<g style="fill:#FFFFFF; fill-opacity:1.0000; stroke:none;">
<circle cx="7.3370" cy="44.6855" r="1.0160" /> 
</g>
<g style="fill:#FFFFFF; fill-opacity:1.0000; stroke:none;">
<circle cx="7.3370" cy="42.1455" r="1.0160" /> 
</g>
<g style="fill:#FFFFFF; fill-opacity:1.0000; stroke:none;">
<circle cx="7.3370" cy="39.6055" r="1.0160" /> 
</g>
<g style="fill:#FFFFFF; fill-opacity:1.0000; stroke:none;">
<circle cx="7.3370" cy="37.0655" r="1.0160" /> 
<path style="fill:#FFFFFF; fill-opacity:1.0000; stroke:none;fill-rule:evenodd;"
d="M 31.3690,6.0960
29.5910,6.0960
29.5910,4.0640
31.3690,4.0640
Z" /> 
</g>
<g style="fill:#FFFFFF; fill-opacity:1.0000; stroke:none;">
<circle cx="33.0200" cy="5.0800" r="1.0160" /> 
</g>
<g style="fill:#FFFFFF; fill-opacity:1.0000; stroke:none;">
<circle cx="35.5600" cy="5.0800" r="1.0160" /> 
</g>
<g style="fill:#FFFFFF; fill-opacity:1.0000; stroke:none;">
<circle cx="38.1000" cy="5.0800" r="1.0160" /> 
<path style="fill:#FFFFFF; fill-opacity:1.0000; stroke:none;fill-rule:evenodd;"
d="M 7.9820,26.9187
9.7600,26.9187
9.7600,28.9507
7.9820,28.9507
Z" /> 
</g>
<g style="fill:#FFFFFF; fill-opacity:1.0000; stroke:none;">
<circle cx="6.3310" cy="27.9347" r="1.0160" /> 
</g>
<g style="fill:#FFFFFF; fill-opacity:1.0000; stroke:none;">
<circle cx="3.7910" cy="27.9347" r="1.0160" /> 
<path style="fill:#FFFFFF; fill-opacity:1.0000; stroke:none;fill-rule:evenodd;"
d="M 13.6525,10.9220
13.6525,9.3980
16.8275,9.3980
16.8275,10.9220
Z" /> 
<path style="fill:#FFFFFF; fill-opacity:1.0000; stroke:none;fill-rule:evenodd;"
d="M 13.6525,13.4620
13.6525,11.9380
16.8275,11.9380
16.8275,13.4620
Z" /> 
<path style="fill:#FFFFFF; fill-opacity:1.0000; stroke:none;fill-rule:evenodd;"
d="M 13.6525,16.0020
13.6525,14.4780
16.8275,14.4780
16.8275,16.0020
Z" /> 
<path style="fill:#FFFFFF; fill-opacity:1.0000; stroke:none;fill-rule:evenodd;"
d="M 13.6525,18.5420
13.6525,17.0180
16.8275,17.0180
16.8275,18.5420
Z" /> 
<path style="fill:#FFFFFF; fill-opacity:1.0000; stroke:none;fill-rule:evenodd;"
d="M 13.6525,21.0820
13.6525,19.5580
16.8275,19.5580
16.8275,21.0820
Z" /> 
<path style="fill:#FFFFFF; fill-opacity:1.0000; stroke:none;fill-rule:evenodd;"
d="M 13.6525,23.6220
13.6525,22.0980
16.8275,22.0980
16.8275,23.6220
Z" /> 
<path style="fill:#FFFFFF; fill-opacity:1.0000; stroke:none;fill-rule:evenodd;"
d="M 13.6525,26.1620
13.6525,24.6380
16.8275,24.6380
16.8275,26.1620
Z" /> 
<path style="fill:#FFFFFF; fill-opacity:1.0000; stroke:none;fill-rule:evenodd;"
d="M 13.6525,28.7020
13.6525,27.1780
16.8275,27.1780
16.8275,28.7020
Z" /> 
<path style="fill:#FFFFFF; fill-opacity:1.0000; stroke:none;fill-rule:evenodd;"
d="M 13.6525,31.2420
13.6525,29.7180
16.8275,29.7180
16.8275,31.2420
Z" /> 
<path style="fill:#FFFFFF; fill-opacity:1.0000; stroke:none;fill-rule:evenodd;"
d="M 13.6525,33.7820
13.6525,32.2580
16.8275,32.2580
16.8275,33.7820
Z" /> 
<path style="fill:#FFFFFF; fill-opacity:1.0000; stroke:none;fill-rule:evenodd;"
d="M 13.6525,36.3220
13.6525,34.7980
16.8275,34.7980
16.8275,36.3220
Z" /> 
<path style="fill:#FFFFFF; fill-opacity:1.0000; stroke:none;fill-rule:evenodd;"
d="M 13.6525,38.8620
13.6525,37.3380
16.8275,37.3380
16.8275,38.8620
Z" /> 
<path style="fill:#FFFFFF; fill-opacity:1.0000; stroke:none;fill-rule:evenodd;"
d="M 13.6525,41.4020
13.6525,39.8780
16.8275,39.8780
16.8275,41.4020
Z" /> 
<path style="fill:#FFFFFF; fill-opacity:1.0000; stroke:none;fill-rule:evenodd;"
d="M 13.6525,43.9420
13.6525,42.4180
16.8275,42.4180
16.8275,43.9420
Z" /> 
<path style="fill:#FFFFFF; fill-opacity:1.0000; stroke:none;fill-rule:evenodd;"
d="M 13.6525,46.4820
13.6525,44.9580
16.8275,44.9580
16.8275,46.4820
Z" /> 
<path style="fill:#FFFFFF; fill-opacity:1.0000; stroke:none;fill-rule:evenodd;"
d="M 13.6525,49.0220
13.6525,47.4980
16.8275,47.4980
16.8275,49.0220
Z" /> 
<path style="fill:#FFFFFF; fill-opacity:1.0000; stroke:none;fill-rule:evenodd;"
d="M 13.6525,51.5620
13.6525,50.0380
16.8275,50.0380
16.8275,51.5620
Z" /> 
<path style="fill:#FFFFFF; fill-opacity:1.0000; stroke:none;fill-rule:evenodd;"
d="M 13.6525,54.1020
13.6525,52.5780
16.8275,52.5780
16.8275,54.1020
Z" /> 
<path style="fill:#FFFFFF; fill-opacity:1.0000; stroke:none;fill-rule:evenodd;"
d="M 13.6525,56.6420
13.6525,55.1180
16.8275,55.1180
16.8275,56.6420
Z" /> 
<path style="fill:#FFFFFF; fill-opacity:1.0000; stroke:none;fill-rule:evenodd;"
d="M 36.5125,10.9220
36.5125,9.3980
39.6875,9.3980
39.6875,10.9220
Z" /> 
<path style="fill:#FFFFFF; fill-opacity:1.0000; stroke:none;fill-rule:evenodd;"
d="M 36.5125,13.4620
36.5125,11.9380
39.6875,11.9380
39.6875,13.4620
Z" /> 
<path style="fill:#FFFFFF; fill-opacity:1.0000; stroke:none;fill-rule:evenodd;"
d="M 36.5125,16.0020
36.5125,14.4780
39.6875,14.4780
39.6875,16.0020
Z" /> 
<path style="fill:#FFFFFF; fill-opacity:1.0000; stroke:none;fill-rule:evenodd;"
d="M 36.5125,18.5420
36.5125,17.0180
39.6875,17.0180
39.6875,18.5420
Z" /> 
<path style="fill:#FFFFFF; fill-opacity:1.0000; stroke:none;fill-rule:evenodd;"
d="M 36.5125,21.0820
36.5125,19.5580
39.6875,19.5580
39.6875,21.0820
Z" /> 
<path style="fill:#FFFFFF; fill-opacity:1.0000; stroke:none;fill-rule:evenodd;"
d="M 36.5125,23.6220
36.5125,22.0980
39.6875,22.0980
39.6875,23.6220
Z" /> 
<path style="fill:#FFFFFF; fill-opacity:1.0000; stroke:none;fill-rule:evenodd;"
d="M 36.5125,26.1620
36.5125,24.6380
39.6875,24.6380
39.6875,26.1620
Z" /> 
<path style="fill:#FFFFFF; fill-opacity:1.0000; stroke:none;fill-rule:evenodd;"
d="M 36.5125,28.7020
36.5125,27.1780
39.6875,27.1780
39.6875,28.7020
Z" /> 
<path style="fill:#FFFFFF; fill-opacity:1.0000; stroke:none;fill-rule:evenodd;"
d="M 36.5125,31.2420
36.5125,29.7180
39.6875,29.7180
39.6875,31.2420
Z" /> 
<path style="fill:#FFFFFF; fill-opacity:1.0000; stroke:none;fill-rule:evenodd;"
d="M 36.5125,33.7820
36.5125,32.2580
39.6875,32.2580
39.6875,33.7820
Z" /> 
<path style="fill:#FFFFFF; fill-opacity:1.0000; stroke:none;fill-rule:evenodd;"
d="M 36.5125,36.3220
36.5125,34.7980
39.6875,34.7980
39.6875,36.3220
Z" /> 
<path style="fill:#FFFFFF; fill-opacity:1.0000; stroke:none;fill-rule:evenodd;"
d="M 36.5125,38.8620
36.5125,37.3380
39.6875,37.3380
39.6875,38.8620
Z" /> 
<path style="fill:#FFFFFF; fill-opacity:1.0000; stroke:none;fill-rule:evenodd;"
d="M 36.5125,41.4020
36.5125,39.8780
39.6875,39.8780
39.6875,41.4020
Z" /> 
<path style="fill:#FFFFFF; fill-opacity:1.0000; stroke:none;fill-rule:evenodd;"
d="M 36.5125,43.9420
36.5125,42.4180
39.6875,42.4180
39.6875,43.9420
Z" /> 
<path style="fill:#FFFFFF; fill-opacity:1.0000; stroke:none;fill-rule:evenodd;"
d="M 36.5125,46.4820
36.5125,44.9580
39.6875,44.9580
39.6875,46.4820
Z" /> 
<path style="fill:#FFFFFF; fill-opacity:1.0000; stroke:none;fill-rule:evenodd;"
d="M 36.5125,49.0220
36.5125,47.4980
39.6875,47.4980
39.6875,49.0220
Z" /> 
<path style="fill:#FFFFFF; fill-opacity:1.0000; stroke:none;fill-rule:evenodd;"
d="M 36.5125,51.5620
36.5125,50.0380
39.6875,50.0380
39.6875,51.5620
Z" /> 
<path style="fill:#FFFFFF; fill-opacity:1.0000; stroke:none;fill-rule:evenodd;"
d="M 36.5125,54.1020
36.5125,52.5780
39.6875,52.5780
39.6875,54.1020
Z" /> 
<path style="fill:#FFFFFF; fill-opacity:1.0000; stroke:none;fill-rule:evenodd;"
d="M 36.5125,56.6420
36.5125,55.1180
39.6875,55.1180
39.6875,56.6420
Z" /> 
<path style="fill:#FFFFFF; fill-opacity:1.0000; stroke:none;fill-rule:evenodd;"
d="M 46.6090,45.4660
44.8310,45.4660
44.8310,43.4340
46.6090,43.4340
Z" /> 
</g>
<g style="fill:#FFFFFF; fill-opacity:1.0000; stroke:none;">
<circle cx="48.2600" cy="44.4500" r="1.0160" /> 
</g>
<g style="fill:#FFFFFF; fill-opacity:1.0000; stroke:none;">
<circle cx="50.8000" cy="44.4500" r="1.0160" /> 
<path style="fill:#FFFFFF; fill-opacity:1.0000; stroke:none;fill-rule:evenodd;"
d="M 8.0210,23.9097
9.7210,23.9097
9.7210,25.6097
8.0210,25.6097
Z" /> 
</g>
<g style="fill:#FFFFFF; fill-opacity:1.0000; stroke:none;">
<circle cx="6.3310" cy="24.7597" r="1.0160" /> 
</g>
<g style="fill:#FFFFFF; fill-opacity:1.0000; stroke:none;">
<circle cx="3.7910" cy="24.7597" r="1.0160" /> 
<path style="fill:#FFFFFF; fill-opacity:1.0000; stroke:none;fill-rule:evenodd;"
d="M 46.6090,49.2760
44.8310,49.2760
44.8310,47.2440
46.6090,47.2440
Z" /> 
</g>
<g style="fill:#FFFFFF; fill-opacity:1.0000; stroke:none;">
<circle cx="48.2600" cy="48.2600" r="1.0160" /> 
</g>
<g style="fill:#FFFFFF; fill-opacity:1.0000; stroke:none;">
<circle cx="50.8000" cy="48.2600" r="1.0160" /> 
<path style="fill:#FFFFFF; fill-opacity:1.0000; stroke:none;fill-rule:evenodd;"
d="M 46.6090,41.6560
44.8310,41.6560
44.8310,39.6240
46.6090,39.6240
Z" /> 
</g>
<g style="fill:#FFFFFF; fill-opacity:1.0000; stroke:none;">
<circle cx="48.2600" cy="40.6400" r="1.0160" /> 
</g>
<g style="fill:#FFFFFF; fill-opacity:1.0000; stroke:none;">
<circle cx="50.8000" cy="40.6400" r="1.0160" /> 
</g>
<g style="fill:#FFFFFF; fill-opacity:1.0000; stroke:none;">
<circle cx="25.8445" cy="8.0057" r="0.8890" /> 
</g>
<g style="fill:#FFFFFF; fill-opacity:1.0000; stroke:none;">
<circle cx="15.2400" cy="8.0010" r="0.8890" /> 
</g>
<g style="fill:#FFFFFF; fill-opacity:1.0000; stroke:none;">
<circle cx="31.7500" cy="25.4000" r="0.7620" /> 
</g>
<g style="fill:#FFFFFF; fill-opacity:1.0000; stroke:none;">
<circle cx="34.9250" cy="10.1600" r="0.8890" /> 
</g>
<g style="fill:#FFFFFF; fill-opacity:1.0000; stroke:none;">
<circle cx="24.1300" cy="10.1600" r="0.8890" /> 
</g>
<g style="fill:#FFFFFF; fill-opacity:1.0000; stroke:none;">
<circle cx="43.1800" cy="31.1150" r="0.8890" /> 
</g>
<g style="fill:#FFFFFF; fill-opacity:1.0000; stroke:none;">
<circle cx="41.2750" cy="12.7000" r="0.8890" /> 
</g>
<g style="fill:none; 
stroke:#FFFFFF; stroke-width:1.0160; stroke-opacity:1; 
stroke-linecap:round; stroke-linejoin:round;">
<path d="M25.8445 8.0057
L25.8398 8.0010
" />
<path d="M25.8398 8.0010
L15.2400 8.0010
" />
</g>
<g style="fill:none; 
stroke:#FFFFFF; stroke-width:0.6350; stroke-opacity:1; 
stroke-linecap:round; stroke-linejoin:round;">
<path d="M34.9250 10.1600
L24.1300 10.1600
" />
<path d="M41.2750 12.7000
L43.1800 31.1150
" />
</g>
<g style="fill:none; 
stroke:#FFFFFF; stroke-width:0.0500; stroke-opacity:1; 
stroke-linecap:round; stroke-linejoin:round;">
<circle cx="26.9240" cy="51.4350" r="1.5913" /> 
<path style="fill:none; 
stroke:#FFFFFF; stroke-width:0.0500; stroke-opacity:1; 
stroke-linecap:round; stroke-linejoin:round;fill:none"
d="M 0.0000,0.0000
54.9148,0.0000
54.9148,64.0080
0.0000,64.0080
Z" /> 
</g>
<g style="fill:#000000; fill-opacity:1.0000; stroke:none;">
<circle cx="25.8445" cy="8.0057" r="0.3810" /> 
</g>
<g style="fill:#000000; fill-opacity:1.0000; stroke:none;">
<circle cx="15.2400" cy="8.0010" r="0.3810" /> 
</g>
<g style="fill:#000000; fill-opacity:1.0000; stroke:none;">
<circle cx="31.7500" cy="25.4000" r="0.3810" /> 
</g>
<g style="fill:#000000; fill-opacity:1.0000; stroke:none;">
<circle cx="34.9250" cy="10.1600" r="0.3810" /> 
</g>
<g style="fill:#000000; fill-opacity:1.0000; stroke:none;">
<circle cx="24.1300" cy="10.1600" r="0.3810" /> 
</g>
<g style="fill:#000000; fill-opacity:1.0000; stroke:none;">
<circle cx="43.1800" cy="31.1150" r="0.3810" /> 
</g>
<g style="fill:#000000; fill-opacity:1.0000; stroke:none;">
<circle cx="41.2750" cy="12.7000" r="0.3810" /> 
</g>
<g style="fill:#000000; fill-opacity:1.0000; stroke:none;">
<circle cx="8.8710" cy="31.7447" r="0.5000" /> 
</g>
<g style="fill:#000000; fill-opacity:1.0000; stroke:none;">
<circle cx="6.3310" cy="31.7447" r="0.5000" /> 
</g>
<g style="fill:#000000; fill-opacity:1.0000; stroke:none;">
<circle cx="3.7910" cy="31.7447" r="0.5000" /> 
</g>
<g style="fill:#000000; fill-opacity:1.0000; stroke:none;">
<circle cx="44.4500" cy="9.0170" r="0.5000" /> 
</g>
<g style="fill:#000000; fill-opacity:1.0000; stroke:none;">
<circle cx="46.9900" cy="9.0170" r="0.5000" /> 
</g>
<g style="fill:#000000; fill-opacity:1.0000; stroke:none;">
<circle cx="49.5300" cy="9.0170" r="0.5000" /> 
</g>
<g style="fill:#000000; fill-opacity:1.0000; stroke:none;">
<circle cx="52.0700" cy="9.0170" r="0.5000" /> 
</g>
<g style="fill:#000000; fill-opacity:1.0000; stroke:none;">
<circle cx="44.4500" cy="16.5100" r="0.5000" /> 
</g>
<g style="fill:#000000; fill-opacity:1.0000; stroke:none;">
<circle cx="46.9900" cy="16.5100" r="0.5000" /> 
</g>
<g style="fill:#000000; fill-opacity:1.0000; stroke:none;">
<circle cx="49.5300" cy="16.5100" r="0.5000" /> 
</g>
<g style="fill:#000000; fill-opacity:1.0000; stroke:none;">
<circle cx="52.0700" cy="16.5100" r="0.5000" /> 
</g>
<g style="fill:#000000; fill-opacity:1.0000; stroke:none;">
<circle cx="44.4500" cy="5.3340" r="0.5000" /> 
</g>
<g style="fill:#000000; fill-opacity:1.0000; stroke:none;">
<circle cx="46.9900" cy="5.3340" r="0.5000" /> 
</g>
<g style="fill:#000000; fill-opacity:1.0000; stroke:none;">
<circle cx="49.5300" cy="5.3340" r="0.5000" /> 
</g>
<g style="fill:#000000; fill-opacity:1.0000; stroke:none;">
<circle cx="52.0700" cy="5.3340" r="0.5000" /> 
</g>
<g style="fill:#000000; fill-opacity:1.0000; stroke:none;">
<circle cx="8.1087" cy="54.0900" r="0.5000" /> 
</g>
<g style="fill:#000000; fill-opacity:1.0000; stroke:none;">
<circle cx="5.5687" cy="54.0900" r="0.5000" /> 
</g>
<g style="fill:#000000; fill-opacity:1.0000; stroke:none;">
<circle cx="3.0287" cy="54.0900" r="0.5000" /> 
</g>
<g style="fill:#000000; fill-opacity:1.0000; stroke:none;">
<circle cx="17.0180" cy="5.2070" r="0.5000" /> 
</g>
<g style="fill:#000000; fill-opacity:1.0000; stroke:none;">
<circle cx="19.5580" cy="5.2070" r="0.5000" /> 
</g>
<g style="fill:#000000; fill-opacity:1.0000; stroke:none;">
<circle cx="22.0980" cy="5.2070" r="0.5000" /> 
</g>
<g style="fill:#000000; fill-opacity:1.0000; stroke:none;">
<circle cx="45.7200" cy="52.0700" r="0.5000" /> 
</g>
<g style="fill:#000000; fill-opacity:1.0000; stroke:none;">
<circle cx="48.2600" cy="52.0700" r="0.5000" /> 
</g>
<g style="fill:#000000; fill-opacity:1.0000; stroke:none;">
<circle cx="50.8000" cy="52.0700" r="0.5000" /> 
</g>
<g style="fill:#000000; fill-opacity:1.0000; stroke:none;">
<circle cx="8.1087" cy="57.6460" r="0.5000" /> 
</g>
<g style="fill:#000000; fill-opacity:1.0000; stroke:none;">
<circle cx="5.5687" cy="57.6460" r="0.5000" /> 
</g>
<g style="fill:#000000; fill-opacity:1.0000; stroke:none;">
<circle cx="3.0287" cy="57.6460" r="0.5000" /> 
</g>
<g style="fill:#000000; fill-opacity:1.0000; stroke:none;">
<circle cx="8.8710" cy="13.9647" r="0.5000" /> 
</g>
<g style="fill:#000000; fill-opacity:1.0000; stroke:none;">
<circle cx="6.3310" cy="13.9647" r="0.5000" /> 
</g>
<g style="fill:#000000; fill-opacity:1.0000; stroke:none;">
<circle cx="3.7910" cy="13.9647" r="0.5000" /> 
</g>
<g style="fill:#000000; fill-opacity:1.0000; stroke:none;">
<circle cx="8.8710" cy="20.9497" r="0.5000" /> 
</g>
<g style="fill:#000000; fill-opacity:1.0000; stroke:none;">
<circle cx="6.3310" cy="20.9497" r="0.5000" /> 
</g>
<g style="fill:#000000; fill-opacity:1.0000; stroke:none;">
<circle cx="3.7910" cy="20.9497" r="0.5000" /> 
</g>
<g style="fill:#000000; fill-opacity:1.0000; stroke:none;">
<circle cx="44.4500" cy="12.7000" r="0.5000" /> 
</g>
<g style="fill:#000000; fill-opacity:1.0000; stroke:none;">
<circle cx="46.9900" cy="12.7000" r="0.5000" /> 
</g>
<g style="fill:#000000; fill-opacity:1.0000; stroke:none;">
<circle cx="49.5300" cy="12.7000" r="0.5000" /> 
</g>
<g style="fill:#000000; fill-opacity:1.0000; stroke:none;">
<circle cx="52.0700" cy="12.7000" r="0.5000" /> 
</g>
<g style="fill:#000000; fill-opacity:1.0000; stroke:none;">
<circle cx="48.8950" cy="20.3200" r="0.5000" /> 
</g>
<g style="fill:#000000; fill-opacity:1.0000; stroke:none;">
<circle cx="48.8950" cy="22.8600" r="0.5000" /> 
</g>
<g style="fill:#000000; fill-opacity:1.0000; stroke:none;">
<circle cx="48.8950" cy="25.4000" r="0.5000" /> 
</g>
<g style="fill:#000000; fill-opacity:1.0000; stroke:none;">
<circle cx="48.8950" cy="27.9400" r="0.5000" /> 
</g>
<g style="fill:#000000; fill-opacity:1.0000; stroke:none;">
<circle cx="48.8950" cy="30.4800" r="0.5000" /> 
</g>
<g style="fill:#000000; fill-opacity:1.0000; stroke:none;">
<circle cx="48.8950" cy="33.0200" r="0.5000" /> 
</g>
<g style="fill:#000000; fill-opacity:1.0000; stroke:none;">
<circle cx="45.7200" cy="55.8800" r="0.5000" /> 
</g>
<g style="fill:#000000; fill-opacity:1.0000; stroke:none;">
<circle cx="48.2600" cy="55.8800" r="0.5000" /> 
</g>
<g style="fill:#000000; fill-opacity:1.0000; stroke:none;">
<circle cx="50.8000" cy="55.8800" r="0.5000" /> 
</g>
<g style="fill:#000000; fill-opacity:1.0000; stroke:none;">
<circle cx="8.8710" cy="17.7747" r="0.5000" /> 
</g>
<g style="fill:#000000; fill-opacity:1.0000; stroke:none;">
<circle cx="6.3310" cy="17.7747" r="0.5000" /> 
</g>
<g style="fill:#000000; fill-opacity:1.0000; stroke:none;">
<circle cx="3.7910" cy="17.7747" r="0.5000" /> 
</g>
<g style="fill:#000000; fill-opacity:1.0000; stroke:none;">
<circle cx="45.7200" cy="36.8300" r="0.5000" /> 
</g>
<g style="fill:#000000; fill-opacity:1.0000; stroke:none;">
<circle cx="48.2600" cy="36.8300" r="0.5000" /> 
</g>
<g style="fill:#000000; fill-opacity:1.0000; stroke:none;">
<circle cx="50.8000" cy="36.8300" r="0.5000" /> 
</g>
<g style="fill:#000000; fill-opacity:1.0000; stroke:none;">
<circle cx="7.3370" cy="49.7655" r="0.5000" /> 
</g>
<g style="fill:#000000; fill-opacity:1.0000; stroke:none;">
<circle cx="7.3370" cy="47.2255" r="0.5000" /> 
</g>
<g style="fill:#000000; fill-opacity:1.0000; stroke:none;">
<circle cx="7.3370" cy="44.6855" r="0.5000" /> 
</g>
<g style="fill:#000000; fill-opacity:1.0000; stroke:none;">
<circle cx="7.3370" cy="42.1455" r="0.5000" /> 
</g>
<g style="fill:#000000; fill-opacity:1.0000; stroke:none;">
<circle cx="7.3370" cy="39.6055" r="0.5000" /> 
</g>
<g style="fill:#000000; fill-opacity:1.0000; stroke:none;">
<circle cx="7.3370" cy="37.0655" r="0.5000" /> 
</g>
<g style="fill:#000000; fill-opacity:1.0000; stroke:none;">
<circle cx="30.4800" cy="5.0800" r="0.5000" /> 
</g>
<g style="fill:#000000; fill-opacity:1.0000; stroke:none;">
<circle cx="33.0200" cy="5.0800" r="0.5000" /> 
</g>
<g style="fill:#000000; fill-opacity:1.0000; stroke:none;">
<circle cx="35.5600" cy="5.0800" r="0.5000" /> 
</g>
<g style="fill:#000000; fill-opacity:1.0000; stroke:none;">
<circle cx="38.1000" cy="5.0800" r="0.5000" /> 
</g>
<g style="fill:#000000; fill-opacity:1.0000; stroke:none;">
<circle cx="8.8710" cy="27.9347" r="0.5000" /> 
</g>
<g style="fill:#000000; fill-opacity:1.0000; stroke:none;">
<circle cx="6.3310" cy="27.9347" r="0.5000" /> 
</g>
<g style="fill:#000000; fill-opacity:1.0000; stroke:none;">
<circle cx="3.7910" cy="27.9347" r="0.5000" /> 
</g>
<g style="fill:#000000; fill-opacity:1.0000; stroke:none;">
<circle cx="15.2400" cy="10.1600" r="0.3937" /> 
</g>
<g style="fill:#000000; fill-opacity:1.0000; stroke:none;">
<circle cx="15.2400" cy="12.7000" r="0.3937" /> 
</g>
<g style="fill:#000000; fill-opacity:1.0000; stroke:none;">
<circle cx="15.2400" cy="15.2400" r="0.3937" /> 
</g>
<g style="fill:#000000; fill-opacity:1.0000; stroke:none;">
<circle cx="15.2400" cy="17.7800" r="0.3937" /> 
</g>
<g style="fill:#000000; fill-opacity:1.0000; stroke:none;">
<circle cx="15.2400" cy="20.3200" r="0.3937" /> 
</g>
<g style="fill:#000000; fill-opacity:1.0000; stroke:none;">
<circle cx="15.2400" cy="22.8600" r="0.3937" /> 
</g>
<g style="fill:#000000; fill-opacity:1.0000; stroke:none;">
<circle cx="15.2400" cy="25.4000" r="0.3937" /> 
</g>
<g style="fill:#000000; fill-opacity:1.0000; stroke:none;">
<circle cx="15.2400" cy="27.9400" r="0.3937" /> 
</g>
<g style="fill:#000000; fill-opacity:1.0000; stroke:none;">
<circle cx="15.2400" cy="30.4800" r="0.3937" /> 
</g>
<g style="fill:#000000; fill-opacity:1.0000; stroke:none;">
<circle cx="15.2400" cy="33.0200" r="0.3937" /> 
</g>
<g style="fill:#000000; fill-opacity:1.0000; stroke:none;">
<circle cx="15.2400" cy="35.5600" r="0.3937" /> 
</g>
<g style="fill:#000000; fill-opacity:1.0000; stroke:none;">
<circle cx="15.2400" cy="38.1000" r="0.3937" /> 
</g>
<g style="fill:#000000; fill-opacity:1.0000; stroke:none;">
<circle cx="15.2400" cy="40.6400" r="0.3937" /> 
</g>
<g style="fill:#000000; fill-opacity:1.0000; stroke:none;">
<circle cx="15.2400" cy="43.1800" r="0.3937" /> 
</g>
<g style="fill:#000000; fill-opacity:1.0000; stroke:none;">
<circle cx="15.2400" cy="45.7200" r="0.3937" /> 
</g>
<g style="fill:#000000; fill-opacity:1.0000; stroke:none;">
<circle cx="15.2400" cy="48.2600" r="0.3937" /> 
</g>
<g style="fill:#000000; fill-opacity:1.0000; stroke:none;">
<circle cx="15.2400" cy="50.8000" r="0.3937" /> 
</g>
<g style="fill:#000000; fill-opacity:1.0000; stroke:none;">
<circle cx="15.2400" cy="53.3400" r="0.3937" /> 
</g>
<g style="fill:#000000; fill-opacity:1.0000; stroke:none;">
<circle cx="15.2400" cy="55.8800" r="0.3937" /> 
</g>
<g style="fill:#000000; fill-opacity:1.0000; stroke:none;">
<circle cx="38.1000" cy="10.1600" r="0.3937" /> 
</g>
<g style="fill:#000000; fill-opacity:1.0000; stroke:none;">
<circle cx="38.1000" cy="12.7000" r="0.3937" /> 
</g>
<g style="fill:#000000; fill-opacity:1.0000; stroke:none;">
<circle cx="38.1000" cy="15.2400" r="0.3937" /> 
</g>
<g style="fill:#000000; fill-opacity:1.0000; stroke:none;">
<circle cx="38.1000" cy="17.7800" r="0.3937" /> 
</g>
<g style="fill:#000000; fill-opacity:1.0000; stroke:none;">
<circle cx="38.1000" cy="20.3200" r="0.3937" /> 
</g>
<g style="fill:#000000; fill-opacity:1.0000; stroke:none;">
<circle cx="38.1000" cy="22.8600" r="0.3937" /> 
</g>
<g style="fill:#000000; fill-opacity:1.0000; stroke:none;">
<circle cx="38.1000" cy="25.4000" r="0.3937" /> 
</g>
<g style="fill:#000000; fill-opacity:1.0000; stroke:none;">
<circle cx="38.1000" cy="27.9400" r="0.3937" /> 
</g>
<g style="fill:#000000; fill-opacity:1.0000; stroke:none;">
<circle cx="38.1000" cy="30.4800" r="0.3937" /> 
</g>
<g style="fill:#000000; fill-opacity:1.0000; stroke:none;">
<circle cx="38.1000" cy="33.0200" r="0.3937" /> 
</g>
<g style="fill:#000000; fill-opacity:1.0000; stroke:none;">
<circle cx="38.1000" cy="35.5600" r="0.3937" /> 
</g>
<g style="fill:#000000; fill-opacity:1.0000; stroke:none;">
<circle cx="38.1000" cy="38.1000" r="0.3937" /> 
</g>
<g style="fill:#000000; fill-opacity:1.0000; stroke:none;">
<circle cx="38.1000" cy="40.6400" r="0.3937" /> 
</g>
<g style="fill:#000000; fill-opacity:1.0000; stroke:none;">
<circle cx="38.1000" cy="43.1800" r="0.3937" /> 
</g>
<g style="fill:#000000; fill-opacity:1.0000; stroke:none;">
<circle cx="38.1000" cy="45.7200" r="0.3937" /> 
</g>
<g style="fill:#000000; fill-opacity:1.0000; stroke:none;">
<circle cx="38.1000" cy="48.2600" r="0.3937" /> 
</g>
<g style="fill:#000000; fill-opacity:1.0000; stroke:none;">
<circle cx="38.1000" cy="50.8000" r="0.3937" /> 
</g>
<g style="fill:#000000; fill-opacity:1.0000; stroke:none;">
<circle cx="38.1000" cy="53.3400" r="0.3937" /> 
</g>
<g style="fill:#000000; fill-opacity:1.0000; stroke:none;">
<circle cx="38.1000" cy="55.8800" r="0.3937" /> 
</g>
<g style="fill:#000000; fill-opacity:1.0000; stroke:none;">
<circle cx="45.7200" cy="44.4500" r="0.5000" /> 
</g>
<g style="fill:#000000; fill-opacity:1.0000; stroke:none;">
<circle cx="48.2600" cy="44.4500" r="0.5000" /> 
</g>
<g style="fill:#000000; fill-opacity:1.0000; stroke:none;">
<circle cx="50.8000" cy="44.4500" r="0.5000" /> 
</g>
<g style="fill:#000000; fill-opacity:1.0000; stroke:none;">
<circle cx="8.8710" cy="24.7597" r="0.5000" /> 
</g>
<g style="fill:#000000; fill-opacity:1.0000; stroke:none;">
<circle cx="6.3310" cy="24.7597" r="0.5000" /> 
</g>
<g style="fill:#000000; fill-opacity:1.0000; stroke:none;">
<circle cx="3.7910" cy="24.7597" r="0.5000" /> 
</g>
<g style="fill:#000000; fill-opacity:1.0000; stroke:none;">
<circle cx="45.7200" cy="48.2600" r="0.5000" /> 
</g>
<g style="fill:#000000; fill-opacity:1.0000; stroke:none;">
<circle cx="48.2600" cy="48.2600" r="0.5000" /> 
</g>
<g style="fill:#000000; fill-opacity:1.0000; stroke:none;">
<circle cx="50.8000" cy="48.2600" r="0.5000" /> 
</g>
<g style="fill:#000000; fill-opacity:1.0000; stroke:none;">
<circle cx="45.7200" cy="40.6400" r="0.5000" /> 
</g>
<g style="fill:#000000; fill-opacity:1.0000; stroke:none;">
<circle cx="48.2600" cy="40.6400" r="0.5000" /> 
</g>
<g style="fill:#000000; fill-opacity:1.0000; stroke:none;">
<circle cx="50.8000" cy="40.6400" r="0.5000" /> 
</g> 
</svg>
