<?xml version="1.0" standalone="no"?>
 <!DOCTYPE svg PUBLIC "-//W3C//DTD SVG 1.1//EN" 
 "http://www.w3.org/Graphics/SVG/1.1/DTD/svg11.dtd"> 
<svg
  xmlns:svg="http://www.w3.org/2000/svg"
  xmlns="http://www.w3.org/2000/svg"
  xmlns:xlink="http://www.w3.org/1999/xlink"
  version="1.1"
  width="54.9148mm" height="64.0080mm" viewBox="0.0000 0.0000 54.9148 64.0080">
<title>SVG Image created as mask-back.svg date 2025/12/14 15:46:20 </title>
  <desc>Image generated by PCBNEW </desc>
<g style="fill:#000000; fill-opacity:1.0000;stroke:#000000; stroke-opacity:1.0000;
stroke-linecap:round; stroke-linejoin:round;"
 transform="translate(0 0) scale(1 1)">
<path style="fill:#000000; fill-opacity:1.0000; stroke:none;fill-rule:evenodd;"
d="M 46.9328,30.7287
45.1548,30.7287
45.1548,32.7607
46.9328,32.7607
Z" /> 
</g>
<g style="fill:#000000; fill-opacity:1.0000; stroke:none;">
<circle cx="48.5838" cy="31.7447" r="1.0160" /> 
</g>
<g style="fill:#000000; fill-opacity:1.0000; stroke:none;">
<circle cx="51.1238" cy="31.7447" r="1.0160" /> 
<path style="fill:#000000; fill-opacity:1.0000; stroke:none;fill-rule:evenodd;"
d="M 9.5758,10.0330
11.3538,10.0330
11.3538,8.0010
9.5758,8.0010
Z" /> 
</g>
<g style="fill:#000000; fill-opacity:1.0000; stroke:none;">
<circle cx="7.9248" cy="9.0170" r="1.0160" /> 
</g>
<g style="fill:#000000; fill-opacity:1.0000; stroke:none;">
<circle cx="5.3848" cy="9.0170" r="1.0160" /> 
</g>
<g style="fill:#000000; fill-opacity:1.0000; stroke:none;">
<circle cx="2.8448" cy="9.0170" r="1.0160" /> 
<path style="fill:#000000; fill-opacity:1.0000; stroke:none;fill-rule:evenodd;"
d="M 9.5758,17.5260
11.3538,17.5260
11.3538,15.4940
9.5758,15.4940
Z" /> 
</g>
<g style="fill:#000000; fill-opacity:1.0000; stroke:none;">
<circle cx="7.9248" cy="16.5100" r="1.0160" /> 
</g>
<g style="fill:#000000; fill-opacity:1.0000; stroke:none;">
<circle cx="5.3848" cy="16.5100" r="1.0160" /> 
</g>
<g style="fill:#000000; fill-opacity:1.0000; stroke:none;">
<circle cx="2.8448" cy="16.5100" r="1.0160" /> 
<path style="fill:#000000; fill-opacity:1.0000; stroke:none;fill-rule:evenodd;"
d="M 9.5758,6.3500
11.3538,6.3500
11.3538,4.3180
9.5758,4.3180
Z" /> 
</g>
<g style="fill:#000000; fill-opacity:1.0000; stroke:none;">
<circle cx="7.9248" cy="5.3340" r="1.0160" /> 
</g>
<g style="fill:#000000; fill-opacity:1.0000; stroke:none;">
<circle cx="5.3848" cy="5.3340" r="1.0160" /> 
</g>
<g style="fill:#000000; fill-opacity:1.0000; stroke:none;">
<circle cx="2.8448" cy="5.3340" r="1.0160" /> 
<path style="fill:#000000; fill-opacity:1.0000; stroke:none;fill-rule:evenodd;"
d="M 47.6951,53.0740
45.9171,53.0740
45.9171,55.1060
47.6951,55.1060
Z" /> 
</g>
<g style="fill:#000000; fill-opacity:1.0000; stroke:none;">
<circle cx="49.3461" cy="54.0900" r="1.0160" /> 
</g>
<g style="fill:#000000; fill-opacity:1.0000; stroke:none;">
<circle cx="51.8861" cy="54.0900" r="1.0160" /> 
<path style="fill:#000000; fill-opacity:1.0000; stroke:none;fill-rule:evenodd;"
d="M 37.0078,6.2230
38.7858,6.2230
38.7858,4.1910
37.0078,4.1910
Z" /> 
</g>
<g style="fill:#000000; fill-opacity:1.0000; stroke:none;">
<circle cx="35.3568" cy="5.2070" r="1.0160" /> 
</g>
<g style="fill:#000000; fill-opacity:1.0000; stroke:none;">
<circle cx="32.8168" cy="5.2070" r="1.0160" /> 
<path style="fill:#000000; fill-opacity:1.0000; stroke:none;fill-rule:evenodd;"
d="M 8.3058,53.0860
10.0838,53.0860
10.0838,51.0540
8.3058,51.0540
Z" /> 
</g>
<g style="fill:#000000; fill-opacity:1.0000; stroke:none;">
<circle cx="6.6548" cy="52.0700" r="1.0160" /> 
</g>
<g style="fill:#000000; fill-opacity:1.0000; stroke:none;">
<circle cx="4.1148" cy="52.0700" r="1.0160" /> 
<path style="fill:#000000; fill-opacity:1.0000; stroke:none;fill-rule:evenodd;"
d="M 47.6951,56.6300
45.9171,56.6300
45.9171,58.6620
47.6951,58.6620
Z" /> 
</g>
<g style="fill:#000000; fill-opacity:1.0000; stroke:none;">
<circle cx="49.3461" cy="57.6460" r="1.0160" /> 
</g>
<g style="fill:#000000; fill-opacity:1.0000; stroke:none;">
<circle cx="51.8861" cy="57.6460" r="1.0160" /> 
<path style="fill:#000000; fill-opacity:1.0000; stroke:none;fill-rule:evenodd;"
d="M 46.9328,12.9487
45.1548,12.9487
45.1548,14.9807
46.9328,14.9807
Z" /> 
</g>
<g style="fill:#000000; fill-opacity:1.0000; stroke:none;">
<circle cx="48.5838" cy="13.9647" r="1.0160" /> 
</g>
<g style="fill:#000000; fill-opacity:1.0000; stroke:none;">
<circle cx="51.1238" cy="13.9647" r="1.0160" /> 
<path style="fill:#000000; fill-opacity:1.0000; stroke:none;fill-rule:evenodd;"
d="M 46.9328,19.9337
45.1548,19.9337
45.1548,21.9657
46.9328,21.9657
Z" /> 
</g>
<g style="fill:#000000; fill-opacity:1.0000; stroke:none;">
<circle cx="48.5838" cy="20.9497" r="1.0160" /> 
</g>
<g style="fill:#000000; fill-opacity:1.0000; stroke:none;">
<circle cx="51.1238" cy="20.9497" r="1.0160" /> 
<path style="fill:#000000; fill-opacity:1.0000; stroke:none;fill-rule:evenodd;"
d="M 9.5758,13.7160
11.3538,13.7160
11.3538,11.6840
9.5758,11.6840
Z" /> 
</g>
<g style="fill:#000000; fill-opacity:1.0000; stroke:none;">
<circle cx="7.9248" cy="12.7000" r="1.0160" /> 
</g>
<g style="fill:#000000; fill-opacity:1.0000; stroke:none;">
<circle cx="5.3848" cy="12.7000" r="1.0160" /> 
</g>
<g style="fill:#000000; fill-opacity:1.0000; stroke:none;">
<circle cx="2.8448" cy="12.7000" r="1.0160" /> 
<path style="fill:#000000; fill-opacity:1.0000; stroke:none;fill-rule:evenodd;"
d="M 7.6073,21.1700
7.6073,19.4700
4.4323,19.4700
4.4323,21.1700
Z" /> 
<path style="fill:#000000; fill-opacity:1.0000; stroke:none;fill-rule:evenodd;"
d="M 7.6073,23.7100
7.6073,22.0100
4.4323,22.0100
4.4323,23.7100
Z" /> 
<path style="fill:#000000; fill-opacity:1.0000; stroke:none;fill-rule:evenodd;"
d="M 7.6073,26.2500
7.6073,24.5500
4.4323,24.5500
4.4323,26.2500
Z" /> 
<path style="fill:#000000; fill-opacity:1.0000; stroke:none;fill-rule:evenodd;"
d="M 7.6073,28.7900
7.6073,27.0900
4.4323,27.0900
4.4323,28.7900
Z" /> 
<path style="fill:#000000; fill-opacity:1.0000; stroke:none;fill-rule:evenodd;"
d="M 7.6073,31.3300
7.6073,29.6300
4.4323,29.6300
4.4323,31.3300
Z" /> 
<path style="fill:#000000; fill-opacity:1.0000; stroke:none;fill-rule:evenodd;"
d="M 7.6073,33.8700
7.6073,32.1700
4.4323,32.1700
4.4323,33.8700
Z" /> 
<path style="fill:#000000; fill-opacity:1.0000; stroke:none;fill-rule:evenodd;"
d="M 8.3058,56.8960
10.0838,56.8960
10.0838,54.8640
8.3058,54.8640
Z" /> 
</g>
<g style="fill:#000000; fill-opacity:1.0000; stroke:none;">
<circle cx="6.6548" cy="55.8800" r="1.0160" /> 
</g>
<g style="fill:#000000; fill-opacity:1.0000; stroke:none;">
<circle cx="4.1148" cy="55.8800" r="1.0160" /> 
<path style="fill:#000000; fill-opacity:1.0000; stroke:none;fill-rule:evenodd;"
d="M 46.9328,16.7587
45.1548,16.7587
45.1548,18.7907
46.9328,18.7907
Z" /> 
</g>
<g style="fill:#000000; fill-opacity:1.0000; stroke:none;">
<circle cx="48.5838" cy="17.7747" r="1.0160" /> 
</g>
<g style="fill:#000000; fill-opacity:1.0000; stroke:none;">
<circle cx="51.1238" cy="17.7747" r="1.0160" /> 
<path style="fill:#000000; fill-opacity:1.0000; stroke:none;fill-rule:evenodd;"
d="M 8.3058,37.8460
10.0838,37.8460
10.0838,35.8140
8.3058,35.8140
Z" /> 
</g>
<g style="fill:#000000; fill-opacity:1.0000; stroke:none;">
<circle cx="6.6548" cy="36.8300" r="1.0160" /> 
</g>
<g style="fill:#000000; fill-opacity:1.0000; stroke:none;">
<circle cx="4.1148" cy="36.8300" r="1.0160" /> 
<path style="fill:#000000; fill-opacity:1.0000; stroke:none;fill-rule:evenodd;"
d="M 46.5618,48.8765
46.5618,50.6545
48.5938,50.6545
48.5938,48.8765
Z" /> 
</g>
<g style="fill:#000000; fill-opacity:1.0000; stroke:none;">
<circle cx="47.5778" cy="47.2255" r="1.0160" /> 
</g>
<g style="fill:#000000; fill-opacity:1.0000; stroke:none;">
<circle cx="47.5778" cy="44.6855" r="1.0160" /> 
</g>
<g style="fill:#000000; fill-opacity:1.0000; stroke:none;">
<circle cx="47.5778" cy="42.1455" r="1.0160" /> 
</g>
<g style="fill:#000000; fill-opacity:1.0000; stroke:none;">
<circle cx="47.5778" cy="39.6055" r="1.0160" /> 
</g>
<g style="fill:#000000; fill-opacity:1.0000; stroke:none;">
<circle cx="47.5778" cy="37.0655" r="1.0160" /> 
<path style="fill:#000000; fill-opacity:1.0000; stroke:none;fill-rule:evenodd;"
d="M 23.5458,6.0960
25.3238,6.0960
25.3238,4.0640
23.5458,4.0640
Z" /> 
</g>
<g style="fill:#000000; fill-opacity:1.0000; stroke:none;">
<circle cx="21.8948" cy="5.0800" r="1.0160" /> 
</g>
<g style="fill:#000000; fill-opacity:1.0000; stroke:none;">
<circle cx="19.3548" cy="5.0800" r="1.0160" /> 
</g>
<g style="fill:#000000; fill-opacity:1.0000; stroke:none;">
<circle cx="16.8148" cy="5.0800" r="1.0160" /> 
<path style="fill:#000000; fill-opacity:1.0000; stroke:none;fill-rule:evenodd;"
d="M 46.9328,26.9187
45.1548,26.9187
45.1548,28.9507
46.9328,28.9507
Z" /> 
</g>
<g style="fill:#000000; fill-opacity:1.0000; stroke:none;">
<circle cx="48.5838" cy="27.9347" r="1.0160" /> 
</g>
<g style="fill:#000000; fill-opacity:1.0000; stroke:none;">
<circle cx="51.1238" cy="27.9347" r="1.0160" /> 
<path style="fill:#000000; fill-opacity:1.0000; stroke:none;fill-rule:evenodd;"
d="M 41.3643,9.3980
41.3565,9.3590
41.3344,9.3259
41.3013,9.3038
41.2623,9.2960
38.0873,9.2960
38.0483,9.3038
38.0152,9.3259
37.9931,9.3590
37.9853,9.3980
37.9853,10.9220
37.9931,10.9610
38.0152,10.9941
38.0483,11.0162
38.0873,11.0240
41.2623,11.0240
41.3013,11.0162
41.3344,10.9941
41.3565,10.9610
41.3643,10.9220
Z" /> 
<path style="fill:#000000; fill-opacity:1.0000; stroke:none;fill-rule:evenodd;"
d="M 41.3643,11.9380
41.3565,11.8990
41.3344,11.8659
41.3013,11.8438
41.2623,11.8360
38.0873,11.8360
38.0483,11.8438
38.0152,11.8659
37.9931,11.8990
37.9853,11.9380
37.9853,13.4620
37.9931,13.5010
38.0152,13.5341
38.0483,13.5562
38.0873,13.5640
41.2623,13.5640
41.3013,13.5562
41.3344,13.5341
41.3565,13.5010
41.3643,13.4620
Z" /> 
<path style="fill:#000000; fill-opacity:1.0000; stroke:none;fill-rule:evenodd;"
d="M 41.3643,14.4780
41.3565,14.4390
41.3344,14.4059
41.3013,14.3838
41.2623,14.3760
38.0873,14.3760
38.0483,14.3838
38.0152,14.4059
37.9931,14.4390
37.9853,14.4780
37.9853,16.0020
37.9931,16.0410
38.0152,16.0741
38.0483,16.0962
38.0873,16.1040
41.2623,16.1040
41.3013,16.0962
41.3344,16.0741
41.3565,16.0410
41.3643,16.0020
Z" /> 
<path style="fill:#000000; fill-opacity:1.0000; stroke:none;fill-rule:evenodd;"
d="M 41.3643,17.0180
41.3565,16.9790
41.3344,16.9459
41.3013,16.9238
41.2623,16.9160
38.0873,16.9160
38.0483,16.9238
38.0152,16.9459
37.9931,16.9790
37.9853,17.0180
37.9853,18.5420
37.9931,18.5810
38.0152,18.6141
38.0483,18.6362
38.0873,18.6440
41.2623,18.6440
41.3013,18.6362
41.3344,18.6141
41.3565,18.5810
41.3643,18.5420
Z" /> 
<path style="fill:#000000; fill-opacity:1.0000; stroke:none;fill-rule:evenodd;"
d="M 41.3643,19.5580
41.3565,19.5190
41.3344,19.4859
41.3013,19.4638
41.2623,19.4560
38.0873,19.4560
38.0483,19.4638
38.0152,19.4859
37.9931,19.5190
37.9853,19.5580
37.9853,21.0820
37.9931,21.1210
38.0152,21.1541
38.0483,21.1762
38.0873,21.1840
41.2623,21.1840
41.3013,21.1762
41.3344,21.1541
41.3565,21.1210
41.3643,21.0820
Z" /> 
<path style="fill:#000000; fill-opacity:1.0000; stroke:none;fill-rule:evenodd;"
d="M 41.3643,22.0980
41.3565,22.0590
41.3344,22.0259
41.3013,22.0038
41.2623,21.9960
38.0873,21.9960
38.0483,22.0038
38.0152,22.0259
37.9931,22.0590
37.9853,22.0980
37.9853,23.6220
37.9931,23.6610
38.0152,23.6941
38.0483,23.7162
38.0873,23.7240
41.2623,23.7240
41.3013,23.7162
41.3344,23.6941
41.3565,23.6610
41.3643,23.6220
Z" /> 
<path style="fill:#000000; fill-opacity:1.0000; stroke:none;fill-rule:evenodd;"
d="M 41.3643,24.6380
41.3565,24.5990
41.3344,24.5659
41.3013,24.5438
41.2623,24.5360
38.0873,24.5360
38.0483,24.5438
38.0152,24.5659
37.9931,24.5990
37.9853,24.6380
37.9853,26.1620
37.9931,26.2010
38.0152,26.2341
38.0483,26.2562
38.0873,26.2640
41.2623,26.2640
41.3013,26.2562
41.3344,26.2341
41.3565,26.2010
41.3643,26.1620
Z" /> 
<path style="fill:#000000; fill-opacity:1.0000; stroke:none;fill-rule:evenodd;"
d="M 41.3643,27.1780
41.3565,27.1390
41.3344,27.1059
41.3013,27.0838
41.2623,27.0760
38.0873,27.0760
38.0483,27.0838
38.0152,27.1059
37.9931,27.1390
37.9853,27.1780
37.9853,28.7020
37.9931,28.7410
38.0152,28.7741
38.0483,28.7962
38.0873,28.8040
41.2623,28.8040
41.3013,28.7962
41.3344,28.7741
41.3565,28.7410
41.3643,28.7020
Z" /> 
<path style="fill:#000000; fill-opacity:1.0000; stroke:none;fill-rule:evenodd;"
d="M 41.3643,29.7180
41.3565,29.6790
41.3344,29.6459
41.3013,29.6238
41.2623,29.6160
38.0873,29.6160
38.0483,29.6238
38.0152,29.6459
37.9931,29.6790
37.9853,29.7180
37.9853,31.2420
37.9931,31.2810
38.0152,31.3141
38.0483,31.3362
38.0873,31.3440
41.2623,31.3440
41.3013,31.3362
41.3344,31.3141
41.3565,31.2810
41.3643,31.2420
Z" /> 
<path style="fill:#000000; fill-opacity:1.0000; stroke:none;fill-rule:evenodd;"
d="M 41.3643,32.2580
41.3565,32.2190
41.3344,32.1859
41.3013,32.1638
41.2623,32.1560
38.0873,32.1560
38.0483,32.1638
38.0152,32.1859
37.9931,32.2190
37.9853,32.2580
37.9853,33.7820
37.9931,33.8210
38.0152,33.8541
38.0483,33.8762
38.0873,33.8840
41.2623,33.8840
41.3013,33.8762
41.3344,33.8541
41.3565,33.8210
41.3643,33.7820
Z" /> 
<path style="fill:#000000; fill-opacity:1.0000; stroke:none;fill-rule:evenodd;"
d="M 41.3643,34.7980
41.3565,34.7590
41.3344,34.7259
41.3013,34.7038
41.2623,34.6960
38.0873,34.6960
38.0483,34.7038
38.0152,34.7259
37.9931,34.7590
37.9853,34.7980
37.9853,36.3220
37.9931,36.3610
38.0152,36.3941
38.0483,36.4162
38.0873,36.4240
41.2623,36.4240
41.3013,36.4162
41.3344,36.3941
41.3565,36.3610
41.3643,36.3220
Z" /> 
<path style="fill:#000000; fill-opacity:1.0000; stroke:none;fill-rule:evenodd;"
d="M 41.3643,37.3380
41.3565,37.2990
41.3344,37.2659
41.3013,37.2438
41.2623,37.2360
38.0873,37.2360
38.0483,37.2438
38.0152,37.2659
37.9931,37.2990
37.9853,37.3380
37.9853,38.8620
37.9931,38.9010
38.0152,38.9341
38.0483,38.9562
38.0873,38.9640
41.2623,38.9640
41.3013,38.9562
41.3344,38.9341
41.3565,38.9010
41.3643,38.8620
Z" /> 
<path style="fill:#000000; fill-opacity:1.0000; stroke:none;fill-rule:evenodd;"
d="M 41.3643,39.8780
41.3565,39.8390
41.3344,39.8059
41.3013,39.7838
41.2623,39.7760
38.0873,39.7760
38.0483,39.7838
38.0152,39.8059
37.9931,39.8390
37.9853,39.8780
37.9853,41.4020
37.9931,41.4410
38.0152,41.4741
38.0483,41.4962
38.0873,41.5040
41.2623,41.5040
41.3013,41.4962
41.3344,41.4741
41.3565,41.4410
41.3643,41.4020
Z" /> 
<path style="fill:#000000; fill-opacity:1.0000; stroke:none;fill-rule:evenodd;"
d="M 41.3643,42.4180
41.3565,42.3790
41.3344,42.3459
41.3013,42.3238
41.2623,42.3160
38.0873,42.3160
38.0483,42.3238
38.0152,42.3459
37.9931,42.3790
37.9853,42.4180
37.9853,43.9420
37.9931,43.9810
38.0152,44.0141
38.0483,44.0362
38.0873,44.0440
41.2623,44.0440
41.3013,44.0362
41.3344,44.0141
41.3565,43.9810
41.3643,43.9420
Z" /> 
<path style="fill:#000000; fill-opacity:1.0000; stroke:none;fill-rule:evenodd;"
d="M 41.3643,44.9580
41.3565,44.9190
41.3344,44.8859
41.3013,44.8638
41.2623,44.8560
38.0873,44.8560
38.0483,44.8638
38.0152,44.8859
37.9931,44.9190
37.9853,44.9580
37.9853,46.4820
37.9931,46.5210
38.0152,46.5541
38.0483,46.5762
38.0873,46.5840
41.2623,46.5840
41.3013,46.5762
41.3344,46.5541
41.3565,46.5210
41.3643,46.4820
Z" /> 
<path style="fill:#000000; fill-opacity:1.0000; stroke:none;fill-rule:evenodd;"
d="M 41.3643,47.4980
41.3565,47.4590
41.3344,47.4259
41.3013,47.4038
41.2623,47.3960
38.0873,47.3960
38.0483,47.4038
38.0152,47.4259
37.9931,47.4590
37.9853,47.4980
37.9853,49.0220
37.9931,49.0610
38.0152,49.0941
38.0483,49.1162
38.0873,49.1240
41.2623,49.1240
41.3013,49.1162
41.3344,49.0941
41.3565,49.0610
41.3643,49.0220
Z" /> 
<path style="fill:#000000; fill-opacity:1.0000; stroke:none;fill-rule:evenodd;"
d="M 41.3643,50.0380
41.3565,49.9990
41.3344,49.9659
41.3013,49.9438
41.2623,49.9360
38.0873,49.9360
38.0483,49.9438
38.0152,49.9659
37.9931,49.9990
37.9853,50.0380
37.9853,51.5620
37.9931,51.6010
38.0152,51.6341
38.0483,51.6562
38.0873,51.6640
41.2623,51.6640
41.3013,51.6562
41.3344,51.6341
41.3565,51.6010
41.3643,51.5620
Z" /> 
<path style="fill:#000000; fill-opacity:1.0000; stroke:none;fill-rule:evenodd;"
d="M 41.3643,52.5780
41.3565,52.5390
41.3344,52.5059
41.3013,52.4838
41.2623,52.4760
38.0873,52.4760
38.0483,52.4838
38.0152,52.5059
37.9931,52.5390
37.9853,52.5780
37.9853,54.1020
37.9931,54.1410
38.0152,54.1741
38.0483,54.1962
38.0873,54.2040
41.2623,54.2040
41.3013,54.1962
41.3344,54.1741
41.3565,54.1410
41.3643,54.1020
Z" /> 
<path style="fill:#000000; fill-opacity:1.0000; stroke:none;fill-rule:evenodd;"
d="M 41.3643,55.1180
41.3565,55.0790
41.3344,55.0459
41.3013,55.0238
41.2623,55.0160
38.0873,55.0160
38.0483,55.0238
38.0152,55.0459
37.9931,55.0790
37.9853,55.1180
37.9853,56.6420
37.9931,56.6810
38.0152,56.7141
38.0483,56.7362
38.0873,56.7440
41.2623,56.7440
41.3013,56.7362
41.3344,56.7141
41.3565,56.6810
41.3643,56.6420
Z" /> 
<path style="fill:#000000; fill-opacity:1.0000; stroke:none;fill-rule:evenodd;"
d="M 18.5043,9.3980
18.4965,9.3590
18.4744,9.3259
18.4413,9.3038
18.4023,9.2960
15.2273,9.2960
15.1883,9.3038
15.1552,9.3259
15.1331,9.3590
15.1253,9.3980
15.1253,10.9220
15.1331,10.9610
15.1552,10.9941
15.1883,11.0162
15.2273,11.0240
18.4023,11.0240
18.4413,11.0162
18.4744,10.9941
18.4965,10.9610
18.5043,10.9220
Z" /> 
<path style="fill:#000000; fill-opacity:1.0000; stroke:none;fill-rule:evenodd;"
d="M 18.5043,11.9380
18.4965,11.8990
18.4744,11.8659
18.4413,11.8438
18.4023,11.8360
15.2273,11.8360
15.1883,11.8438
15.1552,11.8659
15.1331,11.8990
15.1253,11.9380
15.1253,13.4620
15.1331,13.5010
15.1552,13.5341
15.1883,13.5562
15.2273,13.5640
18.4023,13.5640
18.4413,13.5562
18.4744,13.5341
18.4965,13.5010
18.5043,13.4620
Z" /> 
<path style="fill:#000000; fill-opacity:1.0000; stroke:none;fill-rule:evenodd;"
d="M 18.5043,14.4780
18.4965,14.4390
18.4744,14.4059
18.4413,14.3838
18.4023,14.3760
15.2273,14.3760
15.1883,14.3838
15.1552,14.4059
15.1331,14.4390
15.1253,14.4780
15.1253,16.0020
15.1331,16.0410
15.1552,16.0741
15.1883,16.0962
15.2273,16.1040
18.4023,16.1040
18.4413,16.0962
18.4744,16.0741
18.4965,16.0410
18.5043,16.0020
Z" /> 
<path style="fill:#000000; fill-opacity:1.0000; stroke:none;fill-rule:evenodd;"
d="M 18.5043,17.0180
18.4965,16.9790
18.4744,16.9459
18.4413,16.9238
18.4023,16.9160
15.2273,16.9160
15.1883,16.9238
15.1552,16.9459
15.1331,16.9790
15.1253,17.0180
15.1253,18.5420
15.1331,18.5810
15.1552,18.6141
15.1883,18.6362
15.2273,18.6440
18.4023,18.6440
18.4413,18.6362
18.4744,18.6141
18.4965,18.5810
18.5043,18.5420
Z" /> 
<path style="fill:#000000; fill-opacity:1.0000; stroke:none;fill-rule:evenodd;"
d="M 18.5043,19.5580
18.4965,19.5190
18.4744,19.4859
18.4413,19.4638
18.4023,19.4560
15.2273,19.4560
15.1883,19.4638
15.1552,19.4859
15.1331,19.5190
15.1253,19.5580
15.1253,21.0820
15.1331,21.1210
15.1552,21.1541
15.1883,21.1762
15.2273,21.1840
18.4023,21.1840
18.4413,21.1762
18.4744,21.1541
18.4965,21.1210
18.5043,21.0820
Z" /> 
<path style="fill:#000000; fill-opacity:1.0000; stroke:none;fill-rule:evenodd;"
d="M 18.5043,22.0980
18.4965,22.0590
18.4744,22.0259
18.4413,22.0038
18.4023,21.9960
15.2273,21.9960
15.1883,22.0038
15.1552,22.0259
15.1331,22.0590
15.1253,22.0980
15.1253,23.6220
15.1331,23.6610
15.1552,23.6941
15.1883,23.7162
15.2273,23.7240
18.4023,23.7240
18.4413,23.7162
18.4744,23.6941
18.4965,23.6610
18.5043,23.6220
Z" /> 
<path style="fill:#000000; fill-opacity:1.0000; stroke:none;fill-rule:evenodd;"
d="M 18.5043,24.6380
18.4965,24.5990
18.4744,24.5659
18.4413,24.5438
18.4023,24.5360
15.2273,24.5360
15.1883,24.5438
15.1552,24.5659
15.1331,24.5990
15.1253,24.6380
15.1253,26.1620
15.1331,26.2010
15.1552,26.2341
15.1883,26.2562
15.2273,26.2640
18.4023,26.2640
18.4413,26.2562
18.4744,26.2341
18.4965,26.2010
18.5043,26.1620
Z" /> 
<path style="fill:#000000; fill-opacity:1.0000; stroke:none;fill-rule:evenodd;"
d="M 18.5043,27.1780
18.4965,27.1390
18.4744,27.1059
18.4413,27.0838
18.4023,27.0760
15.2273,27.0760
15.1883,27.0838
15.1552,27.1059
15.1331,27.1390
15.1253,27.1780
15.1253,28.7020
15.1331,28.7410
15.1552,28.7741
15.1883,28.7962
15.2273,28.8040
18.4023,28.8040
18.4413,28.7962
18.4744,28.7741
18.4965,28.7410
18.5043,28.7020
Z" /> 
<path style="fill:#000000; fill-opacity:1.0000; stroke:none;fill-rule:evenodd;"
d="M 18.5043,29.7180
18.4965,29.6790
18.4744,29.6459
18.4413,29.6238
18.4023,29.6160
15.2273,29.6160
15.1883,29.6238
15.1552,29.6459
15.1331,29.6790
15.1253,29.7180
15.1253,31.2420
15.1331,31.2810
15.1552,31.3141
15.1883,31.3362
15.2273,31.3440
18.4023,31.3440
18.4413,31.3362
18.4744,31.3141
18.4965,31.2810
18.5043,31.2420
Z" /> 
<path style="fill:#000000; fill-opacity:1.0000; stroke:none;fill-rule:evenodd;"
d="M 18.5043,32.2580
18.4965,32.2190
18.4744,32.1859
18.4413,32.1638
18.4023,32.1560
15.2273,32.1560
15.1883,32.1638
15.1552,32.1859
15.1331,32.2190
15.1253,32.2580
15.1253,33.7820
15.1331,33.8210
15.1552,33.8541
15.1883,33.8762
15.2273,33.8840
18.4023,33.8840
18.4413,33.8762
18.4744,33.8541
18.4965,33.8210
18.5043,33.7820
Z" /> 
<path style="fill:#000000; fill-opacity:1.0000; stroke:none;fill-rule:evenodd;"
d="M 18.5043,34.7980
18.4965,34.7590
18.4744,34.7259
18.4413,34.7038
18.4023,34.6960
15.2273,34.6960
15.1883,34.7038
15.1552,34.7259
15.1331,34.7590
15.1253,34.7980
15.1253,36.3220
15.1331,36.3610
15.1552,36.3941
15.1883,36.4162
15.2273,36.4240
18.4023,36.4240
18.4413,36.4162
18.4744,36.3941
18.4965,36.3610
18.5043,36.3220
Z" /> 
<path style="fill:#000000; fill-opacity:1.0000; stroke:none;fill-rule:evenodd;"
d="M 18.5043,37.3380
18.4965,37.2990
18.4744,37.2659
18.4413,37.2438
18.4023,37.2360
15.2273,37.2360
15.1883,37.2438
15.1552,37.2659
15.1331,37.2990
15.1253,37.3380
15.1253,38.8620
15.1331,38.9010
15.1552,38.9341
15.1883,38.9562
15.2273,38.9640
18.4023,38.9640
18.4413,38.9562
18.4744,38.9341
18.4965,38.9010
18.5043,38.8620
Z" /> 
<path style="fill:#000000; fill-opacity:1.0000; stroke:none;fill-rule:evenodd;"
d="M 18.5043,39.8780
18.4965,39.8390
18.4744,39.8059
18.4413,39.7838
18.4023,39.7760
15.2273,39.7760
15.1883,39.7838
15.1552,39.8059
15.1331,39.8390
15.1253,39.8780
15.1253,41.4020
15.1331,41.4410
15.1552,41.4741
15.1883,41.4962
15.2273,41.5040
18.4023,41.5040
18.4413,41.4962
18.4744,41.4741
18.4965,41.4410
18.5043,41.4020
Z" /> 
<path style="fill:#000000; fill-opacity:1.0000; stroke:none;fill-rule:evenodd;"
d="M 18.5043,42.4180
18.4965,42.3790
18.4744,42.3459
18.4413,42.3238
18.4023,42.3160
15.2273,42.3160
15.1883,42.3238
15.1552,42.3459
15.1331,42.3790
15.1253,42.4180
15.1253,43.9420
15.1331,43.9810
15.1552,44.0141
15.1883,44.0362
15.2273,44.0440
18.4023,44.0440
18.4413,44.0362
18.4744,44.0141
18.4965,43.9810
18.5043,43.9420
Z" /> 
<path style="fill:#000000; fill-opacity:1.0000; stroke:none;fill-rule:evenodd;"
d="M 18.5043,44.9580
18.4965,44.9190
18.4744,44.8859
18.4413,44.8638
18.4023,44.8560
15.2273,44.8560
15.1883,44.8638
15.1552,44.8859
15.1331,44.9190
15.1253,44.9580
15.1253,46.4820
15.1331,46.5210
15.1552,46.5541
15.1883,46.5762
15.2273,46.5840
18.4023,46.5840
18.4413,46.5762
18.4744,46.5541
18.4965,46.5210
18.5043,46.4820
Z" /> 
<path style="fill:#000000; fill-opacity:1.0000; stroke:none;fill-rule:evenodd;"
d="M 18.5043,47.4980
18.4965,47.4590
18.4744,47.4259
18.4413,47.4038
18.4023,47.3960
15.2273,47.3960
15.1883,47.4038
15.1552,47.4259
15.1331,47.4590
15.1253,47.4980
15.1253,49.0220
15.1331,49.0610
15.1552,49.0941
15.1883,49.1162
15.2273,49.1240
18.4023,49.1240
18.4413,49.1162
18.4744,49.0941
18.4965,49.0610
18.5043,49.0220
Z" /> 
<path style="fill:#000000; fill-opacity:1.0000; stroke:none;fill-rule:evenodd;"
d="M 18.5043,50.0380
18.4965,49.9990
18.4744,49.9659
18.4413,49.9438
18.4023,49.9360
15.2273,49.9360
15.1883,49.9438
15.1552,49.9659
15.1331,49.9990
15.1253,50.0380
15.1253,51.5620
15.1331,51.6010
15.1552,51.6341
15.1883,51.6562
15.2273,51.6640
18.4023,51.6640
18.4413,51.6562
18.4744,51.6341
18.4965,51.6010
18.5043,51.5620
Z" /> 
<path style="fill:#000000; fill-opacity:1.0000; stroke:none;fill-rule:evenodd;"
d="M 18.5043,52.5780
18.4965,52.5390
18.4744,52.5059
18.4413,52.4838
18.4023,52.4760
15.2273,52.4760
15.1883,52.4838
15.1552,52.5059
15.1331,52.5390
15.1253,52.5780
15.1253,54.1020
15.1331,54.1410
15.1552,54.1741
15.1883,54.1962
15.2273,54.2040
18.4023,54.2040
18.4413,54.1962
18.4744,54.1741
18.4965,54.1410
18.5043,54.1020
Z" /> 
<path style="fill:#000000; fill-opacity:1.0000; stroke:none;fill-rule:evenodd;"
d="M 18.5043,55.1180
18.4965,55.0790
18.4744,55.0459
18.4413,55.0238
18.4023,55.0160
15.2273,55.0160
15.1883,55.0238
15.1552,55.0459
15.1331,55.0790
15.1253,55.1180
15.1253,56.6420
15.1331,56.6810
15.1552,56.7141
15.1883,56.7362
15.2273,56.7440
18.4023,56.7440
18.4413,56.7362
18.4744,56.7141
18.4965,56.6810
18.5043,56.6420
Z" /> 
<path style="fill:#000000; fill-opacity:1.0000; stroke:none;fill-rule:evenodd;"
d="M 8.3058,45.4660
10.0838,45.4660
10.0838,43.4340
8.3058,43.4340
Z" /> 
</g>
<g style="fill:#000000; fill-opacity:1.0000; stroke:none;">
<circle cx="6.6548" cy="44.4500" r="1.0160" /> 
</g>
<g style="fill:#000000; fill-opacity:1.0000; stroke:none;">
<circle cx="4.1148" cy="44.4500" r="1.0160" /> 
<path style="fill:#000000; fill-opacity:1.0000; stroke:none;fill-rule:evenodd;"
d="M 46.8938,23.9097
45.1938,23.9097
45.1938,25.6097
46.8938,25.6097
Z" /> 
</g>
<g style="fill:#000000; fill-opacity:1.0000; stroke:none;">
<circle cx="48.5838" cy="24.7597" r="1.0160" /> 
</g>
<g style="fill:#000000; fill-opacity:1.0000; stroke:none;">
<circle cx="51.1238" cy="24.7597" r="1.0160" /> 
<path style="fill:#000000; fill-opacity:1.0000; stroke:none;fill-rule:evenodd;"
d="M 8.3058,49.2760
10.0838,49.2760
10.0838,47.2440
8.3058,47.2440
Z" /> 
</g>
<g style="fill:#000000; fill-opacity:1.0000; stroke:none;">
<circle cx="6.6548" cy="48.2600" r="1.0160" /> 
</g>
<g style="fill:#000000; fill-opacity:1.0000; stroke:none;">
<circle cx="4.1148" cy="48.2600" r="1.0160" /> 
<path style="fill:#000000; fill-opacity:1.0000; stroke:none;fill-rule:evenodd;"
d="M 8.3058,41.6560
10.0838,41.6560
10.0838,39.6240
8.3058,39.6240
Z" /> 
</g>
<g style="fill:#000000; fill-opacity:1.0000; stroke:none;">
<circle cx="6.6548" cy="40.6400" r="1.0160" /> 
</g>
<g style="fill:#000000; fill-opacity:1.0000; stroke:none;">
<circle cx="4.1148" cy="40.6400" r="1.0160" /> 
</g>
<g style="fill:none; 
stroke:#000000; stroke-width:0.0500; stroke-opacity:1; 
stroke-linecap:round; stroke-linejoin:round;">
<circle cx="27.9908" cy="51.4350" r="1.5913" /> 
<path style="fill:none; 
stroke:#000000; stroke-width:0.0500; stroke-opacity:1; 
stroke-linecap:round; stroke-linejoin:round;fill:none"
d="M 54.9148,0.0000
0.0000,0.0000
0.0000,64.0080
54.9148,64.0080
Z" /> 
</g>
<g style="fill:#FFFFFF; fill-opacity:1.0000; stroke:none;">
<circle cx="46.0438" cy="31.7447" r="0.5000" /> 
</g>
<g style="fill:#FFFFFF; fill-opacity:1.0000; stroke:none;">
<circle cx="48.5838" cy="31.7447" r="0.5000" /> 
</g>
<g style="fill:#FFFFFF; fill-opacity:1.0000; stroke:none;">
<circle cx="51.1238" cy="31.7447" r="0.5000" /> 
</g>
<g style="fill:#FFFFFF; fill-opacity:1.0000; stroke:none;">
<circle cx="10.4648" cy="9.0170" r="0.5000" /> 
</g>
<g style="fill:#FFFFFF; fill-opacity:1.0000; stroke:none;">
<circle cx="7.9248" cy="9.0170" r="0.5000" /> 
</g>
<g style="fill:#FFFFFF; fill-opacity:1.0000; stroke:none;">
<circle cx="5.3848" cy="9.0170" r="0.5000" /> 
</g>
<g style="fill:#FFFFFF; fill-opacity:1.0000; stroke:none;">
<circle cx="2.8448" cy="9.0170" r="0.5000" /> 
</g>
<g style="fill:#FFFFFF; fill-opacity:1.0000; stroke:none;">
<circle cx="10.4648" cy="16.5100" r="0.5000" /> 
</g>
<g style="fill:#FFFFFF; fill-opacity:1.0000; stroke:none;">
<circle cx="7.9248" cy="16.5100" r="0.5000" /> 
</g>
<g style="fill:#FFFFFF; fill-opacity:1.0000; stroke:none;">
<circle cx="5.3848" cy="16.5100" r="0.5000" /> 
</g>
<g style="fill:#FFFFFF; fill-opacity:1.0000; stroke:none;">
<circle cx="2.8448" cy="16.5100" r="0.5000" /> 
</g>
<g style="fill:#FFFFFF; fill-opacity:1.0000; stroke:none;">
<circle cx="10.4648" cy="5.3340" r="0.5000" /> 
</g>
<g style="fill:#FFFFFF; fill-opacity:1.0000; stroke:none;">
<circle cx="7.9248" cy="5.3340" r="0.5000" /> 
</g>
<g style="fill:#FFFFFF; fill-opacity:1.0000; stroke:none;">
<circle cx="5.3848" cy="5.3340" r="0.5000" /> 
</g>
<g style="fill:#FFFFFF; fill-opacity:1.0000; stroke:none;">
<circle cx="2.8448" cy="5.3340" r="0.5000" /> 
</g>
<g style="fill:#FFFFFF; fill-opacity:1.0000; stroke:none;">
<circle cx="46.8061" cy="54.0900" r="0.5000" /> 
</g>
<g style="fill:#FFFFFF; fill-opacity:1.0000; stroke:none;">
<circle cx="49.3461" cy="54.0900" r="0.5000" /> 
</g>
<g style="fill:#FFFFFF; fill-opacity:1.0000; stroke:none;">
<circle cx="51.8861" cy="54.0900" r="0.5000" /> 
</g>
<g style="fill:#FFFFFF; fill-opacity:1.0000; stroke:none;">
<circle cx="37.8968" cy="5.2070" r="0.5000" /> 
</g>
<g style="fill:#FFFFFF; fill-opacity:1.0000; stroke:none;">
<circle cx="35.3568" cy="5.2070" r="0.5000" /> 
</g>
<g style="fill:#FFFFFF; fill-opacity:1.0000; stroke:none;">
<circle cx="32.8168" cy="5.2070" r="0.5000" /> 
</g>
<g style="fill:#FFFFFF; fill-opacity:1.0000; stroke:none;">
<circle cx="9.1948" cy="52.0700" r="0.5000" /> 
</g>
<g style="fill:#FFFFFF; fill-opacity:1.0000; stroke:none;">
<circle cx="6.6548" cy="52.0700" r="0.5000" /> 
</g>
<g style="fill:#FFFFFF; fill-opacity:1.0000; stroke:none;">
<circle cx="4.1148" cy="52.0700" r="0.5000" /> 
</g>
<g style="fill:#FFFFFF; fill-opacity:1.0000; stroke:none;">
<circle cx="46.8061" cy="57.6460" r="0.5000" /> 
</g>
<g style="fill:#FFFFFF; fill-opacity:1.0000; stroke:none;">
<circle cx="49.3461" cy="57.6460" r="0.5000" /> 
</g>
<g style="fill:#FFFFFF; fill-opacity:1.0000; stroke:none;">
<circle cx="51.8861" cy="57.6460" r="0.5000" /> 
</g>
<g style="fill:#FFFFFF; fill-opacity:1.0000; stroke:none;">
<circle cx="46.0438" cy="13.9647" r="0.5000" /> 
</g>
<g style="fill:#FFFFFF; fill-opacity:1.0000; stroke:none;">
<circle cx="48.5838" cy="13.9647" r="0.5000" /> 
</g>
<g style="fill:#FFFFFF; fill-opacity:1.0000; stroke:none;">
<circle cx="51.1238" cy="13.9647" r="0.5000" /> 
</g>
<g style="fill:#FFFFFF; fill-opacity:1.0000; stroke:none;">
<circle cx="46.0438" cy="20.9497" r="0.5000" /> 
</g>
<g style="fill:#FFFFFF; fill-opacity:1.0000; stroke:none;">
<circle cx="48.5838" cy="20.9497" r="0.5000" /> 
</g>
<g style="fill:#FFFFFF; fill-opacity:1.0000; stroke:none;">
<circle cx="51.1238" cy="20.9497" r="0.5000" /> 
</g>
<g style="fill:#FFFFFF; fill-opacity:1.0000; stroke:none;">
<circle cx="10.4648" cy="12.7000" r="0.5000" /> 
</g>
<g style="fill:#FFFFFF; fill-opacity:1.0000; stroke:none;">
<circle cx="7.9248" cy="12.7000" r="0.5000" /> 
</g>
<g style="fill:#FFFFFF; fill-opacity:1.0000; stroke:none;">
<circle cx="5.3848" cy="12.7000" r="0.5000" /> 
</g>
<g style="fill:#FFFFFF; fill-opacity:1.0000; stroke:none;">
<circle cx="2.8448" cy="12.7000" r="0.5000" /> 
</g>
<g style="fill:#FFFFFF; fill-opacity:1.0000; stroke:none;">
<circle cx="6.0198" cy="20.3200" r="0.5000" /> 
</g>
<g style="fill:#FFFFFF; fill-opacity:1.0000; stroke:none;">
<circle cx="6.0198" cy="22.8600" r="0.5000" /> 
</g>
<g style="fill:#FFFFFF; fill-opacity:1.0000; stroke:none;">
<circle cx="6.0198" cy="25.4000" r="0.5000" /> 
</g>
<g style="fill:#FFFFFF; fill-opacity:1.0000; stroke:none;">
<circle cx="6.0198" cy="27.9400" r="0.5000" /> 
</g>
<g style="fill:#FFFFFF; fill-opacity:1.0000; stroke:none;">
<circle cx="6.0198" cy="30.4800" r="0.5000" /> 
</g>
<g style="fill:#FFFFFF; fill-opacity:1.0000; stroke:none;">
<circle cx="6.0198" cy="33.0200" r="0.5000" /> 
</g>
<g style="fill:#FFFFFF; fill-opacity:1.0000; stroke:none;">
<circle cx="9.1948" cy="55.8800" r="0.5000" /> 
</g>
<g style="fill:#FFFFFF; fill-opacity:1.0000; stroke:none;">
<circle cx="6.6548" cy="55.8800" r="0.5000" /> 
</g>
<g style="fill:#FFFFFF; fill-opacity:1.0000; stroke:none;">
<circle cx="4.1148" cy="55.8800" r="0.5000" /> 
</g>
<g style="fill:#FFFFFF; fill-opacity:1.0000; stroke:none;">
<circle cx="46.0438" cy="17.7747" r="0.5000" /> 
</g>
<g style="fill:#FFFFFF; fill-opacity:1.0000; stroke:none;">
<circle cx="48.5838" cy="17.7747" r="0.5000" /> 
</g>
<g style="fill:#FFFFFF; fill-opacity:1.0000; stroke:none;">
<circle cx="51.1238" cy="17.7747" r="0.5000" /> 
</g>
<g style="fill:#FFFFFF; fill-opacity:1.0000; stroke:none;">
<circle cx="9.1948" cy="36.8300" r="0.5000" /> 
</g>
<g style="fill:#FFFFFF; fill-opacity:1.0000; stroke:none;">
<circle cx="6.6548" cy="36.8300" r="0.5000" /> 
</g>
<g style="fill:#FFFFFF; fill-opacity:1.0000; stroke:none;">
<circle cx="4.1148" cy="36.8300" r="0.5000" /> 
</g>
<g style="fill:#FFFFFF; fill-opacity:1.0000; stroke:none;">
<circle cx="47.5778" cy="49.7655" r="0.5000" /> 
</g>
<g style="fill:#FFFFFF; fill-opacity:1.0000; stroke:none;">
<circle cx="47.5778" cy="47.2255" r="0.5000" /> 
</g>
<g style="fill:#FFFFFF; fill-opacity:1.0000; stroke:none;">
<circle cx="47.5778" cy="44.6855" r="0.5000" /> 
</g>
<g style="fill:#FFFFFF; fill-opacity:1.0000; stroke:none;">
<circle cx="47.5778" cy="42.1455" r="0.5000" /> 
</g>
<g style="fill:#FFFFFF; fill-opacity:1.0000; stroke:none;">
<circle cx="47.5778" cy="39.6055" r="0.5000" /> 
</g>
<g style="fill:#FFFFFF; fill-opacity:1.0000; stroke:none;">
<circle cx="47.5778" cy="37.0655" r="0.5000" /> 
</g>
<g style="fill:#FFFFFF; fill-opacity:1.0000; stroke:none;">
<circle cx="24.4348" cy="5.0800" r="0.5000" /> 
</g>
<g style="fill:#FFFFFF; fill-opacity:1.0000; stroke:none;">
<circle cx="21.8948" cy="5.0800" r="0.5000" /> 
</g>
<g style="fill:#FFFFFF; fill-opacity:1.0000; stroke:none;">
<circle cx="19.3548" cy="5.0800" r="0.5000" /> 
</g>
<g style="fill:#FFFFFF; fill-opacity:1.0000; stroke:none;">
<circle cx="16.8148" cy="5.0800" r="0.5000" /> 
</g>
<g style="fill:#FFFFFF; fill-opacity:1.0000; stroke:none;">
<circle cx="46.0438" cy="27.9347" r="0.5000" /> 
</g>
<g style="fill:#FFFFFF; fill-opacity:1.0000; stroke:none;">
<circle cx="48.5838" cy="27.9347" r="0.5000" /> 
</g>
<g style="fill:#FFFFFF; fill-opacity:1.0000; stroke:none;">
<circle cx="51.1238" cy="27.9347" r="0.5000" /> 
</g>
<g style="fill:#FFFFFF; fill-opacity:1.0000; stroke:none;">
<circle cx="39.6748" cy="10.1600" r="0.3937" /> 
</g>
<g style="fill:#FFFFFF; fill-opacity:1.0000; stroke:none;">
<circle cx="39.6748" cy="12.7000" r="0.3937" /> 
</g>
<g style="fill:#FFFFFF; fill-opacity:1.0000; stroke:none;">
<circle cx="39.6748" cy="15.2400" r="0.3937" /> 
</g>
<g style="fill:#FFFFFF; fill-opacity:1.0000; stroke:none;">
<circle cx="39.6748" cy="17.7800" r="0.3937" /> 
</g>
<g style="fill:#FFFFFF; fill-opacity:1.0000; stroke:none;">
<circle cx="39.6748" cy="20.3200" r="0.3937" /> 
</g>
<g style="fill:#FFFFFF; fill-opacity:1.0000; stroke:none;">
<circle cx="39.6748" cy="22.8600" r="0.3937" /> 
</g>
<g style="fill:#FFFFFF; fill-opacity:1.0000; stroke:none;">
<circle cx="39.6748" cy="25.4000" r="0.3937" /> 
</g>
<g style="fill:#FFFFFF; fill-opacity:1.0000; stroke:none;">
<circle cx="39.6748" cy="27.9400" r="0.3937" /> 
</g>
<g style="fill:#FFFFFF; fill-opacity:1.0000; stroke:none;">
<circle cx="39.6748" cy="30.4800" r="0.3937" /> 
</g>
<g style="fill:#FFFFFF; fill-opacity:1.0000; stroke:none;">
<circle cx="39.6748" cy="33.0200" r="0.3937" /> 
</g>
<g style="fill:#FFFFFF; fill-opacity:1.0000; stroke:none;">
<circle cx="39.6748" cy="35.5600" r="0.3937" /> 
</g>
<g style="fill:#FFFFFF; fill-opacity:1.0000; stroke:none;">
<circle cx="39.6748" cy="38.1000" r="0.3937" /> 
</g>
<g style="fill:#FFFFFF; fill-opacity:1.0000; stroke:none;">
<circle cx="39.6748" cy="40.6400" r="0.3937" /> 
</g>
<g style="fill:#FFFFFF; fill-opacity:1.0000; stroke:none;">
<circle cx="39.6748" cy="43.1800" r="0.3937" /> 
</g>
<g style="fill:#FFFFFF; fill-opacity:1.0000; stroke:none;">
<circle cx="39.6748" cy="45.7200" r="0.3937" /> 
</g>
<g style="fill:#FFFFFF; fill-opacity:1.0000; stroke:none;">
<circle cx="39.6748" cy="48.2600" r="0.3937" /> 
</g>
<g style="fill:#FFFFFF; fill-opacity:1.0000; stroke:none;">
<circle cx="39.6748" cy="50.8000" r="0.3937" /> 
</g>
<g style="fill:#FFFFFF; fill-opacity:1.0000; stroke:none;">
<circle cx="39.6748" cy="53.3400" r="0.3937" /> 
</g>
<g style="fill:#FFFFFF; fill-opacity:1.0000; stroke:none;">
<circle cx="39.6748" cy="55.8800" r="0.3937" /> 
</g>
<g style="fill:#FFFFFF; fill-opacity:1.0000; stroke:none;">
<circle cx="16.8148" cy="10.1600" r="0.3937" /> 
</g>
<g style="fill:#FFFFFF; fill-opacity:1.0000; stroke:none;">
<circle cx="16.8148" cy="12.7000" r="0.3937" /> 
</g>
<g style="fill:#FFFFFF; fill-opacity:1.0000; stroke:none;">
<circle cx="16.8148" cy="15.2400" r="0.3937" /> 
</g>
<g style="fill:#FFFFFF; fill-opacity:1.0000; stroke:none;">
<circle cx="16.8148" cy="17.7800" r="0.3937" /> 
</g>
<g style="fill:#FFFFFF; fill-opacity:1.0000; stroke:none;">
<circle cx="16.8148" cy="20.3200" r="0.3937" /> 
</g>
<g style="fill:#FFFFFF; fill-opacity:1.0000; stroke:none;">
<circle cx="16.8148" cy="22.8600" r="0.3937" /> 
</g>
<g style="fill:#FFFFFF; fill-opacity:1.0000; stroke:none;">
<circle cx="16.8148" cy="25.4000" r="0.3937" /> 
</g>
<g style="fill:#FFFFFF; fill-opacity:1.0000; stroke:none;">
<circle cx="16.8148" cy="27.9400" r="0.3937" /> 
</g>
<g style="fill:#FFFFFF; fill-opacity:1.0000; stroke:none;">
<circle cx="16.8148" cy="30.4800" r="0.3937" /> 
</g>
<g style="fill:#FFFFFF; fill-opacity:1.0000; stroke:none;">
<circle cx="16.8148" cy="33.0200" r="0.3937" /> 
</g>
<g style="fill:#FFFFFF; fill-opacity:1.0000; stroke:none;">
<circle cx="16.8148" cy="35.5600" r="0.3937" /> 
</g>
<g style="fill:#FFFFFF; fill-opacity:1.0000; stroke:none;">
<circle cx="16.8148" cy="38.1000" r="0.3937" /> 
</g>
<g style="fill:#FFFFFF; fill-opacity:1.0000; stroke:none;">
<circle cx="16.8148" cy="40.6400" r="0.3937" /> 
</g>
<g style="fill:#FFFFFF; fill-opacity:1.0000; stroke:none;">
<circle cx="16.8148" cy="43.1800" r="0.3937" /> 
</g>
<g style="fill:#FFFFFF; fill-opacity:1.0000; stroke:none;">
<circle cx="16.8148" cy="45.7200" r="0.3937" /> 
</g>
<g style="fill:#FFFFFF; fill-opacity:1.0000; stroke:none;">
<circle cx="16.8148" cy="48.2600" r="0.3937" /> 
</g>
<g style="fill:#FFFFFF; fill-opacity:1.0000; stroke:none;">
<circle cx="16.8148" cy="50.8000" r="0.3937" /> 
</g>
<g style="fill:#FFFFFF; fill-opacity:1.0000; stroke:none;">
<circle cx="16.8148" cy="53.3400" r="0.3937" /> 
</g>
<g style="fill:#FFFFFF; fill-opacity:1.0000; stroke:none;">
<circle cx="16.8148" cy="55.8800" r="0.3937" /> 
</g>
<g style="fill:#FFFFFF; fill-opacity:1.0000; stroke:none;">
<circle cx="9.1948" cy="44.4500" r="0.5000" /> 
</g>
<g style="fill:#FFFFFF; fill-opacity:1.0000; stroke:none;">
<circle cx="6.6548" cy="44.4500" r="0.5000" /> 
</g>
<g style="fill:#FFFFFF; fill-opacity:1.0000; stroke:none;">
<circle cx="4.1148" cy="44.4500" r="0.5000" /> 
</g>
<g style="fill:#FFFFFF; fill-opacity:1.0000; stroke:none;">
<circle cx="46.0438" cy="24.7597" r="0.5000" /> 
</g>
<g style="fill:#FFFFFF; fill-opacity:1.0000; stroke:none;">
<circle cx="48.5838" cy="24.7597" r="0.5000" /> 
</g>
<g style="fill:#FFFFFF; fill-opacity:1.0000; stroke:none;">
<circle cx="51.1238" cy="24.7597" r="0.5000" /> 
</g>
<g style="fill:#FFFFFF; fill-opacity:1.0000; stroke:none;">
<circle cx="9.1948" cy="48.2600" r="0.5000" /> 
</g>
<g style="fill:#FFFFFF; fill-opacity:1.0000; stroke:none;">
<circle cx="6.6548" cy="48.2600" r="0.5000" /> 
</g>
<g style="fill:#FFFFFF; fill-opacity:1.0000; stroke:none;">
<circle cx="4.1148" cy="48.2600" r="0.5000" /> 
</g>
<g style="fill:#FFFFFF; fill-opacity:1.0000; stroke:none;">
<circle cx="9.1948" cy="40.6400" r="0.5000" /> 
</g>
<g style="fill:#FFFFFF; fill-opacity:1.0000; stroke:none;">
<circle cx="6.6548" cy="40.6400" r="0.5000" /> 
</g>
<g style="fill:#FFFFFF; fill-opacity:1.0000; stroke:none;">
<circle cx="4.1148" cy="40.6400" r="0.5000" /> 
</g> 
</svg>
