<?xml version="1.0" standalone="no"?>
 <!DOCTYPE svg PUBLIC "-//W3C//DTD SVG 1.1//EN" 
 "http://www.w3.org/Graphics/SVG/1.1/DTD/svg11.dtd"> 
<svg
  xmlns:svg="http://www.w3.org/2000/svg"
  xmlns="http://www.w3.org/2000/svg"
  xmlns:xlink="http://www.w3.org/1999/xlink"
  version="1.1"
  width="54.9148mm" height="64.0080mm" viewBox="0.0000 0.0000 54.9148 64.0080">
<title>SVG Image created as mask-front.svg date 2025/12/14 15:46:23 </title>
  <desc>Image generated by PCBNEW </desc>
<g style="fill:#000000; fill-opacity:1.0000;stroke:#000000; stroke-opacity:1.0000;
stroke-linecap:round; stroke-linejoin:round;"
 transform="translate(0 0) scale(1 1)">
<path style="fill:#000000; fill-opacity:1.0000; stroke:none;fill-rule:evenodd;"
d="M 7.9820,30.7287
9.7600,30.7287
9.7600,32.7607
7.9820,32.7607
Z" /> 
</g>
<g style="fill:#000000; fill-opacity:1.0000; stroke:none;">
<circle cx="6.3310" cy="31.7447" r="1.0160" /> 
</g>
<g style="fill:#000000; fill-opacity:1.0000; stroke:none;">
<circle cx="3.7910" cy="31.7447" r="1.0160" /> 
<path style="fill:#000000; fill-opacity:1.0000; stroke:none;fill-rule:evenodd;"
d="M 45.3390,10.0330
43.5610,10.0330
43.5610,8.0010
45.3390,8.0010
Z" /> 
</g>
<g style="fill:#000000; fill-opacity:1.0000; stroke:none;">
<circle cx="46.9900" cy="9.0170" r="1.0160" /> 
</g>
<g style="fill:#000000; fill-opacity:1.0000; stroke:none;">
<circle cx="49.5300" cy="9.0170" r="1.0160" /> 
</g>
<g style="fill:#000000; fill-opacity:1.0000; stroke:none;">
<circle cx="52.0700" cy="9.0170" r="1.0160" /> 
<path style="fill:#000000; fill-opacity:1.0000; stroke:none;fill-rule:evenodd;"
d="M 45.3390,17.5260
43.5610,17.5260
43.5610,15.4940
45.3390,15.4940
Z" /> 
</g>
<g style="fill:#000000; fill-opacity:1.0000; stroke:none;">
<circle cx="46.9900" cy="16.5100" r="1.0160" /> 
</g>
<g style="fill:#000000; fill-opacity:1.0000; stroke:none;">
<circle cx="49.5300" cy="16.5100" r="1.0160" /> 
</g>
<g style="fill:#000000; fill-opacity:1.0000; stroke:none;">
<circle cx="52.0700" cy="16.5100" r="1.0160" /> 
<path style="fill:#000000; fill-opacity:1.0000; stroke:none;fill-rule:evenodd;"
d="M 45.3390,6.3500
43.5610,6.3500
43.5610,4.3180
45.3390,4.3180
Z" /> 
</g>
<g style="fill:#000000; fill-opacity:1.0000; stroke:none;">
<circle cx="46.9900" cy="5.3340" r="1.0160" /> 
</g>
<g style="fill:#000000; fill-opacity:1.0000; stroke:none;">
<circle cx="49.5300" cy="5.3340" r="1.0160" /> 
</g>
<g style="fill:#000000; fill-opacity:1.0000; stroke:none;">
<circle cx="52.0700" cy="5.3340" r="1.0160" /> 
<path style="fill:#000000; fill-opacity:1.0000; stroke:none;fill-rule:evenodd;"
d="M 7.2197,53.0740
8.9977,53.0740
8.9977,55.1060
7.2197,55.1060
Z" /> 
</g>
<g style="fill:#000000; fill-opacity:1.0000; stroke:none;">
<circle cx="5.5687" cy="54.0900" r="1.0160" /> 
</g>
<g style="fill:#000000; fill-opacity:1.0000; stroke:none;">
<circle cx="3.0287" cy="54.0900" r="1.0160" /> 
<path style="fill:#000000; fill-opacity:1.0000; stroke:none;fill-rule:evenodd;"
d="M 17.9070,6.2230
16.1290,6.2230
16.1290,4.1910
17.9070,4.1910
Z" /> 
</g>
<g style="fill:#000000; fill-opacity:1.0000; stroke:none;">
<circle cx="19.5580" cy="5.2070" r="1.0160" /> 
</g>
<g style="fill:#000000; fill-opacity:1.0000; stroke:none;">
<circle cx="22.0980" cy="5.2070" r="1.0160" /> 
<path style="fill:#000000; fill-opacity:1.0000; stroke:none;fill-rule:evenodd;"
d="M 46.6090,53.0860
44.8310,53.0860
44.8310,51.0540
46.6090,51.0540
Z" /> 
</g>
<g style="fill:#000000; fill-opacity:1.0000; stroke:none;">
<circle cx="48.2600" cy="52.0700" r="1.0160" /> 
</g>
<g style="fill:#000000; fill-opacity:1.0000; stroke:none;">
<circle cx="50.8000" cy="52.0700" r="1.0160" /> 
<path style="fill:#000000; fill-opacity:1.0000; stroke:none;fill-rule:evenodd;"
d="M 7.2197,56.6300
8.9977,56.6300
8.9977,58.6620
7.2197,58.6620
Z" /> 
</g>
<g style="fill:#000000; fill-opacity:1.0000; stroke:none;">
<circle cx="5.5687" cy="57.6460" r="1.0160" /> 
</g>
<g style="fill:#000000; fill-opacity:1.0000; stroke:none;">
<circle cx="3.0287" cy="57.6460" r="1.0160" /> 
<path style="fill:#000000; fill-opacity:1.0000; stroke:none;fill-rule:evenodd;"
d="M 7.9820,12.9487
9.7600,12.9487
9.7600,14.9807
7.9820,14.9807
Z" /> 
</g>
<g style="fill:#000000; fill-opacity:1.0000; stroke:none;">
<circle cx="6.3310" cy="13.9647" r="1.0160" /> 
</g>
<g style="fill:#000000; fill-opacity:1.0000; stroke:none;">
<circle cx="3.7910" cy="13.9647" r="1.0160" /> 
<path style="fill:#000000; fill-opacity:1.0000; stroke:none;fill-rule:evenodd;"
d="M 7.9820,19.9337
9.7600,19.9337
9.7600,21.9657
7.9820,21.9657
Z" /> 
</g>
<g style="fill:#000000; fill-opacity:1.0000; stroke:none;">
<circle cx="6.3310" cy="20.9497" r="1.0160" /> 
</g>
<g style="fill:#000000; fill-opacity:1.0000; stroke:none;">
<circle cx="3.7910" cy="20.9497" r="1.0160" /> 
<path style="fill:#000000; fill-opacity:1.0000; stroke:none;fill-rule:evenodd;"
d="M 45.3390,13.7160
43.5610,13.7160
43.5610,11.6840
45.3390,11.6840
Z" /> 
</g>
<g style="fill:#000000; fill-opacity:1.0000; stroke:none;">
<circle cx="46.9900" cy="12.7000" r="1.0160" /> 
</g>
<g style="fill:#000000; fill-opacity:1.0000; stroke:none;">
<circle cx="49.5300" cy="12.7000" r="1.0160" /> 
</g>
<g style="fill:#000000; fill-opacity:1.0000; stroke:none;">
<circle cx="52.0700" cy="12.7000" r="1.0160" /> 
<path style="fill:#000000; fill-opacity:1.0000; stroke:none;fill-rule:evenodd;"
d="M 47.3075,21.1700
47.3075,19.4700
50.4825,19.4700
50.4825,21.1700
Z" /> 
<path style="fill:#000000; fill-opacity:1.0000; stroke:none;fill-rule:evenodd;"
d="M 47.3075,23.7100
47.3075,22.0100
50.4825,22.0100
50.4825,23.7100
Z" /> 
<path style="fill:#000000; fill-opacity:1.0000; stroke:none;fill-rule:evenodd;"
d="M 47.3075,26.2500
47.3075,24.5500
50.4825,24.5500
50.4825,26.2500
Z" /> 
<path style="fill:#000000; fill-opacity:1.0000; stroke:none;fill-rule:evenodd;"
d="M 47.3075,28.7900
47.3075,27.0900
50.4825,27.0900
50.4825,28.7900
Z" /> 
<path style="fill:#000000; fill-opacity:1.0000; stroke:none;fill-rule:evenodd;"
d="M 47.3075,31.3300
47.3075,29.6300
50.4825,29.6300
50.4825,31.3300
Z" /> 
<path style="fill:#000000; fill-opacity:1.0000; stroke:none;fill-rule:evenodd;"
d="M 47.3075,33.8700
47.3075,32.1700
50.4825,32.1700
50.4825,33.8700
Z" /> 
<path style="fill:#000000; fill-opacity:1.0000; stroke:none;fill-rule:evenodd;"
d="M 46.6090,56.8960
44.8310,56.8960
44.8310,54.8640
46.6090,54.8640
Z" /> 
</g>
<g style="fill:#000000; fill-opacity:1.0000; stroke:none;">
<circle cx="48.2600" cy="55.8800" r="1.0160" /> 
</g>
<g style="fill:#000000; fill-opacity:1.0000; stroke:none;">
<circle cx="50.8000" cy="55.8800" r="1.0160" /> 
<path style="fill:#000000; fill-opacity:1.0000; stroke:none;fill-rule:evenodd;"
d="M 7.9820,16.7587
9.7600,16.7587
9.7600,18.7907
7.9820,18.7907
Z" /> 
</g>
<g style="fill:#000000; fill-opacity:1.0000; stroke:none;">
<circle cx="6.3310" cy="17.7747" r="1.0160" /> 
</g>
<g style="fill:#000000; fill-opacity:1.0000; stroke:none;">
<circle cx="3.7910" cy="17.7747" r="1.0160" /> 
<path style="fill:#000000; fill-opacity:1.0000; stroke:none;fill-rule:evenodd;"
d="M 46.6090,37.8460
44.8310,37.8460
44.8310,35.8140
46.6090,35.8140
Z" /> 
</g>
<g style="fill:#000000; fill-opacity:1.0000; stroke:none;">
<circle cx="48.2600" cy="36.8300" r="1.0160" /> 
</g>
<g style="fill:#000000; fill-opacity:1.0000; stroke:none;">
<circle cx="50.8000" cy="36.8300" r="1.0160" /> 
<path style="fill:#000000; fill-opacity:1.0000; stroke:none;fill-rule:evenodd;"
d="M 8.3530,48.8765
8.3530,50.6545
6.3210,50.6545
6.3210,48.8765
Z" /> 
</g>
<g style="fill:#000000; fill-opacity:1.0000; stroke:none;">
<circle cx="7.3370" cy="47.2255" r="1.0160" /> 
</g>
<g style="fill:#000000; fill-opacity:1.0000; stroke:none;">
<circle cx="7.3370" cy="44.6855" r="1.0160" /> 
</g>
<g style="fill:#000000; fill-opacity:1.0000; stroke:none;">
<circle cx="7.3370" cy="42.1455" r="1.0160" /> 
</g>
<g style="fill:#000000; fill-opacity:1.0000; stroke:none;">
<circle cx="7.3370" cy="39.6055" r="1.0160" /> 
</g>
<g style="fill:#000000; fill-opacity:1.0000; stroke:none;">
<circle cx="7.3370" cy="37.0655" r="1.0160" /> 
<path style="fill:#000000; fill-opacity:1.0000; stroke:none;fill-rule:evenodd;"
d="M 31.3690,6.0960
29.5910,6.0960
29.5910,4.0640
31.3690,4.0640
Z" /> 
</g>
<g style="fill:#000000; fill-opacity:1.0000; stroke:none;">
<circle cx="33.0200" cy="5.0800" r="1.0160" /> 
</g>
<g style="fill:#000000; fill-opacity:1.0000; stroke:none;">
<circle cx="35.5600" cy="5.0800" r="1.0160" /> 
</g>
<g style="fill:#000000; fill-opacity:1.0000; stroke:none;">
<circle cx="38.1000" cy="5.0800" r="1.0160" /> 
<path style="fill:#000000; fill-opacity:1.0000; stroke:none;fill-rule:evenodd;"
d="M 7.9820,26.9187
9.7600,26.9187
9.7600,28.9507
7.9820,28.9507
Z" /> 
</g>
<g style="fill:#000000; fill-opacity:1.0000; stroke:none;">
<circle cx="6.3310" cy="27.9347" r="1.0160" /> 
</g>
<g style="fill:#000000; fill-opacity:1.0000; stroke:none;">
<circle cx="3.7910" cy="27.9347" r="1.0160" /> 
<path style="fill:#000000; fill-opacity:1.0000; stroke:none;fill-rule:evenodd;"
d="M 13.5505,9.3980
13.5583,9.3590
13.5804,9.3259
13.6135,9.3038
13.6525,9.2960
16.8275,9.2960
16.8665,9.3038
16.8996,9.3259
16.9217,9.3590
16.9295,9.3980
16.9295,10.9220
16.9217,10.9610
16.8996,10.9941
16.8665,11.0162
16.8275,11.0240
13.6525,11.0240
13.6135,11.0162
13.5804,10.9941
13.5583,10.9610
13.5505,10.9220
Z" /> 
<path style="fill:#000000; fill-opacity:1.0000; stroke:none;fill-rule:evenodd;"
d="M 13.5505,11.9380
13.5583,11.8990
13.5804,11.8659
13.6135,11.8438
13.6525,11.8360
16.8275,11.8360
16.8665,11.8438
16.8996,11.8659
16.9217,11.8990
16.9295,11.9380
16.9295,13.4620
16.9217,13.5010
16.8996,13.5341
16.8665,13.5562
16.8275,13.5640
13.6525,13.5640
13.6135,13.5562
13.5804,13.5341
13.5583,13.5010
13.5505,13.4620
Z" /> 
<path style="fill:#000000; fill-opacity:1.0000; stroke:none;fill-rule:evenodd;"
d="M 13.5505,14.4780
13.5583,14.4390
13.5804,14.4059
13.6135,14.3838
13.6525,14.3760
16.8275,14.3760
16.8665,14.3838
16.8996,14.4059
16.9217,14.4390
16.9295,14.4780
16.9295,16.0020
16.9217,16.0410
16.8996,16.0741
16.8665,16.0962
16.8275,16.1040
13.6525,16.1040
13.6135,16.0962
13.5804,16.0741
13.5583,16.0410
13.5505,16.0020
Z" /> 
<path style="fill:#000000; fill-opacity:1.0000; stroke:none;fill-rule:evenodd;"
d="M 13.5505,17.0180
13.5583,16.9790
13.5804,16.9459
13.6135,16.9238
13.6525,16.9160
16.8275,16.9160
16.8665,16.9238
16.8996,16.9459
16.9217,16.9790
16.9295,17.0180
16.9295,18.5420
16.9217,18.5810
16.8996,18.6141
16.8665,18.6362
16.8275,18.6440
13.6525,18.6440
13.6135,18.6362
13.5804,18.6141
13.5583,18.5810
13.5505,18.5420
Z" /> 
<path style="fill:#000000; fill-opacity:1.0000; stroke:none;fill-rule:evenodd;"
d="M 13.5505,19.5580
13.5583,19.5190
13.5804,19.4859
13.6135,19.4638
13.6525,19.4560
16.8275,19.4560
16.8665,19.4638
16.8996,19.4859
16.9217,19.5190
16.9295,19.5580
16.9295,21.0820
16.9217,21.1210
16.8996,21.1541
16.8665,21.1762
16.8275,21.1840
13.6525,21.1840
13.6135,21.1762
13.5804,21.1541
13.5583,21.1210
13.5505,21.0820
Z" /> 
<path style="fill:#000000; fill-opacity:1.0000; stroke:none;fill-rule:evenodd;"
d="M 13.5505,22.0980
13.5583,22.0590
13.5804,22.0259
13.6135,22.0038
13.6525,21.9960
16.8275,21.9960
16.8665,22.0038
16.8996,22.0259
16.9217,22.0590
16.9295,22.0980
16.9295,23.6220
16.9217,23.6610
16.8996,23.6941
16.8665,23.7162
16.8275,23.7240
13.6525,23.7240
13.6135,23.7162
13.5804,23.6941
13.5583,23.6610
13.5505,23.6220
Z" /> 
<path style="fill:#000000; fill-opacity:1.0000; stroke:none;fill-rule:evenodd;"
d="M 13.5505,24.6380
13.5583,24.5990
13.5804,24.5659
13.6135,24.5438
13.6525,24.5360
16.8275,24.5360
16.8665,24.5438
16.8996,24.5659
16.9217,24.5990
16.9295,24.6380
16.9295,26.1620
16.9217,26.2010
16.8996,26.2341
16.8665,26.2562
16.8275,26.2640
13.6525,26.2640
13.6135,26.2562
13.5804,26.2341
13.5583,26.2010
13.5505,26.1620
Z" /> 
<path style="fill:#000000; fill-opacity:1.0000; stroke:none;fill-rule:evenodd;"
d="M 13.5505,27.1780
13.5583,27.1390
13.5804,27.1059
13.6135,27.0838
13.6525,27.0760
16.8275,27.0760
16.8665,27.0838
16.8996,27.1059
16.9217,27.1390
16.9295,27.1780
16.9295,28.7020
16.9217,28.7410
16.8996,28.7741
16.8665,28.7962
16.8275,28.8040
13.6525,28.8040
13.6135,28.7962
13.5804,28.7741
13.5583,28.7410
13.5505,28.7020
Z" /> 
<path style="fill:#000000; fill-opacity:1.0000; stroke:none;fill-rule:evenodd;"
d="M 13.5505,29.7180
13.5583,29.6790
13.5804,29.6459
13.6135,29.6238
13.6525,29.6160
16.8275,29.6160
16.8665,29.6238
16.8996,29.6459
16.9217,29.6790
16.9295,29.7180
16.9295,31.2420
16.9217,31.2810
16.8996,31.3141
16.8665,31.3362
16.8275,31.3440
13.6525,31.3440
13.6135,31.3362
13.5804,31.3141
13.5583,31.2810
13.5505,31.2420
Z" /> 
<path style="fill:#000000; fill-opacity:1.0000; stroke:none;fill-rule:evenodd;"
d="M 13.5505,32.2580
13.5583,32.2190
13.5804,32.1859
13.6135,32.1638
13.6525,32.1560
16.8275,32.1560
16.8665,32.1638
16.8996,32.1859
16.9217,32.2190
16.9295,32.2580
16.9295,33.7820
16.9217,33.8210
16.8996,33.8541
16.8665,33.8762
16.8275,33.8840
13.6525,33.8840
13.6135,33.8762
13.5804,33.8541
13.5583,33.8210
13.5505,33.7820
Z" /> 
<path style="fill:#000000; fill-opacity:1.0000; stroke:none;fill-rule:evenodd;"
d="M 13.5505,34.7980
13.5583,34.7590
13.5804,34.7259
13.6135,34.7038
13.6525,34.6960
16.8275,34.6960
16.8665,34.7038
16.8996,34.7259
16.9217,34.7590
16.9295,34.7980
16.9295,36.3220
16.9217,36.3610
16.8996,36.3941
16.8665,36.4162
16.8275,36.4240
13.6525,36.4240
13.6135,36.4162
13.5804,36.3941
13.5583,36.3610
13.5505,36.3220
Z" /> 
<path style="fill:#000000; fill-opacity:1.0000; stroke:none;fill-rule:evenodd;"
d="M 13.5505,37.3380
13.5583,37.2990
13.5804,37.2659
13.6135,37.2438
13.6525,37.2360
16.8275,37.2360
16.8665,37.2438
16.8996,37.2659
16.9217,37.2990
16.9295,37.3380
16.9295,38.8620
16.9217,38.9010
16.8996,38.9341
16.8665,38.9562
16.8275,38.9640
13.6525,38.9640
13.6135,38.9562
13.5804,38.9341
13.5583,38.9010
13.5505,38.8620
Z" /> 
<path style="fill:#000000; fill-opacity:1.0000; stroke:none;fill-rule:evenodd;"
d="M 13.5505,39.8780
13.5583,39.8390
13.5804,39.8059
13.6135,39.7838
13.6525,39.7760
16.8275,39.7760
16.8665,39.7838
16.8996,39.8059
16.9217,39.8390
16.9295,39.8780
16.9295,41.4020
16.9217,41.4410
16.8996,41.4741
16.8665,41.4962
16.8275,41.5040
13.6525,41.5040
13.6135,41.4962
13.5804,41.4741
13.5583,41.4410
13.5505,41.4020
Z" /> 
<path style="fill:#000000; fill-opacity:1.0000; stroke:none;fill-rule:evenodd;"
d="M 13.5505,42.4180
13.5583,42.3790
13.5804,42.3459
13.6135,42.3238
13.6525,42.3160
16.8275,42.3160
16.8665,42.3238
16.8996,42.3459
16.9217,42.3790
16.9295,42.4180
16.9295,43.9420
16.9217,43.9810
16.8996,44.0141
16.8665,44.0362
16.8275,44.0440
13.6525,44.0440
13.6135,44.0362
13.5804,44.0141
13.5583,43.9810
13.5505,43.9420
Z" /> 
<path style="fill:#000000; fill-opacity:1.0000; stroke:none;fill-rule:evenodd;"
d="M 13.5505,44.9580
13.5583,44.9190
13.5804,44.8859
13.6135,44.8638
13.6525,44.8560
16.8275,44.8560
16.8665,44.8638
16.8996,44.8859
16.9217,44.9190
16.9295,44.9580
16.9295,46.4820
16.9217,46.5210
16.8996,46.5541
16.8665,46.5762
16.8275,46.5840
13.6525,46.5840
13.6135,46.5762
13.5804,46.5541
13.5583,46.5210
13.5505,46.4820
Z" /> 
<path style="fill:#000000; fill-opacity:1.0000; stroke:none;fill-rule:evenodd;"
d="M 13.5505,47.4980
13.5583,47.4590
13.5804,47.4259
13.6135,47.4038
13.6525,47.3960
16.8275,47.3960
16.8665,47.4038
16.8996,47.4259
16.9217,47.4590
16.9295,47.4980
16.9295,49.0220
16.9217,49.0610
16.8996,49.0941
16.8665,49.1162
16.8275,49.1240
13.6525,49.1240
13.6135,49.1162
13.5804,49.0941
13.5583,49.0610
13.5505,49.0220
Z" /> 
<path style="fill:#000000; fill-opacity:1.0000; stroke:none;fill-rule:evenodd;"
d="M 13.5505,50.0380
13.5583,49.9990
13.5804,49.9659
13.6135,49.9438
13.6525,49.9360
16.8275,49.9360
16.8665,49.9438
16.8996,49.9659
16.9217,49.9990
16.9295,50.0380
16.9295,51.5620
16.9217,51.6010
16.8996,51.6341
16.8665,51.6562
16.8275,51.6640
13.6525,51.6640
13.6135,51.6562
13.5804,51.6341
13.5583,51.6010
13.5505,51.5620
Z" /> 
<path style="fill:#000000; fill-opacity:1.0000; stroke:none;fill-rule:evenodd;"
d="M 13.5505,52.5780
13.5583,52.5390
13.5804,52.5059
13.6135,52.4838
13.6525,52.4760
16.8275,52.4760
16.8665,52.4838
16.8996,52.5059
16.9217,52.5390
16.9295,52.5780
16.9295,54.1020
16.9217,54.1410
16.8996,54.1741
16.8665,54.1962
16.8275,54.2040
13.6525,54.2040
13.6135,54.1962
13.5804,54.1741
13.5583,54.1410
13.5505,54.1020
Z" /> 
<path style="fill:#000000; fill-opacity:1.0000; stroke:none;fill-rule:evenodd;"
d="M 13.5505,55.1180
13.5583,55.0790
13.5804,55.0459
13.6135,55.0238
13.6525,55.0160
16.8275,55.0160
16.8665,55.0238
16.8996,55.0459
16.9217,55.0790
16.9295,55.1180
16.9295,56.6420
16.9217,56.6810
16.8996,56.7141
16.8665,56.7362
16.8275,56.7440
13.6525,56.7440
13.6135,56.7362
13.5804,56.7141
13.5583,56.6810
13.5505,56.6420
Z" /> 
<path style="fill:#000000; fill-opacity:1.0000; stroke:none;fill-rule:evenodd;"
d="M 36.4105,9.3980
36.4183,9.3590
36.4404,9.3259
36.4735,9.3038
36.5125,9.2960
39.6875,9.2960
39.7265,9.3038
39.7596,9.3259
39.7817,9.3590
39.7895,9.3980
39.7895,10.9220
39.7817,10.9610
39.7596,10.9941
39.7265,11.0162
39.6875,11.0240
36.5125,11.0240
36.4735,11.0162
36.4404,10.9941
36.4183,10.9610
36.4105,10.9220
Z" /> 
<path style="fill:#000000; fill-opacity:1.0000; stroke:none;fill-rule:evenodd;"
d="M 36.4105,11.9380
36.4183,11.8990
36.4404,11.8659
36.4735,11.8438
36.5125,11.8360
39.6875,11.8360
39.7265,11.8438
39.7596,11.8659
39.7817,11.8990
39.7895,11.9380
39.7895,13.4620
39.7817,13.5010
39.7596,13.5341
39.7265,13.5562
39.6875,13.5640
36.5125,13.5640
36.4735,13.5562
36.4404,13.5341
36.4183,13.5010
36.4105,13.4620
Z" /> 
<path style="fill:#000000; fill-opacity:1.0000; stroke:none;fill-rule:evenodd;"
d="M 36.4105,14.4780
36.4183,14.4390
36.4404,14.4059
36.4735,14.3838
36.5125,14.3760
39.6875,14.3760
39.7265,14.3838
39.7596,14.4059
39.7817,14.4390
39.7895,14.4780
39.7895,16.0020
39.7817,16.0410
39.7596,16.0741
39.7265,16.0962
39.6875,16.1040
36.5125,16.1040
36.4735,16.0962
36.4404,16.0741
36.4183,16.0410
36.4105,16.0020
Z" /> 
<path style="fill:#000000; fill-opacity:1.0000; stroke:none;fill-rule:evenodd;"
d="M 36.4105,17.0180
36.4183,16.9790
36.4404,16.9459
36.4735,16.9238
36.5125,16.9160
39.6875,16.9160
39.7265,16.9238
39.7596,16.9459
39.7817,16.9790
39.7895,17.0180
39.7895,18.5420
39.7817,18.5810
39.7596,18.6141
39.7265,18.6362
39.6875,18.6440
36.5125,18.6440
36.4735,18.6362
36.4404,18.6141
36.4183,18.5810
36.4105,18.5420
Z" /> 
<path style="fill:#000000; fill-opacity:1.0000; stroke:none;fill-rule:evenodd;"
d="M 36.4105,19.5580
36.4183,19.5190
36.4404,19.4859
36.4735,19.4638
36.5125,19.4560
39.6875,19.4560
39.7265,19.4638
39.7596,19.4859
39.7817,19.5190
39.7895,19.5580
39.7895,21.0820
39.7817,21.1210
39.7596,21.1541
39.7265,21.1762
39.6875,21.1840
36.5125,21.1840
36.4735,21.1762
36.4404,21.1541
36.4183,21.1210
36.4105,21.0820
Z" /> 
<path style="fill:#000000; fill-opacity:1.0000; stroke:none;fill-rule:evenodd;"
d="M 36.4105,22.0980
36.4183,22.0590
36.4404,22.0259
36.4735,22.0038
36.5125,21.9960
39.6875,21.9960
39.7265,22.0038
39.7596,22.0259
39.7817,22.0590
39.7895,22.0980
39.7895,23.6220
39.7817,23.6610
39.7596,23.6941
39.7265,23.7162
39.6875,23.7240
36.5125,23.7240
36.4735,23.7162
36.4404,23.6941
36.4183,23.6610
36.4105,23.6220
Z" /> 
<path style="fill:#000000; fill-opacity:1.0000; stroke:none;fill-rule:evenodd;"
d="M 36.4105,24.6380
36.4183,24.5990
36.4404,24.5659
36.4735,24.5438
36.5125,24.5360
39.6875,24.5360
39.7265,24.5438
39.7596,24.5659
39.7817,24.5990
39.7895,24.6380
39.7895,26.1620
39.7817,26.2010
39.7596,26.2341
39.7265,26.2562
39.6875,26.2640
36.5125,26.2640
36.4735,26.2562
36.4404,26.2341
36.4183,26.2010
36.4105,26.1620
Z" /> 
<path style="fill:#000000; fill-opacity:1.0000; stroke:none;fill-rule:evenodd;"
d="M 36.4105,27.1780
36.4183,27.1390
36.4404,27.1059
36.4735,27.0838
36.5125,27.0760
39.6875,27.0760
39.7265,27.0838
39.7596,27.1059
39.7817,27.1390
39.7895,27.1780
39.7895,28.7020
39.7817,28.7410
39.7596,28.7741
39.7265,28.7962
39.6875,28.8040
36.5125,28.8040
36.4735,28.7962
36.4404,28.7741
36.4183,28.7410
36.4105,28.7020
Z" /> 
<path style="fill:#000000; fill-opacity:1.0000; stroke:none;fill-rule:evenodd;"
d="M 36.4105,29.7180
36.4183,29.6790
36.4404,29.6459
36.4735,29.6238
36.5125,29.6160
39.6875,29.6160
39.7265,29.6238
39.7596,29.6459
39.7817,29.6790
39.7895,29.7180
39.7895,31.2420
39.7817,31.2810
39.7596,31.3141
39.7265,31.3362
39.6875,31.3440
36.5125,31.3440
36.4735,31.3362
36.4404,31.3141
36.4183,31.2810
36.4105,31.2420
Z" /> 
<path style="fill:#000000; fill-opacity:1.0000; stroke:none;fill-rule:evenodd;"
d="M 36.4105,32.2580
36.4183,32.2190
36.4404,32.1859
36.4735,32.1638
36.5125,32.1560
39.6875,32.1560
39.7265,32.1638
39.7596,32.1859
39.7817,32.2190
39.7895,32.2580
39.7895,33.7820
39.7817,33.8210
39.7596,33.8541
39.7265,33.8762
39.6875,33.8840
36.5125,33.8840
36.4735,33.8762
36.4404,33.8541
36.4183,33.8210
36.4105,33.7820
Z" /> 
<path style="fill:#000000; fill-opacity:1.0000; stroke:none;fill-rule:evenodd;"
d="M 36.4105,34.7980
36.4183,34.7590
36.4404,34.7259
36.4735,34.7038
36.5125,34.6960
39.6875,34.6960
39.7265,34.7038
39.7596,34.7259
39.7817,34.7590
39.7895,34.7980
39.7895,36.3220
39.7817,36.3610
39.7596,36.3941
39.7265,36.4162
39.6875,36.4240
36.5125,36.4240
36.4735,36.4162
36.4404,36.3941
36.4183,36.3610
36.4105,36.3220
Z" /> 
<path style="fill:#000000; fill-opacity:1.0000; stroke:none;fill-rule:evenodd;"
d="M 36.4105,37.3380
36.4183,37.2990
36.4404,37.2659
36.4735,37.2438
36.5125,37.2360
39.6875,37.2360
39.7265,37.2438
39.7596,37.2659
39.7817,37.2990
39.7895,37.3380
39.7895,38.8620
39.7817,38.9010
39.7596,38.9341
39.7265,38.9562
39.6875,38.9640
36.5125,38.9640
36.4735,38.9562
36.4404,38.9341
36.4183,38.9010
36.4105,38.8620
Z" /> 
<path style="fill:#000000; fill-opacity:1.0000; stroke:none;fill-rule:evenodd;"
d="M 36.4105,39.8780
36.4183,39.8390
36.4404,39.8059
36.4735,39.7838
36.5125,39.7760
39.6875,39.7760
39.7265,39.7838
39.7596,39.8059
39.7817,39.8390
39.7895,39.8780
39.7895,41.4020
39.7817,41.4410
39.7596,41.4741
39.7265,41.4962
39.6875,41.5040
36.5125,41.5040
36.4735,41.4962
36.4404,41.4741
36.4183,41.4410
36.4105,41.4020
Z" /> 
<path style="fill:#000000; fill-opacity:1.0000; stroke:none;fill-rule:evenodd;"
d="M 36.4105,42.4180
36.4183,42.3790
36.4404,42.3459
36.4735,42.3238
36.5125,42.3160
39.6875,42.3160
39.7265,42.3238
39.7596,42.3459
39.7817,42.3790
39.7895,42.4180
39.7895,43.9420
39.7817,43.9810
39.7596,44.0141
39.7265,44.0362
39.6875,44.0440
36.5125,44.0440
36.4735,44.0362
36.4404,44.0141
36.4183,43.9810
36.4105,43.9420
Z" /> 
<path style="fill:#000000; fill-opacity:1.0000; stroke:none;fill-rule:evenodd;"
d="M 36.4105,44.9580
36.4183,44.9190
36.4404,44.8859
36.4735,44.8638
36.5125,44.8560
39.6875,44.8560
39.7265,44.8638
39.7596,44.8859
39.7817,44.9190
39.7895,44.9580
39.7895,46.4820
39.7817,46.5210
39.7596,46.5541
39.7265,46.5762
39.6875,46.5840
36.5125,46.5840
36.4735,46.5762
36.4404,46.5541
36.4183,46.5210
36.4105,46.4820
Z" /> 
<path style="fill:#000000; fill-opacity:1.0000; stroke:none;fill-rule:evenodd;"
d="M 36.4105,47.4980
36.4183,47.4590
36.4404,47.4259
36.4735,47.4038
36.5125,47.3960
39.6875,47.3960
39.7265,47.4038
39.7596,47.4259
39.7817,47.4590
39.7895,47.4980
39.7895,49.0220
39.7817,49.0610
39.7596,49.0941
39.7265,49.1162
39.6875,49.1240
36.5125,49.1240
36.4735,49.1162
36.4404,49.0941
36.4183,49.0610
36.4105,49.0220
Z" /> 
<path style="fill:#000000; fill-opacity:1.0000; stroke:none;fill-rule:evenodd;"
d="M 36.4105,50.0380
36.4183,49.9990
36.4404,49.9659
36.4735,49.9438
36.5125,49.9360
39.6875,49.9360
39.7265,49.9438
39.7596,49.9659
39.7817,49.9990
39.7895,50.0380
39.7895,51.5620
39.7817,51.6010
39.7596,51.6341
39.7265,51.6562
39.6875,51.6640
36.5125,51.6640
36.4735,51.6562
36.4404,51.6341
36.4183,51.6010
36.4105,51.5620
Z" /> 
<path style="fill:#000000; fill-opacity:1.0000; stroke:none;fill-rule:evenodd;"
d="M 36.4105,52.5780
36.4183,52.5390
36.4404,52.5059
36.4735,52.4838
36.5125,52.4760
39.6875,52.4760
39.7265,52.4838
39.7596,52.5059
39.7817,52.5390
39.7895,52.5780
39.7895,54.1020
39.7817,54.1410
39.7596,54.1741
39.7265,54.1962
39.6875,54.2040
36.5125,54.2040
36.4735,54.1962
36.4404,54.1741
36.4183,54.1410
36.4105,54.1020
Z" /> 
<path style="fill:#000000; fill-opacity:1.0000; stroke:none;fill-rule:evenodd;"
d="M 36.4105,55.1180
36.4183,55.0790
36.4404,55.0459
36.4735,55.0238
36.5125,55.0160
39.6875,55.0160
39.7265,55.0238
39.7596,55.0459
39.7817,55.0790
39.7895,55.1180
39.7895,56.6420
39.7817,56.6810
39.7596,56.7141
39.7265,56.7362
39.6875,56.7440
36.5125,56.7440
36.4735,56.7362
36.4404,56.7141
36.4183,56.6810
36.4105,56.6420
Z" /> 
<path style="fill:#000000; fill-opacity:1.0000; stroke:none;fill-rule:evenodd;"
d="M 46.6090,45.4660
44.8310,45.4660
44.8310,43.4340
46.6090,43.4340
Z" /> 
</g>
<g style="fill:#000000; fill-opacity:1.0000; stroke:none;">
<circle cx="48.2600" cy="44.4500" r="1.0160" /> 
</g>
<g style="fill:#000000; fill-opacity:1.0000; stroke:none;">
<circle cx="50.8000" cy="44.4500" r="1.0160" /> 
<path style="fill:#000000; fill-opacity:1.0000; stroke:none;fill-rule:evenodd;"
d="M 8.0210,23.9097
9.7210,23.9097
9.7210,25.6097
8.0210,25.6097
Z" /> 
</g>
<g style="fill:#000000; fill-opacity:1.0000; stroke:none;">
<circle cx="6.3310" cy="24.7597" r="1.0160" /> 
</g>
<g style="fill:#000000; fill-opacity:1.0000; stroke:none;">
<circle cx="3.7910" cy="24.7597" r="1.0160" /> 
<path style="fill:#000000; fill-opacity:1.0000; stroke:none;fill-rule:evenodd;"
d="M 46.6090,49.2760
44.8310,49.2760
44.8310,47.2440
46.6090,47.2440
Z" /> 
</g>
<g style="fill:#000000; fill-opacity:1.0000; stroke:none;">
<circle cx="48.2600" cy="48.2600" r="1.0160" /> 
</g>
<g style="fill:#000000; fill-opacity:1.0000; stroke:none;">
<circle cx="50.8000" cy="48.2600" r="1.0160" /> 
<path style="fill:#000000; fill-opacity:1.0000; stroke:none;fill-rule:evenodd;"
d="M 46.6090,41.6560
44.8310,41.6560
44.8310,39.6240
46.6090,39.6240
Z" /> 
</g>
<g style="fill:#000000; fill-opacity:1.0000; stroke:none;">
<circle cx="48.2600" cy="40.6400" r="1.0160" /> 
</g>
<g style="fill:#000000; fill-opacity:1.0000; stroke:none;">
<circle cx="50.8000" cy="40.6400" r="1.0160" /> 
</g>
<g style="fill:none; 
stroke:#000000; stroke-width:0.0500; stroke-opacity:1; 
stroke-linecap:round; stroke-linejoin:round;">
<circle cx="26.9240" cy="51.4350" r="1.5913" /> 
<path style="fill:none; 
stroke:#000000; stroke-width:0.0500; stroke-opacity:1; 
stroke-linecap:round; stroke-linejoin:round;fill:none"
d="M 0.0000,0.0000
54.9148,0.0000
54.9148,64.0080
0.0000,64.0080
Z" /> 
</g>
<g style="fill:#FFFFFF; fill-opacity:1.0000; stroke:none;">
<circle cx="8.8710" cy="31.7447" r="0.5000" /> 
</g>
<g style="fill:#FFFFFF; fill-opacity:1.0000; stroke:none;">
<circle cx="6.3310" cy="31.7447" r="0.5000" /> 
</g>
<g style="fill:#FFFFFF; fill-opacity:1.0000; stroke:none;">
<circle cx="3.7910" cy="31.7447" r="0.5000" /> 
</g>
<g style="fill:#FFFFFF; fill-opacity:1.0000; stroke:none;">
<circle cx="44.4500" cy="9.0170" r="0.5000" /> 
</g>
<g style="fill:#FFFFFF; fill-opacity:1.0000; stroke:none;">
<circle cx="46.9900" cy="9.0170" r="0.5000" /> 
</g>
<g style="fill:#FFFFFF; fill-opacity:1.0000; stroke:none;">
<circle cx="49.5300" cy="9.0170" r="0.5000" /> 
</g>
<g style="fill:#FFFFFF; fill-opacity:1.0000; stroke:none;">
<circle cx="52.0700" cy="9.0170" r="0.5000" /> 
</g>
<g style="fill:#FFFFFF; fill-opacity:1.0000; stroke:none;">
<circle cx="44.4500" cy="16.5100" r="0.5000" /> 
</g>
<g style="fill:#FFFFFF; fill-opacity:1.0000; stroke:none;">
<circle cx="46.9900" cy="16.5100" r="0.5000" /> 
</g>
<g style="fill:#FFFFFF; fill-opacity:1.0000; stroke:none;">
<circle cx="49.5300" cy="16.5100" r="0.5000" /> 
</g>
<g style="fill:#FFFFFF; fill-opacity:1.0000; stroke:none;">
<circle cx="52.0700" cy="16.5100" r="0.5000" /> 
</g>
<g style="fill:#FFFFFF; fill-opacity:1.0000; stroke:none;">
<circle cx="44.4500" cy="5.3340" r="0.5000" /> 
</g>
<g style="fill:#FFFFFF; fill-opacity:1.0000; stroke:none;">
<circle cx="46.9900" cy="5.3340" r="0.5000" /> 
</g>
<g style="fill:#FFFFFF; fill-opacity:1.0000; stroke:none;">
<circle cx="49.5300" cy="5.3340" r="0.5000" /> 
</g>
<g style="fill:#FFFFFF; fill-opacity:1.0000; stroke:none;">
<circle cx="52.0700" cy="5.3340" r="0.5000" /> 
</g>
<g style="fill:#FFFFFF; fill-opacity:1.0000; stroke:none;">
<circle cx="8.1087" cy="54.0900" r="0.5000" /> 
</g>
<g style="fill:#FFFFFF; fill-opacity:1.0000; stroke:none;">
<circle cx="5.5687" cy="54.0900" r="0.5000" /> 
</g>
<g style="fill:#FFFFFF; fill-opacity:1.0000; stroke:none;">
<circle cx="3.0287" cy="54.0900" r="0.5000" /> 
</g>
<g style="fill:#FFFFFF; fill-opacity:1.0000; stroke:none;">
<circle cx="17.0180" cy="5.2070" r="0.5000" /> 
</g>
<g style="fill:#FFFFFF; fill-opacity:1.0000; stroke:none;">
<circle cx="19.5580" cy="5.2070" r="0.5000" /> 
</g>
<g style="fill:#FFFFFF; fill-opacity:1.0000; stroke:none;">
<circle cx="22.0980" cy="5.2070" r="0.5000" /> 
</g>
<g style="fill:#FFFFFF; fill-opacity:1.0000; stroke:none;">
<circle cx="45.7200" cy="52.0700" r="0.5000" /> 
</g>
<g style="fill:#FFFFFF; fill-opacity:1.0000; stroke:none;">
<circle cx="48.2600" cy="52.0700" r="0.5000" /> 
</g>
<g style="fill:#FFFFFF; fill-opacity:1.0000; stroke:none;">
<circle cx="50.8000" cy="52.0700" r="0.5000" /> 
</g>
<g style="fill:#FFFFFF; fill-opacity:1.0000; stroke:none;">
<circle cx="8.1087" cy="57.6460" r="0.5000" /> 
</g>
<g style="fill:#FFFFFF; fill-opacity:1.0000; stroke:none;">
<circle cx="5.5687" cy="57.6460" r="0.5000" /> 
</g>
<g style="fill:#FFFFFF; fill-opacity:1.0000; stroke:none;">
<circle cx="3.0287" cy="57.6460" r="0.5000" /> 
</g>
<g style="fill:#FFFFFF; fill-opacity:1.0000; stroke:none;">
<circle cx="8.8710" cy="13.9647" r="0.5000" /> 
</g>
<g style="fill:#FFFFFF; fill-opacity:1.0000; stroke:none;">
<circle cx="6.3310" cy="13.9647" r="0.5000" /> 
</g>
<g style="fill:#FFFFFF; fill-opacity:1.0000; stroke:none;">
<circle cx="3.7910" cy="13.9647" r="0.5000" /> 
</g>
<g style="fill:#FFFFFF; fill-opacity:1.0000; stroke:none;">
<circle cx="8.8710" cy="20.9497" r="0.5000" /> 
</g>
<g style="fill:#FFFFFF; fill-opacity:1.0000; stroke:none;">
<circle cx="6.3310" cy="20.9497" r="0.5000" /> 
</g>
<g style="fill:#FFFFFF; fill-opacity:1.0000; stroke:none;">
<circle cx="3.7910" cy="20.9497" r="0.5000" /> 
</g>
<g style="fill:#FFFFFF; fill-opacity:1.0000; stroke:none;">
<circle cx="44.4500" cy="12.7000" r="0.5000" /> 
</g>
<g style="fill:#FFFFFF; fill-opacity:1.0000; stroke:none;">
<circle cx="46.9900" cy="12.7000" r="0.5000" /> 
</g>
<g style="fill:#FFFFFF; fill-opacity:1.0000; stroke:none;">
<circle cx="49.5300" cy="12.7000" r="0.5000" /> 
</g>
<g style="fill:#FFFFFF; fill-opacity:1.0000; stroke:none;">
<circle cx="52.0700" cy="12.7000" r="0.5000" /> 
</g>
<g style="fill:#FFFFFF; fill-opacity:1.0000; stroke:none;">
<circle cx="48.8950" cy="20.3200" r="0.5000" /> 
</g>
<g style="fill:#FFFFFF; fill-opacity:1.0000; stroke:none;">
<circle cx="48.8950" cy="22.8600" r="0.5000" /> 
</g>
<g style="fill:#FFFFFF; fill-opacity:1.0000; stroke:none;">
<circle cx="48.8950" cy="25.4000" r="0.5000" /> 
</g>
<g style="fill:#FFFFFF; fill-opacity:1.0000; stroke:none;">
<circle cx="48.8950" cy="27.9400" r="0.5000" /> 
</g>
<g style="fill:#FFFFFF; fill-opacity:1.0000; stroke:none;">
<circle cx="48.8950" cy="30.4800" r="0.5000" /> 
</g>
<g style="fill:#FFFFFF; fill-opacity:1.0000; stroke:none;">
<circle cx="48.8950" cy="33.0200" r="0.5000" /> 
</g>
<g style="fill:#FFFFFF; fill-opacity:1.0000; stroke:none;">
<circle cx="45.7200" cy="55.8800" r="0.5000" /> 
</g>
<g style="fill:#FFFFFF; fill-opacity:1.0000; stroke:none;">
<circle cx="48.2600" cy="55.8800" r="0.5000" /> 
</g>
<g style="fill:#FFFFFF; fill-opacity:1.0000; stroke:none;">
<circle cx="50.8000" cy="55.8800" r="0.5000" /> 
</g>
<g style="fill:#FFFFFF; fill-opacity:1.0000; stroke:none;">
<circle cx="8.8710" cy="17.7747" r="0.5000" /> 
</g>
<g style="fill:#FFFFFF; fill-opacity:1.0000; stroke:none;">
<circle cx="6.3310" cy="17.7747" r="0.5000" /> 
</g>
<g style="fill:#FFFFFF; fill-opacity:1.0000; stroke:none;">
<circle cx="3.7910" cy="17.7747" r="0.5000" /> 
</g>
<g style="fill:#FFFFFF; fill-opacity:1.0000; stroke:none;">
<circle cx="45.7200" cy="36.8300" r="0.5000" /> 
</g>
<g style="fill:#FFFFFF; fill-opacity:1.0000; stroke:none;">
<circle cx="48.2600" cy="36.8300" r="0.5000" /> 
</g>
<g style="fill:#FFFFFF; fill-opacity:1.0000; stroke:none;">
<circle cx="50.8000" cy="36.8300" r="0.5000" /> 
</g>
<g style="fill:#FFFFFF; fill-opacity:1.0000; stroke:none;">
<circle cx="7.3370" cy="49.7655" r="0.5000" /> 
</g>
<g style="fill:#FFFFFF; fill-opacity:1.0000; stroke:none;">
<circle cx="7.3370" cy="47.2255" r="0.5000" /> 
</g>
<g style="fill:#FFFFFF; fill-opacity:1.0000; stroke:none;">
<circle cx="7.3370" cy="44.6855" r="0.5000" /> 
</g>
<g style="fill:#FFFFFF; fill-opacity:1.0000; stroke:none;">
<circle cx="7.3370" cy="42.1455" r="0.5000" /> 
</g>
<g style="fill:#FFFFFF; fill-opacity:1.0000; stroke:none;">
<circle cx="7.3370" cy="39.6055" r="0.5000" /> 
</g>
<g style="fill:#FFFFFF; fill-opacity:1.0000; stroke:none;">
<circle cx="7.3370" cy="37.0655" r="0.5000" /> 
</g>
<g style="fill:#FFFFFF; fill-opacity:1.0000; stroke:none;">
<circle cx="30.4800" cy="5.0800" r="0.5000" /> 
</g>
<g style="fill:#FFFFFF; fill-opacity:1.0000; stroke:none;">
<circle cx="33.0200" cy="5.0800" r="0.5000" /> 
</g>
<g style="fill:#FFFFFF; fill-opacity:1.0000; stroke:none;">
<circle cx="35.5600" cy="5.0800" r="0.5000" /> 
</g>
<g style="fill:#FFFFFF; fill-opacity:1.0000; stroke:none;">
<circle cx="38.1000" cy="5.0800" r="0.5000" /> 
</g>
<g style="fill:#FFFFFF; fill-opacity:1.0000; stroke:none;">
<circle cx="8.8710" cy="27.9347" r="0.5000" /> 
</g>
<g style="fill:#FFFFFF; fill-opacity:1.0000; stroke:none;">
<circle cx="6.3310" cy="27.9347" r="0.5000" /> 
</g>
<g style="fill:#FFFFFF; fill-opacity:1.0000; stroke:none;">
<circle cx="3.7910" cy="27.9347" r="0.5000" /> 
</g>
<g style="fill:#FFFFFF; fill-opacity:1.0000; stroke:none;">
<circle cx="15.2400" cy="10.1600" r="0.3937" /> 
</g>
<g style="fill:#FFFFFF; fill-opacity:1.0000; stroke:none;">
<circle cx="15.2400" cy="12.7000" r="0.3937" /> 
</g>
<g style="fill:#FFFFFF; fill-opacity:1.0000; stroke:none;">
<circle cx="15.2400" cy="15.2400" r="0.3937" /> 
</g>
<g style="fill:#FFFFFF; fill-opacity:1.0000; stroke:none;">
<circle cx="15.2400" cy="17.7800" r="0.3937" /> 
</g>
<g style="fill:#FFFFFF; fill-opacity:1.0000; stroke:none;">
<circle cx="15.2400" cy="20.3200" r="0.3937" /> 
</g>
<g style="fill:#FFFFFF; fill-opacity:1.0000; stroke:none;">
<circle cx="15.2400" cy="22.8600" r="0.3937" /> 
</g>
<g style="fill:#FFFFFF; fill-opacity:1.0000; stroke:none;">
<circle cx="15.2400" cy="25.4000" r="0.3937" /> 
</g>
<g style="fill:#FFFFFF; fill-opacity:1.0000; stroke:none;">
<circle cx="15.2400" cy="27.9400" r="0.3937" /> 
</g>
<g style="fill:#FFFFFF; fill-opacity:1.0000; stroke:none;">
<circle cx="15.2400" cy="30.4800" r="0.3937" /> 
</g>
<g style="fill:#FFFFFF; fill-opacity:1.0000; stroke:none;">
<circle cx="15.2400" cy="33.0200" r="0.3937" /> 
</g>
<g style="fill:#FFFFFF; fill-opacity:1.0000; stroke:none;">
<circle cx="15.2400" cy="35.5600" r="0.3937" /> 
</g>
<g style="fill:#FFFFFF; fill-opacity:1.0000; stroke:none;">
<circle cx="15.2400" cy="38.1000" r="0.3937" /> 
</g>
<g style="fill:#FFFFFF; fill-opacity:1.0000; stroke:none;">
<circle cx="15.2400" cy="40.6400" r="0.3937" /> 
</g>
<g style="fill:#FFFFFF; fill-opacity:1.0000; stroke:none;">
<circle cx="15.2400" cy="43.1800" r="0.3937" /> 
</g>
<g style="fill:#FFFFFF; fill-opacity:1.0000; stroke:none;">
<circle cx="15.2400" cy="45.7200" r="0.3937" /> 
</g>
<g style="fill:#FFFFFF; fill-opacity:1.0000; stroke:none;">
<circle cx="15.2400" cy="48.2600" r="0.3937" /> 
</g>
<g style="fill:#FFFFFF; fill-opacity:1.0000; stroke:none;">
<circle cx="15.2400" cy="50.8000" r="0.3937" /> 
</g>
<g style="fill:#FFFFFF; fill-opacity:1.0000; stroke:none;">
<circle cx="15.2400" cy="53.3400" r="0.3937" /> 
</g>
<g style="fill:#FFFFFF; fill-opacity:1.0000; stroke:none;">
<circle cx="15.2400" cy="55.8800" r="0.3937" /> 
</g>
<g style="fill:#FFFFFF; fill-opacity:1.0000; stroke:none;">
<circle cx="38.1000" cy="10.1600" r="0.3937" /> 
</g>
<g style="fill:#FFFFFF; fill-opacity:1.0000; stroke:none;">
<circle cx="38.1000" cy="12.7000" r="0.3937" /> 
</g>
<g style="fill:#FFFFFF; fill-opacity:1.0000; stroke:none;">
<circle cx="38.1000" cy="15.2400" r="0.3937" /> 
</g>
<g style="fill:#FFFFFF; fill-opacity:1.0000; stroke:none;">
<circle cx="38.1000" cy="17.7800" r="0.3937" /> 
</g>
<g style="fill:#FFFFFF; fill-opacity:1.0000; stroke:none;">
<circle cx="38.1000" cy="20.3200" r="0.3937" /> 
</g>
<g style="fill:#FFFFFF; fill-opacity:1.0000; stroke:none;">
<circle cx="38.1000" cy="22.8600" r="0.3937" /> 
</g>
<g style="fill:#FFFFFF; fill-opacity:1.0000; stroke:none;">
<circle cx="38.1000" cy="25.4000" r="0.3937" /> 
</g>
<g style="fill:#FFFFFF; fill-opacity:1.0000; stroke:none;">
<circle cx="38.1000" cy="27.9400" r="0.3937" /> 
</g>
<g style="fill:#FFFFFF; fill-opacity:1.0000; stroke:none;">
<circle cx="38.1000" cy="30.4800" r="0.3937" /> 
</g>
<g style="fill:#FFFFFF; fill-opacity:1.0000; stroke:none;">
<circle cx="38.1000" cy="33.0200" r="0.3937" /> 
</g>
<g style="fill:#FFFFFF; fill-opacity:1.0000; stroke:none;">
<circle cx="38.1000" cy="35.5600" r="0.3937" /> 
</g>
<g style="fill:#FFFFFF; fill-opacity:1.0000; stroke:none;">
<circle cx="38.1000" cy="38.1000" r="0.3937" /> 
</g>
<g style="fill:#FFFFFF; fill-opacity:1.0000; stroke:none;">
<circle cx="38.1000" cy="40.6400" r="0.3937" /> 
</g>
<g style="fill:#FFFFFF; fill-opacity:1.0000; stroke:none;">
<circle cx="38.1000" cy="43.1800" r="0.3937" /> 
</g>
<g style="fill:#FFFFFF; fill-opacity:1.0000; stroke:none;">
<circle cx="38.1000" cy="45.7200" r="0.3937" /> 
</g>
<g style="fill:#FFFFFF; fill-opacity:1.0000; stroke:none;">
<circle cx="38.1000" cy="48.2600" r="0.3937" /> 
</g>
<g style="fill:#FFFFFF; fill-opacity:1.0000; stroke:none;">
<circle cx="38.1000" cy="50.8000" r="0.3937" /> 
</g>
<g style="fill:#FFFFFF; fill-opacity:1.0000; stroke:none;">
<circle cx="38.1000" cy="53.3400" r="0.3937" /> 
</g>
<g style="fill:#FFFFFF; fill-opacity:1.0000; stroke:none;">
<circle cx="38.1000" cy="55.8800" r="0.3937" /> 
</g>
<g style="fill:#FFFFFF; fill-opacity:1.0000; stroke:none;">
<circle cx="45.7200" cy="44.4500" r="0.5000" /> 
</g>
<g style="fill:#FFFFFF; fill-opacity:1.0000; stroke:none;">
<circle cx="48.2600" cy="44.4500" r="0.5000" /> 
</g>
<g style="fill:#FFFFFF; fill-opacity:1.0000; stroke:none;">
<circle cx="50.8000" cy="44.4500" r="0.5000" /> 
</g>
<g style="fill:#FFFFFF; fill-opacity:1.0000; stroke:none;">
<circle cx="8.8710" cy="24.7597" r="0.5000" /> 
</g>
<g style="fill:#FFFFFF; fill-opacity:1.0000; stroke:none;">
<circle cx="6.3310" cy="24.7597" r="0.5000" /> 
</g>
<g style="fill:#FFFFFF; fill-opacity:1.0000; stroke:none;">
<circle cx="3.7910" cy="24.7597" r="0.5000" /> 
</g>
<g style="fill:#FFFFFF; fill-opacity:1.0000; stroke:none;">
<circle cx="45.7200" cy="48.2600" r="0.5000" /> 
</g>
<g style="fill:#FFFFFF; fill-opacity:1.0000; stroke:none;">
<circle cx="48.2600" cy="48.2600" r="0.5000" /> 
</g>
<g style="fill:#FFFFFF; fill-opacity:1.0000; stroke:none;">
<circle cx="50.8000" cy="48.2600" r="0.5000" /> 
</g>
<g style="fill:#FFFFFF; fill-opacity:1.0000; stroke:none;">
<circle cx="45.7200" cy="40.6400" r="0.5000" /> 
</g>
<g style="fill:#FFFFFF; fill-opacity:1.0000; stroke:none;">
<circle cx="48.2600" cy="40.6400" r="0.5000" /> 
</g>
<g style="fill:#FFFFFF; fill-opacity:1.0000; stroke:none;">
<circle cx="50.8000" cy="40.6400" r="0.5000" /> 
</g> 
</svg>
