<?xml version="1.0" standalone="no"?>
 <!DOCTYPE svg PUBLIC "-//W3C//DTD SVG 1.1//EN" 
 "http://www.w3.org/Graphics/SVG/1.1/DTD/svg11.dtd"> 
<svg
  xmlns:svg="http://www.w3.org/2000/svg"
  xmlns="http://www.w3.org/2000/svg"
  xmlns:xlink="http://www.w3.org/1999/xlink"
  version="1.1"
  width="54.9148mm" height="64.0080mm" viewBox="0.0000 0.0000 54.9148 64.0080">
<title>SVG Image created as mask-back.svg date 2025/12/14 15:35:44 </title>
  <desc>Image generated by PCBNEW </desc>
<g style="fill:#000000; fill-opacity:1.0000;stroke:#000000; stroke-opacity:1.0000;
stroke-linecap:round; stroke-linejoin:round;"
 transform="translate(0 0) scale(1 1)">
<path style="fill:#000000; fill-opacity:1.0000; stroke:none;fill-rule:evenodd;"
d="M 14.6308,2.6770
16.4088,2.6770
16.4088,0.6450
14.6308,0.6450
Z" /> 
</g>
<g style="fill:#000000; fill-opacity:1.0000; stroke:none;">
<circle cx="12.9798" cy="1.6610" r="1.0160" /> 
</g>
<g style="fill:#000000; fill-opacity:1.0000; stroke:none;">
<circle cx="10.4398" cy="1.6610" r="1.0160" /> 
</g>
<g style="fill:#000000; fill-opacity:1.0000; stroke:none;">
<circle cx="7.8998" cy="1.6610" r="1.0160" /> 
<path style="fill:#000000; fill-opacity:1.0000; stroke:none;fill-rule:evenodd;"
d="M 14.6308,7.7570
16.4088,7.7570
16.4088,5.7250
14.6308,5.7250
Z" /> 
</g>
<g style="fill:#000000; fill-opacity:1.0000; stroke:none;">
<circle cx="12.9798" cy="6.7410" r="1.0160" /> 
</g>
<g style="fill:#000000; fill-opacity:1.0000; stroke:none;">
<circle cx="10.4398" cy="6.7410" r="1.0160" /> 
</g>
<g style="fill:#000000; fill-opacity:1.0000; stroke:none;">
<circle cx="7.8998" cy="6.7410" r="1.0160" /> 
<path style="fill:#000000; fill-opacity:1.0000; stroke:none;fill-rule:evenodd;"
d="M 49.6058,10.7088
49.5977,10.6390
49.5525,10.5365
49.4733,10.4573
49.3708,10.4121
49.3010,10.4040
47.8786,10.4040
47.8088,10.4121
47.7063,10.4573
47.6271,10.5365
47.5819,10.6390
47.5738,10.7088
47.5738,12.1312
47.5819,12.2010
47.6271,12.3035
47.7063,12.3827
47.8088,12.4279
47.8786,12.4360
49.3010,12.4360
49.3708,12.4279
49.4733,12.3827
49.5525,12.3035
49.5977,12.2010
49.6058,12.1312
Z" /> 
</g>
<g style="fill:#000000; fill-opacity:1.0000; stroke:none;">
<circle cx="48.5898" cy="13.9600" r="1.0160" /> 
</g>
<g style="fill:#000000; fill-opacity:1.0000; stroke:none;">
<circle cx="48.5898" cy="16.5000" r="1.0160" /> 
</g>
<g style="fill:#000000; fill-opacity:1.0000; stroke:none;">
<circle cx="48.5898" cy="19.0400" r="1.0160" /> 
</g>
<g style="fill:#000000; fill-opacity:1.0000; stroke:none;">
<circle cx="48.5898" cy="21.5800" r="1.0160" /> 
</g>
<g style="fill:#000000; fill-opacity:1.0000; stroke:none;">
<circle cx="48.5898" cy="24.1200" r="1.0160" /> 
</g>
<g style="fill:#000000; fill-opacity:1.0000; stroke:none;">
<circle cx="48.5898" cy="26.6600" r="1.0160" /> 
</g>
<g style="fill:#000000; fill-opacity:1.0000; stroke:none;">
<circle cx="48.5898" cy="29.2000" r="1.0160" /> 
</g>
<g style="fill:#000000; fill-opacity:1.0000; stroke:none;">
<circle cx="48.5898" cy="31.7400" r="1.0160" /> 
</g>
<g style="fill:#000000; fill-opacity:1.0000; stroke:none;">
<circle cx="48.5898" cy="34.2800" r="1.0160" /> 
</g>
<g style="fill:#000000; fill-opacity:1.0000; stroke:none;">
<circle cx="48.5898" cy="36.8200" r="1.0160" /> 
</g>
<g style="fill:#000000; fill-opacity:1.0000; stroke:none;">
<circle cx="48.5898" cy="39.3600" r="1.0160" /> 
</g>
<g style="fill:#000000; fill-opacity:1.0000; stroke:none;">
<circle cx="48.5898" cy="41.9000" r="1.0160" /> 
</g>
<g style="fill:#000000; fill-opacity:1.0000; stroke:none;">
<circle cx="48.5898" cy="44.4400" r="1.0160" /> 
</g>
<g style="fill:#000000; fill-opacity:1.0000; stroke:none;">
<circle cx="48.5898" cy="46.9800" r="1.0160" /> 
</g>
<g style="fill:#000000; fill-opacity:1.0000; stroke:none;">
<circle cx="48.5898" cy="49.5200" r="1.0160" /> 
</g>
<g style="fill:#000000; fill-opacity:1.0000; stroke:none;">
<circle cx="48.5898" cy="52.0600" r="1.0160" /> 
</g>
<g style="fill:#000000; fill-opacity:1.0000; stroke:none;">
<circle cx="48.5898" cy="54.6000" r="1.0160" /> 
</g>
<g style="fill:#000000; fill-opacity:1.0000; stroke:none;">
<circle cx="48.5898" cy="57.1400" r="1.0160" /> 
<path style="fill:#000000; fill-opacity:1.0000; stroke:none;fill-rule:evenodd;"
d="M 11.5058,10.7088
11.4977,10.6390
11.4525,10.5365
11.3733,10.4573
11.2708,10.4121
11.2010,10.4040
9.7786,10.4040
9.7088,10.4121
9.6063,10.4573
9.5271,10.5365
9.4819,10.6390
9.4738,10.7088
9.4738,12.1312
9.4819,12.2010
9.5271,12.3035
9.6063,12.3827
9.7088,12.4279
9.7786,12.4360
11.2010,12.4360
11.2708,12.4279
11.3733,12.3827
11.4525,12.3035
11.4977,12.2010
11.5058,12.1312
Z" /> 
</g>
<g style="fill:#000000; fill-opacity:1.0000; stroke:none;">
<circle cx="10.4898" cy="13.9600" r="1.0160" /> 
</g>
<g style="fill:#000000; fill-opacity:1.0000; stroke:none;">
<circle cx="10.4898" cy="16.5000" r="1.0160" /> 
</g>
<g style="fill:#000000; fill-opacity:1.0000; stroke:none;">
<circle cx="10.4898" cy="19.0400" r="1.0160" /> 
</g>
<g style="fill:#000000; fill-opacity:1.0000; stroke:none;">
<circle cx="10.4898" cy="21.5800" r="1.0160" /> 
</g>
<g style="fill:#000000; fill-opacity:1.0000; stroke:none;">
<circle cx="10.4898" cy="24.1200" r="1.0160" /> 
</g>
<g style="fill:#000000; fill-opacity:1.0000; stroke:none;">
<circle cx="10.4898" cy="26.6600" r="1.0160" /> 
</g>
<g style="fill:#000000; fill-opacity:1.0000; stroke:none;">
<circle cx="10.4898" cy="29.2000" r="1.0160" /> 
</g>
<g style="fill:#000000; fill-opacity:1.0000; stroke:none;">
<circle cx="10.4898" cy="31.7400" r="1.0160" /> 
</g>
<g style="fill:#000000; fill-opacity:1.0000; stroke:none;">
<circle cx="10.4898" cy="34.2800" r="1.0160" /> 
</g>
<g style="fill:#000000; fill-opacity:1.0000; stroke:none;">
<circle cx="10.4898" cy="36.8200" r="1.0160" /> 
</g>
<g style="fill:#000000; fill-opacity:1.0000; stroke:none;">
<circle cx="10.4898" cy="39.3600" r="1.0160" /> 
</g>
<g style="fill:#000000; fill-opacity:1.0000; stroke:none;">
<circle cx="10.4898" cy="41.9000" r="1.0160" /> 
</g>
<g style="fill:#000000; fill-opacity:1.0000; stroke:none;">
<circle cx="10.4898" cy="44.4400" r="1.0160" /> 
</g>
<g style="fill:#000000; fill-opacity:1.0000; stroke:none;">
<circle cx="10.4898" cy="46.9800" r="1.0160" /> 
</g>
<g style="fill:#000000; fill-opacity:1.0000; stroke:none;">
<circle cx="10.4898" cy="49.5200" r="1.0160" /> 
</g>
<g style="fill:#000000; fill-opacity:1.0000; stroke:none;">
<circle cx="10.4898" cy="52.0600" r="1.0160" /> 
</g>
<g style="fill:#000000; fill-opacity:1.0000; stroke:none;">
<circle cx="10.4898" cy="54.6000" r="1.0160" /> 
</g>
<g style="fill:#000000; fill-opacity:1.0000; stroke:none;">
<circle cx="10.4898" cy="57.1400" r="1.0160" /> 
<path style="fill:#000000; fill-opacity:1.0000; stroke:none;fill-rule:evenodd;"
d="M 8.9408,10.7188
8.9327,10.6490
8.8875,10.5465
8.8083,10.4673
8.7058,10.4221
8.6360,10.4140
7.2136,10.4140
7.1438,10.4221
7.0413,10.4673
6.9621,10.5465
6.9169,10.6490
6.9088,10.7188
6.9088,12.1412
6.9169,12.2110
6.9621,12.3135
7.0413,12.3927
7.1438,12.4379
7.2136,12.4460
8.6360,12.4460
8.7058,12.4379
8.8083,12.3927
8.8875,12.3135
8.9327,12.2110
8.9408,12.1412
Z" /> 
</g>
<g style="fill:#000000; fill-opacity:1.0000; stroke:none;">
<circle cx="7.9248" cy="13.9700" r="1.0160" /> 
</g>
<g style="fill:#000000; fill-opacity:1.0000; stroke:none;">
<circle cx="7.9248" cy="16.5100" r="1.0160" /> 
</g>
<g style="fill:#000000; fill-opacity:1.0000; stroke:none;">
<circle cx="7.9248" cy="19.0500" r="1.0160" /> 
</g>
<g style="fill:#000000; fill-opacity:1.0000; stroke:none;">
<circle cx="7.9248" cy="21.5900" r="1.0160" /> 
</g>
<g style="fill:#000000; fill-opacity:1.0000; stroke:none;">
<circle cx="7.9248" cy="24.1300" r="1.0160" /> 
</g>
<g style="fill:#000000; fill-opacity:1.0000; stroke:none;">
<circle cx="7.9248" cy="26.6700" r="1.0160" /> 
</g>
<g style="fill:#000000; fill-opacity:1.0000; stroke:none;">
<circle cx="7.9248" cy="29.2100" r="1.0160" /> 
</g>
<g style="fill:#000000; fill-opacity:1.0000; stroke:none;">
<circle cx="7.9248" cy="31.7500" r="1.0160" /> 
</g>
<g style="fill:#000000; fill-opacity:1.0000; stroke:none;">
<circle cx="7.9248" cy="34.2900" r="1.0160" /> 
</g>
<g style="fill:#000000; fill-opacity:1.0000; stroke:none;">
<circle cx="7.9248" cy="36.8300" r="1.0160" /> 
</g>
<g style="fill:#000000; fill-opacity:1.0000; stroke:none;">
<circle cx="7.9248" cy="39.3700" r="1.0160" /> 
</g>
<g style="fill:#000000; fill-opacity:1.0000; stroke:none;">
<circle cx="7.9248" cy="41.9100" r="1.0160" /> 
</g>
<g style="fill:#000000; fill-opacity:1.0000; stroke:none;">
<circle cx="7.9248" cy="44.4500" r="1.0160" /> 
</g>
<g style="fill:#000000; fill-opacity:1.0000; stroke:none;">
<circle cx="7.9248" cy="46.9900" r="1.0160" /> 
</g>
<g style="fill:#000000; fill-opacity:1.0000; stroke:none;">
<circle cx="7.9248" cy="49.5300" r="1.0160" /> 
</g>
<g style="fill:#000000; fill-opacity:1.0000; stroke:none;">
<circle cx="7.9248" cy="52.0700" r="1.0160" /> 
</g>
<g style="fill:#000000; fill-opacity:1.0000; stroke:none;">
<circle cx="7.9248" cy="54.6100" r="1.0160" /> 
</g>
<g style="fill:#000000; fill-opacity:1.0000; stroke:none;">
<circle cx="7.9248" cy="57.1500" r="1.0160" /> 
</g>
<g style="fill:#000000; fill-opacity:1.0000; stroke:none;">
<circle cx="13.0548" cy="57.1300" r="1.0160" /> 
</g>
<g style="fill:#000000; fill-opacity:1.0000; stroke:none;">
<circle cx="13.0548" cy="54.5900" r="1.0160" /> 
</g>
<g style="fill:#000000; fill-opacity:1.0000; stroke:none;">
<circle cx="13.0548" cy="52.0500" r="1.0160" /> 
</g>
<g style="fill:#000000; fill-opacity:1.0000; stroke:none;">
<circle cx="13.0548" cy="49.5100" r="1.0160" /> 
</g>
<g style="fill:#000000; fill-opacity:1.0000; stroke:none;">
<circle cx="13.0548" cy="46.9700" r="1.0160" /> 
</g>
<g style="fill:#000000; fill-opacity:1.0000; stroke:none;">
<circle cx="13.0548" cy="44.4300" r="1.0160" /> 
</g>
<g style="fill:#000000; fill-opacity:1.0000; stroke:none;">
<circle cx="13.0548" cy="41.8900" r="1.0160" /> 
</g>
<g style="fill:#000000; fill-opacity:1.0000; stroke:none;">
<circle cx="13.0548" cy="39.3500" r="1.0160" /> 
</g>
<g style="fill:#000000; fill-opacity:1.0000; stroke:none;">
<circle cx="13.0548" cy="36.8100" r="1.0160" /> 
</g>
<g style="fill:#000000; fill-opacity:1.0000; stroke:none;">
<circle cx="13.0548" cy="34.2700" r="1.0160" /> 
</g>
<g style="fill:#000000; fill-opacity:1.0000; stroke:none;">
<circle cx="13.0548" cy="31.7300" r="1.0160" /> 
</g>
<g style="fill:#000000; fill-opacity:1.0000; stroke:none;">
<circle cx="13.0548" cy="29.1900" r="1.0160" /> 
</g>
<g style="fill:#000000; fill-opacity:1.0000; stroke:none;">
<circle cx="13.0548" cy="26.6500" r="1.0160" /> 
</g>
<g style="fill:#000000; fill-opacity:1.0000; stroke:none;">
<circle cx="13.0548" cy="24.1100" r="1.0160" /> 
</g>
<g style="fill:#000000; fill-opacity:1.0000; stroke:none;">
<circle cx="13.0548" cy="21.5700" r="1.0160" /> 
</g>
<g style="fill:#000000; fill-opacity:1.0000; stroke:none;">
<circle cx="13.0548" cy="19.0300" r="1.0160" /> 
</g>
<g style="fill:#000000; fill-opacity:1.0000; stroke:none;">
<circle cx="13.0548" cy="16.4900" r="1.0160" /> 
</g>
<g style="fill:#000000; fill-opacity:1.0000; stroke:none;">
<circle cx="13.0548" cy="13.9500" r="1.0160" /> 
<path style="fill:#000000; fill-opacity:1.0000; stroke:none;fill-rule:evenodd;"
d="M 12.0388,12.1212
12.0469,12.1910
12.0921,12.2935
12.1713,12.3727
12.2738,12.4179
12.3436,12.4260
13.7660,12.4260
13.8358,12.4179
13.9383,12.3727
14.0175,12.2935
14.0627,12.1910
14.0708,12.1212
14.0708,10.6988
14.0627,10.6290
14.0175,10.5265
13.9383,10.4473
13.8358,10.4021
13.7660,10.3940
12.3436,10.3940
12.2738,10.4021
12.1713,10.4473
12.0921,10.5265
12.0469,10.6290
12.0388,10.6988
Z" /> 
<path style="fill:#000000; fill-opacity:1.0000; stroke:none;fill-rule:evenodd;"
d="M 47.0658,10.7088
47.0577,10.6390
47.0125,10.5365
46.9333,10.4573
46.8308,10.4121
46.7610,10.4040
45.3386,10.4040
45.2688,10.4121
45.1663,10.4573
45.0871,10.5365
45.0419,10.6390
45.0338,10.7088
45.0338,12.1312
45.0419,12.2010
45.0871,12.3035
45.1663,12.3827
45.2688,12.4279
45.3386,12.4360
46.7610,12.4360
46.8308,12.4279
46.9333,12.3827
47.0125,12.3035
47.0577,12.2010
47.0658,12.1312
Z" /> 
</g>
<g style="fill:#000000; fill-opacity:1.0000; stroke:none;">
<circle cx="46.0498" cy="13.9600" r="1.0160" /> 
</g>
<g style="fill:#000000; fill-opacity:1.0000; stroke:none;">
<circle cx="46.0498" cy="16.5000" r="1.0160" /> 
</g>
<g style="fill:#000000; fill-opacity:1.0000; stroke:none;">
<circle cx="46.0498" cy="19.0400" r="1.0160" /> 
</g>
<g style="fill:#000000; fill-opacity:1.0000; stroke:none;">
<circle cx="46.0498" cy="21.5800" r="1.0160" /> 
</g>
<g style="fill:#000000; fill-opacity:1.0000; stroke:none;">
<circle cx="46.0498" cy="24.1200" r="1.0160" /> 
</g>
<g style="fill:#000000; fill-opacity:1.0000; stroke:none;">
<circle cx="46.0498" cy="26.6600" r="1.0160" /> 
</g>
<g style="fill:#000000; fill-opacity:1.0000; stroke:none;">
<circle cx="46.0498" cy="29.2000" r="1.0160" /> 
</g>
<g style="fill:#000000; fill-opacity:1.0000; stroke:none;">
<circle cx="46.0498" cy="31.7400" r="1.0160" /> 
</g>
<g style="fill:#000000; fill-opacity:1.0000; stroke:none;">
<circle cx="46.0498" cy="34.2800" r="1.0160" /> 
</g>
<g style="fill:#000000; fill-opacity:1.0000; stroke:none;">
<circle cx="46.0498" cy="36.8200" r="1.0160" /> 
</g>
<g style="fill:#000000; fill-opacity:1.0000; stroke:none;">
<circle cx="46.0498" cy="39.3600" r="1.0160" /> 
</g>
<g style="fill:#000000; fill-opacity:1.0000; stroke:none;">
<circle cx="46.0498" cy="41.9000" r="1.0160" /> 
</g>
<g style="fill:#000000; fill-opacity:1.0000; stroke:none;">
<circle cx="46.0498" cy="44.4400" r="1.0160" /> 
</g>
<g style="fill:#000000; fill-opacity:1.0000; stroke:none;">
<circle cx="46.0498" cy="46.9800" r="1.0160" /> 
</g>
<g style="fill:#000000; fill-opacity:1.0000; stroke:none;">
<circle cx="46.0498" cy="49.5200" r="1.0160" /> 
</g>
<g style="fill:#000000; fill-opacity:1.0000; stroke:none;">
<circle cx="46.0498" cy="52.0600" r="1.0160" /> 
</g>
<g style="fill:#000000; fill-opacity:1.0000; stroke:none;">
<circle cx="46.0498" cy="54.6000" r="1.0160" /> 
</g>
<g style="fill:#000000; fill-opacity:1.0000; stroke:none;">
<circle cx="46.0498" cy="57.1400" r="1.0160" /> 
<path style="fill:#000000; fill-opacity:1.0000; stroke:none;fill-rule:evenodd;"
d="M 14.6308,5.2170
16.4088,5.2170
16.4088,3.1850
14.6308,3.1850
Z" /> 
</g>
<g style="fill:#000000; fill-opacity:1.0000; stroke:none;">
<circle cx="12.9798" cy="4.2010" r="1.0160" /> 
</g>
<g style="fill:#000000; fill-opacity:1.0000; stroke:none;">
<circle cx="10.4398" cy="4.2010" r="1.0160" /> 
</g>
<g style="fill:#000000; fill-opacity:1.0000; stroke:none;">
<circle cx="7.8998" cy="4.2010" r="1.0160" /> 
<path style="fill:#000000; fill-opacity:1.0000; stroke:none;fill-rule:evenodd;"
d="M 41.8338,3.4290
40.0558,3.4290
40.0558,5.4610
41.8338,5.4610
Z" /> 
</g>
<g style="fill:#000000; fill-opacity:1.0000; stroke:none;">
<circle cx="43.4848" cy="4.4450" r="1.0160" /> 
</g>
<g style="fill:#000000; fill-opacity:1.0000; stroke:none;">
<circle cx="46.0248" cy="4.4450" r="1.0160" /> 
</g>
<g style="fill:#000000; fill-opacity:1.0000; stroke:none;">
<circle cx="48.5648" cy="4.4450" r="1.0160" /> 
<path style="fill:#000000; fill-opacity:1.0000; stroke:none;fill-rule:evenodd;"
d="M 41.3893,10.6580
41.3815,10.6190
41.3594,10.5859
41.3263,10.5638
41.2873,10.5560
38.1123,10.5560
38.0733,10.5638
38.0402,10.5859
38.0181,10.6190
38.0103,10.6580
38.0103,12.1820
38.0181,12.2210
38.0402,12.2541
38.0733,12.2762
38.1123,12.2840
41.2873,12.2840
41.3263,12.2762
41.3594,12.2541
41.3815,12.2210
41.3893,12.1820
Z" /> 
<path style="fill:#000000; fill-opacity:1.0000; stroke:none;fill-rule:evenodd;"
d="M 41.3893,13.1980
41.3815,13.1590
41.3594,13.1259
41.3263,13.1038
41.2873,13.0960
38.1123,13.0960
38.0733,13.1038
38.0402,13.1259
38.0181,13.1590
38.0103,13.1980
38.0103,14.7220
38.0181,14.7610
38.0402,14.7941
38.0733,14.8162
38.1123,14.8240
41.2873,14.8240
41.3263,14.8162
41.3594,14.7941
41.3815,14.7610
41.3893,14.7220
Z" /> 
<path style="fill:#000000; fill-opacity:1.0000; stroke:none;fill-rule:evenodd;"
d="M 41.3893,15.7380
41.3815,15.6990
41.3594,15.6659
41.3263,15.6438
41.2873,15.6360
38.1123,15.6360
38.0733,15.6438
38.0402,15.6659
38.0181,15.6990
38.0103,15.7380
38.0103,17.2620
38.0181,17.3010
38.0402,17.3341
38.0733,17.3562
38.1123,17.3640
41.2873,17.3640
41.3263,17.3562
41.3594,17.3341
41.3815,17.3010
41.3893,17.2620
Z" /> 
<path style="fill:#000000; fill-opacity:1.0000; stroke:none;fill-rule:evenodd;"
d="M 41.3893,18.2780
41.3815,18.2390
41.3594,18.2059
41.3263,18.1838
41.2873,18.1760
38.1123,18.1760
38.0733,18.1838
38.0402,18.2059
38.0181,18.2390
38.0103,18.2780
38.0103,19.8020
38.0181,19.8410
38.0402,19.8741
38.0733,19.8962
38.1123,19.9040
41.2873,19.9040
41.3263,19.8962
41.3594,19.8741
41.3815,19.8410
41.3893,19.8020
Z" /> 
<path style="fill:#000000; fill-opacity:1.0000; stroke:none;fill-rule:evenodd;"
d="M 41.3893,20.8180
41.3815,20.7790
41.3594,20.7459
41.3263,20.7238
41.2873,20.7160
38.1123,20.7160
38.0733,20.7238
38.0402,20.7459
38.0181,20.7790
38.0103,20.8180
38.0103,22.3420
38.0181,22.3810
38.0402,22.4141
38.0733,22.4362
38.1123,22.4440
41.2873,22.4440
41.3263,22.4362
41.3594,22.4141
41.3815,22.3810
41.3893,22.3420
Z" /> 
<path style="fill:#000000; fill-opacity:1.0000; stroke:none;fill-rule:evenodd;"
d="M 41.3893,23.3580
41.3815,23.3190
41.3594,23.2859
41.3263,23.2638
41.2873,23.2560
38.1123,23.2560
38.0733,23.2638
38.0402,23.2859
38.0181,23.3190
38.0103,23.3580
38.0103,24.8820
38.0181,24.9210
38.0402,24.9541
38.0733,24.9762
38.1123,24.9840
41.2873,24.9840
41.3263,24.9762
41.3594,24.9541
41.3815,24.9210
41.3893,24.8820
Z" /> 
<path style="fill:#000000; fill-opacity:1.0000; stroke:none;fill-rule:evenodd;"
d="M 41.3893,25.8980
41.3815,25.8590
41.3594,25.8259
41.3263,25.8038
41.2873,25.7960
38.1123,25.7960
38.0733,25.8038
38.0402,25.8259
38.0181,25.8590
38.0103,25.8980
38.0103,27.4220
38.0181,27.4610
38.0402,27.4941
38.0733,27.5162
38.1123,27.5240
41.2873,27.5240
41.3263,27.5162
41.3594,27.4941
41.3815,27.4610
41.3893,27.4220
Z" /> 
<path style="fill:#000000; fill-opacity:1.0000; stroke:none;fill-rule:evenodd;"
d="M 41.3893,28.4380
41.3815,28.3990
41.3594,28.3659
41.3263,28.3438
41.2873,28.3360
38.1123,28.3360
38.0733,28.3438
38.0402,28.3659
38.0181,28.3990
38.0103,28.4380
38.0103,29.9620
38.0181,30.0010
38.0402,30.0341
38.0733,30.0562
38.1123,30.0640
41.2873,30.0640
41.3263,30.0562
41.3594,30.0341
41.3815,30.0010
41.3893,29.9620
Z" /> 
<path style="fill:#000000; fill-opacity:1.0000; stroke:none;fill-rule:evenodd;"
d="M 41.3893,30.9780
41.3815,30.9390
41.3594,30.9059
41.3263,30.8838
41.2873,30.8760
38.1123,30.8760
38.0733,30.8838
38.0402,30.9059
38.0181,30.9390
38.0103,30.9780
38.0103,32.5020
38.0181,32.5410
38.0402,32.5741
38.0733,32.5962
38.1123,32.6040
41.2873,32.6040
41.3263,32.5962
41.3594,32.5741
41.3815,32.5410
41.3893,32.5020
Z" /> 
<path style="fill:#000000; fill-opacity:1.0000; stroke:none;fill-rule:evenodd;"
d="M 41.3893,33.5180
41.3815,33.4790
41.3594,33.4459
41.3263,33.4238
41.2873,33.4160
38.1123,33.4160
38.0733,33.4238
38.0402,33.4459
38.0181,33.4790
38.0103,33.5180
38.0103,35.0420
38.0181,35.0810
38.0402,35.1141
38.0733,35.1362
38.1123,35.1440
41.2873,35.1440
41.3263,35.1362
41.3594,35.1141
41.3815,35.0810
41.3893,35.0420
Z" /> 
<path style="fill:#000000; fill-opacity:1.0000; stroke:none;fill-rule:evenodd;"
d="M 41.3893,36.0580
41.3815,36.0190
41.3594,35.9859
41.3263,35.9638
41.2873,35.9560
38.1123,35.9560
38.0733,35.9638
38.0402,35.9859
38.0181,36.0190
38.0103,36.0580
38.0103,37.5820
38.0181,37.6210
38.0402,37.6541
38.0733,37.6762
38.1123,37.6840
41.2873,37.6840
41.3263,37.6762
41.3594,37.6541
41.3815,37.6210
41.3893,37.5820
Z" /> 
<path style="fill:#000000; fill-opacity:1.0000; stroke:none;fill-rule:evenodd;"
d="M 41.3893,38.5980
41.3815,38.5590
41.3594,38.5259
41.3263,38.5038
41.2873,38.4960
38.1123,38.4960
38.0733,38.5038
38.0402,38.5259
38.0181,38.5590
38.0103,38.5980
38.0103,40.1220
38.0181,40.1610
38.0402,40.1941
38.0733,40.2162
38.1123,40.2240
41.2873,40.2240
41.3263,40.2162
41.3594,40.1941
41.3815,40.1610
41.3893,40.1220
Z" /> 
<path style="fill:#000000; fill-opacity:1.0000; stroke:none;fill-rule:evenodd;"
d="M 41.3893,41.1380
41.3815,41.0990
41.3594,41.0659
41.3263,41.0438
41.2873,41.0360
38.1123,41.0360
38.0733,41.0438
38.0402,41.0659
38.0181,41.0990
38.0103,41.1380
38.0103,42.6620
38.0181,42.7010
38.0402,42.7341
38.0733,42.7562
38.1123,42.7640
41.2873,42.7640
41.3263,42.7562
41.3594,42.7341
41.3815,42.7010
41.3893,42.6620
Z" /> 
<path style="fill:#000000; fill-opacity:1.0000; stroke:none;fill-rule:evenodd;"
d="M 41.3893,43.6780
41.3815,43.6390
41.3594,43.6059
41.3263,43.5838
41.2873,43.5760
38.1123,43.5760
38.0733,43.5838
38.0402,43.6059
38.0181,43.6390
38.0103,43.6780
38.0103,45.2020
38.0181,45.2410
38.0402,45.2741
38.0733,45.2962
38.1123,45.3040
41.2873,45.3040
41.3263,45.2962
41.3594,45.2741
41.3815,45.2410
41.3893,45.2020
Z" /> 
<path style="fill:#000000; fill-opacity:1.0000; stroke:none;fill-rule:evenodd;"
d="M 41.3893,46.2180
41.3815,46.1790
41.3594,46.1459
41.3263,46.1238
41.2873,46.1160
38.1123,46.1160
38.0733,46.1238
38.0402,46.1459
38.0181,46.1790
38.0103,46.2180
38.0103,47.7420
38.0181,47.7810
38.0402,47.8141
38.0733,47.8362
38.1123,47.8440
41.2873,47.8440
41.3263,47.8362
41.3594,47.8141
41.3815,47.7810
41.3893,47.7420
Z" /> 
<path style="fill:#000000; fill-opacity:1.0000; stroke:none;fill-rule:evenodd;"
d="M 41.3893,48.7580
41.3815,48.7190
41.3594,48.6859
41.3263,48.6638
41.2873,48.6560
38.1123,48.6560
38.0733,48.6638
38.0402,48.6859
38.0181,48.7190
38.0103,48.7580
38.0103,50.2820
38.0181,50.3210
38.0402,50.3541
38.0733,50.3762
38.1123,50.3840
41.2873,50.3840
41.3263,50.3762
41.3594,50.3541
41.3815,50.3210
41.3893,50.2820
Z" /> 
<path style="fill:#000000; fill-opacity:1.0000; stroke:none;fill-rule:evenodd;"
d="M 41.3893,51.2980
41.3815,51.2590
41.3594,51.2259
41.3263,51.2038
41.2873,51.1960
38.1123,51.1960
38.0733,51.2038
38.0402,51.2259
38.0181,51.2590
38.0103,51.2980
38.0103,52.8220
38.0181,52.8610
38.0402,52.8941
38.0733,52.9162
38.1123,52.9240
41.2873,52.9240
41.3263,52.9162
41.3594,52.8941
41.3815,52.8610
41.3893,52.8220
Z" /> 
<path style="fill:#000000; fill-opacity:1.0000; stroke:none;fill-rule:evenodd;"
d="M 41.3893,53.8380
41.3815,53.7990
41.3594,53.7659
41.3263,53.7438
41.2873,53.7360
38.1123,53.7360
38.0733,53.7438
38.0402,53.7659
38.0181,53.7990
38.0103,53.8380
38.0103,55.3620
38.0181,55.4010
38.0402,55.4341
38.0733,55.4562
38.1123,55.4640
41.2873,55.4640
41.3263,55.4562
41.3594,55.4341
41.3815,55.4010
41.3893,55.3620
Z" /> 
<path style="fill:#000000; fill-opacity:1.0000; stroke:none;fill-rule:evenodd;"
d="M 41.3893,56.3780
41.3815,56.3390
41.3594,56.3059
41.3263,56.2838
41.2873,56.2760
38.1123,56.2760
38.0733,56.2838
38.0402,56.3059
38.0181,56.3390
38.0103,56.3780
38.0103,57.9020
38.0181,57.9410
38.0402,57.9741
38.0733,57.9962
38.1123,58.0040
41.2873,58.0040
41.3263,57.9962
41.3594,57.9741
41.3815,57.9410
41.3893,57.9020
Z" /> 
<path style="fill:#000000; fill-opacity:1.0000; stroke:none;fill-rule:evenodd;"
d="M 18.5293,10.6580
18.5215,10.6190
18.4994,10.5859
18.4663,10.5638
18.4273,10.5560
15.2523,10.5560
15.2133,10.5638
15.1802,10.5859
15.1581,10.6190
15.1503,10.6580
15.1503,12.1820
15.1581,12.2210
15.1802,12.2541
15.2133,12.2762
15.2523,12.2840
18.4273,12.2840
18.4663,12.2762
18.4994,12.2541
18.5215,12.2210
18.5293,12.1820
Z" /> 
<path style="fill:#000000; fill-opacity:1.0000; stroke:none;fill-rule:evenodd;"
d="M 18.5293,13.1980
18.5215,13.1590
18.4994,13.1259
18.4663,13.1038
18.4273,13.0960
15.2523,13.0960
15.2133,13.1038
15.1802,13.1259
15.1581,13.1590
15.1503,13.1980
15.1503,14.7220
15.1581,14.7610
15.1802,14.7941
15.2133,14.8162
15.2523,14.8240
18.4273,14.8240
18.4663,14.8162
18.4994,14.7941
18.5215,14.7610
18.5293,14.7220
Z" /> 
<path style="fill:#000000; fill-opacity:1.0000; stroke:none;fill-rule:evenodd;"
d="M 18.5293,15.7380
18.5215,15.6990
18.4994,15.6659
18.4663,15.6438
18.4273,15.6360
15.2523,15.6360
15.2133,15.6438
15.1802,15.6659
15.1581,15.6990
15.1503,15.7380
15.1503,17.2620
15.1581,17.3010
15.1802,17.3341
15.2133,17.3562
15.2523,17.3640
18.4273,17.3640
18.4663,17.3562
18.4994,17.3341
18.5215,17.3010
18.5293,17.2620
Z" /> 
<path style="fill:#000000; fill-opacity:1.0000; stroke:none;fill-rule:evenodd;"
d="M 18.5293,18.2780
18.5215,18.2390
18.4994,18.2059
18.4663,18.1838
18.4273,18.1760
15.2523,18.1760
15.2133,18.1838
15.1802,18.2059
15.1581,18.2390
15.1503,18.2780
15.1503,19.8020
15.1581,19.8410
15.1802,19.8741
15.2133,19.8962
15.2523,19.9040
18.4273,19.9040
18.4663,19.8962
18.4994,19.8741
18.5215,19.8410
18.5293,19.8020
Z" /> 
<path style="fill:#000000; fill-opacity:1.0000; stroke:none;fill-rule:evenodd;"
d="M 18.5293,20.8180
18.5215,20.7790
18.4994,20.7459
18.4663,20.7238
18.4273,20.7160
15.2523,20.7160
15.2133,20.7238
15.1802,20.7459
15.1581,20.7790
15.1503,20.8180
15.1503,22.3420
15.1581,22.3810
15.1802,22.4141
15.2133,22.4362
15.2523,22.4440
18.4273,22.4440
18.4663,22.4362
18.4994,22.4141
18.5215,22.3810
18.5293,22.3420
Z" /> 
<path style="fill:#000000; fill-opacity:1.0000; stroke:none;fill-rule:evenodd;"
d="M 18.5293,23.3580
18.5215,23.3190
18.4994,23.2859
18.4663,23.2638
18.4273,23.2560
15.2523,23.2560
15.2133,23.2638
15.1802,23.2859
15.1581,23.3190
15.1503,23.3580
15.1503,24.8820
15.1581,24.9210
15.1802,24.9541
15.2133,24.9762
15.2523,24.9840
18.4273,24.9840
18.4663,24.9762
18.4994,24.9541
18.5215,24.9210
18.5293,24.8820
Z" /> 
<path style="fill:#000000; fill-opacity:1.0000; stroke:none;fill-rule:evenodd;"
d="M 18.5293,25.8980
18.5215,25.8590
18.4994,25.8259
18.4663,25.8038
18.4273,25.7960
15.2523,25.7960
15.2133,25.8038
15.1802,25.8259
15.1581,25.8590
15.1503,25.8980
15.1503,27.4220
15.1581,27.4610
15.1802,27.4941
15.2133,27.5162
15.2523,27.5240
18.4273,27.5240
18.4663,27.5162
18.4994,27.4941
18.5215,27.4610
18.5293,27.4220
Z" /> 
<path style="fill:#000000; fill-opacity:1.0000; stroke:none;fill-rule:evenodd;"
d="M 18.5293,28.4380
18.5215,28.3990
18.4994,28.3659
18.4663,28.3438
18.4273,28.3360
15.2523,28.3360
15.2133,28.3438
15.1802,28.3659
15.1581,28.3990
15.1503,28.4380
15.1503,29.9620
15.1581,30.0010
15.1802,30.0341
15.2133,30.0562
15.2523,30.0640
18.4273,30.0640
18.4663,30.0562
18.4994,30.0341
18.5215,30.0010
18.5293,29.9620
Z" /> 
<path style="fill:#000000; fill-opacity:1.0000; stroke:none;fill-rule:evenodd;"
d="M 18.5293,30.9780
18.5215,30.9390
18.4994,30.9059
18.4663,30.8838
18.4273,30.8760
15.2523,30.8760
15.2133,30.8838
15.1802,30.9059
15.1581,30.9390
15.1503,30.9780
15.1503,32.5020
15.1581,32.5410
15.1802,32.5741
15.2133,32.5962
15.2523,32.6040
18.4273,32.6040
18.4663,32.5962
18.4994,32.5741
18.5215,32.5410
18.5293,32.5020
Z" /> 
<path style="fill:#000000; fill-opacity:1.0000; stroke:none;fill-rule:evenodd;"
d="M 18.5293,33.5180
18.5215,33.4790
18.4994,33.4459
18.4663,33.4238
18.4273,33.4160
15.2523,33.4160
15.2133,33.4238
15.1802,33.4459
15.1581,33.4790
15.1503,33.5180
15.1503,35.0420
15.1581,35.0810
15.1802,35.1141
15.2133,35.1362
15.2523,35.1440
18.4273,35.1440
18.4663,35.1362
18.4994,35.1141
18.5215,35.0810
18.5293,35.0420
Z" /> 
<path style="fill:#000000; fill-opacity:1.0000; stroke:none;fill-rule:evenodd;"
d="M 18.5293,36.0580
18.5215,36.0190
18.4994,35.9859
18.4663,35.9638
18.4273,35.9560
15.2523,35.9560
15.2133,35.9638
15.1802,35.9859
15.1581,36.0190
15.1503,36.0580
15.1503,37.5820
15.1581,37.6210
15.1802,37.6541
15.2133,37.6762
15.2523,37.6840
18.4273,37.6840
18.4663,37.6762
18.4994,37.6541
18.5215,37.6210
18.5293,37.5820
Z" /> 
<path style="fill:#000000; fill-opacity:1.0000; stroke:none;fill-rule:evenodd;"
d="M 18.5293,38.5980
18.5215,38.5590
18.4994,38.5259
18.4663,38.5038
18.4273,38.4960
15.2523,38.4960
15.2133,38.5038
15.1802,38.5259
15.1581,38.5590
15.1503,38.5980
15.1503,40.1220
15.1581,40.1610
15.1802,40.1941
15.2133,40.2162
15.2523,40.2240
18.4273,40.2240
18.4663,40.2162
18.4994,40.1941
18.5215,40.1610
18.5293,40.1220
Z" /> 
<path style="fill:#000000; fill-opacity:1.0000; stroke:none;fill-rule:evenodd;"
d="M 18.5293,41.1380
18.5215,41.0990
18.4994,41.0659
18.4663,41.0438
18.4273,41.0360
15.2523,41.0360
15.2133,41.0438
15.1802,41.0659
15.1581,41.0990
15.1503,41.1380
15.1503,42.6620
15.1581,42.7010
15.1802,42.7341
15.2133,42.7562
15.2523,42.7640
18.4273,42.7640
18.4663,42.7562
18.4994,42.7341
18.5215,42.7010
18.5293,42.6620
Z" /> 
<path style="fill:#000000; fill-opacity:1.0000; stroke:none;fill-rule:evenodd;"
d="M 18.5293,43.6780
18.5215,43.6390
18.4994,43.6059
18.4663,43.5838
18.4273,43.5760
15.2523,43.5760
15.2133,43.5838
15.1802,43.6059
15.1581,43.6390
15.1503,43.6780
15.1503,45.2020
15.1581,45.2410
15.1802,45.2741
15.2133,45.2962
15.2523,45.3040
18.4273,45.3040
18.4663,45.2962
18.4994,45.2741
18.5215,45.2410
18.5293,45.2020
Z" /> 
<path style="fill:#000000; fill-opacity:1.0000; stroke:none;fill-rule:evenodd;"
d="M 18.5293,46.2180
18.5215,46.1790
18.4994,46.1459
18.4663,46.1238
18.4273,46.1160
15.2523,46.1160
15.2133,46.1238
15.1802,46.1459
15.1581,46.1790
15.1503,46.2180
15.1503,47.7420
15.1581,47.7810
15.1802,47.8141
15.2133,47.8362
15.2523,47.8440
18.4273,47.8440
18.4663,47.8362
18.4994,47.8141
18.5215,47.7810
18.5293,47.7420
Z" /> 
<path style="fill:#000000; fill-opacity:1.0000; stroke:none;fill-rule:evenodd;"
d="M 18.5293,48.7580
18.5215,48.7190
18.4994,48.6859
18.4663,48.6638
18.4273,48.6560
15.2523,48.6560
15.2133,48.6638
15.1802,48.6859
15.1581,48.7190
15.1503,48.7580
15.1503,50.2820
15.1581,50.3210
15.1802,50.3541
15.2133,50.3762
15.2523,50.3840
18.4273,50.3840
18.4663,50.3762
18.4994,50.3541
18.5215,50.3210
18.5293,50.2820
Z" /> 
<path style="fill:#000000; fill-opacity:1.0000; stroke:none;fill-rule:evenodd;"
d="M 18.5293,51.2980
18.5215,51.2590
18.4994,51.2259
18.4663,51.2038
18.4273,51.1960
15.2523,51.1960
15.2133,51.2038
15.1802,51.2259
15.1581,51.2590
15.1503,51.2980
15.1503,52.8220
15.1581,52.8610
15.1802,52.8941
15.2133,52.9162
15.2523,52.9240
18.4273,52.9240
18.4663,52.9162
18.4994,52.8941
18.5215,52.8610
18.5293,52.8220
Z" /> 
<path style="fill:#000000; fill-opacity:1.0000; stroke:none;fill-rule:evenodd;"
d="M 18.5293,53.8380
18.5215,53.7990
18.4994,53.7659
18.4663,53.7438
18.4273,53.7360
15.2523,53.7360
15.2133,53.7438
15.1802,53.7659
15.1581,53.7990
15.1503,53.8380
15.1503,55.3620
15.1581,55.4010
15.1802,55.4341
15.2133,55.4562
15.2523,55.4640
18.4273,55.4640
18.4663,55.4562
18.4994,55.4341
18.5215,55.4010
18.5293,55.3620
Z" /> 
<path style="fill:#000000; fill-opacity:1.0000; stroke:none;fill-rule:evenodd;"
d="M 18.5293,56.3780
18.5215,56.3390
18.4994,56.3059
18.4663,56.2838
18.4273,56.2760
15.2523,56.2760
15.2133,56.2838
15.1802,56.3059
15.1581,56.3390
15.1503,56.3780
15.1503,57.9020
15.1581,57.9410
15.1802,57.9741
15.2133,57.9962
15.2523,58.0040
18.4273,58.0040
18.4663,57.9962
18.4994,57.9741
18.5215,57.9410
18.5293,57.9020
Z" /> 
<path style="fill:#000000; fill-opacity:1.0000; stroke:none;fill-rule:evenodd;"
d="M 44.5008,10.7188
44.4927,10.6490
44.4475,10.5465
44.3683,10.4673
44.2658,10.4221
44.1960,10.4140
42.7736,10.4140
42.7038,10.4221
42.6013,10.4673
42.5221,10.5465
42.4769,10.6490
42.4688,10.7188
42.4688,12.1412
42.4769,12.2110
42.5221,12.3135
42.6013,12.3927
42.7038,12.4379
42.7736,12.4460
44.1960,12.4460
44.2658,12.4379
44.3683,12.3927
44.4475,12.3135
44.4927,12.2110
44.5008,12.1412
Z" /> 
</g>
<g style="fill:#000000; fill-opacity:1.0000; stroke:none;">
<circle cx="43.4848" cy="13.9700" r="1.0160" /> 
</g>
<g style="fill:#000000; fill-opacity:1.0000; stroke:none;">
<circle cx="43.4848" cy="16.5100" r="1.0160" /> 
</g>
<g style="fill:#000000; fill-opacity:1.0000; stroke:none;">
<circle cx="43.4848" cy="19.0500" r="1.0160" /> 
</g>
<g style="fill:#000000; fill-opacity:1.0000; stroke:none;">
<circle cx="43.4848" cy="21.5900" r="1.0160" /> 
</g>
<g style="fill:#000000; fill-opacity:1.0000; stroke:none;">
<circle cx="43.4848" cy="24.1300" r="1.0160" /> 
</g>
<g style="fill:#000000; fill-opacity:1.0000; stroke:none;">
<circle cx="43.4848" cy="26.6700" r="1.0160" /> 
</g>
<g style="fill:#000000; fill-opacity:1.0000; stroke:none;">
<circle cx="43.4848" cy="29.2100" r="1.0160" /> 
</g>
<g style="fill:#000000; fill-opacity:1.0000; stroke:none;">
<circle cx="43.4848" cy="31.7500" r="1.0160" /> 
</g>
<g style="fill:#000000; fill-opacity:1.0000; stroke:none;">
<circle cx="43.4848" cy="34.2900" r="1.0160" /> 
</g>
<g style="fill:#000000; fill-opacity:1.0000; stroke:none;">
<circle cx="43.4848" cy="36.8300" r="1.0160" /> 
</g>
<g style="fill:#000000; fill-opacity:1.0000; stroke:none;">
<circle cx="43.4848" cy="39.3700" r="1.0160" /> 
</g>
<g style="fill:#000000; fill-opacity:1.0000; stroke:none;">
<circle cx="43.4848" cy="41.9100" r="1.0160" /> 
</g>
<g style="fill:#000000; fill-opacity:1.0000; stroke:none;">
<circle cx="43.4848" cy="44.4500" r="1.0160" /> 
</g>
<g style="fill:#000000; fill-opacity:1.0000; stroke:none;">
<circle cx="43.4848" cy="46.9900" r="1.0160" /> 
</g>
<g style="fill:#000000; fill-opacity:1.0000; stroke:none;">
<circle cx="43.4848" cy="49.5300" r="1.0160" /> 
</g>
<g style="fill:#000000; fill-opacity:1.0000; stroke:none;">
<circle cx="43.4848" cy="52.0700" r="1.0160" /> 
</g>
<g style="fill:#000000; fill-opacity:1.0000; stroke:none;">
<circle cx="43.4848" cy="54.6100" r="1.0160" /> 
</g>
<g style="fill:#000000; fill-opacity:1.0000; stroke:none;">
<circle cx="43.4848" cy="57.1500" r="1.0160" /> 
</g>
<g style="fill:none; 
stroke:#000000; stroke-width:0.0500; stroke-opacity:1; 
stroke-linecap:round; stroke-linejoin:round;">
<circle cx="2.8448" cy="61.5950" r="1.5913" /> 
<circle cx="2.8448" cy="2.5400" r="1.5913" /> 
<circle cx="52.3748" cy="2.5400" r="1.5913" /> 
<circle cx="52.3748" cy="61.5950" r="1.5913" /> 
<path style="fill:none; 
stroke:#000000; stroke-width:0.0500; stroke-opacity:1; 
stroke-linecap:round; stroke-linejoin:round;fill:none"
d="M 54.9148,0.0000
0.0000,0.0000
0.0000,64.0080
54.9148,64.0080
Z" /> 
</g>
<g style="fill:#FFFFFF; fill-opacity:1.0000; stroke:none;">
<circle cx="15.5198" cy="1.6610" r="0.5000" /> 
</g>
<g style="fill:#FFFFFF; fill-opacity:1.0000; stroke:none;">
<circle cx="12.9798" cy="1.6610" r="0.5000" /> 
</g>
<g style="fill:#FFFFFF; fill-opacity:1.0000; stroke:none;">
<circle cx="10.4398" cy="1.6610" r="0.5000" /> 
</g>
<g style="fill:#FFFFFF; fill-opacity:1.0000; stroke:none;">
<circle cx="7.8998" cy="1.6610" r="0.5000" /> 
</g>
<g style="fill:#FFFFFF; fill-opacity:1.0000; stroke:none;">
<circle cx="15.5198" cy="6.7410" r="0.5000" /> 
</g>
<g style="fill:#FFFFFF; fill-opacity:1.0000; stroke:none;">
<circle cx="12.9798" cy="6.7410" r="0.5000" /> 
</g>
<g style="fill:#FFFFFF; fill-opacity:1.0000; stroke:none;">
<circle cx="10.4398" cy="6.7410" r="0.5000" /> 
</g>
<g style="fill:#FFFFFF; fill-opacity:1.0000; stroke:none;">
<circle cx="7.8998" cy="6.7410" r="0.5000" /> 
</g>
<g style="fill:#FFFFFF; fill-opacity:1.0000; stroke:none;">
<circle cx="48.5898" cy="11.4200" r="0.5000" /> 
</g>
<g style="fill:#FFFFFF; fill-opacity:1.0000; stroke:none;">
<circle cx="48.5898" cy="13.9600" r="0.5000" /> 
</g>
<g style="fill:#FFFFFF; fill-opacity:1.0000; stroke:none;">
<circle cx="48.5898" cy="16.5000" r="0.5000" /> 
</g>
<g style="fill:#FFFFFF; fill-opacity:1.0000; stroke:none;">
<circle cx="48.5898" cy="19.0400" r="0.5000" /> 
</g>
<g style="fill:#FFFFFF; fill-opacity:1.0000; stroke:none;">
<circle cx="48.5898" cy="21.5800" r="0.5000" /> 
</g>
<g style="fill:#FFFFFF; fill-opacity:1.0000; stroke:none;">
<circle cx="48.5898" cy="24.1200" r="0.5000" /> 
</g>
<g style="fill:#FFFFFF; fill-opacity:1.0000; stroke:none;">
<circle cx="48.5898" cy="26.6600" r="0.5000" /> 
</g>
<g style="fill:#FFFFFF; fill-opacity:1.0000; stroke:none;">
<circle cx="48.5898" cy="29.2000" r="0.5000" /> 
</g>
<g style="fill:#FFFFFF; fill-opacity:1.0000; stroke:none;">
<circle cx="48.5898" cy="31.7400" r="0.5000" /> 
</g>
<g style="fill:#FFFFFF; fill-opacity:1.0000; stroke:none;">
<circle cx="48.5898" cy="34.2800" r="0.5000" /> 
</g>
<g style="fill:#FFFFFF; fill-opacity:1.0000; stroke:none;">
<circle cx="48.5898" cy="36.8200" r="0.5000" /> 
</g>
<g style="fill:#FFFFFF; fill-opacity:1.0000; stroke:none;">
<circle cx="48.5898" cy="39.3600" r="0.5000" /> 
</g>
<g style="fill:#FFFFFF; fill-opacity:1.0000; stroke:none;">
<circle cx="48.5898" cy="41.9000" r="0.5000" /> 
</g>
<g style="fill:#FFFFFF; fill-opacity:1.0000; stroke:none;">
<circle cx="48.5898" cy="44.4400" r="0.5000" /> 
</g>
<g style="fill:#FFFFFF; fill-opacity:1.0000; stroke:none;">
<circle cx="48.5898" cy="46.9800" r="0.5000" /> 
</g>
<g style="fill:#FFFFFF; fill-opacity:1.0000; stroke:none;">
<circle cx="48.5898" cy="49.5200" r="0.5000" /> 
</g>
<g style="fill:#FFFFFF; fill-opacity:1.0000; stroke:none;">
<circle cx="48.5898" cy="52.0600" r="0.5000" /> 
</g>
<g style="fill:#FFFFFF; fill-opacity:1.0000; stroke:none;">
<circle cx="48.5898" cy="54.6000" r="0.5000" /> 
</g>
<g style="fill:#FFFFFF; fill-opacity:1.0000; stroke:none;">
<circle cx="48.5898" cy="57.1400" r="0.5000" /> 
</g>
<g style="fill:#FFFFFF; fill-opacity:1.0000; stroke:none;">
<circle cx="10.4898" cy="11.4200" r="0.5000" /> 
</g>
<g style="fill:#FFFFFF; fill-opacity:1.0000; stroke:none;">
<circle cx="10.4898" cy="13.9600" r="0.5000" /> 
</g>
<g style="fill:#FFFFFF; fill-opacity:1.0000; stroke:none;">
<circle cx="10.4898" cy="16.5000" r="0.5000" /> 
</g>
<g style="fill:#FFFFFF; fill-opacity:1.0000; stroke:none;">
<circle cx="10.4898" cy="19.0400" r="0.5000" /> 
</g>
<g style="fill:#FFFFFF; fill-opacity:1.0000; stroke:none;">
<circle cx="10.4898" cy="21.5800" r="0.5000" /> 
</g>
<g style="fill:#FFFFFF; fill-opacity:1.0000; stroke:none;">
<circle cx="10.4898" cy="24.1200" r="0.5000" /> 
</g>
<g style="fill:#FFFFFF; fill-opacity:1.0000; stroke:none;">
<circle cx="10.4898" cy="26.6600" r="0.5000" /> 
</g>
<g style="fill:#FFFFFF; fill-opacity:1.0000; stroke:none;">
<circle cx="10.4898" cy="29.2000" r="0.5000" /> 
</g>
<g style="fill:#FFFFFF; fill-opacity:1.0000; stroke:none;">
<circle cx="10.4898" cy="31.7400" r="0.5000" /> 
</g>
<g style="fill:#FFFFFF; fill-opacity:1.0000; stroke:none;">
<circle cx="10.4898" cy="34.2800" r="0.5000" /> 
</g>
<g style="fill:#FFFFFF; fill-opacity:1.0000; stroke:none;">
<circle cx="10.4898" cy="36.8200" r="0.5000" /> 
</g>
<g style="fill:#FFFFFF; fill-opacity:1.0000; stroke:none;">
<circle cx="10.4898" cy="39.3600" r="0.5000" /> 
</g>
<g style="fill:#FFFFFF; fill-opacity:1.0000; stroke:none;">
<circle cx="10.4898" cy="41.9000" r="0.5000" /> 
</g>
<g style="fill:#FFFFFF; fill-opacity:1.0000; stroke:none;">
<circle cx="10.4898" cy="44.4400" r="0.5000" /> 
</g>
<g style="fill:#FFFFFF; fill-opacity:1.0000; stroke:none;">
<circle cx="10.4898" cy="46.9800" r="0.5000" /> 
</g>
<g style="fill:#FFFFFF; fill-opacity:1.0000; stroke:none;">
<circle cx="10.4898" cy="49.5200" r="0.5000" /> 
</g>
<g style="fill:#FFFFFF; fill-opacity:1.0000; stroke:none;">
<circle cx="10.4898" cy="52.0600" r="0.5000" /> 
</g>
<g style="fill:#FFFFFF; fill-opacity:1.0000; stroke:none;">
<circle cx="10.4898" cy="54.6000" r="0.5000" /> 
</g>
<g style="fill:#FFFFFF; fill-opacity:1.0000; stroke:none;">
<circle cx="10.4898" cy="57.1400" r="0.5000" /> 
</g>
<g style="fill:#FFFFFF; fill-opacity:1.0000; stroke:none;">
<circle cx="7.9248" cy="11.4300" r="0.5000" /> 
</g>
<g style="fill:#FFFFFF; fill-opacity:1.0000; stroke:none;">
<circle cx="7.9248" cy="13.9700" r="0.5000" /> 
</g>
<g style="fill:#FFFFFF; fill-opacity:1.0000; stroke:none;">
<circle cx="7.9248" cy="16.5100" r="0.5000" /> 
</g>
<g style="fill:#FFFFFF; fill-opacity:1.0000; stroke:none;">
<circle cx="7.9248" cy="19.0500" r="0.5000" /> 
</g>
<g style="fill:#FFFFFF; fill-opacity:1.0000; stroke:none;">
<circle cx="7.9248" cy="21.5900" r="0.5000" /> 
</g>
<g style="fill:#FFFFFF; fill-opacity:1.0000; stroke:none;">
<circle cx="7.9248" cy="24.1300" r="0.5000" /> 
</g>
<g style="fill:#FFFFFF; fill-opacity:1.0000; stroke:none;">
<circle cx="7.9248" cy="26.6700" r="0.5000" /> 
</g>
<g style="fill:#FFFFFF; fill-opacity:1.0000; stroke:none;">
<circle cx="7.9248" cy="29.2100" r="0.5000" /> 
</g>
<g style="fill:#FFFFFF; fill-opacity:1.0000; stroke:none;">
<circle cx="7.9248" cy="31.7500" r="0.5000" /> 
</g>
<g style="fill:#FFFFFF; fill-opacity:1.0000; stroke:none;">
<circle cx="7.9248" cy="34.2900" r="0.5000" /> 
</g>
<g style="fill:#FFFFFF; fill-opacity:1.0000; stroke:none;">
<circle cx="7.9248" cy="36.8300" r="0.5000" /> 
</g>
<g style="fill:#FFFFFF; fill-opacity:1.0000; stroke:none;">
<circle cx="7.9248" cy="39.3700" r="0.5000" /> 
</g>
<g style="fill:#FFFFFF; fill-opacity:1.0000; stroke:none;">
<circle cx="7.9248" cy="41.9100" r="0.5000" /> 
</g>
<g style="fill:#FFFFFF; fill-opacity:1.0000; stroke:none;">
<circle cx="7.9248" cy="44.4500" r="0.5000" /> 
</g>
<g style="fill:#FFFFFF; fill-opacity:1.0000; stroke:none;">
<circle cx="7.9248" cy="46.9900" r="0.5000" /> 
</g>
<g style="fill:#FFFFFF; fill-opacity:1.0000; stroke:none;">
<circle cx="7.9248" cy="49.5300" r="0.5000" /> 
</g>
<g style="fill:#FFFFFF; fill-opacity:1.0000; stroke:none;">
<circle cx="7.9248" cy="52.0700" r="0.5000" /> 
</g>
<g style="fill:#FFFFFF; fill-opacity:1.0000; stroke:none;">
<circle cx="7.9248" cy="54.6100" r="0.5000" /> 
</g>
<g style="fill:#FFFFFF; fill-opacity:1.0000; stroke:none;">
<circle cx="7.9248" cy="57.1500" r="0.5000" /> 
</g>
<g style="fill:#FFFFFF; fill-opacity:1.0000; stroke:none;">
<circle cx="13.0548" cy="57.1300" r="0.5000" /> 
</g>
<g style="fill:#FFFFFF; fill-opacity:1.0000; stroke:none;">
<circle cx="13.0548" cy="54.5900" r="0.5000" /> 
</g>
<g style="fill:#FFFFFF; fill-opacity:1.0000; stroke:none;">
<circle cx="13.0548" cy="52.0500" r="0.5000" /> 
</g>
<g style="fill:#FFFFFF; fill-opacity:1.0000; stroke:none;">
<circle cx="13.0548" cy="49.5100" r="0.5000" /> 
</g>
<g style="fill:#FFFFFF; fill-opacity:1.0000; stroke:none;">
<circle cx="13.0548" cy="46.9700" r="0.5000" /> 
</g>
<g style="fill:#FFFFFF; fill-opacity:1.0000; stroke:none;">
<circle cx="13.0548" cy="44.4300" r="0.5000" /> 
</g>
<g style="fill:#FFFFFF; fill-opacity:1.0000; stroke:none;">
<circle cx="13.0548" cy="41.8900" r="0.5000" /> 
</g>
<g style="fill:#FFFFFF; fill-opacity:1.0000; stroke:none;">
<circle cx="13.0548" cy="39.3500" r="0.5000" /> 
</g>
<g style="fill:#FFFFFF; fill-opacity:1.0000; stroke:none;">
<circle cx="13.0548" cy="36.8100" r="0.5000" /> 
</g>
<g style="fill:#FFFFFF; fill-opacity:1.0000; stroke:none;">
<circle cx="13.0548" cy="34.2700" r="0.5000" /> 
</g>
<g style="fill:#FFFFFF; fill-opacity:1.0000; stroke:none;">
<circle cx="13.0548" cy="31.7300" r="0.5000" /> 
</g>
<g style="fill:#FFFFFF; fill-opacity:1.0000; stroke:none;">
<circle cx="13.0548" cy="29.1900" r="0.5000" /> 
</g>
<g style="fill:#FFFFFF; fill-opacity:1.0000; stroke:none;">
<circle cx="13.0548" cy="26.6500" r="0.5000" /> 
</g>
<g style="fill:#FFFFFF; fill-opacity:1.0000; stroke:none;">
<circle cx="13.0548" cy="24.1100" r="0.5000" /> 
</g>
<g style="fill:#FFFFFF; fill-opacity:1.0000; stroke:none;">
<circle cx="13.0548" cy="21.5700" r="0.5000" /> 
</g>
<g style="fill:#FFFFFF; fill-opacity:1.0000; stroke:none;">
<circle cx="13.0548" cy="19.0300" r="0.5000" /> 
</g>
<g style="fill:#FFFFFF; fill-opacity:1.0000; stroke:none;">
<circle cx="13.0548" cy="16.4900" r="0.5000" /> 
</g>
<g style="fill:#FFFFFF; fill-opacity:1.0000; stroke:none;">
<circle cx="13.0548" cy="13.9500" r="0.5000" /> 
</g>
<g style="fill:#FFFFFF; fill-opacity:1.0000; stroke:none;">
<circle cx="13.0548" cy="11.4100" r="0.5000" /> 
</g>
<g style="fill:#FFFFFF; fill-opacity:1.0000; stroke:none;">
<circle cx="46.0498" cy="11.4200" r="0.5000" /> 
</g>
<g style="fill:#FFFFFF; fill-opacity:1.0000; stroke:none;">
<circle cx="46.0498" cy="13.9600" r="0.5000" /> 
</g>
<g style="fill:#FFFFFF; fill-opacity:1.0000; stroke:none;">
<circle cx="46.0498" cy="16.5000" r="0.5000" /> 
</g>
<g style="fill:#FFFFFF; fill-opacity:1.0000; stroke:none;">
<circle cx="46.0498" cy="19.0400" r="0.5000" /> 
</g>
<g style="fill:#FFFFFF; fill-opacity:1.0000; stroke:none;">
<circle cx="46.0498" cy="21.5800" r="0.5000" /> 
</g>
<g style="fill:#FFFFFF; fill-opacity:1.0000; stroke:none;">
<circle cx="46.0498" cy="24.1200" r="0.5000" /> 
</g>
<g style="fill:#FFFFFF; fill-opacity:1.0000; stroke:none;">
<circle cx="46.0498" cy="26.6600" r="0.5000" /> 
</g>
<g style="fill:#FFFFFF; fill-opacity:1.0000; stroke:none;">
<circle cx="46.0498" cy="29.2000" r="0.5000" /> 
</g>
<g style="fill:#FFFFFF; fill-opacity:1.0000; stroke:none;">
<circle cx="46.0498" cy="31.7400" r="0.5000" /> 
</g>
<g style="fill:#FFFFFF; fill-opacity:1.0000; stroke:none;">
<circle cx="46.0498" cy="34.2800" r="0.5000" /> 
</g>
<g style="fill:#FFFFFF; fill-opacity:1.0000; stroke:none;">
<circle cx="46.0498" cy="36.8200" r="0.5000" /> 
</g>
<g style="fill:#FFFFFF; fill-opacity:1.0000; stroke:none;">
<circle cx="46.0498" cy="39.3600" r="0.5000" /> 
</g>
<g style="fill:#FFFFFF; fill-opacity:1.0000; stroke:none;">
<circle cx="46.0498" cy="41.9000" r="0.5000" /> 
</g>
<g style="fill:#FFFFFF; fill-opacity:1.0000; stroke:none;">
<circle cx="46.0498" cy="44.4400" r="0.5000" /> 
</g>
<g style="fill:#FFFFFF; fill-opacity:1.0000; stroke:none;">
<circle cx="46.0498" cy="46.9800" r="0.5000" /> 
</g>
<g style="fill:#FFFFFF; fill-opacity:1.0000; stroke:none;">
<circle cx="46.0498" cy="49.5200" r="0.5000" /> 
</g>
<g style="fill:#FFFFFF; fill-opacity:1.0000; stroke:none;">
<circle cx="46.0498" cy="52.0600" r="0.5000" /> 
</g>
<g style="fill:#FFFFFF; fill-opacity:1.0000; stroke:none;">
<circle cx="46.0498" cy="54.6000" r="0.5000" /> 
</g>
<g style="fill:#FFFFFF; fill-opacity:1.0000; stroke:none;">
<circle cx="46.0498" cy="57.1400" r="0.5000" /> 
</g>
<g style="fill:#FFFFFF; fill-opacity:1.0000; stroke:none;">
<circle cx="15.5198" cy="4.2010" r="0.5000" /> 
</g>
<g style="fill:#FFFFFF; fill-opacity:1.0000; stroke:none;">
<circle cx="12.9798" cy="4.2010" r="0.5000" /> 
</g>
<g style="fill:#FFFFFF; fill-opacity:1.0000; stroke:none;">
<circle cx="10.4398" cy="4.2010" r="0.5000" /> 
</g>
<g style="fill:#FFFFFF; fill-opacity:1.0000; stroke:none;">
<circle cx="7.8998" cy="4.2010" r="0.5000" /> 
</g>
<g style="fill:#FFFFFF; fill-opacity:1.0000; stroke:none;">
<circle cx="40.9448" cy="4.4450" r="0.5000" /> 
</g>
<g style="fill:#FFFFFF; fill-opacity:1.0000; stroke:none;">
<circle cx="43.4848" cy="4.4450" r="0.5000" /> 
</g>
<g style="fill:#FFFFFF; fill-opacity:1.0000; stroke:none;">
<circle cx="46.0248" cy="4.4450" r="0.5000" /> 
</g>
<g style="fill:#FFFFFF; fill-opacity:1.0000; stroke:none;">
<circle cx="48.5648" cy="4.4450" r="0.5000" /> 
</g>
<g style="fill:#FFFFFF; fill-opacity:1.0000; stroke:none;">
<circle cx="39.6998" cy="11.4200" r="0.3937" /> 
</g>
<g style="fill:#FFFFFF; fill-opacity:1.0000; stroke:none;">
<circle cx="39.6998" cy="13.9600" r="0.3937" /> 
</g>
<g style="fill:#FFFFFF; fill-opacity:1.0000; stroke:none;">
<circle cx="39.6998" cy="16.5000" r="0.3937" /> 
</g>
<g style="fill:#FFFFFF; fill-opacity:1.0000; stroke:none;">
<circle cx="39.6998" cy="19.0400" r="0.3937" /> 
</g>
<g style="fill:#FFFFFF; fill-opacity:1.0000; stroke:none;">
<circle cx="39.6998" cy="21.5800" r="0.3937" /> 
</g>
<g style="fill:#FFFFFF; fill-opacity:1.0000; stroke:none;">
<circle cx="39.6998" cy="24.1200" r="0.3937" /> 
</g>
<g style="fill:#FFFFFF; fill-opacity:1.0000; stroke:none;">
<circle cx="39.6998" cy="26.6600" r="0.3937" /> 
</g>
<g style="fill:#FFFFFF; fill-opacity:1.0000; stroke:none;">
<circle cx="39.6998" cy="29.2000" r="0.3937" /> 
</g>
<g style="fill:#FFFFFF; fill-opacity:1.0000; stroke:none;">
<circle cx="39.6998" cy="31.7400" r="0.3937" /> 
</g>
<g style="fill:#FFFFFF; fill-opacity:1.0000; stroke:none;">
<circle cx="39.6998" cy="34.2800" r="0.3937" /> 
</g>
<g style="fill:#FFFFFF; fill-opacity:1.0000; stroke:none;">
<circle cx="39.6998" cy="36.8200" r="0.3937" /> 
</g>
<g style="fill:#FFFFFF; fill-opacity:1.0000; stroke:none;">
<circle cx="39.6998" cy="39.3600" r="0.3937" /> 
</g>
<g style="fill:#FFFFFF; fill-opacity:1.0000; stroke:none;">
<circle cx="39.6998" cy="41.9000" r="0.3937" /> 
</g>
<g style="fill:#FFFFFF; fill-opacity:1.0000; stroke:none;">
<circle cx="39.6998" cy="44.4400" r="0.3937" /> 
</g>
<g style="fill:#FFFFFF; fill-opacity:1.0000; stroke:none;">
<circle cx="39.6998" cy="46.9800" r="0.3937" /> 
</g>
<g style="fill:#FFFFFF; fill-opacity:1.0000; stroke:none;">
<circle cx="39.6998" cy="49.5200" r="0.3937" /> 
</g>
<g style="fill:#FFFFFF; fill-opacity:1.0000; stroke:none;">
<circle cx="39.6998" cy="52.0600" r="0.3937" /> 
</g>
<g style="fill:#FFFFFF; fill-opacity:1.0000; stroke:none;">
<circle cx="39.6998" cy="54.6000" r="0.3937" /> 
</g>
<g style="fill:#FFFFFF; fill-opacity:1.0000; stroke:none;">
<circle cx="39.6998" cy="57.1400" r="0.3937" /> 
</g>
<g style="fill:#FFFFFF; fill-opacity:1.0000; stroke:none;">
<circle cx="16.8398" cy="11.4200" r="0.3937" /> 
</g>
<g style="fill:#FFFFFF; fill-opacity:1.0000; stroke:none;">
<circle cx="16.8398" cy="13.9600" r="0.3937" /> 
</g>
<g style="fill:#FFFFFF; fill-opacity:1.0000; stroke:none;">
<circle cx="16.8398" cy="16.5000" r="0.3937" /> 
</g>
<g style="fill:#FFFFFF; fill-opacity:1.0000; stroke:none;">
<circle cx="16.8398" cy="19.0400" r="0.3937" /> 
</g>
<g style="fill:#FFFFFF; fill-opacity:1.0000; stroke:none;">
<circle cx="16.8398" cy="21.5800" r="0.3937" /> 
</g>
<g style="fill:#FFFFFF; fill-opacity:1.0000; stroke:none;">
<circle cx="16.8398" cy="24.1200" r="0.3937" /> 
</g>
<g style="fill:#FFFFFF; fill-opacity:1.0000; stroke:none;">
<circle cx="16.8398" cy="26.6600" r="0.3937" /> 
</g>
<g style="fill:#FFFFFF; fill-opacity:1.0000; stroke:none;">
<circle cx="16.8398" cy="29.2000" r="0.3937" /> 
</g>
<g style="fill:#FFFFFF; fill-opacity:1.0000; stroke:none;">
<circle cx="16.8398" cy="31.7400" r="0.3937" /> 
</g>
<g style="fill:#FFFFFF; fill-opacity:1.0000; stroke:none;">
<circle cx="16.8398" cy="34.2800" r="0.3937" /> 
</g>
<g style="fill:#FFFFFF; fill-opacity:1.0000; stroke:none;">
<circle cx="16.8398" cy="36.8200" r="0.3937" /> 
</g>
<g style="fill:#FFFFFF; fill-opacity:1.0000; stroke:none;">
<circle cx="16.8398" cy="39.3600" r="0.3937" /> 
</g>
<g style="fill:#FFFFFF; fill-opacity:1.0000; stroke:none;">
<circle cx="16.8398" cy="41.9000" r="0.3937" /> 
</g>
<g style="fill:#FFFFFF; fill-opacity:1.0000; stroke:none;">
<circle cx="16.8398" cy="44.4400" r="0.3937" /> 
</g>
<g style="fill:#FFFFFF; fill-opacity:1.0000; stroke:none;">
<circle cx="16.8398" cy="46.9800" r="0.3937" /> 
</g>
<g style="fill:#FFFFFF; fill-opacity:1.0000; stroke:none;">
<circle cx="16.8398" cy="49.5200" r="0.3937" /> 
</g>
<g style="fill:#FFFFFF; fill-opacity:1.0000; stroke:none;">
<circle cx="16.8398" cy="52.0600" r="0.3937" /> 
</g>
<g style="fill:#FFFFFF; fill-opacity:1.0000; stroke:none;">
<circle cx="16.8398" cy="54.6000" r="0.3937" /> 
</g>
<g style="fill:#FFFFFF; fill-opacity:1.0000; stroke:none;">
<circle cx="16.8398" cy="57.1400" r="0.3937" /> 
</g>
<g style="fill:#FFFFFF; fill-opacity:1.0000; stroke:none;">
<circle cx="43.4848" cy="11.4300" r="0.5000" /> 
</g>
<g style="fill:#FFFFFF; fill-opacity:1.0000; stroke:none;">
<circle cx="43.4848" cy="13.9700" r="0.5000" /> 
</g>
<g style="fill:#FFFFFF; fill-opacity:1.0000; stroke:none;">
<circle cx="43.4848" cy="16.5100" r="0.5000" /> 
</g>
<g style="fill:#FFFFFF; fill-opacity:1.0000; stroke:none;">
<circle cx="43.4848" cy="19.0500" r="0.5000" /> 
</g>
<g style="fill:#FFFFFF; fill-opacity:1.0000; stroke:none;">
<circle cx="43.4848" cy="21.5900" r="0.5000" /> 
</g>
<g style="fill:#FFFFFF; fill-opacity:1.0000; stroke:none;">
<circle cx="43.4848" cy="24.1300" r="0.5000" /> 
</g>
<g style="fill:#FFFFFF; fill-opacity:1.0000; stroke:none;">
<circle cx="43.4848" cy="26.6700" r="0.5000" /> 
</g>
<g style="fill:#FFFFFF; fill-opacity:1.0000; stroke:none;">
<circle cx="43.4848" cy="29.2100" r="0.5000" /> 
</g>
<g style="fill:#FFFFFF; fill-opacity:1.0000; stroke:none;">
<circle cx="43.4848" cy="31.7500" r="0.5000" /> 
</g>
<g style="fill:#FFFFFF; fill-opacity:1.0000; stroke:none;">
<circle cx="43.4848" cy="34.2900" r="0.5000" /> 
</g>
<g style="fill:#FFFFFF; fill-opacity:1.0000; stroke:none;">
<circle cx="43.4848" cy="36.8300" r="0.5000" /> 
</g>
<g style="fill:#FFFFFF; fill-opacity:1.0000; stroke:none;">
<circle cx="43.4848" cy="39.3700" r="0.5000" /> 
</g>
<g style="fill:#FFFFFF; fill-opacity:1.0000; stroke:none;">
<circle cx="43.4848" cy="41.9100" r="0.5000" /> 
</g>
<g style="fill:#FFFFFF; fill-opacity:1.0000; stroke:none;">
<circle cx="43.4848" cy="44.4500" r="0.5000" /> 
</g>
<g style="fill:#FFFFFF; fill-opacity:1.0000; stroke:none;">
<circle cx="43.4848" cy="46.9900" r="0.5000" /> 
</g>
<g style="fill:#FFFFFF; fill-opacity:1.0000; stroke:none;">
<circle cx="43.4848" cy="49.5300" r="0.5000" /> 
</g>
<g style="fill:#FFFFFF; fill-opacity:1.0000; stroke:none;">
<circle cx="43.4848" cy="52.0700" r="0.5000" /> 
</g>
<g style="fill:#FFFFFF; fill-opacity:1.0000; stroke:none;">
<circle cx="43.4848" cy="54.6100" r="0.5000" /> 
</g>
<g style="fill:#FFFFFF; fill-opacity:1.0000; stroke:none;">
<circle cx="43.4848" cy="57.1500" r="0.5000" /> 
</g> 
</svg>
