<?xml version="1.0" standalone="no"?>
 <!DOCTYPE svg PUBLIC "-//W3C//DTD SVG 1.1//EN" 
 "http://www.w3.org/Graphics/SVG/1.1/DTD/svg11.dtd"> 
<svg
  xmlns:svg="http://www.w3.org/2000/svg"
  xmlns="http://www.w3.org/2000/svg"
  xmlns:xlink="http://www.w3.org/1999/xlink"
  version="1.1"
  width="54.9148mm" height="64.0080mm" viewBox="0.0000 0.0000 54.9148 64.0080">
<title>SVG Image created as mask-front.svg date 2025/12/14 15:35:47 </title>
  <desc>Image generated by PCBNEW </desc>
<g style="fill:#000000; fill-opacity:1.0000;stroke:#000000; stroke-opacity:1.0000;
stroke-linecap:round; stroke-linejoin:round;"
 transform="translate(0 0) scale(1 1)">
<path style="fill:#000000; fill-opacity:1.0000; stroke:none;fill-rule:evenodd;"
d="M 40.2840,2.6770
38.5060,2.6770
38.5060,0.6450
40.2840,0.6450
Z" /> 
</g>
<g style="fill:#000000; fill-opacity:1.0000; stroke:none;">
<circle cx="41.9350" cy="1.6610" r="1.0160" /> 
</g>
<g style="fill:#000000; fill-opacity:1.0000; stroke:none;">
<circle cx="44.4750" cy="1.6610" r="1.0160" /> 
</g>
<g style="fill:#000000; fill-opacity:1.0000; stroke:none;">
<circle cx="47.0150" cy="1.6610" r="1.0160" /> 
<path style="fill:#000000; fill-opacity:1.0000; stroke:none;fill-rule:evenodd;"
d="M 40.2840,7.7570
38.5060,7.7570
38.5060,5.7250
40.2840,5.7250
Z" /> 
</g>
<g style="fill:#000000; fill-opacity:1.0000; stroke:none;">
<circle cx="41.9350" cy="6.7410" r="1.0160" /> 
</g>
<g style="fill:#000000; fill-opacity:1.0000; stroke:none;">
<circle cx="44.4750" cy="6.7410" r="1.0160" /> 
</g>
<g style="fill:#000000; fill-opacity:1.0000; stroke:none;">
<circle cx="47.0150" cy="6.7410" r="1.0160" /> 
<path style="fill:#000000; fill-opacity:1.0000; stroke:none;fill-rule:evenodd;"
d="M 5.3090,10.7088
5.3171,10.6390
5.3623,10.5365
5.4415,10.4573
5.5440,10.4121
5.6138,10.4040
7.0362,10.4040
7.1060,10.4121
7.2085,10.4573
7.2877,10.5365
7.3329,10.6390
7.3410,10.7088
7.3410,12.1312
7.3329,12.2010
7.2877,12.3035
7.2085,12.3827
7.1060,12.4279
7.0362,12.4360
5.6138,12.4360
5.5440,12.4279
5.4415,12.3827
5.3623,12.3035
5.3171,12.2010
5.3090,12.1312
Z" /> 
</g>
<g style="fill:#000000; fill-opacity:1.0000; stroke:none;">
<circle cx="6.3250" cy="13.9600" r="1.0160" /> 
</g>
<g style="fill:#000000; fill-opacity:1.0000; stroke:none;">
<circle cx="6.3250" cy="16.5000" r="1.0160" /> 
</g>
<g style="fill:#000000; fill-opacity:1.0000; stroke:none;">
<circle cx="6.3250" cy="19.0400" r="1.0160" /> 
</g>
<g style="fill:#000000; fill-opacity:1.0000; stroke:none;">
<circle cx="6.3250" cy="21.5800" r="1.0160" /> 
</g>
<g style="fill:#000000; fill-opacity:1.0000; stroke:none;">
<circle cx="6.3250" cy="24.1200" r="1.0160" /> 
</g>
<g style="fill:#000000; fill-opacity:1.0000; stroke:none;">
<circle cx="6.3250" cy="26.6600" r="1.0160" /> 
</g>
<g style="fill:#000000; fill-opacity:1.0000; stroke:none;">
<circle cx="6.3250" cy="29.2000" r="1.0160" /> 
</g>
<g style="fill:#000000; fill-opacity:1.0000; stroke:none;">
<circle cx="6.3250" cy="31.7400" r="1.0160" /> 
</g>
<g style="fill:#000000; fill-opacity:1.0000; stroke:none;">
<circle cx="6.3250" cy="34.2800" r="1.0160" /> 
</g>
<g style="fill:#000000; fill-opacity:1.0000; stroke:none;">
<circle cx="6.3250" cy="36.8200" r="1.0160" /> 
</g>
<g style="fill:#000000; fill-opacity:1.0000; stroke:none;">
<circle cx="6.3250" cy="39.3600" r="1.0160" /> 
</g>
<g style="fill:#000000; fill-opacity:1.0000; stroke:none;">
<circle cx="6.3250" cy="41.9000" r="1.0160" /> 
</g>
<g style="fill:#000000; fill-opacity:1.0000; stroke:none;">
<circle cx="6.3250" cy="44.4400" r="1.0160" /> 
</g>
<g style="fill:#000000; fill-opacity:1.0000; stroke:none;">
<circle cx="6.3250" cy="46.9800" r="1.0160" /> 
</g>
<g style="fill:#000000; fill-opacity:1.0000; stroke:none;">
<circle cx="6.3250" cy="49.5200" r="1.0160" /> 
</g>
<g style="fill:#000000; fill-opacity:1.0000; stroke:none;">
<circle cx="6.3250" cy="52.0600" r="1.0160" /> 
</g>
<g style="fill:#000000; fill-opacity:1.0000; stroke:none;">
<circle cx="6.3250" cy="54.6000" r="1.0160" /> 
</g>
<g style="fill:#000000; fill-opacity:1.0000; stroke:none;">
<circle cx="6.3250" cy="57.1400" r="1.0160" /> 
<path style="fill:#000000; fill-opacity:1.0000; stroke:none;fill-rule:evenodd;"
d="M 43.4090,10.7088
43.4171,10.6390
43.4623,10.5365
43.5415,10.4573
43.6440,10.4121
43.7138,10.4040
45.1362,10.4040
45.2060,10.4121
45.3085,10.4573
45.3877,10.5365
45.4329,10.6390
45.4410,10.7088
45.4410,12.1312
45.4329,12.2010
45.3877,12.3035
45.3085,12.3827
45.2060,12.4279
45.1362,12.4360
43.7138,12.4360
43.6440,12.4279
43.5415,12.3827
43.4623,12.3035
43.4171,12.2010
43.4090,12.1312
Z" /> 
</g>
<g style="fill:#000000; fill-opacity:1.0000; stroke:none;">
<circle cx="44.4250" cy="13.9600" r="1.0160" /> 
</g>
<g style="fill:#000000; fill-opacity:1.0000; stroke:none;">
<circle cx="44.4250" cy="16.5000" r="1.0160" /> 
</g>
<g style="fill:#000000; fill-opacity:1.0000; stroke:none;">
<circle cx="44.4250" cy="19.0400" r="1.0160" /> 
</g>
<g style="fill:#000000; fill-opacity:1.0000; stroke:none;">
<circle cx="44.4250" cy="21.5800" r="1.0160" /> 
</g>
<g style="fill:#000000; fill-opacity:1.0000; stroke:none;">
<circle cx="44.4250" cy="24.1200" r="1.0160" /> 
</g>
<g style="fill:#000000; fill-opacity:1.0000; stroke:none;">
<circle cx="44.4250" cy="26.6600" r="1.0160" /> 
</g>
<g style="fill:#000000; fill-opacity:1.0000; stroke:none;">
<circle cx="44.4250" cy="29.2000" r="1.0160" /> 
</g>
<g style="fill:#000000; fill-opacity:1.0000; stroke:none;">
<circle cx="44.4250" cy="31.7400" r="1.0160" /> 
</g>
<g style="fill:#000000; fill-opacity:1.0000; stroke:none;">
<circle cx="44.4250" cy="34.2800" r="1.0160" /> 
</g>
<g style="fill:#000000; fill-opacity:1.0000; stroke:none;">
<circle cx="44.4250" cy="36.8200" r="1.0160" /> 
</g>
<g style="fill:#000000; fill-opacity:1.0000; stroke:none;">
<circle cx="44.4250" cy="39.3600" r="1.0160" /> 
</g>
<g style="fill:#000000; fill-opacity:1.0000; stroke:none;">
<circle cx="44.4250" cy="41.9000" r="1.0160" /> 
</g>
<g style="fill:#000000; fill-opacity:1.0000; stroke:none;">
<circle cx="44.4250" cy="44.4400" r="1.0160" /> 
</g>
<g style="fill:#000000; fill-opacity:1.0000; stroke:none;">
<circle cx="44.4250" cy="46.9800" r="1.0160" /> 
</g>
<g style="fill:#000000; fill-opacity:1.0000; stroke:none;">
<circle cx="44.4250" cy="49.5200" r="1.0160" /> 
</g>
<g style="fill:#000000; fill-opacity:1.0000; stroke:none;">
<circle cx="44.4250" cy="52.0600" r="1.0160" /> 
</g>
<g style="fill:#000000; fill-opacity:1.0000; stroke:none;">
<circle cx="44.4250" cy="54.6000" r="1.0160" /> 
</g>
<g style="fill:#000000; fill-opacity:1.0000; stroke:none;">
<circle cx="44.4250" cy="57.1400" r="1.0160" /> 
<path style="fill:#000000; fill-opacity:1.0000; stroke:none;fill-rule:evenodd;"
d="M 45.9740,10.7188
45.9821,10.6490
46.0273,10.5465
46.1065,10.4673
46.2090,10.4221
46.2788,10.4140
47.7012,10.4140
47.7710,10.4221
47.8735,10.4673
47.9527,10.5465
47.9979,10.6490
48.0060,10.7188
48.0060,12.1412
47.9979,12.2110
47.9527,12.3135
47.8735,12.3927
47.7710,12.4379
47.7012,12.4460
46.2788,12.4460
46.2090,12.4379
46.1065,12.3927
46.0273,12.3135
45.9821,12.2110
45.9740,12.1412
Z" /> 
</g>
<g style="fill:#000000; fill-opacity:1.0000; stroke:none;">
<circle cx="46.9900" cy="13.9700" r="1.0160" /> 
</g>
<g style="fill:#000000; fill-opacity:1.0000; stroke:none;">
<circle cx="46.9900" cy="16.5100" r="1.0160" /> 
</g>
<g style="fill:#000000; fill-opacity:1.0000; stroke:none;">
<circle cx="46.9900" cy="19.0500" r="1.0160" /> 
</g>
<g style="fill:#000000; fill-opacity:1.0000; stroke:none;">
<circle cx="46.9900" cy="21.5900" r="1.0160" /> 
</g>
<g style="fill:#000000; fill-opacity:1.0000; stroke:none;">
<circle cx="46.9900" cy="24.1300" r="1.0160" /> 
</g>
<g style="fill:#000000; fill-opacity:1.0000; stroke:none;">
<circle cx="46.9900" cy="26.6700" r="1.0160" /> 
</g>
<g style="fill:#000000; fill-opacity:1.0000; stroke:none;">
<circle cx="46.9900" cy="29.2100" r="1.0160" /> 
</g>
<g style="fill:#000000; fill-opacity:1.0000; stroke:none;">
<circle cx="46.9900" cy="31.7500" r="1.0160" /> 
</g>
<g style="fill:#000000; fill-opacity:1.0000; stroke:none;">
<circle cx="46.9900" cy="34.2900" r="1.0160" /> 
</g>
<g style="fill:#000000; fill-opacity:1.0000; stroke:none;">
<circle cx="46.9900" cy="36.8300" r="1.0160" /> 
</g>
<g style="fill:#000000; fill-opacity:1.0000; stroke:none;">
<circle cx="46.9900" cy="39.3700" r="1.0160" /> 
</g>
<g style="fill:#000000; fill-opacity:1.0000; stroke:none;">
<circle cx="46.9900" cy="41.9100" r="1.0160" /> 
</g>
<g style="fill:#000000; fill-opacity:1.0000; stroke:none;">
<circle cx="46.9900" cy="44.4500" r="1.0160" /> 
</g>
<g style="fill:#000000; fill-opacity:1.0000; stroke:none;">
<circle cx="46.9900" cy="46.9900" r="1.0160" /> 
</g>
<g style="fill:#000000; fill-opacity:1.0000; stroke:none;">
<circle cx="46.9900" cy="49.5300" r="1.0160" /> 
</g>
<g style="fill:#000000; fill-opacity:1.0000; stroke:none;">
<circle cx="46.9900" cy="52.0700" r="1.0160" /> 
</g>
<g style="fill:#000000; fill-opacity:1.0000; stroke:none;">
<circle cx="46.9900" cy="54.6100" r="1.0160" /> 
</g>
<g style="fill:#000000; fill-opacity:1.0000; stroke:none;">
<circle cx="46.9900" cy="57.1500" r="1.0160" /> 
</g>
<g style="fill:#000000; fill-opacity:1.0000; stroke:none;">
<circle cx="41.8600" cy="57.1300" r="1.0160" /> 
</g>
<g style="fill:#000000; fill-opacity:1.0000; stroke:none;">
<circle cx="41.8600" cy="54.5900" r="1.0160" /> 
</g>
<g style="fill:#000000; fill-opacity:1.0000; stroke:none;">
<circle cx="41.8600" cy="52.0500" r="1.0160" /> 
</g>
<g style="fill:#000000; fill-opacity:1.0000; stroke:none;">
<circle cx="41.8600" cy="49.5100" r="1.0160" /> 
</g>
<g style="fill:#000000; fill-opacity:1.0000; stroke:none;">
<circle cx="41.8600" cy="46.9700" r="1.0160" /> 
</g>
<g style="fill:#000000; fill-opacity:1.0000; stroke:none;">
<circle cx="41.8600" cy="44.4300" r="1.0160" /> 
</g>
<g style="fill:#000000; fill-opacity:1.0000; stroke:none;">
<circle cx="41.8600" cy="41.8900" r="1.0160" /> 
</g>
<g style="fill:#000000; fill-opacity:1.0000; stroke:none;">
<circle cx="41.8600" cy="39.3500" r="1.0160" /> 
</g>
<g style="fill:#000000; fill-opacity:1.0000; stroke:none;">
<circle cx="41.8600" cy="36.8100" r="1.0160" /> 
</g>
<g style="fill:#000000; fill-opacity:1.0000; stroke:none;">
<circle cx="41.8600" cy="34.2700" r="1.0160" /> 
</g>
<g style="fill:#000000; fill-opacity:1.0000; stroke:none;">
<circle cx="41.8600" cy="31.7300" r="1.0160" /> 
</g>
<g style="fill:#000000; fill-opacity:1.0000; stroke:none;">
<circle cx="41.8600" cy="29.1900" r="1.0160" /> 
</g>
<g style="fill:#000000; fill-opacity:1.0000; stroke:none;">
<circle cx="41.8600" cy="26.6500" r="1.0160" /> 
</g>
<g style="fill:#000000; fill-opacity:1.0000; stroke:none;">
<circle cx="41.8600" cy="24.1100" r="1.0160" /> 
</g>
<g style="fill:#000000; fill-opacity:1.0000; stroke:none;">
<circle cx="41.8600" cy="21.5700" r="1.0160" /> 
</g>
<g style="fill:#000000; fill-opacity:1.0000; stroke:none;">
<circle cx="41.8600" cy="19.0300" r="1.0160" /> 
</g>
<g style="fill:#000000; fill-opacity:1.0000; stroke:none;">
<circle cx="41.8600" cy="16.4900" r="1.0160" /> 
</g>
<g style="fill:#000000; fill-opacity:1.0000; stroke:none;">
<circle cx="41.8600" cy="13.9500" r="1.0160" /> 
<path style="fill:#000000; fill-opacity:1.0000; stroke:none;fill-rule:evenodd;"
d="M 42.8760,12.1212
42.8679,12.1910
42.8227,12.2935
42.7435,12.3727
42.6410,12.4179
42.5712,12.4260
41.1488,12.4260
41.0790,12.4179
40.9765,12.3727
40.8973,12.2935
40.8521,12.1910
40.8440,12.1212
40.8440,10.6988
40.8521,10.6290
40.8973,10.5265
40.9765,10.4473
41.0790,10.4021
41.1488,10.3940
42.5712,10.3940
42.6410,10.4021
42.7435,10.4473
42.8227,10.5265
42.8679,10.6290
42.8760,10.6988
Z" /> 
<path style="fill:#000000; fill-opacity:1.0000; stroke:none;fill-rule:evenodd;"
d="M 7.8490,10.7088
7.8571,10.6390
7.9023,10.5365
7.9815,10.4573
8.0840,10.4121
8.1538,10.4040
9.5762,10.4040
9.6460,10.4121
9.7485,10.4573
9.8277,10.5365
9.8729,10.6390
9.8810,10.7088
9.8810,12.1312
9.8729,12.2010
9.8277,12.3035
9.7485,12.3827
9.6460,12.4279
9.5762,12.4360
8.1538,12.4360
8.0840,12.4279
7.9815,12.3827
7.9023,12.3035
7.8571,12.2010
7.8490,12.1312
Z" /> 
</g>
<g style="fill:#000000; fill-opacity:1.0000; stroke:none;">
<circle cx="8.8650" cy="13.9600" r="1.0160" /> 
</g>
<g style="fill:#000000; fill-opacity:1.0000; stroke:none;">
<circle cx="8.8650" cy="16.5000" r="1.0160" /> 
</g>
<g style="fill:#000000; fill-opacity:1.0000; stroke:none;">
<circle cx="8.8650" cy="19.0400" r="1.0160" /> 
</g>
<g style="fill:#000000; fill-opacity:1.0000; stroke:none;">
<circle cx="8.8650" cy="21.5800" r="1.0160" /> 
</g>
<g style="fill:#000000; fill-opacity:1.0000; stroke:none;">
<circle cx="8.8650" cy="24.1200" r="1.0160" /> 
</g>
<g style="fill:#000000; fill-opacity:1.0000; stroke:none;">
<circle cx="8.8650" cy="26.6600" r="1.0160" /> 
</g>
<g style="fill:#000000; fill-opacity:1.0000; stroke:none;">
<circle cx="8.8650" cy="29.2000" r="1.0160" /> 
</g>
<g style="fill:#000000; fill-opacity:1.0000; stroke:none;">
<circle cx="8.8650" cy="31.7400" r="1.0160" /> 
</g>
<g style="fill:#000000; fill-opacity:1.0000; stroke:none;">
<circle cx="8.8650" cy="34.2800" r="1.0160" /> 
</g>
<g style="fill:#000000; fill-opacity:1.0000; stroke:none;">
<circle cx="8.8650" cy="36.8200" r="1.0160" /> 
</g>
<g style="fill:#000000; fill-opacity:1.0000; stroke:none;">
<circle cx="8.8650" cy="39.3600" r="1.0160" /> 
</g>
<g style="fill:#000000; fill-opacity:1.0000; stroke:none;">
<circle cx="8.8650" cy="41.9000" r="1.0160" /> 
</g>
<g style="fill:#000000; fill-opacity:1.0000; stroke:none;">
<circle cx="8.8650" cy="44.4400" r="1.0160" /> 
</g>
<g style="fill:#000000; fill-opacity:1.0000; stroke:none;">
<circle cx="8.8650" cy="46.9800" r="1.0160" /> 
</g>
<g style="fill:#000000; fill-opacity:1.0000; stroke:none;">
<circle cx="8.8650" cy="49.5200" r="1.0160" /> 
</g>
<g style="fill:#000000; fill-opacity:1.0000; stroke:none;">
<circle cx="8.8650" cy="52.0600" r="1.0160" /> 
</g>
<g style="fill:#000000; fill-opacity:1.0000; stroke:none;">
<circle cx="8.8650" cy="54.6000" r="1.0160" /> 
</g>
<g style="fill:#000000; fill-opacity:1.0000; stroke:none;">
<circle cx="8.8650" cy="57.1400" r="1.0160" /> 
<path style="fill:#000000; fill-opacity:1.0000; stroke:none;fill-rule:evenodd;"
d="M 40.2840,5.2170
38.5060,5.2170
38.5060,3.1850
40.2840,3.1850
Z" /> 
</g>
<g style="fill:#000000; fill-opacity:1.0000; stroke:none;">
<circle cx="41.9350" cy="4.2010" r="1.0160" /> 
</g>
<g style="fill:#000000; fill-opacity:1.0000; stroke:none;">
<circle cx="44.4750" cy="4.2010" r="1.0160" /> 
</g>
<g style="fill:#000000; fill-opacity:1.0000; stroke:none;">
<circle cx="47.0150" cy="4.2010" r="1.0160" /> 
<path style="fill:#000000; fill-opacity:1.0000; stroke:none;fill-rule:evenodd;"
d="M 13.0810,3.4290
14.8590,3.4290
14.8590,5.4610
13.0810,5.4610
Z" /> 
</g>
<g style="fill:#000000; fill-opacity:1.0000; stroke:none;">
<circle cx="11.4300" cy="4.4450" r="1.0160" /> 
</g>
<g style="fill:#000000; fill-opacity:1.0000; stroke:none;">
<circle cx="8.8900" cy="4.4450" r="1.0160" /> 
</g>
<g style="fill:#000000; fill-opacity:1.0000; stroke:none;">
<circle cx="6.3500" cy="4.4450" r="1.0160" /> 
<path style="fill:#000000; fill-opacity:1.0000; stroke:none;fill-rule:evenodd;"
d="M 13.5255,10.6580
13.5333,10.6190
13.5554,10.5859
13.5885,10.5638
13.6275,10.5560
16.8025,10.5560
16.8415,10.5638
16.8746,10.5859
16.8967,10.6190
16.9045,10.6580
16.9045,12.1820
16.8967,12.2210
16.8746,12.2541
16.8415,12.2762
16.8025,12.2840
13.6275,12.2840
13.5885,12.2762
13.5554,12.2541
13.5333,12.2210
13.5255,12.1820
Z" /> 
<path style="fill:#000000; fill-opacity:1.0000; stroke:none;fill-rule:evenodd;"
d="M 13.5255,13.1980
13.5333,13.1590
13.5554,13.1259
13.5885,13.1038
13.6275,13.0960
16.8025,13.0960
16.8415,13.1038
16.8746,13.1259
16.8967,13.1590
16.9045,13.1980
16.9045,14.7220
16.8967,14.7610
16.8746,14.7941
16.8415,14.8162
16.8025,14.8240
13.6275,14.8240
13.5885,14.8162
13.5554,14.7941
13.5333,14.7610
13.5255,14.7220
Z" /> 
<path style="fill:#000000; fill-opacity:1.0000; stroke:none;fill-rule:evenodd;"
d="M 13.5255,15.7380
13.5333,15.6990
13.5554,15.6659
13.5885,15.6438
13.6275,15.6360
16.8025,15.6360
16.8415,15.6438
16.8746,15.6659
16.8967,15.6990
16.9045,15.7380
16.9045,17.2620
16.8967,17.3010
16.8746,17.3341
16.8415,17.3562
16.8025,17.3640
13.6275,17.3640
13.5885,17.3562
13.5554,17.3341
13.5333,17.3010
13.5255,17.2620
Z" /> 
<path style="fill:#000000; fill-opacity:1.0000; stroke:none;fill-rule:evenodd;"
d="M 13.5255,18.2780
13.5333,18.2390
13.5554,18.2059
13.5885,18.1838
13.6275,18.1760
16.8025,18.1760
16.8415,18.1838
16.8746,18.2059
16.8967,18.2390
16.9045,18.2780
16.9045,19.8020
16.8967,19.8410
16.8746,19.8741
16.8415,19.8962
16.8025,19.9040
13.6275,19.9040
13.5885,19.8962
13.5554,19.8741
13.5333,19.8410
13.5255,19.8020
Z" /> 
<path style="fill:#000000; fill-opacity:1.0000; stroke:none;fill-rule:evenodd;"
d="M 13.5255,20.8180
13.5333,20.7790
13.5554,20.7459
13.5885,20.7238
13.6275,20.7160
16.8025,20.7160
16.8415,20.7238
16.8746,20.7459
16.8967,20.7790
16.9045,20.8180
16.9045,22.3420
16.8967,22.3810
16.8746,22.4141
16.8415,22.4362
16.8025,22.4440
13.6275,22.4440
13.5885,22.4362
13.5554,22.4141
13.5333,22.3810
13.5255,22.3420
Z" /> 
<path style="fill:#000000; fill-opacity:1.0000; stroke:none;fill-rule:evenodd;"
d="M 13.5255,23.3580
13.5333,23.3190
13.5554,23.2859
13.5885,23.2638
13.6275,23.2560
16.8025,23.2560
16.8415,23.2638
16.8746,23.2859
16.8967,23.3190
16.9045,23.3580
16.9045,24.8820
16.8967,24.9210
16.8746,24.9541
16.8415,24.9762
16.8025,24.9840
13.6275,24.9840
13.5885,24.9762
13.5554,24.9541
13.5333,24.9210
13.5255,24.8820
Z" /> 
<path style="fill:#000000; fill-opacity:1.0000; stroke:none;fill-rule:evenodd;"
d="M 13.5255,25.8980
13.5333,25.8590
13.5554,25.8259
13.5885,25.8038
13.6275,25.7960
16.8025,25.7960
16.8415,25.8038
16.8746,25.8259
16.8967,25.8590
16.9045,25.8980
16.9045,27.4220
16.8967,27.4610
16.8746,27.4941
16.8415,27.5162
16.8025,27.5240
13.6275,27.5240
13.5885,27.5162
13.5554,27.4941
13.5333,27.4610
13.5255,27.4220
Z" /> 
<path style="fill:#000000; fill-opacity:1.0000; stroke:none;fill-rule:evenodd;"
d="M 13.5255,28.4380
13.5333,28.3990
13.5554,28.3659
13.5885,28.3438
13.6275,28.3360
16.8025,28.3360
16.8415,28.3438
16.8746,28.3659
16.8967,28.3990
16.9045,28.4380
16.9045,29.9620
16.8967,30.0010
16.8746,30.0341
16.8415,30.0562
16.8025,30.0640
13.6275,30.0640
13.5885,30.0562
13.5554,30.0341
13.5333,30.0010
13.5255,29.9620
Z" /> 
<path style="fill:#000000; fill-opacity:1.0000; stroke:none;fill-rule:evenodd;"
d="M 13.5255,30.9780
13.5333,30.9390
13.5554,30.9059
13.5885,30.8838
13.6275,30.8760
16.8025,30.8760
16.8415,30.8838
16.8746,30.9059
16.8967,30.9390
16.9045,30.9780
16.9045,32.5020
16.8967,32.5410
16.8746,32.5741
16.8415,32.5962
16.8025,32.6040
13.6275,32.6040
13.5885,32.5962
13.5554,32.5741
13.5333,32.5410
13.5255,32.5020
Z" /> 
<path style="fill:#000000; fill-opacity:1.0000; stroke:none;fill-rule:evenodd;"
d="M 13.5255,33.5180
13.5333,33.4790
13.5554,33.4459
13.5885,33.4238
13.6275,33.4160
16.8025,33.4160
16.8415,33.4238
16.8746,33.4459
16.8967,33.4790
16.9045,33.5180
16.9045,35.0420
16.8967,35.0810
16.8746,35.1141
16.8415,35.1362
16.8025,35.1440
13.6275,35.1440
13.5885,35.1362
13.5554,35.1141
13.5333,35.0810
13.5255,35.0420
Z" /> 
<path style="fill:#000000; fill-opacity:1.0000; stroke:none;fill-rule:evenodd;"
d="M 13.5255,36.0580
13.5333,36.0190
13.5554,35.9859
13.5885,35.9638
13.6275,35.9560
16.8025,35.9560
16.8415,35.9638
16.8746,35.9859
16.8967,36.0190
16.9045,36.0580
16.9045,37.5820
16.8967,37.6210
16.8746,37.6541
16.8415,37.6762
16.8025,37.6840
13.6275,37.6840
13.5885,37.6762
13.5554,37.6541
13.5333,37.6210
13.5255,37.5820
Z" /> 
<path style="fill:#000000; fill-opacity:1.0000; stroke:none;fill-rule:evenodd;"
d="M 13.5255,38.5980
13.5333,38.5590
13.5554,38.5259
13.5885,38.5038
13.6275,38.4960
16.8025,38.4960
16.8415,38.5038
16.8746,38.5259
16.8967,38.5590
16.9045,38.5980
16.9045,40.1220
16.8967,40.1610
16.8746,40.1941
16.8415,40.2162
16.8025,40.2240
13.6275,40.2240
13.5885,40.2162
13.5554,40.1941
13.5333,40.1610
13.5255,40.1220
Z" /> 
<path style="fill:#000000; fill-opacity:1.0000; stroke:none;fill-rule:evenodd;"
d="M 13.5255,41.1380
13.5333,41.0990
13.5554,41.0659
13.5885,41.0438
13.6275,41.0360
16.8025,41.0360
16.8415,41.0438
16.8746,41.0659
16.8967,41.0990
16.9045,41.1380
16.9045,42.6620
16.8967,42.7010
16.8746,42.7341
16.8415,42.7562
16.8025,42.7640
13.6275,42.7640
13.5885,42.7562
13.5554,42.7341
13.5333,42.7010
13.5255,42.6620
Z" /> 
<path style="fill:#000000; fill-opacity:1.0000; stroke:none;fill-rule:evenodd;"
d="M 13.5255,43.6780
13.5333,43.6390
13.5554,43.6059
13.5885,43.5838
13.6275,43.5760
16.8025,43.5760
16.8415,43.5838
16.8746,43.6059
16.8967,43.6390
16.9045,43.6780
16.9045,45.2020
16.8967,45.2410
16.8746,45.2741
16.8415,45.2962
16.8025,45.3040
13.6275,45.3040
13.5885,45.2962
13.5554,45.2741
13.5333,45.2410
13.5255,45.2020
Z" /> 
<path style="fill:#000000; fill-opacity:1.0000; stroke:none;fill-rule:evenodd;"
d="M 13.5255,46.2180
13.5333,46.1790
13.5554,46.1459
13.5885,46.1238
13.6275,46.1160
16.8025,46.1160
16.8415,46.1238
16.8746,46.1459
16.8967,46.1790
16.9045,46.2180
16.9045,47.7420
16.8967,47.7810
16.8746,47.8141
16.8415,47.8362
16.8025,47.8440
13.6275,47.8440
13.5885,47.8362
13.5554,47.8141
13.5333,47.7810
13.5255,47.7420
Z" /> 
<path style="fill:#000000; fill-opacity:1.0000; stroke:none;fill-rule:evenodd;"
d="M 13.5255,48.7580
13.5333,48.7190
13.5554,48.6859
13.5885,48.6638
13.6275,48.6560
16.8025,48.6560
16.8415,48.6638
16.8746,48.6859
16.8967,48.7190
16.9045,48.7580
16.9045,50.2820
16.8967,50.3210
16.8746,50.3541
16.8415,50.3762
16.8025,50.3840
13.6275,50.3840
13.5885,50.3762
13.5554,50.3541
13.5333,50.3210
13.5255,50.2820
Z" /> 
<path style="fill:#000000; fill-opacity:1.0000; stroke:none;fill-rule:evenodd;"
d="M 13.5255,51.2980
13.5333,51.2590
13.5554,51.2259
13.5885,51.2038
13.6275,51.1960
16.8025,51.1960
16.8415,51.2038
16.8746,51.2259
16.8967,51.2590
16.9045,51.2980
16.9045,52.8220
16.8967,52.8610
16.8746,52.8941
16.8415,52.9162
16.8025,52.9240
13.6275,52.9240
13.5885,52.9162
13.5554,52.8941
13.5333,52.8610
13.5255,52.8220
Z" /> 
<path style="fill:#000000; fill-opacity:1.0000; stroke:none;fill-rule:evenodd;"
d="M 13.5255,53.8380
13.5333,53.7990
13.5554,53.7659
13.5885,53.7438
13.6275,53.7360
16.8025,53.7360
16.8415,53.7438
16.8746,53.7659
16.8967,53.7990
16.9045,53.8380
16.9045,55.3620
16.8967,55.4010
16.8746,55.4341
16.8415,55.4562
16.8025,55.4640
13.6275,55.4640
13.5885,55.4562
13.5554,55.4341
13.5333,55.4010
13.5255,55.3620
Z" /> 
<path style="fill:#000000; fill-opacity:1.0000; stroke:none;fill-rule:evenodd;"
d="M 13.5255,56.3780
13.5333,56.3390
13.5554,56.3059
13.5885,56.2838
13.6275,56.2760
16.8025,56.2760
16.8415,56.2838
16.8746,56.3059
16.8967,56.3390
16.9045,56.3780
16.9045,57.9020
16.8967,57.9410
16.8746,57.9741
16.8415,57.9962
16.8025,58.0040
13.6275,58.0040
13.5885,57.9962
13.5554,57.9741
13.5333,57.9410
13.5255,57.9020
Z" /> 
<path style="fill:#000000; fill-opacity:1.0000; stroke:none;fill-rule:evenodd;"
d="M 36.3855,10.6580
36.3933,10.6190
36.4154,10.5859
36.4485,10.5638
36.4875,10.5560
39.6625,10.5560
39.7015,10.5638
39.7346,10.5859
39.7567,10.6190
39.7645,10.6580
39.7645,12.1820
39.7567,12.2210
39.7346,12.2541
39.7015,12.2762
39.6625,12.2840
36.4875,12.2840
36.4485,12.2762
36.4154,12.2541
36.3933,12.2210
36.3855,12.1820
Z" /> 
<path style="fill:#000000; fill-opacity:1.0000; stroke:none;fill-rule:evenodd;"
d="M 36.3855,13.1980
36.3933,13.1590
36.4154,13.1259
36.4485,13.1038
36.4875,13.0960
39.6625,13.0960
39.7015,13.1038
39.7346,13.1259
39.7567,13.1590
39.7645,13.1980
39.7645,14.7220
39.7567,14.7610
39.7346,14.7941
39.7015,14.8162
39.6625,14.8240
36.4875,14.8240
36.4485,14.8162
36.4154,14.7941
36.3933,14.7610
36.3855,14.7220
Z" /> 
<path style="fill:#000000; fill-opacity:1.0000; stroke:none;fill-rule:evenodd;"
d="M 36.3855,15.7380
36.3933,15.6990
36.4154,15.6659
36.4485,15.6438
36.4875,15.6360
39.6625,15.6360
39.7015,15.6438
39.7346,15.6659
39.7567,15.6990
39.7645,15.7380
39.7645,17.2620
39.7567,17.3010
39.7346,17.3341
39.7015,17.3562
39.6625,17.3640
36.4875,17.3640
36.4485,17.3562
36.4154,17.3341
36.3933,17.3010
36.3855,17.2620
Z" /> 
<path style="fill:#000000; fill-opacity:1.0000; stroke:none;fill-rule:evenodd;"
d="M 36.3855,18.2780
36.3933,18.2390
36.4154,18.2059
36.4485,18.1838
36.4875,18.1760
39.6625,18.1760
39.7015,18.1838
39.7346,18.2059
39.7567,18.2390
39.7645,18.2780
39.7645,19.8020
39.7567,19.8410
39.7346,19.8741
39.7015,19.8962
39.6625,19.9040
36.4875,19.9040
36.4485,19.8962
36.4154,19.8741
36.3933,19.8410
36.3855,19.8020
Z" /> 
<path style="fill:#000000; fill-opacity:1.0000; stroke:none;fill-rule:evenodd;"
d="M 36.3855,20.8180
36.3933,20.7790
36.4154,20.7459
36.4485,20.7238
36.4875,20.7160
39.6625,20.7160
39.7015,20.7238
39.7346,20.7459
39.7567,20.7790
39.7645,20.8180
39.7645,22.3420
39.7567,22.3810
39.7346,22.4141
39.7015,22.4362
39.6625,22.4440
36.4875,22.4440
36.4485,22.4362
36.4154,22.4141
36.3933,22.3810
36.3855,22.3420
Z" /> 
<path style="fill:#000000; fill-opacity:1.0000; stroke:none;fill-rule:evenodd;"
d="M 36.3855,23.3580
36.3933,23.3190
36.4154,23.2859
36.4485,23.2638
36.4875,23.2560
39.6625,23.2560
39.7015,23.2638
39.7346,23.2859
39.7567,23.3190
39.7645,23.3580
39.7645,24.8820
39.7567,24.9210
39.7346,24.9541
39.7015,24.9762
39.6625,24.9840
36.4875,24.9840
36.4485,24.9762
36.4154,24.9541
36.3933,24.9210
36.3855,24.8820
Z" /> 
<path style="fill:#000000; fill-opacity:1.0000; stroke:none;fill-rule:evenodd;"
d="M 36.3855,25.8980
36.3933,25.8590
36.4154,25.8259
36.4485,25.8038
36.4875,25.7960
39.6625,25.7960
39.7015,25.8038
39.7346,25.8259
39.7567,25.8590
39.7645,25.8980
39.7645,27.4220
39.7567,27.4610
39.7346,27.4941
39.7015,27.5162
39.6625,27.5240
36.4875,27.5240
36.4485,27.5162
36.4154,27.4941
36.3933,27.4610
36.3855,27.4220
Z" /> 
<path style="fill:#000000; fill-opacity:1.0000; stroke:none;fill-rule:evenodd;"
d="M 36.3855,28.4380
36.3933,28.3990
36.4154,28.3659
36.4485,28.3438
36.4875,28.3360
39.6625,28.3360
39.7015,28.3438
39.7346,28.3659
39.7567,28.3990
39.7645,28.4380
39.7645,29.9620
39.7567,30.0010
39.7346,30.0341
39.7015,30.0562
39.6625,30.0640
36.4875,30.0640
36.4485,30.0562
36.4154,30.0341
36.3933,30.0010
36.3855,29.9620
Z" /> 
<path style="fill:#000000; fill-opacity:1.0000; stroke:none;fill-rule:evenodd;"
d="M 36.3855,30.9780
36.3933,30.9390
36.4154,30.9059
36.4485,30.8838
36.4875,30.8760
39.6625,30.8760
39.7015,30.8838
39.7346,30.9059
39.7567,30.9390
39.7645,30.9780
39.7645,32.5020
39.7567,32.5410
39.7346,32.5741
39.7015,32.5962
39.6625,32.6040
36.4875,32.6040
36.4485,32.5962
36.4154,32.5741
36.3933,32.5410
36.3855,32.5020
Z" /> 
<path style="fill:#000000; fill-opacity:1.0000; stroke:none;fill-rule:evenodd;"
d="M 36.3855,33.5180
36.3933,33.4790
36.4154,33.4459
36.4485,33.4238
36.4875,33.4160
39.6625,33.4160
39.7015,33.4238
39.7346,33.4459
39.7567,33.4790
39.7645,33.5180
39.7645,35.0420
39.7567,35.0810
39.7346,35.1141
39.7015,35.1362
39.6625,35.1440
36.4875,35.1440
36.4485,35.1362
36.4154,35.1141
36.3933,35.0810
36.3855,35.0420
Z" /> 
<path style="fill:#000000; fill-opacity:1.0000; stroke:none;fill-rule:evenodd;"
d="M 36.3855,36.0580
36.3933,36.0190
36.4154,35.9859
36.4485,35.9638
36.4875,35.9560
39.6625,35.9560
39.7015,35.9638
39.7346,35.9859
39.7567,36.0190
39.7645,36.0580
39.7645,37.5820
39.7567,37.6210
39.7346,37.6541
39.7015,37.6762
39.6625,37.6840
36.4875,37.6840
36.4485,37.6762
36.4154,37.6541
36.3933,37.6210
36.3855,37.5820
Z" /> 
<path style="fill:#000000; fill-opacity:1.0000; stroke:none;fill-rule:evenodd;"
d="M 36.3855,38.5980
36.3933,38.5590
36.4154,38.5259
36.4485,38.5038
36.4875,38.4960
39.6625,38.4960
39.7015,38.5038
39.7346,38.5259
39.7567,38.5590
39.7645,38.5980
39.7645,40.1220
39.7567,40.1610
39.7346,40.1941
39.7015,40.2162
39.6625,40.2240
36.4875,40.2240
36.4485,40.2162
36.4154,40.1941
36.3933,40.1610
36.3855,40.1220
Z" /> 
<path style="fill:#000000; fill-opacity:1.0000; stroke:none;fill-rule:evenodd;"
d="M 36.3855,41.1380
36.3933,41.0990
36.4154,41.0659
36.4485,41.0438
36.4875,41.0360
39.6625,41.0360
39.7015,41.0438
39.7346,41.0659
39.7567,41.0990
39.7645,41.1380
39.7645,42.6620
39.7567,42.7010
39.7346,42.7341
39.7015,42.7562
39.6625,42.7640
36.4875,42.7640
36.4485,42.7562
36.4154,42.7341
36.3933,42.7010
36.3855,42.6620
Z" /> 
<path style="fill:#000000; fill-opacity:1.0000; stroke:none;fill-rule:evenodd;"
d="M 36.3855,43.6780
36.3933,43.6390
36.4154,43.6059
36.4485,43.5838
36.4875,43.5760
39.6625,43.5760
39.7015,43.5838
39.7346,43.6059
39.7567,43.6390
39.7645,43.6780
39.7645,45.2020
39.7567,45.2410
39.7346,45.2741
39.7015,45.2962
39.6625,45.3040
36.4875,45.3040
36.4485,45.2962
36.4154,45.2741
36.3933,45.2410
36.3855,45.2020
Z" /> 
<path style="fill:#000000; fill-opacity:1.0000; stroke:none;fill-rule:evenodd;"
d="M 36.3855,46.2180
36.3933,46.1790
36.4154,46.1459
36.4485,46.1238
36.4875,46.1160
39.6625,46.1160
39.7015,46.1238
39.7346,46.1459
39.7567,46.1790
39.7645,46.2180
39.7645,47.7420
39.7567,47.7810
39.7346,47.8141
39.7015,47.8362
39.6625,47.8440
36.4875,47.8440
36.4485,47.8362
36.4154,47.8141
36.3933,47.7810
36.3855,47.7420
Z" /> 
<path style="fill:#000000; fill-opacity:1.0000; stroke:none;fill-rule:evenodd;"
d="M 36.3855,48.7580
36.3933,48.7190
36.4154,48.6859
36.4485,48.6638
36.4875,48.6560
39.6625,48.6560
39.7015,48.6638
39.7346,48.6859
39.7567,48.7190
39.7645,48.7580
39.7645,50.2820
39.7567,50.3210
39.7346,50.3541
39.7015,50.3762
39.6625,50.3840
36.4875,50.3840
36.4485,50.3762
36.4154,50.3541
36.3933,50.3210
36.3855,50.2820
Z" /> 
<path style="fill:#000000; fill-opacity:1.0000; stroke:none;fill-rule:evenodd;"
d="M 36.3855,51.2980
36.3933,51.2590
36.4154,51.2259
36.4485,51.2038
36.4875,51.1960
39.6625,51.1960
39.7015,51.2038
39.7346,51.2259
39.7567,51.2590
39.7645,51.2980
39.7645,52.8220
39.7567,52.8610
39.7346,52.8941
39.7015,52.9162
39.6625,52.9240
36.4875,52.9240
36.4485,52.9162
36.4154,52.8941
36.3933,52.8610
36.3855,52.8220
Z" /> 
<path style="fill:#000000; fill-opacity:1.0000; stroke:none;fill-rule:evenodd;"
d="M 36.3855,53.8380
36.3933,53.7990
36.4154,53.7659
36.4485,53.7438
36.4875,53.7360
39.6625,53.7360
39.7015,53.7438
39.7346,53.7659
39.7567,53.7990
39.7645,53.8380
39.7645,55.3620
39.7567,55.4010
39.7346,55.4341
39.7015,55.4562
39.6625,55.4640
36.4875,55.4640
36.4485,55.4562
36.4154,55.4341
36.3933,55.4010
36.3855,55.3620
Z" /> 
<path style="fill:#000000; fill-opacity:1.0000; stroke:none;fill-rule:evenodd;"
d="M 36.3855,56.3780
36.3933,56.3390
36.4154,56.3059
36.4485,56.2838
36.4875,56.2760
39.6625,56.2760
39.7015,56.2838
39.7346,56.3059
39.7567,56.3390
39.7645,56.3780
39.7645,57.9020
39.7567,57.9410
39.7346,57.9741
39.7015,57.9962
39.6625,58.0040
36.4875,58.0040
36.4485,57.9962
36.4154,57.9741
36.3933,57.9410
36.3855,57.9020
Z" /> 
<path style="fill:#000000; fill-opacity:1.0000; stroke:none;fill-rule:evenodd;"
d="M 10.4140,10.7188
10.4221,10.6490
10.4673,10.5465
10.5465,10.4673
10.6490,10.4221
10.7188,10.4140
12.1412,10.4140
12.2110,10.4221
12.3135,10.4673
12.3927,10.5465
12.4379,10.6490
12.4460,10.7188
12.4460,12.1412
12.4379,12.2110
12.3927,12.3135
12.3135,12.3927
12.2110,12.4379
12.1412,12.4460
10.7188,12.4460
10.6490,12.4379
10.5465,12.3927
10.4673,12.3135
10.4221,12.2110
10.4140,12.1412
Z" /> 
</g>
<g style="fill:#000000; fill-opacity:1.0000; stroke:none;">
<circle cx="11.4300" cy="13.9700" r="1.0160" /> 
</g>
<g style="fill:#000000; fill-opacity:1.0000; stroke:none;">
<circle cx="11.4300" cy="16.5100" r="1.0160" /> 
</g>
<g style="fill:#000000; fill-opacity:1.0000; stroke:none;">
<circle cx="11.4300" cy="19.0500" r="1.0160" /> 
</g>
<g style="fill:#000000; fill-opacity:1.0000; stroke:none;">
<circle cx="11.4300" cy="21.5900" r="1.0160" /> 
</g>
<g style="fill:#000000; fill-opacity:1.0000; stroke:none;">
<circle cx="11.4300" cy="24.1300" r="1.0160" /> 
</g>
<g style="fill:#000000; fill-opacity:1.0000; stroke:none;">
<circle cx="11.4300" cy="26.6700" r="1.0160" /> 
</g>
<g style="fill:#000000; fill-opacity:1.0000; stroke:none;">
<circle cx="11.4300" cy="29.2100" r="1.0160" /> 
</g>
<g style="fill:#000000; fill-opacity:1.0000; stroke:none;">
<circle cx="11.4300" cy="31.7500" r="1.0160" /> 
</g>
<g style="fill:#000000; fill-opacity:1.0000; stroke:none;">
<circle cx="11.4300" cy="34.2900" r="1.0160" /> 
</g>
<g style="fill:#000000; fill-opacity:1.0000; stroke:none;">
<circle cx="11.4300" cy="36.8300" r="1.0160" /> 
</g>
<g style="fill:#000000; fill-opacity:1.0000; stroke:none;">
<circle cx="11.4300" cy="39.3700" r="1.0160" /> 
</g>
<g style="fill:#000000; fill-opacity:1.0000; stroke:none;">
<circle cx="11.4300" cy="41.9100" r="1.0160" /> 
</g>
<g style="fill:#000000; fill-opacity:1.0000; stroke:none;">
<circle cx="11.4300" cy="44.4500" r="1.0160" /> 
</g>
<g style="fill:#000000; fill-opacity:1.0000; stroke:none;">
<circle cx="11.4300" cy="46.9900" r="1.0160" /> 
</g>
<g style="fill:#000000; fill-opacity:1.0000; stroke:none;">
<circle cx="11.4300" cy="49.5300" r="1.0160" /> 
</g>
<g style="fill:#000000; fill-opacity:1.0000; stroke:none;">
<circle cx="11.4300" cy="52.0700" r="1.0160" /> 
</g>
<g style="fill:#000000; fill-opacity:1.0000; stroke:none;">
<circle cx="11.4300" cy="54.6100" r="1.0160" /> 
</g>
<g style="fill:#000000; fill-opacity:1.0000; stroke:none;">
<circle cx="11.4300" cy="57.1500" r="1.0160" /> 
</g>
<g style="fill:none; 
stroke:#000000; stroke-width:0.0500; stroke-opacity:1; 
stroke-linecap:round; stroke-linejoin:round;">
<circle cx="52.0700" cy="61.5950" r="1.5913" /> 
<circle cx="52.0700" cy="2.5400" r="1.5913" /> 
<circle cx="2.5400" cy="2.5400" r="1.5913" /> 
<circle cx="2.5400" cy="61.5950" r="1.5913" /> 
<path style="fill:none; 
stroke:#000000; stroke-width:0.0500; stroke-opacity:1; 
stroke-linecap:round; stroke-linejoin:round;fill:none"
d="M 0.0000,0.0000
54.9148,0.0000
54.9148,64.0080
0.0000,64.0080
Z" /> 
</g>
<g style="fill:#FFFFFF; fill-opacity:1.0000; stroke:none;">
<circle cx="39.3950" cy="1.6610" r="0.5000" /> 
</g>
<g style="fill:#FFFFFF; fill-opacity:1.0000; stroke:none;">
<circle cx="41.9350" cy="1.6610" r="0.5000" /> 
</g>
<g style="fill:#FFFFFF; fill-opacity:1.0000; stroke:none;">
<circle cx="44.4750" cy="1.6610" r="0.5000" /> 
</g>
<g style="fill:#FFFFFF; fill-opacity:1.0000; stroke:none;">
<circle cx="47.0150" cy="1.6610" r="0.5000" /> 
</g>
<g style="fill:#FFFFFF; fill-opacity:1.0000; stroke:none;">
<circle cx="39.3950" cy="6.7410" r="0.5000" /> 
</g>
<g style="fill:#FFFFFF; fill-opacity:1.0000; stroke:none;">
<circle cx="41.9350" cy="6.7410" r="0.5000" /> 
</g>
<g style="fill:#FFFFFF; fill-opacity:1.0000; stroke:none;">
<circle cx="44.4750" cy="6.7410" r="0.5000" /> 
</g>
<g style="fill:#FFFFFF; fill-opacity:1.0000; stroke:none;">
<circle cx="47.0150" cy="6.7410" r="0.5000" /> 
</g>
<g style="fill:#FFFFFF; fill-opacity:1.0000; stroke:none;">
<circle cx="6.3250" cy="11.4200" r="0.5000" /> 
</g>
<g style="fill:#FFFFFF; fill-opacity:1.0000; stroke:none;">
<circle cx="6.3250" cy="13.9600" r="0.5000" /> 
</g>
<g style="fill:#FFFFFF; fill-opacity:1.0000; stroke:none;">
<circle cx="6.3250" cy="16.5000" r="0.5000" /> 
</g>
<g style="fill:#FFFFFF; fill-opacity:1.0000; stroke:none;">
<circle cx="6.3250" cy="19.0400" r="0.5000" /> 
</g>
<g style="fill:#FFFFFF; fill-opacity:1.0000; stroke:none;">
<circle cx="6.3250" cy="21.5800" r="0.5000" /> 
</g>
<g style="fill:#FFFFFF; fill-opacity:1.0000; stroke:none;">
<circle cx="6.3250" cy="24.1200" r="0.5000" /> 
</g>
<g style="fill:#FFFFFF; fill-opacity:1.0000; stroke:none;">
<circle cx="6.3250" cy="26.6600" r="0.5000" /> 
</g>
<g style="fill:#FFFFFF; fill-opacity:1.0000; stroke:none;">
<circle cx="6.3250" cy="29.2000" r="0.5000" /> 
</g>
<g style="fill:#FFFFFF; fill-opacity:1.0000; stroke:none;">
<circle cx="6.3250" cy="31.7400" r="0.5000" /> 
</g>
<g style="fill:#FFFFFF; fill-opacity:1.0000; stroke:none;">
<circle cx="6.3250" cy="34.2800" r="0.5000" /> 
</g>
<g style="fill:#FFFFFF; fill-opacity:1.0000; stroke:none;">
<circle cx="6.3250" cy="36.8200" r="0.5000" /> 
</g>
<g style="fill:#FFFFFF; fill-opacity:1.0000; stroke:none;">
<circle cx="6.3250" cy="39.3600" r="0.5000" /> 
</g>
<g style="fill:#FFFFFF; fill-opacity:1.0000; stroke:none;">
<circle cx="6.3250" cy="41.9000" r="0.5000" /> 
</g>
<g style="fill:#FFFFFF; fill-opacity:1.0000; stroke:none;">
<circle cx="6.3250" cy="44.4400" r="0.5000" /> 
</g>
<g style="fill:#FFFFFF; fill-opacity:1.0000; stroke:none;">
<circle cx="6.3250" cy="46.9800" r="0.5000" /> 
</g>
<g style="fill:#FFFFFF; fill-opacity:1.0000; stroke:none;">
<circle cx="6.3250" cy="49.5200" r="0.5000" /> 
</g>
<g style="fill:#FFFFFF; fill-opacity:1.0000; stroke:none;">
<circle cx="6.3250" cy="52.0600" r="0.5000" /> 
</g>
<g style="fill:#FFFFFF; fill-opacity:1.0000; stroke:none;">
<circle cx="6.3250" cy="54.6000" r="0.5000" /> 
</g>
<g style="fill:#FFFFFF; fill-opacity:1.0000; stroke:none;">
<circle cx="6.3250" cy="57.1400" r="0.5000" /> 
</g>
<g style="fill:#FFFFFF; fill-opacity:1.0000; stroke:none;">
<circle cx="44.4250" cy="11.4200" r="0.5000" /> 
</g>
<g style="fill:#FFFFFF; fill-opacity:1.0000; stroke:none;">
<circle cx="44.4250" cy="13.9600" r="0.5000" /> 
</g>
<g style="fill:#FFFFFF; fill-opacity:1.0000; stroke:none;">
<circle cx="44.4250" cy="16.5000" r="0.5000" /> 
</g>
<g style="fill:#FFFFFF; fill-opacity:1.0000; stroke:none;">
<circle cx="44.4250" cy="19.0400" r="0.5000" /> 
</g>
<g style="fill:#FFFFFF; fill-opacity:1.0000; stroke:none;">
<circle cx="44.4250" cy="21.5800" r="0.5000" /> 
</g>
<g style="fill:#FFFFFF; fill-opacity:1.0000; stroke:none;">
<circle cx="44.4250" cy="24.1200" r="0.5000" /> 
</g>
<g style="fill:#FFFFFF; fill-opacity:1.0000; stroke:none;">
<circle cx="44.4250" cy="26.6600" r="0.5000" /> 
</g>
<g style="fill:#FFFFFF; fill-opacity:1.0000; stroke:none;">
<circle cx="44.4250" cy="29.2000" r="0.5000" /> 
</g>
<g style="fill:#FFFFFF; fill-opacity:1.0000; stroke:none;">
<circle cx="44.4250" cy="31.7400" r="0.5000" /> 
</g>
<g style="fill:#FFFFFF; fill-opacity:1.0000; stroke:none;">
<circle cx="44.4250" cy="34.2800" r="0.5000" /> 
</g>
<g style="fill:#FFFFFF; fill-opacity:1.0000; stroke:none;">
<circle cx="44.4250" cy="36.8200" r="0.5000" /> 
</g>
<g style="fill:#FFFFFF; fill-opacity:1.0000; stroke:none;">
<circle cx="44.4250" cy="39.3600" r="0.5000" /> 
</g>
<g style="fill:#FFFFFF; fill-opacity:1.0000; stroke:none;">
<circle cx="44.4250" cy="41.9000" r="0.5000" /> 
</g>
<g style="fill:#FFFFFF; fill-opacity:1.0000; stroke:none;">
<circle cx="44.4250" cy="44.4400" r="0.5000" /> 
</g>
<g style="fill:#FFFFFF; fill-opacity:1.0000; stroke:none;">
<circle cx="44.4250" cy="46.9800" r="0.5000" /> 
</g>
<g style="fill:#FFFFFF; fill-opacity:1.0000; stroke:none;">
<circle cx="44.4250" cy="49.5200" r="0.5000" /> 
</g>
<g style="fill:#FFFFFF; fill-opacity:1.0000; stroke:none;">
<circle cx="44.4250" cy="52.0600" r="0.5000" /> 
</g>
<g style="fill:#FFFFFF; fill-opacity:1.0000; stroke:none;">
<circle cx="44.4250" cy="54.6000" r="0.5000" /> 
</g>
<g style="fill:#FFFFFF; fill-opacity:1.0000; stroke:none;">
<circle cx="44.4250" cy="57.1400" r="0.5000" /> 
</g>
<g style="fill:#FFFFFF; fill-opacity:1.0000; stroke:none;">
<circle cx="46.9900" cy="11.4300" r="0.5000" /> 
</g>
<g style="fill:#FFFFFF; fill-opacity:1.0000; stroke:none;">
<circle cx="46.9900" cy="13.9700" r="0.5000" /> 
</g>
<g style="fill:#FFFFFF; fill-opacity:1.0000; stroke:none;">
<circle cx="46.9900" cy="16.5100" r="0.5000" /> 
</g>
<g style="fill:#FFFFFF; fill-opacity:1.0000; stroke:none;">
<circle cx="46.9900" cy="19.0500" r="0.5000" /> 
</g>
<g style="fill:#FFFFFF; fill-opacity:1.0000; stroke:none;">
<circle cx="46.9900" cy="21.5900" r="0.5000" /> 
</g>
<g style="fill:#FFFFFF; fill-opacity:1.0000; stroke:none;">
<circle cx="46.9900" cy="24.1300" r="0.5000" /> 
</g>
<g style="fill:#FFFFFF; fill-opacity:1.0000; stroke:none;">
<circle cx="46.9900" cy="26.6700" r="0.5000" /> 
</g>
<g style="fill:#FFFFFF; fill-opacity:1.0000; stroke:none;">
<circle cx="46.9900" cy="29.2100" r="0.5000" /> 
</g>
<g style="fill:#FFFFFF; fill-opacity:1.0000; stroke:none;">
<circle cx="46.9900" cy="31.7500" r="0.5000" /> 
</g>
<g style="fill:#FFFFFF; fill-opacity:1.0000; stroke:none;">
<circle cx="46.9900" cy="34.2900" r="0.5000" /> 
</g>
<g style="fill:#FFFFFF; fill-opacity:1.0000; stroke:none;">
<circle cx="46.9900" cy="36.8300" r="0.5000" /> 
</g>
<g style="fill:#FFFFFF; fill-opacity:1.0000; stroke:none;">
<circle cx="46.9900" cy="39.3700" r="0.5000" /> 
</g>
<g style="fill:#FFFFFF; fill-opacity:1.0000; stroke:none;">
<circle cx="46.9900" cy="41.9100" r="0.5000" /> 
</g>
<g style="fill:#FFFFFF; fill-opacity:1.0000; stroke:none;">
<circle cx="46.9900" cy="44.4500" r="0.5000" /> 
</g>
<g style="fill:#FFFFFF; fill-opacity:1.0000; stroke:none;">
<circle cx="46.9900" cy="46.9900" r="0.5000" /> 
</g>
<g style="fill:#FFFFFF; fill-opacity:1.0000; stroke:none;">
<circle cx="46.9900" cy="49.5300" r="0.5000" /> 
</g>
<g style="fill:#FFFFFF; fill-opacity:1.0000; stroke:none;">
<circle cx="46.9900" cy="52.0700" r="0.5000" /> 
</g>
<g style="fill:#FFFFFF; fill-opacity:1.0000; stroke:none;">
<circle cx="46.9900" cy="54.6100" r="0.5000" /> 
</g>
<g style="fill:#FFFFFF; fill-opacity:1.0000; stroke:none;">
<circle cx="46.9900" cy="57.1500" r="0.5000" /> 
</g>
<g style="fill:#FFFFFF; fill-opacity:1.0000; stroke:none;">
<circle cx="41.8600" cy="57.1300" r="0.5000" /> 
</g>
<g style="fill:#FFFFFF; fill-opacity:1.0000; stroke:none;">
<circle cx="41.8600" cy="54.5900" r="0.5000" /> 
</g>
<g style="fill:#FFFFFF; fill-opacity:1.0000; stroke:none;">
<circle cx="41.8600" cy="52.0500" r="0.5000" /> 
</g>
<g style="fill:#FFFFFF; fill-opacity:1.0000; stroke:none;">
<circle cx="41.8600" cy="49.5100" r="0.5000" /> 
</g>
<g style="fill:#FFFFFF; fill-opacity:1.0000; stroke:none;">
<circle cx="41.8600" cy="46.9700" r="0.5000" /> 
</g>
<g style="fill:#FFFFFF; fill-opacity:1.0000; stroke:none;">
<circle cx="41.8600" cy="44.4300" r="0.5000" /> 
</g>
<g style="fill:#FFFFFF; fill-opacity:1.0000; stroke:none;">
<circle cx="41.8600" cy="41.8900" r="0.5000" /> 
</g>
<g style="fill:#FFFFFF; fill-opacity:1.0000; stroke:none;">
<circle cx="41.8600" cy="39.3500" r="0.5000" /> 
</g>
<g style="fill:#FFFFFF; fill-opacity:1.0000; stroke:none;">
<circle cx="41.8600" cy="36.8100" r="0.5000" /> 
</g>
<g style="fill:#FFFFFF; fill-opacity:1.0000; stroke:none;">
<circle cx="41.8600" cy="34.2700" r="0.5000" /> 
</g>
<g style="fill:#FFFFFF; fill-opacity:1.0000; stroke:none;">
<circle cx="41.8600" cy="31.7300" r="0.5000" /> 
</g>
<g style="fill:#FFFFFF; fill-opacity:1.0000; stroke:none;">
<circle cx="41.8600" cy="29.1900" r="0.5000" /> 
</g>
<g style="fill:#FFFFFF; fill-opacity:1.0000; stroke:none;">
<circle cx="41.8600" cy="26.6500" r="0.5000" /> 
</g>
<g style="fill:#FFFFFF; fill-opacity:1.0000; stroke:none;">
<circle cx="41.8600" cy="24.1100" r="0.5000" /> 
</g>
<g style="fill:#FFFFFF; fill-opacity:1.0000; stroke:none;">
<circle cx="41.8600" cy="21.5700" r="0.5000" /> 
</g>
<g style="fill:#FFFFFF; fill-opacity:1.0000; stroke:none;">
<circle cx="41.8600" cy="19.0300" r="0.5000" /> 
</g>
<g style="fill:#FFFFFF; fill-opacity:1.0000; stroke:none;">
<circle cx="41.8600" cy="16.4900" r="0.5000" /> 
</g>
<g style="fill:#FFFFFF; fill-opacity:1.0000; stroke:none;">
<circle cx="41.8600" cy="13.9500" r="0.5000" /> 
</g>
<g style="fill:#FFFFFF; fill-opacity:1.0000; stroke:none;">
<circle cx="41.8600" cy="11.4100" r="0.5000" /> 
</g>
<g style="fill:#FFFFFF; fill-opacity:1.0000; stroke:none;">
<circle cx="8.8650" cy="11.4200" r="0.5000" /> 
</g>
<g style="fill:#FFFFFF; fill-opacity:1.0000; stroke:none;">
<circle cx="8.8650" cy="13.9600" r="0.5000" /> 
</g>
<g style="fill:#FFFFFF; fill-opacity:1.0000; stroke:none;">
<circle cx="8.8650" cy="16.5000" r="0.5000" /> 
</g>
<g style="fill:#FFFFFF; fill-opacity:1.0000; stroke:none;">
<circle cx="8.8650" cy="19.0400" r="0.5000" /> 
</g>
<g style="fill:#FFFFFF; fill-opacity:1.0000; stroke:none;">
<circle cx="8.8650" cy="21.5800" r="0.5000" /> 
</g>
<g style="fill:#FFFFFF; fill-opacity:1.0000; stroke:none;">
<circle cx="8.8650" cy="24.1200" r="0.5000" /> 
</g>
<g style="fill:#FFFFFF; fill-opacity:1.0000; stroke:none;">
<circle cx="8.8650" cy="26.6600" r="0.5000" /> 
</g>
<g style="fill:#FFFFFF; fill-opacity:1.0000; stroke:none;">
<circle cx="8.8650" cy="29.2000" r="0.5000" /> 
</g>
<g style="fill:#FFFFFF; fill-opacity:1.0000; stroke:none;">
<circle cx="8.8650" cy="31.7400" r="0.5000" /> 
</g>
<g style="fill:#FFFFFF; fill-opacity:1.0000; stroke:none;">
<circle cx="8.8650" cy="34.2800" r="0.5000" /> 
</g>
<g style="fill:#FFFFFF; fill-opacity:1.0000; stroke:none;">
<circle cx="8.8650" cy="36.8200" r="0.5000" /> 
</g>
<g style="fill:#FFFFFF; fill-opacity:1.0000; stroke:none;">
<circle cx="8.8650" cy="39.3600" r="0.5000" /> 
</g>
<g style="fill:#FFFFFF; fill-opacity:1.0000; stroke:none;">
<circle cx="8.8650" cy="41.9000" r="0.5000" /> 
</g>
<g style="fill:#FFFFFF; fill-opacity:1.0000; stroke:none;">
<circle cx="8.8650" cy="44.4400" r="0.5000" /> 
</g>
<g style="fill:#FFFFFF; fill-opacity:1.0000; stroke:none;">
<circle cx="8.8650" cy="46.9800" r="0.5000" /> 
</g>
<g style="fill:#FFFFFF; fill-opacity:1.0000; stroke:none;">
<circle cx="8.8650" cy="49.5200" r="0.5000" /> 
</g>
<g style="fill:#FFFFFF; fill-opacity:1.0000; stroke:none;">
<circle cx="8.8650" cy="52.0600" r="0.5000" /> 
</g>
<g style="fill:#FFFFFF; fill-opacity:1.0000; stroke:none;">
<circle cx="8.8650" cy="54.6000" r="0.5000" /> 
</g>
<g style="fill:#FFFFFF; fill-opacity:1.0000; stroke:none;">
<circle cx="8.8650" cy="57.1400" r="0.5000" /> 
</g>
<g style="fill:#FFFFFF; fill-opacity:1.0000; stroke:none;">
<circle cx="39.3950" cy="4.2010" r="0.5000" /> 
</g>
<g style="fill:#FFFFFF; fill-opacity:1.0000; stroke:none;">
<circle cx="41.9350" cy="4.2010" r="0.5000" /> 
</g>
<g style="fill:#FFFFFF; fill-opacity:1.0000; stroke:none;">
<circle cx="44.4750" cy="4.2010" r="0.5000" /> 
</g>
<g style="fill:#FFFFFF; fill-opacity:1.0000; stroke:none;">
<circle cx="47.0150" cy="4.2010" r="0.5000" /> 
</g>
<g style="fill:#FFFFFF; fill-opacity:1.0000; stroke:none;">
<circle cx="13.9700" cy="4.4450" r="0.5000" /> 
</g>
<g style="fill:#FFFFFF; fill-opacity:1.0000; stroke:none;">
<circle cx="11.4300" cy="4.4450" r="0.5000" /> 
</g>
<g style="fill:#FFFFFF; fill-opacity:1.0000; stroke:none;">
<circle cx="8.8900" cy="4.4450" r="0.5000" /> 
</g>
<g style="fill:#FFFFFF; fill-opacity:1.0000; stroke:none;">
<circle cx="6.3500" cy="4.4450" r="0.5000" /> 
</g>
<g style="fill:#FFFFFF; fill-opacity:1.0000; stroke:none;">
<circle cx="15.2150" cy="11.4200" r="0.3937" /> 
</g>
<g style="fill:#FFFFFF; fill-opacity:1.0000; stroke:none;">
<circle cx="15.2150" cy="13.9600" r="0.3937" /> 
</g>
<g style="fill:#FFFFFF; fill-opacity:1.0000; stroke:none;">
<circle cx="15.2150" cy="16.5000" r="0.3937" /> 
</g>
<g style="fill:#FFFFFF; fill-opacity:1.0000; stroke:none;">
<circle cx="15.2150" cy="19.0400" r="0.3937" /> 
</g>
<g style="fill:#FFFFFF; fill-opacity:1.0000; stroke:none;">
<circle cx="15.2150" cy="21.5800" r="0.3937" /> 
</g>
<g style="fill:#FFFFFF; fill-opacity:1.0000; stroke:none;">
<circle cx="15.2150" cy="24.1200" r="0.3937" /> 
</g>
<g style="fill:#FFFFFF; fill-opacity:1.0000; stroke:none;">
<circle cx="15.2150" cy="26.6600" r="0.3937" /> 
</g>
<g style="fill:#FFFFFF; fill-opacity:1.0000; stroke:none;">
<circle cx="15.2150" cy="29.2000" r="0.3937" /> 
</g>
<g style="fill:#FFFFFF; fill-opacity:1.0000; stroke:none;">
<circle cx="15.2150" cy="31.7400" r="0.3937" /> 
</g>
<g style="fill:#FFFFFF; fill-opacity:1.0000; stroke:none;">
<circle cx="15.2150" cy="34.2800" r="0.3937" /> 
</g>
<g style="fill:#FFFFFF; fill-opacity:1.0000; stroke:none;">
<circle cx="15.2150" cy="36.8200" r="0.3937" /> 
</g>
<g style="fill:#FFFFFF; fill-opacity:1.0000; stroke:none;">
<circle cx="15.2150" cy="39.3600" r="0.3937" /> 
</g>
<g style="fill:#FFFFFF; fill-opacity:1.0000; stroke:none;">
<circle cx="15.2150" cy="41.9000" r="0.3937" /> 
</g>
<g style="fill:#FFFFFF; fill-opacity:1.0000; stroke:none;">
<circle cx="15.2150" cy="44.4400" r="0.3937" /> 
</g>
<g style="fill:#FFFFFF; fill-opacity:1.0000; stroke:none;">
<circle cx="15.2150" cy="46.9800" r="0.3937" /> 
</g>
<g style="fill:#FFFFFF; fill-opacity:1.0000; stroke:none;">
<circle cx="15.2150" cy="49.5200" r="0.3937" /> 
</g>
<g style="fill:#FFFFFF; fill-opacity:1.0000; stroke:none;">
<circle cx="15.2150" cy="52.0600" r="0.3937" /> 
</g>
<g style="fill:#FFFFFF; fill-opacity:1.0000; stroke:none;">
<circle cx="15.2150" cy="54.6000" r="0.3937" /> 
</g>
<g style="fill:#FFFFFF; fill-opacity:1.0000; stroke:none;">
<circle cx="15.2150" cy="57.1400" r="0.3937" /> 
</g>
<g style="fill:#FFFFFF; fill-opacity:1.0000; stroke:none;">
<circle cx="38.0750" cy="11.4200" r="0.3937" /> 
</g>
<g style="fill:#FFFFFF; fill-opacity:1.0000; stroke:none;">
<circle cx="38.0750" cy="13.9600" r="0.3937" /> 
</g>
<g style="fill:#FFFFFF; fill-opacity:1.0000; stroke:none;">
<circle cx="38.0750" cy="16.5000" r="0.3937" /> 
</g>
<g style="fill:#FFFFFF; fill-opacity:1.0000; stroke:none;">
<circle cx="38.0750" cy="19.0400" r="0.3937" /> 
</g>
<g style="fill:#FFFFFF; fill-opacity:1.0000; stroke:none;">
<circle cx="38.0750" cy="21.5800" r="0.3937" /> 
</g>
<g style="fill:#FFFFFF; fill-opacity:1.0000; stroke:none;">
<circle cx="38.0750" cy="24.1200" r="0.3937" /> 
</g>
<g style="fill:#FFFFFF; fill-opacity:1.0000; stroke:none;">
<circle cx="38.0750" cy="26.6600" r="0.3937" /> 
</g>
<g style="fill:#FFFFFF; fill-opacity:1.0000; stroke:none;">
<circle cx="38.0750" cy="29.2000" r="0.3937" /> 
</g>
<g style="fill:#FFFFFF; fill-opacity:1.0000; stroke:none;">
<circle cx="38.0750" cy="31.7400" r="0.3937" /> 
</g>
<g style="fill:#FFFFFF; fill-opacity:1.0000; stroke:none;">
<circle cx="38.0750" cy="34.2800" r="0.3937" /> 
</g>
<g style="fill:#FFFFFF; fill-opacity:1.0000; stroke:none;">
<circle cx="38.0750" cy="36.8200" r="0.3937" /> 
</g>
<g style="fill:#FFFFFF; fill-opacity:1.0000; stroke:none;">
<circle cx="38.0750" cy="39.3600" r="0.3937" /> 
</g>
<g style="fill:#FFFFFF; fill-opacity:1.0000; stroke:none;">
<circle cx="38.0750" cy="41.9000" r="0.3937" /> 
</g>
<g style="fill:#FFFFFF; fill-opacity:1.0000; stroke:none;">
<circle cx="38.0750" cy="44.4400" r="0.3937" /> 
</g>
<g style="fill:#FFFFFF; fill-opacity:1.0000; stroke:none;">
<circle cx="38.0750" cy="46.9800" r="0.3937" /> 
</g>
<g style="fill:#FFFFFF; fill-opacity:1.0000; stroke:none;">
<circle cx="38.0750" cy="49.5200" r="0.3937" /> 
</g>
<g style="fill:#FFFFFF; fill-opacity:1.0000; stroke:none;">
<circle cx="38.0750" cy="52.0600" r="0.3937" /> 
</g>
<g style="fill:#FFFFFF; fill-opacity:1.0000; stroke:none;">
<circle cx="38.0750" cy="54.6000" r="0.3937" /> 
</g>
<g style="fill:#FFFFFF; fill-opacity:1.0000; stroke:none;">
<circle cx="38.0750" cy="57.1400" r="0.3937" /> 
</g>
<g style="fill:#FFFFFF; fill-opacity:1.0000; stroke:none;">
<circle cx="11.4300" cy="11.4300" r="0.5000" /> 
</g>
<g style="fill:#FFFFFF; fill-opacity:1.0000; stroke:none;">
<circle cx="11.4300" cy="13.9700" r="0.5000" /> 
</g>
<g style="fill:#FFFFFF; fill-opacity:1.0000; stroke:none;">
<circle cx="11.4300" cy="16.5100" r="0.5000" /> 
</g>
<g style="fill:#FFFFFF; fill-opacity:1.0000; stroke:none;">
<circle cx="11.4300" cy="19.0500" r="0.5000" /> 
</g>
<g style="fill:#FFFFFF; fill-opacity:1.0000; stroke:none;">
<circle cx="11.4300" cy="21.5900" r="0.5000" /> 
</g>
<g style="fill:#FFFFFF; fill-opacity:1.0000; stroke:none;">
<circle cx="11.4300" cy="24.1300" r="0.5000" /> 
</g>
<g style="fill:#FFFFFF; fill-opacity:1.0000; stroke:none;">
<circle cx="11.4300" cy="26.6700" r="0.5000" /> 
</g>
<g style="fill:#FFFFFF; fill-opacity:1.0000; stroke:none;">
<circle cx="11.4300" cy="29.2100" r="0.5000" /> 
</g>
<g style="fill:#FFFFFF; fill-opacity:1.0000; stroke:none;">
<circle cx="11.4300" cy="31.7500" r="0.5000" /> 
</g>
<g style="fill:#FFFFFF; fill-opacity:1.0000; stroke:none;">
<circle cx="11.4300" cy="34.2900" r="0.5000" /> 
</g>
<g style="fill:#FFFFFF; fill-opacity:1.0000; stroke:none;">
<circle cx="11.4300" cy="36.8300" r="0.5000" /> 
</g>
<g style="fill:#FFFFFF; fill-opacity:1.0000; stroke:none;">
<circle cx="11.4300" cy="39.3700" r="0.5000" /> 
</g>
<g style="fill:#FFFFFF; fill-opacity:1.0000; stroke:none;">
<circle cx="11.4300" cy="41.9100" r="0.5000" /> 
</g>
<g style="fill:#FFFFFF; fill-opacity:1.0000; stroke:none;">
<circle cx="11.4300" cy="44.4500" r="0.5000" /> 
</g>
<g style="fill:#FFFFFF; fill-opacity:1.0000; stroke:none;">
<circle cx="11.4300" cy="46.9900" r="0.5000" /> 
</g>
<g style="fill:#FFFFFF; fill-opacity:1.0000; stroke:none;">
<circle cx="11.4300" cy="49.5300" r="0.5000" /> 
</g>
<g style="fill:#FFFFFF; fill-opacity:1.0000; stroke:none;">
<circle cx="11.4300" cy="52.0700" r="0.5000" /> 
</g>
<g style="fill:#FFFFFF; fill-opacity:1.0000; stroke:none;">
<circle cx="11.4300" cy="54.6100" r="0.5000" /> 
</g>
<g style="fill:#FFFFFF; fill-opacity:1.0000; stroke:none;">
<circle cx="11.4300" cy="57.1500" r="0.5000" /> 
</g> 
</svg>
