<?xml version="1.0" standalone="no"?>
 <!DOCTYPE svg PUBLIC "-//W3C//DTD SVG 1.1//EN" 
 "http://www.w3.org/Graphics/SVG/1.1/DTD/svg11.dtd"> 
<svg
  xmlns:svg="http://www.w3.org/2000/svg"
  xmlns="http://www.w3.org/2000/svg"
  xmlns:xlink="http://www.w3.org/1999/xlink"
  version="1.1"
  width="48.2600mm" height="70.3580mm" viewBox="0.0000 0.0000 48.2600 70.3580">
<title>SVG Image created as front.svg date 2025/12/13 16:16:48 </title>
  <desc>Image generated by PCBNEW </desc>
<g style="fill:#000000; fill-opacity:1.0000;stroke:#000000; stroke-opacity:1.0000;
stroke-linecap:round; stroke-linejoin:round;"
 transform="translate(0 0) scale(1 1)">
</g>
<g style="fill:#000000; fill-opacity:1.0000; 
stroke:#000000; stroke-width:0.0212; stroke-opacity:1; 
stroke-linecap:round; stroke-linejoin:round;">
<rect x="-6.203250" y="-6.618250" width="60.666500" height="82.103250" rx="0.000000" />
<path style="fill:#FFFFFF; fill-opacity:1.0000; stroke:none;fill-rule:evenodd;"
d="M 27.2150,7.5800
27.2150,8.4800
25.2150,8.4800
25.2150,7.5800
Z" /> 
<path style="fill:#FFFFFF; fill-opacity:1.0000; stroke:none;fill-rule:evenodd;"
d="M 24.0150,5.5800
24.0150,6.4800
22.0150,6.4800
22.0150,5.5800
Z" /> 
<path style="fill:#FFFFFF; fill-opacity:1.0000; stroke:none;fill-rule:evenodd;"
d="M 27.2150,3.5800
27.2150,4.4800
25.2150,4.4800
25.2150,3.5800
Z" /> 
<path style="fill:#FFFFFF; fill-opacity:1.0000; stroke:none;fill-rule:evenodd;"
d="M 24.0150,1.5800
24.0150,2.4800
22.0150,2.4800
22.0150,1.5800
Z" /> 
<path style="fill:#FFFFFF; fill-opacity:1.0000; stroke:none;fill-rule:evenodd;"
d="M 41.2150,25.2950
41.2150,24.3950
43.2150,24.3950
43.2150,25.2950
Z" /> 
<path style="fill:#FFFFFF; fill-opacity:1.0000; stroke:none;fill-rule:evenodd;"
d="M 44.4150,27.2950
44.4150,26.3950
46.4150,26.3950
46.4150,27.2950
Z" /> 
<path style="fill:#FFFFFF; fill-opacity:1.0000; stroke:none;fill-rule:evenodd;"
d="M 41.2150,29.2950
41.2150,28.3950
43.2150,28.3950
43.2150,29.2950
Z" /> 
<path style="fill:#FFFFFF; fill-opacity:1.0000; stroke:none;fill-rule:evenodd;"
d="M 44.4150,31.2950
44.4150,30.3950
46.4150,30.3950
46.4150,31.2950
Z" /> 
<path style="fill:#FFFFFF; fill-opacity:1.0000; stroke:none;fill-rule:evenodd;"
d="M 41.2150,33.2950
41.2150,32.3950
43.2150,32.3950
43.2150,33.2950
Z" /> 
<path style="fill:#FFFFFF; fill-opacity:1.0000; stroke:none;fill-rule:evenodd;"
d="M 44.4150,35.2950
44.4150,34.3950
46.4150,34.3950
46.4150,35.2950
Z" /> 
<path style="fill:#FFFFFF; fill-opacity:1.0000; stroke:none;fill-rule:evenodd;"
d="M 12.0650,12.7000
12.0650,11.4300
15.8750,11.4300
15.8750,12.7000
Z" /> 
<path style="fill:#FFFFFF; fill-opacity:1.0000; stroke:none;fill-rule:evenodd;"
d="M 9.5250,15.2400
9.5250,13.9700
13.3350,13.9700
13.3350,15.2400
Z" /> 
<path style="fill:#FFFFFF; fill-opacity:1.0000; stroke:none;fill-rule:evenodd;"
d="M 12.0650,17.7800
12.0650,16.5100
15.8750,16.5100
15.8750,17.7800
Z" /> 
<path style="fill:#FFFFFF; fill-opacity:1.0000; stroke:none;fill-rule:evenodd;"
d="M 9.5250,20.3200
9.5250,19.0500
13.3350,19.0500
13.3350,20.3200
Z" /> 
<path style="fill:#FFFFFF; fill-opacity:1.0000; stroke:none;fill-rule:evenodd;"
d="M 12.0650,22.8600
12.0650,21.5900
15.8750,21.5900
15.8750,22.8600
Z" /> 
<path style="fill:#FFFFFF; fill-opacity:1.0000; stroke:none;fill-rule:evenodd;"
d="M 9.5250,25.4000
9.5250,24.1300
13.3350,24.1300
13.3350,25.4000
Z" /> 
<path style="fill:#FFFFFF; fill-opacity:1.0000; stroke:none;fill-rule:evenodd;"
d="M 12.0650,27.9400
12.0650,26.6700
15.8750,26.6700
15.8750,27.9400
Z" /> 
<path style="fill:#FFFFFF; fill-opacity:1.0000; stroke:none;fill-rule:evenodd;"
d="M 9.5250,30.4800
9.5250,29.2100
13.3350,29.2100
13.3350,30.4800
Z" /> 
<path style="fill:#FFFFFF; fill-opacity:1.0000; stroke:none;fill-rule:evenodd;"
d="M 12.0650,33.0200
12.0650,31.7500
15.8750,31.7500
15.8750,33.0200
Z" /> 
<path style="fill:#FFFFFF; fill-opacity:1.0000; stroke:none;fill-rule:evenodd;"
d="M 9.5250,35.5600
9.5250,34.2900
13.3350,34.2900
13.3350,35.5600
Z" /> 
<path style="fill:#FFFFFF; fill-opacity:1.0000; stroke:none;fill-rule:evenodd;"
d="M 12.0650,38.1000
12.0650,36.8300
15.8750,36.8300
15.8750,38.1000
Z" /> 
<path style="fill:#FFFFFF; fill-opacity:1.0000; stroke:none;fill-rule:evenodd;"
d="M 9.5250,40.6400
9.5250,39.3700
13.3350,39.3700
13.3350,40.6400
Z" /> 
<path style="fill:#FFFFFF; fill-opacity:1.0000; stroke:none;fill-rule:evenodd;"
d="M 12.0650,43.1800
12.0650,41.9100
15.8750,41.9100
15.8750,43.1800
Z" /> 
<path style="fill:#FFFFFF; fill-opacity:1.0000; stroke:none;fill-rule:evenodd;"
d="M 9.5250,45.7200
9.5250,44.4500
13.3350,44.4500
13.3350,45.7200
Z" /> 
<path style="fill:#FFFFFF; fill-opacity:1.0000; stroke:none;fill-rule:evenodd;"
d="M 12.0650,48.2600
12.0650,46.9900
15.8750,46.9900
15.8750,48.2600
Z" /> 
<path style="fill:#FFFFFF; fill-opacity:1.0000; stroke:none;fill-rule:evenodd;"
d="M 9.5250,50.8000
9.5250,49.5300
13.3350,49.5300
13.3350,50.8000
Z" /> 
<path style="fill:#FFFFFF; fill-opacity:1.0000; stroke:none;fill-rule:evenodd;"
d="M 12.0650,53.3400
12.0650,52.0700
15.8750,52.0700
15.8750,53.3400
Z" /> 
<path style="fill:#FFFFFF; fill-opacity:1.0000; stroke:none;fill-rule:evenodd;"
d="M 9.5250,55.8800
9.5250,54.6100
13.3350,54.6100
13.3350,55.8800
Z" /> 
<path style="fill:#FFFFFF; fill-opacity:1.0000; stroke:none;fill-rule:evenodd;"
d="M 12.0650,58.4200
12.0650,57.1500
15.8750,57.1500
15.8750,58.4200
Z" /> 
<path style="fill:#FFFFFF; fill-opacity:1.0000; stroke:none;fill-rule:evenodd;"
d="M 34.9250,12.7000
34.9250,11.4300
38.7350,11.4300
38.7350,12.7000
Z" /> 
<path style="fill:#FFFFFF; fill-opacity:1.0000; stroke:none;fill-rule:evenodd;"
d="M 32.3850,15.2400
32.3850,13.9700
36.1950,13.9700
36.1950,15.2400
Z" /> 
<path style="fill:#FFFFFF; fill-opacity:1.0000; stroke:none;fill-rule:evenodd;"
d="M 34.9250,17.7800
34.9250,16.5100
38.7350,16.5100
38.7350,17.7800
Z" /> 
<path style="fill:#FFFFFF; fill-opacity:1.0000; stroke:none;fill-rule:evenodd;"
d="M 32.3850,20.3200
32.3850,19.0500
36.1950,19.0500
36.1950,20.3200
Z" /> 
<path style="fill:#FFFFFF; fill-opacity:1.0000; stroke:none;fill-rule:evenodd;"
d="M 34.9250,22.8600
34.9250,21.5900
38.7350,21.5900
38.7350,22.8600
Z" /> 
<path style="fill:#FFFFFF; fill-opacity:1.0000; stroke:none;fill-rule:evenodd;"
d="M 32.3850,25.4000
32.3850,24.1300
36.1950,24.1300
36.1950,25.4000
Z" /> 
<path style="fill:#FFFFFF; fill-opacity:1.0000; stroke:none;fill-rule:evenodd;"
d="M 34.9250,27.9400
34.9250,26.6700
38.7350,26.6700
38.7350,27.9400
Z" /> 
<path style="fill:#FFFFFF; fill-opacity:1.0000; stroke:none;fill-rule:evenodd;"
d="M 32.3850,30.4800
32.3850,29.2100
36.1950,29.2100
36.1950,30.4800
Z" /> 
<path style="fill:#FFFFFF; fill-opacity:1.0000; stroke:none;fill-rule:evenodd;"
d="M 34.9250,33.0200
34.9250,31.7500
38.7350,31.7500
38.7350,33.0200
Z" /> 
<path style="fill:#FFFFFF; fill-opacity:1.0000; stroke:none;fill-rule:evenodd;"
d="M 32.3850,35.5600
32.3850,34.2900
36.1950,34.2900
36.1950,35.5600
Z" /> 
<path style="fill:#FFFFFF; fill-opacity:1.0000; stroke:none;fill-rule:evenodd;"
d="M 34.9250,38.1000
34.9250,36.8300
38.7350,36.8300
38.7350,38.1000
Z" /> 
<path style="fill:#FFFFFF; fill-opacity:1.0000; stroke:none;fill-rule:evenodd;"
d="M 32.3850,40.6400
32.3850,39.3700
36.1950,39.3700
36.1950,40.6400
Z" /> 
<path style="fill:#FFFFFF; fill-opacity:1.0000; stroke:none;fill-rule:evenodd;"
d="M 34.9250,43.1800
34.9250,41.9100
38.7350,41.9100
38.7350,43.1800
Z" /> 
<path style="fill:#FFFFFF; fill-opacity:1.0000; stroke:none;fill-rule:evenodd;"
d="M 32.3850,45.7200
32.3850,44.4500
36.1950,44.4500
36.1950,45.7200
Z" /> 
<path style="fill:#FFFFFF; fill-opacity:1.0000; stroke:none;fill-rule:evenodd;"
d="M 34.9250,48.2600
34.9250,46.9900
38.7350,46.9900
38.7350,48.2600
Z" /> 
<path style="fill:#FFFFFF; fill-opacity:1.0000; stroke:none;fill-rule:evenodd;"
d="M 32.3850,50.8000
32.3850,49.5300
36.1950,49.5300
36.1950,50.8000
Z" /> 
<path style="fill:#FFFFFF; fill-opacity:1.0000; stroke:none;fill-rule:evenodd;"
d="M 34.9250,53.3400
34.9250,52.0700
38.7350,52.0700
38.7350,53.3400
Z" /> 
<path style="fill:#FFFFFF; fill-opacity:1.0000; stroke:none;fill-rule:evenodd;"
d="M 32.3850,55.8800
32.3850,54.6100
36.1950,54.6100
36.1950,55.8800
Z" /> 
<path style="fill:#FFFFFF; fill-opacity:1.0000; stroke:none;fill-rule:evenodd;"
d="M 34.9250,58.4200
34.9250,57.1500
38.7350,57.1500
38.7350,58.4200
Z" /> 
<path style="fill:#FFFFFF; fill-opacity:1.0000; stroke:none;fill-rule:evenodd;"
d="M 5.9950,25.9750
6.8950,25.9750
6.8950,27.9750
5.9950,27.9750
Z" /> 
<path style="fill:#FFFFFF; fill-opacity:1.0000; stroke:none;fill-rule:evenodd;"
d="M 3.9950,29.1750
4.8950,29.1750
4.8950,31.1750
3.9950,31.1750
Z" /> 
<path style="fill:#FFFFFF; fill-opacity:1.0000; stroke:none;fill-rule:evenodd;"
d="M 1.9950,25.9750
2.8950,25.9750
2.8950,27.9750
1.9950,27.9750
Z" /> 
<path style="fill:#FFFFFF; fill-opacity:1.0000; stroke:none;fill-rule:evenodd;"
d="M 5.9950,65.0400
6.8950,65.0400
6.8950,67.0400
5.9950,67.0400
Z" /> 
<path style="fill:#FFFFFF; fill-opacity:1.0000; stroke:none;fill-rule:evenodd;"
d="M 3.9950,61.8400
4.8950,61.8400
4.8950,63.8400
3.9950,63.8400
Z" /> 
<path style="fill:#FFFFFF; fill-opacity:1.0000; stroke:none;fill-rule:evenodd;"
d="M 1.9950,65.0400
2.8950,65.0400
2.8950,67.0400
1.9950,67.0400
Z" /> 
<path style="fill:#FFFFFF; fill-opacity:1.0000; stroke:none;fill-rule:evenodd;"
d="M 42.2650,59.1150
41.3650,59.1150
41.3650,57.1150
42.2650,57.1150
Z" /> 
<path style="fill:#FFFFFF; fill-opacity:1.0000; stroke:none;fill-rule:evenodd;"
d="M 44.2650,55.9150
43.3650,55.9150
43.3650,53.9150
44.2650,53.9150
Z" /> 
<path style="fill:#FFFFFF; fill-opacity:1.0000; stroke:none;fill-rule:evenodd;"
d="M 46.2650,59.1150
45.3650,59.1150
45.3650,57.1150
46.2650,57.1150
Z" /> 
<path style="fill:#FFFFFF; fill-opacity:1.0000; stroke:none;fill-rule:evenodd;"
d="M 5.9950,52.3400
6.8950,52.3400
6.8950,54.3400
5.9950,54.3400
Z" /> 
<path style="fill:#FFFFFF; fill-opacity:1.0000; stroke:none;fill-rule:evenodd;"
d="M 3.9950,49.1400
4.8950,49.1400
4.8950,51.1400
3.9950,51.1400
Z" /> 
<path style="fill:#FFFFFF; fill-opacity:1.0000; stroke:none;fill-rule:evenodd;"
d="M 1.9950,52.3400
2.8950,52.3400
2.8950,54.3400
1.9950,54.3400
Z" /> 
<path style="fill:#FFFFFF; fill-opacity:1.0000; stroke:none;fill-rule:evenodd;"
d="M 42.2650,46.4150
41.3650,46.4150
41.3650,44.4150
42.2650,44.4150
Z" /> 
<path style="fill:#FFFFFF; fill-opacity:1.0000; stroke:none;fill-rule:evenodd;"
d="M 44.2650,43.2150
43.3650,43.2150
43.3650,41.2150
44.2650,41.2150
Z" /> 
<path style="fill:#FFFFFF; fill-opacity:1.0000; stroke:none;fill-rule:evenodd;"
d="M 46.2650,46.4150
45.3650,46.4150
45.3650,44.4150
46.2650,44.4150
Z" /> 
<path style="fill:#FFFFFF; fill-opacity:1.0000; stroke:none;fill-rule:evenodd;"
d="M 46.4150,20.3300
46.4150,21.2300
44.4150,21.2300
44.4150,20.3300
Z" /> 
<path style="fill:#FFFFFF; fill-opacity:1.0000; stroke:none;fill-rule:evenodd;"
d="M 43.2150,18.3300
43.2150,19.2300
41.2150,19.2300
41.2150,18.3300
Z" /> 
<path style="fill:#FFFFFF; fill-opacity:1.0000; stroke:none;fill-rule:evenodd;"
d="M 46.4150,16.3300
46.4150,17.2300
44.4150,17.2300
44.4150,16.3300
Z" /> 
<path style="fill:#FFFFFF; fill-opacity:1.0000; stroke:none;fill-rule:evenodd;"
d="M 43.2150,14.3300
43.2150,15.2300
41.2150,15.2300
41.2150,14.3300
Z" /> 
<path style="fill:#FFFFFF; fill-opacity:1.0000; stroke:none;fill-rule:evenodd;"
d="M 14.5150,7.5800
14.5150,8.4800
12.5150,8.4800
12.5150,7.5800
Z" /> 
<path style="fill:#FFFFFF; fill-opacity:1.0000; stroke:none;fill-rule:evenodd;"
d="M 11.3150,5.5800
11.3150,6.4800
9.3150,6.4800
9.3150,5.5800
Z" /> 
<path style="fill:#FFFFFF; fill-opacity:1.0000; stroke:none;fill-rule:evenodd;"
d="M 14.5150,3.5800
14.5150,4.4800
12.5150,4.4800
12.5150,3.5800
Z" /> 
<path style="fill:#FFFFFF; fill-opacity:1.0000; stroke:none;fill-rule:evenodd;"
d="M 11.3150,1.5800
11.3150,2.4800
9.3150,2.4800
9.3150,1.5800
Z" /> 
<path style="fill:#FFFFFF; fill-opacity:1.0000; stroke:none;fill-rule:evenodd;"
d="M 5.9950,19.6250
6.8950,19.6250
6.8950,21.6250
5.9950,21.6250
Z" /> 
<path style="fill:#FFFFFF; fill-opacity:1.0000; stroke:none;fill-rule:evenodd;"
d="M 3.9950,22.8250
4.8950,22.8250
4.8950,24.8250
3.9950,24.8250
Z" /> 
<path style="fill:#FFFFFF; fill-opacity:1.0000; stroke:none;fill-rule:evenodd;"
d="M 1.9950,19.6250
2.8950,19.6250
2.8950,21.6250
1.9950,21.6250
Z" /> 
<path style="fill:#FFFFFF; fill-opacity:1.0000; stroke:none;fill-rule:evenodd;"
d="M 20.8650,7.5800
20.8650,8.4800
18.8650,8.4800
18.8650,7.5800
Z" /> 
<path style="fill:#FFFFFF; fill-opacity:1.0000; stroke:none;fill-rule:evenodd;"
d="M 17.6650,5.5800
17.6650,6.4800
15.6650,6.4800
15.6650,5.5800
Z" /> 
<path style="fill:#FFFFFF; fill-opacity:1.0000; stroke:none;fill-rule:evenodd;"
d="M 20.8650,3.5800
20.8650,4.4800
18.8650,4.4800
18.8650,3.5800
Z" /> 
<path style="fill:#FFFFFF; fill-opacity:1.0000; stroke:none;fill-rule:evenodd;"
d="M 17.6650,1.5800
17.6650,2.4800
15.6650,2.4800
15.6650,1.5800
Z" /> 
<path style="fill:#FFFFFF; fill-opacity:1.0000; stroke:none;fill-rule:evenodd;"
d="M 8.3150,43.2850
8.3150,44.1850
6.3150,44.1850
6.3150,43.2850
Z" /> 
<path style="fill:#FFFFFF; fill-opacity:1.0000; stroke:none;fill-rule:evenodd;"
d="M 5.1150,41.2850
5.1150,42.1850
3.1150,42.1850
3.1150,41.2850
Z" /> 
<path style="fill:#FFFFFF; fill-opacity:1.0000; stroke:none;fill-rule:evenodd;"
d="M 8.3150,39.2850
8.3150,40.1850
6.3150,40.1850
6.3150,39.2850
Z" /> 
<path style="fill:#FFFFFF; fill-opacity:1.0000; stroke:none;fill-rule:evenodd;"
d="M 5.1150,37.2850
5.1150,38.1850
3.1150,38.1850
3.1150,37.2850
Z" /> 
<path style="fill:#FFFFFF; fill-opacity:1.0000; stroke:none;fill-rule:evenodd;"
d="M 8.3150,35.2850
8.3150,36.1850
6.3150,36.1850
6.3150,35.2850
Z" /> 
<path style="fill:#FFFFFF; fill-opacity:1.0000; stroke:none;fill-rule:evenodd;"
d="M 5.1150,33.2850
5.1150,34.1850
3.1150,34.1850
3.1150,33.2850
Z" /> 
<path style="fill:#FFFFFF; fill-opacity:1.0000; stroke:none;fill-rule:evenodd;"
d="M 33.5650,7.5800
33.5650,8.4800
31.5650,8.4800
31.5650,7.5800
Z" /> 
<path style="fill:#FFFFFF; fill-opacity:1.0000; stroke:none;fill-rule:evenodd;"
d="M 30.3650,5.5800
30.3650,6.4800
28.3650,6.4800
28.3650,5.5800
Z" /> 
<path style="fill:#FFFFFF; fill-opacity:1.0000; stroke:none;fill-rule:evenodd;"
d="M 33.5650,3.5800
33.5650,4.4800
31.5650,4.4800
31.5650,3.5800
Z" /> 
<path style="fill:#FFFFFF; fill-opacity:1.0000; stroke:none;fill-rule:evenodd;"
d="M 30.3650,1.5800
30.3650,2.4800
28.3650,2.4800
28.3650,1.5800
Z" /> 
<path style="fill:#FFFFFF; fill-opacity:1.0000; stroke:none;fill-rule:evenodd;"
d="M 42.2650,52.7650
41.3650,52.7650
41.3650,50.7650
42.2650,50.7650
Z" /> 
<path style="fill:#FFFFFF; fill-opacity:1.0000; stroke:none;fill-rule:evenodd;"
d="M 44.2650,49.5650
43.3650,49.5650
43.3650,47.5650
44.2650,47.5650
Z" /> 
<path style="fill:#FFFFFF; fill-opacity:1.0000; stroke:none;fill-rule:evenodd;"
d="M 46.2650,52.7650
45.3650,52.7650
45.3650,50.7650
46.2650,50.7650
Z" /> 
<path style="fill:#FFFFFF; fill-opacity:1.0000; stroke:none;fill-rule:evenodd;"
d="M 5.9950,58.6900
6.8950,58.6900
6.8950,60.6900
5.9950,60.6900
Z" /> 
<path style="fill:#FFFFFF; fill-opacity:1.0000; stroke:none;fill-rule:evenodd;"
d="M 3.9950,55.4900
4.8950,55.4900
4.8950,57.4900
3.9950,57.4900
Z" /> 
<path style="fill:#FFFFFF; fill-opacity:1.0000; stroke:none;fill-rule:evenodd;"
d="M 1.9950,58.6900
2.8950,58.6900
2.8950,60.6900
1.9950,60.6900
Z" /> 
</g>
<g style="fill:#FFFFFF; fill-opacity:1.0000; stroke:none;">
<circle cx="35.5600" cy="8.8900" r="0.7620" /> 
</g>
<g style="fill:#FFFFFF; fill-opacity:1.0000; stroke:none;">
<circle cx="8.2550" cy="46.3550" r="1.0160" /> 
</g>
<g style="fill:#FFFFFF; fill-opacity:1.0000; stroke:none;">
<circle cx="35.5600" cy="1.9050" r="0.7620" /> 
</g>
<g style="fill:#FFFFFF; fill-opacity:1.0000; stroke:none;">
<circle cx="1.7780" cy="46.4820" r="1.0160" /> 
</g>
<g style="fill:#FFFFFF; fill-opacity:1.0000; stroke:none;">
<circle cx="38.7350" cy="24.7650" r="1.0160" /> 
</g>
<g style="fill:#FFFFFF; fill-opacity:1.0000; stroke:none;">
<circle cx="38.7350" cy="14.6050" r="1.0160" /> 
</g>
<g style="fill:none; 
stroke:#FFFFFF; stroke-width:0.5080; stroke-opacity:1; 
stroke-linecap:round; stroke-linejoin:round;">
<path d="M40.6400 37.4650
L35.5600 37.4650
" />
<path d="M41.8150 45.4150
L41.8150 38.6400
" />
<path d="M41.8150 38.6400
L40.6400 37.4650
" />
<path d="M1.2700 36.1657
L1.2700 46.3550
" />
</g>
<g style="fill:none; 
stroke:#FFFFFF; stroke-width:1.0160; stroke-opacity:1; 
stroke-linecap:round; stroke-linejoin:round;">
<path d="M4.3200 2.0300
L2.4450 3.9050
" />
</g>
<g style="fill:none; 
stroke:#FFFFFF; stroke-width:0.5080; stroke-opacity:1; 
stroke-linecap:round; stroke-linejoin:round;">
<path d="M29.3650 2.0300
L35.4350 2.0300
" />
<path d="M2.4450 32.0650
L4.1150 33.7350
" />
<path d="M29.3650 2.0300
L23.0150 2.0300
" />
<path d="M23.0150 2.0300
L16.6650 2.0300
" />
</g>
<g style="fill:none; 
stroke:#FFFFFF; stroke-width:1.0160; stroke-opacity:1; 
stroke-linecap:round; stroke-linejoin:round;">
<path d="M2.4450 67.2150
L4.4450 69.2150
" />
</g>
<g style="fill:none; 
stroke:#FFFFFF; stroke-width:0.8890; stroke-opacity:1; 
stroke-linecap:round; stroke-linejoin:round;">
<path d="M35.5600 27.3050
L30.4800 27.3050
" />
</g>
<g style="fill:none; 
stroke:#FFFFFF; stroke-width:0.5080; stroke-opacity:1; 
stroke-linecap:round; stroke-linejoin:round;">
<path d="M2.4450 53.3400
L2.4450 59.6900
" />
<path d="M1.2700 46.3550
L1.2700 47.6250
" />
<path d="M2.4450 66.0400
L2.4450 67.2150
" />
</g>
<g style="fill:none; 
stroke:#FFFFFF; stroke-width:0.7620; stroke-opacity:1; 
stroke-linecap:round; stroke-linejoin:round;">
<path d="M45.8150 51.7650
L45.8150 45.4150
" />
</g>
<g style="fill:none; 
stroke:#FFFFFF; stroke-width:0.5080; stroke-opacity:1; 
stroke-linecap:round; stroke-linejoin:round;">
<path d="M2.4450 59.6900
L2.4450 66.0400
" />
<path d="M2.4450 20.6250
L2.4450 26.9750
" />
</g>
<g style="fill:none; 
stroke:#FFFFFF; stroke-width:0.7620; stroke-opacity:1; 
stroke-linecap:round; stroke-linejoin:round;">
<path d="M35.5600 12.0650
L40.4580 12.0650
" />
</g>
<g style="fill:none; 
stroke:#FFFFFF; stroke-width:1.0160; stroke-opacity:1; 
stroke-linecap:round; stroke-linejoin:round;">
<path d="M40.6400 69.2150
L45.8150 64.0400
" />
<path d="M10.3150 2.0300
L4.3200 2.0300
" />
</g>
<g style="fill:none; 
stroke:#FFFFFF; stroke-width:0.8890; stroke-opacity:1; 
stroke-linecap:round; stroke-linejoin:round;">
<path d="M17.1450 45.0850
L12.7000 45.0850
" />
</g>
<g style="fill:none; 
stroke:#FFFFFF; stroke-width:0.5080; stroke-opacity:1; 
stroke-linecap:round; stroke-linejoin:round;">
<path d="M4.1150 33.7350
L3.7007 33.7350
" />
<path d="M2.4450 26.9750
L2.4450 32.0650
" />
</g>
<g style="fill:none; 
stroke:#FFFFFF; stroke-width:1.0160; stroke-opacity:1; 
stroke-linecap:round; stroke-linejoin:round;">
<path d="M4.4450 69.2150
L40.6400 69.2150
" />
</g>
<g style="fill:none; 
stroke:#FFFFFF; stroke-width:0.5080; stroke-opacity:1; 
stroke-linecap:round; stroke-linejoin:round;">
<path d="M45.8150 44.5450
L45.4150 44.1450
" />
</g>
<g style="fill:none; 
stroke:#FFFFFF; stroke-width:0.7620; stroke-opacity:1; 
stroke-linecap:round; stroke-linejoin:round;">
<path d="M42.2150 13.8220
L42.2150 14.7800
" />
</g>
<g style="fill:none; 
stroke:#FFFFFF; stroke-width:1.0160; stroke-opacity:1; 
stroke-linecap:round; stroke-linejoin:round;">
<path d="M45.8150 64.0400
L45.8150 58.1150
" />
</g>
<g style="fill:none; 
stroke:#FFFFFF; stroke-width:0.5080; stroke-opacity:1; 
stroke-linecap:round; stroke-linejoin:round;">
<path d="M11.4300 46.3550
L12.7000 45.0850
" />
<path d="M1.2700 47.6250
L2.5400 48.8950
" />
<path d="M35.4350 2.0300
L35.5600 1.9050
" />
<path d="M8.2550 46.3550
L11.4300 46.3550
" />
<path d="M3.7007 33.7350
L1.2700 36.1657
" />
<path d="M10.3150 2.0300
L16.6650 2.0300
" />
</g>
<g style="fill:none; 
stroke:#FFFFFF; stroke-width:0.7620; stroke-opacity:1; 
stroke-linecap:round; stroke-linejoin:round;">
<path d="M45.4150 44.1450
L45.4150 34.8450
" />
</g>
<g style="fill:none; 
stroke:#FFFFFF; stroke-width:0.5080; stroke-opacity:1; 
stroke-linecap:round; stroke-linejoin:round;">
<path d="M2.4450 48.9900
L2.4450 53.3400
" />
</g>
<g style="fill:none; 
stroke:#FFFFFF; stroke-width:1.0160; stroke-opacity:1; 
stroke-linecap:round; stroke-linejoin:round;">
<path d="M2.4450 3.9050
L2.4450 20.6250
" />
</g>
<g style="fill:none; 
stroke:#FFFFFF; stroke-width:0.8890; stroke-opacity:1; 
stroke-linecap:round; stroke-linejoin:round;">
<path d="M30.4800 27.3050
L17.1450 45.0850
" />
</g>
<g style="fill:none; 
stroke:#FFFFFF; stroke-width:0.5080; stroke-opacity:1; 
stroke-linecap:round; stroke-linejoin:round;">
<path d="M35.5600 8.8900
L35.5600 12.0650
" />
</g>
<g style="fill:none; 
stroke:#FFFFFF; stroke-width:0.7620; stroke-opacity:1; 
stroke-linecap:round; stroke-linejoin:round;">
<path d="M40.4580 12.0650
L42.2150 13.8220
" />
</g>
<g style="fill:none; 
stroke:#FFFFFF; stroke-width:0.5080; stroke-opacity:1; 
stroke-linecap:round; stroke-linejoin:round;">
<path d="M45.8150 45.4150
L45.8150 44.5450
" />
</g>
<g style="fill:none; 
stroke:#FFFFFF; stroke-width:0.7620; stroke-opacity:1; 
stroke-linecap:round; stroke-linejoin:round;">
<path d="M45.8150 58.1150
L45.8150 51.7650
" />
</g>
<g style="fill:none; 
stroke:#FFFFFF; stroke-width:0.5080; stroke-opacity:1; 
stroke-linecap:round; stroke-linejoin:round;">
<path d="M2.5400 48.8950
L2.4450 48.9900
" />
<path d="M19.8650 4.0300
L13.5150 4.0300
" />
<path d="M2.3520 42.5450
L2.5400 43.1800
" />
<path d="M4.4450 30.7250
L7.3150 33.5950
" />
<path d="M4.4450 23.8250
L4.4450 30.1750
" />
<path d="M4.4450 30.1750
L4.4450 30.7250
" />
</g>
<g style="fill:none; 
stroke:#FFFFFF; stroke-width:1.0160; stroke-opacity:1; 
stroke-linecap:round; stroke-linejoin:round;">
<path d="M6.1300 4.0300
L4.4450 5.7150
" />
<path d="M4.4450 62.8400
L4.4450 67.0160
" />
</g>
<g style="fill:none; 
stroke:#FFFFFF; stroke-width:0.5080; stroke-opacity:1; 
stroke-linecap:round; stroke-linejoin:round;">
<path d="M7.3150 33.5950
L7.3150 35.7350
" />
</g>
<g style="fill:none; 
stroke:#FFFFFF; stroke-width:1.0160; stroke-opacity:1; 
stroke-linecap:round; stroke-linejoin:round;">
<path d="M9.5250 67.9450
L12.0650 65.4050
" />
</g>
<g style="fill:none; 
stroke:#FFFFFF; stroke-width:0.5080; stroke-opacity:1; 
stroke-linecap:round; stroke-linejoin:round;">
<path d="M32.5650 4.0300
L26.2150 4.0300
" />
<path d="M3.1390 35.7350
L2.3520 36.5220
" />
<path d="M42.2150 32.8450
L42.2150 36.5000
" />
</g>
<g style="fill:none; 
stroke:#FFFFFF; stroke-width:1.0160; stroke-opacity:1; 
stroke-linecap:round; stroke-linejoin:round;">
<path d="M4.4450 67.0160
L5.3740 67.9450
" />
<path d="M4.4450 5.7150
L4.4450 17.5240
" />
<path d="M37.5010 65.4050
L43.8150 59.0910
" />
</g>
<g style="fill:none; 
stroke:#FFFFFF; stroke-width:0.5080; stroke-opacity:1; 
stroke-linecap:round; stroke-linejoin:round;">
<path d="M4.4450 50.1400
L4.4450 56.4900
" />
</g>
<g style="fill:none; 
stroke:#FFFFFF; stroke-width:1.0160; stroke-opacity:1; 
stroke-linecap:round; stroke-linejoin:round;">
<path d="M12.7000 12.0650
L9.9040 12.0650
" />
<path d="M43.8150 59.0910
L43.8150 54.9150
" />
</g>
<g style="fill:none; 
stroke:#FFFFFF; stroke-width:0.5080; stroke-opacity:1; 
stroke-linecap:round; stroke-linejoin:round;">
<path d="M26.2150 4.0300
L19.8650 4.0300
" />
<path d="M2.5400 43.1800
L4.4450 50.1400
" />
</g>
<g style="fill:none; 
stroke:#FFFFFF; stroke-width:1.0160; stroke-opacity:1; 
stroke-linecap:round; stroke-linejoin:round;">
<path d="M12.0650 65.4050
L37.5010 65.4050
" />
</g>
<g style="fill:none; 
stroke:#FFFFFF; stroke-width:0.5080; stroke-opacity:1; 
stroke-linecap:round; stroke-linejoin:round;">
<path d="M43.8150 38.1000
L43.8150 42.2150
" />
</g>
<g style="fill:none; 
stroke:#FFFFFF; stroke-width:1.0160; stroke-opacity:1; 
stroke-linecap:round; stroke-linejoin:round;">
<path d="M4.4450 17.5240
L4.4450 23.8250
" />
<path d="M32.5650 4.0300
L36.4150 4.0300
" />
<path d="M45.4150 13.0300
L45.4150 16.7800
" />
</g>
<g style="fill:none; 
stroke:#FFFFFF; stroke-width:0.5080; stroke-opacity:1; 
stroke-linecap:round; stroke-linejoin:round;">
<path d="M2.3520 36.5220
L2.3520 42.5450
" />
<path d="M4.4450 56.4900
L4.4450 62.8400
" />
<path d="M43.8150 54.9150
L43.8150 48.5650
" />
<path d="M7.3150 35.7350
L3.1390 35.7350
" />
<path d="M43.8150 42.2150
L43.8150 48.5650
" />
</g>
<g style="fill:none; 
stroke:#FFFFFF; stroke-width:1.0160; stroke-opacity:1; 
stroke-linecap:round; stroke-linejoin:round;">
<path d="M36.4150 4.0300
L45.4150 13.0300
" />
</g>
<g style="fill:none; 
stroke:#FFFFFF; stroke-width:0.5080; stroke-opacity:1; 
stroke-linecap:round; stroke-linejoin:round;">
<path d="M42.2150 36.5000
L43.8150 38.1000
" />
</g>
<g style="fill:none; 
stroke:#FFFFFF; stroke-width:1.0160; stroke-opacity:1; 
stroke-linecap:round; stroke-linejoin:round;">
<path d="M13.5150 4.0300
L6.1300 4.0300
" />
<path d="M9.9040 12.0650
L4.4450 17.5240
" />
<path d="M5.3740 67.9450
L9.5250 67.9450
" />
</g>
<g style="fill:none; 
stroke:#FFFFFF; stroke-width:0.5080; stroke-opacity:1; 
stroke-linecap:round; stroke-linejoin:round;">
<path d="M40.6020 50.5520
L41.8150 51.7650
" />
<path d="M40.6020 42.5830
L40.6020 50.5520
" />
<path d="M35.5600 40.0050
L38.1000 40.0050
" />
<path d="M38.1000 40.0050
L40.6400 42.5450
" />
<path d="M40.6400 42.5450
L40.6020 42.5830
" />
<path d="M6.4450 55.3400
L11.4300 60.3250
" />
<path d="M18.4150 57.7850
L18.4150 46.3550
" />
<path d="M6.4450 53.3400
L6.4450 55.3400
" />
<path d="M11.4300 60.3250
L15.8750 60.3250
" />
<path d="M15.8750 60.3250
L18.4150 57.7850
" />
<path d="M18.4150 46.3550
L19.6850 45.0850
" />
<path d="M19.6850 45.0850
L35.5600 45.0850
" />
<path d="M25.4000 15.8750
L19.6850 10.1600
" />
<path d="M16.6650 6.0300
L10.3150 6.0300
" />
<path d="M35.5600 24.7650
L32.3850 24.7650
" />
<path d="M19.6850 10.1600
L12.7000 10.1600
" />
<path d="M32.3850 24.7650
L25.4000 17.7800
" />
<path d="M10.3150 7.7750
L10.3150 6.0300
" />
<path d="M12.7000 10.1600
L10.3150 7.7750
" />
<path d="M29.3650 6.0300
L23.0150 6.0300
" />
<path d="M23.0150 6.0300
L16.6650 6.0300
" />
<path d="M25.4000 17.7800
L25.4000 15.8750
" />
<path d="M30.4800 16.5100
L30.4800 13.3350
" />
<path d="M32.5650 11.2500
L32.5650 8.0300
" />
<path d="M31.1150 17.1450
L30.4800 16.5100
" />
<path d="M19.8650 8.0300
L13.5150 8.0300
" />
<path d="M35.5600 17.1450
L31.1150 17.1450
" />
<path d="M32.5650 8.0300
L26.2150 8.0300
" />
<path d="M30.4800 13.3350
L32.5650 11.2500
" />
<path d="M26.2150 8.0300
L19.8650 8.0300
" />
<path d="M41.4500 20.7800
L40.0050 22.2250
" />
<path d="M45.4150 20.7800
L41.4500 20.7800
" />
<path d="M40.0050 22.2250
L35.5600 22.2250
" />
<path d="M39.0050 18.7800
L38.1000 19.6850
" />
<path d="M42.2150 18.7800
L39.0050 18.7800
" />
<path d="M38.1000 19.6850
L35.5600 19.6850
" />
<path d="M8.0970 61.3420
L16.2963 61.3420
" />
<path d="M6.4450 59.6900
L8.0970 61.3420
" />
<path d="M19.4320 58.2063
L19.4320 47.6250
" />
<path d="M19.4320 47.6250
L35.5600 47.6250
" />
<path d="M16.2963 61.3420
L19.4320 58.2063
" />
<path d="M35.5600 14.6050
L38.7350 14.6050
" />
<path d="M40.0850 24.8450
L42.2150 24.8450
" />
<path d="M38.7350 24.7650
L40.0850 24.8450
" />
<path d="M45.4150 26.8450
L41.2390 26.8450
" />
<path d="M41.2390 26.8450
L38.2390 29.8450
" />
<path d="M38.2390 29.8450
L35.5600 29.8450
" />
<path d="M39.4980 33.7830
L38.3560 34.9250
" />
<path d="M39.4980 33.0003
L39.4980 33.7830
" />
<path d="M38.3560 34.9250
L35.5600 34.9250
" />
<path d="M45.4150 30.8450
L41.6533 30.8450
" />
<path d="M41.6533 30.8450
L39.4980 33.0003
" />
<path d="M35.5600 32.3850
L37.4650 32.3850
" />
<path d="M41.0050 28.8450
L42.2150 28.8450
" />
<path d="M38.6750 32.3850
L35.5600 32.3850
" />
<path d="M37.4650 32.3850
L41.0050 28.8450
" />
<path d="M9.5250 62.9600
L9.5250 62.3590
" />
<path d="M6.4450 66.0400
L9.5250 62.9600
" />
<path d="M23.6240 50.1650
L35.5600 50.1650
" />
<path d="M16.7175 62.3590
L20.4490 58.6275
" />
<path d="M9.5250 62.3590
L16.7175 62.3590
" />
<path d="M20.4490 58.6275
L20.4490 53.3400
" />
<path d="M20.4490 53.3400
L23.6240 50.1650
" />
<path d="M9.5250 32.3850
L12.7000 32.3850
" />
<path d="M8.2550 31.1150
L9.5250 32.3850
" />
<path d="M8.2550 22.4350
L8.2550 31.1150
" />
<path d="M6.4450 20.6250
L8.2550 22.4350
" />
<path d="M10.6267 34.9250
L12.7000 34.9250
" />
<path d="M6.4450 26.9750
L6.4450 30.7433
" />
<path d="M6.4450 30.7433
L10.6267 34.9250
" />
<path d="M11.8900 41.7350
L12.7000 42.5450
" />
<path d="M4.1150 41.7350
L11.8900 41.7350
" />
<path d="M4.1150 37.7350
L12.4300 37.7350
" />
<path d="M12.4300 37.7350
L12.7000 37.4650
" />
<path d="M7.3150 44.7550
L5.7150 46.3550
" />
<path d="M5.9700 47.8800
L12.4450 47.8800
" />
<path d="M5.7150 47.6250
L5.9700 47.8800
" />
<path d="M7.3150 43.7350
L7.3150 44.7550
" />
<path d="M5.7150 46.3550
L5.7150 47.6250
" />
<path d="M12.4450 47.8800
L12.7000 47.6250
" />
<path d="M12.4300 39.7350
L12.7000 40.0050
" />
<path d="M7.3150 39.7350
L12.4300 39.7350
" />
<path d="M39.4980 43.3080
L39.4980 52.8330
" />
<path d="M41.8150 55.3400
L41.8150 58.1150
" />
<path d="M41.9100 55.2450
L41.8150 55.3400
" />
<path d="M35.5600 42.5450
L38.7350 42.5450
" />
<path d="M39.4980 52.8330
L41.9100 55.2450
" />
<path d="M38.7350 42.5450
L39.4980 43.3080
" />
<path style="fill:#FFFFFF; fill-opacity:1.0000; stroke:none;fill-rule:evenodd;"
d="M 19.2796,11.1962
19.3003,11.2128
24.3472,16.2597
24.3807,16.3211
24.3835,16.3474
24.3835,17.6799
24.3835,17.8801
24.3835,17.8801
24.3835,17.8801
24.4226,18.0765
24.4226,18.0765
24.4992,18.2615
24.6104,18.4280
24.6104,18.4280
31.5901,25.4076
31.6236,25.4690
31.6258,25.4827
31.6332,25.5552
31.6892,25.7244
31.6892,25.7244
31.7082,25.7552
31.7828,25.8761
31.9089,26.0022
32.0606,26.0958
32.2298,26.1518
32.3342,26.1625
36.2458,26.1625
36.3502,26.1518
36.5194,26.0958
36.6711,26.0022
36.7972,25.8761
36.8908,25.7244
36.9295,25.6076
36.9692,25.5502
37.0338,25.5233
37.1025,25.5357
37.1537,25.5832
37.1546,25.5846
37.2531,25.7552
37.3950,25.9402
37.3950,25.9402
37.5598,26.1050
37.5598,26.1050
37.7448,26.2469
37.9467,26.3635
37.9467,26.3635
38.1621,26.4527
38.1621,26.4527
38.3873,26.5131
38.6184,26.5435
38.6184,26.5435
38.8516,26.5435
38.8516,26.5435
39.0827,26.5131
39.3079,26.4527
39.5233,26.3635
39.7252,26.2469
39.9102,26.1050
40.0750,25.9402
40.0981,25.9100
40.1546,25.8688
40.1965,25.8615
40.4856,25.8615
40.5526,25.8812
40.5984,25.9340
40.6083,26.0031
40.5793,26.0667
40.5733,26.0732
37.8543,28.7922
37.7929,28.8257
37.7666,28.8285
36.9248,28.8285
36.8577,28.8088
36.8192,28.7696
36.7972,28.7339
36.7972,28.7339
36.6711,28.6078
36.6711,28.6078
36.5194,28.5142
36.4485,28.4907
36.3502,28.4582
36.3502,28.4582
36.2458,28.4475
32.3342,28.4475
32.3342,28.4475
32.2298,28.4582
32.0606,28.5142
32.0606,28.5142
31.9088,28.6078
31.7828,28.7338
31.6892,28.8856
31.6892,28.8856
31.6332,29.0548
31.6332,29.0548
31.6225,29.1592
31.6225,30.5308
31.6225,30.5308
31.6332,30.6352
31.6332,30.6352
31.6892,30.8044
31.7828,30.9561
31.9089,31.0822
32.0606,31.1758
32.2298,31.2318
32.3342,31.2425
34.1200,31.2425
34.1870,31.2622
34.2328,31.3150
34.2427,31.3841
34.2304,31.4182
34.2323,31.4190
34.2292,31.4256
34.1732,31.5948
34.1732,31.5948
34.1625,31.6992
34.1625,33.0708
34.1625,33.0708
34.1732,33.1752
34.2292,33.3444
34.2323,33.3510
34.2294,33.3523
34.2439,33.4065
34.2226,33.4730
34.1687,33.5175
34.1200,33.5275
32.3342,33.5275
32.3342,33.5275
32.2298,33.5382
32.0606,33.5942
32.0606,33.5942
31.9088,33.6878
31.7828,33.8138
31.6892,33.9656
31.6892,33.9656
31.6332,34.1348
31.6332,34.1348
31.6225,34.2392
31.6225,35.6108
31.6225,35.6108
31.6331,35.7146
31.6332,35.7152
31.6892,35.8844
31.7828,36.0361
31.9089,36.1622
32.0606,36.2558
32.2298,36.3118
32.3342,36.3225
34.1200,36.3225
34.1870,36.3422
34.2328,36.3950
34.2427,36.4641
34.2304,36.4982
34.2323,36.4990
34.2292,36.5056
34.1732,36.6748
34.1732,36.6748
34.1625,36.7792
34.1625,38.1508
34.1625,38.1508
34.1732,38.2552
34.2292,38.4244
34.2323,38.4310
34.2294,38.4323
34.2439,38.4865
34.2226,38.5530
34.1687,38.5975
34.1200,38.6075
32.3342,38.6075
32.3342,38.6075
32.2298,38.6182
32.0606,38.6742
32.0606,38.6742
31.9088,38.7678
31.7828,38.8938
31.6892,39.0456
31.6892,39.0456
31.6332,39.2148
31.6332,39.2148
31.6225,39.3192
31.6225,40.6908
31.6225,40.6908
31.6332,40.7952
31.6892,40.9644
31.6892,40.9644
31.6933,40.9710
31.7828,41.1161
31.9089,41.2422
32.0606,41.3358
32.2298,41.3918
32.3342,41.4025
34.1200,41.4025
34.1870,41.4222
34.2328,41.4750
34.2427,41.5441
34.2304,41.5782
34.2323,41.5790
34.2292,41.5856
34.1732,41.7548
34.1732,41.7548
34.1625,41.8592
34.1625,43.2308
34.1625,43.2308
34.1732,43.3352
34.2292,43.5044
34.2323,43.5110
34.2294,43.5123
34.2439,43.5665
34.2226,43.6330
34.1687,43.6775
34.1200,43.6875
32.3342,43.6875
32.3342,43.6875
32.2298,43.6982
32.0606,43.7542
32.0606,43.7542
31.9088,43.8478
31.7828,43.9738
31.7828,43.9739
31.7608,44.0096
31.7088,44.0563
31.6552,44.0685
19.5849,44.0685
19.3885,44.1076
19.3885,44.1076
19.2035,44.1842
19.0370,44.2954
19.0370,44.2954
17.9295,45.4030
17.7670,45.5654
17.6962,45.6362
17.6254,45.7070
17.5142,45.8735
17.4376,46.0585
17.4376,46.0585
17.3985,46.2549
17.3985,57.3126
17.3788,57.3796
17.3622,57.4003
16.8492,57.9133
16.7879,57.9468
16.7182,57.9418
16.6622,57.8999
16.6378,57.8344
16.6375,57.8256
16.6375,57.0992
16.6375,57.0992
16.6375,57.0992
16.6268,56.9948
16.5708,56.8256
16.4772,56.6739
16.3511,56.5478
16.1994,56.4542
16.1994,56.4542
16.0302,56.3982
16.0302,56.3982
15.9258,56.3875
15.9258,56.3875
14.1400,56.3875
14.0730,56.3678
14.0272,56.3150
14.0173,56.2459
14.0296,56.2119
14.0277,56.2110
14.0308,56.2044
14.0308,56.2044
14.0868,56.0352
14.0975,55.9308
14.0975,54.5592
14.0868,54.4548
14.0308,54.2856
14.0308,54.2856
14.0277,54.2790
14.0306,54.2777
14.0161,54.2238
14.0372,54.1572
14.0910,54.1126
14.1400,54.1025
15.9258,54.1025
15.9258,54.1025
16.0302,54.0918
16.1994,54.0358
16.3511,53.9422
16.4772,53.8161
16.5708,53.6644
16.6268,53.4952
16.6375,53.3908
16.6375,52.0192
16.6268,51.9148
16.5708,51.7456
16.4772,51.5939
16.3511,51.4678
16.1994,51.3742
16.1994,51.3742
16.0302,51.3182
16.0302,51.3182
15.9258,51.3075
15.9258,51.3075
14.1400,51.3075
14.0730,51.2878
14.0272,51.2350
14.0173,51.1659
14.0296,51.1319
14.0277,51.1310
14.0308,51.1244
14.0308,51.1244
14.0868,50.9552
14.0975,50.8508
14.0975,49.4792
14.0868,49.3748
14.0308,49.2056
14.0308,49.2056
14.0277,49.1990
14.0306,49.1977
14.0161,49.1438
14.0372,49.0772
14.0910,49.0326
14.1400,49.0225
15.9258,49.0225
15.9258,49.0225
16.0302,49.0118
16.1994,48.9558
16.3511,48.8622
16.4772,48.7361
16.5708,48.5844
16.6268,48.4152
16.6375,48.3108
16.6375,46.9392
16.6268,46.8348
16.5708,46.6656
16.4772,46.5139
16.3511,46.3878
16.1994,46.2942
16.0807,46.2549
16.0302,46.2382
16.0302,46.2382
15.9258,46.2275
12.0142,46.2275
12.0142,46.2275
11.9098,46.2382
11.7406,46.2942
11.7406,46.2942
11.5888,46.3878
11.4628,46.5138
11.3692,46.6656
11.3692,46.6656
11.3318,46.7785
11.2920,46.8359
11.2275,46.8628
11.2141,46.8635
6.9434,46.8635
6.8764,46.8438
6.8306,46.7910
6.8207,46.7219
6.8497,46.6583
6.8557,46.6518
8.1046,45.4030
8.1046,45.4030
8.2158,45.2365
8.2924,45.0515
8.2942,45.0429
8.3265,44.9809
8.3873,44.9464
8.4032,44.9437
8.4702,44.9368
8.6394,44.8808
8.7911,44.7872
8.9172,44.6611
9.0108,44.5094
9.0668,44.3402
9.0775,44.2358
9.0775,43.2342
9.0668,43.1298
9.0108,42.9606
9.0108,42.9606
9.0108,42.9606
8.9985,42.9406
8.9800,42.8732
9.0009,42.8065
9.0546,42.7618
9.1040,42.7515
11.1785,42.7515
11.2455,42.7712
11.2913,42.8240
11.3025,42.8755
11.3025,43.2308
11.3061,43.2658
11.3132,43.3352
11.3692,43.5044
11.4628,43.6561
11.5889,43.7822
11.7406,43.8758
11.9098,43.9318
12.0142,43.9425
15.9258,43.9425
16.0302,43.9318
16.1994,43.8758
16.3511,43.7822
16.4772,43.6561
16.5708,43.5044
16.6268,43.3352
16.6375,43.2308
16.6375,41.8592
16.6268,41.7548
16.5708,41.5856
16.4772,41.4339
16.3511,41.3078
16.1994,41.2142
16.1994,41.2142
16.0302,41.1582
16.0302,41.1582
15.9258,41.1475
15.9258,41.1475
14.1400,41.1475
14.0730,41.1278
14.0272,41.0750
14.0173,41.0059
14.0296,40.9719
14.0277,40.9710
14.0308,40.9644
14.0308,40.9644
14.0868,40.7952
14.0975,40.6908
14.0975,39.3192
14.0868,39.2148
14.0308,39.0456
14.0308,39.0456
14.0277,39.0390
14.0306,39.0377
14.0161,38.9838
14.0372,38.9172
14.0910,38.8726
14.1400,38.8625
15.9258,38.8625
15.9258,38.8625
16.0302,38.8518
16.1994,38.7958
16.3511,38.7022
16.4772,38.5761
16.5708,38.4244
16.6268,38.2552
16.6375,38.1508
16.6375,36.7792
16.6268,36.6748
16.5708,36.5056
16.4772,36.3539
16.3511,36.2278
16.1994,36.1342
16.1994,36.1342
16.0302,36.0782
16.0302,36.0782
15.9258,36.0675
15.9258,36.0675
14.1400,36.0675
14.0730,36.0478
14.0272,35.9950
14.0173,35.9259
14.0296,35.8919
14.0277,35.8910
14.0308,35.8844
14.0308,35.8844
14.0868,35.7152
14.0975,35.6108
14.0975,34.2392
14.0868,34.1348
14.0308,33.9656
14.0308,33.9656
14.0277,33.9590
14.0306,33.9577
14.0161,33.9038
14.0372,33.8372
14.0910,33.7926
14.1400,33.7825
15.9258,33.7825
15.9258,33.7825
16.0302,33.7718
16.1994,33.7158
16.3511,33.6222
16.4772,33.4961
16.5708,33.3444
16.6268,33.1752
16.6375,33.0708
16.6375,31.6992
16.6268,31.5948
16.5708,31.4256
16.4772,31.2739
16.3511,31.1478
16.1994,31.0542
16.1994,31.0542
16.0302,30.9982
16.0302,30.9982
15.9258,30.9875
15.9258,30.9875
14.1400,30.9875
14.0730,30.9678
14.0272,30.9150
14.0173,30.8459
14.0296,30.8119
14.0277,30.8110
14.0308,30.8044
14.0308,30.8044
14.0868,30.6352
14.0975,30.5308
14.0975,29.1592
14.0868,29.0548
14.0308,28.8856
14.0308,28.8856
14.0277,28.8790
14.0306,28.8777
14.0161,28.8238
14.0372,28.7572
14.0910,28.7126
14.1400,28.7025
15.9258,28.7025
15.9258,28.7025
16.0302,28.6918
16.1994,28.6358
16.3511,28.5422
16.4772,28.4161
16.5708,28.2644
16.6268,28.0952
16.6375,27.9908
16.6375,26.6192
16.6268,26.5148
16.5708,26.3456
16.4772,26.1939
16.3511,26.0678
16.1994,25.9742
16.1994,25.9742
16.0302,25.9182
16.0302,25.9182
15.9258,25.9075
15.9258,25.9075
14.1400,25.9075
14.0730,25.8878
14.0272,25.8350
14.0173,25.7659
14.0296,25.7319
14.0277,25.7310
14.0308,25.7244
14.0308,25.7244
14.0868,25.5552
14.0975,25.4508
14.0975,24.0792
14.0868,23.9748
14.0308,23.8056
14.0308,23.8056
14.0277,23.7990
14.0306,23.7977
14.0161,23.7438
14.0372,23.6772
14.0910,23.6326
14.1400,23.6225
15.9258,23.6225
15.9258,23.6225
16.0302,23.6118
16.1994,23.5558
16.3511,23.4622
16.4772,23.3361
16.5708,23.1844
16.6268,23.0152
16.6375,22.9108
16.6375,21.5392
16.6268,21.4348
16.5708,21.2656
16.4772,21.1139
16.3511,20.9878
16.1994,20.8942
16.1994,20.8942
16.0302,20.8382
16.0302,20.8382
15.9258,20.8275
15.9258,20.8275
14.1400,20.8275
14.0730,20.8078
14.0272,20.7550
14.0173,20.6859
14.0296,20.6519
14.0277,20.6510
14.0308,20.6444
14.0308,20.6444
14.0868,20.4752
14.0975,20.3708
14.0975,18.9992
14.0868,18.8948
14.0308,18.7256
14.0308,18.7256
14.0277,18.7190
14.0306,18.7177
14.0161,18.6638
14.0372,18.5972
14.0910,18.5526
14.1400,18.5425
15.9258,18.5425
15.9258,18.5425
16.0302,18.5318
16.1994,18.4758
16.3511,18.3822
16.4772,18.2561
16.5708,18.1044
16.6268,17.9352
16.6375,17.8308
16.6375,16.4592
16.6268,16.3548
16.5708,16.1856
16.4772,16.0339
16.3511,15.9078
16.1994,15.8142
16.0966,15.7802
16.0302,15.7582
16.0302,15.7582
15.9258,15.7475
15.9258,15.7475
14.1400,15.7475
14.0730,15.7278
14.0272,15.6750
14.0173,15.6059
14.0296,15.5719
14.0277,15.5710
14.0308,15.5644
14.0308,15.5644
14.0868,15.3952
14.0975,15.2908
14.0975,13.9192
14.0868,13.8148
14.0308,13.6456
14.0308,13.6456
14.0277,13.6390
14.0306,13.6377
14.0161,13.5838
14.0372,13.5172
14.0910,13.4726
14.1400,13.4625
15.9258,13.4625
15.9258,13.4625
16.0302,13.4518
16.1994,13.3958
16.3511,13.3022
16.4772,13.1761
16.5708,13.0244
16.6268,12.8552
16.6375,12.7508
16.6375,11.3792
16.6375,11.3792
16.6307,11.3131
16.6435,11.2444
16.6914,11.1935
16.7541,11.1765
19.2126,11.1765
Z" /> 
<path style="fill:#FFFFFF; fill-opacity:1.0000; stroke:none;fill-rule:evenodd;"
d="M 31.2433,5.1767
31.4098,5.2318
31.5142,5.2425
32.1656,5.2425
32.2039,5.2486
32.2255,5.2556
32.2675,5.2692
32.4650,5.3005
35.8374,5.3005
35.9044,5.3202
35.9251,5.3368
44.1082,13.5199
44.1417,13.5813
44.1445,13.6076
44.1445,15.5318
44.1248,15.5988
44.0856,15.6373
43.9389,15.7278
43.9388,15.7278
43.8128,15.8538
43.7192,16.0056
43.7192,16.0056
43.6632,16.1748
43.6632,16.1748
43.6525,16.2792
43.6525,17.2808
43.6525,17.2808
43.6632,17.3852
43.6935,17.4766
43.6959,17.5465
43.6601,17.6065
43.5976,17.6377
43.5367,17.6333
43.3702,17.5782
43.3702,17.5782
43.3702,17.5782
43.3702,17.5782
43.3702,17.5782
43.2658,17.5675
41.1642,17.5675
41.1642,17.5675
41.0598,17.5782
40.8906,17.6342
40.8906,17.6342
40.7388,17.7278
40.7332,17.7323
40.7323,17.7311
40.6782,17.7607
40.6518,17.7635
39.6215,17.7635
39.5545,17.7438
39.5087,17.6910
39.4975,17.6395
39.4975,16.4592
39.4975,16.4592
39.4925,16.4099
39.4868,16.3548
39.4824,16.3414
39.4800,16.2715
39.5157,16.2115
39.5381,16.1950
39.7252,16.0869
39.9102,15.9450
40.0750,15.7802
40.2169,15.5952
40.3335,15.3933
40.4227,15.1779
40.4831,14.9527
40.5135,14.7216
40.5135,14.4884
40.4831,14.2573
40.4227,14.0321
40.4227,14.0321
40.3335,13.8167
40.3335,13.8167
40.2169,13.6148
40.0750,13.4298
40.0750,13.4298
39.9102,13.2650
39.9102,13.2650
39.7252,13.1231
39.5233,13.0065
39.5233,13.0065
39.3079,12.9173
39.3079,12.9173
39.3079,12.9173
39.0827,12.8569
39.0441,12.8518
38.8516,12.8265
38.8516,12.8265
38.6184,12.8265
38.6184,12.8265
38.4002,12.8552
38.3873,12.8569
38.1621,12.9173
38.1621,12.9173
37.9467,13.0065
37.9467,13.0065
37.7448,13.1231
37.5598,13.2650
37.5598,13.2650
37.3950,13.4298
37.3950,13.4298
37.3105,13.5400
37.2540,13.5812
37.2121,13.5885
36.9248,13.5885
36.8577,13.5688
36.8192,13.5296
36.7972,13.4939
36.7972,13.4939
36.6711,13.3678
36.6711,13.3678
36.5194,13.2742
36.5194,13.2742
36.3502,13.2182
36.3502,13.2182
36.2458,13.2075
32.3444,13.2075
32.2774,13.1878
32.2316,13.1350
32.2217,13.0659
32.2507,13.0023
32.2567,12.9958
33.3546,11.8980
33.4658,11.7315
33.5424,11.5465
33.5757,11.3792
33.5815,11.3501
33.5815,9.3580
33.6012,9.2909
33.6540,9.2452
33.6929,9.2346
33.7202,9.2318
33.8894,9.1758
34.0411,9.0822
34.1672,8.9561
34.2608,8.8044
34.3168,8.6352
34.3275,8.5308
34.3275,7.5292
34.3168,7.4248
34.2608,7.2556
34.1672,7.1039
34.0411,6.9778
33.8894,6.8842
33.7862,6.8500
33.7202,6.8282
33.7202,6.8282
33.6158,6.8175
31.5142,6.8175
31.5142,6.8175
31.4098,6.8282
31.2433,6.8833
31.1734,6.8857
31.1134,6.8500
31.0822,6.7875
31.0865,6.7266
31.1168,6.6352
31.1275,6.5308
31.1275,5.5292
31.1168,5.4248
31.0865,5.3334
31.0841,5.2635
31.1199,5.2035
31.1824,5.1723
Z" /> 
<path style="fill:#FFFFFF; fill-opacity:1.0000; stroke:none;fill-rule:evenodd;"
d="M 47.7025,0.5202
47.7483,0.5730
47.7595,0.6245
47.7595,69.7589
47.7398,69.8259
47.6870,69.8717
47.6355,69.8829
0.6245,69.8829
0.5575,69.8632
0.5117,69.8104
0.5005,69.7589
0.5005,42.5382
1.3306,42.5382
1.3350,42.5859
1.3355,42.5972
1.3355,42.6451
1.3355,42.6451
1.3355,42.6451
1.3434,42.6846
1.3446,42.6910
1.3489,42.7376
1.3641,42.7889
1.3652,42.7945
1.3652,42.7945
1.3746,42.8415
1.3746,42.8415
1.3900,42.8787
1.3943,42.8909
1.4090,42.9406
1.5053,43.2658
1.5620,43.4572
1.5627,43.4597
3.2281,49.5444
3.2325,49.5772
3.2325,51.1908
3.2325,51.1908
3.2432,51.2952
3.2992,51.4644
3.2992,51.4644
3.3928,51.6162
3.3973,51.6218
3.3961,51.6227
3.4257,51.6768
3.4285,51.7032
3.4285,54.9268
3.4088,54.9938
3.3973,55.0082
3.3973,55.0082
3.3928,55.0138
3.2992,55.1656
3.2992,55.1656
3.2432,55.3348
3.2432,55.3348
3.2325,55.4392
3.2325,57.5408
3.2325,57.5408
3.2432,57.6452
3.2992,57.8144
3.2992,57.8144
3.3928,57.9662
3.3973,57.9718
3.3961,57.9727
3.4257,58.0268
3.4285,58.0532
3.4285,61.2768
3.4088,61.3438
3.3973,61.3582
3.3973,61.3582
3.3928,61.3638
3.2992,61.5156
3.2992,61.5156
3.2432,61.6848
3.2432,61.6848
3.2325,61.7892
3.2325,62.4406
3.2264,62.4789
3.2058,62.5425
3.1745,62.7400
3.1745,67.1160
3.2058,67.3135
3.2676,67.5037
3.2676,67.5037
3.3584,67.6819
3.4759,67.8437
4.4049,68.7727
4.5463,68.9141
4.7081,69.0316
4.8863,69.1224
4.8863,69.1224
4.9814,69.1533
5.0765,69.1842
5.2740,69.2155
5.2740,69.2155
9.6250,69.2155
9.6250,69.2155
9.8225,69.1842
10.0127,69.1224
10.1909,69.0316
10.3527,68.9141
12.5549,66.7118
12.6163,66.6783
12.6426,66.6755
37.6010,66.6755
37.6010,66.6755
37.7985,66.6442
37.9887,66.5824
38.1669,66.4916
38.3287,66.3741
44.7841,59.9187
44.9016,59.7569
44.9924,59.5787
45.0542,59.3885
45.0721,59.2755
45.0729,59.2702
45.0855,59.1910
45.0855,54.8150
45.0542,54.6175
45.0353,54.5592
45.0336,54.5539
45.0275,54.5156
45.0275,53.8642
45.0275,53.8642
45.0248,53.8375
45.0168,53.7598
44.9608,53.5906
44.8672,53.4389
44.8672,53.4388
44.8672,53.4388
44.8627,53.4332
44.8639,53.4323
44.8343,53.3782
44.8315,53.3518
44.8315,50.1282
44.8512,50.0612
44.8627,50.0468
44.8627,50.0468
44.8672,50.0412
44.8672,50.0411
44.9608,49.8894
45.0168,49.7202
45.0275,49.6158
45.0275,47.5142
45.0168,47.4098
44.9608,47.2406
44.8672,47.0889
44.8672,47.0889
44.8672,47.0888
44.8627,47.0832
44.8639,47.0823
44.8343,47.0282
44.8315,47.0018
44.8315,43.7782
44.8512,43.7112
44.8627,43.6968
44.8627,43.6968
44.8672,43.6912
44.8672,43.6911
44.9608,43.5394
45.0168,43.3702
45.0275,43.2658
45.0275,41.1642
45.0168,41.0598
44.9608,40.8906
44.8672,40.7389
44.8672,40.7388
44.8672,40.7388
44.8627,40.7332
44.8639,40.7323
44.8343,40.6782
44.8315,40.6518
44.8315,37.9999
44.7924,37.8035
44.7924,37.8035
44.7924,37.8035
44.7158,37.6185
44.6046,37.4520
44.4630,37.3104
43.2678,36.1153
43.2343,36.0539
43.2315,36.0276
43.2315,34.1730
43.2512,34.1059
43.3040,34.0602
43.3429,34.0496
43.3702,34.0468
43.5394,33.9908
43.6911,33.8972
43.8172,33.7711
43.9108,33.6194
43.9668,33.4502
43.9775,33.3458
43.9775,32.3442
43.9668,32.2398
43.9365,32.1484
43.9341,32.0785
43.9699,32.0185
44.0324,31.9873
44.0933,31.9917
44.2598,32.0468
44.3642,32.0575
46.4658,32.0575
46.5702,32.0468
46.7394,31.9908
46.8911,31.8972
47.0172,31.7711
47.1108,31.6194
47.1668,31.4502
47.1775,31.3458
47.1775,30.3442
47.1668,30.2398
47.1108,30.0706
47.0172,29.9189
46.8911,29.7928
46.7394,29.6992
46.6362,29.6650
46.5702,29.6432
46.5702,29.6432
46.4658,29.6325
44.3642,29.6325
44.3642,29.6325
44.2598,29.6432
44.0933,29.6983
44.0234,29.7007
43.9634,29.6650
43.9322,29.6025
43.9365,29.5416
43.9668,29.4502
43.9775,29.3458
43.9775,28.3442
43.9668,28.2398
43.9365,28.1484
43.9341,28.0785
43.9699,28.0185
44.0324,27.9873
44.0933,27.9917
44.2598,28.0468
44.3642,28.0575
46.4658,28.0575
46.5702,28.0468
46.7394,27.9908
46.8911,27.8972
47.0172,27.7711
47.1108,27.6194
47.1668,27.4502
47.1775,27.3458
47.1775,26.3442
47.1668,26.2398
47.1108,26.0706
47.0172,25.9189
46.8911,25.7928
46.7394,25.6992
46.6362,25.6650
46.5702,25.6432
46.5702,25.6432
46.4658,25.6325
44.3642,25.6325
44.3642,25.6325
44.2598,25.6432
44.0933,25.6983
44.0234,25.7007
43.9634,25.6650
43.9322,25.6025
43.9365,25.5416
43.9668,25.4502
43.9775,25.3458
43.9775,24.3442
43.9668,24.2398
43.9108,24.0706
43.8172,23.9189
43.6911,23.7928
43.5394,23.6992
43.5394,23.6992
43.3702,23.6432
43.3702,23.6432
43.2658,23.6325
41.1642,23.6325
41.1642,23.6325
41.0598,23.6432
40.8906,23.6992
40.8906,23.6992
40.7388,23.7928
40.7332,23.7973
40.7323,23.7961
40.6782,23.8257
40.6518,23.8285
40.3191,23.8285
40.2521,23.8088
40.2201,23.7775
40.2194,23.7780
40.0750,23.5898
40.0750,23.5898
39.9384,23.4532
39.9049,23.3919
39.9099,23.3222
39.9517,23.2662
40.0172,23.2418
40.0260,23.2415
40.1051,23.2415
40.2372,23.2152
40.3015,23.2024
40.4865,23.1258
40.6530,23.0146
41.8347,21.8328
41.8961,21.7993
41.9224,21.7965
43.8518,21.7965
43.9188,21.8162
43.9332,21.8277
43.9332,21.8277
43.9388,21.8322
43.9388,21.8322
43.9389,21.8322
44.0906,21.9258
44.2598,21.9818
44.3642,21.9925
46.4658,21.9925
46.5702,21.9818
46.7394,21.9258
46.8911,21.8322
47.0172,21.7061
47.1108,21.5544
47.1668,21.3852
47.1775,21.2808
47.1775,20.2792
47.1668,20.1748
47.1108,20.0056
47.0172,19.8539
46.8911,19.7278
46.7394,19.6342
46.6362,19.6000
46.5702,19.5782
46.5702,19.5782
46.4658,19.5675
44.3642,19.5675
44.3642,19.5675
44.2598,19.5782
44.0933,19.6333
44.0234,19.6357
43.9634,19.6000
43.9322,19.5375
43.9365,19.4766
43.9668,19.3852
43.9775,19.2808
43.9775,18.2792
43.9668,18.1748
43.9365,18.0834
43.9341,18.0135
43.9699,17.9535
44.0324,17.9223
44.0933,17.9267
44.2598,17.9818
44.3642,17.9925
45.0156,17.9925
45.0539,17.9986
45.0755,18.0056
45.1175,18.0192
45.3150,18.0505
45.3150,18.0505
45.5150,18.0505
45.5150,18.0505
45.7125,18.0192
45.7761,17.9986
45.8144,17.9925
46.4658,17.9925
46.4658,17.9925
46.5702,17.9818
46.7394,17.9258
46.8911,17.8322
47.0172,17.7061
47.1108,17.5544
47.1668,17.3852
47.1775,17.2808
47.1775,16.2792
47.1668,16.1748
47.1108,16.0056
47.0172,15.8539
46.8911,15.7278
46.8911,15.7278
46.7444,15.6373
46.6977,15.5853
46.6855,15.5318
46.6855,12.9300
46.6835,12.9173
46.6542,12.7325
46.6233,12.6374
46.5924,12.5423
46.5016,12.3641
46.3841,12.2023
46.2427,12.0609
37.2427,3.0609
37.0809,2.9434
36.9027,2.8526
36.7125,2.7908
36.6137,2.7751
36.5150,2.7595
32.4650,2.7595
32.4337,2.7645
32.2675,2.7908
32.2039,2.8114
32.1656,2.8175
31.5142,2.8175
31.5142,2.8175
31.4098,2.8282
31.2406,2.8842
31.2406,2.8842
31.0888,2.9778
31.0832,2.9823
31.0823,2.9811
31.0282,3.0107
31.0018,3.0135
27.7782,3.0135
27.7112,2.9938
27.6968,2.9823
27.6968,2.9823
27.6912,2.9778
27.5394,2.8842
27.5394,2.8842
27.3702,2.8282
27.3702,2.8282
27.2658,2.8175
25.1642,2.8175
25.1642,2.8175
25.0598,2.8282
24.8906,2.8842
24.8906,2.8842
24.7388,2.9778
24.7332,2.9823
24.7323,2.9811
24.6782,3.0107
24.6518,3.0135
21.4282,3.0135
21.3612,2.9938
21.3468,2.9823
21.3468,2.9823
21.3412,2.9778
21.1894,2.8842
21.1894,2.8842
21.0202,2.8282
21.0202,2.8282
20.9158,2.8175
18.8142,2.8175
18.8142,2.8175
18.7098,2.8282
18.5406,2.8842
18.5406,2.8842
18.3888,2.9778
18.3832,2.9823
18.3823,2.9811
18.3282,3.0107
18.3018,3.0135
15.0782,3.0135
15.0112,2.9938
14.9968,2.9823
14.9968,2.9823
14.9912,2.9778
14.8394,2.8842
14.8394,2.8842
14.6702,2.8282
14.6702,2.8282
14.5658,2.8175
14.5658,2.8175
13.9144,2.8175
13.8761,2.8114
13.8125,2.7908
13.7137,2.7751
13.6150,2.7595
6.0300,2.7595
5.9642,2.7699
5.8325,2.7908
5.7503,2.8175
5.7503,2.8175
5.6423,2.8526
5.4641,2.9434
5.3023,3.0609
5.3023,3.0609
3.6173,4.7459
3.4759,4.8873
3.4759,4.8873
3.4759,4.8873
3.4254,4.9568
3.3584,5.0491
3.2676,5.2273
3.2058,5.4175
3.1881,5.5292
3.1745,5.6150
3.1745,17.4240
3.1745,23.9250
3.2058,24.1225
3.2264,24.1861
3.2264,24.1861
3.2325,24.2244
3.2325,24.8758
3.2325,24.8758
3.2432,24.9802
3.2992,25.1494
3.2992,25.1494
3.3928,25.3012
3.3973,25.3068
3.3961,25.3077
3.4257,25.3618
3.4285,25.3882
3.4285,28.6118
3.4088,28.6788
3.3973,28.6932
3.3973,28.6932
3.3928,28.6988
3.2992,28.8506
3.2992,28.8506
3.2432,29.0198
3.2432,29.0198
3.2325,29.1242
3.2325,31.2258
3.2325,31.2258
3.2432,31.3302
3.2748,31.4256
3.2992,31.4994
3.3928,31.6511
3.5189,31.7772
3.6706,31.8708
3.8398,31.9268
3.9442,31.9375
4.1686,31.9375
4.2356,31.9572
4.2563,31.9738
6.2622,33.9797
6.2957,34.0411
6.2985,34.0674
6.2985,34.4070
6.2788,34.4741
6.2260,34.5198
6.1871,34.5304
6.1598,34.5332
5.9906,34.5892
5.9906,34.5892
5.8388,34.6828
5.8332,34.6873
5.8323,34.6861
5.7782,34.7157
5.7518,34.7185
3.0389,34.7185
2.8425,34.7576
2.8425,34.7576
2.6575,34.8342
2.4910,34.9454
2.4910,34.9454
1.8256,35.6108
1.7040,35.7324
1.6332,35.8032
1.5624,35.8740
1.4512,36.0405
1.3746,36.2255
1.3746,36.2255
1.3355,36.4219
1.3355,42.4852
1.3348,42.4981
1.3306,42.5382
0.5005,42.5382
0.5005,0.6245
0.5202,0.5575
0.5730,0.5117
0.6245,0.5005
47.6355,0.5005
Z" /> 
<path style="fill:none; 
stroke:#FFFFFF; stroke-width:0.0500; stroke-opacity:1; 
stroke-linecap:round; stroke-linejoin:round;fill:none"
d="M 0.0000,0.0000
48.2600,0.0000
48.2600,70.3834
0.0000,70.3834
Z" /> 
</g>
<g style="fill:#000000; fill-opacity:1.0000; stroke:none;">
<circle cx="35.5600" cy="8.8900" r="0.3810" /> 
</g>
<g style="fill:#000000; fill-opacity:1.0000; stroke:none;">
<circle cx="8.2550" cy="46.3550" r="0.3810" /> 
</g>
<g style="fill:#000000; fill-opacity:1.0000; stroke:none;">
<circle cx="35.5600" cy="1.9050" r="0.3810" /> 
</g>
<g style="fill:#000000; fill-opacity:1.0000; stroke:none;">
<circle cx="1.7780" cy="46.4820" r="0.3810" /> 
</g>
<g style="fill:#000000; fill-opacity:1.0000; stroke:none;">
<circle cx="38.7350" cy="24.7650" r="0.3810" /> 
</g>
<g style="fill:#000000; fill-opacity:1.0000; stroke:none;">
<circle cx="38.7350" cy="14.6050" r="0.3810" /> 
</g> 
</svg>
