<?xml version="1.0" standalone="no"?>
 <!DOCTYPE svg PUBLIC "-//W3C//DTD SVG 1.1//EN" 
 "http://www.w3.org/Graphics/SVG/1.1/DTD/svg11.dtd"> 
<svg
  xmlns:svg="http://www.w3.org/2000/svg"
  xmlns="http://www.w3.org/2000/svg"
  xmlns:xlink="http://www.w3.org/1999/xlink"
  version="1.1"
  width="49.7840mm" height="69.8500mm" viewBox="0.0000 0.0000 49.7840 69.8500">
<title>SVG Image created as mask-front.svg date 2025/12/13 16:28:54 </title>
  <desc>Image generated by PCBNEW </desc>
<g style="fill:#000000; fill-opacity:1.0000;stroke:#000000; stroke-opacity:1.0000;
stroke-linecap:round; stroke-linejoin:round;"
 transform="translate(0 0) scale(1 1)">
<path style="fill:#000000; fill-opacity:1.0000; stroke:none;fill-rule:evenodd;"
d="M 27.2150,7.5800
27.2150,8.4800
25.2150,8.4800
25.2150,7.5800
Z" /> 
<path style="fill:#000000; fill-opacity:1.0000; stroke:none;fill-rule:evenodd;"
d="M 24.0150,5.5800
24.0150,6.4800
22.0150,6.4800
22.0150,5.5800
Z" /> 
<path style="fill:#000000; fill-opacity:1.0000; stroke:none;fill-rule:evenodd;"
d="M 27.2150,3.5800
27.2150,4.4800
25.2150,4.4800
25.2150,3.5800
Z" /> 
<path style="fill:#000000; fill-opacity:1.0000; stroke:none;fill-rule:evenodd;"
d="M 24.0150,1.5800
24.0150,2.4800
22.0150,2.4800
22.0150,1.5800
Z" /> 
<path style="fill:#000000; fill-opacity:1.0000; stroke:none;fill-rule:evenodd;"
d="M 42.3345,25.2736
42.3345,24.3736
44.3345,24.3736
44.3345,25.2736
Z" /> 
<path style="fill:#000000; fill-opacity:1.0000; stroke:none;fill-rule:evenodd;"
d="M 45.5345,27.2736
45.5345,26.3736
47.5345,26.3736
47.5345,27.2736
Z" /> 
<path style="fill:#000000; fill-opacity:1.0000; stroke:none;fill-rule:evenodd;"
d="M 42.3345,29.2736
42.3345,28.3736
44.3345,28.3736
44.3345,29.2736
Z" /> 
<path style="fill:#000000; fill-opacity:1.0000; stroke:none;fill-rule:evenodd;"
d="M 45.5345,31.2736
45.5345,30.3736
47.5345,30.3736
47.5345,31.2736
Z" /> 
<path style="fill:#000000; fill-opacity:1.0000; stroke:none;fill-rule:evenodd;"
d="M 42.3345,33.2736
42.3345,32.3736
44.3345,32.3736
44.3345,33.2736
Z" /> 
<path style="fill:#000000; fill-opacity:1.0000; stroke:none;fill-rule:evenodd;"
d="M 45.5345,35.2736
45.5345,34.3736
47.5345,34.3736
47.5345,35.2736
Z" /> 
<path style="fill:#000000; fill-opacity:1.0000; stroke:none;fill-rule:evenodd;"
d="M 11.9630,11.4300
11.9708,11.3910
11.9929,11.3579
12.0260,11.3358
12.0650,11.3280
15.8750,11.3280
15.9140,11.3358
15.9471,11.3579
15.9692,11.3910
15.9770,11.4300
15.9770,12.7000
15.9692,12.7390
15.9471,12.7721
15.9140,12.7942
15.8750,12.8020
12.0650,12.8020
12.0260,12.7942
11.9929,12.7721
11.9708,12.7390
11.9630,12.7000
Z" /> 
<path style="fill:#000000; fill-opacity:1.0000; stroke:none;fill-rule:evenodd;"
d="M 9.4230,13.9700
9.4308,13.9310
9.4529,13.8979
9.4860,13.8758
9.5250,13.8680
13.3350,13.8680
13.3740,13.8758
13.4071,13.8979
13.4292,13.9310
13.4370,13.9700
13.4370,15.2400
13.4292,15.2790
13.4071,15.3121
13.3740,15.3342
13.3350,15.3420
9.5250,15.3420
9.4860,15.3342
9.4529,15.3121
9.4308,15.2790
9.4230,15.2400
Z" /> 
<path style="fill:#000000; fill-opacity:1.0000; stroke:none;fill-rule:evenodd;"
d="M 11.9630,16.5100
11.9708,16.4710
11.9929,16.4379
12.0260,16.4158
12.0650,16.4080
15.8750,16.4080
15.9140,16.4158
15.9471,16.4379
15.9692,16.4710
15.9770,16.5100
15.9770,17.7800
15.9692,17.8190
15.9471,17.8521
15.9140,17.8742
15.8750,17.8820
12.0650,17.8820
12.0260,17.8742
11.9929,17.8521
11.9708,17.8190
11.9630,17.7800
Z" /> 
<path style="fill:#000000; fill-opacity:1.0000; stroke:none;fill-rule:evenodd;"
d="M 9.4230,19.0500
9.4308,19.0110
9.4529,18.9779
9.4860,18.9558
9.5250,18.9480
13.3350,18.9480
13.3740,18.9558
13.4071,18.9779
13.4292,19.0110
13.4370,19.0500
13.4370,20.3200
13.4292,20.3590
13.4071,20.3921
13.3740,20.4142
13.3350,20.4220
9.5250,20.4220
9.4860,20.4142
9.4529,20.3921
9.4308,20.3590
9.4230,20.3200
Z" /> 
<path style="fill:#000000; fill-opacity:1.0000; stroke:none;fill-rule:evenodd;"
d="M 11.9630,21.5900
11.9708,21.5510
11.9929,21.5179
12.0260,21.4958
12.0650,21.4880
15.8750,21.4880
15.9140,21.4958
15.9471,21.5179
15.9692,21.5510
15.9770,21.5900
15.9770,22.8600
15.9692,22.8990
15.9471,22.9321
15.9140,22.9542
15.8750,22.9620
12.0650,22.9620
12.0260,22.9542
11.9929,22.9321
11.9708,22.8990
11.9630,22.8600
Z" /> 
<path style="fill:#000000; fill-opacity:1.0000; stroke:none;fill-rule:evenodd;"
d="M 9.4230,24.1300
9.4308,24.0910
9.4529,24.0579
9.4860,24.0358
9.5250,24.0280
13.3350,24.0280
13.3740,24.0358
13.4071,24.0579
13.4292,24.0910
13.4370,24.1300
13.4370,25.4000
13.4292,25.4390
13.4071,25.4721
13.3740,25.4942
13.3350,25.5020
9.5250,25.5020
9.4860,25.4942
9.4529,25.4721
9.4308,25.4390
9.4230,25.4000
Z" /> 
<path style="fill:#000000; fill-opacity:1.0000; stroke:none;fill-rule:evenodd;"
d="M 11.9630,26.6700
11.9708,26.6310
11.9929,26.5979
12.0260,26.5758
12.0650,26.5680
15.8750,26.5680
15.9140,26.5758
15.9471,26.5979
15.9692,26.6310
15.9770,26.6700
15.9770,27.9400
15.9692,27.9790
15.9471,28.0121
15.9140,28.0342
15.8750,28.0420
12.0650,28.0420
12.0260,28.0342
11.9929,28.0121
11.9708,27.9790
11.9630,27.9400
Z" /> 
<path style="fill:#000000; fill-opacity:1.0000; stroke:none;fill-rule:evenodd;"
d="M 9.4230,29.2100
9.4308,29.1710
9.4529,29.1379
9.4860,29.1158
9.5250,29.1080
13.3350,29.1080
13.3740,29.1158
13.4071,29.1379
13.4292,29.1710
13.4370,29.2100
13.4370,30.4800
13.4292,30.5190
13.4071,30.5521
13.3740,30.5742
13.3350,30.5820
9.5250,30.5820
9.4860,30.5742
9.4529,30.5521
9.4308,30.5190
9.4230,30.4800
Z" /> 
<path style="fill:#000000; fill-opacity:1.0000; stroke:none;fill-rule:evenodd;"
d="M 11.9630,31.7500
11.9708,31.7110
11.9929,31.6779
12.0260,31.6558
12.0650,31.6480
15.8750,31.6480
15.9140,31.6558
15.9471,31.6779
15.9692,31.7110
15.9770,31.7500
15.9770,33.0200
15.9692,33.0590
15.9471,33.0921
15.9140,33.1142
15.8750,33.1220
12.0650,33.1220
12.0260,33.1142
11.9929,33.0921
11.9708,33.0590
11.9630,33.0200
Z" /> 
<path style="fill:#000000; fill-opacity:1.0000; stroke:none;fill-rule:evenodd;"
d="M 9.4230,34.2900
9.4308,34.2510
9.4529,34.2179
9.4860,34.1958
9.5250,34.1880
13.3350,34.1880
13.3740,34.1958
13.4071,34.2179
13.4292,34.2510
13.4370,34.2900
13.4370,35.5600
13.4292,35.5990
13.4071,35.6321
13.3740,35.6542
13.3350,35.6620
9.5250,35.6620
9.4860,35.6542
9.4529,35.6321
9.4308,35.5990
9.4230,35.5600
Z" /> 
<path style="fill:#000000; fill-opacity:1.0000; stroke:none;fill-rule:evenodd;"
d="M 11.9630,36.8300
11.9708,36.7910
11.9929,36.7579
12.0260,36.7358
12.0650,36.7280
15.8750,36.7280
15.9140,36.7358
15.9471,36.7579
15.9692,36.7910
15.9770,36.8300
15.9770,38.1000
15.9692,38.1390
15.9471,38.1721
15.9140,38.1942
15.8750,38.2020
12.0650,38.2020
12.0260,38.1942
11.9929,38.1721
11.9708,38.1390
11.9630,38.1000
Z" /> 
<path style="fill:#000000; fill-opacity:1.0000; stroke:none;fill-rule:evenodd;"
d="M 9.4230,39.3700
9.4308,39.3310
9.4529,39.2979
9.4860,39.2758
9.5250,39.2680
13.3350,39.2680
13.3740,39.2758
13.4071,39.2979
13.4292,39.3310
13.4370,39.3700
13.4370,40.6400
13.4292,40.6790
13.4071,40.7121
13.3740,40.7342
13.3350,40.7420
9.5250,40.7420
9.4860,40.7342
9.4529,40.7121
9.4308,40.6790
9.4230,40.6400
Z" /> 
<path style="fill:#000000; fill-opacity:1.0000; stroke:none;fill-rule:evenodd;"
d="M 11.9630,41.9100
11.9708,41.8710
11.9929,41.8379
12.0260,41.8158
12.0650,41.8080
15.8750,41.8080
15.9140,41.8158
15.9471,41.8379
15.9692,41.8710
15.9770,41.9100
15.9770,43.1800
15.9692,43.2190
15.9471,43.2521
15.9140,43.2742
15.8750,43.2820
12.0650,43.2820
12.0260,43.2742
11.9929,43.2521
11.9708,43.2190
11.9630,43.1800
Z" /> 
<path style="fill:#000000; fill-opacity:1.0000; stroke:none;fill-rule:evenodd;"
d="M 9.4230,44.4500
9.4308,44.4110
9.4529,44.3779
9.4860,44.3558
9.5250,44.3480
13.3350,44.3480
13.3740,44.3558
13.4071,44.3779
13.4292,44.4110
13.4370,44.4500
13.4370,45.7200
13.4292,45.7590
13.4071,45.7921
13.3740,45.8142
13.3350,45.8220
9.5250,45.8220
9.4860,45.8142
9.4529,45.7921
9.4308,45.7590
9.4230,45.7200
Z" /> 
<path style="fill:#000000; fill-opacity:1.0000; stroke:none;fill-rule:evenodd;"
d="M 11.9630,46.9900
11.9708,46.9510
11.9929,46.9179
12.0260,46.8958
12.0650,46.8880
15.8750,46.8880
15.9140,46.8958
15.9471,46.9179
15.9692,46.9510
15.9770,46.9900
15.9770,48.2600
15.9692,48.2990
15.9471,48.3321
15.9140,48.3542
15.8750,48.3620
12.0650,48.3620
12.0260,48.3542
11.9929,48.3321
11.9708,48.2990
11.9630,48.2600
Z" /> 
<path style="fill:#000000; fill-opacity:1.0000; stroke:none;fill-rule:evenodd;"
d="M 9.4230,49.5300
9.4308,49.4910
9.4529,49.4579
9.4860,49.4358
9.5250,49.4280
13.3350,49.4280
13.3740,49.4358
13.4071,49.4579
13.4292,49.4910
13.4370,49.5300
13.4370,50.8000
13.4292,50.8390
13.4071,50.8721
13.3740,50.8942
13.3350,50.9020
9.5250,50.9020
9.4860,50.8942
9.4529,50.8721
9.4308,50.8390
9.4230,50.8000
Z" /> 
<path style="fill:#000000; fill-opacity:1.0000; stroke:none;fill-rule:evenodd;"
d="M 11.9630,52.0700
11.9708,52.0310
11.9929,51.9979
12.0260,51.9758
12.0650,51.9680
15.8750,51.9680
15.9140,51.9758
15.9471,51.9979
15.9692,52.0310
15.9770,52.0700
15.9770,53.3400
15.9692,53.3790
15.9471,53.4121
15.9140,53.4342
15.8750,53.4420
12.0650,53.4420
12.0260,53.4342
11.9929,53.4121
11.9708,53.3790
11.9630,53.3400
Z" /> 
<path style="fill:#000000; fill-opacity:1.0000; stroke:none;fill-rule:evenodd;"
d="M 9.4230,54.6100
9.4308,54.5710
9.4529,54.5379
9.4860,54.5158
9.5250,54.5080
13.3350,54.5080
13.3740,54.5158
13.4071,54.5379
13.4292,54.5710
13.4370,54.6100
13.4370,55.8800
13.4292,55.9190
13.4071,55.9521
13.3740,55.9742
13.3350,55.9820
9.5250,55.9820
9.4860,55.9742
9.4529,55.9521
9.4308,55.9190
9.4230,55.8800
Z" /> 
<path style="fill:#000000; fill-opacity:1.0000; stroke:none;fill-rule:evenodd;"
d="M 11.9630,57.1500
11.9708,57.1110
11.9929,57.0779
12.0260,57.0558
12.0650,57.0480
15.8750,57.0480
15.9140,57.0558
15.9471,57.0779
15.9692,57.1110
15.9770,57.1500
15.9770,58.4200
15.9692,58.4590
15.9471,58.4921
15.9140,58.5142
15.8750,58.5220
12.0650,58.5220
12.0260,58.5142
11.9929,58.4921
11.9708,58.4590
11.9630,58.4200
Z" /> 
<path style="fill:#000000; fill-opacity:1.0000; stroke:none;fill-rule:evenodd;"
d="M 34.8230,11.4300
34.8308,11.3910
34.8529,11.3579
34.8860,11.3358
34.9250,11.3280
38.7350,11.3280
38.7740,11.3358
38.8071,11.3579
38.8292,11.3910
38.8370,11.4300
38.8370,12.7000
38.8292,12.7390
38.8071,12.7721
38.7740,12.7942
38.7350,12.8020
34.9250,12.8020
34.8860,12.7942
34.8529,12.7721
34.8308,12.7390
34.8230,12.7000
Z" /> 
<path style="fill:#000000; fill-opacity:1.0000; stroke:none;fill-rule:evenodd;"
d="M 32.2830,13.9700
32.2908,13.9310
32.3129,13.8979
32.3460,13.8758
32.3850,13.8680
36.1950,13.8680
36.2340,13.8758
36.2671,13.8979
36.2892,13.9310
36.2970,13.9700
36.2970,15.2400
36.2892,15.2790
36.2671,15.3121
36.2340,15.3342
36.1950,15.3420
32.3850,15.3420
32.3460,15.3342
32.3129,15.3121
32.2908,15.2790
32.2830,15.2400
Z" /> 
<path style="fill:#000000; fill-opacity:1.0000; stroke:none;fill-rule:evenodd;"
d="M 34.8230,16.5100
34.8308,16.4710
34.8529,16.4379
34.8860,16.4158
34.9250,16.4080
38.7350,16.4080
38.7740,16.4158
38.8071,16.4379
38.8292,16.4710
38.8370,16.5100
38.8370,17.7800
38.8292,17.8190
38.8071,17.8521
38.7740,17.8742
38.7350,17.8820
34.9250,17.8820
34.8860,17.8742
34.8529,17.8521
34.8308,17.8190
34.8230,17.7800
Z" /> 
<path style="fill:#000000; fill-opacity:1.0000; stroke:none;fill-rule:evenodd;"
d="M 32.2830,19.0500
32.2908,19.0110
32.3129,18.9779
32.3460,18.9558
32.3850,18.9480
36.1950,18.9480
36.2340,18.9558
36.2671,18.9779
36.2892,19.0110
36.2970,19.0500
36.2970,20.3200
36.2892,20.3590
36.2671,20.3921
36.2340,20.4142
36.1950,20.4220
32.3850,20.4220
32.3460,20.4142
32.3129,20.3921
32.2908,20.3590
32.2830,20.3200
Z" /> 
<path style="fill:#000000; fill-opacity:1.0000; stroke:none;fill-rule:evenodd;"
d="M 34.8230,21.5900
34.8308,21.5510
34.8529,21.5179
34.8860,21.4958
34.9250,21.4880
38.7350,21.4880
38.7740,21.4958
38.8071,21.5179
38.8292,21.5510
38.8370,21.5900
38.8370,22.8600
38.8292,22.8990
38.8071,22.9321
38.7740,22.9542
38.7350,22.9620
34.9250,22.9620
34.8860,22.9542
34.8529,22.9321
34.8308,22.8990
34.8230,22.8600
Z" /> 
<path style="fill:#000000; fill-opacity:1.0000; stroke:none;fill-rule:evenodd;"
d="M 32.2830,24.1300
32.2908,24.0910
32.3129,24.0579
32.3460,24.0358
32.3850,24.0280
36.1950,24.0280
36.2340,24.0358
36.2671,24.0579
36.2892,24.0910
36.2970,24.1300
36.2970,25.4000
36.2892,25.4390
36.2671,25.4721
36.2340,25.4942
36.1950,25.5020
32.3850,25.5020
32.3460,25.4942
32.3129,25.4721
32.2908,25.4390
32.2830,25.4000
Z" /> 
<path style="fill:#000000; fill-opacity:1.0000; stroke:none;fill-rule:evenodd;"
d="M 34.8230,26.6700
34.8308,26.6310
34.8529,26.5979
34.8860,26.5758
34.9250,26.5680
38.7350,26.5680
38.7740,26.5758
38.8071,26.5979
38.8292,26.6310
38.8370,26.6700
38.8370,27.9400
38.8292,27.9790
38.8071,28.0121
38.7740,28.0342
38.7350,28.0420
34.9250,28.0420
34.8860,28.0342
34.8529,28.0121
34.8308,27.9790
34.8230,27.9400
Z" /> 
<path style="fill:#000000; fill-opacity:1.0000; stroke:none;fill-rule:evenodd;"
d="M 32.2830,29.2100
32.2908,29.1710
32.3129,29.1379
32.3460,29.1158
32.3850,29.1080
36.1950,29.1080
36.2340,29.1158
36.2671,29.1379
36.2892,29.1710
36.2970,29.2100
36.2970,30.4800
36.2892,30.5190
36.2671,30.5521
36.2340,30.5742
36.1950,30.5820
32.3850,30.5820
32.3460,30.5742
32.3129,30.5521
32.2908,30.5190
32.2830,30.4800
Z" /> 
<path style="fill:#000000; fill-opacity:1.0000; stroke:none;fill-rule:evenodd;"
d="M 34.8230,31.7500
34.8308,31.7110
34.8529,31.6779
34.8860,31.6558
34.9250,31.6480
38.7350,31.6480
38.7740,31.6558
38.8071,31.6779
38.8292,31.7110
38.8370,31.7500
38.8370,33.0200
38.8292,33.0590
38.8071,33.0921
38.7740,33.1142
38.7350,33.1220
34.9250,33.1220
34.8860,33.1142
34.8529,33.0921
34.8308,33.0590
34.8230,33.0200
Z" /> 
<path style="fill:#000000; fill-opacity:1.0000; stroke:none;fill-rule:evenodd;"
d="M 32.2830,34.2900
32.2908,34.2510
32.3129,34.2179
32.3460,34.1958
32.3850,34.1880
36.1950,34.1880
36.2340,34.1958
36.2671,34.2179
36.2892,34.2510
36.2970,34.2900
36.2970,35.5600
36.2892,35.5990
36.2671,35.6321
36.2340,35.6542
36.1950,35.6620
32.3850,35.6620
32.3460,35.6542
32.3129,35.6321
32.2908,35.5990
32.2830,35.5600
Z" /> 
<path style="fill:#000000; fill-opacity:1.0000; stroke:none;fill-rule:evenodd;"
d="M 34.8230,36.8300
34.8308,36.7910
34.8529,36.7579
34.8860,36.7358
34.9250,36.7280
38.7350,36.7280
38.7740,36.7358
38.8071,36.7579
38.8292,36.7910
38.8370,36.8300
38.8370,38.1000
38.8292,38.1390
38.8071,38.1721
38.7740,38.1942
38.7350,38.2020
34.9250,38.2020
34.8860,38.1942
34.8529,38.1721
34.8308,38.1390
34.8230,38.1000
Z" /> 
<path style="fill:#000000; fill-opacity:1.0000; stroke:none;fill-rule:evenodd;"
d="M 32.2830,39.3700
32.2908,39.3310
32.3129,39.2979
32.3460,39.2758
32.3850,39.2680
36.1950,39.2680
36.2340,39.2758
36.2671,39.2979
36.2892,39.3310
36.2970,39.3700
36.2970,40.6400
36.2892,40.6790
36.2671,40.7121
36.2340,40.7342
36.1950,40.7420
32.3850,40.7420
32.3460,40.7342
32.3129,40.7121
32.2908,40.6790
32.2830,40.6400
Z" /> 
<path style="fill:#000000; fill-opacity:1.0000; stroke:none;fill-rule:evenodd;"
d="M 34.8230,41.9100
34.8308,41.8710
34.8529,41.8379
34.8860,41.8158
34.9250,41.8080
38.7350,41.8080
38.7740,41.8158
38.8071,41.8379
38.8292,41.8710
38.8370,41.9100
38.8370,43.1800
38.8292,43.2190
38.8071,43.2521
38.7740,43.2742
38.7350,43.2820
34.9250,43.2820
34.8860,43.2742
34.8529,43.2521
34.8308,43.2190
34.8230,43.1800
Z" /> 
<path style="fill:#000000; fill-opacity:1.0000; stroke:none;fill-rule:evenodd;"
d="M 32.2830,44.4500
32.2908,44.4110
32.3129,44.3779
32.3460,44.3558
32.3850,44.3480
36.1950,44.3480
36.2340,44.3558
36.2671,44.3779
36.2892,44.4110
36.2970,44.4500
36.2970,45.7200
36.2892,45.7590
36.2671,45.7921
36.2340,45.8142
36.1950,45.8220
32.3850,45.8220
32.3460,45.8142
32.3129,45.7921
32.2908,45.7590
32.2830,45.7200
Z" /> 
<path style="fill:#000000; fill-opacity:1.0000; stroke:none;fill-rule:evenodd;"
d="M 34.8230,46.9900
34.8308,46.9510
34.8529,46.9179
34.8860,46.8958
34.9250,46.8880
38.7350,46.8880
38.7740,46.8958
38.8071,46.9179
38.8292,46.9510
38.8370,46.9900
38.8370,48.2600
38.8292,48.2990
38.8071,48.3321
38.7740,48.3542
38.7350,48.3620
34.9250,48.3620
34.8860,48.3542
34.8529,48.3321
34.8308,48.2990
34.8230,48.2600
Z" /> 
<path style="fill:#000000; fill-opacity:1.0000; stroke:none;fill-rule:evenodd;"
d="M 32.2830,49.5300
32.2908,49.4910
32.3129,49.4579
32.3460,49.4358
32.3850,49.4280
36.1950,49.4280
36.2340,49.4358
36.2671,49.4579
36.2892,49.4910
36.2970,49.5300
36.2970,50.8000
36.2892,50.8390
36.2671,50.8721
36.2340,50.8942
36.1950,50.9020
32.3850,50.9020
32.3460,50.8942
32.3129,50.8721
32.2908,50.8390
32.2830,50.8000
Z" /> 
<path style="fill:#000000; fill-opacity:1.0000; stroke:none;fill-rule:evenodd;"
d="M 34.8230,52.0700
34.8308,52.0310
34.8529,51.9979
34.8860,51.9758
34.9250,51.9680
38.7350,51.9680
38.7740,51.9758
38.8071,51.9979
38.8292,52.0310
38.8370,52.0700
38.8370,53.3400
38.8292,53.3790
38.8071,53.4121
38.7740,53.4342
38.7350,53.4420
34.9250,53.4420
34.8860,53.4342
34.8529,53.4121
34.8308,53.3790
34.8230,53.3400
Z" /> 
<path style="fill:#000000; fill-opacity:1.0000; stroke:none;fill-rule:evenodd;"
d="M 32.2830,54.6100
32.2908,54.5710
32.3129,54.5379
32.3460,54.5158
32.3850,54.5080
36.1950,54.5080
36.2340,54.5158
36.2671,54.5379
36.2892,54.5710
36.2970,54.6100
36.2970,55.8800
36.2892,55.9190
36.2671,55.9521
36.2340,55.9742
36.1950,55.9820
32.3850,55.9820
32.3460,55.9742
32.3129,55.9521
32.2908,55.9190
32.2830,55.8800
Z" /> 
<path style="fill:#000000; fill-opacity:1.0000; stroke:none;fill-rule:evenodd;"
d="M 34.8230,57.1500
34.8308,57.1110
34.8529,57.0779
34.8860,57.0558
34.9250,57.0480
38.7350,57.0480
38.7740,57.0558
38.8071,57.0779
38.8292,57.1110
38.8370,57.1500
38.8370,58.4200
38.8292,58.4590
38.8071,58.4921
38.7740,58.5142
38.7350,58.5220
34.9250,58.5220
34.8860,58.5142
34.8529,58.4921
34.8308,58.4590
34.8230,58.4200
Z" /> 
<path style="fill:#000000; fill-opacity:1.0000; stroke:none;fill-rule:evenodd;"
d="M 5.9950,25.9750
6.8950,25.9750
6.8950,27.9750
5.9950,27.9750
Z" /> 
<path style="fill:#000000; fill-opacity:1.0000; stroke:none;fill-rule:evenodd;"
d="M 3.9950,29.1750
4.8950,29.1750
4.8950,31.1750
3.9950,31.1750
Z" /> 
<path style="fill:#000000; fill-opacity:1.0000; stroke:none;fill-rule:evenodd;"
d="M 1.9950,25.9750
2.8950,25.9750
2.8950,27.9750
1.9950,27.9750
Z" /> 
<path style="fill:#000000; fill-opacity:1.0000; stroke:none;fill-rule:evenodd;"
d="M 5.9950,65.0400
6.8950,65.0400
6.8950,67.0400
5.9950,67.0400
Z" /> 
<path style="fill:#000000; fill-opacity:1.0000; stroke:none;fill-rule:evenodd;"
d="M 3.9950,61.8400
4.8950,61.8400
4.8950,63.8400
3.9950,63.8400
Z" /> 
<path style="fill:#000000; fill-opacity:1.0000; stroke:none;fill-rule:evenodd;"
d="M 1.9950,65.0400
2.8950,65.0400
2.8950,67.0400
1.9950,67.0400
Z" /> 
<path style="fill:#000000; fill-opacity:1.0000; stroke:none;fill-rule:evenodd;"
d="M 43.3845,59.0936
42.4845,59.0936
42.4845,57.0936
43.3845,57.0936
Z" /> 
<path style="fill:#000000; fill-opacity:1.0000; stroke:none;fill-rule:evenodd;"
d="M 45.3845,55.8936
44.4845,55.8936
44.4845,53.8936
45.3845,53.8936
Z" /> 
<path style="fill:#000000; fill-opacity:1.0000; stroke:none;fill-rule:evenodd;"
d="M 47.3845,59.0936
46.4845,59.0936
46.4845,57.0936
47.3845,57.0936
Z" /> 
<path style="fill:#000000; fill-opacity:1.0000; stroke:none;fill-rule:evenodd;"
d="M 5.9950,52.3400
6.8950,52.3400
6.8950,54.3400
5.9950,54.3400
Z" /> 
<path style="fill:#000000; fill-opacity:1.0000; stroke:none;fill-rule:evenodd;"
d="M 3.9950,49.1400
4.8950,49.1400
4.8950,51.1400
3.9950,51.1400
Z" /> 
<path style="fill:#000000; fill-opacity:1.0000; stroke:none;fill-rule:evenodd;"
d="M 1.9950,52.3400
2.8950,52.3400
2.8950,54.3400
1.9950,54.3400
Z" /> 
<path style="fill:#000000; fill-opacity:1.0000; stroke:none;fill-rule:evenodd;"
d="M 43.3845,46.3936
42.4845,46.3936
42.4845,44.3936
43.3845,44.3936
Z" /> 
<path style="fill:#000000; fill-opacity:1.0000; stroke:none;fill-rule:evenodd;"
d="M 45.3845,43.1936
44.4845,43.1936
44.4845,41.1936
45.3845,41.1936
Z" /> 
<path style="fill:#000000; fill-opacity:1.0000; stroke:none;fill-rule:evenodd;"
d="M 47.3845,46.3936
46.4845,46.3936
46.4845,44.3936
47.3845,44.3936
Z" /> 
<path style="fill:#000000; fill-opacity:1.0000; stroke:none;fill-rule:evenodd;"
d="M 47.5345,20.3086
47.5345,21.2086
45.5345,21.2086
45.5345,20.3086
Z" /> 
<path style="fill:#000000; fill-opacity:1.0000; stroke:none;fill-rule:evenodd;"
d="M 44.3345,18.3086
44.3345,19.2086
42.3345,19.2086
42.3345,18.3086
Z" /> 
<path style="fill:#000000; fill-opacity:1.0000; stroke:none;fill-rule:evenodd;"
d="M 47.5345,16.3086
47.5345,17.2086
45.5345,17.2086
45.5345,16.3086
Z" /> 
<path style="fill:#000000; fill-opacity:1.0000; stroke:none;fill-rule:evenodd;"
d="M 44.3345,14.3086
44.3345,15.2086
42.3345,15.2086
42.3345,14.3086
Z" /> 
<path style="fill:#000000; fill-opacity:1.0000; stroke:none;fill-rule:evenodd;"
d="M 14.5150,7.5800
14.5150,8.4800
12.5150,8.4800
12.5150,7.5800
Z" /> 
<path style="fill:#000000; fill-opacity:1.0000; stroke:none;fill-rule:evenodd;"
d="M 11.3150,5.5800
11.3150,6.4800
9.3150,6.4800
9.3150,5.5800
Z" /> 
<path style="fill:#000000; fill-opacity:1.0000; stroke:none;fill-rule:evenodd;"
d="M 14.5150,3.5800
14.5150,4.4800
12.5150,4.4800
12.5150,3.5800
Z" /> 
<path style="fill:#000000; fill-opacity:1.0000; stroke:none;fill-rule:evenodd;"
d="M 11.3150,1.5800
11.3150,2.4800
9.3150,2.4800
9.3150,1.5800
Z" /> 
<path style="fill:#000000; fill-opacity:1.0000; stroke:none;fill-rule:evenodd;"
d="M 5.9950,19.6250
6.8950,19.6250
6.8950,21.6250
5.9950,21.6250
Z" /> 
<path style="fill:#000000; fill-opacity:1.0000; stroke:none;fill-rule:evenodd;"
d="M 3.9950,22.8250
4.8950,22.8250
4.8950,24.8250
3.9950,24.8250
Z" /> 
<path style="fill:#000000; fill-opacity:1.0000; stroke:none;fill-rule:evenodd;"
d="M 1.9950,19.6250
2.8950,19.6250
2.8950,21.6250
1.9950,21.6250
Z" /> 
<path style="fill:#000000; fill-opacity:1.0000; stroke:none;fill-rule:evenodd;"
d="M 20.8650,7.5800
20.8650,8.4800
18.8650,8.4800
18.8650,7.5800
Z" /> 
<path style="fill:#000000; fill-opacity:1.0000; stroke:none;fill-rule:evenodd;"
d="M 17.6650,5.5800
17.6650,6.4800
15.6650,6.4800
15.6650,5.5800
Z" /> 
<path style="fill:#000000; fill-opacity:1.0000; stroke:none;fill-rule:evenodd;"
d="M 20.8650,3.5800
20.8650,4.4800
18.8650,4.4800
18.8650,3.5800
Z" /> 
<path style="fill:#000000; fill-opacity:1.0000; stroke:none;fill-rule:evenodd;"
d="M 17.6650,1.5800
17.6650,2.4800
15.6650,2.4800
15.6650,1.5800
Z" /> 
<path style="fill:#000000; fill-opacity:1.0000; stroke:none;fill-rule:evenodd;"
d="M 8.3150,43.2850
8.3150,44.1850
6.3150,44.1850
6.3150,43.2850
Z" /> 
<path style="fill:#000000; fill-opacity:1.0000; stroke:none;fill-rule:evenodd;"
d="M 5.1150,41.2850
5.1150,42.1850
3.1150,42.1850
3.1150,41.2850
Z" /> 
<path style="fill:#000000; fill-opacity:1.0000; stroke:none;fill-rule:evenodd;"
d="M 8.3150,39.2850
8.3150,40.1850
6.3150,40.1850
6.3150,39.2850
Z" /> 
<path style="fill:#000000; fill-opacity:1.0000; stroke:none;fill-rule:evenodd;"
d="M 5.1150,37.2850
5.1150,38.1850
3.1150,38.1850
3.1150,37.2850
Z" /> 
<path style="fill:#000000; fill-opacity:1.0000; stroke:none;fill-rule:evenodd;"
d="M 8.3150,35.2850
8.3150,36.1850
6.3150,36.1850
6.3150,35.2850
Z" /> 
<path style="fill:#000000; fill-opacity:1.0000; stroke:none;fill-rule:evenodd;"
d="M 5.1150,33.2850
5.1150,34.1850
3.1150,34.1850
3.1150,33.2850
Z" /> 
<path style="fill:#000000; fill-opacity:1.0000; stroke:none;fill-rule:evenodd;"
d="M 33.5650,7.5800
33.5650,8.4800
31.5650,8.4800
31.5650,7.5800
Z" /> 
<path style="fill:#000000; fill-opacity:1.0000; stroke:none;fill-rule:evenodd;"
d="M 30.3650,5.5800
30.3650,6.4800
28.3650,6.4800
28.3650,5.5800
Z" /> 
<path style="fill:#000000; fill-opacity:1.0000; stroke:none;fill-rule:evenodd;"
d="M 33.5650,3.5800
33.5650,4.4800
31.5650,4.4800
31.5650,3.5800
Z" /> 
<path style="fill:#000000; fill-opacity:1.0000; stroke:none;fill-rule:evenodd;"
d="M 30.3650,1.5800
30.3650,2.4800
28.3650,2.4800
28.3650,1.5800
Z" /> 
<path style="fill:#000000; fill-opacity:1.0000; stroke:none;fill-rule:evenodd;"
d="M 43.3845,52.7436
42.4845,52.7436
42.4845,50.7436
43.3845,50.7436
Z" /> 
<path style="fill:#000000; fill-opacity:1.0000; stroke:none;fill-rule:evenodd;"
d="M 45.3845,49.5436
44.4845,49.5436
44.4845,47.5436
45.3845,47.5436
Z" /> 
<path style="fill:#000000; fill-opacity:1.0000; stroke:none;fill-rule:evenodd;"
d="M 47.3845,52.7436
46.4845,52.7436
46.4845,50.7436
47.3845,50.7436
Z" /> 
<path style="fill:#000000; fill-opacity:1.0000; stroke:none;fill-rule:evenodd;"
d="M 5.9950,58.6900
6.8950,58.6900
6.8950,60.6900
5.9950,60.6900
Z" /> 
<path style="fill:#000000; fill-opacity:1.0000; stroke:none;fill-rule:evenodd;"
d="M 3.9950,55.4900
4.8950,55.4900
4.8950,57.4900
3.9950,57.4900
Z" /> 
<path style="fill:#000000; fill-opacity:1.0000; stroke:none;fill-rule:evenodd;"
d="M 1.9950,58.6900
2.8950,58.6900
2.8950,60.6900
1.9950,60.6900
Z" /> 
<path style="fill:none; 
stroke:#000000; stroke-width:0.0500; stroke-opacity:1; 
stroke-linecap:round; stroke-linejoin:round;fill:none"
d="M 0.0000,0.0000
49.7840,0.0000
49.7840,69.8500
0.0000,69.8500
Z" /> 
</g> 
</svg>
