<?xml version="1.0" standalone="no"?>
 <!DOCTYPE svg PUBLIC "-//W3C//DTD SVG 1.1//EN" 
 "http://www.w3.org/Graphics/SVG/1.1/DTD/svg11.dtd"> 
<svg
  xmlns:svg="http://www.w3.org/2000/svg"
  xmlns="http://www.w3.org/2000/svg"
  xmlns:xlink="http://www.w3.org/1999/xlink"
  version="1.1"
  width="54.9148mm" height="64.0080mm" viewBox="0.0000 0.0000 54.9148 64.0080">
<title>SVG Image created as back.svg date 2025/12/14 15:40:26 </title>
  <desc>Image generated by PCBNEW </desc>
<g style="fill:#000000; fill-opacity:1.0000;stroke:#000000; stroke-opacity:1.0000;
stroke-linecap:round; stroke-linejoin:round;"
 transform="translate(0 0) scale(1 1)">
</g>
<g style="fill:#000000; fill-opacity:1.0000; 
stroke:#000000; stroke-width:0.0212; stroke-opacity:1; 
stroke-linecap:round; stroke-linejoin:round;">
<rect x="-5.203200" y="-5.245000" width="65.143000" height="74.278000" rx="0.000000" />
</g>
<g style="fill:#FFFFFF; fill-opacity:1.0000; stroke:none;">
<circle cx="13.0548" cy="57.1300" r="1.0160" /> 
</g>
<g style="fill:#FFFFFF; fill-opacity:1.0000; stroke:none;">
<circle cx="13.0548" cy="54.5900" r="1.0160" /> 
</g>
<g style="fill:#FFFFFF; fill-opacity:1.0000; stroke:none;">
<circle cx="13.0548" cy="52.0500" r="1.0160" /> 
</g>
<g style="fill:#FFFFFF; fill-opacity:1.0000; stroke:none;">
<circle cx="13.0548" cy="49.5100" r="1.0160" /> 
</g>
<g style="fill:#FFFFFF; fill-opacity:1.0000; stroke:none;">
<circle cx="13.0548" cy="46.9700" r="1.0160" /> 
</g>
<g style="fill:#FFFFFF; fill-opacity:1.0000; stroke:none;">
<circle cx="13.0548" cy="44.4300" r="1.0160" /> 
</g>
<g style="fill:#FFFFFF; fill-opacity:1.0000; stroke:none;">
<circle cx="13.0548" cy="41.8900" r="1.0160" /> 
</g>
<g style="fill:#FFFFFF; fill-opacity:1.0000; stroke:none;">
<circle cx="13.0548" cy="39.3500" r="1.0160" /> 
</g>
<g style="fill:#FFFFFF; fill-opacity:1.0000; stroke:none;">
<circle cx="13.0548" cy="36.8100" r="1.0160" /> 
</g>
<g style="fill:#FFFFFF; fill-opacity:1.0000; stroke:none;">
<circle cx="13.0548" cy="34.2700" r="1.0160" /> 
</g>
<g style="fill:#FFFFFF; fill-opacity:1.0000; stroke:none;">
<circle cx="13.0548" cy="31.7300" r="1.0160" /> 
</g>
<g style="fill:#FFFFFF; fill-opacity:1.0000; stroke:none;">
<circle cx="13.0548" cy="29.1900" r="1.0160" /> 
</g>
<g style="fill:#FFFFFF; fill-opacity:1.0000; stroke:none;">
<circle cx="13.0548" cy="26.6500" r="1.0160" /> 
</g>
<g style="fill:#FFFFFF; fill-opacity:1.0000; stroke:none;">
<circle cx="13.0548" cy="24.1100" r="1.0160" /> 
</g>
<g style="fill:#FFFFFF; fill-opacity:1.0000; stroke:none;">
<circle cx="13.0548" cy="21.5700" r="1.0160" /> 
</g>
<g style="fill:#FFFFFF; fill-opacity:1.0000; stroke:none;">
<circle cx="13.0548" cy="19.0300" r="1.0160" /> 
</g>
<g style="fill:#FFFFFF; fill-opacity:1.0000; stroke:none;">
<circle cx="13.0548" cy="16.4900" r="1.0160" /> 
</g>
<g style="fill:#FFFFFF; fill-opacity:1.0000; stroke:none;">
<circle cx="13.0548" cy="13.9500" r="1.0160" /> 
<path style="fill:#FFFFFF; fill-opacity:1.0000; stroke:none;fill-rule:evenodd;"
d="M 12.0388,12.1212
12.0469,12.1910
12.0921,12.2935
12.1713,12.3727
12.2738,12.4179
12.3436,12.4260
13.7660,12.4260
13.8358,12.4179
13.9383,12.3727
14.0175,12.2935
14.0627,12.1910
14.0708,12.1212
14.0708,10.6988
14.0627,10.6290
14.0175,10.5265
13.9383,10.4473
13.8358,10.4021
13.7660,10.3940
12.3436,10.3940
12.2738,10.4021
12.1713,10.4473
12.0921,10.5265
12.0469,10.6290
12.0388,10.6988
Z" /> 
</g>
<g style="fill:#FFFFFF; fill-opacity:1.0000; stroke:none;">
<circle cx="37.0965" cy="43.7729" r="1.0160" /> 
</g>
<g style="fill:#FFFFFF; fill-opacity:1.0000; stroke:none;">
<circle cx="37.0965" cy="46.3129" r="1.0160" /> 
</g>
<g style="fill:#FFFFFF; fill-opacity:1.0000; stroke:none;">
<circle cx="37.0965" cy="48.8529" r="1.0160" /> 
</g>
<g style="fill:#FFFFFF; fill-opacity:1.0000; stroke:none;">
<circle cx="37.0965" cy="51.3929" r="1.0160" /> 
</g>
<g style="fill:#FFFFFF; fill-opacity:1.0000; stroke:none;">
<circle cx="37.0965" cy="53.9329" r="1.0160" /> 
</g>
<g style="fill:#FFFFFF; fill-opacity:1.0000; stroke:none;">
<circle cx="37.0965" cy="56.4729" r="1.0160" /> 
</g>
<g style="fill:#FFFFFF; fill-opacity:1.0000; stroke:none;">
<circle cx="37.0965" cy="59.0129" r="1.0160" /> 
</g>
<g style="fill:#FFFFFF; fill-opacity:1.0000; stroke:none;">
<circle cx="21.8565" cy="43.7729" r="1.0160" /> 
</g>
<g style="fill:#FFFFFF; fill-opacity:1.0000; stroke:none;">
<circle cx="21.8565" cy="46.3129" r="1.0160" /> 
</g>
<g style="fill:#FFFFFF; fill-opacity:1.0000; stroke:none;">
<circle cx="21.8565" cy="48.8529" r="1.0160" /> 
</g>
<g style="fill:#FFFFFF; fill-opacity:1.0000; stroke:none;">
<circle cx="21.8565" cy="51.3929" r="1.0160" /> 
</g>
<g style="fill:#FFFFFF; fill-opacity:1.0000; stroke:none;">
<circle cx="21.8565" cy="53.9329" r="1.0160" /> 
</g>
<g style="fill:#FFFFFF; fill-opacity:1.0000; stroke:none;">
<circle cx="21.8565" cy="56.4729" r="1.0160" /> 
</g>
<g style="fill:#FFFFFF; fill-opacity:1.0000; stroke:none;">
<circle cx="21.8565" cy="59.0129" r="1.0160" /> 
<path style="fill:#FFFFFF; fill-opacity:1.0000; stroke:none;fill-rule:evenodd;"
d="M 23.3784,52.0664
23.3978,52.1636
23.4528,52.2460
23.5352,52.3011
23.6324,52.3204
25.1564,52.3204
25.2536,52.3011
25.3360,52.2460
25.3911,52.1636
25.4104,52.0664
25.4104,51.5584
25.3911,51.4612
25.3360,51.3788
25.2536,51.3237
25.1564,51.3044
23.6324,51.3044
23.5352,51.3237
23.4528,51.3788
23.3978,51.4612
23.3784,51.5584
Z" /> 
<path style="fill:#FFFFFF; fill-opacity:1.0000; stroke:none;fill-rule:evenodd;"
d="M 25.4104,53.4634
25.3911,53.3662
25.3360,53.2838
25.2536,53.2287
25.1564,53.2094
23.6324,53.2094
23.5352,53.2287
23.4528,53.2838
23.3978,53.3662
23.3784,53.4634
23.3784,53.9714
23.3978,54.0686
23.4528,54.1510
23.5352,54.2061
23.6324,54.2254
25.1564,54.2254
25.2536,54.2061
25.3360,54.1510
25.3911,54.0686
25.4104,53.9714
Z" /> 
</g>
<g style="fill:#FFFFFF; fill-opacity:1.0000; stroke:none;">
<circle cx="16.8148" cy="3.8100" r="0.9525" /> 
</g>
<g style="fill:#FFFFFF; fill-opacity:1.0000; stroke:none;">
<circle cx="16.8148" cy="6.3500" r="0.9525" /> 
</g>
<g style="fill:#FFFFFF; fill-opacity:1.0000; stroke:none;">
<circle cx="16.8148" cy="8.8900" r="0.9525" /> 
</g>
<g style="fill:#FFFFFF; fill-opacity:1.0000; stroke:none;">
<circle cx="16.8148" cy="11.4300" r="0.9525" /> 
</g>
<g style="fill:#FFFFFF; fill-opacity:1.0000; stroke:none;">
<circle cx="16.8148" cy="13.9700" r="0.9525" /> 
</g>
<g style="fill:#FFFFFF; fill-opacity:1.0000; stroke:none;">
<circle cx="51.4148" cy="21.5900" r="1.0160" /> 
</g>
<g style="fill:#FFFFFF; fill-opacity:1.0000; stroke:none;">
<circle cx="51.4148" cy="19.0500" r="1.0160" /> 
</g>
<g style="fill:#FFFFFF; fill-opacity:1.0000; stroke:none;">
<circle cx="51.4148" cy="16.5100" r="1.0160" /> 
</g>
<g style="fill:#FFFFFF; fill-opacity:1.0000; stroke:none;">
<circle cx="51.4148" cy="13.9700" r="1.0160" /> 
</g>
<g style="fill:#FFFFFF; fill-opacity:1.0000; stroke:none;">
<circle cx="16.8148" cy="26.6700" r="1.0160" /> 
</g>
<g style="fill:#FFFFFF; fill-opacity:1.0000; stroke:none;">
<circle cx="16.8148" cy="29.2100" r="1.0160" /> 
</g>
<g style="fill:#FFFFFF; fill-opacity:1.0000; stroke:none;">
<circle cx="16.8148" cy="31.7500" r="1.0160" /> 
</g>
<g style="fill:#FFFFFF; fill-opacity:1.0000; stroke:none;">
<circle cx="16.8148" cy="34.2900" r="1.0160" /> 
</g>
<g style="fill:#FFFFFF; fill-opacity:1.0000; stroke:none;">
<circle cx="16.8148" cy="36.8300" r="1.0160" /> 
</g>
<g style="fill:#FFFFFF; fill-opacity:1.0000; stroke:none;">
<circle cx="16.8148" cy="39.3700" r="1.0160" /> 
<path style="fill:#FFFFFF; fill-opacity:1.0000; stroke:none;fill-rule:evenodd;"
d="M 27.8798,49.1754
27.8999,49.2767
27.9573,49.3625
28.0431,49.4199
28.1444,49.4400
28.8852,49.4400
28.9865,49.4199
29.0723,49.3625
29.1297,49.2767
29.1498,49.1754
29.1498,47.1646
29.1297,47.0633
29.0723,46.9775
28.9865,46.9201
28.8852,46.9000
28.1444,46.9000
28.0431,46.9201
27.9573,46.9775
27.8999,47.0633
27.8798,47.1646
Z" /> 
<path style="fill:#FFFFFF; fill-opacity:1.0000; stroke:none;fill-rule:evenodd;"
d="M 29.8798,49.1754
29.8999,49.2767
29.9573,49.3625
30.0431,49.4199
30.1444,49.4400
30.8852,49.4400
30.9865,49.4199
31.0723,49.3625
31.1297,49.2767
31.1498,49.1754
31.1498,47.1646
31.1297,47.0633
31.0723,46.9775
30.9865,46.9201
30.8852,46.9000
30.1444,46.9000
30.0431,46.9201
29.9573,46.9775
29.8999,47.0633
29.8798,47.1646
Z" /> 
<path style="fill:#FFFFFF; fill-opacity:1.0000; stroke:none;fill-rule:evenodd;"
d="M 44.5008,10.7188
44.4927,10.6490
44.4475,10.5465
44.3683,10.4673
44.2658,10.4221
44.1960,10.4140
42.7736,10.4140
42.7038,10.4221
42.6013,10.4673
42.5221,10.5465
42.4769,10.6490
42.4688,10.7188
42.4688,12.1412
42.4769,12.2110
42.5221,12.3135
42.6013,12.3927
42.7038,12.4379
42.7736,12.4460
44.1960,12.4460
44.2658,12.4379
44.3683,12.3927
44.4475,12.3135
44.4927,12.2110
44.5008,12.1412
Z" /> 
</g>
<g style="fill:#FFFFFF; fill-opacity:1.0000; stroke:none;">
<circle cx="43.4848" cy="13.9700" r="1.0160" /> 
</g>
<g style="fill:#FFFFFF; fill-opacity:1.0000; stroke:none;">
<circle cx="43.4848" cy="16.5100" r="1.0160" /> 
</g>
<g style="fill:#FFFFFF; fill-opacity:1.0000; stroke:none;">
<circle cx="43.4848" cy="19.0500" r="1.0160" /> 
</g>
<g style="fill:#FFFFFF; fill-opacity:1.0000; stroke:none;">
<circle cx="43.4848" cy="21.5900" r="1.0160" /> 
</g>
<g style="fill:#FFFFFF; fill-opacity:1.0000; stroke:none;">
<circle cx="43.4848" cy="24.1300" r="1.0160" /> 
</g>
<g style="fill:#FFFFFF; fill-opacity:1.0000; stroke:none;">
<circle cx="43.4848" cy="26.6700" r="1.0160" /> 
</g>
<g style="fill:#FFFFFF; fill-opacity:1.0000; stroke:none;">
<circle cx="43.4848" cy="29.2100" r="1.0160" /> 
</g>
<g style="fill:#FFFFFF; fill-opacity:1.0000; stroke:none;">
<circle cx="43.4848" cy="31.7500" r="1.0160" /> 
</g>
<g style="fill:#FFFFFF; fill-opacity:1.0000; stroke:none;">
<circle cx="43.4848" cy="34.2900" r="1.0160" /> 
</g>
<g style="fill:#FFFFFF; fill-opacity:1.0000; stroke:none;">
<circle cx="43.4848" cy="36.8300" r="1.0160" /> 
</g>
<g style="fill:#FFFFFF; fill-opacity:1.0000; stroke:none;">
<circle cx="43.4848" cy="39.3700" r="1.0160" /> 
</g>
<g style="fill:#FFFFFF; fill-opacity:1.0000; stroke:none;">
<circle cx="43.4848" cy="41.9100" r="1.0160" /> 
</g>
<g style="fill:#FFFFFF; fill-opacity:1.0000; stroke:none;">
<circle cx="43.4848" cy="44.4500" r="1.0160" /> 
</g>
<g style="fill:#FFFFFF; fill-opacity:1.0000; stroke:none;">
<circle cx="43.4848" cy="46.9900" r="1.0160" /> 
</g>
<g style="fill:#FFFFFF; fill-opacity:1.0000; stroke:none;">
<circle cx="43.4848" cy="49.5300" r="1.0160" /> 
</g>
<g style="fill:#FFFFFF; fill-opacity:1.0000; stroke:none;">
<circle cx="43.4848" cy="52.0700" r="1.0160" /> 
</g>
<g style="fill:#FFFFFF; fill-opacity:1.0000; stroke:none;">
<circle cx="43.4848" cy="54.6100" r="1.0160" /> 
</g>
<g style="fill:#FFFFFF; fill-opacity:1.0000; stroke:none;">
<circle cx="43.4848" cy="57.1500" r="1.0160" /> 
</g>
<g style="fill:#FFFFFF; fill-opacity:1.0000; stroke:none;">
<circle cx="9.1948" cy="6.3500" r="1.0160" /> 
</g>
<g style="fill:#FFFFFF; fill-opacity:1.0000; stroke:none;">
<circle cx="9.1948" cy="24.1300" r="1.0160" /> 
</g>
<g style="fill:#FFFFFF; fill-opacity:1.0000; stroke:none;">
<circle cx="20.6248" cy="16.5100" r="1.0160" /> 
</g>
<g style="fill:#FFFFFF; fill-opacity:1.0000; stroke:none;">
<circle cx="20.6248" cy="34.2900" r="1.0160" /> 
</g>
<g style="fill:none; 
stroke:#FFFFFF; stroke-width:0.8890; stroke-opacity:1; 
stroke-linecap:round; stroke-linejoin:round;">
<path d="M51.4148 19.0500
L46.0248 19.0500
" />
<path d="M46.0248 12.9540
L46.0248 19.0500
" />
<path d="M51.4148 19.0500
L52.8516 19.0500
" />
<path d="M39.6748 53.3400
L39.6748 13.9700
" />
<path d="M37.0965 53.9329
L39.0819 53.9329
" />
</g>
<g style="fill:none; 
stroke:#FFFFFF; stroke-width:0.7620; stroke-opacity:1; 
stroke-linecap:round; stroke-linejoin:round;">
<path d="M16.8148 60.9600
L29.5148 60.9600
" />
<path d="M29.5148 60.9600
L36.5419 53.9329
" />
</g>
<g style="fill:none; 
stroke:#FFFFFF; stroke-width:0.8890; stroke-opacity:1; 
stroke-linecap:round; stroke-linejoin:round;">
<path d="M36.5419 53.9329
L37.0965 53.9329
" />
<path d="M43.4848 11.4300
L44.5008 11.4300
" />
<path d="M53.6448 18.2568
L53.6448 11.4300
" />
<path d="M44.5008 11.4300
L46.0248 12.9540
" />
<path d="M52.8516 19.0500
L53.6448 18.2568
" />
<path d="M46.0248 3.8100
L16.8148 3.8100
" />
<path d="M39.6748 13.9700
L42.2148 11.4300
" />
<path d="M42.2148 11.4300
L43.4848 11.4300
" />
<path d="M39.0819 53.9329
L39.6748 53.3400
" />
</g>
<g style="fill:none; 
stroke:#FFFFFF; stroke-width:0.7620; stroke-opacity:1; 
stroke-linecap:round; stroke-linejoin:round;">
<path d="M16.8148 39.3700
L16.8148 60.9600
" />
</g>
<g style="fill:none; 
stroke:#FFFFFF; stroke-width:0.8890; stroke-opacity:1; 
stroke-linecap:round; stroke-linejoin:round;">
<path d="M53.6448 11.4300
L46.0248 3.8100
" />
<path d="M51.4148 35.5600
L51.4148 37.9568
" />
<path d="M13.0548 11.4100
L14.2548 11.4100
" />
<path d="M39.0819 56.4729
L37.0965 56.4729
" />
<path d="M44.7548 62.2300
L38.4048 62.2300
" />
<path d="M51.4148 21.5900
L51.4148 35.5600
" />
<path d="M51.4148 37.9568
L44.9216 44.4500
" />
<path d="M39.0819 56.5571
L44.7548 62.2300
" />
</g>
<g style="fill:none; 
stroke:#FFFFFF; stroke-width:0.6350; stroke-opacity:1; 
stroke-linecap:round; stroke-linejoin:round;">
<path d="M14.2548 11.4100
L16.8148 13.9700
" />
</g>
<g style="fill:none; 
stroke:#FFFFFF; stroke-width:0.8890; stroke-opacity:1; 
stroke-linecap:round; stroke-linejoin:round;">
<path d="M51.1048 35.8700
L51.4148 35.5600
" />
<path d="M44.9216 44.4500
L43.4848 44.4500
" />
<path d="M39.0819 56.4729
L39.0819 56.5571
" />
<path d="M2.8448 55.8800
L2.8448 26.6700
" />
<path d="M13.0548 11.4100
L9.2148 11.4100
" />
<path d="M51.1048 44.4500
L51.1048 35.8700
" />
<path d="M2.8448 26.6700
L5.3848 26.6700
" />
<path d="M9.2148 11.4100
L2.8448 17.7800
" />
<path d="M2.8448 17.7800
L2.8448 26.6700
" />
<path d="M44.9216 44.4500
L51.1048 44.4500
" />
<path d="M51.1048 44.4500
L51.1048 57.1500
" />
<path d="M9.1948 62.2300
L2.8448 55.8800
" />
<path d="M5.4048 26.6500
L13.0548 26.6500
" />
<path d="M38.4048 62.2300
L9.1948 62.2300
" />
<path d="M51.1048 57.1500
L46.0248 62.2300
" />
<path d="M16.7948 26.6500
L16.8148 26.6700
" />
<path d="M46.0248 62.2300
L44.7548 62.2300
" />
<path d="M5.3848 26.6700
L5.4048 26.6500
" />
<path d="M13.0548 26.6500
L16.7948 26.6500
" />
<path d="M9.1948 24.1300
L13.0348 24.1300
" />
<path d="M51.4148 13.9700
L51.4148 11.3921
" />
<path d="M51.4148 11.3921
L46.3727 6.3500
" />
<path d="M46.3727 6.3500
L16.8148 6.3500
" />
<path d="M13.0348 24.1300
L13.0548 24.1100
" />
<path d="M16.8148 6.3500
L9.1948 6.3500
" />
<path d="M24.4348 13.9700
L24.4348 21.5900
" />
<path d="M51.4148 16.5100
L49.8348 16.5100
" />
<path d="M24.4348 21.5900
L19.5916 21.5900
" />
<path d="M49.8348 16.5100
L46.0248 8.8900
" />
</g>
<g style="fill:none; 
stroke:#FFFFFF; stroke-width:0.6350; stroke-opacity:1; 
stroke-linecap:round; stroke-linejoin:round;">
<path d="M19.5916 21.5900
L14.4916 16.4900
" />
</g>
<g style="fill:none; 
stroke:#FFFFFF; stroke-width:0.8890; stroke-opacity:1; 
stroke-linecap:round; stroke-linejoin:round;">
<path d="M16.8148 8.8900
L19.3548 8.8900
" />
<path d="M46.0248 8.8900
L16.8148 8.8900
" />
</g>
<g style="fill:none; 
stroke:#FFFFFF; stroke-width:0.6350; stroke-opacity:1; 
stroke-linecap:round; stroke-linejoin:round;">
<path d="M14.4916 16.4900
L13.0548 16.4900
" />
</g>
<g style="fill:none; 
stroke:#FFFFFF; stroke-width:0.8890; stroke-opacity:1; 
stroke-linecap:round; stroke-linejoin:round;">
<path d="M19.3548 8.8900
L24.4348 13.9700
" />
</g>
<g style="fill:none; 
stroke:#FFFFFF; stroke-width:0.6350; stroke-opacity:1; 
stroke-linecap:round; stroke-linejoin:round;">
<path d="M13.0548 19.0300
L14.4916 19.0300
" />
<path d="M23.1648 27.7032
L23.1648 42.4645
" />
<path d="M23.1648 42.4645
L21.8565 43.7729
" />
<path d="M14.4916 19.0300
L23.1648 27.7032
" />
</g>
<g style="fill:none; 
stroke:#FFFFFF; stroke-width:0.8890; stroke-opacity:1; 
stroke-linecap:round; stroke-linejoin:round;">
<path d="M14.2548 34.2700
L13.0548 34.2700
" />
</g>
<g style="fill:none; 
stroke:#FFFFFF; stroke-width:0.6350; stroke-opacity:1; 
stroke-linecap:round; stroke-linejoin:round;">
<path d="M16.8148 36.8300
L14.2548 34.2700
" />
</g>
<g style="fill:none; 
stroke:#FFFFFF; stroke-width:0.8890; stroke-opacity:1; 
stroke-linecap:round; stroke-linejoin:round;">
<path d="M13.0748 13.9700
L13.0548 13.9500
" />
</g>
<g style="fill:none; 
stroke:#FFFFFF; stroke-width:0.6350; stroke-opacity:1; 
stroke-linecap:round; stroke-linejoin:round;">
<path d="M14.2748 13.9700
L16.8148 16.5100
" />
</g>
<g style="fill:none; 
stroke:#FFFFFF; stroke-width:0.8890; stroke-opacity:1; 
stroke-linecap:round; stroke-linejoin:round;">
<path d="M14.2748 13.9700
L13.0748 13.9700
" />
</g>
<g style="fill:none; 
stroke:#FFFFFF; stroke-width:0.6350; stroke-opacity:1; 
stroke-linecap:round; stroke-linejoin:round;">
<path d="M16.8148 16.5100
L20.6248 16.5100
" />
</g>
<g style="fill:none; 
stroke:#FFFFFF; stroke-width:0.8890; stroke-opacity:1; 
stroke-linecap:round; stroke-linejoin:round;">
<path d="M20.6248 34.2900
L16.8148 34.2900
" />
<path d="M13.0748 31.7500
L13.0548 31.7300
" />
<path d="M16.8148 31.7500
L13.0748 31.7500
" />
<path d="M16.8148 29.2100
L13.0748 29.2100
" />
<path d="M13.0748 29.2100
L13.0548 29.1900
" />
<path style="fill:#FFFFFF; fill-opacity:1.0000; stroke:none;fill-rule:evenodd;"
d="M 4.4194,0.5196
4.3242,0.5745
4.2536,0.6587
4.2160,0.7620
4.2160,0.8720
4.2536,0.9752
4.3039,1.0408
4.4209,1.1578
4.4209,1.1578
4.5878,1.3754
4.7249,1.6128
4.8298,1.8662
4.9008,2.1310
4.9366,2.4029
4.9366,2.6771
4.9008,2.9490
4.9008,2.9490
4.9008,2.9490
4.8298,3.2138
4.8298,3.2138
4.7249,3.4672
4.6899,3.5279
4.6015,3.6809
4.5878,3.7046
4.4209,3.9222
4.4209,3.9222
4.2270,4.1161
4.2270,4.1161
4.0094,4.2830
4.0094,4.2830
4.0094,4.2830
3.7720,4.4201
3.7720,4.4201
3.6965,4.4514
3.5186,4.5250
3.2538,4.5960
3.2538,4.5960
2.9819,4.6318
2.9819,4.6318
2.9819,4.6318
2.9819,4.6318
2.7077,4.6318
2.7077,4.6318
2.7077,4.6318
2.7077,4.6318
2.5361,4.6092
2.4358,4.5960
2.1710,4.5250
1.9176,4.4201
1.6802,4.2830
1.4626,4.1161
1.2687,3.9222
1.1018,3.7046
1.0911,3.6861
1.0204,3.6019
0.9252,3.5469
0.8170,3.5279
0.7088,3.5469
0.6136,3.6019
0.5429,3.6861
0.5053,3.7894
0.5005,3.8444
0.5005,60.2906
0.5196,60.3989
0.5745,60.4941
0.6587,60.5647
0.7620,60.6023
0.8720,60.6023
0.9752,60.5647
1.0595,60.4941
1.0911,60.4489
1.1018,60.4304
1.1018,60.4304
1.2687,60.2128
1.2687,60.2128
1.4626,60.0189
1.4626,60.0189
1.6802,59.8520
1.6802,59.8520
1.6802,59.8520
1.9176,59.7149
1.9176,59.7149
1.9176,59.7149
2.1710,59.6100
2.1710,59.6100
2.1710,59.6100
2.4358,59.5390
2.4358,59.5390
2.4358,59.5390
2.7077,59.5032
2.7077,59.5032
2.9819,59.5032
2.9819,59.5032
3.2538,59.5390
3.2538,59.5390
3.2538,59.5390
3.4303,59.5863
3.5186,59.6100
3.7720,59.7149
4.0094,59.8520
4.2270,60.0189
4.2270,60.0189
4.4209,60.2128
4.4209,60.2128
4.5878,60.4304
4.7249,60.6678
4.8298,60.9212
4.9008,61.1860
4.9366,61.4579
4.9366,61.7321
4.9008,62.0040
4.9008,62.0040
4.9008,62.0040
4.8457,62.2096
4.8298,62.2688
4.7249,62.5222
4.5878,62.7596
4.4209,62.9772
4.4209,62.9772
4.4209,62.9772
4.4164,62.9823
4.3594,63.0763
4.3379,63.1841
4.3546,63.2927
4.4075,63.3891
4.4901,63.4616
4.5926,63.5014
4.6543,63.5075
50.5653,63.5075
50.6735,63.4884
50.7687,63.4335
50.8394,63.3492
50.8770,63.2460
50.8770,63.1360
50.8394,63.0328
50.8032,62.9823
50.7987,62.9772
50.7987,62.9772
50.6318,62.7596
50.4947,62.5222
50.3898,62.2688
50.3188,62.0040
50.2830,61.7321
50.2830,61.4579
50.2985,61.3404
50.3188,61.1860
50.3188,61.1860
50.3898,60.9212
50.4947,60.6678
50.6318,60.4304
50.6318,60.4304
50.6318,60.4304
50.7987,60.2128
50.7987,60.2128
50.9926,60.0189
50.9926,60.0189
51.2102,59.8520
51.2102,59.8520
51.2102,59.8520
51.4476,59.7149
51.4476,59.7149
51.4476,59.7149
51.7010,59.6100
51.7010,59.6100
51.7010,59.6100
51.9658,59.5390
51.9658,59.5390
51.9658,59.5390
52.2377,59.5032
52.2377,59.5032
52.5119,59.5032
52.5119,59.5032
52.7838,59.5390
52.7838,59.5390
52.7838,59.5390
52.9603,59.5863
53.0486,59.6100
53.3020,59.7149
53.5394,59.8520
53.7570,60.0189
53.7570,60.0189
53.8740,60.1359
53.9640,60.1990
54.0702,60.2274
54.1797,60.2179
54.2793,60.1714
54.3571,60.0937
54.4035,59.9941
54.4143,59.9121
54.4143,23.0600
52.1664,23.0600
52.1664,23.0600
52.0486,23.1200
51.8014,23.2003
51.8014,23.2003
51.5447,23.2410
51.5447,23.2410
51.2849,23.2410
51.2849,23.2410
51.0282,23.2003
51.0282,23.2003
50.7810,23.1200
50.6632,23.0600
51.4148,22.3084
51.4148,22.3084
52.1664,23.0600
54.4143,23.0600
54.4143,20.3176
54.4096,20.2907
54.4096,20.2634
54.4001,20.2370
54.3952,20.2094
54.3815,20.1857
54.3723,20.1600
54.3543,20.1385
54.3403,20.1142
54.3193,20.0966
54.3018,20.0756
54.2775,20.0615
54.2560,20.0435
54.2304,20.0342
54.2067,20.0204
54.1791,20.0155
54.1528,20.0059
54.1254,20.0059
54.0985,20.0011
54.0709,20.0059
54.0428,20.0059
54.0172,20.0153
53.9902,20.0199
53.9714,20.0319
53.9395,20.0435
53.8949,20.0747
53.8840,20.0838
53.8034,20.1644
53.6897,20.2470
53.6174,20.2996
53.4125,20.4040
53.1938,20.4750
53.1668,20.4793
53.0629,20.5151
52.9775,20.5843
52.9208,20.6785
52.8999,20.7864
52.9171,20.8949
52.9343,20.9356
52.9448,20.9562
53.0251,21.2034
53.0251,21.2034
53.0658,21.4601
53.0658,21.7199
53.0251,21.9766
53.0251,21.9766
52.9448,22.2238
52.8848,22.3416
51.9978,21.4546
51.9078,21.3915
51.8720,21.3820
51.8807,21.3970
51.9148,21.5242
51.9148,21.6558
51.8807,21.7830
51.8149,21.8970
51.7218,21.9901
51.6078,22.0559
51.4806,22.0900
51.3490,22.0900
51.2218,22.0559
51.1078,21.9901
51.0147,21.8970
50.9489,21.7830
50.9148,21.6558
50.9148,21.5242
50.9489,21.3970
50.9590,21.3795
50.8741,21.4191
50.8318,21.4546
49.9448,22.3416
49.8848,22.2238
49.8045,21.9766
49.8045,21.9766
49.7638,21.7199
49.7638,21.7199
49.7638,21.4601
49.7638,21.4601
49.8045,21.2034
49.8045,21.2034
49.8848,20.9562
49.8879,20.9486
49.9117,20.8413
49.8974,20.7323
49.8466,20.6348
49.7656,20.5606
49.6640,20.5185
49.5955,20.5110
45.9098,20.5110
45.9098,20.5110
45.9098,20.5110
45.9098,20.5110
45.7488,20.4855
45.6389,20.4874
45.5363,20.5268
45.4534,20.5989
45.4001,20.6951
45.3829,20.8036
45.4038,20.9115
45.4069,20.9192
45.4136,20.9353
45.4136,20.9353
45.4825,21.1926
45.4825,21.1926
45.5173,21.4568
45.5173,21.7232
45.4825,21.9874
45.4825,21.9874
45.4825,21.9874
45.4171,22.2314
45.4136,22.2447
45.3116,22.4909
45.3116,22.4909
45.3116,22.4909
45.2088,22.6690
45.1899,22.7018
45.1523,22.8050
45.1523,22.9150
45.1899,23.0182
45.2347,23.0960
45.3116,23.2291
45.3116,23.2291
45.4136,23.4753
45.4825,23.7326
45.4825,23.7326
45.5173,23.9968
45.5173,24.2632
45.4825,24.5274
45.4825,24.5274
45.4825,24.5274
45.4189,24.7647
45.4136,24.7847
45.3116,25.0309
45.3116,25.0309
45.1899,25.2417
45.1523,25.3450
45.1523,25.4550
45.1899,25.5582
45.2204,25.6111
45.3116,25.7691
45.3116,25.7691
45.4136,26.0153
45.4136,26.0153
45.4634,26.2013
45.4825,26.2726
45.4825,26.2726
45.5173,26.5368
45.5173,26.8032
45.4825,27.0674
45.4825,27.0674
45.4825,27.0674
45.4604,27.1500
45.4136,27.3247
45.3116,27.5709
45.3116,27.5709
45.3116,27.5709
45.2088,27.7490
45.1899,27.7817
45.1523,27.8850
45.1523,27.9950
45.1899,28.0983
45.3116,28.3091
45.3116,28.3091
45.4136,28.5553
45.4825,28.8126
45.4825,28.8126
45.5173,29.0768
45.5173,29.3432
45.4825,29.6074
45.4825,29.6074
45.4825,29.6074
45.4189,29.8447
45.4136,29.8647
45.3116,30.1109
45.3116,30.1109
45.1899,30.3217
45.1523,30.4250
45.1523,30.5350
45.1899,30.6382
45.3116,30.8491
45.3116,30.8491
45.4136,31.0953
45.4825,31.3526
45.4825,31.3526
45.5173,31.6168
45.5173,31.8832
45.4825,32.1474
45.4825,32.1474
45.4825,32.1474
45.4245,32.3639
45.4136,32.4047
45.3116,32.6509
45.3116,32.6509
45.3116,32.6509
45.2088,32.8290
45.1899,32.8618
45.1523,32.9650
45.1523,33.0750
45.1899,33.1782
45.3116,33.3891
45.3116,33.3891
45.4136,33.6353
45.4825,33.8926
45.4825,33.8926
45.5173,34.1568
45.5173,34.4232
45.4825,34.6874
45.4825,34.6874
45.4825,34.6874
45.4189,34.9247
45.4136,34.9447
45.3116,35.1909
45.3116,35.1909
45.1899,35.4017
45.1523,35.5050
45.1523,35.6150
45.1899,35.7182
45.2337,35.7942
45.3116,35.9291
45.3116,35.9291
45.4136,36.1753
45.4136,36.1753
45.4760,36.4082
45.4825,36.4326
45.4825,36.4326
45.5173,36.6968
45.5173,36.9632
45.4825,37.2274
45.4825,37.2274
45.4825,37.2274
45.4189,37.4647
45.4136,37.4847
45.3116,37.7309
45.3116,37.7309
45.1899,37.9417
45.1523,38.0450
45.1523,38.1550
45.1899,38.2582
45.3116,38.4691
45.3116,38.4691
45.4136,38.7153
45.4825,38.9726
45.4825,38.9726
45.5173,39.2368
45.5173,39.5032
45.4825,39.7674
45.4825,39.7674
45.4825,39.7674
45.4189,40.0047
45.4136,40.0247
45.3116,40.2709
45.3116,40.2709
45.1899,40.4817
45.1523,40.5850
45.1523,40.6950
45.1899,40.7982
45.2347,40.8760
45.3116,41.0091
45.3116,41.0091
45.4136,41.2553
45.4825,41.5126
45.4825,41.5126
45.5173,41.7768
45.5173,42.0432
45.4825,42.3074
45.4825,42.3074
45.4825,42.3074
45.4497,42.4299
45.4136,42.5647
45.3116,42.8109
45.3116,42.8109
45.1784,43.0416
45.0162,43.2530
45.0162,43.2530
44.9878,43.2814
44.9247,43.3714
44.8963,43.4776
44.9059,43.5871
44.9296,43.6489
45.0148,43.8162
45.0951,44.0634
45.0951,44.0634
45.1358,44.3201
45.1358,44.5799
45.0951,44.8366
45.0951,44.8366
45.0148,45.0838
44.9296,45.2511
44.8974,45.3562
44.9032,45.4660
44.9461,45.5672
44.9878,45.6186
45.0162,45.6470
45.0162,45.6470
45.1784,45.8584
45.3116,46.0891
45.3116,46.0891
45.4136,46.3353
45.4825,46.5926
45.4825,46.5926
45.5173,46.8568
45.5173,47.1232
45.4825,47.3874
45.4825,47.3874
45.4825,47.3874
45.4154,47.6378
45.4136,47.6447
45.3116,47.8909
45.3116,47.8909
45.1899,48.1017
45.1523,48.2050
45.1523,48.3150
45.1899,48.4183
45.3116,48.6291
45.3116,48.6291
45.4136,48.8753
45.4825,49.1326
45.4825,49.1326
45.5173,49.3968
45.5173,49.6632
45.4825,49.9274
45.4825,49.9274
45.4825,49.9274
45.4189,50.1647
45.4136,50.1847
45.3116,50.4309
45.3116,50.4309
45.1899,50.6417
45.1523,50.7450
45.1523,50.8550
45.1899,50.9582
45.3116,51.1691
45.3116,51.1691
45.4136,51.4153
45.4825,51.6726
45.4825,51.6726
45.5173,51.9368
45.5173,52.2032
45.4825,52.4674
45.4825,52.4674
45.4825,52.4674
45.4154,52.7178
45.4136,52.7247
45.3116,52.9709
45.3116,52.9709
45.3116,52.9709
45.2705,53.0421
45.1899,53.1818
45.1523,53.2850
45.1523,53.3950
45.1899,53.4982
45.3116,53.7091
45.3116,53.7091
45.4136,53.9553
45.4136,53.9553
45.4622,54.1369
45.4825,54.2126
45.4825,54.2126
45.5173,54.4768
45.5173,54.7432
45.4825,55.0074
45.4825,55.0074
45.4825,55.0074
45.4136,55.2647
45.4136,55.2647
45.3116,55.5109
45.3116,55.5109
45.1899,55.7218
45.1523,55.8250
45.1523,55.9350
45.1899,56.0382
45.2347,56.1160
45.3116,56.2491
45.3116,56.2491
45.4136,56.4953
45.4825,56.7526
45.4825,56.7526
45.5173,57.0168
45.5173,57.2832
45.4825,57.5474
45.4825,57.5474
45.4825,57.5474
45.4154,57.7978
45.4136,57.8047
45.3116,58.0509
45.3116,58.0509
45.1784,58.2816
45.0162,58.4930
45.0162,58.4930
44.8278,58.6814
44.8278,58.6814
44.6164,58.8436
44.6164,58.8436
44.6164,58.8436
44.3857,58.9768
44.1395,59.0788
43.8822,59.1477
43.8822,59.1477
43.8822,59.1477
43.6180,59.1825
43.6180,59.1825
43.6180,59.1825
43.6180,59.1825
43.3516,59.1825
43.3516,59.1825
43.3516,59.1825
43.3516,59.1825
43.0874,59.1477
43.0874,59.1477
43.0874,59.1477
42.8301,59.0788
42.5839,58.9768
42.3532,58.8436
42.1418,58.6814
41.9534,58.4930
41.7912,58.2816
41.6580,58.0509
41.5560,57.8047
41.4871,57.5474
41.4844,57.5274
41.4523,57.2832
41.4523,57.2832
41.4523,57.0168
41.4523,57.0168
41.4871,56.7526
41.4871,56.7526
41.4871,56.7526
41.5560,56.4953
41.6580,56.2491
41.7797,56.0382
41.8173,55.9350
41.8173,55.8250
41.7797,55.7218
41.6580,55.5109
41.5560,55.2647
41.4871,55.0074
41.4844,54.9874
41.4523,54.7432
41.4523,54.7432
41.4523,54.4768
41.4523,54.4768
41.4661,54.3717
41.4647,54.3400
41.4681,54.3083
41.4624,54.2855
41.4613,54.2619
41.4492,54.2325
41.4415,54.2017
41.4283,54.1821
41.4193,54.1604
41.3978,54.1369
41.3800,54.1105
41.3609,54.0967
41.3450,54.0793
41.3168,54.0646
41.2911,54.0459
41.2684,54.0394
41.2475,54.0286
41.2160,54.0244
41.1854,54.0156
41.1619,54.0173
41.1385,54.0142
41.1075,54.0211
41.0758,54.0233
41.0542,54.0329
41.0312,54.0380
41.0044,54.0551
40.9754,54.0680
40.9584,54.0844
40.9385,54.0971
40.8963,54.1444
40.8770,54.1710
40.8109,54.2619
40.7892,54.2918
40.6155,54.4654
40.6155,54.4655
40.2043,54.8767
40.2043,54.8767
40.1963,54.8846
40.1963,54.8846
40.0337,55.0473
40.0337,55.0473
40.0337,55.0473
39.8477,55.1824
39.8477,55.1824
39.8288,55.1920
39.7715,55.2212
39.7715,55.2212
39.7715,55.2212
39.6428,55.2868
39.4241,55.3579
39.1969,55.3939
39.1969,55.3939
39.1969,55.3939
39.1969,55.3939
38.9539,55.3939
38.9539,55.3939
38.9157,55.3939
38.8075,55.4130
38.7123,55.4679
38.6417,55.5521
38.6041,55.6554
38.6041,55.7653
38.6233,55.8315
38.6265,55.8391
38.7068,56.0863
38.7068,56.0863
38.7475,56.3429
38.7475,56.6028
38.7068,56.8595
38.7068,56.8595
38.6265,57.1066
38.5412,57.2740
38.5091,57.3791
38.5148,57.4889
38.5578,57.5900
38.5994,57.6415
38.6278,57.6699
38.6278,57.6699
38.7900,57.8812
38.9233,58.1120
38.9233,58.1120
39.0252,58.3581
39.0942,58.6155
39.0942,58.6155
39.1290,58.8796
39.1290,59.1461
39.0942,59.4102
39.0942,59.4102
39.0942,59.4102
39.0407,59.6100
39.0252,59.6676
38.9233,59.9137
38.9233,59.9137
38.7900,60.1445
38.6278,60.3559
38.6278,60.3559
38.4395,60.5443
38.4394,60.5443
38.2281,60.7064
38.2281,60.7065
38.2281,60.7065
37.9973,60.8397
37.7512,60.9416
37.4938,61.0106
37.4938,61.0106
37.4938,61.0106
37.2297,61.0454
37.2297,61.0454
37.2297,61.0454
37.2297,61.0454
36.9632,61.0454
36.9632,61.0454
36.9632,61.0454
36.9632,61.0454
36.6991,61.0106
36.6991,61.0106
36.6991,61.0106
36.4417,60.9416
36.1956,60.8397
35.9648,60.7065
35.7535,60.5443
35.5651,60.3559
35.4029,60.1445
35.2696,59.9137
35.1677,59.6676
35.0987,59.4102
35.0911,59.3526
35.0640,59.1461
35.0640,59.1461
35.0640,58.8797
35.0640,58.8796
35.0987,58.6155
35.0987,58.6155
35.0987,58.6155
35.1677,58.3581
35.2552,58.1469
35.2790,58.0396
35.2646,57.9306
35.2139,57.8331
35.1328,57.7589
35.0313,57.7168
34.9215,57.7120
34.8166,57.7450
34.7390,57.8020
30.6371,61.9038
30.6371,61.9038
30.6292,61.9118
30.6292,61.9118
30.4666,62.0744
30.4666,62.0744
30.4666,62.0744
30.2805,62.2096
30.2805,62.2096
30.1800,62.2608
30.0756,62.3140
29.8569,62.3850
29.6298,62.4210
29.6298,62.4210
29.6298,62.4210
29.6298,62.4210
29.3868,62.4210
29.3867,62.4210
16.6998,62.4210
16.6998,62.4210
16.4727,62.3850
16.3707,62.3519
16.2540,62.3140
16.2540,62.3140
16.2540,62.3140
16.0491,62.2096
15.8630,62.0744
15.7004,61.9118
15.5652,61.7257
15.4608,61.5208
15.4571,61.5094
15.3898,61.3021
15.3898,61.3021
15.3538,61.0750
15.3538,58.3942
15.3347,58.2860
15.2798,58.1908
15.1955,58.1201
15.0923,58.0825
14.9823,58.0825
14.8790,58.1201
14.7948,58.1908
14.7632,58.2359
14.7484,58.2616
14.7484,58.2616
14.7484,58.2616
14.5862,58.4730
14.5862,58.4730
14.3978,58.6614
14.3978,58.6614
14.1864,58.8236
14.1864,58.8236
14.1864,58.8236
13.9557,58.9568
13.7095,59.0588
13.4522,59.1277
13.4522,59.1277
13.4522,59.1277
13.1880,59.1625
13.1880,59.1625
13.1880,59.1625
13.1880,59.1625
12.9216,59.1625
12.9216,59.1625
12.9216,59.1625
12.9216,59.1625
12.6574,59.1277
12.6574,59.1277
12.6574,59.1277
12.4001,59.0588
12.1539,58.9568
11.9232,58.8236
11.7118,58.6614
11.5234,58.4730
11.3612,58.2616
11.2280,58.0309
11.1260,57.7847
11.0571,57.5274
11.0510,57.4815
11.0223,57.2632
11.0223,57.2632
11.0223,56.9968
11.0223,56.9968
11.0571,56.7326
11.0571,56.7326
11.0571,56.7326
11.1260,56.4753
11.2280,56.2291
11.3497,56.0182
11.3873,55.9150
11.3873,55.8050
11.3497,55.7018
11.2280,55.4909
11.1260,55.2447
11.0571,54.9874
11.0436,54.8846
11.0223,54.7232
11.0223,54.7232
11.0223,54.4568
11.0223,54.4568
11.0571,54.1926
11.0571,54.1926
11.0571,54.1926
11.1260,53.9353
11.2280,53.6891
11.3497,53.4782
11.3873,53.3750
11.3873,53.2650
11.3497,53.1618
11.2280,52.9509
11.1260,52.7047
11.0571,52.4474
11.0571,52.4474
11.0223,52.1832
11.0223,52.1832
11.0223,51.9168
11.0223,51.9168
11.0571,51.6526
11.0571,51.6526
11.0571,51.6526
11.1260,51.3953
11.2280,51.1491
11.3497,50.9382
11.3873,50.8350
11.3873,50.7250
11.3497,50.6218
11.2280,50.4109
11.1260,50.1647
11.0571,49.9074
11.0369,49.7537
11.0223,49.6432
11.0223,49.6432
11.0223,49.3768
11.0223,49.3768
11.0571,49.1126
11.0571,49.1126
11.0571,49.1126
11.1260,48.8553
11.2280,48.6091
11.3497,48.3982
11.3873,48.2950
11.3873,48.1850
11.3497,48.0818
11.2280,47.8709
11.1260,47.6247
11.0571,47.3674
11.0571,47.3674
11.0223,47.1032
11.0223,47.1032
11.0223,46.8368
11.0223,46.8368
11.0571,46.5726
11.0571,46.5726
11.0571,46.5726
11.1260,46.3153
11.2280,46.0691
11.3497,45.8582
11.3873,45.7550
11.3873,45.6450
11.3497,45.5418
11.2280,45.3309
11.1260,45.0847
11.0571,44.8274
11.0429,44.7197
11.0223,44.5632
11.0223,44.5632
11.0223,44.2968
11.0223,44.2968
11.0571,44.0326
11.0571,44.0326
11.0571,44.0326
11.1260,43.7753
11.2280,43.5291
11.3497,43.3182
11.3873,43.2150
11.3873,43.1050
11.3497,43.0018
11.2280,42.7909
11.1260,42.5447
11.0571,42.2874
11.0297,42.0793
11.0223,42.0232
11.0223,42.0232
11.0223,41.7568
11.0223,41.7568
11.0571,41.4926
11.0571,41.4926
11.0571,41.4926
11.1260,41.2353
11.2280,40.9891
11.3497,40.7782
11.3873,40.6750
11.3873,40.5650
11.3497,40.4618
11.2280,40.2509
11.1260,40.0047
11.0571,39.7474
11.0223,39.4832
11.0223,39.2168
11.0544,38.9726
11.0571,38.9526
11.0571,38.9526
11.0571,38.9526
11.1260,38.6953
11.2280,38.4491
11.3497,38.2382
11.3873,38.1350
11.3873,38.0250
11.3497,37.9218
11.2280,37.7109
11.1260,37.4647
11.0571,37.2074
11.0223,36.9432
11.0223,36.6768
11.0434,36.5164
11.0571,36.4126
11.0571,36.4126
11.0571,36.4126
11.1260,36.1553
11.2280,35.9091
11.3497,35.6982
11.3873,35.5950
11.3873,35.4850
11.3497,35.3818
11.2280,35.1709
11.1260,34.9247
11.0571,34.6674
11.0223,34.4032
11.0223,34.1368
11.0544,33.8926
11.0571,33.8726
11.0571,33.8726
11.0571,33.8726
11.1260,33.6153
11.2280,33.3691
11.3497,33.1582
11.3873,33.0550
11.3873,32.9450
11.3497,32.8418
11.2280,32.6309
11.1260,32.3847
11.0571,32.1274
11.0571,32.1274
11.0223,31.8632
11.0223,31.8632
11.0223,31.5968
11.0223,31.5968
11.0571,31.3326
11.0571,31.3326
11.0571,31.3326
11.1260,31.0753
11.2280,30.8291
11.3497,30.6182
11.3873,30.5150
11.3873,30.4050
11.3497,30.3018
11.2280,30.0909
11.1260,29.8447
11.0571,29.5874
11.0223,29.3232
11.0223,29.0568
11.0544,28.8126
11.0571,28.7926
11.0571,28.7926
11.0571,28.7926
11.1260,28.5353
11.2280,28.2891
11.3612,28.0584
11.3612,28.0584
11.3612,28.0584
11.5234,27.8470
11.5234,27.8470
11.5518,27.8186
11.6149,27.7286
11.6433,27.6224
11.6337,27.5129
11.6100,27.4511
11.5248,27.2838
11.4445,27.0366
11.4445,27.0366
11.4038,26.7799
11.4038,26.7799
11.4038,26.5201
11.4038,26.5201
11.4445,26.2634
11.4445,26.2634
11.5283,26.0053
11.5314,25.9833
11.5390,25.9625
11.5390,25.9293
11.5436,25.8965
11.5390,25.8747
11.5390,25.8525
11.5276,25.8214
11.5208,25.7889
11.5090,25.7701
11.5014,25.7492
11.4801,25.7238
11.4625,25.6957
11.4450,25.6821
11.4307,25.6650
11.4020,25.6485
11.3759,25.6280
11.3548,25.6212
11.3355,25.6101
11.3029,25.6043
11.2713,25.5941
11.2273,25.5910
10.7370,25.5910
10.6287,25.6101
10.5443,25.6564
10.3264,25.8236
10.3264,25.8236
10.3264,25.8236
10.0957,25.9568
9.8495,26.0588
9.5922,26.1277
9.5922,26.1277
9.5922,26.1277
9.3280,26.1625
9.3280,26.1625
9.3280,26.1625
9.3280,26.1625
9.0616,26.1625
9.0616,26.1625
9.0616,26.1625
9.0616,26.1625
8.7974,26.1277
8.7974,26.1277
8.7974,26.1277
8.5401,26.0588
8.2939,25.9568
8.0632,25.8236
7.8518,25.6614
7.6634,25.4730
7.5012,25.2616
7.3680,25.0309
7.2660,24.7847
7.1971,24.5274
7.1944,24.5074
7.1623,24.2632
7.1623,24.2632
7.1623,23.9968
7.1623,23.9968
7.1971,23.7326
7.1971,23.7326
7.1971,23.7326
7.2660,23.4753
7.3680,23.2291
7.5012,22.9984
7.5012,22.9984
7.5012,22.9984
7.6634,22.7870
7.6634,22.7870
7.8518,22.5986
7.8518,22.5986
8.0632,22.4364
8.0632,22.4364
8.2939,22.3032
8.2939,22.3032
8.2939,22.3032
8.5401,22.2012
8.5401,22.2012
8.5401,22.2012
8.7974,22.1323
8.7974,22.1323
8.7974,22.1323
9.0616,22.0975
9.0616,22.0975
9.3280,22.0975
9.3280,22.0975
9.5922,22.1323
9.5922,22.1323
9.5922,22.1323
9.7951,22.1867
9.8495,22.2012
10.0957,22.3032
10.0957,22.3032
10.3264,22.4364
10.5443,22.6036
10.5870,22.6258
10.6287,22.6499
10.6356,22.6511
10.6418,22.6544
10.7370,22.6690
10.8364,22.6690
10.9446,22.6499
11.0398,22.5950
11.1105,22.5107
11.1481,22.4075
11.1481,22.2975
11.1288,22.2314
11.1260,22.2247
11.1260,22.2247
11.1260,22.2247
11.0571,21.9674
11.0524,21.9321
11.0223,21.7032
11.0223,21.7032
11.0223,21.4368
11.0223,21.4368
11.0571,21.1726
11.0571,21.1726
11.0571,21.1726
11.1260,20.9153
11.2280,20.6691
11.3497,20.4582
11.3873,20.3550
11.3873,20.2450
11.3497,20.1418
11.2280,19.9309
11.1260,19.6847
11.0571,19.4274
11.0223,19.1632
11.0223,18.8968
11.0571,18.6326
11.1260,18.3753
11.2280,18.1291
11.3497,17.9182
11.3873,17.8150
11.3873,17.7050
11.3497,17.6018
11.2280,17.3909
11.1260,17.1447
11.0571,16.8874
11.0223,16.6232
11.0223,16.3568
11.0571,16.0926
11.1260,15.8353
11.2280,15.5891
11.3497,15.3782
11.3873,15.2750
11.3873,15.1650
11.3497,15.0618
11.2280,14.8509
11.1260,14.6047
11.0571,14.3474
11.0541,14.3250
11.0223,14.0832
11.0223,14.0832
11.0223,13.8168
11.0223,13.8168
11.0571,13.5526
11.0571,13.5526
11.0571,13.5526
11.1260,13.2953
11.2280,13.0491
11.3612,12.8184
11.4118,12.7524
11.4626,12.6549
11.4769,12.5459
11.4625,12.4767
11.4657,12.4759
11.4103,12.2690
11.4103,12.2690
11.4038,12.1870
11.4038,12.1870
11.4038,11.9180
12.7383,11.9180
12.8465,11.8989
12.8786,11.8804
12.8618,11.8759
12.7478,11.8101
12.6547,11.7170
12.5889,11.6030
12.5548,11.4758
12.5548,11.3442
12.5889,11.2170
12.6547,11.1030
12.7478,11.0099
12.8618,10.9441
12.9890,10.9100
13.1206,10.9100
13.2478,10.9441
13.3618,11.0099
13.4549,11.1030
13.5207,11.2170
13.5259,11.2365
13.5580,11.1485
13.5628,11.0935
13.5628,10.9020
12.5468,10.9020
11.4038,10.9020
11.4038,10.6330
11.4103,10.5510
11.4103,10.5510
11.4614,10.3602
11.4614,10.3601
11.5511,10.1841
11.5511,10.1841
11.6754,10.0306
11.8289,9.9063
11.8289,9.9063
12.0050,9.8166
12.1958,9.7655
12.1958,9.7655
12.2778,9.7590
12.5468,9.7590
12.5468,10.9020
13.5628,10.9020
13.5628,9.7590
13.8318,9.7590
13.9138,9.7655
13.9138,9.7655
14.1046,9.8166
14.1046,9.8166
14.2807,9.9063
14.2946,9.9153
14.2960,9.9131
14.3701,9.9541
14.4787,9.9713
14.5866,9.9503
14.6808,9.8937
14.7499,9.8083
14.7857,9.7043
14.7857,9.6053
14.7813,9.5775
14.7813,9.3475
14.7813,9.3475
14.8173,9.1204
14.8173,9.1204
14.8303,9.0803
14.8458,8.9825
14.8458,8.7609
14.8458,8.7609
14.8605,8.6494
14.8795,8.5050
14.9463,8.2557
14.9492,8.2486
14.9730,8.1413
14.9587,8.0323
14.9079,7.9348
14.8269,7.8606
14.7253,7.8185
14.6568,7.8110
10.7370,7.8110
10.6287,7.8301
10.5443,7.8764
10.3264,8.0436
10.3264,8.0436
10.3264,8.0436
10.0957,8.1768
9.8495,8.2788
9.5922,8.3477
9.5922,8.3477
9.5922,8.3477
9.3280,8.3825
9.3280,8.3825
9.3280,8.3825
9.3280,8.3825
9.0616,8.3825
9.0616,8.3825
9.0616,8.3825
9.0616,8.3825
8.7974,8.3477
8.7974,8.3477
8.7974,8.3477
8.5401,8.2788
8.2939,8.1768
8.0632,8.0436
7.8518,7.8814
7.6634,7.6930
7.5012,7.4816
7.3680,7.2509
7.2660,7.0047
7.1971,6.7474
7.1623,6.4832
7.1623,6.2168
7.1971,5.9526
7.2660,5.6953
7.3680,5.4491
7.5012,5.2184
7.5012,5.2184
7.5012,5.2184
7.6634,5.0070
7.6634,5.0070
7.8518,4.8186
7.8518,4.8186
8.0632,4.6564
8.0632,4.6564
8.2939,4.5232
8.2939,4.5232
8.2939,4.5232
8.5401,4.4212
8.5401,4.4212
8.5401,4.4212
8.7974,4.3523
8.7974,4.3523
8.7974,4.3523
9.0616,4.3175
9.0616,4.3175
9.3280,4.3175
9.3280,4.3175
9.5922,4.3523
9.5922,4.3523
9.5922,4.3523
9.7951,4.4067
9.8495,4.4212
10.0957,4.5232
10.0957,4.5232
10.3264,4.6564
10.5443,4.8236
10.6418,4.8744
10.7370,4.8890
14.6568,4.8890
14.7651,4.8699
14.8603,4.8150
14.9309,4.7307
14.9685,4.6275
14.9685,4.5175
14.9492,4.4514
14.9463,4.4443
14.8795,4.1950
14.8458,3.9391
14.8458,3.6809
14.8795,3.4250
14.9463,3.1757
15.0451,2.9373
15.1741,2.7137
15.1741,2.7137
15.1741,2.7137
15.3312,2.5090
15.3313,2.5090
15.5138,2.3265
15.5138,2.3264
15.7185,2.1693
15.7185,2.1693
15.7185,2.1693
15.9421,2.0403
16.1805,1.9415
16.4298,1.8747
16.4299,1.8747
16.4299,1.8747
16.6857,1.8410
16.6857,1.8410
16.9439,1.8410
16.9439,1.8410
17.1997,1.8747
17.1998,1.8747
17.1998,1.8747
17.3660,1.9192
17.4491,1.9415
17.6875,2.0403
17.9111,2.1693
18.0600,2.2836
18.1575,2.3344
18.2527,2.3490
45.9098,2.3490
46.1398,2.3490
46.1398,2.3490
46.1398,2.3490
46.3669,2.3850
46.3669,2.3850
46.4221,2.4029
46.4221,2.4029
46.5856,2.4560
46.6859,2.5071
46.7905,2.5604
46.7905,2.5604
46.7905,2.5604
46.9766,2.6956
46.9766,2.6956
53.8740,9.5930
53.9640,9.6561
54.0702,9.6845
54.1797,9.6750
54.2793,9.6285
54.3571,9.5508
54.4035,9.4512
54.4143,9.3692
54.4143,4.2229
54.3952,4.1146
54.3403,4.0194
54.2560,3.9488
54.1528,3.9112
54.0428,3.9112
53.9395,3.9488
53.8740,3.9991
53.7570,4.1161
53.7570,4.1161
53.5394,4.2830
53.5394,4.2830
53.5394,4.2830
53.3020,4.4201
53.3020,4.4201
53.2265,4.4514
53.0486,4.5250
52.7838,4.5960
52.7838,4.5960
52.5119,4.6318
52.5119,4.6318
52.5119,4.6318
52.5119,4.6318
52.2377,4.6318
52.2377,4.6318
52.2377,4.6318
52.2377,4.6318
52.0661,4.6092
51.9658,4.5960
51.7010,4.5250
51.4476,4.4201
51.2102,4.2830
50.9926,4.1161
50.7987,3.9222
50.6318,3.7046
50.4947,3.4672
50.3898,3.2138
50.3188,2.9490
50.2985,2.7946
50.2830,2.6771
50.2830,2.6771
50.2830,2.4029
50.2830,2.4029
50.3188,2.1310
50.3188,2.1310
50.3898,1.8662
50.4947,1.6128
50.6318,1.3754
50.6318,1.3754
50.6318,1.3754
50.7987,1.1578
50.7987,1.1578
50.9157,1.0408
50.9788,0.9508
51.0072,0.8446
50.9977,0.7351
50.9512,0.6355
50.8735,0.5577
50.7739,0.5113
50.6919,0.5005
4.5277,0.5005
Z" /> 
<path style="fill:#FFFFFF; fill-opacity:1.0000; stroke:none;fill-rule:evenodd;"
d="M 15.2294,22.0248
15.1991,22.0274
15.1764,22.0380
15.1522,22.0440
15.1270,22.0610
15.0995,22.0739
15.0818,22.0915
15.0611,22.1055
15.0432,22.1301
15.0217,22.1516
15.0081,22.1784
14.9965,22.1945
14.9858,22.2164
14.9836,22.2247
14.8816,22.4709
14.7543,22.6914
14.7495,22.7013
14.7373,22.7437
14.7223,22.7850
14.7223,22.7962
14.7192,22.8070
14.7223,22.8509
14.7223,22.8950
14.7261,22.9055
14.7269,22.9167
14.7599,22.9982
14.7903,23.0510
14.8816,23.2091
14.8816,23.2091
14.9836,23.4553
15.0525,23.7126
15.0525,23.7126
15.0873,23.9768
15.0873,24.2432
15.0525,24.5074
15.0525,24.5074
15.0525,24.5074
15.0472,24.5274
14.9836,24.7647
14.8816,25.0109
14.8816,25.0109
14.7484,25.2416
14.5862,25.4530
14.5862,25.4530
14.5578,25.4814
14.5455,25.4989
14.5298,25.5135
14.5142,25.5436
14.4947,25.5714
14.4892,25.5921
14.4794,25.6111
14.4751,25.6448
14.4663,25.6776
14.4682,25.6989
14.4654,25.7202
14.4723,25.7459
14.4759,25.7871
14.4896,25.8274
14.6461,26.2013
14.6689,26.2367
14.6886,26.2739
14.6984,26.2827
14.7055,26.2938
14.7390,26.3193
14.7703,26.3475
14.7825,26.3524
14.7929,26.3604
14.8332,26.3729
14.8722,26.3887
14.8854,26.3891
14.8979,26.3930
14.9400,26.3910
14.9821,26.3925
14.9946,26.3884
15.0077,26.3878
15.0466,26.3716
15.0866,26.3585
15.0970,26.3505
15.1091,26.3454
15.1400,26.3168
15.1733,26.2909
15.1802,26.2797
15.1898,26.2708
15.2092,26.2334
15.2315,26.1976
15.2391,26.1769
15.2848,26.0362
15.3448,25.9184
15.3448,25.9184
16.2318,26.8054
16.3218,26.8685
16.3576,26.8780
16.3489,26.8630
16.3148,26.7358
16.3148,26.6042
16.3489,26.4770
16.4147,26.3630
16.5078,26.2699
16.6218,26.2041
16.7490,26.1700
16.8806,26.1700
17.0078,26.2041
17.1218,26.2699
17.2149,26.3630
17.2807,26.4770
17.3148,26.6042
17.3148,26.7358
17.2807,26.8630
17.2706,26.8805
17.3555,26.8409
17.3978,26.8054
18.2848,25.9184
18.3448,26.0362
18.4251,26.2834
18.4251,26.2834
18.4658,26.5401
18.4658,26.7999
18.4251,27.0566
18.4251,27.0566
18.3448,27.3038
18.2596,27.4711
18.2274,27.5762
18.2332,27.6860
18.2761,27.7872
18.3178,27.8386
18.3462,27.8670
18.3462,27.8670
18.5084,28.0784
18.6416,28.3091
18.6416,28.3091
18.7436,28.5553
18.8125,28.8126
18.8125,28.8126
18.8473,29.0768
18.8473,29.3432
18.8125,29.6074
18.8125,29.6074
18.8125,29.6074
18.7489,29.8447
18.7436,29.8647
18.6416,30.1109
18.6416,30.1109
18.5199,30.3217
18.4823,30.4250
18.4823,30.5350
18.5199,30.6382
18.6416,30.8491
18.6416,30.8491
18.7436,31.0953
18.8125,31.3526
18.8125,31.3526
18.8473,31.6168
18.8473,31.8832
18.8125,32.1474
18.8125,32.1474
18.8125,32.1474
18.7489,32.3847
18.7436,32.4047
18.7415,32.4108
18.7409,32.4145
18.7409,32.4147
18.7409,32.4147
18.7378,32.4347
18.7295,32.4575
18.7295,32.4887
18.7248,32.5194
18.7295,32.5432
18.7295,32.5675
18.7402,32.5967
18.7462,32.6272
18.7588,32.6480
18.7671,32.6707
18.7871,32.6946
18.8033,32.7212
18.8222,32.7364
18.8378,32.7550
18.8647,32.7705
18.8890,32.7900
18.9120,32.7978
18.9330,32.8099
18.9636,32.8153
18.9931,32.8253
19.0412,32.8290
19.0826,32.8290
19.1909,32.8099
19.2753,32.7636
19.4932,32.5964
19.4932,32.5964
19.7239,32.4632
19.7239,32.4632
19.7239,32.4632
19.9701,32.3612
19.9701,32.3612
19.9701,32.3612
20.2274,32.2923
20.2274,32.2923
20.2274,32.2923
20.4916,32.2575
20.4916,32.2575
20.7580,32.2575
20.7580,32.2575
21.0222,32.2923
21.0222,32.2923
21.0222,32.2923
21.0567,32.3015
21.2795,32.3612
21.2856,32.3633
21.2894,32.3639
21.2895,32.3639
21.2895,32.3639
21.3942,32.3800
21.5020,32.3586
21.5960,32.3015
21.6648,32.2158
21.7001,32.1117
21.7038,32.0636
21.7038,28.4394
21.6847,28.3312
21.6298,28.2360
21.6111,28.2156
20.0655,26.6700
18.5955,25.2000
17.5664,25.2000
16.8148,25.9516
16.8148,25.9516
16.0632,25.2000
16.1810,25.1400
16.4282,25.0597
16.4282,25.0596
16.6849,25.0190
16.9447,25.0190
17.2014,25.0596
17.2014,25.0597
17.4486,25.1400
17.5664,25.2000
18.5955,25.2000
15.5048,22.1093
15.4843,22.0950
15.4670,22.0770
15.4397,22.0637
15.4148,22.0463
15.3906,22.0398
15.3682,22.0289
15.3379,22.0257
15.3086,22.0178
15.2837,22.0200
15.2588,22.0174
Z" /> 
</g>
<g style="fill:none; 
stroke:#FFFFFF; stroke-width:0.0500; stroke-opacity:1; 
stroke-linecap:round; stroke-linejoin:round;">
<circle cx="2.8448" cy="61.5950" r="1.5913" /> 
<circle cx="2.8448" cy="2.5400" r="1.5913" /> 
<circle cx="52.3748" cy="2.5400" r="1.5913" /> 
<circle cx="52.3748" cy="61.5950" r="1.5913" /> 
<path style="fill:none; 
stroke:#FFFFFF; stroke-width:0.0500; stroke-opacity:1; 
stroke-linecap:round; stroke-linejoin:round;fill:none"
d="M 54.9148,0.0000
0.0000,0.0000
0.0000,64.0080
54.9148,64.0080
Z" /> 
</g>
<g style="fill:#000000; fill-opacity:1.0000; stroke:none;">
<circle cx="9.1948" cy="6.3500" r="0.3810" /> 
</g>
<g style="fill:#000000; fill-opacity:1.0000; stroke:none;">
<circle cx="9.1948" cy="24.1300" r="0.3810" /> 
</g>
<g style="fill:#000000; fill-opacity:1.0000; stroke:none;">
<circle cx="20.6248" cy="16.5100" r="0.3810" /> 
</g>
<g style="fill:#000000; fill-opacity:1.0000; stroke:none;">
<circle cx="20.6248" cy="34.2900" r="0.3810" /> 
</g>
<g style="fill:#000000; fill-opacity:1.0000; stroke:none;">
<circle cx="13.0548" cy="57.1300" r="0.5000" /> 
</g>
<g style="fill:#000000; fill-opacity:1.0000; stroke:none;">
<circle cx="13.0548" cy="54.5900" r="0.5000" /> 
</g>
<g style="fill:#000000; fill-opacity:1.0000; stroke:none;">
<circle cx="13.0548" cy="52.0500" r="0.5000" /> 
</g>
<g style="fill:#000000; fill-opacity:1.0000; stroke:none;">
<circle cx="13.0548" cy="49.5100" r="0.5000" /> 
</g>
<g style="fill:#000000; fill-opacity:1.0000; stroke:none;">
<circle cx="13.0548" cy="46.9700" r="0.5000" /> 
</g>
<g style="fill:#000000; fill-opacity:1.0000; stroke:none;">
<circle cx="13.0548" cy="44.4300" r="0.5000" /> 
</g>
<g style="fill:#000000; fill-opacity:1.0000; stroke:none;">
<circle cx="13.0548" cy="41.8900" r="0.5000" /> 
</g>
<g style="fill:#000000; fill-opacity:1.0000; stroke:none;">
<circle cx="13.0548" cy="39.3500" r="0.5000" /> 
</g>
<g style="fill:#000000; fill-opacity:1.0000; stroke:none;">
<circle cx="13.0548" cy="36.8100" r="0.5000" /> 
</g>
<g style="fill:#000000; fill-opacity:1.0000; stroke:none;">
<circle cx="13.0548" cy="34.2700" r="0.5000" /> 
</g>
<g style="fill:#000000; fill-opacity:1.0000; stroke:none;">
<circle cx="13.0548" cy="31.7300" r="0.5000" /> 
</g>
<g style="fill:#000000; fill-opacity:1.0000; stroke:none;">
<circle cx="13.0548" cy="29.1900" r="0.5000" /> 
</g>
<g style="fill:#000000; fill-opacity:1.0000; stroke:none;">
<circle cx="13.0548" cy="26.6500" r="0.5000" /> 
</g>
<g style="fill:#000000; fill-opacity:1.0000; stroke:none;">
<circle cx="13.0548" cy="24.1100" r="0.5000" /> 
</g>
<g style="fill:#000000; fill-opacity:1.0000; stroke:none;">
<circle cx="13.0548" cy="21.5700" r="0.5000" /> 
</g>
<g style="fill:#000000; fill-opacity:1.0000; stroke:none;">
<circle cx="13.0548" cy="19.0300" r="0.5000" /> 
</g>
<g style="fill:#000000; fill-opacity:1.0000; stroke:none;">
<circle cx="13.0548" cy="16.4900" r="0.5000" /> 
</g>
<g style="fill:#000000; fill-opacity:1.0000; stroke:none;">
<circle cx="13.0548" cy="13.9500" r="0.5000" /> 
</g>
<g style="fill:#000000; fill-opacity:1.0000; stroke:none;">
<circle cx="13.0548" cy="11.4100" r="0.5000" /> 
</g>
<g style="fill:#000000; fill-opacity:1.0000; stroke:none;">
<circle cx="37.0965" cy="43.7729" r="0.5000" /> 
</g>
<g style="fill:#000000; fill-opacity:1.0000; stroke:none;">
<circle cx="37.0965" cy="46.3129" r="0.5000" /> 
</g>
<g style="fill:#000000; fill-opacity:1.0000; stroke:none;">
<circle cx="37.0965" cy="48.8529" r="0.5000" /> 
</g>
<g style="fill:#000000; fill-opacity:1.0000; stroke:none;">
<circle cx="37.0965" cy="51.3929" r="0.5000" /> 
</g>
<g style="fill:#000000; fill-opacity:1.0000; stroke:none;">
<circle cx="37.0965" cy="53.9329" r="0.5000" /> 
</g>
<g style="fill:#000000; fill-opacity:1.0000; stroke:none;">
<circle cx="37.0965" cy="56.4729" r="0.5000" /> 
</g>
<g style="fill:#000000; fill-opacity:1.0000; stroke:none;">
<circle cx="37.0965" cy="59.0129" r="0.5000" /> 
</g>
<g style="fill:#000000; fill-opacity:1.0000; stroke:none;">
<circle cx="21.8565" cy="43.7729" r="0.5000" /> 
</g>
<g style="fill:#000000; fill-opacity:1.0000; stroke:none;">
<circle cx="21.8565" cy="46.3129" r="0.5000" /> 
</g>
<g style="fill:#000000; fill-opacity:1.0000; stroke:none;">
<circle cx="21.8565" cy="48.8529" r="0.5000" /> 
</g>
<g style="fill:#000000; fill-opacity:1.0000; stroke:none;">
<circle cx="21.8565" cy="51.3929" r="0.5000" /> 
</g>
<g style="fill:#000000; fill-opacity:1.0000; stroke:none;">
<circle cx="21.8565" cy="53.9329" r="0.5000" /> 
</g>
<g style="fill:#000000; fill-opacity:1.0000; stroke:none;">
<circle cx="21.8565" cy="56.4729" r="0.5000" /> 
</g>
<g style="fill:#000000; fill-opacity:1.0000; stroke:none;">
<circle cx="21.8565" cy="59.0129" r="0.5000" /> 
</g>
<g style="fill:#000000; fill-opacity:1.0000; stroke:none;">
<circle cx="16.8148" cy="3.8100" r="0.3810" /> 
</g>
<g style="fill:#000000; fill-opacity:1.0000; stroke:none;">
<circle cx="16.8148" cy="6.3500" r="0.3810" /> 
</g>
<g style="fill:#000000; fill-opacity:1.0000; stroke:none;">
<circle cx="16.8148" cy="8.8900" r="0.3810" /> 
</g>
<g style="fill:#000000; fill-opacity:1.0000; stroke:none;">
<circle cx="16.8148" cy="11.4300" r="0.3810" /> 
</g>
<g style="fill:#000000; fill-opacity:1.0000; stroke:none;">
<circle cx="16.8148" cy="13.9700" r="0.3810" /> 
</g>
<g style="fill:#000000; fill-opacity:1.0000; stroke:none;">
<circle cx="51.4148" cy="21.5900" r="0.5000" /> 
</g>
<g style="fill:#000000; fill-opacity:1.0000; stroke:none;">
<circle cx="51.4148" cy="19.0500" r="0.5000" /> 
</g>
<g style="fill:#000000; fill-opacity:1.0000; stroke:none;">
<circle cx="51.4148" cy="16.5100" r="0.5000" /> 
</g>
<g style="fill:#000000; fill-opacity:1.0000; stroke:none;">
<circle cx="51.4148" cy="13.9700" r="0.5000" /> 
</g>
<g style="fill:#000000; fill-opacity:1.0000; stroke:none;">
<circle cx="16.8148" cy="26.6700" r="0.5000" /> 
</g>
<g style="fill:#000000; fill-opacity:1.0000; stroke:none;">
<circle cx="16.8148" cy="29.2100" r="0.5000" /> 
</g>
<g style="fill:#000000; fill-opacity:1.0000; stroke:none;">
<circle cx="16.8148" cy="31.7500" r="0.5000" /> 
</g>
<g style="fill:#000000; fill-opacity:1.0000; stroke:none;">
<circle cx="16.8148" cy="34.2900" r="0.5000" /> 
</g>
<g style="fill:#000000; fill-opacity:1.0000; stroke:none;">
<circle cx="16.8148" cy="36.8300" r="0.5000" /> 
</g>
<g style="fill:#000000; fill-opacity:1.0000; stroke:none;">
<circle cx="16.8148" cy="39.3700" r="0.5000" /> 
</g>
<g style="fill:#000000; fill-opacity:1.0000; stroke:none;">
<circle cx="28.5148" cy="48.1700" r="0.3750" /> 
</g>
<g style="fill:#000000; fill-opacity:1.0000; stroke:none;">
<circle cx="30.5148" cy="48.1700" r="0.3750" /> 
</g>
<g style="fill:#000000; fill-opacity:1.0000; stroke:none;">
<circle cx="43.4848" cy="11.4300" r="0.5000" /> 
</g>
<g style="fill:#000000; fill-opacity:1.0000; stroke:none;">
<circle cx="43.4848" cy="13.9700" r="0.5000" /> 
</g>
<g style="fill:#000000; fill-opacity:1.0000; stroke:none;">
<circle cx="43.4848" cy="16.5100" r="0.5000" /> 
</g>
<g style="fill:#000000; fill-opacity:1.0000; stroke:none;">
<circle cx="43.4848" cy="19.0500" r="0.5000" /> 
</g>
<g style="fill:#000000; fill-opacity:1.0000; stroke:none;">
<circle cx="43.4848" cy="21.5900" r="0.5000" /> 
</g>
<g style="fill:#000000; fill-opacity:1.0000; stroke:none;">
<circle cx="43.4848" cy="24.1300" r="0.5000" /> 
</g>
<g style="fill:#000000; fill-opacity:1.0000; stroke:none;">
<circle cx="43.4848" cy="26.6700" r="0.5000" /> 
</g>
<g style="fill:#000000; fill-opacity:1.0000; stroke:none;">
<circle cx="43.4848" cy="29.2100" r="0.5000" /> 
</g>
<g style="fill:#000000; fill-opacity:1.0000; stroke:none;">
<circle cx="43.4848" cy="31.7500" r="0.5000" /> 
</g>
<g style="fill:#000000; fill-opacity:1.0000; stroke:none;">
<circle cx="43.4848" cy="34.2900" r="0.5000" /> 
</g>
<g style="fill:#000000; fill-opacity:1.0000; stroke:none;">
<circle cx="43.4848" cy="36.8300" r="0.5000" /> 
</g>
<g style="fill:#000000; fill-opacity:1.0000; stroke:none;">
<circle cx="43.4848" cy="39.3700" r="0.5000" /> 
</g>
<g style="fill:#000000; fill-opacity:1.0000; stroke:none;">
<circle cx="43.4848" cy="41.9100" r="0.5000" /> 
</g>
<g style="fill:#000000; fill-opacity:1.0000; stroke:none;">
<circle cx="43.4848" cy="44.4500" r="0.5000" /> 
</g>
<g style="fill:#000000; fill-opacity:1.0000; stroke:none;">
<circle cx="43.4848" cy="46.9900" r="0.5000" /> 
</g>
<g style="fill:#000000; fill-opacity:1.0000; stroke:none;">
<circle cx="43.4848" cy="49.5300" r="0.5000" /> 
</g>
<g style="fill:#000000; fill-opacity:1.0000; stroke:none;">
<circle cx="43.4848" cy="52.0700" r="0.5000" /> 
</g>
<g style="fill:#000000; fill-opacity:1.0000; stroke:none;">
<circle cx="43.4848" cy="54.6100" r="0.5000" /> 
</g>
<g style="fill:#000000; fill-opacity:1.0000; stroke:none;">
<circle cx="43.4848" cy="57.1500" r="0.5000" /> 
</g> 
</svg>
