<?xml version="1.0" standalone="no"?>
 <!DOCTYPE svg PUBLIC "-//W3C//DTD SVG 1.1//EN" 
 "http://www.w3.org/Graphics/SVG/1.1/DTD/svg11.dtd"> 
<svg
  xmlns:svg="http://www.w3.org/2000/svg"
  xmlns="http://www.w3.org/2000/svg"
  xmlns:xlink="http://www.w3.org/1999/xlink"
  version="1.1"
  width="54.9148mm" height="64.0080mm" viewBox="0.0000 0.0000 54.9148 64.0080">
<title>SVG Image created as mask-back.svg date 2025/12/14 15:40:27 </title>
  <desc>Image generated by PCBNEW </desc>
<g style="fill:#000000; fill-opacity:1.0000;stroke:#000000; stroke-opacity:1.0000;
stroke-linecap:round; stroke-linejoin:round;"
 transform="translate(0 0) scale(1 1)">
</g>
<g style="fill:#000000; fill-opacity:1.0000; stroke:none;">
<circle cx="13.0548" cy="57.1300" r="1.0160" /> 
</g>
<g style="fill:#000000; fill-opacity:1.0000; stroke:none;">
<circle cx="13.0548" cy="54.5900" r="1.0160" /> 
</g>
<g style="fill:#000000; fill-opacity:1.0000; stroke:none;">
<circle cx="13.0548" cy="52.0500" r="1.0160" /> 
</g>
<g style="fill:#000000; fill-opacity:1.0000; stroke:none;">
<circle cx="13.0548" cy="49.5100" r="1.0160" /> 
</g>
<g style="fill:#000000; fill-opacity:1.0000; stroke:none;">
<circle cx="13.0548" cy="46.9700" r="1.0160" /> 
</g>
<g style="fill:#000000; fill-opacity:1.0000; stroke:none;">
<circle cx="13.0548" cy="44.4300" r="1.0160" /> 
</g>
<g style="fill:#000000; fill-opacity:1.0000; stroke:none;">
<circle cx="13.0548" cy="41.8900" r="1.0160" /> 
</g>
<g style="fill:#000000; fill-opacity:1.0000; stroke:none;">
<circle cx="13.0548" cy="39.3500" r="1.0160" /> 
</g>
<g style="fill:#000000; fill-opacity:1.0000; stroke:none;">
<circle cx="13.0548" cy="36.8100" r="1.0160" /> 
</g>
<g style="fill:#000000; fill-opacity:1.0000; stroke:none;">
<circle cx="13.0548" cy="34.2700" r="1.0160" /> 
</g>
<g style="fill:#000000; fill-opacity:1.0000; stroke:none;">
<circle cx="13.0548" cy="31.7300" r="1.0160" /> 
</g>
<g style="fill:#000000; fill-opacity:1.0000; stroke:none;">
<circle cx="13.0548" cy="29.1900" r="1.0160" /> 
</g>
<g style="fill:#000000; fill-opacity:1.0000; stroke:none;">
<circle cx="13.0548" cy="26.6500" r="1.0160" /> 
</g>
<g style="fill:#000000; fill-opacity:1.0000; stroke:none;">
<circle cx="13.0548" cy="24.1100" r="1.0160" /> 
</g>
<g style="fill:#000000; fill-opacity:1.0000; stroke:none;">
<circle cx="13.0548" cy="21.5700" r="1.0160" /> 
</g>
<g style="fill:#000000; fill-opacity:1.0000; stroke:none;">
<circle cx="13.0548" cy="19.0300" r="1.0160" /> 
</g>
<g style="fill:#000000; fill-opacity:1.0000; stroke:none;">
<circle cx="13.0548" cy="16.4900" r="1.0160" /> 
</g>
<g style="fill:#000000; fill-opacity:1.0000; stroke:none;">
<circle cx="13.0548" cy="13.9500" r="1.0160" /> 
<path style="fill:#000000; fill-opacity:1.0000; stroke:none;fill-rule:evenodd;"
d="M 12.0388,12.1212
12.0469,12.1910
12.0921,12.2935
12.1713,12.3727
12.2738,12.4179
12.3436,12.4260
13.7660,12.4260
13.8358,12.4179
13.9383,12.3727
14.0175,12.2935
14.0627,12.1910
14.0708,12.1212
14.0708,10.6988
14.0627,10.6290
14.0175,10.5265
13.9383,10.4473
13.8358,10.4021
13.7660,10.3940
12.3436,10.3940
12.2738,10.4021
12.1713,10.4473
12.0921,10.5265
12.0469,10.6290
12.0388,10.6988
Z" /> 
</g>
<g style="fill:#000000; fill-opacity:1.0000; stroke:none;">
<circle cx="37.0965" cy="43.7729" r="1.0160" /> 
</g>
<g style="fill:#000000; fill-opacity:1.0000; stroke:none;">
<circle cx="37.0965" cy="46.3129" r="1.0160" /> 
</g>
<g style="fill:#000000; fill-opacity:1.0000; stroke:none;">
<circle cx="37.0965" cy="48.8529" r="1.0160" /> 
</g>
<g style="fill:#000000; fill-opacity:1.0000; stroke:none;">
<circle cx="37.0965" cy="51.3929" r="1.0160" /> 
</g>
<g style="fill:#000000; fill-opacity:1.0000; stroke:none;">
<circle cx="37.0965" cy="53.9329" r="1.0160" /> 
</g>
<g style="fill:#000000; fill-opacity:1.0000; stroke:none;">
<circle cx="37.0965" cy="56.4729" r="1.0160" /> 
</g>
<g style="fill:#000000; fill-opacity:1.0000; stroke:none;">
<circle cx="37.0965" cy="59.0129" r="1.0160" /> 
</g>
<g style="fill:#000000; fill-opacity:1.0000; stroke:none;">
<circle cx="21.8565" cy="43.7729" r="1.0160" /> 
</g>
<g style="fill:#000000; fill-opacity:1.0000; stroke:none;">
<circle cx="21.8565" cy="46.3129" r="1.0160" /> 
</g>
<g style="fill:#000000; fill-opacity:1.0000; stroke:none;">
<circle cx="21.8565" cy="48.8529" r="1.0160" /> 
</g>
<g style="fill:#000000; fill-opacity:1.0000; stroke:none;">
<circle cx="21.8565" cy="51.3929" r="1.0160" /> 
</g>
<g style="fill:#000000; fill-opacity:1.0000; stroke:none;">
<circle cx="21.8565" cy="53.9329" r="1.0160" /> 
</g>
<g style="fill:#000000; fill-opacity:1.0000; stroke:none;">
<circle cx="21.8565" cy="56.4729" r="1.0160" /> 
</g>
<g style="fill:#000000; fill-opacity:1.0000; stroke:none;">
<circle cx="21.8565" cy="59.0129" r="1.0160" /> 
<path style="fill:#000000; fill-opacity:1.0000; stroke:none;fill-rule:evenodd;"
d="M 23.3403,52.0855
23.3611,52.1899
23.4203,52.2785
23.5089,52.3377
23.6134,52.3585
25.1755,52.3585
25.2800,52.3377
25.3685,52.2785
25.4277,52.1899
25.4485,52.0855
25.4485,51.5394
25.4277,51.4349
25.3685,51.3463
25.2800,51.2871
25.1755,51.2663
23.6134,51.2663
23.5089,51.2871
23.4203,51.3463
23.3611,51.4349
23.3403,51.5394
Z" /> 
<path style="fill:#000000; fill-opacity:1.0000; stroke:none;fill-rule:evenodd;"
d="M 25.4485,53.4444
25.4277,53.3399
25.3685,53.2513
25.2800,53.1921
25.1755,53.1713
23.6134,53.1713
23.5089,53.1921
23.4203,53.2513
23.3611,53.3399
23.3403,53.4444
23.3403,53.9905
23.3611,54.0949
23.4203,54.1835
23.5089,54.2427
23.6134,54.2635
25.1755,54.2635
25.2800,54.2427
25.3685,54.1835
25.4277,54.0949
25.4485,53.9905
Z" /> 
</g>
<g style="fill:#000000; fill-opacity:1.0000; stroke:none;">
<circle cx="16.8148" cy="3.8100" r="0.9525" /> 
</g>
<g style="fill:#000000; fill-opacity:1.0000; stroke:none;">
<circle cx="16.8148" cy="6.3500" r="0.9525" /> 
</g>
<g style="fill:#000000; fill-opacity:1.0000; stroke:none;">
<circle cx="16.8148" cy="8.8900" r="0.9525" /> 
</g>
<g style="fill:#000000; fill-opacity:1.0000; stroke:none;">
<circle cx="16.8148" cy="11.4300" r="0.9525" /> 
</g>
<g style="fill:#000000; fill-opacity:1.0000; stroke:none;">
<circle cx="16.8148" cy="13.9700" r="0.9525" /> 
</g>
<g style="fill:#000000; fill-opacity:1.0000; stroke:none;">
<circle cx="51.4148" cy="21.5900" r="1.0160" /> 
</g>
<g style="fill:#000000; fill-opacity:1.0000; stroke:none;">
<circle cx="51.4148" cy="19.0500" r="1.0160" /> 
</g>
<g style="fill:#000000; fill-opacity:1.0000; stroke:none;">
<circle cx="51.4148" cy="16.5100" r="1.0160" /> 
</g>
<g style="fill:#000000; fill-opacity:1.0000; stroke:none;">
<circle cx="51.4148" cy="13.9700" r="1.0160" /> 
</g>
<g style="fill:#000000; fill-opacity:1.0000; stroke:none;">
<circle cx="16.8148" cy="26.6700" r="1.0160" /> 
</g>
<g style="fill:#000000; fill-opacity:1.0000; stroke:none;">
<circle cx="16.8148" cy="29.2100" r="1.0160" /> 
</g>
<g style="fill:#000000; fill-opacity:1.0000; stroke:none;">
<circle cx="16.8148" cy="31.7500" r="1.0160" /> 
</g>
<g style="fill:#000000; fill-opacity:1.0000; stroke:none;">
<circle cx="16.8148" cy="34.2900" r="1.0160" /> 
</g>
<g style="fill:#000000; fill-opacity:1.0000; stroke:none;">
<circle cx="16.8148" cy="36.8300" r="1.0160" /> 
</g>
<g style="fill:#000000; fill-opacity:1.0000; stroke:none;">
<circle cx="16.8148" cy="39.3700" r="1.0160" /> 
<path style="fill:#000000; fill-opacity:1.0000; stroke:none;fill-rule:evenodd;"
d="M 27.8798,49.1754
27.8999,49.2767
27.9573,49.3625
28.0431,49.4199
28.1444,49.4400
28.8852,49.4400
28.9865,49.4199
29.0723,49.3625
29.1297,49.2767
29.1498,49.1754
29.1498,47.1646
29.1297,47.0633
29.0723,46.9775
28.9865,46.9201
28.8852,46.9000
28.1444,46.9000
28.0431,46.9201
27.9573,46.9775
27.8999,47.0633
27.8798,47.1646
Z" /> 
<path style="fill:#000000; fill-opacity:1.0000; stroke:none;fill-rule:evenodd;"
d="M 29.8798,49.1754
29.8999,49.2767
29.9573,49.3625
30.0431,49.4199
30.1444,49.4400
30.8852,49.4400
30.9865,49.4199
31.0723,49.3625
31.1297,49.2767
31.1498,49.1754
31.1498,47.1646
31.1297,47.0633
31.0723,46.9775
30.9865,46.9201
30.8852,46.9000
30.1444,46.9000
30.0431,46.9201
29.9573,46.9775
29.8999,47.0633
29.8798,47.1646
Z" /> 
<path style="fill:#000000; fill-opacity:1.0000; stroke:none;fill-rule:evenodd;"
d="M 44.5008,10.7188
44.4927,10.6490
44.4475,10.5465
44.3683,10.4673
44.2658,10.4221
44.1960,10.4140
42.7736,10.4140
42.7038,10.4221
42.6013,10.4673
42.5221,10.5465
42.4769,10.6490
42.4688,10.7188
42.4688,12.1412
42.4769,12.2110
42.5221,12.3135
42.6013,12.3927
42.7038,12.4379
42.7736,12.4460
44.1960,12.4460
44.2658,12.4379
44.3683,12.3927
44.4475,12.3135
44.4927,12.2110
44.5008,12.1412
Z" /> 
</g>
<g style="fill:#000000; fill-opacity:1.0000; stroke:none;">
<circle cx="43.4848" cy="13.9700" r="1.0160" /> 
</g>
<g style="fill:#000000; fill-opacity:1.0000; stroke:none;">
<circle cx="43.4848" cy="16.5100" r="1.0160" /> 
</g>
<g style="fill:#000000; fill-opacity:1.0000; stroke:none;">
<circle cx="43.4848" cy="19.0500" r="1.0160" /> 
</g>
<g style="fill:#000000; fill-opacity:1.0000; stroke:none;">
<circle cx="43.4848" cy="21.5900" r="1.0160" /> 
</g>
<g style="fill:#000000; fill-opacity:1.0000; stroke:none;">
<circle cx="43.4848" cy="24.1300" r="1.0160" /> 
</g>
<g style="fill:#000000; fill-opacity:1.0000; stroke:none;">
<circle cx="43.4848" cy="26.6700" r="1.0160" /> 
</g>
<g style="fill:#000000; fill-opacity:1.0000; stroke:none;">
<circle cx="43.4848" cy="29.2100" r="1.0160" /> 
</g>
<g style="fill:#000000; fill-opacity:1.0000; stroke:none;">
<circle cx="43.4848" cy="31.7500" r="1.0160" /> 
</g>
<g style="fill:#000000; fill-opacity:1.0000; stroke:none;">
<circle cx="43.4848" cy="34.2900" r="1.0160" /> 
</g>
<g style="fill:#000000; fill-opacity:1.0000; stroke:none;">
<circle cx="43.4848" cy="36.8300" r="1.0160" /> 
</g>
<g style="fill:#000000; fill-opacity:1.0000; stroke:none;">
<circle cx="43.4848" cy="39.3700" r="1.0160" /> 
</g>
<g style="fill:#000000; fill-opacity:1.0000; stroke:none;">
<circle cx="43.4848" cy="41.9100" r="1.0160" /> 
</g>
<g style="fill:#000000; fill-opacity:1.0000; stroke:none;">
<circle cx="43.4848" cy="44.4500" r="1.0160" /> 
</g>
<g style="fill:#000000; fill-opacity:1.0000; stroke:none;">
<circle cx="43.4848" cy="46.9900" r="1.0160" /> 
</g>
<g style="fill:#000000; fill-opacity:1.0000; stroke:none;">
<circle cx="43.4848" cy="49.5300" r="1.0160" /> 
</g>
<g style="fill:#000000; fill-opacity:1.0000; stroke:none;">
<circle cx="43.4848" cy="52.0700" r="1.0160" /> 
</g>
<g style="fill:#000000; fill-opacity:1.0000; stroke:none;">
<circle cx="43.4848" cy="54.6100" r="1.0160" /> 
</g>
<g style="fill:#000000; fill-opacity:1.0000; stroke:none;">
<circle cx="43.4848" cy="57.1500" r="1.0160" /> 
</g>
<g style="fill:none; 
stroke:#000000; stroke-width:0.0500; stroke-opacity:1; 
stroke-linecap:round; stroke-linejoin:round;">
<circle cx="2.8448" cy="61.5950" r="1.5913" /> 
<circle cx="2.8448" cy="2.5400" r="1.5913" /> 
<circle cx="52.3748" cy="2.5400" r="1.5913" /> 
<circle cx="52.3748" cy="61.5950" r="1.5913" /> 
<path style="fill:none; 
stroke:#000000; stroke-width:0.0500; stroke-opacity:1; 
stroke-linecap:round; stroke-linejoin:round;fill:none"
d="M 54.9148,0.0000
0.0000,0.0000
0.0000,64.0080
54.9148,64.0080
Z" /> 
</g>
<g style="fill:#FFFFFF; fill-opacity:1.0000; stroke:none;">
<circle cx="13.0548" cy="57.1300" r="0.5000" /> 
</g>
<g style="fill:#FFFFFF; fill-opacity:1.0000; stroke:none;">
<circle cx="13.0548" cy="54.5900" r="0.5000" /> 
</g>
<g style="fill:#FFFFFF; fill-opacity:1.0000; stroke:none;">
<circle cx="13.0548" cy="52.0500" r="0.5000" /> 
</g>
<g style="fill:#FFFFFF; fill-opacity:1.0000; stroke:none;">
<circle cx="13.0548" cy="49.5100" r="0.5000" /> 
</g>
<g style="fill:#FFFFFF; fill-opacity:1.0000; stroke:none;">
<circle cx="13.0548" cy="46.9700" r="0.5000" /> 
</g>
<g style="fill:#FFFFFF; fill-opacity:1.0000; stroke:none;">
<circle cx="13.0548" cy="44.4300" r="0.5000" /> 
</g>
<g style="fill:#FFFFFF; fill-opacity:1.0000; stroke:none;">
<circle cx="13.0548" cy="41.8900" r="0.5000" /> 
</g>
<g style="fill:#FFFFFF; fill-opacity:1.0000; stroke:none;">
<circle cx="13.0548" cy="39.3500" r="0.5000" /> 
</g>
<g style="fill:#FFFFFF; fill-opacity:1.0000; stroke:none;">
<circle cx="13.0548" cy="36.8100" r="0.5000" /> 
</g>
<g style="fill:#FFFFFF; fill-opacity:1.0000; stroke:none;">
<circle cx="13.0548" cy="34.2700" r="0.5000" /> 
</g>
<g style="fill:#FFFFFF; fill-opacity:1.0000; stroke:none;">
<circle cx="13.0548" cy="31.7300" r="0.5000" /> 
</g>
<g style="fill:#FFFFFF; fill-opacity:1.0000; stroke:none;">
<circle cx="13.0548" cy="29.1900" r="0.5000" /> 
</g>
<g style="fill:#FFFFFF; fill-opacity:1.0000; stroke:none;">
<circle cx="13.0548" cy="26.6500" r="0.5000" /> 
</g>
<g style="fill:#FFFFFF; fill-opacity:1.0000; stroke:none;">
<circle cx="13.0548" cy="24.1100" r="0.5000" /> 
</g>
<g style="fill:#FFFFFF; fill-opacity:1.0000; stroke:none;">
<circle cx="13.0548" cy="21.5700" r="0.5000" /> 
</g>
<g style="fill:#FFFFFF; fill-opacity:1.0000; stroke:none;">
<circle cx="13.0548" cy="19.0300" r="0.5000" /> 
</g>
<g style="fill:#FFFFFF; fill-opacity:1.0000; stroke:none;">
<circle cx="13.0548" cy="16.4900" r="0.5000" /> 
</g>
<g style="fill:#FFFFFF; fill-opacity:1.0000; stroke:none;">
<circle cx="13.0548" cy="13.9500" r="0.5000" /> 
</g>
<g style="fill:#FFFFFF; fill-opacity:1.0000; stroke:none;">
<circle cx="13.0548" cy="11.4100" r="0.5000" /> 
</g>
<g style="fill:#FFFFFF; fill-opacity:1.0000; stroke:none;">
<circle cx="37.0965" cy="43.7729" r="0.5000" /> 
</g>
<g style="fill:#FFFFFF; fill-opacity:1.0000; stroke:none;">
<circle cx="37.0965" cy="46.3129" r="0.5000" /> 
</g>
<g style="fill:#FFFFFF; fill-opacity:1.0000; stroke:none;">
<circle cx="37.0965" cy="48.8529" r="0.5000" /> 
</g>
<g style="fill:#FFFFFF; fill-opacity:1.0000; stroke:none;">
<circle cx="37.0965" cy="51.3929" r="0.5000" /> 
</g>
<g style="fill:#FFFFFF; fill-opacity:1.0000; stroke:none;">
<circle cx="37.0965" cy="53.9329" r="0.5000" /> 
</g>
<g style="fill:#FFFFFF; fill-opacity:1.0000; stroke:none;">
<circle cx="37.0965" cy="56.4729" r="0.5000" /> 
</g>
<g style="fill:#FFFFFF; fill-opacity:1.0000; stroke:none;">
<circle cx="37.0965" cy="59.0129" r="0.5000" /> 
</g>
<g style="fill:#FFFFFF; fill-opacity:1.0000; stroke:none;">
<circle cx="21.8565" cy="43.7729" r="0.5000" /> 
</g>
<g style="fill:#FFFFFF; fill-opacity:1.0000; stroke:none;">
<circle cx="21.8565" cy="46.3129" r="0.5000" /> 
</g>
<g style="fill:#FFFFFF; fill-opacity:1.0000; stroke:none;">
<circle cx="21.8565" cy="48.8529" r="0.5000" /> 
</g>
<g style="fill:#FFFFFF; fill-opacity:1.0000; stroke:none;">
<circle cx="21.8565" cy="51.3929" r="0.5000" /> 
</g>
<g style="fill:#FFFFFF; fill-opacity:1.0000; stroke:none;">
<circle cx="21.8565" cy="53.9329" r="0.5000" /> 
</g>
<g style="fill:#FFFFFF; fill-opacity:1.0000; stroke:none;">
<circle cx="21.8565" cy="56.4729" r="0.5000" /> 
</g>
<g style="fill:#FFFFFF; fill-opacity:1.0000; stroke:none;">
<circle cx="21.8565" cy="59.0129" r="0.5000" /> 
</g>
<g style="fill:#FFFFFF; fill-opacity:1.0000; stroke:none;">
<circle cx="16.8148" cy="3.8100" r="0.3810" /> 
</g>
<g style="fill:#FFFFFF; fill-opacity:1.0000; stroke:none;">
<circle cx="16.8148" cy="6.3500" r="0.3810" /> 
</g>
<g style="fill:#FFFFFF; fill-opacity:1.0000; stroke:none;">
<circle cx="16.8148" cy="8.8900" r="0.3810" /> 
</g>
<g style="fill:#FFFFFF; fill-opacity:1.0000; stroke:none;">
<circle cx="16.8148" cy="11.4300" r="0.3810" /> 
</g>
<g style="fill:#FFFFFF; fill-opacity:1.0000; stroke:none;">
<circle cx="16.8148" cy="13.9700" r="0.3810" /> 
</g>
<g style="fill:#FFFFFF; fill-opacity:1.0000; stroke:none;">
<circle cx="51.4148" cy="21.5900" r="0.5000" /> 
</g>
<g style="fill:#FFFFFF; fill-opacity:1.0000; stroke:none;">
<circle cx="51.4148" cy="19.0500" r="0.5000" /> 
</g>
<g style="fill:#FFFFFF; fill-opacity:1.0000; stroke:none;">
<circle cx="51.4148" cy="16.5100" r="0.5000" /> 
</g>
<g style="fill:#FFFFFF; fill-opacity:1.0000; stroke:none;">
<circle cx="51.4148" cy="13.9700" r="0.5000" /> 
</g>
<g style="fill:#FFFFFF; fill-opacity:1.0000; stroke:none;">
<circle cx="16.8148" cy="26.6700" r="0.5000" /> 
</g>
<g style="fill:#FFFFFF; fill-opacity:1.0000; stroke:none;">
<circle cx="16.8148" cy="29.2100" r="0.5000" /> 
</g>
<g style="fill:#FFFFFF; fill-opacity:1.0000; stroke:none;">
<circle cx="16.8148" cy="31.7500" r="0.5000" /> 
</g>
<g style="fill:#FFFFFF; fill-opacity:1.0000; stroke:none;">
<circle cx="16.8148" cy="34.2900" r="0.5000" /> 
</g>
<g style="fill:#FFFFFF; fill-opacity:1.0000; stroke:none;">
<circle cx="16.8148" cy="36.8300" r="0.5000" /> 
</g>
<g style="fill:#FFFFFF; fill-opacity:1.0000; stroke:none;">
<circle cx="16.8148" cy="39.3700" r="0.5000" /> 
</g>
<g style="fill:#FFFFFF; fill-opacity:1.0000; stroke:none;">
<circle cx="28.5148" cy="48.1700" r="0.3750" /> 
</g>
<g style="fill:#FFFFFF; fill-opacity:1.0000; stroke:none;">
<circle cx="30.5148" cy="48.1700" r="0.3750" /> 
</g>
<g style="fill:#FFFFFF; fill-opacity:1.0000; stroke:none;">
<circle cx="43.4848" cy="11.4300" r="0.5000" /> 
</g>
<g style="fill:#FFFFFF; fill-opacity:1.0000; stroke:none;">
<circle cx="43.4848" cy="13.9700" r="0.5000" /> 
</g>
<g style="fill:#FFFFFF; fill-opacity:1.0000; stroke:none;">
<circle cx="43.4848" cy="16.5100" r="0.5000" /> 
</g>
<g style="fill:#FFFFFF; fill-opacity:1.0000; stroke:none;">
<circle cx="43.4848" cy="19.0500" r="0.5000" /> 
</g>
<g style="fill:#FFFFFF; fill-opacity:1.0000; stroke:none;">
<circle cx="43.4848" cy="21.5900" r="0.5000" /> 
</g>
<g style="fill:#FFFFFF; fill-opacity:1.0000; stroke:none;">
<circle cx="43.4848" cy="24.1300" r="0.5000" /> 
</g>
<g style="fill:#FFFFFF; fill-opacity:1.0000; stroke:none;">
<circle cx="43.4848" cy="26.6700" r="0.5000" /> 
</g>
<g style="fill:#FFFFFF; fill-opacity:1.0000; stroke:none;">
<circle cx="43.4848" cy="29.2100" r="0.5000" /> 
</g>
<g style="fill:#FFFFFF; fill-opacity:1.0000; stroke:none;">
<circle cx="43.4848" cy="31.7500" r="0.5000" /> 
</g>
<g style="fill:#FFFFFF; fill-opacity:1.0000; stroke:none;">
<circle cx="43.4848" cy="34.2900" r="0.5000" /> 
</g>
<g style="fill:#FFFFFF; fill-opacity:1.0000; stroke:none;">
<circle cx="43.4848" cy="36.8300" r="0.5000" /> 
</g>
<g style="fill:#FFFFFF; fill-opacity:1.0000; stroke:none;">
<circle cx="43.4848" cy="39.3700" r="0.5000" /> 
</g>
<g style="fill:#FFFFFF; fill-opacity:1.0000; stroke:none;">
<circle cx="43.4848" cy="41.9100" r="0.5000" /> 
</g>
<g style="fill:#FFFFFF; fill-opacity:1.0000; stroke:none;">
<circle cx="43.4848" cy="44.4500" r="0.5000" /> 
</g>
<g style="fill:#FFFFFF; fill-opacity:1.0000; stroke:none;">
<circle cx="43.4848" cy="46.9900" r="0.5000" /> 
</g>
<g style="fill:#FFFFFF; fill-opacity:1.0000; stroke:none;">
<circle cx="43.4848" cy="49.5300" r="0.5000" /> 
</g>
<g style="fill:#FFFFFF; fill-opacity:1.0000; stroke:none;">
<circle cx="43.4848" cy="52.0700" r="0.5000" /> 
</g>
<g style="fill:#FFFFFF; fill-opacity:1.0000; stroke:none;">
<circle cx="43.4848" cy="54.6100" r="0.5000" /> 
</g>
<g style="fill:#FFFFFF; fill-opacity:1.0000; stroke:none;">
<circle cx="43.4848" cy="57.1500" r="0.5000" /> 
</g> 
</svg>
