  0
SECTION
  2
HEADER
  9
$ANGBASE
  50
0.0
  9
$ANGDIR
  70
1
  9
$MEASUREMENT
  70
1
  0
ENDSEC
  0
SECTION
  2
TABLES
  0
TABLE
  2
LTYPE
  70
4
  0
LTYPE
  5
40F
  2
CONTINUOUS
  70
0
  3
Solid line
  72
65
  73
0
  40
0.0
  0
LTYPE
  5
410
  2
DASHDOT
 70
0
  3
Dash Dot ____ _ ____ _
 72
65
 73
4
 40
2.0
 49
1.25
 49
-0.25
 49
0.25
 49
-0.25
  0
LTYPE
  5
411
  2
DASHED
 70
0
  3
Dashed __ __ __ __ __
 72
65
 73
2
 40
0.75
 49
0.5
 49
-0.25
  0
LTYPE
  5
43B
  2
DOTTED
 70
0
  3
Dotted .  .  .  .
 72
65
 73
2
 40
0.2
 49
0.0
 49
-0.2
  0
ENDTAB
  0
TABLE
  2
STYLE
  70
4
  0
STYLE
  2
KICAD
  70
0
  40
0
  41
1
  42
1
  50
0
  71
0
  3
isocp.shx
  0
STYLE
  2
KICADB
  70
0
  40
0
  41
1
  42
1
  50
0
  71
0
  3
isocp.shx
  0
STYLE
  2
KICADI
  70
0
  40
0
  41
1
  42
1
  50
15
  71
0
  3
isocp.shx
  0
STYLE
  2
KICADBI
  70
0
  40
0
  41
1
  42
1
  50
15
  71
0
  3
isocp.shx
  0
ENDTAB
  0
TABLE
  2
LAYER
  70
35
  0
LAYER
  2
BLACK
  70
0
  62
7
  6
CONTINUOUS
  0
LAYER
  2
GRAY1
  70
0
  62
251
  6
CONTINUOUS
  0
LAYER
  2
GRAY2
  70
0
  62
8
  6
CONTINUOUS
  0
LAYER
  2
GRAY3
  70
0
  62
9
  6
CONTINUOUS
  0
LAYER
  2
WHITE
  70
0
  62
7
  6
CONTINUOUS
  0
LAYER
  2
LYELLOW
  70
0
  62
51
  6
CONTINUOUS
  0
LAYER
  2
LORANGE
  70
0
  62
41
  6
CONTINUOUS
  0
LAYER
  2
BLUE1
  70
0
  62
178
  6
CONTINUOUS
  0
LAYER
  2
GREEN1
  70
0
  62
98
  6
CONTINUOUS
  0
LAYER
  2
CYAN1
  70
0
  62
138
  6
CONTINUOUS
  0
LAYER
  2
RED1
  70
0
  62
18
  6
CONTINUOUS
  0
LAYER
  2
MAGENTA1
  70
0
  62
228
  6
CONTINUOUS
  0
LAYER
  2
BROWN1
  70
0
  62
58
  6
CONTINUOUS
  0
LAYER
  2
ORANGE1
  70
0
  62
34
  6
CONTINUOUS
  0
LAYER
  2
BLUE2
  70
0
  62
5
  6
CONTINUOUS
  0
LAYER
  2
GREEN2
  70
0
  62
3
  6
CONTINUOUS
  0
LAYER
  2
CYAN2
  70
0
  62
4
  6
CONTINUOUS
  0
LAYER
  2
RED2
  70
0
  62
1
  6
CONTINUOUS
  0
LAYER
  2
MAGENTA2
  70
0
  62
6
  6
CONTINUOUS
  0
LAYER
  2
BROWN2
  70
0
  62
54
  6
CONTINUOUS
  0
LAYER
  2
ORANGE2
  70
0
  62
42
  6
CONTINUOUS
  0
LAYER
  2
BLUE3
  70
0
  62
171
  6
CONTINUOUS
  0
LAYER
  2
GREEN3
  70
0
  62
91
  6
CONTINUOUS
  0
LAYER
  2
CYAN3
  70
0
  62
131
  6
CONTINUOUS
  0
LAYER
  2
RED3
  70
0
  62
11
  6
CONTINUOUS
  0
LAYER
  2
MAGENTA3
  70
0
  62
221
  6
CONTINUOUS
  0
LAYER
  2
YELLOW3
  70
0
  62
2
  6
CONTINUOUS
  0
LAYER
  2
ORANGE3
  70
0
  62
32
  6
CONTINUOUS
  0
LAYER
  2
BLUE4
  70
0
  62
5
  6
CONTINUOUS
  0
LAYER
  2
GREEN4
  70
0
  62
3
  6
CONTINUOUS
  0
LAYER
  2
CYAN4
  70
0
  62
4
  6
CONTINUOUS
  0
LAYER
  2
RED4
  70
0
  62
1
  6
CONTINUOUS
  0
LAYER
  2
MAGENTA4
  70
0
  62
6
  6
CONTINUOUS
  0
LAYER
  2
YELLOW4
  70
0
  62
2
  6
CONTINUOUS
  0
LAYER
  2
ORANGE4
  70
0
  62
40
  6
CONTINUOUS
  0
ENDTAB
  0
ENDSEC
  0
SECTION
  2
ENTITIES
0
LINE
8
LYELLOW
6
CONTINUOUS
10
28.3129639999999974
20
-52.050498999999995
11
27.5034409999999987
21
-52.050498999999995
0
LINE
8
LYELLOW
6
CONTINUOUS
10
27.5034409999999987
20
-52.050498999999995
11
27.4082030000000003
21
-52.0981179999999995
0
LINE
8
LYELLOW
6
CONTINUOUS
10
27.4082030000000003
20
-52.0981179999999995
11
27.3605839999999993
21
-52.1457369999999969
0
LINE
8
LYELLOW
6
CONTINUOUS
10
27.3605839999999993
20
-52.1457369999999969
11
27.3129639999999974
21
-52.2409749999999988
0
LINE
8
LYELLOW
6
CONTINUOUS
10
27.3129639999999974
20
-52.2409749999999988
11
27.3129639999999974
21
-52.4314509999999956
0
LINE
8
LYELLOW
6
CONTINUOUS
10
27.3129639999999974
20
-52.4314509999999956
11
27.3605839999999993
21
-52.5266889999999975
0
LINE
8
LYELLOW
6
CONTINUOUS
10
27.3605839999999993
20
-52.5266889999999975
11
27.4082030000000003
21
-52.5743079999999949
0
LINE
8
LYELLOW
6
CONTINUOUS
10
27.4082030000000003
20
-52.5743079999999949
11
27.5034409999999987
21
-52.6219269999999995
0
LINE
8
LYELLOW
6
CONTINUOUS
10
27.5034409999999987
20
-52.6219269999999995
11
28.3129639999999974
21
-52.6219269999999995
0
LINE
8
LYELLOW
6
CONTINUOUS
10
28.217725999999999
20
-53.050498999999995
11
28.2653449999999999
21
-53.0981179999999995
0
LINE
8
LYELLOW
6
CONTINUOUS
10
28.2653449999999999
20
-53.0981179999999995
11
28.3129639999999974
21
-53.1933559999999943
0
LINE
8
LYELLOW
6
CONTINUOUS
10
28.3129639999999974
20
-53.1933559999999943
11
28.3129639999999974
21
-53.4314509999999956
0
LINE
8
LYELLOW
6
CONTINUOUS
10
28.3129639999999974
20
-53.4314509999999956
11
28.2653449999999999
21
-53.5266889999999975
0
LINE
8
LYELLOW
6
CONTINUOUS
10
28.2653449999999999
20
-53.5266889999999975
11
28.217725999999999
21
-53.5743079999999949
0
LINE
8
LYELLOW
6
CONTINUOUS
10
28.217725999999999
20
-53.5743079999999949
11
28.122487999999997
21
-53.6219269999999995
0
LINE
8
LYELLOW
6
CONTINUOUS
10
28.122487999999997
20
-53.6219269999999995
11
28.0272499999999987
21
-53.6219269999999995
0
LINE
8
LYELLOW
6
CONTINUOUS
10
28.0272499999999987
20
-53.6219269999999995
11
27.8843929999999993
21
-53.5743079999999949
0
LINE
8
LYELLOW
6
CONTINUOUS
10
27.8843929999999993
20
-53.5743079999999949
11
27.3129639999999974
21
-53.0028799999999976
0
LINE
8
LYELLOW
6
CONTINUOUS
10
27.3129639999999974
20
-53.0028799999999976
11
27.3129639999999974
21
-53.6219269999999995
0
LINE
8
LYELLOW
6
CONTINUOUS
10
31.3593559999999982
20
-44.4399839999999955
11
30.7879279999999973
21
-44.4399839999999955
0
LINE
8
LYELLOW
6
CONTINUOUS
10
31.0736419999999995
20
-43.4399839999999955
11
31.0736419999999995
21
-44.4399839999999955
0
LINE
8
LYELLOW
6
CONTINUOUS
10
30.5498319999999985
20
-44.4399839999999955
11
29.8831659999999992
21
-43.4399839999999955
0
LINE
8
LYELLOW
6
CONTINUOUS
10
29.8831659999999992
20
-44.4399839999999955
11
30.5498319999999985
21
-43.4399839999999955
0
LINE
8
LYELLOW
6
CONTINUOUS
10
31.5141179999999999
20
-46.2376039999999975
11
31.371260999999997
21
-46.1899839999999955
0
LINE
8
LYELLOW
6
CONTINUOUS
10
31.371260999999997
20
-46.1899839999999955
11
31.1331659999999992
21
-46.1899839999999955
0
LINE
8
LYELLOW
6
CONTINUOUS
10
31.1331659999999992
20
-46.1899839999999955
11
31.0379279999999973
21
-46.2376039999999975
0
LINE
8
LYELLOW
6
CONTINUOUS
10
31.0379279999999973
20
-46.2376039999999975
11
30.9903089999999999
21
-46.2852229999999949
0
LINE
8
LYELLOW
6
CONTINUOUS
10
30.9903089999999999
20
-46.2852229999999949
11
30.9426899999999989
21
-46.3804609999999968
0
LINE
8
LYELLOW
6
CONTINUOUS
10
30.9426899999999989
20
-46.3804609999999968
11
30.9426899999999989
21
-46.4756989999999988
0
LINE
8
LYELLOW
6
CONTINUOUS
10
30.9426899999999989
20
-46.4756989999999988
11
30.9903089999999999
21
-46.5709370000000007
0
LINE
8
LYELLOW
6
CONTINUOUS
10
30.9903089999999999
20
-46.5709370000000007
11
31.0379279999999973
21
-46.6185559999999981
0
LINE
8
LYELLOW
6
CONTINUOUS
10
31.0379279999999973
20
-46.6185559999999981
11
31.1331659999999992
21
-46.6661749999999955
0
LINE
8
LYELLOW
6
CONTINUOUS
10
31.1331659999999992
20
-46.6661749999999955
11
31.3236419999999995
21
-46.713794
0
LINE
8
LYELLOW
6
CONTINUOUS
10
31.3236419999999995
20
-46.713794
11
31.4188799999999979
21
-46.7614129999999975
0
LINE
8
LYELLOW
6
CONTINUOUS
10
31.4188799999999979
20
-46.7614129999999975
11
31.4664989999999989
21
-46.8090319999999949
0
LINE
8
LYELLOW
6
CONTINUOUS
10
31.4664989999999989
20
-46.8090319999999949
11
31.5141179999999999
21
-46.9042699999999968
0
LINE
8
LYELLOW
6
CONTINUOUS
10
31.5141179999999999
20
-46.9042699999999968
11
31.5141179999999999
21
-46.9995079999999987
0
LINE
8
LYELLOW
6
CONTINUOUS
10
31.5141179999999999
20
-46.9995079999999987
11
31.4664989999999989
21
-47.0947460000000007
0
LINE
8
LYELLOW
6
CONTINUOUS
10
31.4664989999999989
20
-47.0947460000000007
11
31.4188799999999979
21
-47.1423649999999981
0
LINE
8
LYELLOW
6
CONTINUOUS
10
31.4188799999999979
20
-47.1423649999999981
11
31.3236419999999995
21
-47.1899839999999955
0
LINE
8
LYELLOW
6
CONTINUOUS
10
31.3236419999999995
20
-47.1899839999999955
11
31.0855469999999983
21
-47.1899839999999955
0
LINE
8
LYELLOW
6
CONTINUOUS
10
31.0855469999999983
20
-47.1899839999999955
11
30.9426899999999989
21
-47.1423649999999981
0
LINE
8
LYELLOW
6
CONTINUOUS
10
29.9426899999999989
20
-46.2852229999999949
11
29.9903089999999999
21
-46.2376039999999975
0
LINE
8
LYELLOW
6
CONTINUOUS
10
29.9903089999999999
20
-46.2376039999999975
11
30.1331659999999992
21
-46.1899839999999955
0
LINE
8
LYELLOW
6
CONTINUOUS
10
30.1331659999999992
20
-46.1899839999999955
11
30.2284039999999976
21
-46.1899839999999955
0
LINE
8
LYELLOW
6
CONTINUOUS
10
30.2284039999999976
20
-46.1899839999999955
11
30.371260999999997
21
-46.2376039999999975
0
LINE
8
LYELLOW
6
CONTINUOUS
10
30.371260999999997
20
-46.2376039999999975
11
30.4664989999999989
21
-46.3328419999999994
0
LINE
8
LYELLOW
6
CONTINUOUS
10
30.4664989999999989
20
-46.3328419999999994
11
30.5141179999999999
21
-46.4280800000000013
0
LINE
8
LYELLOW
6
CONTINUOUS
10
30.5141179999999999
20
-46.4280800000000013
11
30.5617369999999973
21
-46.6185559999999981
0
LINE
8
LYELLOW
6
CONTINUOUS
10
30.5617369999999973
20
-46.6185559999999981
11
30.5617369999999973
21
-46.7614129999999975
0
LINE
8
LYELLOW
6
CONTINUOUS
10
30.5617369999999973
20
-46.7614129999999975
11
30.5141179999999999
21
-46.9518890000000013
0
LINE
8
LYELLOW
6
CONTINUOUS
10
30.5141179999999999
20
-46.9518890000000013
11
30.4664989999999989
21
-47.0471269999999961
0
LINE
8
LYELLOW
6
CONTINUOUS
10
30.4664989999999989
20
-47.0471269999999961
11
30.371260999999997
21
-47.1423649999999981
0
LINE
8
LYELLOW
6
CONTINUOUS
10
30.371260999999997
20
-47.1423649999999981
11
30.2284039999999976
21
-47.1899839999999955
0
LINE
8
LYELLOW
6
CONTINUOUS
10
30.2284039999999976
20
-47.1899839999999955
11
30.1331659999999992
21
-47.1899839999999955
0
LINE
8
LYELLOW
6
CONTINUOUS
10
30.1331659999999992
20
-47.1899839999999955
11
29.9903089999999999
21
-47.1423649999999981
0
LINE
8
LYELLOW
6
CONTINUOUS
10
29.9903089999999999
20
-47.1423649999999981
11
29.9426899999999989
21
-47.0947460000000007
0
LINE
8
LYELLOW
6
CONTINUOUS
10
29.0379279999999973
20
-46.1899839999999955
11
29.5141179999999999
21
-46.1899839999999955
0
LINE
8
LYELLOW
6
CONTINUOUS
10
29.5141179999999999
20
-46.1899839999999955
11
29.5141179999999999
21
-47.1899839999999955
0
LINE
8
LYELLOW
6
CONTINUOUS
10
22.2164989999999989
20
-48.4399839999999955
11
22.2164989999999989
21
-49.4399839999999955
0
LINE
8
LYELLOW
6
CONTINUOUS
10
22.2164989999999989
20
-49.4399839999999955
11
21.8831659999999992
21
-48.7256989999999988
0
LINE
8
LYELLOW
6
CONTINUOUS
10
21.8831659999999992
20
-48.7256989999999988
11
21.5498329999999996
21
-49.4399839999999955
0
LINE
8
LYELLOW
6
CONTINUOUS
10
21.5498329999999996
20
-49.4399839999999955
11
21.5498329999999996
21
-48.4399839999999955
0
LINE
8
LYELLOW
6
CONTINUOUS
10
21.0736419999999995
20
-48.4399839999999955
11
21.0736419999999995
21
-49.4399839999999955
0
LINE
8
LYELLOW
6
CONTINUOUS
10
20.645070999999998
20
-48.4876039999999975
11
20.5022139999999986
21
-48.4399839999999955
0
LINE
8
LYELLOW
6
CONTINUOUS
10
20.5022139999999986
20
-48.4399839999999955
11
20.2641189999999973
21
-48.4399839999999955
0
LINE
8
LYELLOW
6
CONTINUOUS
10
20.2641189999999973
20
-48.4399839999999955
11
20.1688809999999989
21
-48.4876039999999975
0
LINE
8
LYELLOW
6
CONTINUOUS
10
20.1688809999999989
20
-48.4876039999999975
11
20.121261999999998
21
-48.5352229999999949
0
LINE
8
LYELLOW
6
CONTINUOUS
10
20.121261999999998
20
-48.5352229999999949
11
20.0736430000000006
21
-48.6304609999999968
0
LINE
8
LYELLOW
6
CONTINUOUS
10
20.0736430000000006
20
-48.6304609999999968
11
20.0736430000000006
21
-48.7256989999999988
0
LINE
8
LYELLOW
6
CONTINUOUS
10
20.0736430000000006
20
-48.7256989999999988
11
20.121261999999998
21
-48.8209370000000007
0
LINE
8
LYELLOW
6
CONTINUOUS
10
20.121261999999998
20
-48.8209370000000007
11
20.1688809999999989
21
-48.8685559999999981
0
LINE
8
LYELLOW
6
CONTINUOUS
10
20.1688809999999989
20
-48.8685559999999981
11
20.2641189999999973
21
-48.9161749999999955
0
LINE
8
LYELLOW
6
CONTINUOUS
10
20.2641189999999973
20
-48.9161749999999955
11
20.4545949999999976
21
-48.963794
0
LINE
8
LYELLOW
6
CONTINUOUS
10
20.4545949999999976
20
-48.963794
11
20.5498329999999996
21
-49.0114129999999975
0
LINE
8
LYELLOW
6
CONTINUOUS
10
20.5498329999999996
20
-49.0114129999999975
11
20.5974520000000005
21
-49.0590319999999949
0
LINE
8
LYELLOW
6
CONTINUOUS
10
20.5974520000000005
20
-49.0590319999999949
11
20.645070999999998
21
-49.1542699999999968
0
LINE
8
LYELLOW
6
CONTINUOUS
10
20.645070999999998
20
-49.1542699999999968
11
20.645070999999998
21
-49.2495079999999987
0
LINE
8
LYELLOW
6
CONTINUOUS
10
20.645070999999998
20
-49.2495079999999987
11
20.5974520000000005
21
-49.3447460000000007
0
LINE
8
LYELLOW
6
CONTINUOUS
10
20.5974520000000005
20
-49.3447460000000007
11
20.5498329999999996
21
-49.3923649999999981
0
LINE
8
LYELLOW
6
CONTINUOUS
10
20.5498329999999996
20
-49.3923649999999981
11
20.4545949999999976
21
-49.4399839999999955
0
LINE
8
LYELLOW
6
CONTINUOUS
10
20.4545949999999976
20
-49.4399839999999955
11
20.2164999999999999
21
-49.4399839999999955
0
LINE
8
LYELLOW
6
CONTINUOUS
10
20.2164999999999999
20
-49.4399839999999955
11
20.0736430000000006
21
-49.3923649999999981
0
LINE
8
LYELLOW
6
CONTINUOUS
10
19.4545949999999976
20
-49.4399839999999955
11
19.2641190000000009
21
-49.4399839999999955
0
LINE
8
LYELLOW
6
CONTINUOUS
10
19.2641190000000009
20
-49.4399839999999955
11
19.1688809999999989
21
-49.3923649999999981
0
LINE
8
LYELLOW
6
CONTINUOUS
10
19.1688809999999989
20
-49.3923649999999981
11
19.0736430000000006
21
-49.2971269999999961
0
LINE
8
LYELLOW
6
CONTINUOUS
10
19.0736430000000006
20
-49.2971269999999961
11
19.0260239999999996
21
-49.1066509999999994
0
LINE
8
LYELLOW
6
CONTINUOUS
10
19.0260239999999996
20
-49.1066509999999994
11
19.0260239999999996
21
-48.7733179999999962
0
LINE
8
LYELLOW
6
CONTINUOUS
10
19.0260239999999996
20
-48.7733179999999962
11
19.0736430000000006
21
-48.5828419999999994
0
LINE
8
LYELLOW
6
CONTINUOUS
10
19.0736430000000006
20
-48.5828419999999994
11
19.1688809999999989
21
-48.4876039999999975
0
LINE
8
LYELLOW
6
CONTINUOUS
10
19.1688809999999989
20
-48.4876039999999975
11
19.2641190000000009
21
-48.4399839999999955
0
LINE
8
LYELLOW
6
CONTINUOUS
10
19.2641190000000009
20
-48.4399839999999955
11
19.4545949999999976
21
-48.4399839999999955
0
LINE
8
LYELLOW
6
CONTINUOUS
10
19.4545949999999976
20
-48.4399839999999955
11
19.5498329999999996
21
-48.4876039999999975
0
LINE
8
LYELLOW
6
CONTINUOUS
10
19.5498329999999996
20
-48.4876039999999975
11
19.645070999999998
21
-48.5828419999999994
0
LINE
8
LYELLOW
6
CONTINUOUS
10
19.645070999999998
20
-48.5828419999999994
11
19.6926899999999989
21
-48.7733179999999962
0
LINE
8
LYELLOW
6
CONTINUOUS
10
19.6926899999999989
20
-48.7733179999999962
11
19.6926899999999989
21
-49.1066509999999994
0
LINE
8
LYELLOW
6
CONTINUOUS
10
19.6926899999999989
20
-49.1066509999999994
11
19.645070999999998
21
-49.2971269999999961
0
LINE
8
LYELLOW
6
CONTINUOUS
10
19.645070999999998
20
-49.2971269999999961
11
19.5498329999999996
21
-49.3923649999999981
0
LINE
8
LYELLOW
6
CONTINUOUS
10
19.5498329999999996
20
-49.3923649999999981
11
19.4545949999999976
21
-49.4399839999999955
0
LINE
8
LYELLOW
6
CONTINUOUS
10
22.2164989999999989
20
-50.9399839999999955
11
22.2164989999999989
21
-51.9399839999999955
0
LINE
8
LYELLOW
6
CONTINUOUS
10
22.2164989999999989
20
-51.9399839999999955
11
21.8831659999999992
21
-51.2256989999999988
0
LINE
8
LYELLOW
6
CONTINUOUS
10
21.8831659999999992
20
-51.2256989999999988
11
21.5498329999999996
21
-51.9399839999999955
0
LINE
8
LYELLOW
6
CONTINUOUS
10
21.5498329999999996
20
-51.9399839999999955
11
21.5498329999999996
21
-50.9399839999999955
0
LINE
8
LYELLOW
6
CONTINUOUS
10
20.8831659999999992
20
-51.9399839999999955
11
20.6926899999999989
21
-51.9399839999999955
0
LINE
8
LYELLOW
6
CONTINUOUS
10
20.6926899999999989
20
-51.9399839999999955
11
20.5974520000000005
21
-51.8923649999999981
0
LINE
8
LYELLOW
6
CONTINUOUS
10
20.5974520000000005
20
-51.8923649999999981
11
20.5022139999999986
21
-51.7971269999999961
0
LINE
8
LYELLOW
6
CONTINUOUS
10
20.5022139999999986
20
-51.7971269999999961
11
20.4545949999999976
21
-51.6066509999999994
0
LINE
8
LYELLOW
6
CONTINUOUS
10
20.4545949999999976
20
-51.6066509999999994
11
20.4545949999999976
21
-51.2733179999999962
0
LINE
8
LYELLOW
6
CONTINUOUS
10
20.4545949999999976
20
-51.2733179999999962
11
20.5022139999999986
21
-51.0828419999999994
0
LINE
8
LYELLOW
6
CONTINUOUS
10
20.5022139999999986
20
-51.0828419999999994
11
20.5974520000000005
21
-50.9876039999999975
0
LINE
8
LYELLOW
6
CONTINUOUS
10
20.5974520000000005
20
-50.9876039999999975
11
20.6926899999999989
21
-50.9399839999999955
0
LINE
8
LYELLOW
6
CONTINUOUS
10
20.6926899999999989
20
-50.9399839999999955
11
20.8831659999999992
21
-50.9399839999999955
0
LINE
8
LYELLOW
6
CONTINUOUS
10
20.8831659999999992
20
-50.9399839999999955
11
20.9784039999999976
21
-50.9876039999999975
0
LINE
8
LYELLOW
6
CONTINUOUS
10
20.9784039999999976
20
-50.9876039999999975
11
21.0736419999999995
21
-51.0828419999999994
0
LINE
8
LYELLOW
6
CONTINUOUS
10
21.0736419999999995
20
-51.0828419999999994
11
21.1212610000000005
21
-51.2733179999999962
0
LINE
8
LYELLOW
6
CONTINUOUS
10
21.1212610000000005
20
-51.2733179999999962
11
21.1212610000000005
21
-51.6066509999999994
0
LINE
8
LYELLOW
6
CONTINUOUS
10
21.1212610000000005
20
-51.6066509999999994
11
21.0736419999999995
21
-51.7971269999999961
0
LINE
8
LYELLOW
6
CONTINUOUS
10
21.0736419999999995
20
-51.7971269999999961
11
20.9784039999999976
21
-51.8923649999999981
0
LINE
8
LYELLOW
6
CONTINUOUS
10
20.9784039999999976
20
-51.8923649999999981
11
20.8831659999999992
21
-51.9399839999999955
0
LINE
8
LYELLOW
6
CONTINUOUS
10
20.0736419999999995
20
-50.9876039999999975
11
19.9307850000000002
21
-50.9399839999999955
0
LINE
8
LYELLOW
6
CONTINUOUS
10
19.9307850000000002
20
-50.9399839999999955
11
19.6926899999999989
21
-50.9399839999999955
0
LINE
8
LYELLOW
6
CONTINUOUS
10
19.6926899999999989
20
-50.9399839999999955
11
19.5974520000000005
21
-50.9876039999999975
0
LINE
8
LYELLOW
6
CONTINUOUS
10
19.5974520000000005
20
-50.9876039999999975
11
19.5498329999999996
21
-51.0352229999999949
0
LINE
8
LYELLOW
6
CONTINUOUS
10
19.5498329999999996
20
-51.0352229999999949
11
19.5022139999999986
21
-51.1304609999999968
0
LINE
8
LYELLOW
6
CONTINUOUS
10
19.5022139999999986
20
-51.1304609999999968
11
19.5022139999999986
21
-51.2256989999999988
0
LINE
8
LYELLOW
6
CONTINUOUS
10
19.5022139999999986
20
-51.2256989999999988
11
19.5498329999999996
21
-51.3209370000000007
0
LINE
8
LYELLOW
6
CONTINUOUS
10
19.5498329999999996
20
-51.3209370000000007
11
19.5974520000000005
21
-51.3685559999999981
0
LINE
8
LYELLOW
6
CONTINUOUS
10
19.5974520000000005
20
-51.3685559999999981
11
19.6926899999999989
21
-51.4161749999999955
0
LINE
8
LYELLOW
6
CONTINUOUS
10
19.6926899999999989
20
-51.4161749999999955
11
19.8831659999999992
21
-51.463794
0
LINE
8
LYELLOW
6
CONTINUOUS
10
19.8831659999999992
20
-51.463794
11
19.9784039999999976
21
-51.5114129999999975
0
LINE
8
LYELLOW
6
CONTINUOUS
10
19.9784039999999976
20
-51.5114129999999975
11
20.0260229999999986
21
-51.5590319999999949
0
LINE
8
LYELLOW
6
CONTINUOUS
10
20.0260229999999986
20
-51.5590319999999949
11
20.0736419999999995
21
-51.6542699999999968
0
LINE
8
LYELLOW
6
CONTINUOUS
10
20.0736419999999995
20
-51.6542699999999968
11
20.0736419999999995
21
-51.7495079999999987
0
LINE
8
LYELLOW
6
CONTINUOUS
10
20.0736419999999995
20
-51.7495079999999987
11
20.0260229999999986
21
-51.8447460000000007
0
LINE
8
LYELLOW
6
CONTINUOUS
10
20.0260229999999986
20
-51.8447460000000007
11
19.9784039999999976
21
-51.8923649999999981
0
LINE
8
LYELLOW
6
CONTINUOUS
10
19.9784039999999976
20
-51.8923649999999981
11
19.8831659999999992
21
-51.9399839999999955
0
LINE
8
LYELLOW
6
CONTINUOUS
10
19.8831659999999992
20
-51.9399839999999955
11
19.645070999999998
21
-51.9399839999999955
0
LINE
8
LYELLOW
6
CONTINUOUS
10
19.645070999999998
20
-51.9399839999999955
11
19.5022139999999986
21
-51.8923649999999981
0
LINE
8
LYELLOW
6
CONTINUOUS
10
19.0736419999999995
20
-50.9399839999999955
11
19.0736419999999995
21
-51.9399839999999955
0
LINE
8
LYELLOW
6
CONTINUOUS
10
31.7164989999999989
20
-54.4399839999999955
11
31.7164989999999989
21
-55.4399839999999955
0
LINE
8
LYELLOW
6
CONTINUOUS
10
31.7164989999999989
20
-55.4399839999999955
11
31.4784039999999976
21
-55.4399839999999955
0
LINE
8
LYELLOW
6
CONTINUOUS
10
31.4784039999999976
20
-55.4399839999999955
11
31.3355469999999983
21
-55.3923649999999981
0
LINE
8
LYELLOW
6
CONTINUOUS
10
31.3355469999999983
20
-55.3923649999999981
11
31.2403089999999999
21
-55.2971269999999961
0
LINE
8
LYELLOW
6
CONTINUOUS
10
31.2403089999999999
20
-55.2971269999999961
11
31.1926899999999989
21
-55.2018889999999942
0
LINE
8
LYELLOW
6
CONTINUOUS
10
31.1926899999999989
20
-55.2018889999999942
11
31.145070999999998
21
-55.0114129999999975
0
LINE
8
LYELLOW
6
CONTINUOUS
10
31.145070999999998
20
-55.0114129999999975
11
31.145070999999998
21
-54.8685559999999981
0
LINE
8
LYELLOW
6
CONTINUOUS
10
31.145070999999998
20
-54.8685559999999981
11
31.1926899999999989
21
-54.6780799999999942
0
LINE
8
LYELLOW
6
CONTINUOUS
10
31.1926899999999989
20
-54.6780799999999942
11
31.2403089999999999
21
-54.5828419999999994
0
LINE
8
LYELLOW
6
CONTINUOUS
10
31.2403089999999999
20
-54.5828419999999994
11
31.3355469999999983
21
-54.4876039999999975
0
LINE
8
LYELLOW
6
CONTINUOUS
10
31.3355469999999983
20
-54.4876039999999975
11
31.4784039999999976
21
-54.4399839999999955
0
LINE
8
LYELLOW
6
CONTINUOUS
10
31.4784039999999976
20
-54.4399839999999955
11
31.7164989999999989
21
-54.4399839999999955
0
LINE
8
LYELLOW
6
CONTINUOUS
10
30.7641179999999999
20
-55.3447460000000007
11
30.7164989999999989
21
-55.3923649999999981
0
LINE
8
LYELLOW
6
CONTINUOUS
10
30.7164989999999989
20
-55.3923649999999981
11
30.621260999999997
21
-55.4399839999999955
0
LINE
8
LYELLOW
6
CONTINUOUS
10
30.621260999999997
20
-55.4399839999999955
11
30.3831659999999992
21
-55.4399839999999955
0
LINE
8
LYELLOW
6
CONTINUOUS
10
30.3831659999999992
20
-55.4399839999999955
11
30.2879279999999973
21
-55.3923649999999981
0
LINE
8
LYELLOW
6
CONTINUOUS
10
30.2879279999999973
20
-55.3923649999999981
11
30.2403089999999999
21
-55.3447460000000007
0
LINE
8
LYELLOW
6
CONTINUOUS
10
30.2403089999999999
20
-55.3447460000000007
11
30.1926899999999989
21
-55.2495079999999987
0
LINE
8
LYELLOW
6
CONTINUOUS
10
30.1926899999999989
20
-55.2495079999999987
11
30.1926899999999989
21
-55.1542699999999968
0
LINE
8
LYELLOW
6
CONTINUOUS
10
30.1926899999999989
20
-55.1542699999999968
11
30.2403089999999999
21
-55.0114129999999975
0
LINE
8
LYELLOW
6
CONTINUOUS
10
30.2403089999999999
20
-55.0114129999999975
11
30.8117369999999973
21
-54.4399839999999955
0
LINE
8
LYELLOW
6
CONTINUOUS
10
30.8117369999999973
20
-54.4399839999999955
11
30.1926899999999989
21
-54.4399839999999955
0
LINE
8
LYELLOW
6
CONTINUOUS
10
19.1926899999999989
20
-57.1423649999999981
11
19.2879280000000008
21
-57.1899839999999955
0
LINE
8
LYELLOW
6
CONTINUOUS
10
19.2879280000000008
20
-57.1899839999999955
11
19.4307850000000002
21
-57.1899839999999955
0
LINE
8
LYELLOW
6
CONTINUOUS
10
19.4307850000000002
20
-57.1899839999999955
11
19.5736419999999995
21
-57.1423649999999981
0
LINE
8
LYELLOW
6
CONTINUOUS
10
19.5736419999999995
20
-57.1423649999999981
11
19.6688799999999979
21
-57.0471269999999961
0
LINE
8
LYELLOW
6
CONTINUOUS
10
19.6688799999999979
20
-57.0471269999999961
11
19.7164989999999989
21
-56.9518889999999942
0
LINE
8
LYELLOW
6
CONTINUOUS
10
19.7164989999999989
20
-56.9518889999999942
11
19.7641179999999999
21
-56.7614129999999975
0
LINE
8
LYELLOW
6
CONTINUOUS
10
19.7641179999999999
20
-56.7614129999999975
11
19.7641179999999999
21
-56.6185559999999981
0
LINE
8
LYELLOW
6
CONTINUOUS
10
19.7641179999999999
20
-56.6185559999999981
11
19.7164989999999989
21
-56.4280799999999942
0
LINE
8
LYELLOW
6
CONTINUOUS
10
19.7164989999999989
20
-56.4280799999999942
11
19.6688799999999979
21
-56.3328419999999994
0
LINE
8
LYELLOW
6
CONTINUOUS
10
19.6688799999999979
20
-56.3328419999999994
11
19.5736419999999995
21
-56.2376039999999975
0
LINE
8
LYELLOW
6
CONTINUOUS
10
19.5736419999999995
20
-56.2376039999999975
11
19.4307850000000002
21
-56.1899839999999955
0
LINE
8
LYELLOW
6
CONTINUOUS
10
19.4307850000000002
20
-56.1899839999999955
11
19.3355469999999983
21
-56.1899839999999955
0
LINE
8
LYELLOW
6
CONTINUOUS
10
19.3355469999999983
20
-56.1899839999999955
11
19.1926899999999989
21
-56.2376039999999975
0
LINE
8
LYELLOW
6
CONTINUOUS
10
19.1926899999999989
20
-56.2376039999999975
11
19.145070999999998
21
-56.2852229999999949
0
LINE
8
LYELLOW
6
CONTINUOUS
10
19.145070999999998
20
-56.2852229999999949
11
19.145070999999998
21
-56.6185559999999981
0
LINE
8
LYELLOW
6
CONTINUOUS
10
19.145070999999998
20
-56.6185559999999981
11
19.3355469999999983
21
-56.6185559999999981
0
LINE
8
LYELLOW
6
CONTINUOUS
10
31.4664989999999989
20
-58.6899839999999955
11
31.4664989999999989
21
-59.6899839999999955
0
LINE
8
LYELLOW
6
CONTINUOUS
10
31.4664989999999989
20
-59.6899839999999955
11
31.2284039999999976
21
-59.6899839999999955
0
LINE
8
LYELLOW
6
CONTINUOUS
10
31.2284039999999976
20
-59.6899839999999955
11
31.0855469999999983
21
-59.6423649999999981
0
LINE
8
LYELLOW
6
CONTINUOUS
10
31.0855469999999983
20
-59.6423649999999981
11
30.9903089999999999
21
-59.5471269999999961
0
LINE
8
LYELLOW
6
CONTINUOUS
10
30.9903089999999999
20
-59.5471269999999961
11
30.9426899999999989
21
-59.4518889999999942
0
LINE
8
LYELLOW
6
CONTINUOUS
10
30.9426899999999989
20
-59.4518889999999942
11
30.895070999999998
21
-59.2614129999999975
0
LINE
8
LYELLOW
6
CONTINUOUS
10
30.895070999999998
20
-59.2614129999999975
11
30.895070999999998
21
-59.1185559999999981
0
LINE
8
LYELLOW
6
CONTINUOUS
10
30.895070999999998
20
-59.1185559999999981
11
30.9426899999999989
21
-58.9280799999999942
0
LINE
8
LYELLOW
6
CONTINUOUS
10
30.9426899999999989
20
-58.9280799999999942
11
30.9903089999999999
21
-58.8328419999999994
0
LINE
8
LYELLOW
6
CONTINUOUS
10
30.9903089999999999
20
-58.8328419999999994
11
31.0855469999999983
21
-58.7376039999999975
0
LINE
8
LYELLOW
6
CONTINUOUS
10
31.0855469999999983
20
-58.7376039999999975
11
31.2284039999999976
21
-58.6899839999999955
0
LINE
8
LYELLOW
6
CONTINUOUS
10
31.2284039999999976
20
-58.6899839999999955
11
31.4664989999999989
21
-58.6899839999999955
0
LINE
8
LYELLOW
6
CONTINUOUS
10
30.2760229999999986
20
-59.6899839999999955
11
30.1807850000000002
21
-59.6899839999999955
0
LINE
8
LYELLOW
6
CONTINUOUS
10
30.1807850000000002
20
-59.6899839999999955
11
30.0855469999999983
21
-59.6423649999999981
0
LINE
8
LYELLOW
6
CONTINUOUS
10
30.0855469999999983
20
-59.6423649999999981
11
30.0379279999999973
21
-59.5947460000000007
0
LINE
8
LYELLOW
6
CONTINUOUS
10
30.0379279999999973
20
-59.5947460000000007
11
29.9903089999999999
21
-59.4995079999999987
0
LINE
8
LYELLOW
6
CONTINUOUS
10
29.9903089999999999
20
-59.4995079999999987
11
29.9426899999999989
21
-59.3090319999999949
0
LINE
8
LYELLOW
6
CONTINUOUS
10
29.9426899999999989
20
-59.3090319999999949
11
29.9426899999999989
21
-59.0709370000000007
0
LINE
8
LYELLOW
6
CONTINUOUS
10
29.9426899999999989
20
-59.0709370000000007
11
29.9903089999999999
21
-58.8804609999999968
0
LINE
8
LYELLOW
6
CONTINUOUS
10
29.9903089999999999
20
-58.8804609999999968
11
30.0379279999999973
21
-58.7852229999999949
0
LINE
8
LYELLOW
6
CONTINUOUS
10
30.0379279999999973
20
-58.7852229999999949
11
30.0855469999999983
21
-58.7376039999999975
0
LINE
8
LYELLOW
6
CONTINUOUS
10
30.0855469999999983
20
-58.7376039999999975
11
30.1807850000000002
21
-58.6899839999999955
0
LINE
8
LYELLOW
6
CONTINUOUS
10
30.1807850000000002
20
-58.6899839999999955
11
30.2760229999999986
21
-58.6899839999999955
0
LINE
8
LYELLOW
6
CONTINUOUS
10
30.2760229999999986
20
-58.6899839999999955
11
30.371260999999997
21
-58.7376039999999975
0
LINE
8
LYELLOW
6
CONTINUOUS
10
30.371260999999997
20
-58.7376039999999975
11
30.4188799999999979
21
-58.7852229999999949
0
LINE
8
LYELLOW
6
CONTINUOUS
10
30.4188799999999979
20
-58.7852229999999949
11
30.4664989999999989
21
-58.8804609999999968
0
LINE
8
LYELLOW
6
CONTINUOUS
10
30.4664989999999989
20
-58.8804609999999968
11
30.5141179999999999
21
-59.0709370000000007
0
LINE
8
LYELLOW
6
CONTINUOUS
10
30.5141179999999999
20
-59.0709370000000007
11
30.5141179999999999
21
-59.3090319999999949
0
LINE
8
LYELLOW
6
CONTINUOUS
10
30.5141179999999999
20
-59.3090319999999949
11
30.4664989999999989
21
-59.4995079999999987
0
LINE
8
LYELLOW
6
CONTINUOUS
10
30.4664989999999989
20
-59.4995079999999987
11
30.4188799999999979
21
-59.5947460000000007
0
LINE
8
LYELLOW
6
CONTINUOUS
10
30.4188799999999979
20
-59.5947460000000007
11
30.371260999999997
21
-59.6423649999999981
0
LINE
8
LYELLOW
6
CONTINUOUS
10
30.371260999999997
20
-59.6423649999999981
11
30.2760229999999986
21
-59.6899839999999955
0
LINE
8
LYELLOW
6
CONTINUOUS
10
19.9903089999999999
20
-59.6899839999999955
11
20.4664989999999989
21
-59.6899839999999955
0
LINE
8
LYELLOW
6
CONTINUOUS
10
20.4664989999999989
20
-59.6899839999999955
11
20.5141179999999999
21
-59.213794
0
LINE
8
LYELLOW
6
CONTINUOUS
10
20.5141179999999999
20
-59.213794
11
20.4664989999999989
21
-59.2614129999999975
0
LINE
8
LYELLOW
6
CONTINUOUS
10
20.4664989999999989
20
-59.2614129999999975
11
20.3712610000000005
21
-59.3090319999999949
0
LINE
8
LYELLOW
6
CONTINUOUS
10
20.3712610000000005
20
-59.3090319999999949
11
20.1331659999999992
21
-59.3090319999999949
0
LINE
8
LYELLOW
6
CONTINUOUS
10
20.1331659999999992
20
-59.3090319999999949
11
20.0379280000000008
21
-59.2614129999999975
0
LINE
8
LYELLOW
6
CONTINUOUS
10
20.0379280000000008
20
-59.2614129999999975
11
19.9903089999999999
21
-59.213794
0
LINE
8
LYELLOW
6
CONTINUOUS
10
19.9903089999999999
20
-59.213794
11
19.9426899999999989
21
-59.1185559999999981
0
LINE
8
LYELLOW
6
CONTINUOUS
10
19.9426899999999989
20
-59.1185559999999981
11
19.9426899999999989
21
-58.8804609999999968
0
LINE
8
LYELLOW
6
CONTINUOUS
10
19.9426899999999989
20
-58.8804609999999968
11
19.9903089999999999
21
-58.7852229999999949
0
LINE
8
LYELLOW
6
CONTINUOUS
10
19.9903089999999999
20
-58.7852229999999949
11
20.0379280000000008
21
-58.7376039999999975
0
LINE
8
LYELLOW
6
CONTINUOUS
10
20.0379280000000008
20
-58.7376039999999975
11
20.1331659999999992
21
-58.6899839999999955
0
LINE
8
LYELLOW
6
CONTINUOUS
10
20.1331659999999992
20
-58.6899839999999955
11
20.3712610000000005
21
-58.6899839999999955
0
LINE
8
LYELLOW
6
CONTINUOUS
10
20.3712610000000005
20
-58.6899839999999955
11
20.4664989999999989
21
-58.7376039999999975
0
LINE
8
LYELLOW
6
CONTINUOUS
10
20.4664989999999989
20
-58.7376039999999975
11
20.5141179999999999
21
-58.7852229999999949
0
LINE
8
LYELLOW
6
CONTINUOUS
10
19.6569749999999992
20
-59.6899839999999955
11
19.3236419999999995
21
-58.6899839999999955
0
LINE
8
LYELLOW
6
CONTINUOUS
10
19.3236419999999995
20
-58.6899839999999955
11
18.9903089999999999
21
-59.6899839999999955
0
LINE
8
LYELLOW
6
CONTINUOUS
10
31.7641179999999999
20
-48.7376039999999975
11
31.621260999999997
21
-48.6899839999999955
0
LINE
8
LYELLOW
6
CONTINUOUS
10
31.621260999999997
20
-48.6899839999999955
11
31.3831659999999992
21
-48.6899839999999955
0
LINE
8
LYELLOW
6
CONTINUOUS
10
31.3831659999999992
20
-48.6899839999999955
11
31.2879279999999973
21
-48.7376039999999975
0
LINE
8
LYELLOW
6
CONTINUOUS
10
31.2879279999999973
20
-48.7376039999999975
11
31.2403089999999999
21
-48.7852229999999949
0
LINE
8
LYELLOW
6
CONTINUOUS
10
31.2403089999999999
20
-48.7852229999999949
11
31.1926899999999989
21
-48.8804609999999968
0
LINE
8
LYELLOW
6
CONTINUOUS
10
31.1926899999999989
20
-48.8804609999999968
11
31.1926899999999989
21
-48.9756989999999988
0
LINE
8
LYELLOW
6
CONTINUOUS
10
31.1926899999999989
20
-48.9756989999999988
11
31.2403089999999999
21
-49.0709370000000007
0
LINE
8
LYELLOW
6
CONTINUOUS
10
31.2403089999999999
20
-49.0709370000000007
11
31.2879279999999973
21
-49.1185559999999981
0
LINE
8
LYELLOW
6
CONTINUOUS
10
31.2879279999999973
20
-49.1185559999999981
11
31.3831659999999992
21
-49.1661749999999955
0
LINE
8
LYELLOW
6
CONTINUOUS
10
31.3831659999999992
20
-49.1661749999999955
11
31.5736419999999995
21
-49.213794
0
LINE
8
LYELLOW
6
CONTINUOUS
10
31.5736419999999995
20
-49.213794
11
31.6688799999999979
21
-49.2614129999999975
0
LINE
8
LYELLOW
6
CONTINUOUS
10
31.6688799999999979
20
-49.2614129999999975
11
31.7164989999999989
21
-49.3090319999999949
0
LINE
8
LYELLOW
6
CONTINUOUS
10
31.7164989999999989
20
-49.3090319999999949
11
31.7641179999999999
21
-49.4042699999999968
0
LINE
8
LYELLOW
6
CONTINUOUS
10
31.7641179999999999
20
-49.4042699999999968
11
31.7641179999999999
21
-49.4995079999999987
0
LINE
8
LYELLOW
6
CONTINUOUS
10
31.7641179999999999
20
-49.4995079999999987
11
31.7164989999999989
21
-49.5947460000000007
0
LINE
8
LYELLOW
6
CONTINUOUS
10
31.7164989999999989
20
-49.5947460000000007
11
31.6688799999999979
21
-49.6423649999999981
0
LINE
8
LYELLOW
6
CONTINUOUS
10
31.6688799999999979
20
-49.6423649999999981
11
31.5736419999999995
21
-49.6899839999999955
0
LINE
8
LYELLOW
6
CONTINUOUS
10
31.5736419999999995
20
-49.6899839999999955
11
31.3355469999999983
21
-49.6899839999999955
0
LINE
8
LYELLOW
6
CONTINUOUS
10
31.3355469999999983
20
-49.6899839999999955
11
31.1926899999999989
21
-49.6423649999999981
0
LINE
8
LYELLOW
6
CONTINUOUS
10
30.7641179999999999
20
-48.6899839999999955
11
30.7641179999999999
21
-49.6899839999999955
0
LINE
8
LYELLOW
6
CONTINUOUS
10
30.7641179999999999
20
-49.6899839999999955
11
30.5260229999999986
21
-49.6899839999999955
0
LINE
8
LYELLOW
6
CONTINUOUS
10
30.5260229999999986
20
-49.6899839999999955
11
30.3831659999999992
21
-49.6423649999999981
0
LINE
8
LYELLOW
6
CONTINUOUS
10
30.3831659999999992
20
-49.6423649999999981
11
30.2879279999999973
21
-49.5471269999999961
0
LINE
8
LYELLOW
6
CONTINUOUS
10
30.2879279999999973
20
-49.5471269999999961
11
30.2403089999999999
21
-49.4518889999999942
0
LINE
8
LYELLOW
6
CONTINUOUS
10
30.2403089999999999
20
-49.4518889999999942
11
30.1926899999999989
21
-49.2614129999999975
0
LINE
8
LYELLOW
6
CONTINUOUS
10
30.1926899999999989
20
-49.2614129999999975
11
30.1926899999999989
21
-49.1185559999999981
0
LINE
8
LYELLOW
6
CONTINUOUS
10
30.1926899999999989
20
-49.1185559999999981
11
30.2403089999999999
21
-48.9280799999999942
0
LINE
8
LYELLOW
6
CONTINUOUS
10
30.2403089999999999
20
-48.9280799999999942
11
30.2879279999999973
21
-48.8328419999999994
0
LINE
8
LYELLOW
6
CONTINUOUS
10
30.2879279999999973
20
-48.8328419999999994
11
30.3831659999999992
21
-48.7376039999999975
0
LINE
8
LYELLOW
6
CONTINUOUS
10
30.3831659999999992
20
-48.7376039999999975
11
30.5260229999999986
21
-48.6899839999999955
0
LINE
8
LYELLOW
6
CONTINUOUS
10
30.5260229999999986
20
-48.6899839999999955
11
30.7641179999999999
21
-48.6899839999999955
0
LINE
8
LYELLOW
6
CONTINUOUS
10
29.8117369999999973
20
-48.9756989999999988
11
29.3355469999999983
21
-48.9756989999999988
0
LINE
8
LYELLOW
6
CONTINUOUS
10
29.9069749999999992
20
-48.6899839999999955
11
29.5736419999999995
21
-49.6899839999999955
0
LINE
8
LYELLOW
6
CONTINUOUS
10
29.5736419999999995
20
-49.6899839999999955
11
29.2403089999999999
21
-48.6899839999999955
0
LINE
8
LYELLOW
6
CONTINUOUS
10
21.8117369999999973
20
-54.4399839999999955
11
21.1926899999999989
21
-54.4399839999999955
0
LINE
8
LYELLOW
6
CONTINUOUS
10
21.1926899999999989
20
-54.4399839999999955
11
21.5260229999999986
21
-54.0590319999999949
0
LINE
8
LYELLOW
6
CONTINUOUS
10
21.5260229999999986
20
-54.0590319999999949
11
21.3831659999999992
21
-54.0590319999999949
0
LINE
8
LYELLOW
6
CONTINUOUS
10
21.3831659999999992
20
-54.0590319999999949
11
21.2879279999999973
21
-54.0114129999999975
0
LINE
8
LYELLOW
6
CONTINUOUS
10
21.2879279999999973
20
-54.0114129999999975
11
21.2403089999999999
21
-53.963794
0
LINE
8
LYELLOW
6
CONTINUOUS
10
21.2403089999999999
20
-53.963794
11
21.1926899999999989
21
-53.8685559999999981
0
LINE
8
LYELLOW
6
CONTINUOUS
10
21.1926899999999989
20
-53.8685559999999981
11
21.1926899999999989
21
-53.6304609999999968
0
LINE
8
LYELLOW
6
CONTINUOUS
10
21.1926899999999989
20
-53.6304609999999968
11
21.2403089999999999
21
-53.5352229999999949
0
LINE
8
LYELLOW
6
CONTINUOUS
10
21.2403089999999999
20
-53.5352229999999949
11
21.2879279999999973
21
-53.4876039999999975
0
LINE
8
LYELLOW
6
CONTINUOUS
10
21.2879279999999973
20
-53.4876039999999975
11
21.3831659999999992
21
-53.4399839999999955
0
LINE
8
LYELLOW
6
CONTINUOUS
10
21.3831659999999992
20
-53.4399839999999955
11
21.6688799999999979
21
-53.4399839999999955
0
LINE
8
LYELLOW
6
CONTINUOUS
10
21.6688799999999979
20
-53.4399839999999955
11
21.7641179999999999
21
-53.4876039999999975
0
LINE
8
LYELLOW
6
CONTINUOUS
10
21.7641179999999999
20
-53.4876039999999975
11
21.8117369999999973
21
-53.5352229999999949
0
LINE
8
LYELLOW
6
CONTINUOUS
10
20.9069749999999992
20
-54.4399839999999955
11
20.5736419999999995
21
-53.4399839999999955
0
LINE
8
LYELLOW
6
CONTINUOUS
10
20.5736419999999995
20
-53.4399839999999955
11
20.2403089999999999
21
-54.4399839999999955
0
LINE
8
LYELLOW
6
CONTINUOUS
10
20.0022129999999976
20
-54.4399839999999955
11
19.3831659999999992
21
-54.4399839999999955
0
LINE
8
LYELLOW
6
CONTINUOUS
10
19.3831659999999992
20
-54.4399839999999955
11
19.7164989999999989
21
-54.0590319999999949
0
LINE
8
LYELLOW
6
CONTINUOUS
10
19.7164989999999989
20
-54.0590319999999949
11
19.5736419999999995
21
-54.0590319999999949
0
LINE
8
LYELLOW
6
CONTINUOUS
10
19.5736419999999995
20
-54.0590319999999949
11
19.4784039999999976
21
-54.0114129999999975
0
LINE
8
LYELLOW
6
CONTINUOUS
10
19.4784039999999976
20
-54.0114129999999975
11
19.4307850000000002
21
-53.963794
0
LINE
8
LYELLOW
6
CONTINUOUS
10
19.4307850000000002
20
-53.963794
11
19.3831659999999992
21
-53.8685559999999981
0
LINE
8
LYELLOW
6
CONTINUOUS
10
19.3831659999999992
20
-53.8685559999999981
11
19.3831659999999992
21
-53.6304609999999968
0
LINE
8
LYELLOW
6
CONTINUOUS
10
19.3831659999999992
20
-53.6304609999999968
11
19.4307850000000002
21
-53.5352229999999949
0
LINE
8
LYELLOW
6
CONTINUOUS
10
19.4307850000000002
20
-53.5352229999999949
11
19.4784039999999976
21
-53.4876039999999975
0
LINE
8
LYELLOW
6
CONTINUOUS
10
19.4784039999999976
20
-53.4876039999999975
11
19.5736419999999995
21
-53.4399839999999955
0
LINE
8
LYELLOW
6
CONTINUOUS
10
19.5736419999999995
20
-53.4399839999999955
11
19.8593559999999982
21
-53.4399839999999955
0
LINE
8
LYELLOW
6
CONTINUOUS
10
19.8593559999999982
20
-53.4399839999999955
11
19.9545940000000002
21
-53.4876039999999975
0
LINE
8
LYELLOW
6
CONTINUOUS
10
19.9545940000000002
20
-53.4876039999999975
11
20.0022129999999976
21
-53.5352229999999949
0
LINE
8
LYELLOW
6
CONTINUOUS
10
19.895070999999998
20
-43.1899839999999955
11
20.2284039999999976
21
-43.6661749999999955
0
LINE
8
LYELLOW
6
CONTINUOUS
10
20.4664989999999989
20
-43.1899839999999955
11
20.4664989999999989
21
-44.1899839999999955
0
LINE
8
LYELLOW
6
CONTINUOUS
10
20.4664989999999989
20
-44.1899839999999955
11
20.0855469999999983
21
-44.1899839999999955
0
LINE
8
LYELLOW
6
CONTINUOUS
10
20.0855469999999983
20
-44.1899839999999955
11
19.9903089999999999
21
-44.1423649999999981
0
LINE
8
LYELLOW
6
CONTINUOUS
10
19.9903089999999999
20
-44.1423649999999981
11
19.9426899999999989
21
-44.0947460000000007
0
LINE
8
LYELLOW
6
CONTINUOUS
10
19.9426899999999989
20
-44.0947460000000007
11
19.895070999999998
21
-43.9995079999999987
0
LINE
8
LYELLOW
6
CONTINUOUS
10
19.895070999999998
20
-43.9995079999999987
11
19.895070999999998
21
-43.8566509999999994
0
LINE
8
LYELLOW
6
CONTINUOUS
10
19.895070999999998
20
-43.8566509999999994
11
19.9426899999999989
21
-43.7614129999999975
0
LINE
8
LYELLOW
6
CONTINUOUS
10
19.9426899999999989
20
-43.7614129999999975
11
19.9903089999999999
21
-43.713794
0
LINE
8
LYELLOW
6
CONTINUOUS
10
19.9903089999999999
20
-43.713794
11
20.0855469999999983
21
-43.6661749999999955
0
LINE
8
LYELLOW
6
CONTINUOUS
10
20.0855469999999983
20
-43.6661749999999955
11
20.4664989999999989
21
-43.6661749999999955
0
LINE
8
LYELLOW
6
CONTINUOUS
10
19.5617370000000008
20
-44.1899839999999955
11
18.895070999999998
21
-43.1899839999999955
0
LINE
8
LYELLOW
6
CONTINUOUS
10
18.895070999999998
20
-44.1899839999999955
11
19.5617370000000008
21
-43.1899839999999955
0
LINE
8
LYELLOW
6
CONTINUOUS
10
21.7641179999999999
20
-45.7376039999999975
11
21.6212610000000005
21
-45.6899839999999955
0
LINE
8
LYELLOW
6
CONTINUOUS
10
21.6212610000000005
20
-45.6899839999999955
11
21.3831659999999992
21
-45.6899839999999955
0
LINE
8
LYELLOW
6
CONTINUOUS
10
21.3831659999999992
20
-45.6899839999999955
11
21.2879279999999973
21
-45.7376039999999975
0
LINE
8
LYELLOW
6
CONTINUOUS
10
21.2879279999999973
20
-45.7376039999999975
11
21.2403089999999999
21
-45.7852229999999949
0
LINE
8
LYELLOW
6
CONTINUOUS
10
21.2403089999999999
20
-45.7852229999999949
11
21.1926899999999989
21
-45.8804609999999968
0
LINE
8
LYELLOW
6
CONTINUOUS
10
21.1926899999999989
20
-45.8804609999999968
11
21.1926899999999989
21
-45.9756989999999988
0
LINE
8
LYELLOW
6
CONTINUOUS
10
21.1926899999999989
20
-45.9756989999999988
11
21.2403089999999999
21
-46.0709370000000007
0
LINE
8
LYELLOW
6
CONTINUOUS
10
21.2403089999999999
20
-46.0709370000000007
11
21.2879279999999973
21
-46.1185559999999981
0
LINE
8
LYELLOW
6
CONTINUOUS
10
21.2879279999999973
20
-46.1185559999999981
11
21.3831659999999992
21
-46.1661749999999955
0
LINE
8
LYELLOW
6
CONTINUOUS
10
21.3831659999999992
20
-46.1661749999999955
11
21.5736419999999995
21
-46.213794
0
LINE
8
LYELLOW
6
CONTINUOUS
10
21.5736419999999995
20
-46.213794
11
21.6688799999999979
21
-46.2614129999999975
0
LINE
8
LYELLOW
6
CONTINUOUS
10
21.6688799999999979
20
-46.2614129999999975
11
21.7164989999999989
21
-46.3090319999999949
0
LINE
8
LYELLOW
6
CONTINUOUS
10
21.7164989999999989
20
-46.3090319999999949
11
21.7641179999999999
21
-46.4042699999999968
0
LINE
8
LYELLOW
6
CONTINUOUS
10
21.7641179999999999
20
-46.4042699999999968
11
21.7641179999999999
21
-46.4995079999999987
0
LINE
8
LYELLOW
6
CONTINUOUS
10
21.7641179999999999
20
-46.4995079999999987
11
21.7164989999999989
21
-46.5947460000000007
0
LINE
8
LYELLOW
6
CONTINUOUS
10
21.7164989999999989
20
-46.5947460000000007
11
21.6688799999999979
21
-46.6423649999999981
0
LINE
8
LYELLOW
6
CONTINUOUS
10
21.6688799999999979
20
-46.6423649999999981
11
21.5736419999999995
21
-46.6899839999999955
0
LINE
8
LYELLOW
6
CONTINUOUS
10
21.5736419999999995
20
-46.6899839999999955
11
21.3355469999999983
21
-46.6899839999999955
0
LINE
8
LYELLOW
6
CONTINUOUS
10
21.3355469999999983
20
-46.6899839999999955
11
21.1926899999999989
21
-46.6423649999999981
0
LINE
8
LYELLOW
6
CONTINUOUS
10
20.1926899999999989
20
-45.7852229999999949
11
20.2403089999999999
21
-45.7376039999999975
0
LINE
8
LYELLOW
6
CONTINUOUS
10
20.2403089999999999
20
-45.7376039999999975
11
20.3831659999999992
21
-45.6899839999999955
0
LINE
8
LYELLOW
6
CONTINUOUS
10
20.3831659999999992
20
-45.6899839999999955
11
20.4784039999999976
21
-45.6899839999999955
0
LINE
8
LYELLOW
6
CONTINUOUS
10
20.4784039999999976
20
-45.6899839999999955
11
20.6212610000000005
21
-45.7376039999999975
0
LINE
8
LYELLOW
6
CONTINUOUS
10
20.6212610000000005
20
-45.7376039999999975
11
20.7164989999999989
21
-45.8328419999999994
0
LINE
8
LYELLOW
6
CONTINUOUS
10
20.7164989999999989
20
-45.8328419999999994
11
20.7641179999999999
21
-45.9280800000000013
0
LINE
8
LYELLOW
6
CONTINUOUS
10
20.7641179999999999
20
-45.9280800000000013
11
20.8117370000000008
21
-46.1185559999999981
0
LINE
8
LYELLOW
6
CONTINUOUS
10
20.8117370000000008
20
-46.1185559999999981
11
20.8117370000000008
21
-46.2614129999999975
0
LINE
8
LYELLOW
6
CONTINUOUS
10
20.8117370000000008
20
-46.2614129999999975
11
20.7641179999999999
21
-46.4518890000000013
0
LINE
8
LYELLOW
6
CONTINUOUS
10
20.7641179999999999
20
-46.4518890000000013
11
20.7164989999999989
21
-46.5471269999999961
0
LINE
8
LYELLOW
6
CONTINUOUS
10
20.7164989999999989
20
-46.5471269999999961
11
20.6212610000000005
21
-46.6423649999999981
0
LINE
8
LYELLOW
6
CONTINUOUS
10
20.6212610000000005
20
-46.6423649999999981
11
20.4784039999999976
21
-46.6899839999999955
0
LINE
8
LYELLOW
6
CONTINUOUS
10
20.4784039999999976
20
-46.6899839999999955
11
20.3831659999999992
21
-46.6899839999999955
0
LINE
8
LYELLOW
6
CONTINUOUS
10
20.3831659999999992
20
-46.6899839999999955
11
20.2403089999999999
21
-46.6423649999999981
0
LINE
8
LYELLOW
6
CONTINUOUS
10
20.2403089999999999
20
-46.6423649999999981
11
20.1926899999999989
21
-46.5947460000000007
0
LINE
8
LYELLOW
6
CONTINUOUS
10
19.7641179999999999
20
-45.6899839999999955
11
19.7641179999999999
21
-46.6899839999999955
0
LINE
8
LYELLOW
6
CONTINUOUS
10
19.1926899999999989
20
-45.6899839999999955
11
19.6212610000000005
21
-46.2614129999999975
0
LINE
8
LYELLOW
6
CONTINUOUS
10
19.1926899999999989
20
-46.6899839999999955
11
19.7641179999999999
21
-46.1185559999999981
0
LINE
8
LYELLOW
6
CONTINUOUS
10
31.4664989999999989
20
-55.9399839999999955
11
31.4664989999999989
21
-56.9399839999999955
0
LINE
8
LYELLOW
6
CONTINUOUS
10
31.4664989999999989
20
-56.9399839999999955
11
31.2284039999999976
21
-56.9399839999999955
0
LINE
8
LYELLOW
6
CONTINUOUS
10
31.2284039999999976
20
-56.9399839999999955
11
31.0855469999999983
21
-56.8923649999999981
0
LINE
8
LYELLOW
6
CONTINUOUS
10
31.0855469999999983
20
-56.8923649999999981
11
30.9903089999999999
21
-56.7971269999999961
0
LINE
8
LYELLOW
6
CONTINUOUS
10
30.9903089999999999
20
-56.7971269999999961
11
30.9426899999999989
21
-56.7018889999999942
0
LINE
8
LYELLOW
6
CONTINUOUS
10
30.9426899999999989
20
-56.7018889999999942
11
30.895070999999998
21
-56.5114129999999975
0
LINE
8
LYELLOW
6
CONTINUOUS
10
30.895070999999998
20
-56.5114129999999975
11
30.895070999999998
21
-56.3685559999999981
0
LINE
8
LYELLOW
6
CONTINUOUS
10
30.895070999999998
20
-56.3685559999999981
11
30.9426899999999989
21
-56.1780799999999942
0
LINE
8
LYELLOW
6
CONTINUOUS
10
30.9426899999999989
20
-56.1780799999999942
11
30.9903089999999999
21
-56.0828419999999994
0
LINE
8
LYELLOW
6
CONTINUOUS
10
30.9903089999999999
20
-56.0828419999999994
11
31.0855469999999983
21
-55.9876039999999975
0
LINE
8
LYELLOW
6
CONTINUOUS
10
31.0855469999999983
20
-55.9876039999999975
11
31.2284039999999976
21
-55.9399839999999955
0
LINE
8
LYELLOW
6
CONTINUOUS
10
31.2284039999999976
20
-55.9399839999999955
11
31.4664989999999989
21
-55.9399839999999955
0
LINE
8
LYELLOW
6
CONTINUOUS
10
29.9426899999999989
20
-55.9399839999999955
11
30.5141179999999999
21
-55.9399839999999955
0
LINE
8
LYELLOW
6
CONTINUOUS
10
30.2284039999999976
20
-55.9399839999999955
11
30.2284039999999976
21
-56.9399839999999955
0
LINE
8
LYELLOW
6
CONTINUOUS
10
30.2284039999999976
20
-56.9399839999999955
11
30.3236419999999995
21
-56.7971269999999961
0
LINE
8
LYELLOW
6
CONTINUOUS
10
30.3236419999999995
20
-56.7971269999999961
11
30.4188799999999979
21
-56.7018889999999942
0
LINE
8
LYELLOW
6
CONTINUOUS
10
30.4188799999999979
20
-56.7018889999999942
11
30.5141179999999999
21
-56.6542699999999968
0
LINE
8
LYELLOW
6
CONTINUOUS
10
31.9664989999999989
20
-50.4399839999999955
11
31.9664989999999989
21
-51.4399839999999955
0
LINE
8
LYELLOW
6
CONTINUOUS
10
31.9664989999999989
20
-51.4399839999999955
11
31.7284039999999976
21
-51.4399839999999955
0
LINE
8
LYELLOW
6
CONTINUOUS
10
31.7284039999999976
20
-51.4399839999999955
11
31.5855469999999983
21
-51.3923649999999981
0
LINE
8
LYELLOW
6
CONTINUOUS
10
31.5855469999999983
20
-51.3923649999999981
11
31.4903089999999999
21
-51.2971269999999961
0
LINE
8
LYELLOW
6
CONTINUOUS
10
31.4903089999999999
20
-51.2971269999999961
11
31.4426899999999989
21
-51.2018889999999942
0
LINE
8
LYELLOW
6
CONTINUOUS
10
31.4426899999999989
20
-51.2018889999999942
11
31.395070999999998
21
-51.0114129999999975
0
LINE
8
LYELLOW
6
CONTINUOUS
10
31.395070999999998
20
-51.0114129999999975
11
31.395070999999998
21
-50.8685559999999981
0
LINE
8
LYELLOW
6
CONTINUOUS
10
31.395070999999998
20
-50.8685559999999981
11
31.4426899999999989
21
-50.6780799999999942
0
LINE
8
LYELLOW
6
CONTINUOUS
10
31.4426899999999989
20
-50.6780799999999942
11
31.4903089999999999
21
-50.5828419999999994
0
LINE
8
LYELLOW
6
CONTINUOUS
10
31.4903089999999999
20
-50.5828419999999994
11
31.5855469999999983
21
-50.4876039999999975
0
LINE
8
LYELLOW
6
CONTINUOUS
10
31.5855469999999983
20
-50.4876039999999975
11
31.7284039999999976
21
-50.4399839999999955
0
LINE
8
LYELLOW
6
CONTINUOUS
10
31.7284039999999976
20
-50.4399839999999955
11
31.9664989999999989
21
-50.4399839999999955
0
LINE
8
LYELLOW
6
CONTINUOUS
10
31.0617369999999973
20
-51.4399839999999955
11
30.4426899999999989
21
-51.4399839999999955
0
LINE
8
LYELLOW
6
CONTINUOUS
10
30.4426899999999989
20
-51.4399839999999955
11
30.7760229999999986
21
-51.0590319999999949
0
LINE
8
LYELLOW
6
CONTINUOUS
10
30.7760229999999986
20
-51.0590319999999949
11
30.6331659999999992
21
-51.0590319999999949
0
LINE
8
LYELLOW
6
CONTINUOUS
10
30.6331659999999992
20
-51.0590319999999949
11
30.5379279999999973
21
-51.0114129999999975
0
LINE
8
LYELLOW
6
CONTINUOUS
10
30.5379279999999973
20
-51.0114129999999975
11
30.4903089999999999
21
-50.963794
0
LINE
8
LYELLOW
6
CONTINUOUS
10
30.4903089999999999
20
-50.963794
11
30.4426899999999989
21
-50.8685559999999981
0
LINE
8
LYELLOW
6
CONTINUOUS
10
30.4426899999999989
20
-50.8685559999999981
11
30.4426899999999989
21
-50.6304609999999968
0
LINE
8
LYELLOW
6
CONTINUOUS
10
30.4426899999999989
20
-50.6304609999999968
11
30.4903089999999999
21
-50.5352229999999949
0
LINE
8
LYELLOW
6
CONTINUOUS
10
30.4903089999999999
20
-50.5352229999999949
11
30.5379279999999973
21
-50.4876039999999975
0
LINE
8
LYELLOW
6
CONTINUOUS
10
30.5379279999999973
20
-50.4876039999999975
11
30.6331659999999992
21
-50.4399839999999955
0
LINE
8
LYELLOW
6
CONTINUOUS
10
30.6331659999999992
20
-50.4399839999999955
11
30.9188799999999979
21
-50.4399839999999955
0
LINE
8
LYELLOW
6
CONTINUOUS
10
30.9188799999999979
20
-50.4399839999999955
11
31.0141179999999999
21
-50.4876039999999975
0
LINE
8
LYELLOW
6
CONTINUOUS
10
31.0141179999999999
20
-50.4876039999999975
11
31.0617369999999973
21
-50.5352229999999949
0
LINE
8
LYELLOW
6
CONTINUOUS
10
45.5930949999999982
20
-5.8074189999999994
11
45.5930949999999982
21
-6.6169419999999999
0
LINE
8
LYELLOW
6
CONTINUOUS
10
45.5930949999999982
20
-6.6169419999999999
11
45.6407139999999956
21
-6.71218
0
LINE
8
LYELLOW
6
CONTINUOUS
10
45.6407139999999956
20
-6.71218
11
45.6883330000000001
21
-6.7597999999999994
0
LINE
8
LYELLOW
6
CONTINUOUS
10
45.6883330000000001
20
-6.7597999999999994
11
45.7835709999999949
21
-6.8074189999999994
0
LINE
8
LYELLOW
6
CONTINUOUS
10
45.7835709999999949
20
-6.8074189999999994
11
45.9740469999999988
21
-6.8074189999999994
0
LINE
8
LYELLOW
6
CONTINUOUS
10
45.9740469999999988
20
-6.8074189999999994
11
46.0692850000000007
21
-6.7597999999999994
0
LINE
8
LYELLOW
6
CONTINUOUS
10
46.0692850000000007
20
-6.7597999999999994
11
46.1169039999999981
21
-6.71218
0
LINE
8
LYELLOW
6
CONTINUOUS
10
46.1169039999999981
20
-6.71218
11
46.1645229999999955
21
-6.6169419999999999
0
LINE
8
LYELLOW
6
CONTINUOUS
10
46.1645229999999955
20
-6.6169419999999999
11
46.1645229999999955
21
-5.8074189999999994
0
LINE
8
LYELLOW
6
CONTINUOUS
10
46.5454760000000007
20
-5.8074189999999994
11
47.1645229999999955
21
-5.8074189999999994
0
LINE
8
LYELLOW
6
CONTINUOUS
10
47.1645229999999955
20
-5.8074189999999994
11
46.8311899999999994
21
-6.1883710000000001
0
LINE
8
LYELLOW
6
CONTINUOUS
10
46.8311899999999994
20
-6.1883710000000001
11
46.9740469999999988
21
-6.1883710000000001
0
LINE
8
LYELLOW
6
CONTINUOUS
10
46.9740469999999988
20
-6.1883710000000001
11
47.0692850000000007
21
-6.2359900000000001
0
LINE
8
LYELLOW
6
CONTINUOUS
10
47.0692850000000007
20
-6.2359900000000001
11
47.1169039999999981
21
-6.2836089999999993
0
LINE
8
LYELLOW
6
CONTINUOUS
10
47.1169039999999981
20
-6.2836089999999993
11
47.1645229999999955
21
-6.3788469999999995
0
LINE
8
LYELLOW
6
CONTINUOUS
10
47.1645229999999955
20
-6.3788469999999995
11
47.1645229999999955
21
-6.6169419999999999
0
LINE
8
LYELLOW
6
CONTINUOUS
10
47.1645229999999955
20
-6.6169419999999999
11
47.1169039999999981
21
-6.71218
0
LINE
8
LYELLOW
6
CONTINUOUS
10
47.1169039999999981
20
-6.71218
11
47.0692850000000007
21
-6.7597999999999994
0
LINE
8
LYELLOW
6
CONTINUOUS
10
47.0692850000000007
20
-6.7597999999999994
11
46.9740469999999988
21
-6.8074189999999994
0
LINE
8
LYELLOW
6
CONTINUOUS
10
46.9740469999999988
20
-6.8074189999999994
11
46.6883330000000001
21
-6.8074189999999994
0
LINE
8
LYELLOW
6
CONTINUOUS
10
46.6883330000000001
20
-6.8074189999999994
11
46.5930949999999982
21
-6.7597999999999994
0
LINE
8
LYELLOW
6
CONTINUOUS
10
46.5930949999999982
20
-6.7597999999999994
11
46.5454760000000007
21
-6.71218
0
LINE
8
LYELLOW
6
CONTINUOUS
10
40.2136459999999971
20
-10.9374190000000002
11
40.8803119999999964
21
-11.9374190000000002
0
LINE
8
LYELLOW
6
CONTINUOUS
10
40.8803119999999964
20
-10.9374190000000002
11
40.2136459999999971
21
-11.9374190000000002
0
LINE
8
LYELLOW
6
CONTINUOUS
10
39.5310270000000017
20
-3.3174189999999997
11
39.8643599999999978
21
-4.3174190000000001
0
LINE
8
LYELLOW
6
CONTINUOUS
10
39.8643599999999978
20
-4.3174190000000001
11
40.197693000000001
21
-3.3174189999999997
0
LINE
8
LYELLOW
6
CONTINUOUS
10
41.1024549999999991
20
-4.2221799999999998
11
41.0548360000000017
21
-4.2698
0
LINE
8
LYELLOW
6
CONTINUOUS
10
41.0548360000000017
20
-4.2698
11
40.9119789999999952
21
-4.3174190000000001
0
LINE
8
LYELLOW
6
CONTINUOUS
10
40.9119789999999952
20
-4.3174190000000001
11
40.8167410000000004
21
-4.3174190000000001
0
LINE
8
LYELLOW
6
CONTINUOUS
10
40.8167410000000004
20
-4.3174190000000001
11
40.673884000000001
21
-4.2698
0
LINE
8
LYELLOW
6
CONTINUOUS
10
40.673884000000001
20
-4.2698
11
40.5786459999999991
21
-4.1745609999999997
0
LINE
8
LYELLOW
6
CONTINUOUS
10
40.5786459999999991
20
-4.1745609999999997
11
40.5310270000000017
21
-4.0793229999999996
0
LINE
8
LYELLOW
6
CONTINUOUS
10
40.5310270000000017
20
-4.0793229999999996
11
40.4834079999999972
21
-3.8888469999999997
0
LINE
8
LYELLOW
6
CONTINUOUS
10
40.4834079999999972
20
-3.8888469999999997
11
40.4834079999999972
21
-3.7459899999999999
0
LINE
8
LYELLOW
6
CONTINUOUS
10
40.4834079999999972
20
-3.7459899999999999
11
40.5310270000000017
21
-3.5555139999999996
0
LINE
8
LYELLOW
6
CONTINUOUS
10
40.5310270000000017
20
-3.5555139999999996
11
40.5786459999999991
21
-3.4602759999999999
0
LINE
8
LYELLOW
6
CONTINUOUS
10
40.5786459999999991
20
-3.4602759999999999
11
40.673884000000001
21
-3.3650379999999998
0
LINE
8
LYELLOW
6
CONTINUOUS
10
40.673884000000001
20
-3.3650379999999998
11
40.8167410000000004
21
-3.3174189999999997
0
LINE
8
LYELLOW
6
CONTINUOUS
10
40.8167410000000004
20
-3.3174189999999997
11
40.9119789999999952
21
-3.3174189999999997
0
LINE
8
LYELLOW
6
CONTINUOUS
10
40.9119789999999952
20
-3.3174189999999997
11
41.0548360000000017
21
-3.3650379999999998
0
LINE
8
LYELLOW
6
CONTINUOUS
10
41.0548360000000017
20
-3.3650379999999998
11
41.1024549999999991
21
-3.4126569999999998
0
LINE
8
LYELLOW
6
CONTINUOUS
10
42.1024549999999991
20
-4.2221799999999998
11
42.0548359999999946
21
-4.2698
0
LINE
8
LYELLOW
6
CONTINUOUS
10
42.0548359999999946
20
-4.2698
11
41.9119789999999952
21
-4.3174190000000001
0
LINE
8
LYELLOW
6
CONTINUOUS
10
41.9119789999999952
20
-4.3174190000000001
11
41.8167410000000004
21
-4.3174190000000001
0
LINE
8
LYELLOW
6
CONTINUOUS
10
41.8167410000000004
20
-4.3174190000000001
11
41.673884000000001
21
-4.2698
0
LINE
8
LYELLOW
6
CONTINUOUS
10
41.673884000000001
20
-4.2698
11
41.5786459999999991
21
-4.1745609999999997
0
LINE
8
LYELLOW
6
CONTINUOUS
10
41.5786459999999991
20
-4.1745609999999997
11
41.5310269999999946
21
-4.0793229999999996
0
LINE
8
LYELLOW
6
CONTINUOUS
10
41.5310269999999946
20
-4.0793229999999996
11
41.4834079999999972
21
-3.8888469999999997
0
LINE
8
LYELLOW
6
CONTINUOUS
10
41.4834079999999972
20
-3.8888469999999997
11
41.4834079999999972
21
-3.7459899999999999
0
LINE
8
LYELLOW
6
CONTINUOUS
10
41.4834079999999972
20
-3.7459899999999999
11
41.5310269999999946
21
-3.5555139999999996
0
LINE
8
LYELLOW
6
CONTINUOUS
10
41.5310269999999946
20
-3.5555139999999996
11
41.5786459999999991
21
-3.4602759999999999
0
LINE
8
LYELLOW
6
CONTINUOUS
10
41.5786459999999991
20
-3.4602759999999999
11
41.673884000000001
21
-3.3650379999999998
0
LINE
8
LYELLOW
6
CONTINUOUS
10
41.673884000000001
20
-3.3650379999999998
11
41.8167410000000004
21
-3.3174189999999997
0
LINE
8
LYELLOW
6
CONTINUOUS
10
41.8167410000000004
20
-3.3174189999999997
11
41.9119789999999952
21
-3.3174189999999997
0
LINE
8
LYELLOW
6
CONTINUOUS
10
41.9119789999999952
20
-3.3174189999999997
11
42.0548359999999946
21
-3.3650379999999998
0
LINE
8
LYELLOW
6
CONTINUOUS
10
42.0548359999999946
20
-3.3650379999999998
11
42.1024549999999991
21
-3.4126569999999998
0
LINE
8
LYELLOW
6
CONTINUOUS
10
40.832692999999999
20
-13.5250379999999986
11
40.7374549999999971
21
-13.4774189999999994
0
LINE
8
LYELLOW
6
CONTINUOUS
10
40.7374549999999971
20
-13.4774189999999994
11
40.5945979999999977
21
-13.4774189999999994
0
LINE
8
LYELLOW
6
CONTINUOUS
10
40.5945979999999977
20
-13.4774189999999994
11
40.4517409999999984
21
-13.5250379999999986
0
LINE
8
LYELLOW
6
CONTINUOUS
10
40.4517409999999984
20
-13.5250379999999986
11
40.3565029999999965
21
-13.6202759999999987
0
LINE
8
LYELLOW
6
CONTINUOUS
10
40.3565029999999965
20
-13.6202759999999987
11
40.308883999999999
21
-13.7155139999999989
0
LINE
8
LYELLOW
6
CONTINUOUS
10
40.308883999999999
20
-13.7155139999999989
11
40.2612650000000016
21
-13.9059899999999992
0
LINE
8
LYELLOW
6
CONTINUOUS
10
40.2612650000000016
20
-13.9059899999999992
11
40.2612650000000016
21
-14.0488469999999985
0
LINE
8
LYELLOW
6
CONTINUOUS
10
40.2612650000000016
20
-14.0488469999999985
11
40.308883999999999
21
-14.2393229999999988
0
LINE
8
LYELLOW
6
CONTINUOUS
10
40.308883999999999
20
-14.2393229999999988
11
40.3565029999999965
21
-14.334560999999999
0
LINE
8
LYELLOW
6
CONTINUOUS
10
40.3565029999999965
20
-14.334560999999999
11
40.4517409999999984
21
-14.4298000000000002
0
LINE
8
LYELLOW
6
CONTINUOUS
10
40.4517409999999984
20
-14.4298000000000002
11
40.5945979999999977
21
-14.4774189999999994
0
LINE
8
LYELLOW
6
CONTINUOUS
10
40.5945979999999977
20
-14.4774189999999994
11
40.6898359999999997
21
-14.4774189999999994
0
LINE
8
LYELLOW
6
CONTINUOUS
10
40.6898359999999997
20
-14.4774189999999994
11
40.832692999999999
21
-14.4298000000000002
0
LINE
8
LYELLOW
6
CONTINUOUS
10
40.832692999999999
20
-14.4298000000000002
11
40.8803119999999964
21
-14.38218
0
LINE
8
LYELLOW
6
CONTINUOUS
10
40.8803119999999964
20
-14.38218
11
40.8803119999999964
21
-14.0488469999999985
0
LINE
8
LYELLOW
6
CONTINUOUS
10
40.8803119999999964
20
-14.0488469999999985
11
40.6898359999999997
21
-14.0488469999999985
0
LINE
8
LYELLOW
6
CONTINUOUS
10
41.308883999999999
20
-14.4774189999999994
11
41.308883999999999
21
-13.4774189999999994
0
LINE
8
LYELLOW
6
CONTINUOUS
10
41.308883999999999
20
-13.4774189999999994
11
41.8803119999999964
21
-14.4774189999999994
0
LINE
8
LYELLOW
6
CONTINUOUS
10
41.8803119999999964
20
-14.4774189999999994
11
41.8803119999999964
21
-13.4774189999999994
0
LINE
8
LYELLOW
6
CONTINUOUS
10
42.3565029999999965
20
-14.4774189999999994
11
42.3565029999999965
21
-13.4774189999999994
0
LINE
8
LYELLOW
6
CONTINUOUS
10
42.3565029999999965
20
-13.4774189999999994
11
42.5945979999999977
21
-13.4774189999999994
0
LINE
8
LYELLOW
6
CONTINUOUS
10
42.5945979999999977
20
-13.4774189999999994
11
42.7374549999999971
21
-13.5250379999999986
0
LINE
8
LYELLOW
6
CONTINUOUS
10
42.7374549999999971
20
-13.5250379999999986
11
42.832692999999999
21
-13.6202759999999987
0
LINE
8
LYELLOW
6
CONTINUOUS
10
42.832692999999999
20
-13.6202759999999987
11
42.8803119999999964
21
-13.7155139999999989
0
LINE
8
LYELLOW
6
CONTINUOUS
10
42.8803119999999964
20
-13.7155139999999989
11
42.9279310000000009
21
-13.9059899999999992
0
LINE
8
LYELLOW
6
CONTINUOUS
10
42.9279310000000009
20
-13.9059899999999992
11
42.9279310000000009
21
-14.0488469999999985
0
LINE
8
LYELLOW
6
CONTINUOUS
10
42.9279310000000009
20
-14.0488469999999985
11
42.8803119999999964
21
-14.2393229999999988
0
LINE
8
LYELLOW
6
CONTINUOUS
10
42.8803119999999964
20
-14.2393229999999988
11
42.832692999999999
21
-14.334560999999999
0
LINE
8
LYELLOW
6
CONTINUOUS
10
42.832692999999999
20
-14.334560999999999
11
42.7374549999999971
21
-14.4298000000000002
0
LINE
8
LYELLOW
6
CONTINUOUS
10
42.7374549999999971
20
-14.4298000000000002
11
42.5945979999999977
21
-14.4774189999999994
0
LINE
8
LYELLOW
6
CONTINUOUS
10
42.5945979999999977
20
-14.4774189999999994
11
42.3565029999999965
21
-14.4774189999999994
0
LINE
8
LYELLOW
6
CONTINUOUS
10
39.6262649999999965
20
-6.8098000000000001
11
39.7691219999999959
21
-6.8574189999999993
0
LINE
8
LYELLOW
6
CONTINUOUS
10
39.7691219999999959
20
-6.8574189999999993
11
40.0072169999999971
21
-6.8574189999999993
0
LINE
8
LYELLOW
6
CONTINUOUS
10
40.0072169999999971
20
-6.8574189999999993
11
40.1024549999999991
21
-6.8098000000000001
0
LINE
8
LYELLOW
6
CONTINUOUS
10
40.1024549999999991
20
-6.8098000000000001
11
40.1500739999999965
21
-6.7621799999999999
0
LINE
8
LYELLOW
6
CONTINUOUS
10
40.1500739999999965
20
-6.7621799999999999
11
40.197693000000001
21
-6.6669419999999997
0
LINE
8
LYELLOW
6
CONTINUOUS
10
40.197693000000001
20
-6.6669419999999997
11
40.197693000000001
21
-6.5717039999999995
0
LINE
8
LYELLOW
6
CONTINUOUS
10
40.197693000000001
20
-6.5717039999999995
11
40.1500739999999965
21
-6.4764659999999994
0
LINE
8
LYELLOW
6
CONTINUOUS
10
40.1500739999999965
20
-6.4764659999999994
11
40.1024549999999991
21
-6.4288469999999993
0
LINE
8
LYELLOW
6
CONTINUOUS
10
40.1024549999999991
20
-6.4288469999999993
11
40.0072169999999971
21
-6.3812280000000001
0
LINE
8
LYELLOW
6
CONTINUOUS
10
40.0072169999999971
20
-6.3812280000000001
11
39.8167410000000004
21
-6.333609
0
LINE
8
LYELLOW
6
CONTINUOUS
10
39.8167410000000004
20
-6.333609
11
39.7215029999999985
21
-6.28599
0
LINE
8
LYELLOW
6
CONTINUOUS
10
39.7215029999999985
20
-6.28599
11
39.673884000000001
21
-6.2383709999999999
0
LINE
8
LYELLOW
6
CONTINUOUS
10
39.673884000000001
20
-6.2383709999999999
11
39.6262649999999965
21
-6.1431329999999997
0
LINE
8
LYELLOW
6
CONTINUOUS
10
39.6262649999999965
20
-6.1431329999999997
11
39.6262649999999965
21
-6.0478949999999996
0
LINE
8
LYELLOW
6
CONTINUOUS
10
39.6262649999999965
20
-6.0478949999999996
11
39.673884000000001
21
-5.9526569999999994
0
LINE
8
LYELLOW
6
CONTINUOUS
10
39.673884000000001
20
-5.9526569999999994
11
39.7215029999999985
21
-5.9050379999999993
0
LINE
8
LYELLOW
6
CONTINUOUS
10
39.7215029999999985
20
-5.9050379999999993
11
39.8167410000000004
21
-5.8574190000000002
0
LINE
8
LYELLOW
6
CONTINUOUS
10
39.8167410000000004
20
-5.8574190000000002
11
40.0548360000000017
21
-5.8574190000000002
0
LINE
8
LYELLOW
6
CONTINUOUS
10
40.0548360000000017
20
-5.8574190000000002
11
40.197693000000001
21
-5.9050379999999993
0
LINE
8
LYELLOW
6
CONTINUOUS
10
40.6262649999999965
20
-6.8574189999999993
11
40.6262649999999965
21
-5.8574190000000002
0
LINE
8
LYELLOW
6
CONTINUOUS
10
40.6262649999999965
20
-5.8574190000000002
11
40.8643599999999978
21
-5.8574190000000002
0
LINE
8
LYELLOW
6
CONTINUOUS
10
40.8643599999999978
20
-5.8574190000000002
11
41.0072169999999971
21
-5.9050379999999993
0
LINE
8
LYELLOW
6
CONTINUOUS
10
41.0072169999999971
20
-5.9050379999999993
11
41.1024549999999991
21
-6.0002759999999995
0
LINE
8
LYELLOW
6
CONTINUOUS
10
41.1024549999999991
20
-6.0002759999999995
11
41.1500739999999965
21
-6.0955139999999997
0
LINE
8
LYELLOW
6
CONTINUOUS
10
41.1500739999999965
20
-6.0955139999999997
11
41.197693000000001
21
-6.28599
0
LINE
8
LYELLOW
6
CONTINUOUS
10
41.197693000000001
20
-6.28599
11
41.197693000000001
21
-6.4288469999999993
0
LINE
8
LYELLOW
6
CONTINUOUS
10
41.197693000000001
20
-6.4288469999999993
11
41.1500739999999965
21
-6.6193229999999996
0
LINE
8
LYELLOW
6
CONTINUOUS
10
41.1500739999999965
20
-6.6193229999999996
11
41.1024549999999991
21
-6.7145609999999998
0
LINE
8
LYELLOW
6
CONTINUOUS
10
41.1024549999999991
20
-6.7145609999999998
11
41.0072169999999971
21
-6.8098000000000001
0
LINE
8
LYELLOW
6
CONTINUOUS
10
41.0072169999999971
20
-6.8098000000000001
11
40.8643599999999978
21
-6.8574189999999993
0
LINE
8
LYELLOW
6
CONTINUOUS
10
40.8643599999999978
20
-6.8574189999999993
11
40.6262649999999965
21
-6.8574189999999993
0
LINE
8
LYELLOW
6
CONTINUOUS
10
41.5786459999999991
20
-6.5717039999999995
11
42.0548359999999946
21
-6.5717039999999995
0
LINE
8
LYELLOW
6
CONTINUOUS
10
41.4834079999999972
20
-6.8574189999999993
11
41.8167410000000004
21
-5.8574190000000002
0
LINE
8
LYELLOW
6
CONTINUOUS
10
41.8167410000000004
20
-5.8574190000000002
11
42.1500739999999965
21
-6.8574189999999993
0
LINE
8
LYELLOW
6
CONTINUOUS
10
39.6262649999999965
20
-8.7148000000000003
11
39.7691219999999959
21
-8.7624189999999995
0
LINE
8
LYELLOW
6
CONTINUOUS
10
39.7691219999999959
20
-8.7624189999999995
11
40.0072169999999971
21
-8.7624189999999995
0
LINE
8
LYELLOW
6
CONTINUOUS
10
40.0072169999999971
20
-8.7624189999999995
11
40.1024549999999991
21
-8.7148000000000003
0
LINE
8
LYELLOW
6
CONTINUOUS
10
40.1024549999999991
20
-8.7148000000000003
11
40.1500739999999965
21
-8.6671800000000001
0
LINE
8
LYELLOW
6
CONTINUOUS
10
40.1500739999999965
20
-8.6671800000000001
11
40.197693000000001
21
-8.571942
0
LINE
8
LYELLOW
6
CONTINUOUS
10
40.197693000000001
20
-8.571942
11
40.197693000000001
21
-8.4767039999999998
0
LINE
8
LYELLOW
6
CONTINUOUS
10
40.197693000000001
20
-8.4767039999999998
11
40.1500739999999965
21
-8.3814659999999996
0
LINE
8
LYELLOW
6
CONTINUOUS
10
40.1500739999999965
20
-8.3814659999999996
11
40.1024549999999991
21
-8.3338470000000004
0
LINE
8
LYELLOW
6
CONTINUOUS
10
40.1024549999999991
20
-8.3338470000000004
11
40.0072169999999971
21
-8.2862279999999995
0
LINE
8
LYELLOW
6
CONTINUOUS
10
40.0072169999999971
20
-8.2862279999999995
11
39.8167410000000004
21
-8.2386090000000003
0
LINE
8
LYELLOW
6
CONTINUOUS
10
39.8167410000000004
20
-8.2386090000000003
11
39.7215029999999985
21
-8.1909899999999993
0
LINE
8
LYELLOW
6
CONTINUOUS
10
39.7215029999999985
20
-8.1909899999999993
11
39.673884000000001
21
-8.1433710000000001
0
LINE
8
LYELLOW
6
CONTINUOUS
10
39.673884000000001
20
-8.1433710000000001
11
39.6262649999999965
21
-8.048133
0
LINE
8
LYELLOW
6
CONTINUOUS
10
39.6262649999999965
20
-8.048133
11
39.6262649999999965
21
-7.9528949999999998
0
LINE
8
LYELLOW
6
CONTINUOUS
10
39.6262649999999965
20
-7.9528949999999998
11
39.673884000000001
21
-7.8576569999999997
0
LINE
8
LYELLOW
6
CONTINUOUS
10
39.673884000000001
20
-7.8576569999999997
11
39.7215029999999985
21
-7.8100379999999996
0
LINE
8
LYELLOW
6
CONTINUOUS
10
39.7215029999999985
20
-7.8100379999999996
11
39.8167410000000004
21
-7.7624189999999995
0
LINE
8
LYELLOW
6
CONTINUOUS
10
39.8167410000000004
20
-7.7624189999999995
11
40.0548360000000017
21
-7.7624189999999995
0
LINE
8
LYELLOW
6
CONTINUOUS
10
40.0548360000000017
20
-7.7624189999999995
11
40.197693000000001
21
-7.8100379999999996
0
LINE
8
LYELLOW
6
CONTINUOUS
10
41.197693000000001
20
-8.6671800000000001
11
41.1500739999999965
21
-8.7148000000000003
0
LINE
8
LYELLOW
6
CONTINUOUS
10
41.1500739999999965
20
-8.7148000000000003
11
41.0072169999999971
21
-8.7624189999999995
0
LINE
8
LYELLOW
6
CONTINUOUS
10
41.0072169999999971
20
-8.7624189999999995
11
40.9119789999999952
21
-8.7624189999999995
0
LINE
8
LYELLOW
6
CONTINUOUS
10
40.9119789999999952
20
-8.7624189999999995
11
40.7691219999999959
21
-8.7148000000000003
0
LINE
8
LYELLOW
6
CONTINUOUS
10
40.7691219999999959
20
-8.7148000000000003
11
40.673884000000001
21
-8.6195609999999991
0
LINE
8
LYELLOW
6
CONTINUOUS
10
40.673884000000001
20
-8.6195609999999991
11
40.6262649999999965
21
-8.524322999999999
0
LINE
8
LYELLOW
6
CONTINUOUS
10
40.6262649999999965
20
-8.524322999999999
11
40.5786459999999991
21
-8.3338470000000004
0
LINE
8
LYELLOW
6
CONTINUOUS
10
40.5786459999999991
20
-8.3338470000000004
11
40.5786459999999991
21
-8.1909899999999993
0
LINE
8
LYELLOW
6
CONTINUOUS
10
40.5786459999999991
20
-8.1909899999999993
11
40.6262649999999965
21
-8.000513999999999
0
LINE
8
LYELLOW
6
CONTINUOUS
10
40.6262649999999965
20
-8.000513999999999
11
40.673884000000001
21
-7.9052759999999997
0
LINE
8
LYELLOW
6
CONTINUOUS
10
40.673884000000001
20
-7.9052759999999997
11
40.7691219999999959
21
-7.8100379999999996
0
LINE
8
LYELLOW
6
CONTINUOUS
10
40.7691219999999959
20
-7.8100379999999996
11
40.9119789999999952
21
-7.7624189999999995
0
LINE
8
LYELLOW
6
CONTINUOUS
10
40.9119789999999952
20
-7.7624189999999995
11
41.0072169999999971
21
-7.7624189999999995
0
LINE
8
LYELLOW
6
CONTINUOUS
10
41.0072169999999971
20
-7.7624189999999995
11
41.1500739999999965
21
-7.8100379999999996
0
LINE
8
LYELLOW
6
CONTINUOUS
10
41.1500739999999965
20
-7.8100379999999996
11
41.197693000000001
21
-7.8576569999999997
0
LINE
8
LYELLOW
6
CONTINUOUS
10
42.1024549999999991
20
-8.7624189999999995
11
41.6262649999999965
21
-8.7624189999999995
0
LINE
8
LYELLOW
6
CONTINUOUS
10
41.6262649999999965
20
-8.7624189999999995
11
41.6262649999999965
21
-7.7624189999999995
0
LINE
8
LYELLOW
6
CONTINUOUS
10
1.6198189999999999
20
-33.5692850000000007
11
0.619819
21
-33.5692850000000007
0
LINE
8
LYELLOW
6
CONTINUOUS
10
0.619819
20
-33.5692850000000007
11
0.619819
21
-33.3311899999999994
0
LINE
8
LYELLOW
6
CONTINUOUS
10
0.619819
20
-33.3311899999999994
11
0.667438
21
-33.1883330000000001
0
LINE
8
LYELLOW
6
CONTINUOUS
10
0.667438
20
-33.1883330000000001
11
0.762676
21
-33.0930949999999982
0
LINE
8
LYELLOW
6
CONTINUOUS
10
0.762676
20
-33.0930949999999982
11
0.857914
21
-33.0454760000000007
0
LINE
8
LYELLOW
6
CONTINUOUS
10
0.857914
20
-33.0454760000000007
11
1.0483899999999999
21
-32.9978569999999962
0
LINE
8
LYELLOW
6
CONTINUOUS
10
1.0483899999999999
20
-32.9978569999999962
11
1.1912469999999999
21
-32.9978569999999962
0
LINE
8
LYELLOW
6
CONTINUOUS
10
1.1912469999999999
20
-32.9978569999999962
11
1.381723
21
-33.0454760000000007
0
LINE
8
LYELLOW
6
CONTINUOUS
10
1.381723
20
-33.0454760000000007
11
1.476961
21
-33.0930949999999982
0
LINE
8
LYELLOW
6
CONTINUOUS
10
1.476961
20
-33.0930949999999982
11
1.5721999999999998
21
-33.1883330000000001
0
LINE
8
LYELLOW
6
CONTINUOUS
10
1.5721999999999998
20
-33.1883330000000001
11
1.6198189999999999
21
-33.3311899999999994
0
LINE
8
LYELLOW
6
CONTINUOUS
10
1.6198189999999999
20
-33.3311899999999994
11
1.6198189999999999
21
-33.5692850000000007
0
LINE
8
LYELLOW
6
CONTINUOUS
10
1.5721999999999998
20
-32.6169039999999981
11
1.6198189999999999
21
-32.4740469999999988
0
LINE
8
LYELLOW
6
CONTINUOUS
10
1.6198189999999999
20
-32.4740469999999988
11
1.6198189999999999
21
-32.2359519999999975
0
LINE
8
LYELLOW
6
CONTINUOUS
10
1.6198189999999999
20
-32.2359519999999975
11
1.5721999999999998
21
-32.1407139999999956
0
LINE
8
LYELLOW
6
CONTINUOUS
10
1.5721999999999998
20
-32.1407139999999956
11
1.5245799999999998
21
-32.0930949999999982
0
LINE
8
LYELLOW
6
CONTINUOUS
10
1.5245799999999998
20
-32.0930949999999982
11
1.4293419999999999
21
-32.0454760000000007
0
LINE
8
LYELLOW
6
CONTINUOUS
10
1.4293419999999999
20
-32.0454760000000007
11
1.334104
21
-32.0454760000000007
0
LINE
8
LYELLOW
6
CONTINUOUS
10
1.334104
20
-32.0454760000000007
11
1.238866
21
-32.0930949999999982
0
LINE
8
LYELLOW
6
CONTINUOUS
10
1.238866
20
-32.0930949999999982
11
1.1912469999999999
21
-32.1407139999999956
0
LINE
8
LYELLOW
6
CONTINUOUS
10
1.1912469999999999
20
-32.1407139999999956
11
1.1436279999999999
21
-32.2359519999999975
0
LINE
8
LYELLOW
6
CONTINUOUS
10
1.1436279999999999
20
-32.2359519999999975
11
1.096009
21
-32.4264280000000014
0
LINE
8
LYELLOW
6
CONTINUOUS
10
1.096009
20
-32.4264280000000014
11
1.0483899999999999
21
-32.5216659999999962
0
LINE
8
LYELLOW
6
CONTINUOUS
10
1.0483899999999999
20
-32.5216659999999962
11
1.0007709999999999
21
-32.5692850000000007
0
LINE
8
LYELLOW
6
CONTINUOUS
10
1.0007709999999999
20
-32.5692850000000007
11
0.9055329999999999
21
-32.6169039999999981
0
LINE
8
LYELLOW
6
CONTINUOUS
10
0.9055329999999999
20
-32.6169039999999981
11
0.810295
21
-32.6169039999999981
0
LINE
8
LYELLOW
6
CONTINUOUS
10
0.810295
20
-32.6169039999999981
11
0.7150569999999999
21
-32.5692850000000007
0
LINE
8
LYELLOW
6
CONTINUOUS
10
0.7150569999999999
20
-32.5692850000000007
11
0.667438
21
-32.5216659999999962
0
LINE
8
LYELLOW
6
CONTINUOUS
10
0.667438
20
-32.5216659999999962
11
0.619819
21
-32.4264280000000014
0
LINE
8
LYELLOW
6
CONTINUOUS
10
0.619819
20
-32.4264280000000014
11
0.619819
21
-32.1883330000000001
0
LINE
8
LYELLOW
6
CONTINUOUS
10
0.619819
20
-32.1883330000000001
11
0.667438
21
-32.0454760000000007
0
LINE
8
LYELLOW
6
CONTINUOUS
10
1.6198189999999999
20
-31.0930949999999982
11
1.6198189999999999
21
-31.6645229999999991
0
LINE
8
LYELLOW
6
CONTINUOUS
10
1.6198189999999999
20
-31.3788089999999968
11
0.619819
21
-31.3788089999999968
0
LINE
8
LYELLOW
6
CONTINUOUS
10
0.619819
20
-31.3788089999999968
11
0.762676
21
-31.4740469999999988
0
LINE
8
LYELLOW
6
CONTINUOUS
10
0.762676
20
-31.4740469999999988
11
0.857914
21
-31.5692849999999972
0
LINE
8
LYELLOW
6
CONTINUOUS
10
0.857914
20
-31.5692849999999972
11
0.9055329999999999
21
-31.6645229999999991
0
LINE
8
LYELLOW
6
CONTINUOUS
10
37.2904759999999982
20
-23.7448189999999997
11
37.2904759999999982
21
-24.459104
0
LINE
8
LYELLOW
6
CONTINUOUS
10
37.2904759999999982
20
-24.459104
11
37.2428570000000008
21
-24.6019609999999993
0
LINE
8
LYELLOW
6
CONTINUOUS
10
37.2428570000000008
20
-24.6019609999999993
11
37.1476189999999988
21
-24.6971999999999987
0
LINE
8
LYELLOW
6
CONTINUOUS
10
37.1476189999999988
20
-24.6971999999999987
11
37.0047619999999995
21
-24.7448189999999997
0
LINE
8
LYELLOW
6
CONTINUOUS
10
37.0047619999999995
20
-24.7448189999999997
11
36.9095239999999976
21
-24.7448189999999997
0
LINE
8
LYELLOW
6
CONTINUOUS
10
37.7190480000000008
20
-23.8400569999999981
11
37.7666669999999982
21
-23.7924380000000006
0
LINE
8
LYELLOW
6
CONTINUOUS
10
37.7666669999999982
20
-23.7924380000000006
11
37.8619050000000001
21
-23.7448189999999997
0
LINE
8
LYELLOW
6
CONTINUOUS
10
37.8619050000000001
20
-23.7448189999999997
11
38.1000000000000014
21
-23.7448189999999997
0
LINE
8
LYELLOW
6
CONTINUOUS
10
38.1000000000000014
20
-23.7448189999999997
11
38.1952379999999962
21
-23.7924380000000006
0
LINE
8
LYELLOW
6
CONTINUOUS
10
38.1952379999999962
20
-23.7924380000000006
11
38.2428570000000008
21
-23.8400569999999981
0
LINE
8
LYELLOW
6
CONTINUOUS
10
38.2428570000000008
20
-23.8400569999999981
11
38.2904759999999982
21
-23.935295
0
LINE
8
LYELLOW
6
CONTINUOUS
10
38.2904759999999982
20
-23.935295
11
38.2904759999999982
21
-24.0305329999999984
0
LINE
8
LYELLOW
6
CONTINUOUS
10
38.2904759999999982
20
-24.0305329999999984
11
38.2428570000000008
21
-24.1733899999999977
0
LINE
8
LYELLOW
6
CONTINUOUS
10
38.2428570000000008
20
-24.1733899999999977
11
37.6714289999999963
21
-24.7448189999999997
0
LINE
8
LYELLOW
6
CONTINUOUS
10
37.6714289999999963
20
-24.7448189999999997
11
38.2904759999999982
21
-24.7448189999999997
0
LINE
8
LYELLOW
6
CONTINUOUS
10
39.2428570000000008
20
-24.7448189999999997
11
38.6714289999999963
21
-24.7448189999999997
0
LINE
8
LYELLOW
6
CONTINUOUS
10
38.957142999999995
20
-24.7448189999999997
11
38.957142999999995
21
-23.7448189999999997
0
LINE
8
LYELLOW
6
CONTINUOUS
10
38.957142999999995
20
-23.7448189999999997
11
38.8619050000000001
21
-23.887675999999999
0
LINE
8
LYELLOW
6
CONTINUOUS
10
38.8619050000000001
20
-23.887675999999999
11
38.7666669999999982
21
-23.9829139999999974
0
LINE
8
LYELLOW
6
CONTINUOUS
10
38.7666669999999982
20
-23.9829139999999974
11
38.6714289999999963
21
-24.0305329999999984
0
LINE
8
LYELLOW
6
CONTINUOUS
10
25.0666659999999979
20
-50.1748189999999994
11
25.0666659999999979
21
-50.8891039999999961
0
LINE
8
LYELLOW
6
CONTINUOUS
10
25.0666659999999979
20
-50.8891039999999961
11
25.0190470000000005
21
-51.0319609999999955
0
LINE
8
LYELLOW
6
CONTINUOUS
10
25.0190470000000005
20
-51.0319609999999955
11
24.9238089999999985
21
-51.1271999999999949
0
LINE
8
LYELLOW
6
CONTINUOUS
10
24.9238089999999985
20
-51.1271999999999949
11
24.7809519999999992
21
-51.1748189999999994
0
LINE
8
LYELLOW
6
CONTINUOUS
10
24.7809519999999992
20
-51.1748189999999994
11
24.6857139999999973
21
-51.1748189999999994
0
LINE
8
LYELLOW
6
CONTINUOUS
10
26.0666659999999979
20
-51.1748189999999994
11
25.4952380000000005
21
-51.1748189999999994
0
LINE
8
LYELLOW
6
CONTINUOUS
10
25.7809519999999992
20
-51.1748189999999994
11
25.7809519999999992
21
-50.1748189999999994
0
LINE
8
LYELLOW
6
CONTINUOUS
10
25.7809519999999992
20
-50.1748189999999994
11
25.6857139999999973
21
-50.3176759999999987
0
LINE
8
LYELLOW
6
CONTINUOUS
10
25.6857139999999973
20
-50.3176759999999987
11
25.5904759999999989
21
-50.4129140000000007
0
LINE
8
LYELLOW
6
CONTINUOUS
10
25.5904759999999989
20
-50.4129140000000007
11
25.4952380000000005
21
-50.4605329999999981
0
LINE
8
LYELLOW
6
CONTINUOUS
10
40.5300000000000011
20
-55.8599999999999994
11
40.5300000000000011
21
-10.0800000000000001
0
LINE
8
LYELLOW
6
CONTINUOUS
10
40.5300000000000011
20
-58.4600000000000009
11
40.5300000000000011
21
-57.1299999999999955
0
LINE
8
LYELLOW
6
CONTINUOUS
10
41.8599999999999994
20
-58.4600000000000009
11
40.5300000000000011
21
-58.4600000000000009
0
LINE
8
LYELLOW
6
CONTINUOUS
10
43.1899999999999977
20
-10.0800000000000001
11
40.5300000000000011
21
-10.0800000000000001
0
LINE
8
LYELLOW
6
CONTINUOUS
10
43.1899999999999977
20
-55.8599999999999994
11
40.5300000000000011
21
-55.8599999999999994
0
LINE
8
LYELLOW
6
CONTINUOUS
10
43.1899999999999977
20
-55.8599999999999994
11
43.1899999999999977
21
-10.0800000000000001
0
LINE
8
LYELLOW
6
CONTINUOUS
10
16.520384
20
-42.8124040000000008
11
16.520384
21
-60.0624040000000008
0
LINE
8
LYELLOW
6
CONTINUOUS
10
18.4533459999999998
20
-61.8703659999999971
11
32.4233459999999951
21
-61.8703659999999971
0
LINE
8
LYELLOW
6
CONTINUOUS
10
20.770384
20
-55.8124040000000008
11
29.770384
21
-55.8124040000000008
0
LINE
8
LYELLOW
6
CONTINUOUS
10
20.770384
20
-63.1624039999999951
11
20.770384
21
-55.8124040000000008
0
LINE
8
LYELLOW
6
CONTINUOUS
10
29.770384
20
-55.8124040000000008
11
29.770384
21
-63.1624039999999951
0
LINE
8
LYELLOW
6
CONTINUOUS
10
29.770384
20
-63.1624039999999951
11
20.770384
21
-63.1624039999999951
0
LINE
8
LYELLOW
6
CONTINUOUS
10
32.4233459999999951
20
-40.9153659999999988
11
18.4533459999999998
21
-40.9153659999999988
0
LINE
8
LYELLOW
6
CONTINUOUS
10
34.270384
20
-42.8124040000000008
11
34.270384
21
-59.8124040000000008
0
ARC
8
LYELLOW
10
18.4533470000000008
20
-42.8203669999999974
40
1.9050010000002624
50
90.00003008
51
179.99996992
0
ARC
8
LYELLOW
10
18.4533439999999977
20
-59.9653639999999939
40
1.9050020000010497
50
-179.99993985
51
-89.99993985
0
ARC
8
LYELLOW
10
32.4233449999999976
20
-42.8203669999999974
40
1.9050010000002624
50
0.00003008
51
89.99996992
0
ARC
8
LYELLOW
10
32.4233440000000002
20
-59.9653639999999939
40
1.9050020000010497
50
-89.99993985
51
-0.00006015
0
LINE
8
LYELLOW
6
CONTINUOUS
10
36.8299999999999983
20
-2.54
11
49.5300000000000011
21
-2.54
0
LINE
8
LYELLOW
6
CONTINUOUS
10
49.5300000000000011
20
-2.54
11
49.5300000000000011
21
-15.2399999999999984
0
LINE
8
LYELLOW
6
CONTINUOUS
10
49.5300000000000011
20
-15.2399999999999984
11
36.8299999999999983
21
-15.2399999999999984
0
LINE
8
LYELLOW
6
CONTINUOUS
10
36.8299999999999983
20
-15.2399999999999984
11
36.8299999999999983
21
-2.54
0
LINE
8
LYELLOW
6
CONTINUOUS
10
2.1999999999999997
20
-0.03
11
35.8999999999999986
21
-0.03
0
LINE
8
LYELLOW
6
CONTINUOUS
10
2.1999999999999997
20
-35.5300000000000011
11
2.1999999999999997
21
-0.03
0
LINE
8
LYELLOW
6
CONTINUOUS
10
35.8999999999999986
20
-0.03
11
35.8999999999999986
21
-35.5300000000000011
0
LINE
8
LYELLOW
6
CONTINUOUS
10
35.8999999999999986
20
-35.5300000000000011
11
2.1999999999999997
21
-35.5300000000000011
0
CIRCLE
8
LYELLOW
10
1.6499999999999999
20
-21.5899999999999999
40
0.1
0
LINE
8
LYELLOW
6
CONTINUOUS
10
36.7199999999999989
20
-25.2899999999999991
11
38.1000000000000014
21
-25.2899999999999991
0
LINE
8
LYELLOW
6
CONTINUOUS
10
36.7199999999999989
20
-26.6699999999999982
11
36.7199999999999989
21
-25.2899999999999991
0
LINE
8
LYELLOW
6
CONTINUOUS
10
36.7199999999999989
20
-27.9399999999999977
11
36.7199999999999989
21
-40.75
0
LINE
8
LYELLOW
6
CONTINUOUS
10
36.7199999999999989
20
-27.9399999999999977
11
39.4799999999999969
21
-27.9399999999999977
0
LINE
8
LYELLOW
6
CONTINUOUS
10
36.7199999999999989
20
-40.75
11
39.4799999999999969
21
-40.75
0
LINE
8
LYELLOW
6
CONTINUOUS
10
39.4799999999999969
20
-27.9399999999999977
11
39.4799999999999969
21
-40.75
0
LINE
8
LYELLOW
6
CONTINUOUS
10
22.3399999999999999
20
-41.8099999999999952
11
22.3399999999999999
21
-49.6299999999999955
0
LINE
8
LYELLOW
6
CONTINUOUS
10
22.3399999999999999
20
-48.0300000000000011
11
23.259999999999998
21
-48.0300000000000011
0
LINE
8
LYELLOW
6
CONTINUOUS
10
22.3399999999999999
20
-49.6299999999999955
11
23.259999999999998
21
-49.6299999999999955
0
LINE
8
LYELLOW
6
CONTINUOUS
10
23.0999999999999979
20
-44.0700000000000003
11
24.0999999999999979
21
-44.0700000000000003
0
LINE
8
LYELLOW
6
CONTINUOUS
10
23.0999999999999979
20
-45.6699999999999946
11
23.0999999999999979
21
-44.0700000000000003
0
LINE
8
LYELLOW
6
CONTINUOUS
10
23.259999999999998
20
-48.0300000000000011
11
23.5399999999999991
21
-48.0300000000000011
0
LINE
8
LYELLOW
6
CONTINUOUS
10
23.259999999999998
20
-49.6299999999999955
11
23.259999999999998
21
-48.0300000000000011
0
LINE
8
LYELLOW
6
CONTINUOUS
10
24.0999999999999979
20
-44.0700000000000003
11
24.0999999999999979
21
-45.6699999999999946
0
LINE
8
LYELLOW
6
CONTINUOUS
10
24.0999999999999979
20
-45.6699999999999946
11
23.0999999999999979
21
-45.6699999999999946
0
LINE
8
LYELLOW
6
CONTINUOUS
10
24.8999999999999986
20
-46.1699999999999946
11
24.8999999999999986
21
-41.8099999999999952
0
LINE
8
LYELLOW
6
CONTINUOUS
10
25.8999999999999986
20
-41.8099999999999952
11
25.8999999999999986
21
-46.1699999999999946
0
LINE
8
LYELLOW
6
CONTINUOUS
10
25.8999999999999986
20
-46.1699999999999946
11
24.8999999999999986
21
-46.1699999999999946
0
LINE
8
LYELLOW
6
CONTINUOUS
10
26.6999999999999993
20
-44.0700000000000003
11
26.6999999999999993
21
-41.8099999999999952
0
LINE
8
LYELLOW
6
CONTINUOUS
10
26.6999999999999993
20
-44.0700000000000003
11
26.6999999999999993
21
-45.6699999999999946
0
LINE
8
LYELLOW
6
CONTINUOUS
10
26.6999999999999993
20
-45.6699999999999946
11
27.6999999999999993
21
-45.6699999999999946
0
LINE
8
LYELLOW
6
CONTINUOUS
10
27.1999999999999993
20
-44.0700000000000003
11
27.1999999999999993
21
-41.8099999999999952
0
LINE
8
LYELLOW
6
CONTINUOUS
10
27.259999999999998
20
-48.0300000000000011
11
27.259999999999998
21
-49.2449999999999974
0
LINE
8
LYELLOW
6
CONTINUOUS
10
27.259999999999998
20
-48.0300000000000011
11
27.5399999999999991
21
-48.0300000000000011
0
LINE
8
LYELLOW
6
CONTINUOUS
10
27.5399999999999991
20
-48.0300000000000011
11
27.5399999999999991
21
-49.6299999999999955
0
LINE
8
LYELLOW
6
CONTINUOUS
10
27.5399999999999991
20
-49.6299999999999955
11
28.4599999999999973
21
-49.6299999999999955
0
LINE
8
LYELLOW
6
CONTINUOUS
10
27.6999999999999993
20
-44.0700000000000003
11
26.6999999999999993
21
-44.0700000000000003
0
LINE
8
LYELLOW
6
CONTINUOUS
10
27.6999999999999993
20
-45.6699999999999946
11
27.6999999999999993
21
-44.0700000000000003
0
LINE
8
LYELLOW
6
CONTINUOUS
10
28.4599999999999973
20
-41.8099999999999952
11
22.3399999999999999
21
-41.8099999999999952
0
LINE
8
LYELLOW
6
CONTINUOUS
10
28.4599999999999973
20
-48.0300000000000011
11
27.5399999999999991
21
-48.0300000000000011
0
LINE
8
LYELLOW
6
CONTINUOUS
10
28.4599999999999973
20
-49.6299999999999955
11
28.4599999999999973
21
-41.8099999999999952
0
LINE
8
LYELLOW
6
CONTINUOUS
10
10.0999999999999996
20
-12.6999999999999993
11
10.0999999999999996
21
-58.4799999999999969
0
LINE
8
LYELLOW
6
CONTINUOUS
10
10.0999999999999996
20
-12.6999999999999993
11
12.7599999999999998
21
-12.6999999999999993
0
LINE
8
LYELLOW
6
CONTINUOUS
10
10.0999999999999996
20
-58.4799999999999969
11
12.7599999999999998
21
-58.4799999999999969
0
LINE
8
LYELLOW
6
CONTINUOUS
10
11.4299999999999997
20
-10.0999999999999996
11
12.7599999999999998
21
-10.0999999999999996
0
LINE
8
LYELLOW
6
CONTINUOUS
10
12.7599999999999998
20
-10.0999999999999996
11
12.7599999999999998
21
-11.4299999999999997
0
LINE
8
LYELLOW
6
CONTINUOUS
10
12.7599999999999998
20
-12.6999999999999993
11
12.7599999999999998
21
-58.4799999999999969
0
CIRCLE
8
BLACK
10
41.8599999999999994
20
-57.1299999999999955
40
0.5
0
CIRCLE
8
BLACK
10
41.8599999999999994
20
-54.5899999999999963
40
0.5
0
CIRCLE
8
BLACK
10
41.8599999999999994
20
-52.0499999999999972
40
0.5
0
CIRCLE
8
BLACK
10
41.8599999999999994
20
-49.509999999999998
40
0.5
0
CIRCLE
8
BLACK
10
41.8599999999999994
20
-46.9699999999999989
40
0.5
0
CIRCLE
8
BLACK
10
41.8599999999999994
20
-44.4299999999999997
40
0.5
0
CIRCLE
8
BLACK
10
41.8599999999999994
20
-41.8900000000000006
40
0.5
0
CIRCLE
8
BLACK
10
41.8599999999999994
20
-39.3500000000000014
40
0.5
0
CIRCLE
8
BLACK
10
41.8599999999999994
20
-36.8099999999999952
40
0.5
0
CIRCLE
8
BLACK
10
41.8599999999999994
20
-34.269999999999996
40
0.5
0
CIRCLE
8
BLACK
10
41.8599999999999994
20
-31.7299999999999969
40
0.5
0
CIRCLE
8
BLACK
10
41.8599999999999994
20
-29.1899999999999977
40
0.5
0
CIRCLE
8
BLACK
10
41.8599999999999994
20
-26.6499999999999986
40
0.5
0
CIRCLE
8
BLACK
10
41.8599999999999994
20
-24.1099999999999994
40
0.5
0
CIRCLE
8
BLACK
10
41.8599999999999994
20
-21.5700000000000003
40
0.5
0
CIRCLE
8
BLACK
10
41.8599999999999994
20
-19.0299999999999976
40
0.5
0
CIRCLE
8
BLACK
10
41.8599999999999994
20
-16.4899999999999984
40
0.5
0
CIRCLE
8
BLACK
10
41.8599999999999994
20
-13.9499999999999993
40
0.5
0
CIRCLE
8
BLACK
10
41.8599999999999994
20
-11.4100000000000001
40
0.5
0
CIRCLE
8
BLACK
10
17.8183459999999982
20
-43.7728660000000005
40
0.5
0
CIRCLE
8
BLACK
10
17.8183459999999982
20
-46.3128659999999996
40
0.5
0
CIRCLE
8
BLACK
10
17.8183459999999982
20
-48.8528659999999988
40
0.5
0
CIRCLE
8
BLACK
10
17.8183459999999982
20
-51.3928659999999979
40
0.5
0
CIRCLE
8
BLACK
10
17.8183459999999982
20
-53.9328659999999971
40
0.5
0
CIRCLE
8
BLACK
10
17.8183459999999982
20
-56.4728659999999962
40
0.5
0
CIRCLE
8
BLACK
10
17.8183459999999982
20
-59.0128659999999954
40
0.5
0
CIRCLE
8
BLACK
10
33.0583460000000002
20
-43.7728660000000005
40
0.5
0
CIRCLE
8
BLACK
10
33.0583460000000002
20
-46.3128659999999996
40
0.5
0
CIRCLE
8
BLACK
10
33.0583460000000002
20
-48.8528659999999988
40
0.5
0
CIRCLE
8
BLACK
10
33.0583460000000002
20
-51.3928659999999979
40
0.5
0
CIRCLE
8
BLACK
10
33.0583460000000002
20
-53.9328659999999971
40
0.5
0
CIRCLE
8
BLACK
10
33.0583460000000002
20
-56.4728659999999962
40
0.5
0
CIRCLE
8
BLACK
10
33.0583460000000002
20
-59.0128659999999954
40
0.5
0
CIRCLE
8
BLACK
10
38.1000000000000014
20
-3.8099999999999996
40
0.381
0
CIRCLE
8
BLACK
10
38.1000000000000014
20
-6.3499999999999996
40
0.381
0
CIRCLE
8
BLACK
10
38.1000000000000014
20
-8.8899999999999988
40
0.381
0
CIRCLE
8
BLACK
10
38.1000000000000014
20
-11.4299999999999997
40
0.381
0
CIRCLE
8
BLACK
10
38.1000000000000014
20
-13.9699999999999989
40
0.381
0
CIRCLE
8
BLACK
10
3.5
20
-21.5899999999999999
40
0.5
0
CIRCLE
8
BLACK
10
3.5
20
-19.0500000000000007
40
0.5
0
CIRCLE
8
BLACK
10
3.5
20
-16.509999999999998
40
0.5
0
CIRCLE
8
BLACK
10
3.5
20
-13.9699999999999989
40
0.5
0
CIRCLE
8
BLACK
10
38.1000000000000014
20
-26.6699999999999982
40
0.5
0
CIRCLE
8
BLACK
10
38.1000000000000014
20
-29.2099999999999973
40
0.5
0
CIRCLE
8
BLACK
10
38.1000000000000014
20
-31.75
40
0.5
0
CIRCLE
8
BLACK
10
38.1000000000000014
20
-34.2899999999999991
40
0.5
0
CIRCLE
8
BLACK
10
38.1000000000000014
20
-36.8299999999999983
40
0.5
0
CIRCLE
8
BLACK
10
38.1000000000000014
20
-39.3699999999999974
40
0.5
0
CIRCLE
8
BLACK
10
26.3999999999999986
20
-48.1699999999999946
40
0.375
0
CIRCLE
8
BLACK
10
24.3999999999999986
20
-48.1699999999999946
40
0.375
0
CIRCLE
8
BLACK
10
11.4299999999999997
20
-11.4299999999999997
40
0.5
0
CIRCLE
8
BLACK
10
11.4299999999999997
20
-13.9699999999999989
40
0.5
0
CIRCLE
8
BLACK
10
11.4299999999999997
20
-16.509999999999998
40
0.5
0
CIRCLE
8
BLACK
10
11.4299999999999997
20
-19.0500000000000007
40
0.5
0
CIRCLE
8
BLACK
10
11.4299999999999997
20
-21.5899999999999999
40
0.5
0
CIRCLE
8
BLACK
10
11.4299999999999997
20
-24.129999999999999
40
0.5
0
CIRCLE
8
BLACK
10
11.4299999999999997
20
-26.6699999999999982
40
0.5
0
CIRCLE
8
BLACK
10
11.4299999999999997
20
-29.2099999999999973
40
0.5
0
CIRCLE
8
BLACK
10
11.4299999999999997
20
-31.75
40
0.5
0
CIRCLE
8
BLACK
10
11.4299999999999997
20
-34.2899999999999991
40
0.5
0
CIRCLE
8
BLACK
10
11.4299999999999997
20
-36.8299999999999983
40
0.5
0
CIRCLE
8
BLACK
10
11.4299999999999997
20
-39.3699999999999974
40
0.5
0
CIRCLE
8
BLACK
10
11.4299999999999997
20
-41.9099999999999966
40
0.5
0
CIRCLE
8
BLACK
10
11.4299999999999997
20
-44.4499999999999957
40
0.5
0
CIRCLE
8
BLACK
10
11.4299999999999997
20
-46.9899999999999949
40
0.5
0
CIRCLE
8
BLACK
10
11.4299999999999997
20
-49.5300000000000011
40
0.5
0
CIRCLE
8
BLACK
10
11.4299999999999997
20
-52.0700000000000003
40
0.5
0
CIRCLE
8
BLACK
10
11.4299999999999997
20
-54.6099999999999994
40
0.5
0
CIRCLE
8
BLACK
10
11.4299999999999997
20
-57.1499999999999986
40
0.5
  0
ENDSEC
  0
EOF
