<?xml version="1.0" encoding="UTF-8"?>
<svg xmlns="http://www.w3.org/2000/svg" xmlns:xlink="http://www.w3.org/1999/xlink" width="153pt" height="216pt" viewBox="0 0 153 216" version="1.1">
<g id="surface16523">
<path style=" stroke:none;fill-rule:evenodd;fill:rgb(45.098039%,45.098039%,87.058824%);fill-opacity:1;" d="M 23.28125 198.546875 L 25.832031 198.546875 L 25.832031 192.878906 L 23.28125 192.878906 Z M 23.28125 198.546875 "/>
<path style=" stroke:none;fill-rule:evenodd;fill:rgb(45.098039%,45.098039%,87.058824%);fill-opacity:1;" d="M 17.613281 189.476563 L 20.164063 189.476563 L 20.164063 183.808594 L 17.613281 183.808594 Z M 17.613281 189.476563 "/>
<path style=" stroke:none;fill-rule:evenodd;fill:rgb(45.098039%,45.098039%,87.058824%);fill-opacity:1;" d="M 11.941406 198.546875 L 14.492188 198.546875 L 14.492188 192.878906 L 11.941406 192.878906 Z M 11.941406 198.546875 "/>
<path style=" stroke:none;fill-rule:evenodd;fill:rgb(45.098039%,45.098039%,87.058824%);fill-opacity:1;" d="M 23.28125 180.546875 L 25.832031 180.546875 L 25.832031 174.878906 L 23.28125 174.878906 Z M 23.28125 180.546875 "/>
<path style=" stroke:none;fill-rule:evenodd;fill:rgb(45.098039%,45.098039%,87.058824%);fill-opacity:1;" d="M 17.613281 171.476563 L 20.164063 171.476563 L 20.164063 165.808594 L 17.613281 165.808594 Z M 17.613281 171.476563 "/>
<path style=" stroke:none;fill-rule:evenodd;fill:rgb(45.098039%,45.098039%,87.058824%);fill-opacity:1;" d="M 11.941406 180.546875 L 14.492188 180.546875 L 14.492188 174.878906 L 11.941406 174.878906 Z M 11.941406 180.546875 "/>
<path style=" stroke:none;fill-rule:evenodd;fill:rgb(45.098039%,45.098039%,87.058824%);fill-opacity:1;" d="M 23.28125 162.546875 L 25.832031 162.546875 L 25.832031 156.878906 L 23.28125 156.878906 Z M 23.28125 162.546875 "/>
<path style=" stroke:none;fill-rule:evenodd;fill:rgb(45.098039%,45.098039%,87.058824%);fill-opacity:1;" d="M 17.613281 153.476563 L 20.164063 153.476563 L 20.164063 147.808594 L 17.613281 147.808594 Z M 17.613281 153.476563 "/>
<path style=" stroke:none;fill-rule:evenodd;fill:rgb(45.098039%,45.098039%,87.058824%);fill-opacity:1;" d="M 11.941406 162.546875 L 14.492188 162.546875 L 14.492188 156.878906 L 11.941406 156.878906 Z M 11.941406 162.546875 "/>
<path style=" stroke:none;fill-rule:evenodd;fill:rgb(45.098039%,45.098039%,87.058824%);fill-opacity:1;" d="M 40.488281 44.511719 L 51.289063 44.511719 L 51.289063 40.910156 L 40.488281 40.910156 Z M 40.488281 44.511719 "/>
<path style=" stroke:none;fill-rule:evenodd;fill:rgb(45.098039%,45.098039%,87.058824%);fill-opacity:1;" d="M 33.289063 51.714844 L 44.089844 51.714844 L 44.089844 48.113281 L 33.289063 48.113281 Z M 33.289063 51.714844 "/>
<path style=" stroke:none;fill-rule:evenodd;fill:rgb(45.098039%,45.098039%,87.058824%);fill-opacity:1;" d="M 40.488281 58.914063 L 51.289063 58.914063 L 51.289063 55.3125 L 40.488281 55.3125 Z M 40.488281 58.914063 "/>
<path style=" stroke:none;fill-rule:evenodd;fill:rgb(45.098039%,45.098039%,87.058824%);fill-opacity:1;" d="M 33.289063 66.113281 L 44.089844 66.113281 L 44.089844 62.511719 L 33.289063 62.511719 Z M 33.289063 66.113281 "/>
<path style=" stroke:none;fill-rule:evenodd;fill:rgb(45.098039%,45.098039%,87.058824%);fill-opacity:1;" d="M 40.488281 73.3125 L 51.289063 73.3125 L 51.289063 69.710938 L 40.488281 69.710938 Z M 40.488281 73.3125 "/>
<path style=" stroke:none;fill-rule:evenodd;fill:rgb(45.098039%,45.098039%,87.058824%);fill-opacity:1;" d="M 33.289063 80.511719 L 44.089844 80.511719 L 44.089844 76.910156 L 33.289063 76.910156 Z M 33.289063 80.511719 "/>
<path style=" stroke:none;fill-rule:evenodd;fill:rgb(45.098039%,45.098039%,87.058824%);fill-opacity:1;" d="M 40.488281 87.714844 L 51.289063 87.714844 L 51.289063 84.113281 L 40.488281 84.113281 Z M 40.488281 87.714844 "/>
<path style=" stroke:none;fill-rule:evenodd;fill:rgb(45.098039%,45.098039%,87.058824%);fill-opacity:1;" d="M 33.289063 94.914063 L 44.089844 94.914063 L 44.089844 91.3125 L 33.289063 91.3125 Z M 33.289063 94.914063 "/>
<path style=" stroke:none;fill-rule:evenodd;fill:rgb(45.098039%,45.098039%,87.058824%);fill-opacity:1;" d="M 40.488281 102.113281 L 51.289063 102.113281 L 51.289063 98.511719 L 40.488281 98.511719 Z M 40.488281 102.113281 "/>
<path style=" stroke:none;fill-rule:evenodd;fill:rgb(45.098039%,45.098039%,87.058824%);fill-opacity:1;" d="M 33.289063 109.3125 L 44.089844 109.3125 L 44.089844 105.710938 L 33.289063 105.710938 Z M 33.289063 109.3125 "/>
<path style=" stroke:none;fill-rule:evenodd;fill:rgb(45.098039%,45.098039%,87.058824%);fill-opacity:1;" d="M 40.488281 116.511719 L 51.289063 116.511719 L 51.289063 112.910156 L 40.488281 112.910156 Z M 40.488281 116.511719 "/>
<path style=" stroke:none;fill-rule:evenodd;fill:rgb(45.098039%,45.098039%,87.058824%);fill-opacity:1;" d="M 33.289063 123.714844 L 44.089844 123.714844 L 44.089844 120.113281 L 33.289063 120.113281 Z M 33.289063 123.714844 "/>
<path style=" stroke:none;fill-rule:evenodd;fill:rgb(45.098039%,45.098039%,87.058824%);fill-opacity:1;" d="M 40.488281 130.914063 L 51.289063 130.914063 L 51.289063 127.3125 L 40.488281 127.3125 Z M 40.488281 130.914063 "/>
<path style=" stroke:none;fill-rule:evenodd;fill:rgb(45.098039%,45.098039%,87.058824%);fill-opacity:1;" d="M 33.289063 138.113281 L 44.089844 138.113281 L 44.089844 134.511719 L 33.289063 134.511719 Z M 33.289063 138.113281 "/>
<path style=" stroke:none;fill-rule:evenodd;fill:rgb(45.098039%,45.098039%,87.058824%);fill-opacity:1;" d="M 40.488281 145.3125 L 51.289063 145.3125 L 51.289063 141.710938 L 40.488281 141.710938 Z M 40.488281 145.3125 "/>
<path style=" stroke:none;fill-rule:evenodd;fill:rgb(45.098039%,45.098039%,87.058824%);fill-opacity:1;" d="M 33.289063 152.511719 L 44.089844 152.511719 L 44.089844 148.910156 L 33.289063 148.910156 Z M 33.289063 152.511719 "/>
<path style=" stroke:none;fill-rule:evenodd;fill:rgb(45.098039%,45.098039%,87.058824%);fill-opacity:1;" d="M 40.488281 159.714844 L 51.289063 159.714844 L 51.289063 156.113281 L 40.488281 156.113281 Z M 40.488281 159.714844 "/>
<path style=" stroke:none;fill-rule:evenodd;fill:rgb(45.098039%,45.098039%,87.058824%);fill-opacity:1;" d="M 33.289063 166.914063 L 44.089844 166.914063 L 44.089844 163.3125 L 33.289063 163.3125 Z M 33.289063 166.914063 "/>
<path style=" stroke:none;fill-rule:evenodd;fill:rgb(45.098039%,45.098039%,87.058824%);fill-opacity:1;" d="M 40.488281 174.113281 L 51.289063 174.113281 L 51.289063 170.511719 L 40.488281 170.511719 Z M 40.488281 174.113281 "/>
<path style=" stroke:none;fill-rule:evenodd;fill:rgb(45.098039%,45.098039%,87.058824%);fill-opacity:1;" d="M 105.289063 44.511719 L 116.089844 44.511719 L 116.089844 40.910156 L 105.289063 40.910156 Z M 105.289063 44.511719 "/>
<path style=" stroke:none;fill-rule:evenodd;fill:rgb(45.098039%,45.098039%,87.058824%);fill-opacity:1;" d="M 98.085938 51.714844 L 108.886719 51.714844 L 108.886719 48.113281 L 98.085938 48.113281 Z M 98.085938 51.714844 "/>
<path style=" stroke:none;fill-rule:evenodd;fill:rgb(45.098039%,45.098039%,87.058824%);fill-opacity:1;" d="M 105.289063 58.914063 L 116.089844 58.914063 L 116.089844 55.3125 L 105.289063 55.3125 Z M 105.289063 58.914063 "/>
<path style=" stroke:none;fill-rule:evenodd;fill:rgb(45.098039%,45.098039%,87.058824%);fill-opacity:1;" d="M 98.085938 66.113281 L 108.886719 66.113281 L 108.886719 62.511719 L 98.085938 62.511719 Z M 98.085938 66.113281 "/>
<path style=" stroke:none;fill-rule:evenodd;fill:rgb(45.098039%,45.098039%,87.058824%);fill-opacity:1;" d="M 105.289063 73.3125 L 116.089844 73.3125 L 116.089844 69.710938 L 105.289063 69.710938 Z M 105.289063 73.3125 "/>
<path style=" stroke:none;fill-rule:evenodd;fill:rgb(45.098039%,45.098039%,87.058824%);fill-opacity:1;" d="M 98.085938 80.511719 L 108.886719 80.511719 L 108.886719 76.910156 L 98.085938 76.910156 Z M 98.085938 80.511719 "/>
<path style=" stroke:none;fill-rule:evenodd;fill:rgb(45.098039%,45.098039%,87.058824%);fill-opacity:1;" d="M 105.289063 87.714844 L 116.089844 87.714844 L 116.089844 84.113281 L 105.289063 84.113281 Z M 105.289063 87.714844 "/>
<path style=" stroke:none;fill-rule:evenodd;fill:rgb(45.098039%,45.098039%,87.058824%);fill-opacity:1;" d="M 98.085938 94.914063 L 108.886719 94.914063 L 108.886719 91.3125 L 98.085938 91.3125 Z M 98.085938 94.914063 "/>
<path style=" stroke:none;fill-rule:evenodd;fill:rgb(45.098039%,45.098039%,87.058824%);fill-opacity:1;" d="M 105.289063 102.113281 L 116.089844 102.113281 L 116.089844 98.511719 L 105.289063 98.511719 Z M 105.289063 102.113281 "/>
<path style=" stroke:none;fill-rule:evenodd;fill:rgb(45.098039%,45.098039%,87.058824%);fill-opacity:1;" d="M 98.085938 109.3125 L 108.886719 109.3125 L 108.886719 105.710938 L 98.085938 105.710938 Z M 98.085938 109.3125 "/>
<path style=" stroke:none;fill-rule:evenodd;fill:rgb(45.098039%,45.098039%,87.058824%);fill-opacity:1;" d="M 105.289063 116.511719 L 116.089844 116.511719 L 116.089844 112.910156 L 105.289063 112.910156 Z M 105.289063 116.511719 "/>
<path style=" stroke:none;fill-rule:evenodd;fill:rgb(45.098039%,45.098039%,87.058824%);fill-opacity:1;" d="M 98.085938 123.714844 L 108.886719 123.714844 L 108.886719 120.113281 L 98.085938 120.113281 Z M 98.085938 123.714844 "/>
<path style=" stroke:none;fill-rule:evenodd;fill:rgb(45.098039%,45.098039%,87.058824%);fill-opacity:1;" d="M 105.289063 130.914063 L 116.089844 130.914063 L 116.089844 127.3125 L 105.289063 127.3125 Z M 105.289063 130.914063 "/>
<path style=" stroke:none;fill-rule:evenodd;fill:rgb(45.098039%,45.098039%,87.058824%);fill-opacity:1;" d="M 98.085938 138.113281 L 108.886719 138.113281 L 108.886719 134.511719 L 98.085938 134.511719 Z M 98.085938 138.113281 "/>
<path style=" stroke:none;fill-rule:evenodd;fill:rgb(45.098039%,45.098039%,87.058824%);fill-opacity:1;" d="M 105.289063 145.3125 L 116.089844 145.3125 L 116.089844 141.710938 L 105.289063 141.710938 Z M 105.289063 145.3125 "/>
<path style=" stroke:none;fill-rule:evenodd;fill:rgb(45.098039%,45.098039%,87.058824%);fill-opacity:1;" d="M 98.085938 152.511719 L 108.886719 152.511719 L 108.886719 148.910156 L 98.085938 148.910156 Z M 98.085938 152.511719 "/>
<path style=" stroke:none;fill-rule:evenodd;fill:rgb(45.098039%,45.098039%,87.058824%);fill-opacity:1;" d="M 105.289063 159.714844 L 116.089844 159.714844 L 116.089844 156.113281 L 105.289063 156.113281 Z M 105.289063 159.714844 "/>
<path style=" stroke:none;fill-rule:evenodd;fill:rgb(45.098039%,45.098039%,87.058824%);fill-opacity:1;" d="M 98.085938 166.914063 L 108.886719 166.914063 L 108.886719 163.3125 L 98.085938 163.3125 Z M 98.085938 166.914063 "/>
<path style=" stroke:none;fill-rule:evenodd;fill:rgb(45.098039%,45.098039%,87.058824%);fill-opacity:1;" d="M 105.289063 174.113281 L 116.089844 174.113281 L 116.089844 170.511719 L 105.289063 170.511719 Z M 105.289063 174.113281 "/>
<path style=" stroke:none;fill-rule:evenodd;fill:rgb(45.098039%,45.098039%,87.058824%);fill-opacity:1;" d="M 24.1875 133.761719 L 29.855469 133.761719 L 29.855469 131.210938 L 24.1875 131.210938 Z M 24.1875 133.761719 "/>
<path style=" stroke:none;fill-rule:evenodd;fill:rgb(45.098039%,45.098039%,87.058824%);fill-opacity:1;" d="M 15.117188 128.09375 L 20.785156 128.09375 L 20.785156 125.542969 L 15.117188 125.542969 Z M 15.117188 128.09375 "/>
<path style=" stroke:none;fill-rule:evenodd;fill:rgb(45.098039%,45.098039%,87.058824%);fill-opacity:1;" d="M 24.1875 122.421875 L 29.855469 122.421875 L 29.855469 119.871094 L 24.1875 119.871094 Z M 24.1875 122.421875 "/>
<path style=" stroke:none;fill-rule:evenodd;fill:rgb(45.098039%,45.098039%,87.058824%);fill-opacity:1;" d="M 15.117188 116.753906 L 20.785156 116.753906 L 20.785156 114.203125 L 15.117188 114.203125 Z M 15.117188 116.753906 "/>
<path style=" stroke:none;fill-rule:evenodd;fill:rgb(45.098039%,45.098039%,87.058824%);fill-opacity:1;" d="M 24.1875 111.085938 L 29.855469 111.085938 L 29.855469 108.535156 L 24.1875 108.535156 Z M 24.1875 111.085938 "/>
<path style=" stroke:none;fill-rule:evenodd;fill:rgb(45.098039%,45.098039%,87.058824%);fill-opacity:1;" d="M 15.117188 105.414063 L 20.785156 105.414063 L 20.785156 102.863281 L 15.117188 102.863281 Z M 15.117188 105.414063 "/>
<path style=" stroke:none;fill-rule:evenodd;fill:rgb(45.098039%,45.098039%,87.058824%);fill-opacity:1;" d="M 23.28125 87.8125 L 25.832031 87.8125 L 25.832031 82.144531 L 23.28125 82.144531 Z M 23.28125 87.8125 "/>
<path style=" stroke:none;fill-rule:evenodd;fill:rgb(45.098039%,45.098039%,87.058824%);fill-opacity:1;" d="M 17.613281 96.882813 L 20.164063 96.882813 L 20.164063 91.214844 L 17.613281 91.214844 Z M 17.613281 96.882813 "/>
<path style=" stroke:none;fill-rule:evenodd;fill:rgb(45.098039%,45.098039%,87.058824%);fill-opacity:1;" d="M 11.941406 87.8125 L 14.492188 87.8125 L 14.492188 82.144531 L 11.941406 82.144531 Z M 11.941406 87.8125 "/>
<path style=" stroke:none;fill-rule:evenodd;fill:rgb(45.098039%,45.098039%,87.058824%);fill-opacity:1;" d="M 23.28125 69.8125 L 25.832031 69.8125 L 25.832031 64.144531 L 23.28125 64.144531 Z M 23.28125 69.8125 "/>
<path style=" stroke:none;fill-rule:evenodd;fill:rgb(45.098039%,45.098039%,87.058824%);fill-opacity:1;" d="M 17.613281 78.882813 L 20.164063 78.882813 L 20.164063 73.214844 L 17.613281 73.214844 Z M 17.613281 78.882813 "/>
<path style=" stroke:none;fill-rule:evenodd;fill:rgb(45.098039%,45.098039%,87.058824%);fill-opacity:1;" d="M 11.941406 69.8125 L 14.492188 69.8125 L 14.492188 64.144531 L 11.941406 64.144531 Z M 11.941406 69.8125 "/>
<path style=" stroke:none;fill-rule:evenodd;fill:rgb(45.098039%,45.098039%,87.058824%);fill-opacity:1;" d="M 126.289063 80.15625 L 131.957031 80.15625 L 131.957031 77.605469 L 126.289063 77.605469 Z M 126.289063 80.15625 "/>
<path style=" stroke:none;fill-rule:evenodd;fill:rgb(45.098039%,45.098039%,87.058824%);fill-opacity:1;" d="M 135.363281 85.824219 L 141.03125 85.824219 L 141.03125 83.273438 L 135.363281 83.273438 Z M 135.363281 85.824219 "/>
<path style=" stroke:none;fill-rule:evenodd;fill:rgb(45.098039%,45.098039%,87.058824%);fill-opacity:1;" d="M 126.289063 91.492188 L 131.957031 91.492188 L 131.957031 88.941406 L 126.289063 88.941406 Z M 126.289063 91.492188 "/>
<path style=" stroke:none;fill-rule:evenodd;fill:rgb(45.098039%,45.098039%,87.058824%);fill-opacity:1;" d="M 135.363281 97.164063 L 141.03125 97.164063 L 141.03125 94.613281 L 135.363281 94.613281 Z M 135.363281 97.164063 "/>
<path style=" stroke:none;fill-rule:evenodd;fill:rgb(45.098039%,45.098039%,87.058824%);fill-opacity:1;" d="M 126.289063 102.832031 L 131.957031 102.832031 L 131.957031 100.28125 L 126.289063 100.28125 Z M 126.289063 102.832031 "/>
<path style=" stroke:none;fill-rule:evenodd;fill:rgb(45.098039%,45.098039%,87.058824%);fill-opacity:1;" d="M 135.363281 108.5 L 141.03125 108.5 L 141.03125 105.949219 L 135.363281 105.949219 Z M 135.363281 108.5 "/>
<path style=" stroke:none;fill-rule:evenodd;fill:rgb(45.098039%,45.098039%,87.058824%);fill-opacity:1;" d="M 135.363281 68.632813 L 141.03125 68.632813 L 141.03125 66.082031 L 135.363281 66.082031 Z M 135.363281 68.632813 "/>
<path style=" stroke:none;fill-rule:evenodd;fill:rgb(45.098039%,45.098039%,87.058824%);fill-opacity:1;" d="M 126.289063 62.960938 L 131.957031 62.960938 L 131.957031 60.410156 L 126.289063 60.410156 Z M 126.289063 62.960938 "/>
<path style=" stroke:none;fill-rule:evenodd;fill:rgb(45.098039%,45.098039%,87.058824%);fill-opacity:1;" d="M 135.363281 57.292969 L 141.03125 57.292969 L 141.03125 54.742188 L 135.363281 54.742188 Z M 135.363281 57.292969 "/>
<path style=" stroke:none;fill-rule:evenodd;fill:rgb(45.098039%,45.098039%,87.058824%);fill-opacity:1;" d="M 126.289063 51.625 L 131.957031 51.625 L 131.957031 49.074219 L 126.289063 49.074219 Z M 126.289063 51.625 "/>
<path style=" stroke:none;fill-rule:evenodd;fill:rgb(45.098039%,45.098039%,87.058824%);fill-opacity:1;" d="M 32.691406 15.542969 L 38.359375 15.542969 L 38.359375 12.992188 L 32.691406 12.992188 Z M 32.691406 15.542969 "/>
<path style=" stroke:none;fill-rule:evenodd;fill:rgb(45.098039%,45.098039%,87.058824%);fill-opacity:1;" d="M 41.761719 21.210938 L 47.429688 21.210938 L 47.429688 18.660156 L 41.761719 18.660156 Z M 41.761719 21.210938 "/>
<path style=" stroke:none;fill-rule:evenodd;fill:rgb(45.098039%,45.098039%,87.058824%);fill-opacity:1;" d="M 32.691406 26.882813 L 38.359375 26.882813 L 38.359375 24.332031 L 32.691406 24.332031 Z M 32.691406 26.882813 "/>
<path style=" stroke:none;fill-rule:evenodd;fill:rgb(45.098039%,45.098039%,87.058824%);fill-opacity:1;" d="M 41.761719 32.550781 L 47.429688 32.550781 L 47.429688 30 L 41.761719 30 Z M 41.761719 32.550781 "/>
<path style=" stroke:none;fill-rule:evenodd;fill:rgb(45.098039%,45.098039%,87.058824%);fill-opacity:1;" d="M 50.691406 15.542969 L 56.359375 15.542969 L 56.359375 12.992188 L 50.691406 12.992188 Z M 50.691406 15.542969 "/>
<path style=" stroke:none;fill-rule:evenodd;fill:rgb(45.098039%,45.098039%,87.058824%);fill-opacity:1;" d="M 59.761719 21.210938 L 65.429688 21.210938 L 65.429688 18.660156 L 59.761719 18.660156 Z M 59.761719 21.210938 "/>
<path style=" stroke:none;fill-rule:evenodd;fill:rgb(45.098039%,45.098039%,87.058824%);fill-opacity:1;" d="M 50.691406 26.882813 L 56.359375 26.882813 L 56.359375 24.332031 L 50.691406 24.332031 Z M 50.691406 26.882813 "/>
<path style=" stroke:none;fill-rule:evenodd;fill:rgb(45.098039%,45.098039%,87.058824%);fill-opacity:1;" d="M 59.761719 32.550781 L 65.429688 32.550781 L 65.429688 30 L 59.761719 30 Z M 59.761719 32.550781 "/>
<path style=" stroke:none;fill-rule:evenodd;fill:rgb(45.098039%,45.098039%,87.058824%);fill-opacity:1;" d="M 68.691406 15.542969 L 74.359375 15.542969 L 74.359375 12.992188 L 68.691406 12.992188 Z M 68.691406 15.542969 "/>
<path style=" stroke:none;fill-rule:evenodd;fill:rgb(45.098039%,45.098039%,87.058824%);fill-opacity:1;" d="M 77.761719 21.210938 L 83.429688 21.210938 L 83.429688 18.660156 L 77.761719 18.660156 Z M 77.761719 21.210938 "/>
<path style=" stroke:none;fill-rule:evenodd;fill:rgb(45.098039%,45.098039%,87.058824%);fill-opacity:1;" d="M 68.691406 26.882813 L 74.359375 26.882813 L 74.359375 24.332031 L 68.691406 24.332031 Z M 68.691406 26.882813 "/>
<path style=" stroke:none;fill-rule:evenodd;fill:rgb(45.098039%,45.098039%,87.058824%);fill-opacity:1;" d="M 77.761719 32.550781 L 83.429688 32.550781 L 83.429688 30 L 77.761719 30 Z M 77.761719 32.550781 "/>
<path style=" stroke:none;fill-rule:evenodd;fill:rgb(45.098039%,45.098039%,87.058824%);fill-opacity:1;" d="M 86.691406 15.542969 L 92.359375 15.542969 L 92.359375 12.992188 L 86.691406 12.992188 Z M 86.691406 15.542969 "/>
<path style=" stroke:none;fill-rule:evenodd;fill:rgb(45.098039%,45.098039%,87.058824%);fill-opacity:1;" d="M 95.761719 21.210938 L 101.429688 21.210938 L 101.429688 18.660156 L 95.761719 18.660156 Z M 95.761719 21.210938 "/>
<path style=" stroke:none;fill-rule:evenodd;fill:rgb(45.098039%,45.098039%,87.058824%);fill-opacity:1;" d="M 86.691406 26.882813 L 92.359375 26.882813 L 92.359375 24.332031 L 86.691406 24.332031 Z M 86.691406 26.882813 "/>
<path style=" stroke:none;fill-rule:evenodd;fill:rgb(45.098039%,45.098039%,87.058824%);fill-opacity:1;" d="M 95.761719 32.550781 L 101.429688 32.550781 L 101.429688 30 L 95.761719 30 Z M 95.761719 32.550781 "/>
<path style=" stroke:none;fill-rule:evenodd;fill:rgb(45.098039%,45.098039%,87.058824%);fill-opacity:1;" d="M 126.714844 176.023438 L 129.265625 176.023438 L 129.265625 170.355469 L 126.714844 170.355469 Z M 126.714844 176.023438 "/>
<path style=" stroke:none;fill-rule:evenodd;fill:rgb(45.098039%,45.098039%,87.058824%);fill-opacity:1;" d="M 132.386719 166.953125 L 134.9375 166.953125 L 134.9375 161.285156 L 132.386719 161.285156 Z M 132.386719 166.953125 "/>
<path style=" stroke:none;fill-rule:evenodd;fill:rgb(45.098039%,45.098039%,87.058824%);fill-opacity:1;" d="M 138.054688 176.023438 L 140.605469 176.023438 L 140.605469 170.355469 L 138.054688 170.355469 Z M 138.054688 176.023438 "/>
<path style=" stroke:none;fill-rule:evenodd;fill:rgb(45.098039%,45.098039%,87.058824%);fill-opacity:1;" d="M 126.714844 158.023438 L 129.265625 158.023438 L 129.265625 152.355469 L 126.714844 152.355469 Z M 126.714844 158.023438 "/>
<path style=" stroke:none;fill-rule:evenodd;fill:rgb(45.098039%,45.098039%,87.058824%);fill-opacity:1;" d="M 132.386719 148.953125 L 134.9375 148.953125 L 134.9375 143.285156 L 132.386719 143.285156 Z M 132.386719 148.953125 "/>
<path style=" stroke:none;fill-rule:evenodd;fill:rgb(45.098039%,45.098039%,87.058824%);fill-opacity:1;" d="M 138.054688 158.023438 L 140.605469 158.023438 L 140.605469 152.355469 L 138.054688 152.355469 Z M 138.054688 158.023438 "/>
<path style=" stroke:none;fill-rule:evenodd;fill:rgb(45.098039%,45.098039%,87.058824%);fill-opacity:1;" d="M 126.714844 140.023438 L 129.265625 140.023438 L 129.265625 134.355469 L 126.714844 134.355469 Z M 126.714844 140.023438 "/>
<path style=" stroke:none;fill-rule:evenodd;fill:rgb(45.098039%,45.098039%,87.058824%);fill-opacity:1;" d="M 132.386719 130.953125 L 134.9375 130.953125 L 134.9375 125.285156 L 132.386719 125.285156 Z M 132.386719 130.953125 "/>
<path style=" stroke:none;fill-rule:evenodd;fill:rgb(45.098039%,45.098039%,87.058824%);fill-opacity:1;" d="M 138.054688 140.023438 L 140.605469 140.023438 L 140.605469 134.355469 L 138.054688 134.355469 Z M 138.054688 140.023438 "/>
<path style=" stroke:none;fill-rule:evenodd;fill:rgb(45.098039%,45.098039%,87.058824%);fill-opacity:1;" d="M 32.566406 139.914063 C 32.566406 136.074219 26.808594 136.074219 26.808594 139.914063 C 26.808594 143.753906 32.566406 143.753906 32.566406 139.914063 "/>
<path style=" stroke:none;fill-rule:evenodd;fill:rgb(45.098039%,45.098039%,87.058824%);fill-opacity:1;" d="M 14.207031 140.273438 C 14.207031 136.433594 8.449219 136.433594 8.449219 140.273438 C 8.449219 144.113281 14.207031 144.113281 14.207031 140.273438 "/>
<path style=" stroke:none;fill-rule:evenodd;fill:rgb(45.098039%,45.098039%,87.058824%);fill-opacity:1;" d="M 109.246094 33.714844 C 109.246094 30.832031 104.925781 30.832031 104.925781 33.714844 C 104.925781 36.59375 109.246094 36.59375 109.246094 33.714844 "/>
<path style=" stroke:none;fill-rule:evenodd;fill:rgb(45.098039%,45.098039%,87.058824%);fill-opacity:1;" d="M 109.246094 13.914063 C 109.246094 11.03125 104.925781 11.03125 104.925781 13.914063 C 104.925781 16.792969 109.246094 16.792969 109.246094 13.914063 "/>
<path style=" stroke:none;fill-rule:evenodd;fill:rgb(45.098039%,45.098039%,87.058824%);fill-opacity:1;" d="M 118.96875 78.714844 C 118.96875 74.871094 113.207031 74.871094 113.207031 78.714844 C 113.207031 82.554688 118.96875 82.554688 118.96875 78.714844 "/>
<path style=" stroke:none;fill-rule:evenodd;fill:rgb(45.098039%,45.098039%,87.058824%);fill-opacity:1;" d="M 118.96875 49.914063 C 118.96875 46.074219 113.207031 46.074219 113.207031 49.914063 C 113.207031 53.753906 118.96875 53.753906 118.96875 49.914063 "/>
<path style="fill:none;stroke-width:0.03;stroke-linecap:round;stroke-linejoin:miter;stroke:rgb(45.098039%,45.098039%,87.058824%);stroke-opacity:1;stroke-miterlimit:10;" d="M 1.554982 -2.575016 L 1.476423 -2.575016 " transform="matrix(72,0,0,-72,6.287386,8.512937)"/>
<path style="fill:none;stroke-width:0.03;stroke-linecap:round;stroke-linejoin:miter;stroke:rgb(45.098039%,45.098039%,87.058824%);stroke-opacity:1;stroke-miterlimit:10;" d="M 1.769066 -2.360931 L 1.554982 -2.575016 " transform="matrix(72,0,0,-72,6.287386,8.512937)"/>
<path style="fill:none;stroke-width:0.03;stroke-linecap:round;stroke-linejoin:miter;stroke:rgb(45.098039%,45.098039%,87.058824%);stroke-opacity:1;stroke-miterlimit:10;" d="M 1.769066 -2.16117 L 1.769066 -2.360931 " transform="matrix(72,0,0,-72,6.287386,8.512937)"/>
<path style="fill:none;stroke-width:0.04;stroke-linecap:round;stroke-linejoin:miter;stroke:rgb(45.098039%,45.098039%,87.058824%);stroke-opacity:1;stroke-miterlimit:10;" d="M 1.847842 -2.477197 L 1.803734 -2.52125 " transform="matrix(72,0,0,-72,6.287386,8.512937)"/>
<path style="fill:none;stroke-width:0.04;stroke-linecap:round;stroke-linejoin:miter;stroke:rgb(45.098039%,45.098039%,87.058824%);stroke-opacity:1;stroke-miterlimit:10;" d="M 1.847842 -2.287147 L 1.847842 -2.477197 " transform="matrix(72,0,0,-72,6.287386,8.512937)"/>
<path style="fill:none;stroke-width:0.02;stroke-linecap:round;stroke-linejoin:miter;stroke:rgb(45.098039%,45.098039%,87.058824%);stroke-opacity:1;stroke-miterlimit:10;" d="M 1.847842 -2.037147 L 1.847842 -2.287147 " transform="matrix(72,0,0,-72,6.287386,8.512937)"/>
<path style="fill:none;stroke-width:0.02;stroke-linecap:round;stroke-linejoin:miter;stroke:rgb(45.098039%,45.098039%,87.058824%);stroke-opacity:1;stroke-miterlimit:10;" d="M 1.847842 -1.787147 L 1.847842 -2.037147 " transform="matrix(72,0,0,-72,6.287386,8.512937)"/>
<path style="fill:none;stroke-width:0.04;stroke-linecap:round;stroke-linejoin:miter;stroke:rgb(45.098039%,45.098039%,87.058824%);stroke-opacity:1;stroke-miterlimit:10;" d="M 1.847842 -1.597205 L 1.847842 -1.787147 " transform="matrix(72,0,0,-72,6.287386,8.512937)"/>
<path style="fill:none;stroke-width:0.04;stroke-linecap:round;stroke-linejoin:miter;stroke:rgb(45.098039%,45.098039%,87.058824%);stroke-opacity:1;stroke-miterlimit:10;" d="M 1.850012 -1.594981 L 1.847842 -1.597205 " transform="matrix(72,0,0,-72,6.287386,8.512937)"/>
<path style="fill:none;stroke-width:0.02;stroke-linecap:round;stroke-linejoin:miter;stroke:rgb(45.098039%,45.098039%,87.058824%);stroke-opacity:1;stroke-miterlimit:10;" d="M 1.832055 -1.577077 L 1.850012 -1.594981 " transform="matrix(72,0,0,-72,6.287386,8.512937)"/>
<path style="fill:none;stroke-width:0.04;stroke-linecap:round;stroke-linejoin:miter;stroke:rgb(45.098039%,45.098039%,87.058824%);stroke-opacity:1;stroke-miterlimit:10;" d="M 1.832055 -1.371023 L 1.832055 -1.577077 " transform="matrix(72,0,0,-72,6.287386,8.512937)"/>
<path style="fill:none;stroke-width:0.02;stroke-linecap:round;stroke-linejoin:miter;stroke:rgb(45.098039%,45.098039%,87.058824%);stroke-opacity:1;stroke-miterlimit:10;" d="M 1.769066 -1.91117 L 1.769066 -2.16117 " transform="matrix(72,0,0,-72,6.287386,8.512937)"/>
<path style="fill:none;stroke-width:0.02;stroke-linecap:round;stroke-linejoin:miter;stroke:rgb(45.098039%,45.098039%,87.058824%);stroke-opacity:1;stroke-miterlimit:10;" d="M 1.769066 -1.66117 L 1.769066 -1.91117 " transform="matrix(72,0,0,-72,6.287386,8.512937)"/>
<path style="fill:none;stroke-width:0.02;stroke-linecap:round;stroke-linejoin:miter;stroke:rgb(45.098039%,45.098039%,87.058824%);stroke-opacity:1;stroke-miterlimit:10;" d="M 1.535017 -1.675005 L 1.39998 -1.675005 " transform="matrix(72,0,0,-72,6.287386,8.512937)"/>
<path style="fill:none;stroke-width:0.02;stroke-linecap:round;stroke-linejoin:miter;stroke:rgb(45.098039%,45.098039%,87.058824%);stroke-opacity:1;stroke-miterlimit:10;" d="M 1.579993 -2.064979 L 1.579993 -1.719981 " transform="matrix(72,0,0,-72,6.287386,8.512937)"/>
<path style="fill:none;stroke-width:0.02;stroke-linecap:round;stroke-linejoin:miter;stroke:rgb(45.098039%,45.098039%,87.058824%);stroke-opacity:1;stroke-miterlimit:10;" d="M 1.690344 -2.17533 L 1.579993 -2.064979 " transform="matrix(72,0,0,-72,6.287386,8.512937)"/>
<path style="fill:none;stroke-width:0.02;stroke-linecap:round;stroke-linejoin:miter;stroke:rgb(45.098039%,45.098039%,87.058824%);stroke-opacity:1;stroke-miterlimit:10;" d="M 1.579993 -1.719981 L 1.535017 -1.675005 " transform="matrix(72,0,0,-72,6.287386,8.512937)"/>
<path style="fill:none;stroke-width:0.02;stroke-linecap:round;stroke-linejoin:miter;stroke:rgb(45.098039%,45.098039%,87.058824%);stroke-opacity:1;stroke-miterlimit:10;" d="M 1.690344 -2.287147 L 1.690344 -2.17533 " transform="matrix(72,0,0,-72,6.287386,8.512937)"/>
<path style="fill:none;stroke-width:0.02;stroke-linecap:round;stroke-linejoin:miter;stroke:rgb(45.098039%,45.098039%,87.058824%);stroke-opacity:1;stroke-miterlimit:10;" d="M 1.690344 -1.930322 L 1.690344 -2.037147 " transform="matrix(72,0,0,-72,6.287386,8.512937)"/>
<path style="fill:none;stroke-width:0.02;stroke-linecap:round;stroke-linejoin:miter;stroke:rgb(45.098039%,45.098039%,87.058824%);stroke-opacity:1;stroke-miterlimit:10;" d="M 1.625023 -1.865 L 1.690344 -1.930322 " transform="matrix(72,0,0,-72,6.287386,8.512937)"/>
<path style="fill:none;stroke-width:0.02;stroke-linecap:round;stroke-linejoin:miter;stroke:rgb(45.098039%,45.098039%,87.058824%);stroke-opacity:1;stroke-miterlimit:10;" d="M 1.575002 -1.575016 L 1.625023 -1.624983 " transform="matrix(72,0,0,-72,6.287386,8.512937)"/>
<path style="fill:none;stroke-width:0.02;stroke-linecap:round;stroke-linejoin:miter;stroke:rgb(45.098039%,45.098039%,87.058824%);stroke-opacity:1;stroke-miterlimit:10;" d="M 1.39998 -1.575016 L 1.575002 -1.575016 " transform="matrix(72,0,0,-72,6.287386,8.512937)"/>
<path style="fill:none;stroke-width:0.02;stroke-linecap:round;stroke-linejoin:miter;stroke:rgb(45.098039%,45.098039%,87.058824%);stroke-opacity:1;stroke-miterlimit:10;" d="M 1.625023 -1.624983 L 1.625023 -1.865 " transform="matrix(72,0,0,-72,6.287386,8.512937)"/>
<path style="fill:none;stroke-width:0.02;stroke-linecap:round;stroke-linejoin:miter;stroke:rgb(45.098039%,45.098039%,87.058824%);stroke-opacity:1;stroke-miterlimit:10;" d="M 1.690344 -1.585324 L 1.690344 -1.787147 " transform="matrix(72,0,0,-72,6.287386,8.512937)"/>
<path style="fill:none;stroke-width:0.02;stroke-linecap:round;stroke-linejoin:miter;stroke:rgb(45.098039%,45.098039%,87.058824%);stroke-opacity:1;stroke-miterlimit:10;" d="M 1.579993 -1.475026 L 1.690344 -1.585324 " transform="matrix(72,0,0,-72,6.287386,8.512937)"/>
<path style="fill:none;stroke-width:0.02;stroke-linecap:round;stroke-linejoin:miter;stroke:rgb(45.098039%,45.098039%,87.058824%);stroke-opacity:1;stroke-miterlimit:10;" d="M 1.39998 -1.475026 L 1.579993 -1.475026 " transform="matrix(72,0,0,-72,6.287386,8.512937)"/>
<path style="fill:none;stroke-width:0.02;stroke-linecap:round;stroke-linejoin:miter;stroke:rgb(45.098039%,45.098039%,87.058824%);stroke-opacity:1;stroke-miterlimit:10;" d="M 1.769066 -1.470903 L 1.769066 -1.66117 " transform="matrix(72,0,0,-72,6.287386,8.512937)"/>
<path style="fill:none;stroke-width:0.02;stroke-linecap:round;stroke-linejoin:miter;stroke:rgb(45.098039%,45.098039%,87.058824%);stroke-opacity:1;stroke-miterlimit:10;" d="M 1.769989 -1.469981 L 1.769066 -1.470903 " transform="matrix(72,0,0,-72,6.287386,8.512937)"/>
<path style="fill:none;stroke-width:0.02;stroke-linecap:round;stroke-linejoin:miter;stroke:rgb(45.098039%,45.098039%,87.058824%);stroke-opacity:1;stroke-miterlimit:10;" d="M 1.706078 -1.40607 L 1.769989 -1.469981 " transform="matrix(72,0,0,-72,6.287386,8.512937)"/>
<path style="fill:none;stroke-width:0.02;stroke-linecap:round;stroke-linejoin:miter;stroke:rgb(45.098039%,45.098039%,87.058824%);stroke-opacity:1;stroke-miterlimit:10;" d="M 1.706078 -1.292247 L 1.706078 -1.40607 " transform="matrix(72,0,0,-72,6.287386,8.512937)"/>
<path style="fill:none;stroke-width:0.02;stroke-linecap:round;stroke-linejoin:miter;stroke:rgb(45.098039%,45.098039%,87.058824%);stroke-opacity:1;stroke-miterlimit:10;" d="M 1.584984 -1.374983 L 1.39998 -1.374983 " transform="matrix(72,0,0,-72,6.287386,8.512937)"/>
<path style="fill:none;stroke-width:0.02;stroke-linecap:round;stroke-linejoin:miter;stroke:rgb(45.098039%,45.098039%,87.058824%);stroke-opacity:1;stroke-miterlimit:10;" d="M 1.584984 -1.296207 L 1.584984 -1.374983 " transform="matrix(72,0,0,-72,6.287386,8.512937)"/>
<path style="fill:none;stroke-width:0.02;stroke-linecap:round;stroke-linejoin:miter;stroke:rgb(45.098039%,45.098039%,87.058824%);stroke-opacity:1;stroke-miterlimit:10;" d="M 1.667667 -1.213525 L 1.584984 -1.296207 " transform="matrix(72,0,0,-72,6.287386,8.512937)"/>
<path style="fill:none;stroke-width:0.02;stroke-linecap:round;stroke-linejoin:miter;stroke:rgb(45.098039%,45.098039%,87.058824%);stroke-opacity:1;stroke-miterlimit:10;" d="M 1.832055 -1.213525 L 1.667667 -1.213525 " transform="matrix(72,0,0,-72,6.287386,8.512937)"/>
<path style="fill:none;stroke-width:0.02;stroke-linecap:round;stroke-linejoin:miter;stroke:rgb(45.098039%,45.098039%,87.058824%);stroke-opacity:1;stroke-miterlimit:10;" d="M 1.635223 -1.134803 L 1.706078 -1.134803 " transform="matrix(72,0,0,-72,6.287386,8.512937)"/>
<path style="fill:none;stroke-width:0.02;stroke-linecap:round;stroke-linejoin:miter;stroke:rgb(45.098039%,45.098039%,87.058824%);stroke-opacity:1;stroke-miterlimit:10;" d="M 1.494978 -1.274994 L 1.635223 -1.134803 " transform="matrix(72,0,0,-72,6.287386,8.512937)"/>
<path style="fill:none;stroke-width:0.02;stroke-linecap:round;stroke-linejoin:miter;stroke:rgb(45.098039%,45.098039%,87.058824%);stroke-opacity:1;stroke-miterlimit:10;" d="M 1.39998 -1.274994 L 1.494978 -1.274994 " transform="matrix(72,0,0,-72,6.287386,8.512937)"/>
<path style="fill:none;stroke-width:0.02;stroke-linecap:round;stroke-linejoin:miter;stroke:rgb(45.098039%,45.098039%,87.058824%);stroke-opacity:1;stroke-miterlimit:10;" d="M 1.39998 -1.175005 L 1.505449 -1.175005 " transform="matrix(72,0,0,-72,6.287386,8.512937)"/>
<path style="fill:none;stroke-width:0.02;stroke-linecap:round;stroke-linejoin:miter;stroke:rgb(45.098039%,45.098039%,87.058824%);stroke-opacity:1;stroke-miterlimit:10;" d="M 1.39998 -0.575016 L 1.52498 -0.575016 " transform="matrix(72,0,0,-72,6.287386,8.512937)"/>
<path style="fill:none;stroke-width:0.02;stroke-linecap:round;stroke-linejoin:miter;stroke:rgb(45.098039%,45.098039%,87.058824%);stroke-opacity:1;stroke-miterlimit:10;" d="M 1.578148 -0.978173 L 1.662024 -0.978173 " transform="matrix(72,0,0,-72,6.287386,8.512937)"/>
<path style="fill:none;stroke-width:0.02;stroke-linecap:round;stroke-linejoin:miter;stroke:rgb(45.098039%,45.098039%,87.058824%);stroke-opacity:1;stroke-miterlimit:10;" d="M 1.52498 -0.975026 L 1.578148 -0.978173 " transform="matrix(72,0,0,-72,6.287386,8.512937)"/>
<path style="fill:none;stroke-width:0.035;stroke-linecap:round;stroke-linejoin:miter;stroke:rgb(45.098039%,45.098039%,87.058824%);stroke-opacity:1;stroke-miterlimit:10;" d="M 0.674991 -1.774994 L 0.500023 -1.774994 " transform="matrix(72,0,0,-72,6.287386,8.512937)"/>
<path style="fill:none;stroke-width:0.035;stroke-linecap:round;stroke-linejoin:miter;stroke:rgb(45.098039%,45.098039%,87.058824%);stroke-opacity:1;stroke-miterlimit:10;" d="M 1.200002 -1.075016 L 0.674991 -1.774994 " transform="matrix(72,0,0,-72,6.287386,8.512937)"/>
<path style="fill:none;stroke-width:0.035;stroke-linecap:round;stroke-linejoin:miter;stroke:rgb(45.098039%,45.098039%,87.058824%);stroke-opacity:1;stroke-miterlimit:10;" d="M 1.39998 -1.075016 L 1.200002 -1.075016 " transform="matrix(72,0,0,-72,6.287386,8.512937)"/>
<path style="fill:none;stroke-width:0.04;stroke-linecap:round;stroke-linejoin:miter;stroke:rgb(45.098039%,45.098039%,87.058824%);stroke-opacity:1;stroke-miterlimit:10;" d="M 0.174991 -0.225026 L 0.174991 -0.689924 " transform="matrix(72,0,0,-72,6.287386,8.512937)"/>
<path style="fill:none;stroke-width:0.04;stroke-linecap:round;stroke-linejoin:miter;stroke:rgb(45.098039%,45.098039%,87.058824%);stroke-opacity:1;stroke-miterlimit:10;" d="M 0.532087 -0.158674 L 0.241343 -0.158674 " transform="matrix(72,0,0,-72,6.287386,8.512937)"/>
<path style="fill:none;stroke-width:0.04;stroke-linecap:round;stroke-linejoin:miter;stroke:rgb(45.098039%,45.098039%,87.058824%);stroke-opacity:1;stroke-miterlimit:10;" d="M 0.241343 -0.158674 L 0.174991 -0.225026 " transform="matrix(72,0,0,-72,6.287386,8.512937)"/>
<path style="fill:none;stroke-width:0.04;stroke-linecap:round;stroke-linejoin:miter;stroke:rgb(45.098039%,45.098039%,87.058824%);stroke-opacity:1;stroke-miterlimit:10;" d="M 0.0962689 -0.153737 L 0.0962689 -0.811995 " transform="matrix(72,0,0,-72,6.287386,8.512937)"/>
<path style="fill:none;stroke-width:0.04;stroke-linecap:round;stroke-linejoin:miter;stroke:rgb(45.098039%,45.098039%,87.058824%);stroke-opacity:1;stroke-miterlimit:10;" d="M 0.170054 -0.0798984 L 0.0962689 -0.153737 " transform="matrix(72,0,0,-72,6.287386,8.512937)"/>
<path style="fill:none;stroke-width:0.04;stroke-linecap:round;stroke-linejoin:miter;stroke:rgb(45.098039%,45.098039%,87.058824%);stroke-opacity:1;stroke-miterlimit:10;" d="M 0.406111 -0.0798984 L 0.170054 -0.0798984 " transform="matrix(72,0,0,-72,6.287386,8.512937)"/>
<path style="fill:none;stroke-width:0.04;stroke-linecap:round;stroke-linejoin:miter;stroke:rgb(45.098039%,45.098039%,87.058824%);stroke-opacity:1;stroke-miterlimit:10;" d="M 1.600012 -2.725026 L 1.803734 -2.52125 " transform="matrix(72,0,0,-72,6.287386,8.512937)"/>
<path style="fill:none;stroke-width:0.04;stroke-linecap:round;stroke-linejoin:miter;stroke:rgb(45.098039%,45.098039%,87.058824%);stroke-opacity:1;stroke-miterlimit:10;" d="M 0.174991 -2.725026 L 1.600012 -2.725026 " transform="matrix(72,0,0,-72,6.287386,8.512937)"/>
<path style="fill:none;stroke-width:0.04;stroke-linecap:round;stroke-linejoin:miter;stroke:rgb(45.098039%,45.098039%,87.058824%);stroke-opacity:1;stroke-miterlimit:10;" d="M 0.0962689 -2.64625 L 0.174991 -2.725026 " transform="matrix(72,0,0,-72,6.287386,8.512937)"/>
<path style="fill:none;stroke-width:0.02;stroke-linecap:round;stroke-linejoin:miter;stroke:rgb(45.098039%,45.098039%,87.058824%);stroke-opacity:1;stroke-miterlimit:10;" d="M 0.0962689 -2.600026 L 0.0962689 -2.64625 " transform="matrix(72,0,0,-72,6.287386,8.512937)"/>
<path style="fill:none;stroke-width:0.02;stroke-linecap:round;stroke-linejoin:miter;stroke:rgb(45.098039%,45.098039%,87.058824%);stroke-opacity:1;stroke-miterlimit:10;" d="M 0.0962689 -1.928748 L 0.0962689 -2.100026 " transform="matrix(72,0,0,-72,6.287386,8.512937)"/>
<path style="fill:none;stroke-width:0.02;stroke-linecap:round;stroke-linejoin:miter;stroke:rgb(45.098039%,45.098039%,87.058824%);stroke-opacity:1;stroke-miterlimit:10;" d="M 0.100012 -1.925005 L 0.0962689 -1.928748 " transform="matrix(72,0,0,-72,6.287386,8.512937)"/>
<path style="fill:none;stroke-width:0.02;stroke-linecap:round;stroke-linejoin:miter;stroke:rgb(45.098039%,45.098039%,87.058824%);stroke-opacity:1;stroke-miterlimit:10;" d="M 0.0499907 -1.874983 L 0.100012 -1.925005 " transform="matrix(72,0,0,-72,6.287386,8.512937)"/>
<path style="fill:none;stroke-width:0.02;stroke-linecap:round;stroke-linejoin:miter;stroke:rgb(45.098039%,45.098039%,87.058824%);stroke-opacity:1;stroke-miterlimit:10;" d="M 0.0499907 -1.825016 L 0.0499907 -1.874983 " transform="matrix(72,0,0,-72,6.287386,8.512937)"/>
<path style="fill:none;stroke-width:0.02;stroke-linecap:round;stroke-linejoin:miter;stroke:rgb(45.098039%,45.098039%,87.058824%);stroke-opacity:1;stroke-miterlimit:10;" d="M 0.0499907 -1.423865 L 0.0499907 -1.825016 " transform="matrix(72,0,0,-72,6.287386,8.512937)"/>
<path style="fill:none;stroke-width:0.02;stroke-linecap:round;stroke-linejoin:miter;stroke:rgb(45.098039%,45.098039%,87.058824%);stroke-opacity:1;stroke-miterlimit:10;" d="M 0.100012 -1.700016 L 0.174991 -1.973996 " transform="matrix(72,0,0,-72,6.287386,8.512937)"/>
<path style="fill:none;stroke-width:0.02;stroke-linecap:round;stroke-linejoin:miter;stroke:rgb(45.098039%,45.098039%,87.058824%);stroke-opacity:1;stroke-miterlimit:10;" d="M 0.0925797 -1.675005 L 0.100012 -1.700016 " transform="matrix(72,0,0,-72,6.287386,8.512937)"/>
<path style="fill:none;stroke-width:0.02;stroke-linecap:round;stroke-linejoin:miter;stroke:rgb(45.098039%,45.098039%,87.058824%);stroke-opacity:1;stroke-miterlimit:10;" d="M 0.0925797 -1.437863 L 0.0925797 -1.675005 " transform="matrix(72,0,0,-72,6.287386,8.512937)"/>
<path style="fill:none;stroke-width:0.02;stroke-linecap:round;stroke-linejoin:miter;stroke:rgb(45.098039%,45.098039%,87.058824%);stroke-opacity:1;stroke-miterlimit:10;" d="M 0.123558 -1.406884 L 0.0925797 -1.437863 " transform="matrix(72,0,0,-72,6.287386,8.512937)"/>
<path style="fill:none;stroke-width:0.02;stroke-linecap:round;stroke-linejoin:miter;stroke:rgb(45.098039%,45.098039%,87.058824%);stroke-opacity:1;stroke-miterlimit:10;" d="M 0.288001 -1.406884 L 0.123558 -1.406884 " transform="matrix(72,0,0,-72,6.287386,8.512937)"/>
<path style="fill:none;stroke-width:0.02;stroke-linecap:round;stroke-linejoin:miter;stroke:rgb(45.098039%,45.098039%,87.058824%);stroke-opacity:1;stroke-miterlimit:10;" d="M 0.489986 -1.88502 L 0.500023 -1.874983 " transform="matrix(72,0,0,-72,6.287386,8.512937)"/>
<path style="fill:none;stroke-width:0.02;stroke-linecap:round;stroke-linejoin:miter;stroke:rgb(45.098039%,45.098039%,87.058824%);stroke-opacity:1;stroke-miterlimit:10;" d="M 0.235049 -1.88502 L 0.489986 -1.88502 " transform="matrix(72,0,0,-72,6.287386,8.512937)"/>
<path style="fill:none;stroke-width:0.02;stroke-linecap:round;stroke-linejoin:miter;stroke:rgb(45.098039%,45.098039%,87.058824%);stroke-opacity:1;stroke-miterlimit:10;" d="M 0.225012 -1.874983 L 0.235049 -1.88502 " transform="matrix(72,0,0,-72,6.287386,8.512937)"/>
<path style="fill:none;stroke-width:0.02;stroke-linecap:round;stroke-linejoin:miter;stroke:rgb(45.098039%,45.098039%,87.058824%);stroke-opacity:1;stroke-miterlimit:10;" d="M 0.225012 -1.825016 L 0.225012 -1.874983 " transform="matrix(72,0,0,-72,6.287386,8.512937)"/>
<path style="fill:none;stroke-width:0.02;stroke-linecap:round;stroke-linejoin:miter;stroke:rgb(45.098039%,45.098039%,87.058824%);stroke-opacity:1;stroke-miterlimit:10;" d="M 0.288001 -1.721826 L 0.288001 -1.762027 " transform="matrix(72,0,0,-72,6.287386,8.512937)"/>
<path style="fill:none;stroke-width:0.02;stroke-linecap:round;stroke-linejoin:miter;stroke:rgb(45.098039%,45.098039%,87.058824%);stroke-opacity:1;stroke-miterlimit:10;" d="M 0.288001 -1.762027 L 0.225012 -1.825016 " transform="matrix(72,0,0,-72,6.287386,8.512937)"/>
<path style="fill:none;stroke-width:0.02;stroke-linecap:round;stroke-linejoin:miter;stroke:rgb(45.098039%,45.098039%,87.058824%);stroke-opacity:1;stroke-miterlimit:10;" d="M 0.450002 -1.825016 L 0.500023 -1.774994 " transform="matrix(72,0,0,-72,6.287386,8.512937)"/>
<path style="fill:none;stroke-width:0.02;stroke-linecap:round;stroke-linejoin:miter;stroke:rgb(45.098039%,45.098039%,87.058824%);stroke-opacity:1;stroke-miterlimit:10;" d="M 0.325002 -1.825016 L 0.450002 -1.825016 " transform="matrix(72,0,0,-72,6.287386,8.512937)"/>
<path style="fill:none;stroke-width:0.02;stroke-linecap:round;stroke-linejoin:miter;stroke:rgb(45.098039%,45.098039%,87.058824%);stroke-opacity:1;stroke-miterlimit:10;" d="M 1.39998 -0.350026 L 1.39998 -0.475026 " transform="matrix(72,0,0,-72,6.287386,8.512937)"/>
<path style="fill:none;stroke-width:0.02;stroke-linecap:round;stroke-linejoin:miter;stroke:rgb(45.098039%,45.098039%,87.058824%);stroke-opacity:1;stroke-miterlimit:10;" d="M 1.395097 -0.0798984 L 1.39998 -0.0750156 " transform="matrix(72,0,0,-72,6.287386,8.512937)"/>
<path style="fill:none;stroke-width:0.02;stroke-linecap:round;stroke-linejoin:miter;stroke:rgb(45.098039%,45.098039%,87.058824%);stroke-opacity:1;stroke-miterlimit:10;" d="M 1.156111 -0.0798984 L 1.395097 -0.0798984 " transform="matrix(72,0,0,-72,6.287386,8.512937)"/>
<path style="fill:none;stroke-width:0.03;stroke-linecap:round;stroke-linejoin:miter;stroke:rgb(45.098039%,45.098039%,87.058824%);stroke-opacity:1;stroke-miterlimit:10;" d="M 0.475012 -2.575016 L 1.476423 -2.575016 " transform="matrix(72,0,0,-72,6.287386,8.512937)"/>
<path style="fill:none;stroke-width:0.03;stroke-linecap:round;stroke-linejoin:miter;stroke:rgb(45.098039%,45.098039%,87.058824%);stroke-opacity:1;stroke-miterlimit:10;" d="M 0.375023 -2.675005 L 0.475012 -2.575016 " transform="matrix(72,0,0,-72,6.287386,8.512937)"/>
<path style="fill:none;stroke-width:0.03;stroke-linecap:round;stroke-linejoin:miter;stroke:rgb(45.098039%,45.098039%,87.058824%);stroke-opacity:1;stroke-miterlimit:10;" d="M 0.211558 -2.675005 L 0.375023 -2.675005 " transform="matrix(72,0,0,-72,6.287386,8.512937)"/>
<path style="fill:none;stroke-width:0.03;stroke-linecap:round;stroke-linejoin:miter;stroke:rgb(45.098039%,45.098039%,87.058824%);stroke-opacity:1;stroke-miterlimit:10;" d="M 0.174991 -2.638438 L 0.211558 -2.675005 " transform="matrix(72,0,0,-72,6.287386,8.512937)"/>
<path style="fill:none;stroke-width:0.04;stroke-linecap:round;stroke-linejoin:miter;stroke:rgb(45.098039%,45.098039%,87.058824%);stroke-opacity:1;stroke-miterlimit:10;" d="M 0.174991 -2.473996 L 0.174991 -2.638438 " transform="matrix(72,0,0,-72,6.287386,8.512937)"/>
<path style="fill:none;stroke-width:0.02;stroke-linecap:round;stroke-linejoin:miter;stroke:rgb(45.098039%,45.098039%,87.058824%);stroke-opacity:1;stroke-miterlimit:10;" d="M 0.375023 -2.455061 L 0.658172 -2.455061 " transform="matrix(72,0,0,-72,6.287386,8.512937)"/>
<path style="fill:none;stroke-width:0.02;stroke-linecap:round;stroke-linejoin:miter;stroke:rgb(45.098039%,45.098039%,87.058824%);stroke-opacity:1;stroke-miterlimit:10;" d="M 0.805091 -2.308143 L 0.805091 -2.100026 " transform="matrix(72,0,0,-72,6.287386,8.512937)"/>
<path style="fill:none;stroke-width:0.02;stroke-linecap:round;stroke-linejoin:miter;stroke:rgb(45.098039%,45.098039%,87.058824%);stroke-opacity:1;stroke-miterlimit:10;" d="M 0.658172 -2.455061 L 0.805091 -2.308143 " transform="matrix(72,0,0,-72,6.287386,8.512937)"/>
<path style="fill:none;stroke-width:0.02;stroke-linecap:round;stroke-linejoin:miter;stroke:rgb(45.098039%,45.098039%,87.058824%);stroke-opacity:1;stroke-miterlimit:10;" d="M 0.375023 -2.478716 L 0.375023 -2.455061 " transform="matrix(72,0,0,-72,6.287386,8.512937)"/>
<path style="fill:none;stroke-width:0.02;stroke-linecap:round;stroke-linejoin:miter;stroke:rgb(45.098039%,45.098039%,87.058824%);stroke-opacity:1;stroke-miterlimit:10;" d="M 0.930091 -1.975026 L 1.39998 -1.975026 " transform="matrix(72,0,0,-72,6.287386,8.512937)"/>
<path style="fill:none;stroke-width:0.02;stroke-linecap:round;stroke-linejoin:miter;stroke:rgb(45.098039%,45.098039%,87.058824%);stroke-opacity:1;stroke-miterlimit:10;" d="M 0.253767 -2.600026 L 0.375023 -2.478716 " transform="matrix(72,0,0,-72,6.287386,8.512937)"/>
<path style="fill:none;stroke-width:0.02;stroke-linecap:round;stroke-linejoin:miter;stroke:rgb(45.098039%,45.098039%,87.058824%);stroke-opacity:1;stroke-miterlimit:10;" d="M 0.805091 -2.100026 L 0.930091 -1.975026 " transform="matrix(72,0,0,-72,6.287386,8.512937)"/>
<path style="fill:none;stroke-width:0.02;stroke-linecap:round;stroke-linejoin:miter;stroke:rgb(45.098039%,45.098039%,87.058824%);stroke-opacity:1;stroke-miterlimit:10;" d="M 0.765051 -1.874983 L 1.39998 -1.874983 " transform="matrix(72,0,0,-72,6.287386,8.512937)"/>
<path style="fill:none;stroke-width:0.02;stroke-linecap:round;stroke-linejoin:miter;stroke:rgb(45.098039%,45.098039%,87.058824%);stroke-opacity:1;stroke-miterlimit:10;" d="M 0.765051 -2.291595 L 0.765051 -1.874983 " transform="matrix(72,0,0,-72,6.287386,8.512937)"/>
<path style="fill:none;stroke-width:0.02;stroke-linecap:round;stroke-linejoin:miter;stroke:rgb(45.098039%,45.098039%,87.058824%);stroke-opacity:1;stroke-miterlimit:10;" d="M 0.641571 -2.415022 L 0.765051 -2.291595 " transform="matrix(72,0,0,-72,6.287386,8.512937)"/>
<path style="fill:none;stroke-width:0.02;stroke-linecap:round;stroke-linejoin:miter;stroke:rgb(45.098039%,45.098039%,87.058824%);stroke-opacity:1;stroke-miterlimit:10;" d="M 0.318762 -2.415022 L 0.641571 -2.415022 " transform="matrix(72,0,0,-72,6.287386,8.512937)"/>
<path style="fill:none;stroke-width:0.02;stroke-linecap:round;stroke-linejoin:miter;stroke:rgb(45.098039%,45.098039%,87.058824%);stroke-opacity:1;stroke-miterlimit:10;" d="M 0.253767 -2.350026 L 0.318762 -2.415022 " transform="matrix(72,0,0,-72,6.287386,8.512937)"/>
<path style="fill:none;stroke-width:0.02;stroke-linecap:round;stroke-linejoin:miter;stroke:rgb(45.098039%,45.098039%,87.058824%);stroke-opacity:1;stroke-miterlimit:10;" d="M 0.725012 -2.274994 L 0.725012 -1.825016 " transform="matrix(72,0,0,-72,6.287386,8.512937)"/>
<path style="fill:none;stroke-width:0.02;stroke-linecap:round;stroke-linejoin:miter;stroke:rgb(45.098039%,45.098039%,87.058824%);stroke-opacity:1;stroke-miterlimit:10;" d="M 0.450002 -2.374983 L 0.625023 -2.374983 " transform="matrix(72,0,0,-72,6.287386,8.512937)"/>
<path style="fill:none;stroke-width:0.02;stroke-linecap:round;stroke-linejoin:miter;stroke:rgb(45.098039%,45.098039%,87.058824%);stroke-opacity:1;stroke-miterlimit:10;" d="M 0.253767 -2.178748 L 0.450002 -2.374983 " transform="matrix(72,0,0,-72,6.287386,8.512937)"/>
<path style="fill:none;stroke-width:0.02;stroke-linecap:round;stroke-linejoin:miter;stroke:rgb(45.098039%,45.098039%,87.058824%);stroke-opacity:1;stroke-miterlimit:10;" d="M 0.725012 -1.825016 L 0.77498 -1.774994 " transform="matrix(72,0,0,-72,6.287386,8.512937)"/>
<path style="fill:none;stroke-width:0.02;stroke-linecap:round;stroke-linejoin:miter;stroke:rgb(45.098039%,45.098039%,87.058824%);stroke-opacity:1;stroke-miterlimit:10;" d="M 0.253767 -2.100026 L 0.253767 -2.178748 " transform="matrix(72,0,0,-72,6.287386,8.512937)"/>
<path style="fill:none;stroke-width:0.02;stroke-linecap:round;stroke-linejoin:miter;stroke:rgb(45.098039%,45.098039%,87.058824%);stroke-opacity:1;stroke-miterlimit:10;" d="M 0.625023 -2.374983 L 0.725012 -2.274994 " transform="matrix(72,0,0,-72,6.287386,8.512937)"/>
<path style="fill:none;stroke-width:0.02;stroke-linecap:round;stroke-linejoin:miter;stroke:rgb(45.098039%,45.098039%,87.058824%);stroke-opacity:1;stroke-miterlimit:10;" d="M 0.77498 -1.774994 L 1.39998 -1.774994 " transform="matrix(72,0,0,-72,6.287386,8.512937)"/>
<path style="fill:none;stroke-width:0.02;stroke-linecap:round;stroke-linejoin:miter;stroke:rgb(45.098039%,45.098039%,87.058824%);stroke-opacity:1;stroke-miterlimit:10;" d="M 1.788001 -1.056895 L 1.623558 -1.056895 " transform="matrix(72,0,0,-72,6.287386,8.512937)"/>
<path style="fill:none;stroke-width:0.02;stroke-linecap:round;stroke-linejoin:miter;stroke:rgb(45.098039%,45.098039%,87.058824%);stroke-opacity:1;stroke-miterlimit:10;" d="M 1.623558 -1.056895 L 1.505449 -1.175005 " transform="matrix(72,0,0,-72,6.287386,8.512937)"/>
<path style="fill:none;stroke-width:0.02;stroke-linecap:round;stroke-linejoin:miter;stroke:rgb(45.098039%,45.098039%,87.058824%);stroke-opacity:1;stroke-miterlimit:10;" d="M 0.0962689 -2.350026 L 0.0962689 -2.600026 " transform="matrix(72,0,0,-72,6.287386,8.512937)"/>
<path style="fill:none;stroke-width:0.02;stroke-linecap:round;stroke-linejoin:miter;stroke:rgb(45.098039%,45.098039%,87.058824%);stroke-opacity:1;stroke-miterlimit:10;" d="M 0.0962689 -2.100026 L 0.0962689 -2.350026 " transform="matrix(72,0,0,-72,6.287386,8.512937)"/>
<path style="fill:none;stroke-width:0.02;stroke-linecap:round;stroke-linejoin:miter;stroke:rgb(45.098039%,45.098039%,87.058824%);stroke-opacity:1;stroke-miterlimit:10;" d="M 0.145694 -1.328162 L 0.0499907 -1.423865 " transform="matrix(72,0,0,-72,6.287386,8.512937)"/>
<path style="fill:none;stroke-width:0.02;stroke-linecap:round;stroke-linejoin:miter;stroke:rgb(45.098039%,45.098039%,87.058824%);stroke-opacity:1;stroke-miterlimit:10;" d="M 0.162024 -1.328162 L 0.145694 -1.328162 " transform="matrix(72,0,0,-72,6.287386,8.512937)"/>
<path style="fill:none;stroke-width:0.02;stroke-linecap:round;stroke-linejoin:miter;stroke:rgb(45.098039%,45.098039%,87.058824%);stroke-opacity:1;stroke-miterlimit:10;" d="M 0.174991 -2.223996 L 0.174991 -2.473996 " transform="matrix(72,0,0,-72,6.287386,8.512937)"/>
<path style="fill:none;stroke-width:0.02;stroke-linecap:round;stroke-linejoin:miter;stroke:rgb(45.098039%,45.098039%,87.058824%);stroke-opacity:1;stroke-miterlimit:10;" d="M 0.174991 -1.973996 L 0.174991 -2.223996 " transform="matrix(72,0,0,-72,6.287386,8.512937)"/>
<path style="fill:none;stroke-width:0.02;stroke-linecap:round;stroke-linejoin:miter;stroke:rgb(45.098039%,45.098039%,87.058824%);stroke-opacity:1;stroke-miterlimit:10;" d="M 0.468122 -1.643104 L 0.500023 -1.675005 " transform="matrix(72,0,0,-72,6.287386,8.512937)"/>
<path style="fill:none;stroke-width:0.02;stroke-linecap:round;stroke-linejoin:miter;stroke:rgb(45.098039%,45.098039%,87.058824%);stroke-opacity:1;stroke-miterlimit:10;" d="M 0.162024 -1.643104 L 0.468122 -1.643104 " transform="matrix(72,0,0,-72,6.287386,8.512937)"/>
<path style="fill:none;stroke-width:0.02;stroke-linecap:round;stroke-linejoin:miter;stroke:rgb(45.098039%,45.098039%,87.058824%);stroke-opacity:1;stroke-miterlimit:10;" d="M 0.48939 -1.564382 L 0.500023 -1.575016 " transform="matrix(72,0,0,-72,6.287386,8.512937)"/>
<path style="fill:none;stroke-width:0.02;stroke-linecap:round;stroke-linejoin:miter;stroke:rgb(45.098039%,45.098039%,87.058824%);stroke-opacity:1;stroke-miterlimit:10;" d="M 0.288001 -1.564382 L 0.48939 -1.564382 " transform="matrix(72,0,0,-72,6.287386,8.512937)"/>
<path style="fill:none;stroke-width:0.02;stroke-linecap:round;stroke-linejoin:miter;stroke:rgb(45.098039%,45.098039%,87.058824%);stroke-opacity:1;stroke-miterlimit:10;" d="M 0.48939 -1.485606 L 0.500023 -1.475026 " transform="matrix(72,0,0,-72,6.287386,8.512937)"/>
<path style="fill:none;stroke-width:0.02;stroke-linecap:round;stroke-linejoin:miter;stroke:rgb(45.098039%,45.098039%,87.058824%);stroke-opacity:1;stroke-miterlimit:10;" d="M 0.162024 -1.485606 L 0.48939 -1.485606 " transform="matrix(72,0,0,-72,6.287386,8.512937)"/>
<path style="fill:none;stroke-width:0.02;stroke-linecap:round;stroke-linejoin:miter;stroke:rgb(45.098039%,45.098039%,87.058824%);stroke-opacity:1;stroke-miterlimit:10;" d="M 0.174991 -1.209673 L 0.288001 -1.322628 " transform="matrix(72,0,0,-72,6.287386,8.512937)"/>
<path style="fill:none;stroke-width:0.02;stroke-linecap:round;stroke-linejoin:miter;stroke:rgb(45.098039%,45.098039%,87.058824%);stroke-opacity:1;stroke-miterlimit:10;" d="M 0.288001 -1.322628 L 0.288001 -1.406884 " transform="matrix(72,0,0,-72,6.287386,8.512937)"/>
<path style="fill:none;stroke-width:0.02;stroke-linecap:round;stroke-linejoin:miter;stroke:rgb(45.098039%,45.098039%,87.058824%);stroke-opacity:1;stroke-miterlimit:10;" d="M 0.174991 -1.187971 L 0.174991 -1.209673 " transform="matrix(72,0,0,-72,6.287386,8.512937)"/>
<path style="fill:none;stroke-width:0.02;stroke-linecap:round;stroke-linejoin:miter;stroke:rgb(45.098039%,45.098039%,87.058824%);stroke-opacity:1;stroke-miterlimit:10;" d="M 0.174991 -0.937971 L 0.174991 -1.187971 " transform="matrix(72,0,0,-72,6.287386,8.512937)"/>
<path style="fill:none;stroke-width:0.02;stroke-linecap:round;stroke-linejoin:miter;stroke:rgb(45.098039%,45.098039%,87.058824%);stroke-opacity:1;stroke-miterlimit:10;" d="M 0.418372 -1.374983 L 0.500023 -1.374983 " transform="matrix(72,0,0,-72,6.287386,8.512937)"/>
<path style="fill:none;stroke-width:0.02;stroke-linecap:round;stroke-linejoin:miter;stroke:rgb(45.098039%,45.098039%,87.058824%);stroke-opacity:1;stroke-miterlimit:10;" d="M 0.253767 -1.210378 L 0.418372 -1.374983 " transform="matrix(72,0,0,-72,6.287386,8.512937)"/>
<path style="fill:none;stroke-width:0.02;stroke-linecap:round;stroke-linejoin:miter;stroke:rgb(45.098039%,45.098039%,87.058824%);stroke-opacity:1;stroke-miterlimit:10;" d="M 0.253767 -1.061995 L 0.253767 -1.210378 " transform="matrix(72,0,0,-72,6.287386,8.512937)"/>
<path style="fill:none;stroke-width:0.02;stroke-linecap:round;stroke-linejoin:miter;stroke:rgb(45.098039%,45.098039%,87.058824%);stroke-opacity:1;stroke-miterlimit:10;" d="M 0.375023 -1.274994 L 0.500023 -1.274994 " transform="matrix(72,0,0,-72,6.287386,8.512937)"/>
<path style="fill:none;stroke-width:0.02;stroke-linecap:round;stroke-linejoin:miter;stroke:rgb(45.098039%,45.098039%,87.058824%);stroke-opacity:1;stroke-miterlimit:10;" d="M 0.325002 -0.883284 L 0.325002 -1.225026 " transform="matrix(72,0,0,-72,6.287386,8.512937)"/>
<path style="fill:none;stroke-width:0.02;stroke-linecap:round;stroke-linejoin:miter;stroke:rgb(45.098039%,45.098039%,87.058824%);stroke-opacity:1;stroke-miterlimit:10;" d="M 0.325002 -1.225026 L 0.375023 -1.274994 " transform="matrix(72,0,0,-72,6.287386,8.512937)"/>
<path style="fill:none;stroke-width:0.02;stroke-linecap:round;stroke-linejoin:miter;stroke:rgb(45.098039%,45.098039%,87.058824%);stroke-opacity:1;stroke-miterlimit:10;" d="M 0.253767 -0.811995 L 0.325002 -0.883284 " transform="matrix(72,0,0,-72,6.287386,8.512937)"/>
<path style="fill:none;stroke-width:0.02;stroke-linecap:round;stroke-linejoin:miter;stroke:rgb(45.098039%,45.098039%,87.058824%);stroke-opacity:1;stroke-miterlimit:10;" d="M 0.0962689 -1.262407 L 0.162024 -1.328162 " transform="matrix(72,0,0,-72,6.287386,8.512937)"/>
<path style="fill:none;stroke-width:0.02;stroke-linecap:round;stroke-linejoin:miter;stroke:rgb(45.098039%,45.098039%,87.058824%);stroke-opacity:1;stroke-miterlimit:10;" d="M 0.0962689 -1.061995 L 0.0962689 -1.262407 " transform="matrix(72,0,0,-72,6.287386,8.512937)"/>
<path style="fill:none;stroke-width:0.02;stroke-linecap:round;stroke-linejoin:miter;stroke:rgb(45.098039%,45.098039%,87.058824%);stroke-opacity:1;stroke-miterlimit:10;" d="M 0.0962689 -0.811995 L 0.0962689 -1.061995 " transform="matrix(72,0,0,-72,6.287386,8.512937)"/>
<path style="fill:none;stroke-width:0.04;stroke-linecap:round;stroke-linejoin:miter;stroke:rgb(45.098039%,45.098039%,87.058824%);stroke-opacity:1;stroke-miterlimit:10;" d="M 0.174991 -0.689924 L 0.174991 -0.937971 " transform="matrix(72,0,0,-72,6.287386,8.512937)"/>
<path style="fill:none;stroke-width:0.04;stroke-linecap:round;stroke-linejoin:miter;stroke:rgb(45.098039%,45.098039%,87.058824%);stroke-opacity:1;stroke-miterlimit:10;" d="M 0.500023 -0.475026 L 0.389943 -0.475026 " transform="matrix(72,0,0,-72,6.287386,8.512937)"/>
<path style="fill:none;stroke-width:0.04;stroke-linecap:round;stroke-linejoin:miter;stroke:rgb(45.098039%,45.098039%,87.058824%);stroke-opacity:1;stroke-miterlimit:10;" d="M 0.389943 -0.475026 L 0.174991 -0.689924 " transform="matrix(72,0,0,-72,6.287386,8.512937)"/>
<path style="fill:none;stroke-width:0.02;stroke-linecap:round;stroke-linejoin:miter;stroke:rgb(45.098039%,45.098039%,87.058824%);stroke-opacity:1;stroke-miterlimit:10;" d="M 0.77498 -0.399994 L 0.500023 -0.399994 " transform="matrix(72,0,0,-72,6.287386,8.512937)"/>
<path style="fill:none;stroke-width:0.02;stroke-linecap:round;stroke-linejoin:miter;stroke:rgb(45.098039%,45.098039%,87.058824%);stroke-opacity:1;stroke-miterlimit:10;" d="M 0.406111 -0.306081 L 0.406111 -0.237396 " transform="matrix(72,0,0,-72,6.287386,8.512937)"/>
<path style="fill:none;stroke-width:0.02;stroke-linecap:round;stroke-linejoin:miter;stroke:rgb(45.098039%,45.098039%,87.058824%);stroke-opacity:1;stroke-miterlimit:10;" d="M 1.000023 -0.624983 L 0.77498 -0.399994 " transform="matrix(72,0,0,-72,6.287386,8.512937)"/>
<path style="fill:none;stroke-width:0.02;stroke-linecap:round;stroke-linejoin:miter;stroke:rgb(45.098039%,45.098039%,87.058824%);stroke-opacity:1;stroke-miterlimit:10;" d="M 1.000023 -0.700016 L 1.000023 -0.624983 " transform="matrix(72,0,0,-72,6.287386,8.512937)"/>
<path style="fill:none;stroke-width:0.02;stroke-linecap:round;stroke-linejoin:miter;stroke:rgb(45.098039%,45.098039%,87.058824%);stroke-opacity:1;stroke-miterlimit:10;" d="M 0.500023 -0.399994 L 0.406111 -0.306081 " transform="matrix(72,0,0,-72,6.287386,8.512937)"/>
<path style="fill:none;stroke-width:0.02;stroke-linecap:round;stroke-linejoin:miter;stroke:rgb(45.098039%,45.098039%,87.058824%);stroke-opacity:1;stroke-miterlimit:10;" d="M 1.27498 -0.975026 L 1.000023 -0.700016 " transform="matrix(72,0,0,-72,6.287386,8.512937)"/>
<path style="fill:none;stroke-width:0.02;stroke-linecap:round;stroke-linejoin:miter;stroke:rgb(45.098039%,45.098039%,87.058824%);stroke-opacity:1;stroke-miterlimit:10;" d="M 1.39998 -0.975026 L 1.27498 -0.975026 " transform="matrix(72,0,0,-72,6.287386,8.512937)"/>
<path style="fill:none;stroke-width:0.02;stroke-linecap:round;stroke-linejoin:miter;stroke:rgb(45.098039%,45.098039%,87.058824%);stroke-opacity:1;stroke-miterlimit:10;" d="M 1.200002 -0.524994 L 1.282087 -0.442908 " transform="matrix(72,0,0,-72,6.287386,8.512937)"/>
<path style="fill:none;stroke-width:0.02;stroke-linecap:round;stroke-linejoin:miter;stroke:rgb(45.098039%,45.098039%,87.058824%);stroke-opacity:1;stroke-miterlimit:10;" d="M 1.200002 -0.649994 L 1.200002 -0.524994 " transform="matrix(72,0,0,-72,6.287386,8.512937)"/>
<path style="fill:none;stroke-width:0.02;stroke-linecap:round;stroke-linejoin:miter;stroke:rgb(45.098039%,45.098039%,87.058824%);stroke-opacity:1;stroke-miterlimit:10;" d="M 1.282087 -0.442908 L 1.282087 -0.316118 " transform="matrix(72,0,0,-72,6.287386,8.512937)"/>
<path style="fill:none;stroke-width:0.02;stroke-linecap:round;stroke-linejoin:miter;stroke:rgb(45.098039%,45.098039%,87.058824%);stroke-opacity:1;stroke-miterlimit:10;" d="M 1.39998 -0.675005 L 1.225012 -0.675005 " transform="matrix(72,0,0,-72,6.287386,8.512937)"/>
<path style="fill:none;stroke-width:0.02;stroke-linecap:round;stroke-linejoin:miter;stroke:rgb(45.098039%,45.098039%,87.058824%);stroke-opacity:1;stroke-miterlimit:10;" d="M 1.225012 -0.675005 L 1.200002 -0.649994 " transform="matrix(72,0,0,-72,6.287386,8.512937)"/>
<path style="fill:none;stroke-width:0.03;stroke-linecap:round;stroke-linejoin:miter;stroke:rgb(45.098039%,45.098039%,87.058824%);stroke-opacity:1;stroke-miterlimit:10;" d="M 1.662024 -0.5442 L 1.662024 -0.581906 " transform="matrix(72,0,0,-72,6.287386,8.512937)"/>
<path style="fill:none;stroke-width:0.03;stroke-linecap:round;stroke-linejoin:miter;stroke:rgb(45.098039%,45.098039%,87.058824%);stroke-opacity:1;stroke-miterlimit:10;" d="M 1.592851 -0.475026 L 1.662024 -0.5442 " transform="matrix(72,0,0,-72,6.287386,8.512937)"/>
<path style="fill:none;stroke-width:0.03;stroke-linecap:round;stroke-linejoin:miter;stroke:rgb(45.098039%,45.098039%,87.058824%);stroke-opacity:1;stroke-miterlimit:10;" d="M 1.39998 -0.475026 L 1.592851 -0.475026 " transform="matrix(72,0,0,-72,6.287386,8.512937)"/>
<path style="fill:none;stroke-width:0.04;stroke-linecap:round;stroke-linejoin:miter;stroke:rgb(45.098039%,45.098039%,87.058824%);stroke-opacity:1;stroke-miterlimit:10;" d="M 1.433671 -0.158674 L 1.788001 -0.513004 " transform="matrix(72,0,0,-72,6.287386,8.512937)"/>
<path style="fill:none;stroke-width:0.04;stroke-linecap:round;stroke-linejoin:miter;stroke:rgb(45.098039%,45.098039%,87.058824%);stroke-opacity:1;stroke-miterlimit:10;" d="M 1.282087 -0.158674 L 1.433671 -0.158674 " transform="matrix(72,0,0,-72,6.287386,8.512937)"/>
<path style="fill:none;stroke-width:0.04;stroke-linecap:round;stroke-linejoin:miter;stroke:rgb(45.098039%,45.098039%,87.058824%);stroke-opacity:1;stroke-miterlimit:10;" d="M 1.788001 -0.513004 L 1.788001 -0.660628 " transform="matrix(72,0,0,-72,6.287386,8.512937)"/>
<path style="fill:none;stroke-width:0.02;stroke-linecap:round;stroke-linejoin:miter;stroke:rgb(45.098039%,45.098039%,87.058824%);stroke-opacity:1;stroke-miterlimit:10;" d="M 0.782087 -0.316118 L 0.532087 -0.316118 " transform="matrix(72,0,0,-72,6.287386,8.512937)"/>
<path style="fill:none;stroke-width:0.02;stroke-linecap:round;stroke-linejoin:miter;stroke:rgb(45.098039%,45.098039%,87.058824%);stroke-opacity:1;stroke-miterlimit:10;" d="M 1.032087 -0.316118 L 0.782087 -0.316118 " transform="matrix(72,0,0,-72,6.287386,8.512937)"/>
<path style="fill:none;stroke-width:0.02;stroke-linecap:round;stroke-linejoin:miter;stroke:rgb(45.098039%,45.098039%,87.058824%);stroke-opacity:1;stroke-miterlimit:10;" d="M 1.282087 -0.316118 L 1.032087 -0.316118 " transform="matrix(72,0,0,-72,6.287386,8.512937)"/>
<path style="fill:none;stroke-width:0.02;stroke-linecap:round;stroke-linejoin:miter;stroke:rgb(45.098039%,45.098039%,87.058824%);stroke-opacity:1;stroke-miterlimit:10;" d="M 0.656111 -0.237396 L 0.406111 -0.237396 " transform="matrix(72,0,0,-72,6.287386,8.512937)"/>
<path style="fill:none;stroke-width:0.02;stroke-linecap:round;stroke-linejoin:miter;stroke:rgb(45.098039%,45.098039%,87.058824%);stroke-opacity:1;stroke-miterlimit:10;" d="M 0.906111 -0.237396 L 0.656111 -0.237396 " transform="matrix(72,0,0,-72,6.287386,8.512937)"/>
<path style="fill:none;stroke-width:0.02;stroke-linecap:round;stroke-linejoin:miter;stroke:rgb(45.098039%,45.098039%,87.058824%);stroke-opacity:1;stroke-miterlimit:10;" d="M 1.156111 -0.237396 L 0.906111 -0.237396 " transform="matrix(72,0,0,-72,6.287386,8.512937)"/>
<path style="fill:none;stroke-width:0.02;stroke-linecap:round;stroke-linejoin:miter;stroke:rgb(45.098039%,45.098039%,87.058824%);stroke-opacity:1;stroke-miterlimit:10;" d="M 0.782087 -0.158674 L 0.532087 -0.158674 " transform="matrix(72,0,0,-72,6.287386,8.512937)"/>
<path style="fill:none;stroke-width:0.02;stroke-linecap:round;stroke-linejoin:miter;stroke:rgb(45.098039%,45.098039%,87.058824%);stroke-opacity:1;stroke-miterlimit:10;" d="M 1.032087 -0.158674 L 0.782087 -0.158674 " transform="matrix(72,0,0,-72,6.287386,8.512937)"/>
<path style="fill:none;stroke-width:0.02;stroke-linecap:round;stroke-linejoin:miter;stroke:rgb(45.098039%,45.098039%,87.058824%);stroke-opacity:1;stroke-miterlimit:10;" d="M 1.282087 -0.158674 L 1.032087 -0.158674 " transform="matrix(72,0,0,-72,6.287386,8.512937)"/>
<path style="fill:none;stroke-width:0.02;stroke-linecap:round;stroke-linejoin:miter;stroke:rgb(45.098039%,45.098039%,87.058824%);stroke-opacity:1;stroke-miterlimit:10;" d="M 1.156111 -0.0798984 L 0.906111 -0.0798984 " transform="matrix(72,0,0,-72,6.287386,8.512937)"/>
<path style="fill:none;stroke-width:0.02;stroke-linecap:round;stroke-linejoin:miter;stroke:rgb(45.098039%,45.098039%,87.058824%);stroke-opacity:1;stroke-miterlimit:10;" d="M 0.906111 -0.0798984 L 0.656111 -0.0798984 " transform="matrix(72,0,0,-72,6.287386,8.512937)"/>
<path style="fill:none;stroke-width:0.02;stroke-linecap:round;stroke-linejoin:miter;stroke:rgb(45.098039%,45.098039%,87.058824%);stroke-opacity:1;stroke-miterlimit:10;" d="M 0.406111 -0.0798984 L 0.656111 -0.0798984 " transform="matrix(72,0,0,-72,6.287386,8.512937)"/>
<path style="fill:none;stroke-width:0.02;stroke-linecap:round;stroke-linejoin:miter;stroke:rgb(45.098039%,45.098039%,87.058824%);stroke-opacity:1;stroke-miterlimit:10;" d="M 1.575002 -0.874983 L 1.39998 -0.874983 " transform="matrix(72,0,0,-72,6.287386,8.512937)"/>
<path style="fill:none;stroke-width:0.02;stroke-linecap:round;stroke-linejoin:miter;stroke:rgb(45.098039%,45.098039%,87.058824%);stroke-opacity:1;stroke-miterlimit:10;" d="M 1.631913 -0.818125 L 1.575002 -0.874983 " transform="matrix(72,0,0,-72,6.287386,8.512937)"/>
<path style="fill:none;stroke-width:0.02;stroke-linecap:round;stroke-linejoin:miter;stroke:rgb(45.098039%,45.098039%,87.058824%);stroke-opacity:1;stroke-miterlimit:10;" d="M 1.788001 -0.818125 L 1.631913 -0.818125 " transform="matrix(72,0,0,-72,6.287386,8.512937)"/>
<path style="fill:none;stroke-width:0.02;stroke-linecap:round;stroke-linejoin:miter;stroke:rgb(45.098039%,45.098039%,87.058824%);stroke-opacity:1;stroke-miterlimit:10;" d="M 1.535614 -0.739349 L 1.500023 -0.774994 " transform="matrix(72,0,0,-72,6.287386,8.512937)"/>
<path style="fill:none;stroke-width:0.02;stroke-linecap:round;stroke-linejoin:miter;stroke:rgb(45.098039%,45.098039%,87.058824%);stroke-opacity:1;stroke-miterlimit:10;" d="M 1.662024 -0.739349 L 1.535614 -0.739349 " transform="matrix(72,0,0,-72,6.287386,8.512937)"/>
<path style="fill:none;stroke-width:0.02;stroke-linecap:round;stroke-linejoin:miter;stroke:rgb(45.098039%,45.098039%,87.058824%);stroke-opacity:1;stroke-miterlimit:10;" d="M 1.500023 -0.774994 L 1.39998 -0.774994 " transform="matrix(72,0,0,-72,6.287386,8.512937)"/>
<path style=" stroke:none;fill-rule:evenodd;fill:rgb(45.098039%,45.098039%,87.058824%);fill-opacity:1;" d="M 60.9375 40.25 L 60.996094 40.296875 L 75.304688 54.601563 L 75.398438 54.777344 L 75.40625 54.851563 L 75.40625 59.195313 L 75.515625 59.753906 L 75.734375 60.277344 L 76.050781 60.75 L 95.835938 80.535156 L 95.929688 80.707031 L 95.933594 80.746094 L 95.957031 80.953125 L 96.113281 81.433594 L 96.167969 81.519531 L 96.378906 81.863281 L 96.738281 82.21875 L 97.167969 82.484375 L 97.648438 82.644531 L 97.941406 82.675781 L 109.03125 82.675781 L 109.328125 82.644531 L 109.808594 82.484375 L 110.238281 82.21875 L 110.59375 81.863281 L 110.859375 81.433594 L 110.96875 81.101563 L 111.082031 80.9375 L 111.265625 80.863281 L 111.460938 80.898438 L 111.605469 81.03125 L 111.609375 81.035156 L 111.886719 81.519531 L 112.289063 82.042969 L 112.757813 82.511719 L 113.28125 82.914063 L 113.851563 83.246094 L 114.464844 83.496094 L 115.101563 83.667969 L 115.757813 83.753906 L 116.417969 83.753906 L 117.074219 83.667969 L 117.710938 83.496094 L 118.320313 83.246094 L 118.894531 82.914063 L 119.417969 82.511719 L 119.886719 82.042969 L 119.953125 81.957031 L 120.113281 81.84375 L 120.230469 81.820313 L 121.050781 81.820313 L 121.238281 81.875 L 121.371094 82.027344 L 121.398438 82.222656 L 121.316406 82.402344 L 113.589844 90.128906 L 113.417969 90.222656 L 113.34375 90.230469 L 110.957031 90.230469 L 110.765625 90.175781 L 110.65625 90.066406 L 110.59375 89.964844 L 110.238281 89.605469 L 109.808594 89.339844 L 109.605469 89.273438 L 109.328125 89.183594 L 109.03125 89.152344 L 97.941406 89.152344 L 97.648438 89.183594 L 97.167969 89.339844 L 96.738281 89.605469 L 96.378906 89.964844 L 96.113281 90.394531 L 95.957031 90.871094 L 95.925781 91.167969 L 95.925781 95.058594 L 95.957031 95.351563 L 96.113281 95.832031 L 96.378906 96.261719 L 96.738281 96.621094 L 97.167969 96.886719 L 97.648438 97.042969 L 97.941406 97.074219 L 103.003906 97.074219 L 103.195313 97.128906 L 103.324219 97.28125 L 103.351563 97.476563 L 103.320313 97.570313 L 103.324219 97.574219 L 103.316406 97.59375 L 103.15625 98.074219 L 103.125 98.367188 L 103.125 102.257813 L 103.15625 102.554688 L 103.316406 103.03125 L 103.324219 103.050781 L 103.316406 103.054688 L 103.355469 103.207031 L 103.296875 103.398438 L 103.144531 103.523438 L 103.003906 103.550781 L 97.941406 103.550781 L 97.648438 103.582031 L 97.167969 103.742188 L 96.738281 104.007813 L 96.378906 104.363281 L 96.113281 104.792969 L 95.957031 105.273438 L 95.925781 105.570313 L 95.925781 109.457031 L 95.957031 109.753906 L 96.113281 110.234375 L 96.1875 110.351563 L 96.378906 110.664063 L 96.738281 111.019531 L 97.167969 111.285156 L 97.648438 111.445313 L 97.941406 111.472656 L 103.003906 111.472656 L 103.195313 111.53125 L 103.324219 111.679688 L 103.351563 111.875 L 103.320313 111.972656 L 103.324219 111.976563 L 103.316406 111.992188 L 103.15625 112.472656 L 103.125 112.769531 L 103.125 116.65625 L 103.15625 116.953125 L 103.316406 117.433594 L 103.324219 117.449219 L 103.316406 117.453125 L 103.355469 117.609375 L 103.296875 117.796875 L 103.144531 117.921875 L 103.003906 117.953125 L 97.941406 117.953125 L 97.648438 117.980469 L 97.167969 118.140625 L 96.738281 118.40625 L 96.378906 118.761719 L 96.113281 119.191406 L 95.957031 119.671875 L 95.925781 119.96875 L 95.925781 123.855469 L 95.957031 124.152344 L 96.113281 124.632813 L 96.378906 125.0625 L 96.738281 125.421875 L 97.167969 125.683594 L 97.648438 125.84375 L 97.941406 125.875 L 103.003906 125.875 L 103.195313 125.929688 L 103.324219 126.078125 L 103.351563 126.277344 L 103.320313 126.371094 L 103.324219 126.375 L 103.316406 126.394531 L 103.15625 126.871094 L 103.125 127.167969 L 103.125 131.058594 L 103.15625 131.351563 L 103.316406 131.832031 L 103.324219 131.851563 L 103.316406 131.855469 L 103.355469 132.007813 L 103.296875 132.195313 L 103.144531 132.324219 L 103.003906 132.351563 L 97.941406 132.351563 L 97.648438 132.382813 L 97.167969 132.539063 L 96.738281 132.804688 L 96.378906 133.164063 L 96.316406 133.265625 L 96.171875 133.398438 L 96.019531 133.429688 L 61.804688 133.429688 L 61.246094 133.542969 L 60.722656 133.757813 L 60.25 134.074219 L 57.109375 137.214844 L 56.652344 137.675781 L 56.449219 137.875 L 56.25 138.074219 L 55.933594 138.546875 L 55.714844 139.074219 L 55.605469 139.628906 L 55.605469 170.972656 L 55.550781 171.164063 L 55.503906 171.222656 L 54.050781 172.675781 L 53.875 172.769531 L 53.675781 172.757813 L 53.519531 172.636719 L 53.449219 172.453125 L 53.449219 170.367188 L 53.433594 170.210938 L 53.417969 170.074219 L 53.257813 169.59375 L 52.996094 169.164063 L 52.636719 168.804688 L 52.207031 168.539063 L 51.726563 168.382813 L 51.429688 168.351563 L 46.371094 168.351563 L 46.179688 168.296875 L 46.050781 168.144531 L 46.019531 167.949219 L 46.054688 167.855469 L 46.050781 167.851563 L 46.058594 167.832031 L 46.21875 167.351563 L 46.25 167.058594 L 46.25 163.167969 L 46.21875 162.871094 L 46.058594 162.394531 L 46.050781 162.375 L 46.058594 162.371094 L 46.019531 162.21875 L 46.078125 162.03125 L 46.230469 161.902344 L 46.371094 161.875 L 51.429688 161.875 L 51.726563 161.84375 L 52.207031 161.683594 L 52.636719 161.421875 L 52.996094 161.0625 L 53.257813 160.632813 L 53.417969 160.152344 L 53.449219 159.855469 L 53.449219 155.96875 L 53.417969 155.671875 L 53.257813 155.191406 L 52.996094 154.761719 L 52.636719 154.40625 L 52.207031 154.140625 L 51.945313 154.054688 L 51.726563 153.980469 L 51.429688 153.953125 L 46.371094 153.953125 L 46.179688 153.894531 L 46.050781 153.746094 L 46.019531 153.550781 L 46.054688 153.453125 L 46.050781 153.449219 L 46.058594 153.433594 L 46.21875 152.953125 L 46.25 152.65625 L 46.25 148.769531 L 46.21875 148.472656 L 46.058594 147.992188 L 46.050781 147.976563 L 46.058594 147.972656 L 46.019531 147.816406 L 46.078125 147.628906 L 46.230469 147.503906 L 46.371094 147.472656 L 51.429688 147.472656 L 51.726563 147.445313 L 52.207031 147.285156 L 52.636719 147.019531 L 52.996094 146.664063 L 53.257813 146.234375 L 53.417969 145.753906 L 53.449219 145.457031 L 53.449219 141.570313 L 53.417969 141.273438 L 53.257813 140.792969 L 52.996094 140.363281 L 52.636719 140.007813 L 52.207031 139.742188 L 51.945313 139.65625 L 51.726563 139.582031 L 51.429688 139.550781 L 40.34375 139.550781 L 40.046875 139.582031 L 39.566406 139.742188 L 39.136719 140.007813 L 38.78125 140.363281 L 38.515625 140.792969 L 38.410156 141.113281 L 38.296875 141.277344 L 38.113281 141.351563 L 38.074219 141.355469 L 25.96875 141.355469 L 25.78125 141.296875 L 25.648438 141.148438 L 25.621094 140.953125 L 25.703125 140.773438 L 29.261719 137.214844 L 29.578125 136.742188 L 29.792969 136.21875 L 29.796875 136.195313 L 29.890625 136.019531 L 30.0625 135.921875 L 30.105469 135.914063 L 30.296875 135.894531 L 30.777344 135.734375 L 31.207031 135.46875 L 31.566406 135.113281 L 31.828125 134.679688 L 31.988281 134.203125 L 32.019531 133.90625 L 32.019531 131.066406 L 31.988281 130.769531 L 31.828125 130.289063 L 31.792969 130.234375 L 31.742188 130.042969 L 31.800781 129.855469 L 31.953125 129.726563 L 32.09375 129.699219 L 37.972656 129.699219 L 38.164063 129.753906 L 38.292969 129.902344 L 38.324219 130.050781 L 38.324219 131.058594 L 38.355469 131.351563 L 38.472656 131.699219 L 38.515625 131.832031 L 38.78125 132.261719 L 39.136719 132.621094 L 39.566406 132.886719 L 40.046875 133.042969 L 40.34375 133.074219 L 51.429688 133.074219 L 51.726563 133.042969 L 52.207031 132.886719 L 52.636719 132.621094 L 52.996094 132.261719 L 53.257813 131.832031 L 53.417969 131.351563 L 53.449219 131.058594 L 53.449219 127.167969 L 53.417969 126.871094 L 53.257813 126.394531 L 52.996094 125.964844 L 52.636719 125.605469 L 52.207031 125.339844 L 51.726563 125.183594 L 51.429688 125.152344 L 46.371094 125.152344 L 46.179688 125.097656 L 46.050781 124.945313 L 46.019531 124.75 L 46.054688 124.652344 L 46.050781 124.652344 L 46.058594 124.632813 L 46.21875 124.152344 L 46.25 123.855469 L 46.25 119.96875 L 46.21875 119.671875 L 46.058594 119.191406 L 46.050781 119.175781 L 46.058594 119.171875 L 46.019531 119.019531 L 46.078125 118.828125 L 46.230469 118.703125 L 46.371094 118.675781 L 51.429688 118.675781 L 51.726563 118.644531 L 52.207031 118.484375 L 52.636719 118.21875 L 52.996094 117.863281 L 53.257813 117.433594 L 53.417969 116.953125 L 53.449219 116.65625 L 53.449219 112.769531 L 53.417969 112.472656 L 53.257813 111.992188 L 52.996094 111.5625 L 52.636719 111.207031 L 52.207031 110.941406 L 51.726563 110.78125 L 51.429688 110.75 L 46.371094 110.75 L 46.179688 110.695313 L 46.050781 110.546875 L 46.019531 110.351563 L 46.054688 110.253906 L 46.050781 110.25 L 46.058594 110.234375 L 46.21875 109.753906 L 46.25 109.457031 L 46.25 105.570313 L 46.21875 105.273438 L 46.058594 104.792969 L 46.050781 104.773438 L 46.058594 104.769531 L 46.019531 104.617188 L 46.078125 104.429688 L 46.230469 104.304688 L 46.371094 104.273438 L 51.429688 104.273438 L 51.726563 104.242188 L 52.207031 104.085938 L 52.636719 103.820313 L 52.996094 103.460938 L 53.257813 103.03125 L 53.417969 102.554688 L 53.449219 102.257813 L 53.449219 98.367188 L 53.417969 98.074219 L 53.257813 97.59375 L 52.996094 97.164063 L 52.636719 96.804688 L 52.207031 96.539063 L 51.726563 96.382813 L 51.429688 96.351563 L 46.371094 96.351563 L 46.179688 96.296875 L 46.050781 96.144531 L 46.019531 95.949219 L 46.054688 95.855469 L 46.050781 95.851563 L 46.058594 95.832031 L 46.21875 95.351563 L 46.25 95.058594 L 46.25 91.167969 L 46.21875 90.871094 L 46.058594 90.394531 L 46.050781 90.375 L 46.058594 90.371094 L 46.019531 90.21875 L 46.078125 90.03125 L 46.230469 89.902344 L 46.371094 89.875 L 51.429688 89.875 L 51.726563 89.84375 L 52.207031 89.683594 L 52.636719 89.421875 L 52.996094 89.0625 L 53.257813 88.632813 L 53.417969 88.152344 L 53.449219 87.855469 L 53.449219 83.96875 L 53.417969 83.671875 L 53.257813 83.191406 L 52.996094 82.761719 L 52.636719 82.40625 L 52.207031 82.140625 L 51.726563 81.980469 L 51.429688 81.953125 L 46.371094 81.953125 L 46.179688 81.894531 L 46.050781 81.746094 L 46.019531 81.550781 L 46.054688 81.453125 L 46.050781 81.449219 L 46.058594 81.433594 L 46.21875 80.953125 L 46.25 80.65625 L 46.25 76.769531 L 46.21875 76.472656 L 46.058594 75.992188 L 46.050781 75.976563 L 46.058594 75.972656 L 46.019531 75.816406 L 46.078125 75.628906 L 46.230469 75.503906 L 46.371094 75.472656 L 51.429688 75.472656 L 51.726563 75.445313 L 52.207031 75.285156 L 52.636719 75.019531 L 52.996094 74.664063 L 53.257813 74.234375 L 53.417969 73.753906 L 53.449219 73.457031 L 53.449219 69.570313 L 53.417969 69.273438 L 53.257813 68.792969 L 52.996094 68.363281 L 52.636719 68.007813 L 52.207031 67.742188 L 51.726563 67.582031 L 51.429688 67.550781 L 46.371094 67.550781 L 46.179688 67.496094 L 46.050781 67.347656 L 46.019531 67.148438 L 46.054688 67.054688 L 46.050781 67.050781 L 46.058594 67.03125 L 46.21875 66.554688 L 46.25 66.257813 L 46.25 62.367188 L 46.21875 62.074219 L 46.058594 61.59375 L 46.050781 61.574219 L 46.058594 61.570313 L 46.019531 61.417969 L 46.078125 61.230469 L 46.230469 61.101563 L 46.371094 61.074219 L 51.429688 61.074219 L 51.726563 61.042969 L 52.207031 60.886719 L 52.636719 60.621094 L 52.996094 60.261719 L 53.257813 59.832031 L 53.417969 59.351563 L 53.449219 59.058594 L 53.449219 55.167969 L 53.417969 54.871094 L 53.257813 54.394531 L 52.996094 53.964844 L 52.636719 53.605469 L 52.289063 53.390625 L 52.207031 53.339844 L 51.726563 53.183594 L 51.429688 53.152344 L 46.371094 53.152344 L 46.179688 53.097656 L 46.050781 52.945313 L 46.019531 52.75 L 46.054688 52.652344 L 46.050781 52.652344 L 46.058594 52.632813 L 46.21875 52.152344 L 46.25 51.855469 L 46.25 47.96875 L 46.21875 47.671875 L 46.058594 47.191406 L 46.050781 47.175781 L 46.058594 47.171875 L 46.019531 47.019531 L 46.078125 46.828125 L 46.230469 46.703125 L 46.371094 46.675781 L 51.429688 46.675781 L 51.726563 46.644531 L 52.207031 46.484375 L 52.636719 46.21875 L 52.996094 45.863281 L 53.257813 45.433594 L 53.417969 44.953125 L 53.449219 44.65625 L 53.449219 40.769531 L 53.429688 40.582031 L 53.464844 40.386719 L 53.601563 40.242188 L 53.78125 40.195313 L 60.75 40.195313 Z M 60.9375 40.25 "/>
<path style=" stroke:none;fill-rule:evenodd;fill:rgb(45.098039%,45.098039%,87.058824%);fill-opacity:1;" d="M 94.851563 23.1875 L 95.324219 23.34375 L 95.617188 23.375 L 97.464844 23.375 L 97.574219 23.390625 L 97.636719 23.410156 L 97.753906 23.449219 L 98.3125 23.539063 L 107.875 23.539063 L 108.0625 23.59375 L 108.121094 23.640625 L 131.320313 46.835938 L 131.414063 47.011719 L 131.421875 47.085938 L 131.421875 56.363281 L 131.511719 56.921875 L 131.683594 57.460938 L 131.828125 57.738281 L 131.863281 57.933594 L 131.789063 58.117188 L 131.628906 58.230469 L 131.515625 58.25 L 126.148438 58.25 L 125.851563 58.28125 L 125.371094 58.4375 L 124.941406 58.703125 L 124.882813 58.761719 L 124.707031 58.859375 L 124.632813 58.867188 L 118.601563 58.867188 L 118.410156 58.808594 L 118.28125 58.660156 L 118.25 58.515625 L 118.25 55.167969 L 118.234375 55.027344 L 118.21875 54.871094 L 118.207031 54.835938 L 118.199219 54.636719 L 118.300781 54.464844 L 118.363281 54.421875 L 118.894531 54.113281 L 119.417969 53.710938 L 119.886719 53.242188 L 120.289063 52.71875 L 120.617188 52.148438 L 120.871094 51.535156 L 121.042969 50.898438 L 121.128906 50.242188 L 121.128906 49.582031 L 121.042969 48.925781 L 120.871094 48.289063 L 120.617188 47.679688 L 120.289063 47.105469 L 119.886719 46.582031 L 119.417969 46.113281 L 118.894531 45.710938 L 118.320313 45.382813 L 117.710938 45.128906 L 117.074219 44.957031 L 116.964844 44.945313 L 116.417969 44.871094 L 115.757813 44.871094 L 115.136719 44.953125 L 115.101563 44.957031 L 114.464844 45.128906 L 113.851563 45.382813 L 113.28125 45.710938 L 112.757813 46.113281 L 112.289063 46.582031 L 112.050781 46.894531 L 111.890625 47.011719 L 111.769531 47.03125 L 110.957031 47.03125 L 110.765625 46.976563 L 110.65625 46.863281 L 110.59375 46.761719 L 110.238281 46.40625 L 109.808594 46.140625 L 109.328125 45.980469 L 109.03125 45.953125 L 97.972656 45.953125 L 97.78125 45.894531 L 97.652344 45.746094 L 97.625 45.550781 L 97.707031 45.371094 L 97.722656 45.351563 L 100.835938 42.238281 L 101.152344 41.765625 L 101.367188 41.242188 L 101.460938 40.769531 L 101.480469 40.6875 L 101.480469 35.039063 L 101.535156 34.847656 L 101.683594 34.71875 L 101.792969 34.691406 L 101.871094 34.683594 L 102.351563 34.523438 L 102.78125 34.257813 L 103.140625 33.902344 L 103.40625 33.46875 L 103.5625 32.992188 L 103.59375 32.695313 L 103.59375 29.855469 L 103.5625 29.558594 L 103.40625 29.078125 L 103.140625 28.648438 L 102.78125 28.292969 L 102.351563 28.027344 L 101.871094 27.867188 L 101.578125 27.839844 L 95.617188 27.839844 L 95.324219 27.867188 L 94.851563 28.023438 L 94.652344 28.03125 L 94.484375 27.929688 L 94.394531 27.753906 L 94.40625 27.582031 L 94.492188 27.320313 L 94.523438 27.027344 L 94.523438 24.1875 L 94.492188 23.890625 L 94.40625 23.632813 L 94.40625 23.59375 L 94.390625 23.558594 L 94.402344 23.496094 L 94.398438 23.433594 L 94.417969 23.402344 L 94.425781 23.363281 L 94.46875 23.316406 L 94.5 23.261719 L 94.535156 23.246094 L 94.5625 23.21875 L 94.621094 23.203125 L 94.679688 23.175781 L 94.71875 23.175781 L 94.753906 23.167969 Z M 94.851563 23.1875 "/>
<path style=" stroke:none;fill-rule:evenodd;fill:rgb(45.098039%,45.098039%,87.058824%);fill-opacity:1;" d="M 145.828125 9.988281 L 145.957031 10.136719 L 145.988281 10.28125 L 145.988281 204.742188 L 145.933594 204.933594 L 145.78125 205.0625 L 145.636719 205.09375 L 8.058594 205.09375 L 7.867188 205.039063 L 7.738281 204.890625 L 7.707031 204.742188 L 7.707031 129.09375 L 10.058594 129.09375 L 10.070313 129.230469 L 10.074219 129.261719 L 10.074219 129.398438 L 10.09375 129.507813 L 10.097656 129.527344 L 10.109375 129.660156 L 10.152344 129.804688 L 10.15625 129.820313 L 10.183594 129.953125 L 10.226563 130.058594 L 10.238281 130.09375 L 10.714844 131.699219 L 10.71875 131.707031 L 15.4375 148.953125 L 15.449219 149.046875 L 15.449219 153.621094 L 15.480469 153.917969 L 15.640625 154.394531 L 15.90625 154.828125 L 15.917969 154.84375 L 15.914063 154.84375 L 15.996094 155 L 16.007813 155.074219 L 16.007813 164.210938 L 15.949219 164.402344 L 15.917969 164.441406 L 15.90625 164.457031 L 15.640625 164.886719 L 15.480469 165.367188 L 15.449219 165.664063 L 15.449219 171.621094 L 15.480469 171.917969 L 15.640625 172.394531 L 15.90625 172.828125 L 15.917969 172.84375 L 15.914063 172.84375 L 15.996094 173 L 16.007813 173.074219 L 16.007813 182.210938 L 15.949219 182.402344 L 15.917969 182.441406 L 15.90625 182.457031 L 15.640625 182.886719 L 15.480469 183.367188 L 15.449219 183.664063 L 15.449219 185.511719 L 15.433594 185.617188 L 15.375 185.796875 L 15.285156 186.359375 L 15.285156 198.761719 L 15.375 199.324219 L 15.550781 199.863281 L 15.808594 200.367188 L 16.140625 200.824219 L 16.542969 201.226563 L 17 201.558594 L 17.503906 201.816406 L 17.625 201.855469 L 17.765625 201.941406 L 19.410156 203.585938 L 19.820313 203.886719 L 20.042969 204 L 20.277344 204.117188 L 20.761719 204.273438 L 21.265625 204.355469 L 33.542969 204.355469 L 33.824219 204.308594 L 34.046875 204.273438 L 34.414063 204.15625 L 34.53125 204.117188 L 34.984375 203.886719 L 35.398438 203.585938 L 41.726563 197.257813 L 41.902344 197.164063 L 41.976563 197.15625 L 118.503906 197.15625 L 118.78125 197.109375 L 119.007813 197.074219 L 119.492188 196.917969 L 119.945313 196.683594 L 120.359375 196.386719 L 136.132813 180.609375 L 136.320313 180.351563 L 136.433594 180.199219 L 136.660156 179.757813 L 136.664063 179.746094 L 136.664063 179.742188 L 136.824219 179.257813 L 136.875 178.914063 L 136.902344 178.753906 L 136.902344 167.949219 L 136.921875 167.835938 L 137.066406 167.390625 L 137.097656 167.09375 L 137.097656 161.136719 L 137.066406 160.84375 L 136.910156 160.363281 L 136.644531 159.933594 L 136.628906 159.917969 L 136.632813 159.914063 L 136.550781 159.761719 L 136.542969 159.6875 L 136.542969 150.546875 L 136.597656 150.359375 L 136.628906 150.316406 L 136.644531 150.300781 L 136.910156 149.871094 L 137.066406 149.390625 L 137.097656 149.09375 L 137.097656 143.136719 L 137.066406 142.84375 L 136.910156 142.363281 L 136.644531 141.933594 L 136.628906 141.917969 L 136.632813 141.914063 L 136.550781 141.761719 L 136.542969 141.6875 L 136.542969 132.546875 L 136.597656 132.359375 L 136.628906 132.316406 L 136.644531 132.300781 L 136.910156 131.871094 L 137.066406 131.390625 L 137.097656 131.09375 L 137.097656 125.136719 L 137.066406 124.84375 L 136.910156 124.363281 L 136.644531 123.933594 L 136.628906 123.917969 L 136.632813 123.914063 L 136.550781 123.761719 L 136.542969 123.6875 L 136.542969 115.007813 L 136.550781 114.9375 L 136.609375 114.636719 L 136.609375 114.070313 L 136.5 113.511719 L 136.28125 112.988281 L 135.964844 112.515625 L 132.109375 108.660156 L 132.015625 108.488281 L 132.007813 108.410156 L 132.007813 105.320313 L 132.0625 105.128906 L 132.210938 105 L 132.324219 104.972656 L 132.398438 104.964844 L 132.878906 104.804688 L 133.308594 104.539063 L 133.667969 104.179688 L 133.933594 103.75 L 134.089844 103.273438 L 134.121094 102.976563 L 134.121094 100.136719 L 134.089844 99.839844 L 134.003906 99.582031 L 134 99.382813 L 134.101563 99.214844 L 134.277344 99.125 L 134.449219 99.136719 L 134.921875 99.292969 L 135.21875 99.324219 L 141.175781 99.324219 L 141.472656 99.292969 L 141.949219 99.136719 L 142.378906 98.871094 L 142.738281 98.511719 L 143.003906 98.082031 L 143.160156 97.601563 L 143.191406 97.304688 L 143.191406 94.46875 L 143.160156 94.171875 L 143.003906 93.691406 L 142.738281 93.261719 L 142.378906 92.90625 L 141.949219 92.640625 L 141.65625 92.542969 L 141.472656 92.480469 L 141.175781 92.449219 L 135.21875 92.449219 L 134.921875 92.480469 L 134.449219 92.636719 L 134.25 92.644531 L 134.082031 92.542969 L 133.992188 92.363281 L 134.003906 92.191406 L 134.089844 91.933594 L 134.121094 91.636719 L 134.121094 88.796875 L 134.089844 88.503906 L 134.003906 88.242188 L 134 88.046875 L 134.101563 87.875 L 134.277344 87.785156 L 134.449219 87.796875 L 134.921875 87.957031 L 135.21875 87.984375 L 141.175781 87.984375 L 141.472656 87.957031 L 141.949219 87.796875 L 142.378906 87.53125 L 142.738281 87.171875 L 143.003906 86.742188 L 143.160156 86.265625 L 143.191406 85.96875 L 143.191406 83.128906 L 143.160156 82.832031 L 143.003906 82.351563 L 142.738281 81.921875 L 142.378906 81.566406 L 141.949219 81.300781 L 141.65625 81.203125 L 141.472656 81.140625 L 141.175781 81.113281 L 135.21875 81.113281 L 134.921875 81.140625 L 134.449219 81.296875 L 134.25 81.304688 L 134.082031 81.203125 L 133.992188 81.027344 L 134.003906 80.855469 L 134.089844 80.59375 L 134.121094 80.296875 L 134.121094 77.460938 L 134.089844 77.164063 L 133.933594 76.683594 L 133.667969 76.253906 L 133.308594 75.898438 L 132.878906 75.632813 L 132.675781 75.5625 L 132.398438 75.472656 L 132.105469 75.441406 L 126.148438 75.441406 L 125.851563 75.472656 L 125.371094 75.632813 L 124.941406 75.898438 L 124.882813 75.957031 L 124.707031 76.050781 L 124.632813 76.058594 L 120.578125 76.058594 L 120.386719 76.003906 L 120.296875 75.914063 L 119.886719 75.382813 L 119.5 74.996094 L 119.402344 74.820313 L 119.417969 74.621094 L 119.535156 74.464844 L 119.722656 74.394531 L 119.972656 74.394531 L 120.34375 74.320313 L 120.527344 74.285156 L 121.050781 74.066406 L 121.523438 73.75 L 124.875 70.402344 L 125.046875 70.304688 L 125.121094 70.296875 L 133.847656 70.296875 L 134.03125 70.351563 L 134.441406 70.605469 L 134.921875 70.761719 L 135.21875 70.792969 L 141.175781 70.792969 L 141.472656 70.761719 L 141.949219 70.605469 L 142.378906 70.339844 L 142.738281 69.980469 L 143.003906 69.550781 L 143.160156 69.070313 L 143.191406 68.777344 L 143.191406 65.9375 L 143.160156 65.640625 L 143.003906 65.160156 L 142.738281 64.730469 L 142.378906 64.375 L 141.949219 64.109375 L 141.65625 64.011719 L 141.472656 63.949219 L 141.175781 63.917969 L 135.21875 63.917969 L 134.921875 63.949219 L 134.449219 64.105469 L 134.25 64.113281 L 134.082031 64.011719 L 133.992188 63.835938 L 134.003906 63.660156 L 134.089844 63.402344 L 134.121094 63.105469 L 134.121094 60.265625 L 134.097656 60.023438 L 134.132813 59.832031 L 134.269531 59.6875 L 134.460938 59.636719 L 134.5 59.640625 L 134.738281 59.679688 L 135.304688 59.679688 L 135.867188 59.589844 L 136.234375 59.472656 L 136.339844 59.453125 L 141.175781 59.453125 L 141.472656 59.425781 L 141.949219 59.265625 L 142.378906 59 L 142.738281 58.644531 L 143.003906 58.214844 L 143.160156 57.734375 L 143.191406 57.4375 L 143.191406 54.597656 L 143.160156 54.300781 L 143.003906 53.824219 L 142.738281 53.390625 L 142.378906 53.035156 L 141.949219 52.769531 L 141.472656 52.609375 L 141.175781 52.582031 L 138.976563 52.582031 L 138.785156 52.523438 L 138.65625 52.375 L 138.625 52.230469 L 138.625 45.164063 L 138.617188 45.128906 L 138.535156 44.605469 L 138.449219 44.335938 L 138.359375 44.066406 L 138.101563 43.5625 L 137.769531 43.101563 L 137.367188 42.703125 L 111.855469 17.191406 L 111.398438 16.855469 L 110.894531 16.597656 L 110.355469 16.421875 L 109.792969 16.335938 L 98.3125 16.335938 L 98.226563 16.347656 L 97.753906 16.421875 L 97.574219 16.480469 L 97.464844 16.5 L 95.617188 16.5 L 95.324219 16.53125 L 94.84375 16.6875 L 94.414063 16.953125 L 94.398438 16.964844 L 94.394531 16.964844 L 94.242188 17.046875 L 94.167969 17.054688 L 85.027344 17.054688 L 84.839844 17 L 84.796875 16.964844 L 84.78125 16.953125 L 84.351563 16.6875 L 83.871094 16.53125 L 83.578125 16.5 L 77.617188 16.5 L 77.324219 16.53125 L 76.84375 16.6875 L 76.414063 16.953125 L 76.398438 16.964844 L 76.394531 16.964844 L 76.242188 17.046875 L 76.167969 17.054688 L 67.027344 17.054688 L 66.839844 17 L 66.796875 16.964844 L 66.78125 16.953125 L 66.351563 16.6875 L 65.871094 16.53125 L 65.578125 16.5 L 59.617188 16.5 L 59.324219 16.53125 L 58.84375 16.6875 L 58.414063 16.953125 L 58.398438 16.964844 L 58.394531 16.964844 L 58.242188 17.046875 L 58.167969 17.054688 L 49.027344 17.054688 L 48.839844 17 L 48.796875 16.964844 L 48.78125 16.953125 L 48.351563 16.6875 L 47.871094 16.53125 L 47.578125 16.5 L 45.730469 16.5 L 45.621094 16.480469 L 45.441406 16.421875 L 45.160156 16.378906 L 44.882813 16.335938 L 23.378906 16.335938 L 23.195313 16.363281 L 22.820313 16.421875 L 22.585938 16.5 L 22.28125 16.597656 L 21.777344 16.855469 L 21.316406 17.191406 L 16.140625 22.367188 L 15.996094 22.5625 L 15.808594 22.824219 L 15.550781 23.332031 L 15.375 23.871094 L 15.324219 24.1875 L 15.285156 24.429688 L 15.285156 76.332031 L 15.375 76.890625 L 15.433594 77.070313 L 15.449219 77.179688 L 15.449219 79.027344 L 15.480469 79.324219 L 15.640625 79.800781 L 15.90625 80.234375 L 15.917969 80.25 L 15.914063 80.25 L 15.996094 80.40625 L 16.007813 80.480469 L 16.007813 89.617188 L 15.949219 89.808594 L 15.917969 89.847656 L 15.90625 89.863281 L 15.640625 90.292969 L 15.480469 90.773438 L 15.449219 91.070313 L 15.449219 97.027344 L 15.480469 97.324219 L 15.570313 97.59375 L 15.640625 97.800781 L 15.90625 98.234375 L 16.261719 98.589844 L 16.691406 98.855469 L 17.171875 99.015625 L 17.46875 99.042969 L 18.105469 99.042969 L 18.292969 99.101563 L 18.351563 99.148438 L 24.039063 104.832031 L 24.132813 105.007813 L 24.140625 105.082031 L 24.140625 106.042969 L 24.085938 106.234375 L 23.9375 106.363281 L 23.824219 106.394531 L 23.75 106.402344 L 23.269531 106.5625 L 22.839844 106.828125 L 22.824219 106.839844 L 22.820313 106.835938 L 22.667969 106.917969 L 22.589844 106.925781 L 14.902344 106.925781 L 14.34375 107.039063 L 13.820313 107.253906 L 13.347656 107.570313 L 11.570313 109.351563 L 11.117188 109.800781 L 10.917969 110.003906 L 10.714844 110.203125 L 10.402344 110.675781 L 10.183594 111.199219 L 10.074219 111.757813 L 10.074219 128.941406 L 10.070313 128.980469 L 10.058594 129.09375 L 7.707031 129.09375 L 7.707031 10.28125 L 7.761719 10.09375 L 7.910156 9.964844 L 8.058594 9.933594 L 145.636719 9.933594 Z M 145.828125 9.988281 "/>
</g>
</svg>
