%TF.GenerationSoftware,KiCad,Pcbnew,9.0.5*%
%TF.CreationDate,2025-12-13T17:10:17-05:00*%
%TF.ProjectId,esp32_breakout,65737033-325f-4627-9265-616b6f75742e,rev?*%
%TF.SameCoordinates,Original*%
%TF.FileFunction,Copper,L1,Top*%
%TF.FilePolarity,Positive*%
%FSLAX46Y46*%
G04 Gerber Fmt 4.6, Leading zero omitted, Abs format (unit mm)*
G04 Created by KiCad (PCBNEW 9.0.5) date 2025-12-13 17:10:17*
%MOMM*%
%LPD*%
G01*
G04 APERTURE LIST*
%TA.AperFunction,SMDPad,CuDef*%
%ADD10R,0.900000X2.000000*%
%TD*%
%TA.AperFunction,SMDPad,CuDef*%
%ADD11R,3.810000X1.270000*%
%TD*%
%TA.AperFunction,SMDPad,CuDef*%
%ADD12R,2.000000X0.900000*%
%TD*%
%TA.AperFunction,ViaPad*%
%ADD13C,2.032000*%
%TD*%
%TA.AperFunction,ViaPad*%
%ADD14C,1.524000*%
%TD*%
%TA.AperFunction,Conductor*%
%ADD15C,0.762000*%
%TD*%
%TA.AperFunction,Conductor*%
%ADD16C,1.016000*%
%TD*%
%TA.AperFunction,Conductor*%
%ADD17C,0.508000*%
%TD*%
%TA.AperFunction,Conductor*%
%ADD18C,0.889000*%
%TD*%
G04 APERTURE END LIST*
D10*
%TO.P,A4,1,Pin_1*%
%TO.N,ADC4*%
X6445000Y-66040000D03*
%TO.P,A4,2,Pin_2*%
%TO.N,3V3*%
X4445000Y-62840000D03*
%TO.P,A4,3,Pin_3*%
%TO.N,GND*%
X2445000Y-66040000D03*
%TD*%
%TO.P,A3,1,Pin_1*%
%TO.N,ADC3*%
X6445000Y-59690000D03*
%TO.P,A3,2,Pin_2*%
%TO.N,3V3*%
X4445000Y-56490000D03*
%TO.P,A3,3,Pin_3*%
%TO.N,GND*%
X2445000Y-59690000D03*
%TD*%
%TO.P,A2,1,Pin_1*%
%TO.N,ADC2*%
X6445000Y-53340000D03*
%TO.P,A2,2,Pin_2*%
%TO.N,3V3*%
X4445000Y-50140000D03*
%TO.P,A2,3,Pin_3*%
%TO.N,GND*%
X2445000Y-53340000D03*
%TD*%
D11*
%TO.P,U1,J2-1,3V3*%
%TO.N,3V3*%
X13970000Y-12065000D03*
%TO.P,U1,J2-2,EN*%
%TO.N,unconnected-(U1-EN-PadJ2-2)*%
X11430000Y-14605000D03*
%TO.P,U1,J2-3,SENSOR_VP*%
%TO.N,unconnected-(U1-SENSOR_VP-PadJ2-3)*%
X13970000Y-17145000D03*
%TO.P,U1,J2-4,SENSOR_VN*%
%TO.N,unconnected-(U1-SENSOR_VN-PadJ2-4)*%
X11430000Y-19685000D03*
%TO.P,U1,J2-5,IO34*%
%TO.N,unconnected-(U1-IO34-PadJ2-5)*%
X13970000Y-22225000D03*
%TO.P,U1,J2-6,IO35*%
%TO.N,unconnected-(U1-IO35-PadJ2-6)*%
X11430000Y-24765000D03*
%TO.P,U1,J2-7,IO32*%
%TO.N,unconnected-(U1-IO32-PadJ2-7)*%
X13970000Y-27305000D03*
%TO.P,U1,J2-8,IO33*%
%TO.N,unconnected-(U1-IO33-PadJ2-8)*%
X11430000Y-29845000D03*
%TO.P,U1,J2-9,IO25*%
%TO.N,DAC1*%
X13970000Y-32385000D03*
%TO.P,U1,J2-10,IO26*%
%TO.N,DAC2*%
X11430000Y-34925000D03*
%TO.P,U1,J2-11,IO27*%
%TO.N,SPI2_CS*%
X13970000Y-37465000D03*
%TO.P,U1,J2-12,IO14*%
%TO.N,SPI2_SCK*%
X11430000Y-40005000D03*
%TO.P,U1,J2-13,IO12*%
%TO.N,SPI2_MISO*%
X13970000Y-42545000D03*
%TO.P,U1,J2-14,GND1*%
%TO.N,GND*%
X11430000Y-45085000D03*
%TO.P,U1,J2-15,IO13*%
%TO.N,SPI2_MOSI*%
X13970000Y-47625000D03*
%TO.P,U1,J2-16,SD2*%
%TO.N,unconnected-(U1-SD2-PadJ2-16)*%
X11430000Y-50165000D03*
%TO.P,U1,J2-17,SD3*%
%TO.N,unconnected-(U1-SD3-PadJ2-17)*%
X13970000Y-52705000D03*
%TO.P,U1,J2-18,CMD*%
%TO.N,unconnected-(U1-CMD-PadJ2-18)*%
X11430000Y-55245000D03*
%TO.P,U1,J2-19,EXT_5V*%
%TO.N,5V*%
X13970000Y-57785000D03*
%TO.P,U1,J3-1,GND3*%
%TO.N,GND*%
X36830000Y-12065000D03*
%TO.P,U1,J3-2,IO23*%
%TO.N,SPI_MOSI*%
X34290000Y-14605000D03*
%TO.P,U1,J3-3,IO22*%
%TO.N,I2C_SCL*%
X36830000Y-17145000D03*
%TO.P,U1,J3-4,TXD0*%
%TO.N,U0_RX*%
X34290000Y-19685000D03*
%TO.P,U1,J3-5,RXD0*%
%TO.N,U0_TX*%
X36830000Y-22225000D03*
%TO.P,U1,J3-6,IO21*%
%TO.N,I2C_SDA*%
X34290000Y-24765000D03*
%TO.P,U1,J3-7,GND2*%
%TO.N,GND*%
X36830000Y-27305000D03*
%TO.P,U1,J3-8,IO19*%
%TO.N,SPI_MISO*%
X34290000Y-29845000D03*
%TO.P,U1,J3-9,IO18*%
%TO.N,SPI_SCK*%
X36830000Y-32385000D03*
%TO.P,U1,J3-10,IO5*%
%TO.N,SPI_CS*%
X34290000Y-34925000D03*
%TO.P,U1,J3-11,IO17*%
%TO.N,SIG1*%
X36830000Y-37465000D03*
%TO.P,U1,J3-12,IO16*%
%TO.N,SIG2*%
X34290000Y-40005000D03*
%TO.P,U1,J3-13,IO4*%
%TO.N,ADC1*%
X36830000Y-42545000D03*
%TO.P,U1,J3-14,IO0*%
%TO.N,ADC2*%
X34290000Y-45085000D03*
%TO.P,U1,J3-15,IO2*%
%TO.N,ADC3*%
X36830000Y-47625000D03*
%TO.P,U1,J3-16,IO15*%
%TO.N,ADC4*%
X34290000Y-50165000D03*
%TO.P,U1,J3-17,SD1*%
%TO.N,unconnected-(U1-SD1-PadJ3-17)*%
X36830000Y-52705000D03*
%TO.P,U1,J3-18,SD0*%
%TO.N,unconnected-(U1-SD0-PadJ3-18)*%
X34290000Y-55245000D03*
%TO.P,U1,J3-19,CLK*%
%TO.N,unconnected-(U1-CLK-PadJ3-19)*%
X36830000Y-57785000D03*
%TD*%
D12*
%TO.P,J16,1,Pin_1*%
%TO.N,SPI2_MOSI*%
X7315000Y-43735000D03*
%TO.P,J16,2,Pin_2*%
%TO.N,SPI2_MISO*%
X4115000Y-41735000D03*
%TO.P,J16,3,Pin_3*%
%TO.N,SPI2_SCK*%
X7315000Y-39735000D03*
%TO.P,J16,4,Pin_4*%
%TO.N,SPI2_CS*%
X4115000Y-37735000D03*
%TO.P,J16,5,Pin_5*%
%TO.N,3V3*%
X7315000Y-35735000D03*
%TO.P,J16,6,Pin_6*%
%TO.N,GND*%
X4115000Y-33735000D03*
%TD*%
D10*
%TO.P,J15,1,Pin_1*%
%TO.N,DAC2*%
X6445000Y-26975000D03*
%TO.P,J15,2,Pin_2*%
%TO.N,3V3*%
X4445000Y-30175000D03*
%TO.P,J15,3,Pin_3*%
%TO.N,GND*%
X2445000Y-26975000D03*
%TD*%
%TO.P,J14,1,Pin_1*%
%TO.N,DAC1*%
X6445000Y-20625000D03*
%TO.P,J14,2,Pin_2*%
%TO.N,3V3*%
X4445000Y-23825000D03*
%TO.P,J14,3,Pin_3*%
%TO.N,GND*%
X2445000Y-20625000D03*
%TD*%
D12*
%TO.P,J12,1,Pin_1*%
%TO.N,SPI_MOSI*%
X43334520Y-24823617D03*
%TO.P,J12,2,Pin_2*%
%TO.N,SPI_MISO*%
X46534520Y-26823617D03*
%TO.P,J12,3,Pin_3*%
%TO.N,SPI_SCK*%
X43334520Y-28823617D03*
%TO.P,J12,4,Pin_4*%
%TO.N,SPI_CS*%
X46534520Y-30823617D03*
%TO.P,J12,5,Pin_5*%
%TO.N,3V3*%
X43334520Y-32823617D03*
%TO.P,J12,6,Pin_6*%
%TO.N,GND*%
X46534520Y-34823617D03*
%TD*%
%TO.P,J10,1,Pin_1*%
%TO.N,U0_TX*%
X46534520Y-20758617D03*
%TO.P,J10,2,Pin_2*%
%TO.N,U0_RX*%
X43334520Y-18758617D03*
%TO.P,J10,3,Pin_3*%
%TO.N,3V3*%
X46534520Y-16758617D03*
%TO.P,J10,4,Pin_4*%
%TO.N,GND*%
X43334520Y-14758617D03*
%TD*%
%TO.P,I2C3,4,Pin_4*%
%TO.N,GND*%
X10315000Y-2030000D03*
%TO.P,I2C3,3,Pin_3*%
%TO.N,3V3*%
X13515000Y-4030000D03*
%TO.P,I2C3,2,Pin_2*%
%TO.N,I2C_SDA*%
X10315000Y-6030000D03*
%TO.P,I2C3,1,Pin_1*%
%TO.N,I2C_SCL*%
X13515000Y-8030000D03*
%TD*%
%TO.P,I2C4,4,Pin_4*%
%TO.N,GND*%
X16665000Y-2030000D03*
%TO.P,I2C4,3,Pin_3*%
%TO.N,3V3*%
X19865000Y-4030000D03*
%TO.P,I2C4,2,Pin_2*%
%TO.N,I2C_SDA*%
X16665000Y-6030000D03*
%TO.P,I2C4,1,Pin_1*%
%TO.N,I2C_SCL*%
X19865000Y-8030000D03*
%TD*%
%TO.P,I2C2,4,Pin_4*%
%TO.N,GND*%
X23015000Y-2030000D03*
%TO.P,I2C2,3,Pin_3*%
%TO.N,3V3*%
X26215000Y-4030000D03*
%TO.P,I2C2,2,Pin_2*%
%TO.N,I2C_SDA*%
X23015000Y-6030000D03*
%TO.P,I2C2,1,Pin_1*%
%TO.N,I2C_SCL*%
X26215000Y-8030000D03*
%TD*%
%TO.P,I2C1,4,Pin_4*%
%TO.N,GND*%
X29365000Y-2030000D03*
%TO.P,I2C1,3,Pin_3*%
%TO.N,3V3*%
X32565000Y-4030000D03*
%TO.P,I2C1,2,Pin_2*%
%TO.N,I2C_SDA*%
X29365000Y-6030000D03*
%TO.P,I2C1,1,Pin_1*%
%TO.N,I2C_SCL*%
X32565000Y-8030000D03*
%TD*%
D10*
%TO.P,A1,1,Pin_1*%
%TO.N,ADC1*%
X42934520Y-58093617D03*
%TO.P,A1,2,Pin_2*%
%TO.N,3V3*%
X44934520Y-54893617D03*
%TO.P,A1,3,Pin_3*%
%TO.N,GND*%
X46934520Y-58093617D03*
%TD*%
%TO.P,X2,1,Pin_1*%
%TO.N,SIG2*%
X42934520Y-51743617D03*
%TO.P,X2,2,Pin_2*%
%TO.N,3V3*%
X44934520Y-48543617D03*
%TO.P,X2,3,Pin_3*%
%TO.N,GND*%
X46934520Y-51743617D03*
%TD*%
%TO.P,X1,1,Pin_1*%
%TO.N,SIG1*%
X42934520Y-45393617D03*
%TO.P,X1,2,Pin_2*%
%TO.N,3V3*%
X44934520Y-42193617D03*
%TO.P,X1,3,Pin_3*%
%TO.N,GND*%
X46934520Y-45393617D03*
%TD*%
D13*
%TO.N,GND*%
X8255000Y-46355000D03*
X1778000Y-46482000D03*
D14*
X35560000Y-8890000D03*
X35560000Y-1905000D03*
D13*
%TO.N,SPI_MOSI*%
X38735000Y-24765000D03*
X38735000Y-14605000D03*
%TD*%
D15*
%TO.N,3V3*%
X39497000Y-65405000D02*
X37501000Y-65405000D01*
X44934520Y-59967480D02*
X39497000Y-65405000D01*
X44934520Y-54893617D02*
X44934520Y-59967480D01*
D16*
%TO.N,GND*%
X46934520Y-62920480D02*
X45815000Y-64040000D01*
X46934520Y-58093617D02*
X46934520Y-62920480D01*
D17*
X46934520Y-51743617D02*
X46934520Y-58093617D01*
X46934520Y-45393617D02*
X46934520Y-51743617D01*
D16*
X46934520Y-40568480D02*
X46934520Y-45393617D01*
X46990000Y-40513000D02*
X46934520Y-40568480D01*
D17*
X46534520Y-40057520D02*
X46990000Y-40513000D01*
D16*
X46534520Y-34823617D02*
X46534520Y-40057520D01*
D17*
%TO.N,3V3*%
X44934520Y-48543617D02*
X44934520Y-54893617D01*
X44934520Y-42193617D02*
X44934520Y-48543617D01*
%TO.N,ADC1*%
X38989000Y-42545000D02*
X35560000Y-42545000D01*
X40132000Y-52451000D02*
X40132000Y-43688000D01*
X42934520Y-55253520D02*
X40132000Y-52451000D01*
X40132000Y-43688000D02*
X38989000Y-42545000D01*
X42934520Y-58093617D02*
X42934520Y-55253520D01*
%TO.N,SIG2*%
X42934520Y-49030520D02*
X42934520Y-51743617D01*
X41275000Y-47371000D02*
X42934520Y-49030520D01*
X40005000Y-40005000D02*
X41275000Y-41275000D01*
X35560000Y-40005000D02*
X40005000Y-40005000D01*
X41275000Y-41275000D02*
X41275000Y-47371000D01*
%TO.N,SIG1*%
X42934520Y-40267520D02*
X42934520Y-45393617D01*
X40132000Y-37465000D02*
X42934520Y-40267520D01*
X35560000Y-37465000D02*
X40132000Y-37465000D01*
%TO.N,3V3*%
X44934520Y-37361480D02*
X44934520Y-42193617D01*
X44958000Y-37338000D02*
X44934520Y-37361480D01*
X43334520Y-35714520D02*
X44958000Y-37338000D01*
X43334520Y-32823617D02*
X43334520Y-35714520D01*
%TO.N,SPI_CS*%
X40259000Y-34925000D02*
X35560000Y-34925000D01*
X40259000Y-32923137D02*
X40259000Y-34925000D01*
X42358520Y-30823617D02*
X40259000Y-32923137D01*
X46534520Y-30823617D02*
X42358520Y-30823617D01*
%TO.N,SPI_SCK*%
X41534383Y-28823617D02*
X43334520Y-28823617D01*
X37973000Y-32385000D02*
X41534383Y-28823617D01*
X35560000Y-32385000D02*
X37973000Y-32385000D01*
%TO.N,SPI_MISO*%
X35560000Y-29845000D02*
X38239000Y-29845000D01*
%TO.N,SPI_MOSI*%
X35560000Y-14605000D02*
X38735000Y-14605000D01*
X40085000Y-24845000D02*
X42215000Y-24845000D01*
X38735000Y-24765000D02*
X40085000Y-24845000D01*
D18*
%TO.N,GND*%
X17145000Y-45085000D02*
X12700000Y-45085000D01*
X30480000Y-27305000D02*
X17145000Y-45085000D01*
X35560000Y-27305000D02*
X30480000Y-27305000D01*
D16*
%TO.N,3V3*%
X4445000Y-5715000D02*
X4445000Y-17524000D01*
X13515000Y-4030000D02*
X6130000Y-4030000D01*
X6130000Y-4030000D02*
X4445000Y-5715000D01*
%TO.N,GND*%
X2445000Y-3905000D02*
X2445000Y-20625000D01*
X4320000Y-2030000D02*
X2445000Y-3905000D01*
X10315000Y-2030000D02*
X4320000Y-2030000D01*
X40640000Y-69215000D02*
X45815000Y-64040000D01*
X4445000Y-69215000D02*
X40640000Y-69215000D01*
X2445000Y-67215000D02*
X4445000Y-69215000D01*
D17*
X2445000Y-66040000D02*
X2445000Y-67215000D01*
X2445000Y-48990000D02*
X2445000Y-53340000D01*
X2540000Y-48895000D02*
X2445000Y-48990000D01*
X1270000Y-47625000D02*
X2540000Y-48895000D01*
X1270000Y-46355000D02*
X1270000Y-47625000D01*
X1270000Y-36165745D02*
X1270000Y-46355000D01*
%TO.N,3V3*%
X2540000Y-43180000D02*
X4445000Y-50140000D01*
X2352000Y-42545000D02*
X2540000Y-43180000D01*
X2352000Y-36522000D02*
X2352000Y-42545000D01*
X3139000Y-35735000D02*
X2352000Y-36522000D01*
X7315000Y-35735000D02*
X3139000Y-35735000D01*
%TO.N,SPI2_MOSI*%
X12445000Y-47880000D02*
X12700000Y-47625000D01*
X5970000Y-47880000D02*
X12445000Y-47880000D01*
X5715000Y-47625000D02*
X5970000Y-47880000D01*
X5715000Y-46355000D02*
X5715000Y-47625000D01*
X7315000Y-43735000D02*
X7315000Y-44755000D01*
X7315000Y-44755000D02*
X5715000Y-46355000D01*
%TO.N,GND*%
X11430000Y-46355000D02*
X12700000Y-45085000D01*
X8255000Y-46355000D02*
X11430000Y-46355000D01*
X35560000Y-8890000D02*
X35560000Y-12065000D01*
X35435000Y-2030000D02*
X35560000Y-1905000D01*
X29365000Y-2030000D02*
X35435000Y-2030000D01*
D15*
%TO.N,3V3*%
X12065000Y-65405000D02*
X37501000Y-65405000D01*
X9525000Y-67945000D02*
X12065000Y-65405000D01*
X5374000Y-67945000D02*
X9525000Y-67945000D01*
X4445000Y-67016000D02*
X5374000Y-67945000D01*
D16*
X4445000Y-62840000D02*
X4445000Y-67016000D01*
D17*
%TO.N,ADC4*%
X9525000Y-62359000D02*
X16717512Y-62358999D01*
X20449000Y-58627510D02*
X20449000Y-53340000D01*
X16717512Y-62358999D02*
X20449000Y-58627510D01*
X9525000Y-62960000D02*
X9525000Y-62359000D01*
X23624000Y-50165000D02*
X35560000Y-50165000D01*
X6445000Y-66040000D02*
X9525000Y-62960000D01*
X20449000Y-53340000D02*
X23624000Y-50165000D01*
%TO.N,ADC3*%
X19432000Y-47625000D02*
X35560000Y-47625000D01*
X19432000Y-58206255D02*
X19432000Y-47625000D01*
X16296256Y-61342000D02*
X19432000Y-58206255D01*
X8097000Y-61342000D02*
X16296256Y-61342000D01*
X6445000Y-59690000D02*
X8097000Y-61342000D01*
%TO.N,ADC2*%
X18415000Y-57785000D02*
X18415000Y-46355000D01*
X11430000Y-60325000D02*
X15875000Y-60325000D01*
X6445000Y-55340000D02*
X11430000Y-60325000D01*
X18415000Y-46355000D02*
X19685000Y-45085000D01*
X6445000Y-53340000D02*
X6445000Y-55340000D01*
X15875000Y-60325000D02*
X18415000Y-57785000D01*
X19685000Y-45085000D02*
X35560000Y-45085000D01*
%TO.N,SPI_MISO*%
X45415000Y-26845000D02*
X41239000Y-26845000D01*
X41239000Y-26845000D02*
X38239000Y-29845000D01*
%TO.N,GND*%
X2445000Y-59690000D02*
X2445000Y-66040000D01*
X2445000Y-53340000D02*
X2445000Y-59690000D01*
X3700745Y-33735000D02*
X1270000Y-36165745D01*
X4115000Y-33735000D02*
X3700745Y-33735000D01*
%TO.N,3V3*%
X4445000Y-56490000D02*
X4445000Y-62840000D01*
X4445000Y-50140000D02*
X4445000Y-56490000D01*
%TO.N,SPI2_MISO*%
X11890000Y-41735000D02*
X12700000Y-42545000D01*
X4115000Y-41735000D02*
X11890000Y-41735000D01*
%TO.N,SPI2_SCK*%
X12430000Y-39735000D02*
X12700000Y-40005000D01*
X7315000Y-39735000D02*
X12430000Y-39735000D01*
%TO.N,SPI2_CS*%
X12430000Y-37735000D02*
X12700000Y-37465000D01*
X4115000Y-37735000D02*
X12430000Y-37735000D01*
%TO.N,3V3*%
X4445000Y-30725000D02*
X7315000Y-33595000D01*
X7315000Y-33595000D02*
X7315000Y-35735000D01*
X4445000Y-30175000D02*
X4445000Y-30725000D01*
X4445000Y-23825000D02*
X4445000Y-30175000D01*
%TO.N,DAC2*%
X10626744Y-34925000D02*
X12700000Y-34925000D01*
X6445000Y-30743256D02*
X10626744Y-34925000D01*
X6445000Y-26975000D02*
X6445000Y-30743256D01*
%TO.N,DAC1*%
X9525000Y-32385000D02*
X12700000Y-32385000D01*
X8255000Y-22435000D02*
X8255000Y-31115000D01*
X8255000Y-31115000D02*
X9525000Y-32385000D01*
X6445000Y-20625000D02*
X8255000Y-22435000D01*
%TO.N,GND*%
X2445000Y-32065000D02*
X4115000Y-33735000D01*
X2445000Y-26975000D02*
X2445000Y-32065000D01*
X2445000Y-20625000D02*
X2445000Y-26975000D01*
D16*
%TO.N,3V3*%
X4445000Y-17524000D02*
X4445000Y-23825000D01*
X12700000Y-12065000D02*
X9904000Y-12065000D01*
X9904000Y-12065000D02*
X4445000Y-17524000D01*
D17*
%TO.N,I2C_SDA*%
X19685000Y-10160000D02*
X12700000Y-10160000D01*
X10315000Y-7775000D02*
X10315000Y-6030000D01*
X25400000Y-15875000D02*
X19685000Y-10160000D01*
X25400000Y-17780000D02*
X25400000Y-15875000D01*
X12700000Y-10160000D02*
X10315000Y-7775000D01*
X32385000Y-24765000D02*
X25400000Y-17780000D01*
X35560000Y-24765000D02*
X32385000Y-24765000D01*
%TO.N,I2C_SCL*%
X30480000Y-13335000D02*
X32565000Y-11250000D01*
X30480000Y-16510000D02*
X30480000Y-13335000D01*
X32565000Y-11250000D02*
X32565000Y-8030000D01*
X35560000Y-17145000D02*
X31115000Y-17145000D01*
X31115000Y-17145000D02*
X30480000Y-16510000D01*
D15*
%TO.N,GND*%
X42215000Y-13822000D02*
X42215000Y-14780000D01*
X40458000Y-12065000D02*
X42215000Y-13822000D01*
X35560000Y-12065000D02*
X40458000Y-12065000D01*
D16*
%TO.N,3V3*%
X36415000Y-4030000D02*
X45415000Y-13030000D01*
X32565000Y-4030000D02*
X36415000Y-4030000D01*
X45415000Y-13030000D02*
X45415000Y-16780000D01*
D17*
%TO.N,I2C_SCL*%
X19865000Y-8030000D02*
X13515000Y-8030000D01*
X26215000Y-8030000D02*
X19865000Y-8030000D01*
X32565000Y-8030000D02*
X26215000Y-8030000D01*
%TO.N,I2C_SDA*%
X16665000Y-6030000D02*
X10315000Y-6030000D01*
X23015000Y-6030000D02*
X16665000Y-6030000D01*
X29365000Y-6030000D02*
X23015000Y-6030000D01*
%TO.N,3V3*%
X19865000Y-4030000D02*
X13515000Y-4030000D01*
X26215000Y-4030000D02*
X19865000Y-4030000D01*
X32565000Y-4030000D02*
X26215000Y-4030000D01*
%TO.N,GND*%
X29365000Y-2030000D02*
X23015000Y-2030000D01*
X23015000Y-2030000D02*
X16665000Y-2030000D01*
X10315000Y-2030000D02*
X16665000Y-2030000D01*
%TO.N,U0_TX*%
X40005000Y-22225000D02*
X35560000Y-22225000D01*
X41450000Y-20780000D02*
X40005000Y-22225000D01*
X45415000Y-20780000D02*
X41450000Y-20780000D01*
%TO.N,U0_RX*%
X39005000Y-18780000D02*
X38100000Y-19685000D01*
X42215000Y-18780000D02*
X39005000Y-18780000D01*
X38100000Y-19685000D02*
X35560000Y-19685000D01*
%TD*%
%TA.AperFunction,Conductor*%
%TO.N,GND*%
G36*
X19279629Y-11196185D02*
G01*
X19300271Y-11212819D01*
X24347181Y-16259729D01*
X24380666Y-16321052D01*
X24383500Y-16347410D01*
X24383500Y-17679884D01*
X24383500Y-17880116D01*
X24383500Y-17880118D01*
X24383499Y-17880118D01*
X24422562Y-18076496D01*
X24422564Y-18076502D01*
X24499189Y-18261491D01*
X24610434Y-18427983D01*
X24610435Y-18427984D01*
X31590082Y-25407630D01*
X31623567Y-25468953D01*
X31625759Y-25482709D01*
X31633169Y-25555241D01*
X31689235Y-25724437D01*
X31689237Y-25724442D01*
X31708210Y-25755202D01*
X31782811Y-25876149D01*
X31908851Y-26002189D01*
X32060560Y-26095764D01*
X32229759Y-26151831D01*
X32334189Y-26162500D01*
X36245810Y-26162499D01*
X36350241Y-26151831D01*
X36519440Y-26095764D01*
X36671149Y-26002189D01*
X36797189Y-25876149D01*
X36890764Y-25724440D01*
X36929477Y-25607609D01*
X36969248Y-25550167D01*
X37033764Y-25523343D01*
X37102540Y-25535658D01*
X37153740Y-25583200D01*
X37154569Y-25584615D01*
X37253057Y-25755201D01*
X37394982Y-25940161D01*
X37394988Y-25940168D01*
X37559831Y-26105011D01*
X37559838Y-26105017D01*
X37744798Y-26246942D01*
X37946698Y-26363509D01*
X37946708Y-26363514D01*
X38162083Y-26452725D01*
X38162093Y-26452729D01*
X38387287Y-26513069D01*
X38618431Y-26543500D01*
X38618438Y-26543500D01*
X38851562Y-26543500D01*
X38851569Y-26543500D01*
X39082713Y-26513069D01*
X39307907Y-26452729D01*
X39523298Y-26363511D01*
X39725202Y-26246942D01*
X39910163Y-26105016D01*
X40075016Y-25940163D01*
X40098149Y-25910014D01*
X40154576Y-25868811D01*
X40196526Y-25861500D01*
X40485589Y-25861500D01*
X40552628Y-25881185D01*
X40598383Y-25933989D01*
X40608327Y-26003147D01*
X40579302Y-26066703D01*
X40573270Y-26073181D01*
X37854271Y-28792181D01*
X37792948Y-28825666D01*
X37766590Y-28828500D01*
X36924776Y-28828500D01*
X36857737Y-28808815D01*
X36819238Y-28769597D01*
X36797191Y-28733854D01*
X36797188Y-28733850D01*
X36671150Y-28607812D01*
X36671149Y-28607811D01*
X36519440Y-28514236D01*
X36448498Y-28490728D01*
X36350242Y-28458169D01*
X36350235Y-28458168D01*
X36245812Y-28447500D01*
X32334196Y-28447500D01*
X32334180Y-28447501D01*
X32229757Y-28458169D01*
X32060562Y-28514235D01*
X32060557Y-28514237D01*
X31908849Y-28607812D01*
X31782812Y-28733849D01*
X31689237Y-28885557D01*
X31689235Y-28885562D01*
X31633169Y-29054757D01*
X31633168Y-29054764D01*
X31622500Y-29159181D01*
X31622500Y-30530803D01*
X31622501Y-30530819D01*
X31633168Y-30635235D01*
X31633169Y-30635241D01*
X31689236Y-30804440D01*
X31782811Y-30956149D01*
X31908851Y-31082189D01*
X32060560Y-31175764D01*
X32229759Y-31231831D01*
X32334189Y-31242500D01*
X34119974Y-31242499D01*
X34187013Y-31262184D01*
X34232768Y-31314987D01*
X34242712Y-31384146D01*
X34230444Y-31418151D01*
X34232290Y-31419012D01*
X34229235Y-31425562D01*
X34173169Y-31594757D01*
X34173168Y-31594764D01*
X34162500Y-31699181D01*
X34162500Y-33070803D01*
X34162501Y-33070819D01*
X34173169Y-33175242D01*
X34229235Y-33344437D01*
X34232290Y-33350988D01*
X34229439Y-33352316D01*
X34243937Y-33406491D01*
X34222641Y-33473036D01*
X34168749Y-33517504D01*
X34119973Y-33527500D01*
X32334196Y-33527500D01*
X32334180Y-33527501D01*
X32229757Y-33538169D01*
X32060562Y-33594235D01*
X32060557Y-33594237D01*
X31908849Y-33687812D01*
X31782812Y-33813849D01*
X31689237Y-33965557D01*
X31689235Y-33965562D01*
X31633169Y-34134757D01*
X31633168Y-34134764D01*
X31622500Y-34239181D01*
X31622500Y-35610803D01*
X31622501Y-35610819D01*
X31633169Y-35715242D01*
X31689235Y-35884437D01*
X31689237Y-35884442D01*
X31714780Y-35925853D01*
X31782811Y-36036149D01*
X31908851Y-36162189D01*
X32060560Y-36255764D01*
X32229759Y-36311831D01*
X32334189Y-36322500D01*
X34119974Y-36322499D01*
X34187013Y-36342184D01*
X34232768Y-36394987D01*
X34242712Y-36464146D01*
X34230444Y-36498151D01*
X34232290Y-36499012D01*
X34229235Y-36505562D01*
X34173169Y-36674757D01*
X34173168Y-36674764D01*
X34162500Y-36779181D01*
X34162500Y-38150803D01*
X34162501Y-38150819D01*
X34173169Y-38255242D01*
X34229235Y-38424437D01*
X34232290Y-38430988D01*
X34229439Y-38432316D01*
X34243937Y-38486491D01*
X34222641Y-38553036D01*
X34168749Y-38597504D01*
X34119973Y-38607500D01*
X32334196Y-38607500D01*
X32334180Y-38607501D01*
X32229757Y-38618169D01*
X32060562Y-38674235D01*
X32060557Y-38674237D01*
X31908849Y-38767812D01*
X31782812Y-38893849D01*
X31689237Y-39045557D01*
X31689235Y-39045562D01*
X31633169Y-39214757D01*
X31633168Y-39214764D01*
X31622500Y-39319181D01*
X31622500Y-40690803D01*
X31622501Y-40690819D01*
X31633169Y-40795242D01*
X31689235Y-40964437D01*
X31689236Y-40964440D01*
X31782811Y-41116149D01*
X31908851Y-41242189D01*
X32060560Y-41335764D01*
X32229759Y-41391831D01*
X32334189Y-41402500D01*
X34119974Y-41402499D01*
X34187013Y-41422184D01*
X34232768Y-41474987D01*
X34242712Y-41544146D01*
X34230444Y-41578151D01*
X34232290Y-41579012D01*
X34229235Y-41585562D01*
X34173169Y-41754757D01*
X34173168Y-41754764D01*
X34162500Y-41859181D01*
X34162500Y-43230803D01*
X34162501Y-43230819D01*
X34173169Y-43335242D01*
X34229235Y-43504437D01*
X34232290Y-43510988D01*
X34229439Y-43512316D01*
X34243937Y-43566491D01*
X34222641Y-43633036D01*
X34168749Y-43677504D01*
X34119973Y-43687500D01*
X32334196Y-43687500D01*
X32334180Y-43687501D01*
X32229757Y-43698169D01*
X32060562Y-43754235D01*
X32060557Y-43754237D01*
X31908849Y-43847812D01*
X31782811Y-43973850D01*
X31782808Y-43973854D01*
X31760762Y-44009597D01*
X31708814Y-44056322D01*
X31655224Y-44068500D01*
X19584881Y-44068500D01*
X19388503Y-44107562D01*
X19388497Y-44107564D01*
X19203508Y-44184189D01*
X19037016Y-44295434D01*
X19037015Y-44295435D01*
X17929471Y-45402981D01*
X17767019Y-45565433D01*
X17696226Y-45636226D01*
X17625433Y-45707018D01*
X17514189Y-45873508D01*
X17437564Y-46058497D01*
X17437562Y-46058503D01*
X17398500Y-46254881D01*
X17398500Y-57312589D01*
X17378815Y-57379628D01*
X17362181Y-57400270D01*
X16849180Y-57913271D01*
X16787857Y-57946756D01*
X16718165Y-57941772D01*
X16662232Y-57899900D01*
X16637815Y-57834436D01*
X16637499Y-57825590D01*
X16637499Y-57099196D01*
X16637498Y-57099181D01*
X16631738Y-57042798D01*
X16626831Y-56994759D01*
X16570764Y-56825560D01*
X16477189Y-56673851D01*
X16351149Y-56547811D01*
X16199440Y-56454236D01*
X16199437Y-56454235D01*
X16030242Y-56398169D01*
X16030235Y-56398168D01*
X15925818Y-56387500D01*
X15925811Y-56387500D01*
X14140026Y-56387500D01*
X14072987Y-56367815D01*
X14027232Y-56315011D01*
X14017288Y-56245853D01*
X14029621Y-56211879D01*
X14027710Y-56210988D01*
X14030758Y-56204449D01*
X14030764Y-56204440D01*
X14086831Y-56035241D01*
X14097500Y-55930811D01*
X14097499Y-54559190D01*
X14086831Y-54454759D01*
X14030764Y-54285560D01*
X14030760Y-54285553D01*
X14027710Y-54279012D01*
X14030609Y-54277660D01*
X14016055Y-54223826D01*
X14037180Y-54157227D01*
X14090958Y-54112621D01*
X14140026Y-54102499D01*
X15925804Y-54102499D01*
X15925810Y-54102499D01*
X16030241Y-54091831D01*
X16199440Y-54035764D01*
X16351149Y-53942189D01*
X16477189Y-53816149D01*
X16570764Y-53664440D01*
X16626831Y-53495241D01*
X16637500Y-53390811D01*
X16637499Y-52019190D01*
X16626831Y-51914759D01*
X16570764Y-51745560D01*
X16477189Y-51593851D01*
X16351149Y-51467811D01*
X16199440Y-51374236D01*
X16107681Y-51343830D01*
X16030242Y-51318169D01*
X16030235Y-51318168D01*
X15925818Y-51307500D01*
X15925811Y-51307500D01*
X14140026Y-51307500D01*
X14072987Y-51287815D01*
X14027232Y-51235011D01*
X14017288Y-51165853D01*
X14029621Y-51131879D01*
X14027710Y-51130988D01*
X14030758Y-51124449D01*
X14030764Y-51124440D01*
X14086831Y-50955241D01*
X14097500Y-50850811D01*
X14097499Y-49479190D01*
X14086831Y-49374759D01*
X14030764Y-49205560D01*
X14030760Y-49205553D01*
X14027710Y-49199012D01*
X14030609Y-49197660D01*
X14016055Y-49143826D01*
X14037180Y-49077227D01*
X14090958Y-49032621D01*
X14140026Y-49022499D01*
X15925804Y-49022499D01*
X15925810Y-49022499D01*
X16030241Y-49011831D01*
X16199440Y-48955764D01*
X16351149Y-48862189D01*
X16477189Y-48736149D01*
X16570764Y-48584440D01*
X16626831Y-48415241D01*
X16637500Y-48310811D01*
X16637499Y-46939190D01*
X16626831Y-46834759D01*
X16570764Y-46665560D01*
X16477189Y-46513851D01*
X16351149Y-46387811D01*
X16199440Y-46294236D01*
X16107681Y-46263830D01*
X16030242Y-46238169D01*
X16030235Y-46238168D01*
X15925812Y-46227500D01*
X12014196Y-46227500D01*
X12014180Y-46227501D01*
X11909757Y-46238169D01*
X11740562Y-46294235D01*
X11740557Y-46294237D01*
X11588849Y-46387812D01*
X11462812Y-46513849D01*
X11369237Y-46665557D01*
X11369235Y-46665562D01*
X11331810Y-46778504D01*
X11292037Y-46835949D01*
X11227521Y-46862772D01*
X11214104Y-46863500D01*
X6943410Y-46863500D01*
X6876371Y-46843815D01*
X6830616Y-46791011D01*
X6820672Y-46721853D01*
X6849697Y-46658297D01*
X6855729Y-46651819D01*
X8104565Y-45402983D01*
X8104567Y-45402981D01*
X8215810Y-45236493D01*
X8292436Y-45051502D01*
X8294156Y-45042853D01*
X8326538Y-44980942D01*
X8387252Y-44946365D01*
X8403169Y-44943682D01*
X8470241Y-44936831D01*
X8639440Y-44880764D01*
X8791149Y-44787189D01*
X8917189Y-44661149D01*
X9010764Y-44509440D01*
X9066831Y-44340241D01*
X9077500Y-44235811D01*
X9077499Y-43234190D01*
X9066831Y-43129759D01*
X9010764Y-42960560D01*
X9010760Y-42960554D01*
X9010759Y-42960551D01*
X8998451Y-42940597D01*
X8980010Y-42873205D01*
X9000932Y-42806541D01*
X9054574Y-42761772D01*
X9103989Y-42751500D01*
X11178501Y-42751500D01*
X11245540Y-42771185D01*
X11291295Y-42823989D01*
X11302501Y-42875500D01*
X11302501Y-43230818D01*
X11313169Y-43335242D01*
X11353595Y-43457238D01*
X11369236Y-43504440D01*
X11462811Y-43656149D01*
X11588851Y-43782189D01*
X11740560Y-43875764D01*
X11909759Y-43931831D01*
X12014189Y-43942500D01*
X15925810Y-43942499D01*
X16030241Y-43931831D01*
X16199440Y-43875764D01*
X16351149Y-43782189D01*
X16477189Y-43656149D01*
X16570764Y-43504440D01*
X16626831Y-43335241D01*
X16637500Y-43230811D01*
X16637499Y-41859190D01*
X16626831Y-41754759D01*
X16570764Y-41585560D01*
X16477189Y-41433851D01*
X16351149Y-41307811D01*
X16199440Y-41214236D01*
X16199437Y-41214235D01*
X16030242Y-41158169D01*
X16030235Y-41158168D01*
X15925818Y-41147500D01*
X15925811Y-41147500D01*
X14140026Y-41147500D01*
X14072987Y-41127815D01*
X14027232Y-41075011D01*
X14017288Y-41005853D01*
X14029621Y-40971879D01*
X14027710Y-40970988D01*
X14030758Y-40964449D01*
X14030764Y-40964440D01*
X14086831Y-40795241D01*
X14097500Y-40690811D01*
X14097499Y-39319190D01*
X14086831Y-39214759D01*
X14030764Y-39045560D01*
X14030760Y-39045553D01*
X14027710Y-39039012D01*
X14030609Y-39037660D01*
X14016055Y-38983826D01*
X14037180Y-38917227D01*
X14090958Y-38872621D01*
X14140026Y-38862499D01*
X15925804Y-38862499D01*
X15925810Y-38862499D01*
X16030241Y-38851831D01*
X16199440Y-38795764D01*
X16351149Y-38702189D01*
X16477189Y-38576149D01*
X16570764Y-38424440D01*
X16626831Y-38255241D01*
X16637500Y-38150811D01*
X16637499Y-36779190D01*
X16626831Y-36674759D01*
X16570764Y-36505560D01*
X16477189Y-36353851D01*
X16351149Y-36227811D01*
X16199440Y-36134236D01*
X16199437Y-36134235D01*
X16030242Y-36078169D01*
X16030235Y-36078168D01*
X15925818Y-36067500D01*
X15925811Y-36067500D01*
X14140026Y-36067500D01*
X14072987Y-36047815D01*
X14027232Y-35995011D01*
X14017288Y-35925853D01*
X14029621Y-35891879D01*
X14027710Y-35890988D01*
X14030758Y-35884449D01*
X14030764Y-35884440D01*
X14086831Y-35715241D01*
X14097500Y-35610811D01*
X14097499Y-34239190D01*
X14086831Y-34134759D01*
X14030764Y-33965560D01*
X14030760Y-33965553D01*
X14027710Y-33959012D01*
X14030609Y-33957660D01*
X14016055Y-33903826D01*
X14037180Y-33837227D01*
X14090958Y-33792621D01*
X14140026Y-33782499D01*
X15925804Y-33782499D01*
X15925810Y-33782499D01*
X16030241Y-33771831D01*
X16199440Y-33715764D01*
X16351149Y-33622189D01*
X16477189Y-33496149D01*
X16570764Y-33344440D01*
X16626831Y-33175241D01*
X16637500Y-33070811D01*
X16637499Y-31699190D01*
X16626831Y-31594759D01*
X16570764Y-31425560D01*
X16477189Y-31273851D01*
X16351149Y-31147811D01*
X16199440Y-31054236D01*
X16199437Y-31054235D01*
X16030242Y-30998169D01*
X16030235Y-30998168D01*
X15925818Y-30987500D01*
X15925811Y-30987500D01*
X14140026Y-30987500D01*
X14072987Y-30967815D01*
X14027232Y-30915011D01*
X14017288Y-30845853D01*
X14029621Y-30811879D01*
X14027710Y-30810988D01*
X14030758Y-30804449D01*
X14030764Y-30804440D01*
X14086831Y-30635241D01*
X14097500Y-30530811D01*
X14097499Y-29159190D01*
X14086831Y-29054759D01*
X14030764Y-28885560D01*
X14030760Y-28885553D01*
X14027710Y-28879012D01*
X14030609Y-28877660D01*
X14016055Y-28823826D01*
X14037180Y-28757227D01*
X14090958Y-28712621D01*
X14140026Y-28702499D01*
X15925804Y-28702499D01*
X15925810Y-28702499D01*
X16030241Y-28691831D01*
X16199440Y-28635764D01*
X16351149Y-28542189D01*
X16477189Y-28416149D01*
X16570764Y-28264440D01*
X16626831Y-28095241D01*
X16637500Y-27990811D01*
X16637499Y-26619190D01*
X16626831Y-26514759D01*
X16570764Y-26345560D01*
X16477189Y-26193851D01*
X16351149Y-26067811D01*
X16199440Y-25974236D01*
X16199437Y-25974235D01*
X16030242Y-25918169D01*
X16030235Y-25918168D01*
X15925818Y-25907500D01*
X15925811Y-25907500D01*
X14140026Y-25907500D01*
X14072987Y-25887815D01*
X14027232Y-25835011D01*
X14017288Y-25765853D01*
X14029621Y-25731879D01*
X14027710Y-25730988D01*
X14030758Y-25724449D01*
X14030764Y-25724440D01*
X14086831Y-25555241D01*
X14097500Y-25450811D01*
X14097499Y-24079190D01*
X14086831Y-23974759D01*
X14030764Y-23805560D01*
X14030760Y-23805553D01*
X14027710Y-23799012D01*
X14030609Y-23797660D01*
X14016055Y-23743826D01*
X14037180Y-23677227D01*
X14090958Y-23632621D01*
X14140026Y-23622499D01*
X15925804Y-23622499D01*
X15925810Y-23622499D01*
X16030241Y-23611831D01*
X16199440Y-23555764D01*
X16351149Y-23462189D01*
X16477189Y-23336149D01*
X16570764Y-23184440D01*
X16626831Y-23015241D01*
X16637500Y-22910811D01*
X16637499Y-21539190D01*
X16626831Y-21434759D01*
X16570764Y-21265560D01*
X16477189Y-21113851D01*
X16351149Y-20987811D01*
X16199440Y-20894236D01*
X16199437Y-20894235D01*
X16030242Y-20838169D01*
X16030235Y-20838168D01*
X15925818Y-20827500D01*
X15925811Y-20827500D01*
X14140026Y-20827500D01*
X14072987Y-20807815D01*
X14027232Y-20755011D01*
X14017288Y-20685853D01*
X14029621Y-20651879D01*
X14027710Y-20650988D01*
X14030758Y-20644449D01*
X14030764Y-20644440D01*
X14086831Y-20475241D01*
X14097500Y-20370811D01*
X14097499Y-18999190D01*
X14086831Y-18894759D01*
X14030764Y-18725560D01*
X14030760Y-18725553D01*
X14027710Y-18719012D01*
X14030609Y-18717660D01*
X14016055Y-18663826D01*
X14037180Y-18597227D01*
X14090958Y-18552621D01*
X14140026Y-18542499D01*
X15925804Y-18542499D01*
X15925810Y-18542499D01*
X16030241Y-18531831D01*
X16199440Y-18475764D01*
X16351149Y-18382189D01*
X16477189Y-18256149D01*
X16570764Y-18104440D01*
X16626831Y-17935241D01*
X16637500Y-17830811D01*
X16637499Y-16459190D01*
X16626831Y-16354759D01*
X16570764Y-16185560D01*
X16477189Y-16033851D01*
X16351149Y-15907811D01*
X16228999Y-15832468D01*
X16199442Y-15814237D01*
X16199437Y-15814235D01*
X16030242Y-15758169D01*
X16030235Y-15758168D01*
X15925818Y-15747500D01*
X15925811Y-15747500D01*
X14140026Y-15747500D01*
X14072987Y-15727815D01*
X14027232Y-15675011D01*
X14017288Y-15605853D01*
X14029621Y-15571879D01*
X14027710Y-15570988D01*
X14030758Y-15564449D01*
X14030764Y-15564440D01*
X14086831Y-15395241D01*
X14097500Y-15290811D01*
X14097499Y-13919190D01*
X14086831Y-13814759D01*
X14030764Y-13645560D01*
X14030760Y-13645553D01*
X14027710Y-13639012D01*
X14030609Y-13637660D01*
X14016055Y-13583826D01*
X14037180Y-13517227D01*
X14090958Y-13472621D01*
X14140026Y-13462499D01*
X15925804Y-13462499D01*
X15925810Y-13462499D01*
X16030241Y-13451831D01*
X16199440Y-13395764D01*
X16351149Y-13302189D01*
X16477189Y-13176149D01*
X16570764Y-13024440D01*
X16626831Y-12855241D01*
X16637500Y-12750811D01*
X16637499Y-11379190D01*
X16637498Y-11379178D01*
X16630748Y-11313101D01*
X16643518Y-11244409D01*
X16691399Y-11193524D01*
X16754106Y-11176500D01*
X19212590Y-11176500D01*
X19279629Y-11196185D01*
G37*
%TD.AperFunction*%
%TA.AperFunction,Conductor*%
G36*
X31243253Y-5176656D02*
G01*
X31409759Y-5231831D01*
X31514189Y-5242500D01*
X32165624Y-5242499D01*
X32203942Y-5248568D01*
X32225462Y-5255560D01*
X32267490Y-5269216D01*
X32465009Y-5300500D01*
X35837380Y-5300500D01*
X35904419Y-5320185D01*
X35925061Y-5336819D01*
X44108181Y-13519939D01*
X44141666Y-13581262D01*
X44144500Y-13607620D01*
X44144500Y-16879990D01*
X44175784Y-17077511D01*
X44237579Y-17267700D01*
X44287575Y-17365822D01*
X44300471Y-17434491D01*
X44274195Y-17499232D01*
X44217088Y-17539489D01*
X44177090Y-17546117D01*
X42283716Y-17546117D01*
X42283700Y-17546118D01*
X42179277Y-17556786D01*
X42010082Y-17612852D01*
X42010077Y-17612854D01*
X41858369Y-17706429D01*
X41837618Y-17727181D01*
X41776295Y-17760666D01*
X41749937Y-17763500D01*
X39621500Y-17763500D01*
X39554461Y-17743815D01*
X39508706Y-17691011D01*
X39497500Y-17639500D01*
X39497499Y-16459196D01*
X39497498Y-16459180D01*
X39492462Y-16409884D01*
X39486831Y-16354759D01*
X39482389Y-16341356D01*
X39479988Y-16271529D01*
X39515720Y-16211488D01*
X39538093Y-16194968D01*
X39725202Y-16086942D01*
X39910163Y-15945016D01*
X40075016Y-15780163D01*
X40216942Y-15595202D01*
X40333511Y-15393298D01*
X40422729Y-15177907D01*
X40483069Y-14952713D01*
X40513500Y-14721569D01*
X40513500Y-14488431D01*
X40483069Y-14257287D01*
X40422729Y-14032093D01*
X40422725Y-14032083D01*
X40333514Y-13816708D01*
X40333509Y-13816698D01*
X40216942Y-13614798D01*
X40075017Y-13429838D01*
X40075011Y-13429831D01*
X39910168Y-13264988D01*
X39910161Y-13264982D01*
X39725201Y-13123057D01*
X39523301Y-13006490D01*
X39523291Y-13006485D01*
X39307916Y-12917274D01*
X39307909Y-12917272D01*
X39307907Y-12917271D01*
X39082713Y-12856931D01*
X39044083Y-12851845D01*
X38851576Y-12826500D01*
X38851569Y-12826500D01*
X38618431Y-12826500D01*
X38618423Y-12826500D01*
X38400169Y-12855235D01*
X38387287Y-12856931D01*
X38162093Y-12917271D01*
X38162083Y-12917274D01*
X37946708Y-13006485D01*
X37946698Y-13006490D01*
X37744798Y-13123057D01*
X37559838Y-13264982D01*
X37559831Y-13264988D01*
X37394988Y-13429831D01*
X37394982Y-13429838D01*
X37310463Y-13539986D01*
X37254035Y-13581189D01*
X37212087Y-13588500D01*
X36924776Y-13588500D01*
X36857737Y-13568815D01*
X36819238Y-13529597D01*
X36797191Y-13493854D01*
X36797188Y-13493850D01*
X36671150Y-13367812D01*
X36671149Y-13367811D01*
X36519440Y-13274236D01*
X36519437Y-13274235D01*
X36350242Y-13218169D01*
X36350235Y-13218168D01*
X36245818Y-13207500D01*
X32344409Y-13207500D01*
X32277370Y-13187815D01*
X32231615Y-13135011D01*
X32221671Y-13065853D01*
X32250696Y-13002297D01*
X32256708Y-12995839D01*
X33354567Y-11897982D01*
X33465810Y-11731493D01*
X33542436Y-11546502D01*
X33575717Y-11379190D01*
X33581500Y-11350119D01*
X33581500Y-9357982D01*
X33601185Y-9290943D01*
X33653989Y-9245188D01*
X33692898Y-9234624D01*
X33720241Y-9231831D01*
X33889440Y-9175764D01*
X34041149Y-9082189D01*
X34167189Y-8956149D01*
X34260764Y-8804440D01*
X34316831Y-8635241D01*
X34327500Y-8530811D01*
X34327499Y-7529190D01*
X34316831Y-7424759D01*
X34260764Y-7255560D01*
X34167189Y-7103851D01*
X34041149Y-6977811D01*
X33889440Y-6884236D01*
X33786159Y-6850012D01*
X33720242Y-6828169D01*
X33720235Y-6828168D01*
X33615812Y-6817500D01*
X31514196Y-6817500D01*
X31514180Y-6817501D01*
X31409757Y-6828169D01*
X31243256Y-6883342D01*
X31173427Y-6885744D01*
X31113386Y-6850012D01*
X31082193Y-6787491D01*
X31086545Y-6726636D01*
X31116831Y-6635241D01*
X31127500Y-6530811D01*
X31127499Y-5529190D01*
X31116831Y-5424759D01*
X31086545Y-5333364D01*
X31086088Y-5320068D01*
X31080980Y-5307781D01*
X31084910Y-5285829D01*
X31084144Y-5263540D01*
X31090949Y-5252103D01*
X31093295Y-5239005D01*
X31108469Y-5222663D01*
X31119875Y-5203497D01*
X31131784Y-5197555D01*
X31140838Y-5187805D01*
X31162436Y-5182261D01*
X31182395Y-5172304D01*
X31197129Y-5173357D01*
X31208514Y-5170436D01*
X31243253Y-5176656D01*
G37*
%TD.AperFunction*%
%TA.AperFunction,Conductor*%
G36*
X49226539Y-520185D02*
G01*
X49272294Y-572989D01*
X49283500Y-624500D01*
X49283500Y-69225500D01*
X49263815Y-69292539D01*
X49211011Y-69338294D01*
X49159500Y-69349500D01*
X624500Y-69349500D01*
X557461Y-69329815D01*
X511706Y-69277011D01*
X500500Y-69225500D01*
X500500Y-42538174D01*
X1330604Y-42538174D01*
X1334981Y-42585869D01*
X1335500Y-42597199D01*
X1335500Y-42645116D01*
X1335500Y-42645117D01*
X1335499Y-42645117D01*
X1343355Y-42684613D01*
X1344625Y-42691001D01*
X1348899Y-42737570D01*
X1364109Y-42788948D01*
X1365218Y-42794519D01*
X1365218Y-42794520D01*
X1374562Y-42841496D01*
X1374564Y-42841504D01*
X1389969Y-42878694D01*
X1394307Y-42890944D01*
X1561966Y-43457238D01*
X1562668Y-43459704D01*
X3228101Y-49544434D01*
X3232500Y-49577170D01*
X3232500Y-51190803D01*
X3232501Y-51190819D01*
X3243169Y-51295242D01*
X3299235Y-51464437D01*
X3299237Y-51464442D01*
X3392812Y-51616151D01*
X3397289Y-51621812D01*
X3396121Y-51622735D01*
X3425666Y-51676842D01*
X3428500Y-51703200D01*
X3428500Y-54926800D01*
X3408815Y-54993839D01*
X3397266Y-55008170D01*
X3397289Y-55008188D01*
X3392812Y-55013848D01*
X3299237Y-55165557D01*
X3299235Y-55165562D01*
X3243169Y-55334757D01*
X3243168Y-55334764D01*
X3232500Y-55439181D01*
X3232500Y-57540803D01*
X3232501Y-57540819D01*
X3243169Y-57645242D01*
X3299235Y-57814437D01*
X3299237Y-57814442D01*
X3392812Y-57966151D01*
X3397289Y-57971812D01*
X3396121Y-57972735D01*
X3425666Y-58026842D01*
X3428500Y-58053200D01*
X3428500Y-61276800D01*
X3408815Y-61343839D01*
X3397266Y-61358170D01*
X3397289Y-61358188D01*
X3392812Y-61363848D01*
X3299237Y-61515557D01*
X3299235Y-61515562D01*
X3243169Y-61684757D01*
X3243168Y-61684764D01*
X3232500Y-61789181D01*
X3232500Y-62440626D01*
X3226431Y-62478944D01*
X3205784Y-62542488D01*
X3174500Y-62740009D01*
X3174500Y-67115990D01*
X3205784Y-67313511D01*
X3267579Y-67503700D01*
X3267581Y-67503703D01*
X3358371Y-67681887D01*
X3475917Y-67843675D01*
X3617325Y-67985083D01*
X3779113Y-68102629D01*
X3957297Y-68193419D01*
X4000039Y-68207306D01*
X4049403Y-68237557D01*
X4501787Y-68689940D01*
X4629060Y-68817213D01*
X4774675Y-68923009D01*
X4853333Y-68963087D01*
X4935047Y-69004723D01*
X4935050Y-69004724D01*
X5020639Y-69032533D01*
X5106230Y-69060343D01*
X5284004Y-69088500D01*
X5284005Y-69088500D01*
X9615001Y-69088500D01*
X9713759Y-69072857D01*
X9792770Y-69060344D01*
X9921971Y-69018363D01*
X9963952Y-69004723D01*
X10124325Y-68923009D01*
X10124326Y-68923008D01*
X10269941Y-68817213D01*
X12502334Y-66584818D01*
X12563657Y-66551334D01*
X12590015Y-66548500D01*
X39587001Y-66548500D01*
X39685759Y-66532857D01*
X39764770Y-66520344D01*
X39893971Y-66478363D01*
X39935952Y-66464723D01*
X40096325Y-66383009D01*
X40241941Y-66277213D01*
X45806733Y-60712420D01*
X45872789Y-60621502D01*
X45912529Y-60566805D01*
X45992037Y-60410761D01*
X45993942Y-60407358D01*
X45994243Y-60406432D01*
X45994244Y-60406431D01*
X46049864Y-60235250D01*
X46069096Y-60113819D01*
X46078020Y-60057479D01*
X46078020Y-56244899D01*
X46084314Y-56205895D01*
X46136351Y-56048858D01*
X46147020Y-55944428D01*
X46147019Y-53842807D01*
X46136351Y-53738376D01*
X46080284Y-53569177D01*
X45986709Y-53417468D01*
X45986708Y-53417467D01*
X45986707Y-53417465D01*
X45982231Y-53411805D01*
X45983398Y-53410881D01*
X45953854Y-53356775D01*
X45951020Y-53330417D01*
X45951020Y-50106817D01*
X45970705Y-50039778D01*
X45982253Y-50025446D01*
X45982231Y-50025429D01*
X45986707Y-50019768D01*
X45986709Y-50019766D01*
X46080284Y-49868057D01*
X46136351Y-49698858D01*
X46147020Y-49594428D01*
X46147019Y-47492807D01*
X46136351Y-47388376D01*
X46080284Y-47219177D01*
X45986709Y-47067468D01*
X45986708Y-47067467D01*
X45986707Y-47067465D01*
X45982231Y-47061805D01*
X45983398Y-47060881D01*
X45953854Y-47006775D01*
X45951020Y-46980417D01*
X45951020Y-43756817D01*
X45970705Y-43689778D01*
X45982253Y-43675446D01*
X45982231Y-43675429D01*
X45986707Y-43669768D01*
X45986709Y-43669766D01*
X46080284Y-43518057D01*
X46136351Y-43348858D01*
X46147020Y-43244428D01*
X46147019Y-41142807D01*
X46136351Y-41038376D01*
X46080284Y-40869177D01*
X45986709Y-40717468D01*
X45986708Y-40717467D01*
X45986707Y-40717465D01*
X45982231Y-40711805D01*
X45983398Y-40710881D01*
X45953854Y-40656775D01*
X45951020Y-40630417D01*
X45951020Y-37568368D01*
X45953403Y-37544176D01*
X45974500Y-37438118D01*
X45974500Y-37237880D01*
X45935437Y-37041503D01*
X45935436Y-37041502D01*
X45935436Y-37041498D01*
X45858810Y-36856507D01*
X45747567Y-36690018D01*
X45747565Y-36690016D01*
X45747563Y-36690013D01*
X45602886Y-36545336D01*
X45602855Y-36545307D01*
X44387339Y-35329791D01*
X44353854Y-35268468D01*
X44351020Y-35242110D01*
X44351020Y-34151599D01*
X44370705Y-34084560D01*
X44423509Y-34038805D01*
X44462418Y-34028241D01*
X44489761Y-34025448D01*
X44658960Y-33969381D01*
X44810669Y-33875806D01*
X44936709Y-33749766D01*
X45030284Y-33598057D01*
X45086351Y-33428858D01*
X45097020Y-33324428D01*
X45097019Y-32322807D01*
X45086351Y-32218376D01*
X45056065Y-32126981D01*
X45053664Y-32057157D01*
X45089395Y-31997114D01*
X45151915Y-31965921D01*
X45212774Y-31970273D01*
X45379279Y-32025448D01*
X45483709Y-32036117D01*
X47585330Y-32036116D01*
X47689761Y-32025448D01*
X47858960Y-31969381D01*
X48010669Y-31875806D01*
X48136709Y-31749766D01*
X48230284Y-31598057D01*
X48286351Y-31428858D01*
X48297020Y-31324428D01*
X48297019Y-30322807D01*
X48286351Y-30218376D01*
X48230284Y-30049177D01*
X48136709Y-29897468D01*
X48010669Y-29771428D01*
X47858960Y-29677853D01*
X47755679Y-29643629D01*
X47689762Y-29621786D01*
X47689755Y-29621785D01*
X47585332Y-29611117D01*
X45483716Y-29611117D01*
X45483700Y-29611118D01*
X45379277Y-29621786D01*
X45212776Y-29676959D01*
X45142947Y-29679361D01*
X45082906Y-29643629D01*
X45051713Y-29581108D01*
X45056065Y-29520253D01*
X45086351Y-29428858D01*
X45097020Y-29324428D01*
X45097019Y-28322807D01*
X45086351Y-28218376D01*
X45056065Y-28126981D01*
X45053664Y-28057157D01*
X45089395Y-27997114D01*
X45151915Y-27965921D01*
X45212774Y-27970273D01*
X45379279Y-28025448D01*
X45483709Y-28036117D01*
X47585330Y-28036116D01*
X47689761Y-28025448D01*
X47858960Y-27969381D01*
X48010669Y-27875806D01*
X48136709Y-27749766D01*
X48230284Y-27598057D01*
X48286351Y-27428858D01*
X48297020Y-27324428D01*
X48297019Y-26322807D01*
X48286351Y-26218376D01*
X48230284Y-26049177D01*
X48136709Y-25897468D01*
X48010669Y-25771428D01*
X47858960Y-25677853D01*
X47755679Y-25643629D01*
X47689762Y-25621786D01*
X47689755Y-25621785D01*
X47585332Y-25611117D01*
X45483716Y-25611117D01*
X45483700Y-25611118D01*
X45379277Y-25621786D01*
X45212776Y-25676959D01*
X45142947Y-25679361D01*
X45082906Y-25643629D01*
X45051713Y-25581108D01*
X45056065Y-25520253D01*
X45086351Y-25428858D01*
X45097020Y-25324428D01*
X45097019Y-24322807D01*
X45086351Y-24218376D01*
X45030284Y-24049177D01*
X44936709Y-23897468D01*
X44810669Y-23771428D01*
X44658960Y-23677853D01*
X44586527Y-23653851D01*
X44489762Y-23621786D01*
X44489755Y-23621785D01*
X44385332Y-23611117D01*
X42283716Y-23611117D01*
X42283700Y-23611118D01*
X42179277Y-23621786D01*
X42010082Y-23677852D01*
X42010077Y-23677854D01*
X41858369Y-23771429D01*
X41837618Y-23792181D01*
X41776295Y-23825666D01*
X41749937Y-23828500D01*
X40319104Y-23828500D01*
X40252065Y-23808815D01*
X40220142Y-23777458D01*
X40219413Y-23778018D01*
X40075017Y-23589838D01*
X40075011Y-23589831D01*
X39938361Y-23453181D01*
X39904876Y-23391858D01*
X39909860Y-23322166D01*
X39951732Y-23266233D01*
X40017196Y-23241816D01*
X40026042Y-23241500D01*
X40105118Y-23241500D01*
X40237238Y-23215218D01*
X40301502Y-23202436D01*
X40486493Y-23125810D01*
X40652981Y-23014567D01*
X41834729Y-21832819D01*
X41896052Y-21799334D01*
X41922410Y-21796500D01*
X45000011Y-21796500D01*
X45065106Y-21814960D01*
X45210080Y-21904381D01*
X45379279Y-21960448D01*
X45483709Y-21971117D01*
X47585330Y-21971116D01*
X47689761Y-21960448D01*
X47858960Y-21904381D01*
X48010669Y-21810806D01*
X48136709Y-21684766D01*
X48230284Y-21533057D01*
X48286351Y-21363858D01*
X48297020Y-21259428D01*
X48297019Y-20257807D01*
X48286351Y-20153376D01*
X48230284Y-19984177D01*
X48136709Y-19832468D01*
X48010669Y-19706428D01*
X47858960Y-19612853D01*
X47755679Y-19578629D01*
X47689762Y-19556786D01*
X47689755Y-19556785D01*
X47585332Y-19546117D01*
X45483716Y-19546117D01*
X45483700Y-19546118D01*
X45379277Y-19556786D01*
X45212776Y-19611959D01*
X45142947Y-19614361D01*
X45082906Y-19578629D01*
X45051713Y-19516108D01*
X45056065Y-19455253D01*
X45086351Y-19363858D01*
X45097020Y-19259428D01*
X45097019Y-18257807D01*
X45088281Y-18172272D01*
X45101050Y-18103583D01*
X45148931Y-18052698D01*
X45216720Y-18035777D01*
X45231035Y-18037199D01*
X45315009Y-18050500D01*
X45315010Y-18050500D01*
X45514990Y-18050500D01*
X45514991Y-18050500D01*
X45712510Y-18019216D01*
X45841867Y-17977185D01*
X45880185Y-17971116D01*
X47585324Y-17971116D01*
X47585330Y-17971116D01*
X47689761Y-17960448D01*
X47858960Y-17904381D01*
X48010669Y-17810806D01*
X48136709Y-17684766D01*
X48230284Y-17533057D01*
X48286351Y-17363858D01*
X48297020Y-17259428D01*
X48297019Y-16257807D01*
X48286351Y-16153376D01*
X48230284Y-15984177D01*
X48136709Y-15832468D01*
X48010669Y-15706428D01*
X47858960Y-15612853D01*
X47858957Y-15612852D01*
X47689762Y-15556786D01*
X47689755Y-15556785D01*
X47585338Y-15546117D01*
X47585331Y-15546117D01*
X46809500Y-15546117D01*
X46742461Y-15526432D01*
X46696706Y-15473628D01*
X46685500Y-15422117D01*
X46685500Y-12930009D01*
X46683482Y-12917271D01*
X46654216Y-12732490D01*
X46623317Y-12637393D01*
X46592420Y-12542299D01*
X46501628Y-12364112D01*
X46384083Y-12202325D01*
X46242675Y-12060917D01*
X37242675Y-3060917D01*
X37080887Y-2943371D01*
X36902700Y-2852579D01*
X36712511Y-2790784D01*
X36613750Y-2775142D01*
X36514991Y-2759500D01*
X32465009Y-2759500D01*
X32433726Y-2764454D01*
X32267491Y-2790783D01*
X32203938Y-2811432D01*
X32165622Y-2817500D01*
X31514196Y-2817500D01*
X31514180Y-2817501D01*
X31409757Y-2828169D01*
X31240562Y-2884235D01*
X31240557Y-2884237D01*
X31088848Y-2977812D01*
X31083188Y-2982289D01*
X31082264Y-2981121D01*
X31028158Y-3010666D01*
X31001800Y-3013500D01*
X27778200Y-3013500D01*
X27711161Y-2993815D01*
X27696829Y-2982266D01*
X27696812Y-2982289D01*
X27691151Y-2977812D01*
X27539442Y-2884237D01*
X27539437Y-2884235D01*
X27370242Y-2828169D01*
X27370235Y-2828168D01*
X27265812Y-2817500D01*
X25164196Y-2817500D01*
X25164180Y-2817501D01*
X25059757Y-2828169D01*
X24890562Y-2884235D01*
X24890557Y-2884237D01*
X24738848Y-2977812D01*
X24733188Y-2982289D01*
X24732264Y-2981121D01*
X24678158Y-3010666D01*
X24651800Y-3013500D01*
X21428200Y-3013500D01*
X21361161Y-2993815D01*
X21346829Y-2982266D01*
X21346812Y-2982289D01*
X21341151Y-2977812D01*
X21189442Y-2884237D01*
X21189437Y-2884235D01*
X21020242Y-2828169D01*
X21020235Y-2828168D01*
X20915812Y-2817500D01*
X18814196Y-2817500D01*
X18814180Y-2817501D01*
X18709757Y-2828169D01*
X18540562Y-2884235D01*
X18540557Y-2884237D01*
X18388848Y-2977812D01*
X18383188Y-2982289D01*
X18382264Y-2981121D01*
X18328158Y-3010666D01*
X18301800Y-3013500D01*
X15078200Y-3013500D01*
X15011161Y-2993815D01*
X14996829Y-2982266D01*
X14996812Y-2982289D01*
X14991151Y-2977812D01*
X14839442Y-2884237D01*
X14839437Y-2884235D01*
X14670242Y-2828169D01*
X14670235Y-2828168D01*
X14565818Y-2817500D01*
X14565811Y-2817500D01*
X13914374Y-2817500D01*
X13876056Y-2811431D01*
X13812511Y-2790784D01*
X13713750Y-2775142D01*
X13614991Y-2759500D01*
X6030009Y-2759500D01*
X5964169Y-2769928D01*
X5832488Y-2790784D01*
X5750263Y-2817501D01*
X5750262Y-2817501D01*
X5642301Y-2852578D01*
X5464109Y-2943373D01*
X5302330Y-3060910D01*
X5302326Y-3060914D01*
X3617325Y-4745917D01*
X3475919Y-4887322D01*
X3475919Y-4887323D01*
X3475917Y-4887325D01*
X3425435Y-4956806D01*
X3358371Y-5049112D01*
X3267579Y-5227299D01*
X3205784Y-5417488D01*
X3188092Y-5529190D01*
X3174500Y-5615009D01*
X3174500Y-17424009D01*
X3174500Y-23924991D01*
X3205784Y-24122510D01*
X3226430Y-24186055D01*
X3226431Y-24186056D01*
X3232500Y-24224374D01*
X3232500Y-24875803D01*
X3232501Y-24875819D01*
X3243169Y-24980242D01*
X3299235Y-25149437D01*
X3299237Y-25149442D01*
X3392812Y-25301151D01*
X3397289Y-25306812D01*
X3396121Y-25307735D01*
X3425666Y-25361842D01*
X3428500Y-25388200D01*
X3428500Y-28611800D01*
X3408815Y-28678839D01*
X3397266Y-28693170D01*
X3397289Y-28693188D01*
X3392812Y-28698848D01*
X3299237Y-28850557D01*
X3299235Y-28850562D01*
X3243169Y-29019757D01*
X3243168Y-29019764D01*
X3232500Y-29124181D01*
X3232500Y-31225803D01*
X3232501Y-31225819D01*
X3243169Y-31330242D01*
X3274755Y-31425562D01*
X3299236Y-31499440D01*
X3392811Y-31651149D01*
X3518851Y-31777189D01*
X3670560Y-31870764D01*
X3839759Y-31926831D01*
X3944189Y-31937500D01*
X4168588Y-31937499D01*
X4235628Y-31957183D01*
X4256270Y-31973818D01*
X6262181Y-33979729D01*
X6295666Y-34041052D01*
X6298500Y-34067410D01*
X6298500Y-34407017D01*
X6278815Y-34474056D01*
X6226011Y-34519811D01*
X6187104Y-34530375D01*
X6159757Y-34533169D01*
X5990562Y-34589235D01*
X5990557Y-34589237D01*
X5838848Y-34682812D01*
X5833188Y-34687289D01*
X5832264Y-34686121D01*
X5778158Y-34715666D01*
X5751800Y-34718500D01*
X3038882Y-34718500D01*
X2842503Y-34757562D01*
X2842497Y-34757564D01*
X2657508Y-34834189D01*
X2491016Y-34945434D01*
X2491015Y-34945435D01*
X1863471Y-35572981D01*
X1704019Y-35732433D01*
X1633226Y-35803226D01*
X1562433Y-35874018D01*
X1451189Y-36040508D01*
X1374564Y-36225497D01*
X1374562Y-36225503D01*
X1335500Y-36421881D01*
X1335500Y-42485154D01*
X1334819Y-42498133D01*
X1330604Y-42538174D01*
X500500Y-42538174D01*
X500500Y-624500D01*
X520185Y-557461D01*
X572989Y-511706D01*
X624500Y-500500D01*
X49159500Y-500500D01*
X49226539Y-520185D01*
G37*
%TD.AperFunction*%
%TD*%
M02*
