%TF.GenerationSoftware,KiCad,Pcbnew,9.0.5*%
%TF.CreationDate,2025-12-13T17:10:17-05:00*%
%TF.ProjectId,esp32_breakout,65737033-325f-4627-9265-616b6f75742e,rev?*%
%TF.SameCoordinates,Original*%
%TF.FileFunction,Legend,Top*%
%TF.FilePolarity,Positive*%
%FSLAX46Y46*%
G04 Gerber Fmt 4.6, Leading zero omitted, Abs format (unit mm)*
G04 Created by KiCad (PCBNEW 9.0.5) date 2025-12-13 17:10:17*
%MOMM*%
%LPD*%
G01*
G04 APERTURE LIST*
%ADD10C,0.150000*%
%ADD11C,0.120000*%
%ADD12C,0.050000*%
%ADD13C,0.100000*%
G04 APERTURE END LIST*
D10*
X9694104Y-65484285D02*
X9694104Y-65008095D01*
X9979819Y-65579523D02*
X8979819Y-65246190D01*
X8979819Y-65246190D02*
X9979819Y-64912857D01*
X9313152Y-64150952D02*
X9979819Y-64150952D01*
X8932200Y-64389047D02*
X9646485Y-64627142D01*
X9646485Y-64627142D02*
X9646485Y-64008095D01*
X10964104Y-58499285D02*
X10964104Y-58023095D01*
X11249819Y-58594523D02*
X10249819Y-58261190D01*
X10249819Y-58261190D02*
X11249819Y-57927857D01*
X10249819Y-57689761D02*
X10249819Y-57070714D01*
X10249819Y-57070714D02*
X10630771Y-57404047D01*
X10630771Y-57404047D02*
X10630771Y-57261190D01*
X10630771Y-57261190D02*
X10678390Y-57165952D01*
X10678390Y-57165952D02*
X10726009Y-57118333D01*
X10726009Y-57118333D02*
X10821247Y-57070714D01*
X10821247Y-57070714D02*
X11059342Y-57070714D01*
X11059342Y-57070714D02*
X11154580Y-57118333D01*
X11154580Y-57118333D02*
X11202200Y-57165952D01*
X11202200Y-57165952D02*
X11249819Y-57261190D01*
X11249819Y-57261190D02*
X11249819Y-57546904D01*
X11249819Y-57546904D02*
X11202200Y-57642142D01*
X11202200Y-57642142D02*
X11154580Y-57689761D01*
X9414104Y-52454285D02*
X9414104Y-51978095D01*
X9699819Y-52549523D02*
X8699819Y-52216190D01*
X8699819Y-52216190D02*
X9699819Y-51882857D01*
X8795057Y-51597142D02*
X8747438Y-51549523D01*
X8747438Y-51549523D02*
X8699819Y-51454285D01*
X8699819Y-51454285D02*
X8699819Y-51216190D01*
X8699819Y-51216190D02*
X8747438Y-51120952D01*
X8747438Y-51120952D02*
X8795057Y-51073333D01*
X8795057Y-51073333D02*
X8890295Y-51025714D01*
X8890295Y-51025714D02*
X8985533Y-51025714D01*
X8985533Y-51025714D02*
X9128390Y-51073333D01*
X9128390Y-51073333D02*
X9699819Y-51644761D01*
X9699819Y-51644761D02*
X9699819Y-51025714D01*
X24637801Y-31839612D02*
X24637801Y-32649448D01*
X24637801Y-32649448D02*
X24685438Y-32744723D01*
X24685438Y-32744723D02*
X24733076Y-32792361D01*
X24733076Y-32792361D02*
X24828350Y-32839998D01*
X24828350Y-32839998D02*
X25018900Y-32839998D01*
X25018900Y-32839998D02*
X25114175Y-32792361D01*
X25114175Y-32792361D02*
X25161812Y-32744723D01*
X25161812Y-32744723D02*
X25209450Y-32649448D01*
X25209450Y-32649448D02*
X25209450Y-31839612D01*
X26209835Y-32839998D02*
X25638186Y-32839998D01*
X25924011Y-32839998D02*
X25924011Y-31839612D01*
X25924011Y-31839612D02*
X25828736Y-31982524D01*
X25828736Y-31982524D02*
X25733461Y-32077799D01*
X25733461Y-32077799D02*
X25638186Y-32125437D01*
X4905476Y-45989819D02*
X4905476Y-46704104D01*
X4905476Y-46704104D02*
X4857857Y-46846961D01*
X4857857Y-46846961D02*
X4762619Y-46942200D01*
X4762619Y-46942200D02*
X4619762Y-46989819D01*
X4619762Y-46989819D02*
X4524524Y-46989819D01*
X5905476Y-46989819D02*
X5334048Y-46989819D01*
X5619762Y-46989819D02*
X5619762Y-45989819D01*
X5619762Y-45989819D02*
X5524524Y-46132676D01*
X5524524Y-46132676D02*
X5429286Y-46227914D01*
X5429286Y-46227914D02*
X5334048Y-46275533D01*
X6762619Y-45989819D02*
X6572143Y-45989819D01*
X6572143Y-45989819D02*
X6476905Y-46037438D01*
X6476905Y-46037438D02*
X6429286Y-46085057D01*
X6429286Y-46085057D02*
X6334048Y-46227914D01*
X6334048Y-46227914D02*
X6286429Y-46418390D01*
X6286429Y-46418390D02*
X6286429Y-46799342D01*
X6286429Y-46799342D02*
X6334048Y-46894580D01*
X6334048Y-46894580D02*
X6381667Y-46942200D01*
X6381667Y-46942200D02*
X6476905Y-46989819D01*
X6476905Y-46989819D02*
X6667381Y-46989819D01*
X6667381Y-46989819D02*
X6762619Y-46942200D01*
X6762619Y-46942200D02*
X6810238Y-46894580D01*
X6810238Y-46894580D02*
X6857857Y-46799342D01*
X6857857Y-46799342D02*
X6857857Y-46561247D01*
X6857857Y-46561247D02*
X6810238Y-46466009D01*
X6810238Y-46466009D02*
X6762619Y-46418390D01*
X6762619Y-46418390D02*
X6667381Y-46370771D01*
X6667381Y-46370771D02*
X6476905Y-46370771D01*
X6476905Y-46370771D02*
X6381667Y-46418390D01*
X6381667Y-46418390D02*
X6334048Y-46466009D01*
X6334048Y-46466009D02*
X6286429Y-46561247D01*
X8699819Y-29384523D02*
X9414104Y-29384523D01*
X9414104Y-29384523D02*
X9556961Y-29432142D01*
X9556961Y-29432142D02*
X9652200Y-29527380D01*
X9652200Y-29527380D02*
X9699819Y-29670237D01*
X9699819Y-29670237D02*
X9699819Y-29765475D01*
X9699819Y-28384523D02*
X9699819Y-28955951D01*
X9699819Y-28670237D02*
X8699819Y-28670237D01*
X8699819Y-28670237D02*
X8842676Y-28765475D01*
X8842676Y-28765475D02*
X8937914Y-28860713D01*
X8937914Y-28860713D02*
X8985533Y-28955951D01*
X8699819Y-27479761D02*
X8699819Y-27955951D01*
X8699819Y-27955951D02*
X9176009Y-28003570D01*
X9176009Y-28003570D02*
X9128390Y-27955951D01*
X9128390Y-27955951D02*
X9080771Y-27860713D01*
X9080771Y-27860713D02*
X9080771Y-27622618D01*
X9080771Y-27622618D02*
X9128390Y-27527380D01*
X9128390Y-27527380D02*
X9176009Y-27479761D01*
X9176009Y-27479761D02*
X9271247Y-27432142D01*
X9271247Y-27432142D02*
X9509342Y-27432142D01*
X9509342Y-27432142D02*
X9604580Y-27479761D01*
X9604580Y-27479761D02*
X9652200Y-27527380D01*
X9652200Y-27527380D02*
X9699819Y-27622618D01*
X9699819Y-27622618D02*
X9699819Y-27860713D01*
X9699819Y-27860713D02*
X9652200Y-27955951D01*
X9652200Y-27955951D02*
X9604580Y-28003570D01*
X8699819Y-23034523D02*
X9414104Y-23034523D01*
X9414104Y-23034523D02*
X9556961Y-23082142D01*
X9556961Y-23082142D02*
X9652200Y-23177380D01*
X9652200Y-23177380D02*
X9699819Y-23320237D01*
X9699819Y-23320237D02*
X9699819Y-23415475D01*
X9699819Y-22034523D02*
X9699819Y-22605951D01*
X9699819Y-22320237D02*
X8699819Y-22320237D01*
X8699819Y-22320237D02*
X8842676Y-22415475D01*
X8842676Y-22415475D02*
X8937914Y-22510713D01*
X8937914Y-22510713D02*
X8985533Y-22605951D01*
X9033152Y-21177380D02*
X9699819Y-21177380D01*
X8652200Y-21415475D02*
X9366485Y-21653570D01*
X9366485Y-21653570D02*
X9366485Y-21034523D01*
X44124996Y-21478436D02*
X44124996Y-22192721D01*
X44124996Y-22192721D02*
X44077377Y-22335578D01*
X44077377Y-22335578D02*
X43982139Y-22430817D01*
X43982139Y-22430817D02*
X43839282Y-22478436D01*
X43839282Y-22478436D02*
X43744044Y-22478436D01*
X45124996Y-22478436D02*
X44553568Y-22478436D01*
X44839282Y-22478436D02*
X44839282Y-21478436D01*
X44839282Y-21478436D02*
X44744044Y-21621293D01*
X44744044Y-21621293D02*
X44648806Y-21716531D01*
X44648806Y-21716531D02*
X44553568Y-21764150D01*
X45505949Y-21573674D02*
X45553568Y-21526055D01*
X45553568Y-21526055D02*
X45648806Y-21478436D01*
X45648806Y-21478436D02*
X45886901Y-21478436D01*
X45886901Y-21478436D02*
X45982139Y-21526055D01*
X45982139Y-21526055D02*
X46029758Y-21573674D01*
X46029758Y-21573674D02*
X46077377Y-21668912D01*
X46077377Y-21668912D02*
X46077377Y-21764150D01*
X46077377Y-21764150D02*
X46029758Y-21907007D01*
X46029758Y-21907007D02*
X45458330Y-22478436D01*
X45458330Y-22478436D02*
X46077377Y-22478436D01*
X44124996Y-23013436D02*
X44124996Y-23727721D01*
X44124996Y-23727721D02*
X44077377Y-23870578D01*
X44077377Y-23870578D02*
X43982139Y-23965817D01*
X43982139Y-23965817D02*
X43839282Y-24013436D01*
X43839282Y-24013436D02*
X43744044Y-24013436D01*
X45124996Y-24013436D02*
X44553568Y-24013436D01*
X44839282Y-24013436D02*
X44839282Y-23013436D01*
X44839282Y-23013436D02*
X44744044Y-23156293D01*
X44744044Y-23156293D02*
X44648806Y-23251531D01*
X44648806Y-23251531D02*
X44553568Y-23299150D01*
X45744044Y-23013436D02*
X45839282Y-23013436D01*
X45839282Y-23013436D02*
X45934520Y-23061055D01*
X45934520Y-23061055D02*
X45982139Y-23108674D01*
X45982139Y-23108674D02*
X46029758Y-23203912D01*
X46029758Y-23203912D02*
X46077377Y-23394388D01*
X46077377Y-23394388D02*
X46077377Y-23632483D01*
X46077377Y-23632483D02*
X46029758Y-23822959D01*
X46029758Y-23822959D02*
X45982139Y-23918197D01*
X45982139Y-23918197D02*
X45934520Y-23965817D01*
X45934520Y-23965817D02*
X45839282Y-24013436D01*
X45839282Y-24013436D02*
X45744044Y-24013436D01*
X45744044Y-24013436D02*
X45648806Y-23965817D01*
X45648806Y-23965817D02*
X45601187Y-23918197D01*
X45601187Y-23918197D02*
X45553568Y-23822959D01*
X45553568Y-23822959D02*
X45505949Y-23632483D01*
X45505949Y-23632483D02*
X45505949Y-23394388D01*
X45505949Y-23394388D02*
X45553568Y-23203912D01*
X45553568Y-23203912D02*
X45601187Y-23108674D01*
X45601187Y-23108674D02*
X45648806Y-23061055D01*
X45648806Y-23061055D02*
X45744044Y-23013436D01*
X10462619Y-11284819D02*
X10462619Y-10284819D01*
X10891190Y-10380057D02*
X10938809Y-10332438D01*
X10938809Y-10332438D02*
X11034047Y-10284819D01*
X11034047Y-10284819D02*
X11272142Y-10284819D01*
X11272142Y-10284819D02*
X11367380Y-10332438D01*
X11367380Y-10332438D02*
X11414999Y-10380057D01*
X11414999Y-10380057D02*
X11462618Y-10475295D01*
X11462618Y-10475295D02*
X11462618Y-10570533D01*
X11462618Y-10570533D02*
X11414999Y-10713390D01*
X11414999Y-10713390D02*
X10843571Y-11284819D01*
X10843571Y-11284819D02*
X11462618Y-11284819D01*
X12462618Y-11189580D02*
X12414999Y-11237200D01*
X12414999Y-11237200D02*
X12272142Y-11284819D01*
X12272142Y-11284819D02*
X12176904Y-11284819D01*
X12176904Y-11284819D02*
X12034047Y-11237200D01*
X12034047Y-11237200D02*
X11938809Y-11141961D01*
X11938809Y-11141961D02*
X11891190Y-11046723D01*
X11891190Y-11046723D02*
X11843571Y-10856247D01*
X11843571Y-10856247D02*
X11843571Y-10713390D01*
X11843571Y-10713390D02*
X11891190Y-10522914D01*
X11891190Y-10522914D02*
X11938809Y-10427676D01*
X11938809Y-10427676D02*
X12034047Y-10332438D01*
X12034047Y-10332438D02*
X12176904Y-10284819D01*
X12176904Y-10284819D02*
X12272142Y-10284819D01*
X12272142Y-10284819D02*
X12414999Y-10332438D01*
X12414999Y-10332438D02*
X12462618Y-10380057D01*
X12795952Y-10284819D02*
X13414999Y-10284819D01*
X13414999Y-10284819D02*
X13081666Y-10665771D01*
X13081666Y-10665771D02*
X13224523Y-10665771D01*
X13224523Y-10665771D02*
X13319761Y-10713390D01*
X13319761Y-10713390D02*
X13367380Y-10761009D01*
X13367380Y-10761009D02*
X13414999Y-10856247D01*
X13414999Y-10856247D02*
X13414999Y-11094342D01*
X13414999Y-11094342D02*
X13367380Y-11189580D01*
X13367380Y-11189580D02*
X13319761Y-11237200D01*
X13319761Y-11237200D02*
X13224523Y-11284819D01*
X13224523Y-11284819D02*
X12938809Y-11284819D01*
X12938809Y-11284819D02*
X12843571Y-11237200D01*
X12843571Y-11237200D02*
X12795952Y-11189580D01*
X16812619Y-11284819D02*
X16812619Y-10284819D01*
X17241190Y-10380057D02*
X17288809Y-10332438D01*
X17288809Y-10332438D02*
X17384047Y-10284819D01*
X17384047Y-10284819D02*
X17622142Y-10284819D01*
X17622142Y-10284819D02*
X17717380Y-10332438D01*
X17717380Y-10332438D02*
X17764999Y-10380057D01*
X17764999Y-10380057D02*
X17812618Y-10475295D01*
X17812618Y-10475295D02*
X17812618Y-10570533D01*
X17812618Y-10570533D02*
X17764999Y-10713390D01*
X17764999Y-10713390D02*
X17193571Y-11284819D01*
X17193571Y-11284819D02*
X17812618Y-11284819D01*
X18812618Y-11189580D02*
X18764999Y-11237200D01*
X18764999Y-11237200D02*
X18622142Y-11284819D01*
X18622142Y-11284819D02*
X18526904Y-11284819D01*
X18526904Y-11284819D02*
X18384047Y-11237200D01*
X18384047Y-11237200D02*
X18288809Y-11141961D01*
X18288809Y-11141961D02*
X18241190Y-11046723D01*
X18241190Y-11046723D02*
X18193571Y-10856247D01*
X18193571Y-10856247D02*
X18193571Y-10713390D01*
X18193571Y-10713390D02*
X18241190Y-10522914D01*
X18241190Y-10522914D02*
X18288809Y-10427676D01*
X18288809Y-10427676D02*
X18384047Y-10332438D01*
X18384047Y-10332438D02*
X18526904Y-10284819D01*
X18526904Y-10284819D02*
X18622142Y-10284819D01*
X18622142Y-10284819D02*
X18764999Y-10332438D01*
X18764999Y-10332438D02*
X18812618Y-10380057D01*
X19669761Y-10618152D02*
X19669761Y-11284819D01*
X19431666Y-10237200D02*
X19193571Y-10951485D01*
X19193571Y-10951485D02*
X19812618Y-10951485D01*
X23162619Y-11284819D02*
X23162619Y-10284819D01*
X23591190Y-10380057D02*
X23638809Y-10332438D01*
X23638809Y-10332438D02*
X23734047Y-10284819D01*
X23734047Y-10284819D02*
X23972142Y-10284819D01*
X23972142Y-10284819D02*
X24067380Y-10332438D01*
X24067380Y-10332438D02*
X24114999Y-10380057D01*
X24114999Y-10380057D02*
X24162618Y-10475295D01*
X24162618Y-10475295D02*
X24162618Y-10570533D01*
X24162618Y-10570533D02*
X24114999Y-10713390D01*
X24114999Y-10713390D02*
X23543571Y-11284819D01*
X23543571Y-11284819D02*
X24162618Y-11284819D01*
X25162618Y-11189580D02*
X25114999Y-11237200D01*
X25114999Y-11237200D02*
X24972142Y-11284819D01*
X24972142Y-11284819D02*
X24876904Y-11284819D01*
X24876904Y-11284819D02*
X24734047Y-11237200D01*
X24734047Y-11237200D02*
X24638809Y-11141961D01*
X24638809Y-11141961D02*
X24591190Y-11046723D01*
X24591190Y-11046723D02*
X24543571Y-10856247D01*
X24543571Y-10856247D02*
X24543571Y-10713390D01*
X24543571Y-10713390D02*
X24591190Y-10522914D01*
X24591190Y-10522914D02*
X24638809Y-10427676D01*
X24638809Y-10427676D02*
X24734047Y-10332438D01*
X24734047Y-10332438D02*
X24876904Y-10284819D01*
X24876904Y-10284819D02*
X24972142Y-10284819D01*
X24972142Y-10284819D02*
X25114999Y-10332438D01*
X25114999Y-10332438D02*
X25162618Y-10380057D01*
X25543571Y-10380057D02*
X25591190Y-10332438D01*
X25591190Y-10332438D02*
X25686428Y-10284819D01*
X25686428Y-10284819D02*
X25924523Y-10284819D01*
X25924523Y-10284819D02*
X26019761Y-10332438D01*
X26019761Y-10332438D02*
X26067380Y-10380057D01*
X26067380Y-10380057D02*
X26114999Y-10475295D01*
X26114999Y-10475295D02*
X26114999Y-10570533D01*
X26114999Y-10570533D02*
X26067380Y-10713390D01*
X26067380Y-10713390D02*
X25495952Y-11284819D01*
X25495952Y-11284819D02*
X26114999Y-11284819D01*
X29512619Y-11284819D02*
X29512619Y-10284819D01*
X29941190Y-10380057D02*
X29988809Y-10332438D01*
X29988809Y-10332438D02*
X30084047Y-10284819D01*
X30084047Y-10284819D02*
X30322142Y-10284819D01*
X30322142Y-10284819D02*
X30417380Y-10332438D01*
X30417380Y-10332438D02*
X30464999Y-10380057D01*
X30464999Y-10380057D02*
X30512618Y-10475295D01*
X30512618Y-10475295D02*
X30512618Y-10570533D01*
X30512618Y-10570533D02*
X30464999Y-10713390D01*
X30464999Y-10713390D02*
X29893571Y-11284819D01*
X29893571Y-11284819D02*
X30512618Y-11284819D01*
X31512618Y-11189580D02*
X31464999Y-11237200D01*
X31464999Y-11237200D02*
X31322142Y-11284819D01*
X31322142Y-11284819D02*
X31226904Y-11284819D01*
X31226904Y-11284819D02*
X31084047Y-11237200D01*
X31084047Y-11237200D02*
X30988809Y-11141961D01*
X30988809Y-11141961D02*
X30941190Y-11046723D01*
X30941190Y-11046723D02*
X30893571Y-10856247D01*
X30893571Y-10856247D02*
X30893571Y-10713390D01*
X30893571Y-10713390D02*
X30941190Y-10522914D01*
X30941190Y-10522914D02*
X30988809Y-10427676D01*
X30988809Y-10427676D02*
X31084047Y-10332438D01*
X31084047Y-10332438D02*
X31226904Y-10284819D01*
X31226904Y-10284819D02*
X31322142Y-10284819D01*
X31322142Y-10284819D02*
X31464999Y-10332438D01*
X31464999Y-10332438D02*
X31512618Y-10380057D01*
X32464999Y-11284819D02*
X31893571Y-11284819D01*
X32179285Y-11284819D02*
X32179285Y-10284819D01*
X32179285Y-10284819D02*
X32084047Y-10427676D01*
X32084047Y-10427676D02*
X31988809Y-10522914D01*
X31988809Y-10522914D02*
X31893571Y-10570533D01*
X40023624Y-55937902D02*
X40023624Y-55461712D01*
X40309339Y-56033140D02*
X39309339Y-55699807D01*
X39309339Y-55699807D02*
X40309339Y-55366474D01*
X40309339Y-54509331D02*
X40309339Y-55080759D01*
X40309339Y-54795045D02*
X39309339Y-54795045D01*
X39309339Y-54795045D02*
X39452196Y-54890283D01*
X39452196Y-54890283D02*
X39547434Y-54985521D01*
X39547434Y-54985521D02*
X39595053Y-55080759D01*
X38674339Y-50953140D02*
X39674339Y-50286474D01*
X38674339Y-50286474D02*
X39674339Y-50953140D01*
X38769577Y-49953140D02*
X38721958Y-49905521D01*
X38721958Y-49905521D02*
X38674339Y-49810283D01*
X38674339Y-49810283D02*
X38674339Y-49572188D01*
X38674339Y-49572188D02*
X38721958Y-49476950D01*
X38721958Y-49476950D02*
X38769577Y-49429331D01*
X38769577Y-49429331D02*
X38864815Y-49381712D01*
X38864815Y-49381712D02*
X38960053Y-49381712D01*
X38960053Y-49381712D02*
X39102910Y-49429331D01*
X39102910Y-49429331D02*
X39674339Y-50000759D01*
X39674339Y-50000759D02*
X39674339Y-49381712D01*
X38674339Y-45873140D02*
X39674339Y-45206474D01*
X38674339Y-45206474D02*
X39674339Y-45873140D01*
X39674339Y-44301712D02*
X39674339Y-44873140D01*
X39674339Y-44587426D02*
X38674339Y-44587426D01*
X38674339Y-44587426D02*
X38817196Y-44682664D01*
X38817196Y-44682664D02*
X38912434Y-44777902D01*
X38912434Y-44777902D02*
X38960053Y-44873140D01*
D11*
%TO.C,A4*%
X7805000Y-63130000D02*
X5155000Y-63130000D01*
X7805000Y-63130000D02*
X7805000Y-65750000D01*
X3735000Y-63130000D02*
X1085000Y-63130000D01*
X1085000Y-63130000D02*
X1085000Y-65750000D01*
X7805000Y-65750000D02*
X7155000Y-65750000D01*
X7155000Y-65750000D02*
X7155000Y-66980000D01*
X5735000Y-65750000D02*
X3155000Y-65750000D01*
X1735000Y-65750000D02*
X1085000Y-65750000D01*
%TO.C,A3*%
X7805000Y-56780000D02*
X5155000Y-56780000D01*
X7805000Y-56780000D02*
X7805000Y-59400000D01*
X3735000Y-56780000D02*
X1085000Y-56780000D01*
X1085000Y-56780000D02*
X1085000Y-59400000D01*
X7805000Y-59400000D02*
X7155000Y-59400000D01*
X7155000Y-59400000D02*
X7155000Y-60630000D01*
X5735000Y-59400000D02*
X3155000Y-59400000D01*
X1735000Y-59400000D02*
X1085000Y-59400000D01*
%TO.C,A2*%
X7805000Y-50430000D02*
X5155000Y-50430000D01*
X7805000Y-50430000D02*
X7805000Y-53050000D01*
X3735000Y-50430000D02*
X1085000Y-50430000D01*
X1085000Y-50430000D02*
X1085000Y-53050000D01*
X7805000Y-53050000D02*
X7155000Y-53050000D01*
X7155000Y-53050000D02*
X7155000Y-54280000D01*
X5735000Y-53050000D02*
X3155000Y-53050000D01*
X1735000Y-53050000D02*
X1085000Y-53050000D01*
%TO.C,U1*%
D12*
X11176000Y-10795000D02*
X37211000Y-10795000D01*
X37211000Y-62230000D01*
X11176000Y-62230000D01*
X11176000Y-10795000D01*
D13*
X20066000Y-62103000D02*
X29972000Y-62103000D01*
X29972000Y-64897000D01*
X20066000Y-64897000D01*
X20066000Y-62103000D01*
D11*
%TO.C,J16*%
X8255000Y-44445000D02*
X7025000Y-44445000D01*
X7025000Y-45095000D02*
X7025000Y-44445000D01*
X7025000Y-45095000D02*
X4405000Y-45095000D01*
X7025000Y-43025000D02*
X7025000Y-40445000D01*
X7025000Y-39025000D02*
X7025000Y-36445000D01*
X7025000Y-35025000D02*
X7025000Y-32375000D01*
X7025000Y-32375000D02*
X4405000Y-32375000D01*
X4405000Y-45095000D02*
X4405000Y-42445000D01*
X4405000Y-41025000D02*
X4405000Y-38445000D01*
X4405000Y-37025000D02*
X4405000Y-34445000D01*
X4405000Y-33025000D02*
X4405000Y-32375000D01*
%TO.C,J15*%
X7155000Y-26035000D02*
X7155000Y-27265000D01*
X7805000Y-27265000D02*
X7155000Y-27265000D01*
X7805000Y-27265000D02*
X7805000Y-29885000D01*
X5735000Y-27265000D02*
X3155000Y-27265000D01*
X1735000Y-27265000D02*
X1085000Y-27265000D01*
X1085000Y-27265000D02*
X1085000Y-29885000D01*
X7805000Y-29885000D02*
X5155000Y-29885000D01*
X3735000Y-29885000D02*
X1085000Y-29885000D01*
%TO.C,J14*%
X7155000Y-19685000D02*
X7155000Y-20915000D01*
X7805000Y-20915000D02*
X7155000Y-20915000D01*
X7805000Y-20915000D02*
X7805000Y-23535000D01*
X5735000Y-20915000D02*
X3155000Y-20915000D01*
X1735000Y-20915000D02*
X1085000Y-20915000D01*
X1085000Y-20915000D02*
X1085000Y-23535000D01*
X7805000Y-23535000D02*
X5155000Y-23535000D01*
X3735000Y-23535000D02*
X1085000Y-23535000D01*
%TO.C,J12*%
X42394520Y-24113617D02*
X43624520Y-24113617D01*
X43624520Y-23463617D02*
X43624520Y-24113617D01*
X43624520Y-23463617D02*
X46244520Y-23463617D01*
X43624520Y-25533617D02*
X43624520Y-28113617D01*
X43624520Y-29533617D02*
X43624520Y-32113617D01*
X43624520Y-33533617D02*
X43624520Y-36183617D01*
X43624520Y-36183617D02*
X46244520Y-36183617D01*
X46244520Y-23463617D02*
X46244520Y-26113617D01*
X46244520Y-27533617D02*
X46244520Y-30113617D01*
X46244520Y-31533617D02*
X46244520Y-34113617D01*
X46244520Y-35533617D02*
X46244520Y-36183617D01*
%TO.C,J10*%
X47474520Y-21468617D02*
X46244520Y-21468617D01*
X46244520Y-22118617D02*
X46244520Y-21468617D01*
X46244520Y-22118617D02*
X43624520Y-22118617D01*
X46244520Y-20048617D02*
X46244520Y-17468617D01*
X46244520Y-16048617D02*
X46244520Y-13398617D01*
X46244520Y-13398617D02*
X43624520Y-13398617D01*
X43624520Y-22118617D02*
X43624520Y-19468617D01*
X43624520Y-18048617D02*
X43624520Y-15468617D01*
X43624520Y-14048617D02*
X43624520Y-13398617D01*
%TO.C,I2C3*%
X10605000Y-1320000D02*
X10605000Y-670000D01*
X10605000Y-5320000D02*
X10605000Y-2740000D01*
X10605000Y-9390000D02*
X10605000Y-6740000D01*
X13225000Y-670000D02*
X10605000Y-670000D01*
X13225000Y-3320000D02*
X13225000Y-670000D01*
X13225000Y-7320000D02*
X13225000Y-4740000D01*
X13225000Y-9390000D02*
X10605000Y-9390000D01*
X13225000Y-9390000D02*
X13225000Y-8740000D01*
X14455000Y-8740000D02*
X13225000Y-8740000D01*
%TO.C,I2C4*%
X16955000Y-1320000D02*
X16955000Y-670000D01*
X16955000Y-5320000D02*
X16955000Y-2740000D01*
X16955000Y-9390000D02*
X16955000Y-6740000D01*
X19575000Y-670000D02*
X16955000Y-670000D01*
X19575000Y-3320000D02*
X19575000Y-670000D01*
X19575000Y-7320000D02*
X19575000Y-4740000D01*
X19575000Y-9390000D02*
X16955000Y-9390000D01*
X19575000Y-9390000D02*
X19575000Y-8740000D01*
X20805000Y-8740000D02*
X19575000Y-8740000D01*
%TO.C,I2C2*%
X23305000Y-1320000D02*
X23305000Y-670000D01*
X23305000Y-5320000D02*
X23305000Y-2740000D01*
X23305000Y-9390000D02*
X23305000Y-6740000D01*
X25925000Y-670000D02*
X23305000Y-670000D01*
X25925000Y-3320000D02*
X25925000Y-670000D01*
X25925000Y-7320000D02*
X25925000Y-4740000D01*
X25925000Y-9390000D02*
X23305000Y-9390000D01*
X25925000Y-9390000D02*
X25925000Y-8740000D01*
X27155000Y-8740000D02*
X25925000Y-8740000D01*
%TO.C,I2C1*%
X29655000Y-1320000D02*
X29655000Y-670000D01*
X29655000Y-5320000D02*
X29655000Y-2740000D01*
X29655000Y-9390000D02*
X29655000Y-6740000D01*
X32275000Y-670000D02*
X29655000Y-670000D01*
X32275000Y-3320000D02*
X32275000Y-670000D01*
X32275000Y-7320000D02*
X32275000Y-4740000D01*
X32275000Y-9390000D02*
X29655000Y-9390000D01*
X32275000Y-9390000D02*
X32275000Y-8740000D01*
X33505000Y-8740000D02*
X32275000Y-8740000D01*
%TO.C,A1*%
X42224520Y-59033617D02*
X42224520Y-57803617D01*
X41574520Y-57803617D02*
X42224520Y-57803617D01*
X41574520Y-57803617D02*
X41574520Y-55183617D01*
X43644520Y-57803617D02*
X46224520Y-57803617D01*
X47644520Y-57803617D02*
X48294520Y-57803617D01*
X48294520Y-57803617D02*
X48294520Y-55183617D01*
X41574520Y-55183617D02*
X44224520Y-55183617D01*
X45644520Y-55183617D02*
X48294520Y-55183617D01*
%TO.C,X2*%
X42224520Y-52683617D02*
X42224520Y-51453617D01*
X41574520Y-51453617D02*
X42224520Y-51453617D01*
X41574520Y-51453617D02*
X41574520Y-48833617D01*
X43644520Y-51453617D02*
X46224520Y-51453617D01*
X47644520Y-51453617D02*
X48294520Y-51453617D01*
X48294520Y-51453617D02*
X48294520Y-48833617D01*
X41574520Y-48833617D02*
X44224520Y-48833617D01*
X45644520Y-48833617D02*
X48294520Y-48833617D01*
%TO.C,X1*%
X42224520Y-46333617D02*
X42224520Y-45103617D01*
X41574520Y-45103617D02*
X42224520Y-45103617D01*
X41574520Y-45103617D02*
X41574520Y-42483617D01*
X43644520Y-45103617D02*
X46224520Y-45103617D01*
X47644520Y-45103617D02*
X48294520Y-45103617D01*
X48294520Y-45103617D02*
X48294520Y-42483617D01*
X41574520Y-42483617D02*
X44224520Y-42483617D01*
X45644520Y-42483617D02*
X48294520Y-42483617D01*
%TD*%
M02*
