<?xml version="1.0" encoding="UTF-8"?>
<svg xmlns="http://www.w3.org/2000/svg" xmlns:xlink="http://www.w3.org/1999/xlink" width="142pt" height="204pt" viewBox="0 0 142 204" version="1.1">
<g id="surface18361">
<path style=" stroke:none;fill-rule:evenodd;fill:rgb(100%,49.803922%,45.098039%);fill-opacity:1;" d="M 17.792969 194.722656 L 20.34375 194.722656 L 20.34375 189.054688 L 17.792969 189.054688 Z M 17.792969 194.722656 "/>
<path style=" stroke:none;fill-rule:evenodd;fill:rgb(100%,49.803922%,45.098039%);fill-opacity:1;" d="M 12.125 185.652344 L 14.675781 185.652344 L 14.675781 179.984375 L 12.125 179.984375 Z M 12.125 185.652344 "/>
<path style=" stroke:none;fill-rule:evenodd;fill:rgb(100%,49.803922%,45.098039%);fill-opacity:1;" d="M 6.453125 194.722656 L 9.003906 194.722656 L 9.003906 189.054688 L 6.453125 189.054688 Z M 6.453125 194.722656 "/>
<path style=" stroke:none;fill-rule:evenodd;fill:rgb(100%,49.803922%,45.098039%);fill-opacity:1;" d="M 17.792969 176.722656 L 20.34375 176.722656 L 20.34375 171.054688 L 17.792969 171.054688 Z M 17.792969 176.722656 "/>
<path style=" stroke:none;fill-rule:evenodd;fill:rgb(100%,49.803922%,45.098039%);fill-opacity:1;" d="M 12.125 167.652344 L 14.675781 167.652344 L 14.675781 161.984375 L 12.125 161.984375 Z M 12.125 167.652344 "/>
<path style=" stroke:none;fill-rule:evenodd;fill:rgb(100%,49.803922%,45.098039%);fill-opacity:1;" d="M 6.453125 176.722656 L 9.003906 176.722656 L 9.003906 171.054688 L 6.453125 171.054688 Z M 6.453125 176.722656 "/>
<path style=" stroke:none;fill-rule:evenodd;fill:rgb(100%,49.803922%,45.098039%);fill-opacity:1;" d="M 17.792969 158.722656 L 20.34375 158.722656 L 20.34375 153.054688 L 17.792969 153.054688 Z M 17.792969 158.722656 "/>
<path style=" stroke:none;fill-rule:evenodd;fill:rgb(100%,49.803922%,45.098039%);fill-opacity:1;" d="M 12.125 149.652344 L 14.675781 149.652344 L 14.675781 143.984375 L 12.125 143.984375 Z M 12.125 149.652344 "/>
<path style=" stroke:none;fill-rule:evenodd;fill:rgb(100%,49.803922%,45.098039%);fill-opacity:1;" d="M 6.453125 158.722656 L 9.003906 158.722656 L 9.003906 153.054688 L 6.453125 153.054688 Z M 6.453125 158.722656 "/>
<path style=" stroke:none;fill-rule:evenodd;fill:rgb(100%,49.803922%,45.098039%);fill-opacity:1;" d="M 35 40.6875 L 45.800781 40.6875 L 45.800781 37.085938 L 35 37.085938 Z M 35 40.6875 "/>
<path style=" stroke:none;fill-rule:evenodd;fill:rgb(100%,49.803922%,45.098039%);fill-opacity:1;" d="M 27.800781 47.886719 L 38.601563 47.886719 L 38.601563 44.285156 L 27.800781 44.285156 Z M 27.800781 47.886719 "/>
<path style=" stroke:none;fill-rule:evenodd;fill:rgb(100%,49.803922%,45.098039%);fill-opacity:1;" d="M 35 55.085938 L 45.800781 55.085938 L 45.800781 51.484375 L 35 51.484375 Z M 35 55.085938 "/>
<path style=" stroke:none;fill-rule:evenodd;fill:rgb(100%,49.803922%,45.098039%);fill-opacity:1;" d="M 27.800781 62.289063 L 38.601563 62.289063 L 38.601563 58.6875 L 27.800781 58.6875 Z M 27.800781 62.289063 "/>
<path style=" stroke:none;fill-rule:evenodd;fill:rgb(100%,49.803922%,45.098039%);fill-opacity:1;" d="M 35 69.488281 L 45.800781 69.488281 L 45.800781 65.886719 L 35 65.886719 Z M 35 69.488281 "/>
<path style=" stroke:none;fill-rule:evenodd;fill:rgb(100%,49.803922%,45.098039%);fill-opacity:1;" d="M 27.800781 76.6875 L 38.601563 76.6875 L 38.601563 73.085938 L 27.800781 73.085938 Z M 27.800781 76.6875 "/>
<path style=" stroke:none;fill-rule:evenodd;fill:rgb(100%,49.803922%,45.098039%);fill-opacity:1;" d="M 35 83.886719 L 45.800781 83.886719 L 45.800781 80.285156 L 35 80.285156 Z M 35 83.886719 "/>
<path style=" stroke:none;fill-rule:evenodd;fill:rgb(100%,49.803922%,45.098039%);fill-opacity:1;" d="M 27.800781 91.085938 L 38.601563 91.085938 L 38.601563 87.484375 L 27.800781 87.484375 Z M 27.800781 91.085938 "/>
<path style=" stroke:none;fill-rule:evenodd;fill:rgb(100%,49.803922%,45.098039%);fill-opacity:1;" d="M 35 98.289063 L 45.800781 98.289063 L 45.800781 94.6875 L 35 94.6875 Z M 35 98.289063 "/>
<path style=" stroke:none;fill-rule:evenodd;fill:rgb(100%,49.803922%,45.098039%);fill-opacity:1;" d="M 27.800781 105.488281 L 38.601563 105.488281 L 38.601563 101.886719 L 27.800781 101.886719 Z M 27.800781 105.488281 "/>
<path style=" stroke:none;fill-rule:evenodd;fill:rgb(100%,49.803922%,45.098039%);fill-opacity:1;" d="M 35 112.6875 L 45.800781 112.6875 L 45.800781 109.085938 L 35 109.085938 Z M 35 112.6875 "/>
<path style=" stroke:none;fill-rule:evenodd;fill:rgb(100%,49.803922%,45.098039%);fill-opacity:1;" d="M 27.800781 119.886719 L 38.601563 119.886719 L 38.601563 116.285156 L 27.800781 116.285156 Z M 27.800781 119.886719 "/>
<path style=" stroke:none;fill-rule:evenodd;fill:rgb(100%,49.803922%,45.098039%);fill-opacity:1;" d="M 35 127.085938 L 45.800781 127.085938 L 45.800781 123.484375 L 35 123.484375 Z M 35 127.085938 "/>
<path style=" stroke:none;fill-rule:evenodd;fill:rgb(100%,49.803922%,45.098039%);fill-opacity:1;" d="M 27.800781 134.289063 L 38.601563 134.289063 L 38.601563 130.6875 L 27.800781 130.6875 Z M 27.800781 134.289063 "/>
<path style=" stroke:none;fill-rule:evenodd;fill:rgb(100%,49.803922%,45.098039%);fill-opacity:1;" d="M 35 141.488281 L 45.800781 141.488281 L 45.800781 137.886719 L 35 137.886719 Z M 35 141.488281 "/>
<path style=" stroke:none;fill-rule:evenodd;fill:rgb(100%,49.803922%,45.098039%);fill-opacity:1;" d="M 27.800781 148.6875 L 38.601563 148.6875 L 38.601563 145.085938 L 27.800781 145.085938 Z M 27.800781 148.6875 "/>
<path style=" stroke:none;fill-rule:evenodd;fill:rgb(100%,49.803922%,45.098039%);fill-opacity:1;" d="M 35 155.886719 L 45.800781 155.886719 L 45.800781 152.285156 L 35 152.285156 Z M 35 155.886719 "/>
<path style=" stroke:none;fill-rule:evenodd;fill:rgb(100%,49.803922%,45.098039%);fill-opacity:1;" d="M 27.800781 163.085938 L 38.601563 163.085938 L 38.601563 159.484375 L 27.800781 159.484375 Z M 27.800781 163.085938 "/>
<path style=" stroke:none;fill-rule:evenodd;fill:rgb(100%,49.803922%,45.098039%);fill-opacity:1;" d="M 35 170.289063 L 45.800781 170.289063 L 45.800781 166.6875 L 35 166.6875 Z M 35 170.289063 "/>
<path style=" stroke:none;fill-rule:evenodd;fill:rgb(100%,49.803922%,45.098039%);fill-opacity:1;" d="M 99.800781 40.6875 L 110.601563 40.6875 L 110.601563 37.085938 L 99.800781 37.085938 Z M 99.800781 40.6875 "/>
<path style=" stroke:none;fill-rule:evenodd;fill:rgb(100%,49.803922%,45.098039%);fill-opacity:1;" d="M 92.597656 47.886719 L 103.398438 47.886719 L 103.398438 44.285156 L 92.597656 44.285156 Z M 92.597656 47.886719 "/>
<path style=" stroke:none;fill-rule:evenodd;fill:rgb(100%,49.803922%,45.098039%);fill-opacity:1;" d="M 99.800781 55.085938 L 110.601563 55.085938 L 110.601563 51.484375 L 99.800781 51.484375 Z M 99.800781 55.085938 "/>
<path style=" stroke:none;fill-rule:evenodd;fill:rgb(100%,49.803922%,45.098039%);fill-opacity:1;" d="M 92.597656 62.289063 L 103.398438 62.289063 L 103.398438 58.6875 L 92.597656 58.6875 Z M 92.597656 62.289063 "/>
<path style=" stroke:none;fill-rule:evenodd;fill:rgb(100%,49.803922%,45.098039%);fill-opacity:1;" d="M 99.800781 69.488281 L 110.601563 69.488281 L 110.601563 65.886719 L 99.800781 65.886719 Z M 99.800781 69.488281 "/>
<path style=" stroke:none;fill-rule:evenodd;fill:rgb(100%,49.803922%,45.098039%);fill-opacity:1;" d="M 92.597656 76.6875 L 103.398438 76.6875 L 103.398438 73.085938 L 92.597656 73.085938 Z M 92.597656 76.6875 "/>
<path style=" stroke:none;fill-rule:evenodd;fill:rgb(100%,49.803922%,45.098039%);fill-opacity:1;" d="M 99.800781 83.886719 L 110.601563 83.886719 L 110.601563 80.285156 L 99.800781 80.285156 Z M 99.800781 83.886719 "/>
<path style=" stroke:none;fill-rule:evenodd;fill:rgb(100%,49.803922%,45.098039%);fill-opacity:1;" d="M 92.597656 91.085938 L 103.398438 91.085938 L 103.398438 87.484375 L 92.597656 87.484375 Z M 92.597656 91.085938 "/>
<path style=" stroke:none;fill-rule:evenodd;fill:rgb(100%,49.803922%,45.098039%);fill-opacity:1;" d="M 99.800781 98.289063 L 110.601563 98.289063 L 110.601563 94.6875 L 99.800781 94.6875 Z M 99.800781 98.289063 "/>
<path style=" stroke:none;fill-rule:evenodd;fill:rgb(100%,49.803922%,45.098039%);fill-opacity:1;" d="M 92.597656 105.488281 L 103.398438 105.488281 L 103.398438 101.886719 L 92.597656 101.886719 Z M 92.597656 105.488281 "/>
<path style=" stroke:none;fill-rule:evenodd;fill:rgb(100%,49.803922%,45.098039%);fill-opacity:1;" d="M 99.800781 112.6875 L 110.601563 112.6875 L 110.601563 109.085938 L 99.800781 109.085938 Z M 99.800781 112.6875 "/>
<path style=" stroke:none;fill-rule:evenodd;fill:rgb(100%,49.803922%,45.098039%);fill-opacity:1;" d="M 92.597656 119.886719 L 103.398438 119.886719 L 103.398438 116.285156 L 92.597656 116.285156 Z M 92.597656 119.886719 "/>
<path style=" stroke:none;fill-rule:evenodd;fill:rgb(100%,49.803922%,45.098039%);fill-opacity:1;" d="M 99.800781 127.085938 L 110.601563 127.085938 L 110.601563 123.484375 L 99.800781 123.484375 Z M 99.800781 127.085938 "/>
<path style=" stroke:none;fill-rule:evenodd;fill:rgb(100%,49.803922%,45.098039%);fill-opacity:1;" d="M 92.597656 134.289063 L 103.398438 134.289063 L 103.398438 130.6875 L 92.597656 130.6875 Z M 92.597656 134.289063 "/>
<path style=" stroke:none;fill-rule:evenodd;fill:rgb(100%,49.803922%,45.098039%);fill-opacity:1;" d="M 99.800781 141.488281 L 110.601563 141.488281 L 110.601563 137.886719 L 99.800781 137.886719 Z M 99.800781 141.488281 "/>
<path style=" stroke:none;fill-rule:evenodd;fill:rgb(100%,49.803922%,45.098039%);fill-opacity:1;" d="M 92.597656 148.6875 L 103.398438 148.6875 L 103.398438 145.085938 L 92.597656 145.085938 Z M 92.597656 148.6875 "/>
<path style=" stroke:none;fill-rule:evenodd;fill:rgb(100%,49.803922%,45.098039%);fill-opacity:1;" d="M 99.800781 155.886719 L 110.601563 155.886719 L 110.601563 152.285156 L 99.800781 152.285156 Z M 99.800781 155.886719 "/>
<path style=" stroke:none;fill-rule:evenodd;fill:rgb(100%,49.803922%,45.098039%);fill-opacity:1;" d="M 92.597656 163.085938 L 103.398438 163.085938 L 103.398438 159.484375 L 92.597656 159.484375 Z M 92.597656 163.085938 "/>
<path style=" stroke:none;fill-rule:evenodd;fill:rgb(100%,49.803922%,45.098039%);fill-opacity:1;" d="M 99.800781 170.289063 L 110.601563 170.289063 L 110.601563 166.6875 L 99.800781 166.6875 Z M 99.800781 170.289063 "/>
<path style=" stroke:none;fill-rule:evenodd;fill:rgb(100%,49.803922%,45.098039%);fill-opacity:1;" d="M 18.699219 129.9375 L 24.367188 129.9375 L 24.367188 127.386719 L 18.699219 127.386719 Z M 18.699219 129.9375 "/>
<path style=" stroke:none;fill-rule:evenodd;fill:rgb(100%,49.803922%,45.098039%);fill-opacity:1;" d="M 9.628906 124.265625 L 15.296875 124.265625 L 15.296875 121.714844 L 9.628906 121.714844 Z M 9.628906 124.265625 "/>
<path style=" stroke:none;fill-rule:evenodd;fill:rgb(100%,49.803922%,45.098039%);fill-opacity:1;" d="M 18.699219 118.597656 L 24.367188 118.597656 L 24.367188 116.046875 L 18.699219 116.046875 Z M 18.699219 118.597656 "/>
<path style=" stroke:none;fill-rule:evenodd;fill:rgb(100%,49.803922%,45.098039%);fill-opacity:1;" d="M 9.628906 112.929688 L 15.296875 112.929688 L 15.296875 110.378906 L 9.628906 110.378906 Z M 9.628906 112.929688 "/>
<path style=" stroke:none;fill-rule:evenodd;fill:rgb(100%,49.803922%,45.098039%);fill-opacity:1;" d="M 18.699219 107.257813 L 24.367188 107.257813 L 24.367188 104.707031 L 18.699219 104.707031 Z M 18.699219 107.257813 "/>
<path style=" stroke:none;fill-rule:evenodd;fill:rgb(100%,49.803922%,45.098039%);fill-opacity:1;" d="M 9.628906 101.589844 L 15.296875 101.589844 L 15.296875 99.039063 L 9.628906 99.039063 Z M 9.628906 101.589844 "/>
<path style=" stroke:none;fill-rule:evenodd;fill:rgb(100%,49.803922%,45.098039%);fill-opacity:1;" d="M 17.792969 83.988281 L 20.34375 83.988281 L 20.34375 78.320313 L 17.792969 78.320313 Z M 17.792969 83.988281 "/>
<path style=" stroke:none;fill-rule:evenodd;fill:rgb(100%,49.803922%,45.098039%);fill-opacity:1;" d="M 12.125 93.058594 L 14.675781 93.058594 L 14.675781 87.390625 L 12.125 87.390625 Z M 12.125 93.058594 "/>
<path style=" stroke:none;fill-rule:evenodd;fill:rgb(100%,49.803922%,45.098039%);fill-opacity:1;" d="M 6.453125 83.988281 L 9.003906 83.988281 L 9.003906 78.320313 L 6.453125 78.320313 Z M 6.453125 83.988281 "/>
<path style=" stroke:none;fill-rule:evenodd;fill:rgb(100%,49.803922%,45.098039%);fill-opacity:1;" d="M 17.792969 65.988281 L 20.34375 65.988281 L 20.34375 60.320313 L 17.792969 60.320313 Z M 17.792969 65.988281 "/>
<path style=" stroke:none;fill-rule:evenodd;fill:rgb(100%,49.803922%,45.098039%);fill-opacity:1;" d="M 12.125 75.058594 L 14.675781 75.058594 L 14.675781 69.390625 L 12.125 69.390625 Z M 12.125 75.058594 "/>
<path style=" stroke:none;fill-rule:evenodd;fill:rgb(100%,49.803922%,45.098039%);fill-opacity:1;" d="M 6.453125 65.988281 L 9.003906 65.988281 L 9.003906 60.320313 L 6.453125 60.320313 Z M 6.453125 65.988281 "/>
<path style=" stroke:none;fill-rule:evenodd;fill:rgb(100%,49.803922%,45.098039%);fill-opacity:1;" d="M 120.800781 76.328125 L 126.46875 76.328125 L 126.46875 73.777344 L 120.800781 73.777344 Z M 120.800781 76.328125 "/>
<path style=" stroke:none;fill-rule:evenodd;fill:rgb(100%,49.803922%,45.098039%);fill-opacity:1;" d="M 129.875 82 L 135.542969 82 L 135.542969 79.449219 L 129.875 79.449219 Z M 129.875 82 "/>
<path style=" stroke:none;fill-rule:evenodd;fill:rgb(100%,49.803922%,45.098039%);fill-opacity:1;" d="M 120.800781 87.667969 L 126.46875 87.667969 L 126.46875 85.117188 L 120.800781 85.117188 Z M 120.800781 87.667969 "/>
<path style=" stroke:none;fill-rule:evenodd;fill:rgb(100%,49.803922%,45.098039%);fill-opacity:1;" d="M 129.875 93.335938 L 135.542969 93.335938 L 135.542969 90.785156 L 129.875 90.785156 Z M 129.875 93.335938 "/>
<path style=" stroke:none;fill-rule:evenodd;fill:rgb(100%,49.803922%,45.098039%);fill-opacity:1;" d="M 120.800781 99.007813 L 126.46875 99.007813 L 126.46875 96.457031 L 120.800781 96.457031 Z M 120.800781 99.007813 "/>
<path style=" stroke:none;fill-rule:evenodd;fill:rgb(100%,49.803922%,45.098039%);fill-opacity:1;" d="M 129.875 104.675781 L 135.542969 104.675781 L 135.542969 102.125 L 129.875 102.125 Z M 129.875 104.675781 "/>
<path style=" stroke:none;fill-rule:evenodd;fill:rgb(100%,49.803922%,45.098039%);fill-opacity:1;" d="M 129.875 64.804688 L 135.542969 64.804688 L 135.542969 62.253906 L 129.875 62.253906 Z M 129.875 64.804688 "/>
<path style=" stroke:none;fill-rule:evenodd;fill:rgb(100%,49.803922%,45.098039%);fill-opacity:1;" d="M 120.800781 59.136719 L 126.46875 59.136719 L 126.46875 56.585938 L 120.800781 56.585938 Z M 120.800781 59.136719 "/>
<path style=" stroke:none;fill-rule:evenodd;fill:rgb(100%,49.803922%,45.098039%);fill-opacity:1;" d="M 129.875 53.46875 L 135.542969 53.46875 L 135.542969 50.917969 L 129.875 50.917969 Z M 129.875 53.46875 "/>
<path style=" stroke:none;fill-rule:evenodd;fill:rgb(100%,49.803922%,45.098039%);fill-opacity:1;" d="M 120.800781 47.796875 L 126.46875 47.796875 L 126.46875 45.246094 L 120.800781 45.246094 Z M 120.800781 47.796875 "/>
<path style=" stroke:none;fill-rule:evenodd;fill:rgb(100%,49.803922%,45.098039%);fill-opacity:1;" d="M 27.203125 11.71875 L 32.871094 11.71875 L 32.871094 9.167969 L 27.203125 9.167969 Z M 27.203125 11.71875 "/>
<path style=" stroke:none;fill-rule:evenodd;fill:rgb(100%,49.803922%,45.098039%);fill-opacity:1;" d="M 36.273438 17.386719 L 41.941406 17.386719 L 41.941406 14.835938 L 36.273438 14.835938 Z M 36.273438 17.386719 "/>
<path style=" stroke:none;fill-rule:evenodd;fill:rgb(100%,49.803922%,45.098039%);fill-opacity:1;" d="M 27.203125 23.054688 L 32.871094 23.054688 L 32.871094 20.503906 L 27.203125 20.503906 Z M 27.203125 23.054688 "/>
<path style=" stroke:none;fill-rule:evenodd;fill:rgb(100%,49.803922%,45.098039%);fill-opacity:1;" d="M 36.273438 28.726563 L 41.941406 28.726563 L 41.941406 26.175781 L 36.273438 26.175781 Z M 36.273438 28.726563 "/>
<path style=" stroke:none;fill-rule:evenodd;fill:rgb(100%,49.803922%,45.098039%);fill-opacity:1;" d="M 45.203125 11.71875 L 50.871094 11.71875 L 50.871094 9.167969 L 45.203125 9.167969 Z M 45.203125 11.71875 "/>
<path style=" stroke:none;fill-rule:evenodd;fill:rgb(100%,49.803922%,45.098039%);fill-opacity:1;" d="M 54.273438 17.386719 L 59.941406 17.386719 L 59.941406 14.835938 L 54.273438 14.835938 Z M 54.273438 17.386719 "/>
<path style=" stroke:none;fill-rule:evenodd;fill:rgb(100%,49.803922%,45.098039%);fill-opacity:1;" d="M 45.203125 23.054688 L 50.871094 23.054688 L 50.871094 20.503906 L 45.203125 20.503906 Z M 45.203125 23.054688 "/>
<path style=" stroke:none;fill-rule:evenodd;fill:rgb(100%,49.803922%,45.098039%);fill-opacity:1;" d="M 54.273438 28.726563 L 59.941406 28.726563 L 59.941406 26.175781 L 54.273438 26.175781 Z M 54.273438 28.726563 "/>
<path style=" stroke:none;fill-rule:evenodd;fill:rgb(100%,49.803922%,45.098039%);fill-opacity:1;" d="M 63.203125 11.71875 L 68.871094 11.71875 L 68.871094 9.167969 L 63.203125 9.167969 Z M 63.203125 11.71875 "/>
<path style=" stroke:none;fill-rule:evenodd;fill:rgb(100%,49.803922%,45.098039%);fill-opacity:1;" d="M 72.273438 17.386719 L 77.941406 17.386719 L 77.941406 14.835938 L 72.273438 14.835938 Z M 72.273438 17.386719 "/>
<path style=" stroke:none;fill-rule:evenodd;fill:rgb(100%,49.803922%,45.098039%);fill-opacity:1;" d="M 63.203125 23.054688 L 68.871094 23.054688 L 68.871094 20.503906 L 63.203125 20.503906 Z M 63.203125 23.054688 "/>
<path style=" stroke:none;fill-rule:evenodd;fill:rgb(100%,49.803922%,45.098039%);fill-opacity:1;" d="M 72.273438 28.726563 L 77.941406 28.726563 L 77.941406 26.175781 L 72.273438 26.175781 Z M 72.273438 28.726563 "/>
<path style=" stroke:none;fill-rule:evenodd;fill:rgb(100%,49.803922%,45.098039%);fill-opacity:1;" d="M 81.203125 11.71875 L 86.871094 11.71875 L 86.871094 9.167969 L 81.203125 9.167969 Z M 81.203125 11.71875 "/>
<path style=" stroke:none;fill-rule:evenodd;fill:rgb(100%,49.803922%,45.098039%);fill-opacity:1;" d="M 90.273438 17.386719 L 95.941406 17.386719 L 95.941406 14.835938 L 90.273438 14.835938 Z M 90.273438 17.386719 "/>
<path style=" stroke:none;fill-rule:evenodd;fill:rgb(100%,49.803922%,45.098039%);fill-opacity:1;" d="M 81.203125 23.054688 L 86.871094 23.054688 L 86.871094 20.503906 L 81.203125 20.503906 Z M 81.203125 23.054688 "/>
<path style=" stroke:none;fill-rule:evenodd;fill:rgb(100%,49.803922%,45.098039%);fill-opacity:1;" d="M 90.273438 28.726563 L 95.941406 28.726563 L 95.941406 26.175781 L 90.273438 26.175781 Z M 90.273438 28.726563 "/>
<path style=" stroke:none;fill-rule:evenodd;fill:rgb(100%,49.803922%,45.098039%);fill-opacity:1;" d="M 121.226563 172.195313 L 123.777344 172.195313 L 123.777344 166.527344 L 121.226563 166.527344 Z M 121.226563 172.195313 "/>
<path style=" stroke:none;fill-rule:evenodd;fill:rgb(100%,49.803922%,45.098039%);fill-opacity:1;" d="M 126.898438 163.125 L 129.449219 163.125 L 129.449219 157.457031 L 126.898438 157.457031 Z M 126.898438 163.125 "/>
<path style=" stroke:none;fill-rule:evenodd;fill:rgb(100%,49.803922%,45.098039%);fill-opacity:1;" d="M 132.566406 172.195313 L 135.117188 172.195313 L 135.117188 166.527344 L 132.566406 166.527344 Z M 132.566406 172.195313 "/>
<path style=" stroke:none;fill-rule:evenodd;fill:rgb(100%,49.803922%,45.098039%);fill-opacity:1;" d="M 121.226563 154.195313 L 123.777344 154.195313 L 123.777344 148.527344 L 121.226563 148.527344 Z M 121.226563 154.195313 "/>
<path style=" stroke:none;fill-rule:evenodd;fill:rgb(100%,49.803922%,45.098039%);fill-opacity:1;" d="M 126.898438 145.125 L 129.449219 145.125 L 129.449219 139.457031 L 126.898438 139.457031 Z M 126.898438 145.125 "/>
<path style=" stroke:none;fill-rule:evenodd;fill:rgb(100%,49.803922%,45.098039%);fill-opacity:1;" d="M 132.566406 154.195313 L 135.117188 154.195313 L 135.117188 148.527344 L 132.566406 148.527344 Z M 132.566406 154.195313 "/>
<path style=" stroke:none;fill-rule:evenodd;fill:rgb(100%,49.803922%,45.098039%);fill-opacity:1;" d="M 121.226563 136.195313 L 123.777344 136.195313 L 123.777344 130.527344 L 121.226563 130.527344 Z M 121.226563 136.195313 "/>
<path style=" stroke:none;fill-rule:evenodd;fill:rgb(100%,49.803922%,45.098039%);fill-opacity:1;" d="M 126.898438 127.125 L 129.449219 127.125 L 129.449219 121.457031 L 126.898438 121.457031 Z M 126.898438 127.125 "/>
<path style=" stroke:none;fill-rule:evenodd;fill:rgb(100%,49.803922%,45.098039%);fill-opacity:1;" d="M 132.566406 136.195313 L 135.117188 136.195313 L 135.117188 130.527344 L 132.566406 130.527344 Z M 132.566406 136.195313 "/>
</g>
</svg>
