  0
SECTION
  2
HEADER
  9
$ANGBASE
  50
0.0
  9
$ANGDIR
  70
1
  9
$MEASUREMENT
  70
1
  0
ENDSEC
  0
SECTION
  2
TABLES
  0
TABLE
  2
LTYPE
  70
4
  0
LTYPE
  5
40F
  2
CONTINUOUS
  70
0
  3
Solid line
  72
65
  73
0
  40
0.0
  0
LTYPE
  5
410
  2
DASHDOT
 70
0
  3
Dash Dot ____ _ ____ _
 72
65
 73
4
 40
2.0
 49
1.25
 49
-0.25
 49
0.25
 49
-0.25
  0
LTYPE
  5
411
  2
DASHED
 70
0
  3
Dashed __ __ __ __ __
 72
65
 73
2
 40
0.75
 49
0.5
 49
-0.25
  0
LTYPE
  5
43B
  2
DOTTED
 70
0
  3
Dotted .  .  .  .
 72
65
 73
2
 40
0.2
 49
0.0
 49
-0.2
  0
ENDTAB
  0
TABLE
  2
STYLE
  70
4
  0
STYLE
  2
KICAD
  70
0
  40
0
  41
1
  42
1
  50
0
  71
0
  3
isocp.shx
  0
STYLE
  2
KICADB
  70
0
  40
0
  41
1
  42
1
  50
0
  71
0
  3
isocp.shx
  0
STYLE
  2
KICADI
  70
0
  40
0
  41
1
  42
1
  50
15
  71
0
  3
isocp.shx
  0
STYLE
  2
KICADBI
  70
0
  40
0
  41
1
  42
1
  50
15
  71
0
  3
isocp.shx
  0
ENDTAB
  0
TABLE
  2
LAYER
  70
35
  0
LAYER
  2
BLACK
  70
0
  62
7
  6
CONTINUOUS
  0
LAYER
  2
GRAY1
  70
0
  62
251
  6
CONTINUOUS
  0
LAYER
  2
GRAY2
  70
0
  62
8
  6
CONTINUOUS
  0
LAYER
  2
GRAY3
  70
0
  62
9
  6
CONTINUOUS
  0
LAYER
  2
WHITE
  70
0
  62
7
  6
CONTINUOUS
  0
LAYER
  2
LYELLOW
  70
0
  62
51
  6
CONTINUOUS
  0
LAYER
  2
LORANGE
  70
0
  62
41
  6
CONTINUOUS
  0
LAYER
  2
BLUE1
  70
0
  62
178
  6
CONTINUOUS
  0
LAYER
  2
GREEN1
  70
0
  62
98
  6
CONTINUOUS
  0
LAYER
  2
CYAN1
  70
0
  62
138
  6
CONTINUOUS
  0
LAYER
  2
RED1
  70
0
  62
18
  6
CONTINUOUS
  0
LAYER
  2
MAGENTA1
  70
0
  62
228
  6
CONTINUOUS
  0
LAYER
  2
BROWN1
  70
0
  62
58
  6
CONTINUOUS
  0
LAYER
  2
ORANGE1
  70
0
  62
34
  6
CONTINUOUS
  0
LAYER
  2
BLUE2
  70
0
  62
5
  6
CONTINUOUS
  0
LAYER
  2
GREEN2
  70
0
  62
3
  6
CONTINUOUS
  0
LAYER
  2
CYAN2
  70
0
  62
4
  6
CONTINUOUS
  0
LAYER
  2
RED2
  70
0
  62
1
  6
CONTINUOUS
  0
LAYER
  2
MAGENTA2
  70
0
  62
6
  6
CONTINUOUS
  0
LAYER
  2
BROWN2
  70
0
  62
54
  6
CONTINUOUS
  0
LAYER
  2
ORANGE2
  70
0
  62
42
  6
CONTINUOUS
  0
LAYER
  2
BLUE3
  70
0
  62
171
  6
CONTINUOUS
  0
LAYER
  2
GREEN3
  70
0
  62
91
  6
CONTINUOUS
  0
LAYER
  2
CYAN3
  70
0
  62
131
  6
CONTINUOUS
  0
LAYER
  2
RED3
  70
0
  62
11
  6
CONTINUOUS
  0
LAYER
  2
MAGENTA3
  70
0
  62
221
  6
CONTINUOUS
  0
LAYER
  2
YELLOW3
  70
0
  62
2
  6
CONTINUOUS
  0
LAYER
  2
ORANGE3
  70
0
  62
32
  6
CONTINUOUS
  0
LAYER
  2
BLUE4
  70
0
  62
5
  6
CONTINUOUS
  0
LAYER
  2
GREEN4
  70
0
  62
3
  6
CONTINUOUS
  0
LAYER
  2
CYAN4
  70
0
  62
4
  6
CONTINUOUS
  0
LAYER
  2
RED4
  70
0
  62
1
  6
CONTINUOUS
  0
LAYER
  2
MAGENTA4
  70
0
  62
6
  6
CONTINUOUS
  0
LAYER
  2
YELLOW4
  70
0
  62
2
  6
CONTINUOUS
  0
LAYER
  2
ORANGE4
  70
0
  62
40
  6
CONTINUOUS
  0
ENDTAB
  0
ENDSEC
  0
SECTION
  2
ENTITIES
0
LINE
8
LYELLOW
6
CONTINUOUS
10
10.7058269999999993
20
-32.5541739999999962
11
11.4201119999999996
21
-32.5541739999999962
0
LINE
8
LYELLOW
6
CONTINUOUS
10
11.4201119999999996
20
-32.5541739999999962
11
11.5629689999999989
21
-32.6017930000000007
0
LINE
8
LYELLOW
6
CONTINUOUS
10
11.5629689999999989
20
-32.6017930000000007
11
11.6582080000000001
21
-32.6970309999999955
0
LINE
8
LYELLOW
6
CONTINUOUS
10
11.6582080000000001
20
-32.6970309999999955
11
11.7058269999999993
21
-32.839888000000002
0
LINE
8
LYELLOW
6
CONTINUOUS
10
11.7058269999999993
20
-32.839888000000002
11
11.7058269999999993
21
-32.9351259999999968
0
LINE
8
LYELLOW
6
CONTINUOUS
10
11.7058269999999993
20
-31.5541739999999997
11
11.7058269999999993
21
-32.1256020000000007
0
LINE
8
LYELLOW
6
CONTINUOUS
10
11.7058269999999993
20
-31.8398879999999984
11
10.7058269999999993
21
-31.8398879999999984
0
LINE
8
LYELLOW
6
CONTINUOUS
10
10.7058269999999993
20
-31.8398879999999984
11
10.8486839999999987
21
-31.9351259999999968
0
LINE
8
LYELLOW
6
CONTINUOUS
10
10.8486839999999987
20
-31.9351259999999968
11
10.9439219999999988
21
-32.0303639999999987
0
LINE
8
LYELLOW
6
CONTINUOUS
10
10.9439219999999988
20
-32.0303639999999987
11
10.9915409999999998
21
-32.1256020000000007
0
LINE
8
LYELLOW
6
CONTINUOUS
10
10.7058269999999993
20
-30.6494119999999981
11
10.7058269999999993
21
-31.1256019999999971
0
LINE
8
LYELLOW
6
CONTINUOUS
10
10.7058269999999993
20
-31.1256019999999971
11
11.1820170000000001
21
-31.1732209999999981
0
LINE
8
LYELLOW
6
CONTINUOUS
10
11.1820170000000001
20
-31.1732209999999981
11
11.1343979999999991
21
-31.1256019999999971
0
LINE
8
LYELLOW
6
CONTINUOUS
10
11.1343979999999991
20
-31.1256019999999971
11
11.0867789999999999
21
-31.0303639999999987
0
LINE
8
LYELLOW
6
CONTINUOUS
10
11.0867789999999999
20
-31.0303639999999987
11
11.0867789999999999
21
-30.7922689999999974
0
LINE
8
LYELLOW
6
CONTINUOUS
10
11.0867789999999999
20
-30.7922689999999974
11
11.1343979999999991
21
-30.6970309999999991
0
LINE
8
LYELLOW
6
CONTINUOUS
10
11.1343979999999991
20
-30.6970309999999991
11
11.1820170000000001
21
-30.6494119999999981
0
LINE
8
LYELLOW
6
CONTINUOUS
10
11.1820170000000001
20
-30.6494119999999981
11
11.2772550000000003
21
-30.6017929999999971
0
LINE
8
LYELLOW
6
CONTINUOUS
10
11.2772550000000003
20
-30.6017929999999971
11
11.5153499999999998
21
-30.6017929999999971
0
LINE
8
LYELLOW
6
CONTINUOUS
10
11.5153499999999998
20
-30.6017929999999971
11
11.6105879999999999
21
-30.6494119999999981
0
LINE
8
LYELLOW
6
CONTINUOUS
10
11.6105879999999999
20
-30.6494119999999981
11
11.6582080000000001
21
-30.6970309999999991
0
LINE
8
LYELLOW
6
CONTINUOUS
10
11.6582080000000001
20
-30.6970309999999991
11
11.7058269999999993
21
-30.7922689999999974
0
LINE
8
LYELLOW
6
CONTINUOUS
10
11.7058269999999993
20
-30.7922689999999974
11
11.7058269999999993
21
-31.0303639999999987
0
LINE
8
LYELLOW
6
CONTINUOUS
10
11.7058269999999993
20
-31.0303639999999987
11
11.6582080000000001
21
-31.1256019999999971
0
LINE
8
LYELLOW
6
CONTINUOUS
10
11.6582080000000001
20
-31.1256019999999971
11
11.6105879999999999
21
-31.1732209999999981
0
LINE
8
LYELLOW
6
CONTINUOUS
10
41.5248190000000008
20
-9.3503329999999991
11
42.2391039999999975
21
-9.3503329999999991
0
LINE
8
LYELLOW
6
CONTINUOUS
10
42.2391039999999975
20
-9.3503329999999991
11
42.3819609999999969
21
-9.3979520000000001
0
LINE
8
LYELLOW
6
CONTINUOUS
10
42.3819609999999969
20
-9.3979520000000001
11
42.4771999999999963
21
-9.4931900000000002
0
LINE
8
LYELLOW
6
CONTINUOUS
10
42.4771999999999963
20
-9.4931900000000002
11
42.5248190000000008
21
-9.6360469999999996
0
LINE
8
LYELLOW
6
CONTINUOUS
10
42.5248190000000008
20
-9.6360469999999996
11
42.5248190000000008
21
-9.7312849999999997
0
LINE
8
LYELLOW
6
CONTINUOUS
10
41.9533899999999988
20
-8.7312849999999997
11
41.9057710000000014
21
-8.8265229999999999
0
LINE
8
LYELLOW
6
CONTINUOUS
10
41.9057710000000014
20
-8.8265229999999999
11
41.8581519999999969
21
-8.8741419999999991
0
LINE
8
LYELLOW
6
CONTINUOUS
10
41.8581519999999969
20
-8.8741419999999991
11
41.762913999999995
21
-8.9217610000000001
0
LINE
8
LYELLOW
6
CONTINUOUS
10
41.762913999999995
20
-8.9217610000000001
11
41.7152949999999976
21
-8.9217610000000001
0
LINE
8
LYELLOW
6
CONTINUOUS
10
41.7152949999999976
20
-8.9217610000000001
11
41.6200569999999956
21
-8.8741419999999991
0
LINE
8
LYELLOW
6
CONTINUOUS
10
41.6200569999999956
20
-8.8741419999999991
11
41.5724379999999982
21
-8.8265229999999999
0
LINE
8
LYELLOW
6
CONTINUOUS
10
41.5724379999999982
20
-8.8265229999999999
11
41.5248190000000008
21
-8.7312849999999997
0
LINE
8
LYELLOW
6
CONTINUOUS
10
41.5248190000000008
20
-8.7312849999999997
11
41.5248190000000008
21
-8.5408089999999994
0
LINE
8
LYELLOW
6
CONTINUOUS
10
41.5248190000000008
20
-8.5408089999999994
11
41.5724379999999982
21
-8.4455709999999993
0
LINE
8
LYELLOW
6
CONTINUOUS
10
41.5724379999999982
20
-8.4455709999999993
11
41.6200569999999956
21
-8.3979520000000001
0
LINE
8
LYELLOW
6
CONTINUOUS
10
41.6200569999999956
20
-8.3979520000000001
11
41.7152949999999976
21
-8.3503329999999991
0
LINE
8
LYELLOW
6
CONTINUOUS
10
41.7152949999999976
20
-8.3503329999999991
11
41.762913999999995
21
-8.3503329999999991
0
LINE
8
LYELLOW
6
CONTINUOUS
10
41.762913999999995
20
-8.3503329999999991
11
41.8581519999999969
21
-8.3979520000000001
0
LINE
8
LYELLOW
6
CONTINUOUS
10
41.8581519999999969
20
-8.3979520000000001
11
41.9057710000000014
21
-8.4455709999999993
0
LINE
8
LYELLOW
6
CONTINUOUS
10
41.9057710000000014
20
-8.4455709999999993
11
41.9533899999999988
21
-8.5408089999999994
0
LINE
8
LYELLOW
6
CONTINUOUS
10
41.9533899999999988
20
-8.5408089999999994
11
41.9533899999999988
21
-8.7312849999999997
0
LINE
8
LYELLOW
6
CONTINUOUS
10
41.9533899999999988
20
-8.7312849999999997
11
42.0010089999999963
21
-8.8265229999999999
0
LINE
8
LYELLOW
6
CONTINUOUS
10
42.0010089999999963
20
-8.8265229999999999
11
42.0486280000000008
21
-8.8741419999999991
0
LINE
8
LYELLOW
6
CONTINUOUS
10
42.0486280000000008
20
-8.8741419999999991
11
42.1438659999999956
21
-8.9217610000000001
0
LINE
8
LYELLOW
6
CONTINUOUS
10
42.1438659999999956
20
-8.9217610000000001
11
42.3343419999999995
21
-8.9217610000000001
0
LINE
8
LYELLOW
6
CONTINUOUS
10
42.3343419999999995
20
-8.9217610000000001
11
42.4295800000000014
21
-8.8741419999999991
0
LINE
8
LYELLOW
6
CONTINUOUS
10
42.4295800000000014
20
-8.8741419999999991
11
42.4771999999999963
21
-8.8265229999999999
0
LINE
8
LYELLOW
6
CONTINUOUS
10
42.4771999999999963
20
-8.8265229999999999
11
42.5248190000000008
21
-8.7312849999999997
0
LINE
8
LYELLOW
6
CONTINUOUS
10
42.5248190000000008
20
-8.7312849999999997
11
42.5248190000000008
21
-8.5408089999999994
0
LINE
8
LYELLOW
6
CONTINUOUS
10
42.5248190000000008
20
-8.5408089999999994
11
42.4771999999999963
21
-8.4455709999999993
0
LINE
8
LYELLOW
6
CONTINUOUS
10
42.4771999999999963
20
-8.4455709999999993
11
42.4295800000000014
21
-8.3979520000000001
0
LINE
8
LYELLOW
6
CONTINUOUS
10
42.4295800000000014
20
-8.3979520000000001
11
42.3343419999999995
21
-8.3503329999999991
0
LINE
8
LYELLOW
6
CONTINUOUS
10
42.3343419999999995
20
-8.3503329999999991
11
42.1438659999999956
21
-8.3503329999999991
0
LINE
8
LYELLOW
6
CONTINUOUS
10
42.1438659999999956
20
-8.3503329999999991
11
42.0486280000000008
21
-8.3979520000000001
0
LINE
8
LYELLOW
6
CONTINUOUS
10
42.0486280000000008
20
-8.3979520000000001
11
42.0010089999999963
21
-8.4455709999999993
0
LINE
8
LYELLOW
6
CONTINUOUS
10
42.0010089999999963
20
-8.4455709999999993
11
41.9533899999999988
21
-8.5408089999999994
0
LINE
8
LYELLOW
6
CONTINUOUS
10
41.5248190000000008
20
-16.8433329999999977
11
42.2391039999999975
21
-16.8433329999999977
0
LINE
8
LYELLOW
6
CONTINUOUS
10
42.2391039999999975
20
-16.8433329999999977
11
42.3819609999999969
21
-16.8909519999999986
0
LINE
8
LYELLOW
6
CONTINUOUS
10
42.3819609999999969
20
-16.8909519999999986
11
42.4771999999999963
21
-16.9861900000000006
0
LINE
8
LYELLOW
6
CONTINUOUS
10
42.4771999999999963
20
-16.9861900000000006
11
42.5248190000000008
21
-17.1290469999999999
0
LINE
8
LYELLOW
6
CONTINUOUS
10
42.5248190000000008
20
-17.1290469999999999
11
42.5248190000000008
21
-17.2242849999999983
0
LINE
8
LYELLOW
6
CONTINUOUS
10
41.5248190000000008
20
-15.9385709999999996
11
41.5248190000000008
21
-16.1290469999999999
0
LINE
8
LYELLOW
6
CONTINUOUS
10
41.5248190000000008
20
-16.1290469999999999
11
41.5724379999999982
21
-16.2242849999999983
0
LINE
8
LYELLOW
6
CONTINUOUS
10
41.5724379999999982
20
-16.2242849999999983
11
41.6200569999999956
21
-16.2719039999999993
0
LINE
8
LYELLOW
6
CONTINUOUS
10
41.6200569999999956
20
-16.2719039999999993
11
41.762913999999995
21
-16.3671419999999976
0
LINE
8
LYELLOW
6
CONTINUOUS
10
41.762913999999995
20
-16.3671419999999976
11
41.9533899999999988
21
-16.4147609999999986
0
LINE
8
LYELLOW
6
CONTINUOUS
10
41.9533899999999988
20
-16.4147609999999986
11
42.3343419999999995
21
-16.4147609999999986
0
LINE
8
LYELLOW
6
CONTINUOUS
10
42.3343419999999995
20
-16.4147609999999986
11
42.4295800000000014
21
-16.3671419999999976
0
LINE
8
LYELLOW
6
CONTINUOUS
10
42.4295800000000014
20
-16.3671419999999976
11
42.4771999999999963
21
-16.3195230000000002
0
LINE
8
LYELLOW
6
CONTINUOUS
10
42.4771999999999963
20
-16.3195230000000002
11
42.5248190000000008
21
-16.2242849999999983
0
LINE
8
LYELLOW
6
CONTINUOUS
10
42.5248190000000008
20
-16.2242849999999983
11
42.5248190000000008
21
-16.033808999999998
0
LINE
8
LYELLOW
6
CONTINUOUS
10
42.5248190000000008
20
-16.033808999999998
11
42.4771999999999963
21
-15.9385709999999996
0
LINE
8
LYELLOW
6
CONTINUOUS
10
42.4771999999999963
20
-15.9385709999999996
11
42.4295800000000014
21
-15.8909519999999986
0
LINE
8
LYELLOW
6
CONTINUOUS
10
42.4295800000000014
20
-15.8909519999999986
11
42.3343419999999995
21
-15.8433329999999994
0
LINE
8
LYELLOW
6
CONTINUOUS
10
42.3343419999999995
20
-15.8433329999999994
11
42.0962469999999982
21
-15.8433329999999994
0
LINE
8
LYELLOW
6
CONTINUOUS
10
42.0962469999999982
20
-15.8433329999999994
11
42.0010089999999963
21
-15.8909519999999986
0
LINE
8
LYELLOW
6
CONTINUOUS
10
42.0010089999999963
20
-15.8909519999999986
11
41.9533899999999988
21
-15.9385709999999996
0
LINE
8
LYELLOW
6
CONTINUOUS
10
41.9533899999999988
20
-15.9385709999999996
11
41.9057710000000014
21
-16.033808999999998
0
LINE
8
LYELLOW
6
CONTINUOUS
10
41.9057710000000014
20
-16.033808999999998
11
41.9057710000000014
21
-16.2242849999999983
0
LINE
8
LYELLOW
6
CONTINUOUS
10
41.9057710000000014
20
-16.2242849999999983
11
41.9533899999999988
21
-16.3195230000000002
0
LINE
8
LYELLOW
6
CONTINUOUS
10
41.9533899999999988
20
-16.3195230000000002
11
42.0010089999999963
21
-16.3671419999999976
0
LINE
8
LYELLOW
6
CONTINUOUS
10
42.0010089999999963
20
-16.3671419999999976
11
42.0962469999999982
21
-16.4147609999999986
0
LINE
8
LYELLOW
6
CONTINUOUS
10
41.5248190000000008
20
-5.6673330000000002
11
42.2391039999999975
21
-5.6673330000000002
0
LINE
8
LYELLOW
6
CONTINUOUS
10
42.2391039999999975
20
-5.6673330000000002
11
42.3819609999999969
21
-5.7149519999999994
0
LINE
8
LYELLOW
6
CONTINUOUS
10
42.3819609999999969
20
-5.7149519999999994
11
42.4771999999999963
21
-5.8101899999999995
0
LINE
8
LYELLOW
6
CONTINUOUS
10
42.4771999999999963
20
-5.8101899999999995
11
42.5248190000000008
21
-5.9530469999999998
0
LINE
8
LYELLOW
6
CONTINUOUS
10
42.5248190000000008
20
-5.9530469999999998
11
42.5248190000000008
21
-6.0482849999999999
0
LINE
8
LYELLOW
6
CONTINUOUS
10
42.5248190000000008
20
-5.1435230000000001
11
42.5248190000000008
21
-4.9530469999999998
0
LINE
8
LYELLOW
6
CONTINUOUS
10
42.5248190000000008
20
-4.9530469999999998
11
42.4771999999999963
21
-4.8578089999999996
0
LINE
8
LYELLOW
6
CONTINUOUS
10
42.4771999999999963
20
-4.8578089999999996
11
42.4295800000000014
21
-4.8101899999999995
0
LINE
8
LYELLOW
6
CONTINUOUS
10
42.4295800000000014
20
-4.8101899999999995
11
42.286722999999995
21
-4.7149519999999994
0
LINE
8
LYELLOW
6
CONTINUOUS
10
42.286722999999995
20
-4.7149519999999994
11
42.0962469999999982
21
-4.6673330000000002
0
LINE
8
LYELLOW
6
CONTINUOUS
10
42.0962469999999982
20
-4.6673330000000002
11
41.7152949999999976
21
-4.6673330000000002
0
LINE
8
LYELLOW
6
CONTINUOUS
10
41.7152949999999976
20
-4.6673330000000002
11
41.6200569999999956
21
-4.7149519999999994
0
LINE
8
LYELLOW
6
CONTINUOUS
10
41.6200569999999956
20
-4.7149519999999994
11
41.5724379999999982
21
-4.7625709999999994
0
LINE
8
LYELLOW
6
CONTINUOUS
10
41.5724379999999982
20
-4.7625709999999994
11
41.5248190000000008
21
-4.8578089999999996
0
LINE
8
LYELLOW
6
CONTINUOUS
10
41.5248190000000008
20
-4.8578089999999996
11
41.5248190000000008
21
-5.0482849999999999
0
LINE
8
LYELLOW
6
CONTINUOUS
10
41.5248190000000008
20
-5.0482849999999999
11
41.5724379999999982
21
-5.1435230000000001
0
LINE
8
LYELLOW
6
CONTINUOUS
10
41.5724379999999982
20
-5.1435230000000001
11
41.6200569999999956
21
-5.1911420000000001
0
LINE
8
LYELLOW
6
CONTINUOUS
10
41.6200569999999956
20
-5.1911420000000001
11
41.7152949999999976
21
-5.2387609999999993
0
LINE
8
LYELLOW
6
CONTINUOUS
10
41.7152949999999976
20
-5.2387609999999993
11
41.9533899999999988
21
-5.2387609999999993
0
LINE
8
LYELLOW
6
CONTINUOUS
10
41.9533899999999988
20
-5.2387609999999993
11
42.0486280000000008
21
-5.1911420000000001
0
LINE
8
LYELLOW
6
CONTINUOUS
10
42.0486280000000008
20
-5.1911420000000001
11
42.0962469999999982
21
-5.1435230000000001
0
LINE
8
LYELLOW
6
CONTINUOUS
10
42.0962469999999982
20
-5.1435230000000001
11
42.1438659999999956
21
-5.0482849999999999
0
LINE
8
LYELLOW
6
CONTINUOUS
10
42.1438659999999956
20
-5.0482849999999999
11
42.1438659999999956
21
-4.8578089999999996
0
LINE
8
LYELLOW
6
CONTINUOUS
10
42.1438659999999956
20
-4.8578089999999996
11
42.0962469999999982
21
-4.7625709999999994
0
LINE
8
LYELLOW
6
CONTINUOUS
10
42.0962469999999982
20
-4.7625709999999994
11
42.0486280000000008
21
-4.7149519999999994
0
LINE
8
LYELLOW
6
CONTINUOUS
10
42.0486280000000008
20
-4.7149519999999994
11
41.9533899999999988
21
-4.6673330000000002
0
LINE
8
LYELLOW
6
CONTINUOUS
10
9.9434740000000001
20
-54.8995339999999956
11
10.6577589999999987
21
-54.8995339999999956
0
LINE
8
LYELLOW
6
CONTINUOUS
10
10.6577589999999987
20
-54.8995339999999956
11
10.8006159999999998
21
-54.9471530000000001
0
LINE
8
LYELLOW
6
CONTINUOUS
10
10.8006159999999998
20
-54.9471530000000001
11
10.8958549999999992
21
-55.042390999999995
0
LINE
8
LYELLOW
6
CONTINUOUS
10
10.8958549999999992
20
-55.042390999999995
11
10.9434740000000001
21
-55.1852479999999943
0
LINE
8
LYELLOW
6
CONTINUOUS
10
10.9434740000000001
20
-55.1852479999999943
11
10.9434740000000001
21
-55.2804859999999962
0
LINE
8
LYELLOW
6
CONTINUOUS
10
10.0387120000000003
20
-54.4709620000000001
11
9.9910929999999993
21
-54.4233429999999956
0
LINE
8
LYELLOW
6
CONTINUOUS
10
9.9910929999999993
20
-54.4233429999999956
11
9.9434740000000001
21
-54.3281050000000008
0
LINE
8
LYELLOW
6
CONTINUOUS
10
9.9434740000000001
20
-54.3281050000000008
11
9.9434740000000001
21
-54.0900099999999995
0
LINE
8
LYELLOW
6
CONTINUOUS
10
9.9434740000000001
20
-54.0900099999999995
11
9.9910929999999993
21
-53.9947719999999975
0
LINE
8
LYELLOW
6
CONTINUOUS
10
9.9910929999999993
20
-53.9947719999999975
11
10.0387120000000003
21
-53.9471530000000001
0
LINE
8
LYELLOW
6
CONTINUOUS
10
10.0387120000000003
20
-53.9471530000000001
11
10.1339499999999987
21
-53.8995339999999956
0
LINE
8
LYELLOW
6
CONTINUOUS
10
10.1339499999999987
20
-53.8995339999999956
11
10.2291879999999988
21
-53.8995339999999956
0
LINE
8
LYELLOW
6
CONTINUOUS
10
10.2291879999999988
20
-53.8995339999999956
11
10.372045
21
-53.9471530000000001
0
LINE
8
LYELLOW
6
CONTINUOUS
10
10.372045
20
-53.9471530000000001
11
10.9434740000000001
21
-54.5185809999999975
0
LINE
8
LYELLOW
6
CONTINUOUS
10
10.9434740000000001
20
-54.5185809999999975
11
10.9434740000000001
21
-53.8995339999999956
0
LINE
8
LYELLOW
6
CONTINUOUS
10
9.9434740000000001
20
-53.2804859999999962
11
9.9434740000000001
21
-53.1852479999999943
0
LINE
8
LYELLOW
6
CONTINUOUS
10
9.9434740000000001
20
-53.1852479999999943
11
9.9910929999999993
21
-53.0900099999999995
0
LINE
8
LYELLOW
6
CONTINUOUS
10
9.9910929999999993
20
-53.0900099999999995
11
10.0387120000000003
21
-53.042390999999995
0
LINE
8
LYELLOW
6
CONTINUOUS
10
10.0387120000000003
20
-53.042390999999995
11
10.1339499999999987
21
-52.9947719999999975
0
LINE
8
LYELLOW
6
CONTINUOUS
10
10.1339499999999987
20
-52.9947719999999975
11
10.324425999999999
21
-52.9471530000000001
0
LINE
8
LYELLOW
6
CONTINUOUS
10
10.324425999999999
20
-52.9471530000000001
11
10.5625210000000003
21
-52.9471530000000001
0
LINE
8
LYELLOW
6
CONTINUOUS
10
10.5625210000000003
20
-52.9471530000000001
11
10.7529969999999988
21
-52.9947719999999975
0
LINE
8
LYELLOW
6
CONTINUOUS
10
10.7529969999999988
20
-52.9947719999999975
11
10.848234999999999
21
-53.042390999999995
0
LINE
8
LYELLOW
6
CONTINUOUS
10
10.848234999999999
20
-53.042390999999995
11
10.8958549999999992
21
-53.0900099999999995
0
LINE
8
LYELLOW
6
CONTINUOUS
10
10.8958549999999992
20
-53.0900099999999995
11
10.9434740000000001
21
-53.1852479999999943
0
LINE
8
LYELLOW
6
CONTINUOUS
10
10.9434740000000001
20
-53.1852479999999943
11
10.9434740000000001
21
-53.2804859999999962
0
LINE
8
LYELLOW
6
CONTINUOUS
10
10.9434740000000001
20
-53.2804859999999962
11
10.8958549999999992
21
-53.3757239999999982
0
LINE
8
LYELLOW
6
CONTINUOUS
10
10.8958549999999992
20
-53.3757239999999982
11
10.848234999999999
21
-53.4233429999999956
0
LINE
8
LYELLOW
6
CONTINUOUS
10
10.848234999999999
20
-53.4233429999999956
11
10.7529969999999988
21
-53.4709620000000001
0
LINE
8
LYELLOW
6
CONTINUOUS
10
10.7529969999999988
20
-53.4709620000000001
11
10.5625210000000003
21
-53.5185809999999975
0
LINE
8
LYELLOW
6
CONTINUOUS
10
10.5625210000000003
20
-53.5185809999999975
11
10.324425999999999
21
-53.5185809999999975
0
LINE
8
LYELLOW
6
CONTINUOUS
10
10.324425999999999
20
-53.5185809999999975
11
10.1339499999999987
21
-53.4709620000000001
0
LINE
8
LYELLOW
6
CONTINUOUS
10
10.1339499999999987
20
-53.4709620000000001
11
10.0387120000000003
21
-53.4233429999999956
0
LINE
8
LYELLOW
6
CONTINUOUS
10
10.0387120000000003
20
-53.4233429999999956
11
9.9910929999999993
21
-53.3757239999999982
0
LINE
8
LYELLOW
6
CONTINUOUS
10
9.9910929999999993
20
-53.3757239999999982
11
9.9434740000000001
21
-53.2804859999999962
0
LINE
8
LYELLOW
6
CONTINUOUS
10
14.0928189999999987
20
-6.0165229999999994
11
14.8071039999999989
21
-6.0165229999999994
0
LINE
8
LYELLOW
6
CONTINUOUS
10
14.8071039999999989
20
-6.0165229999999994
11
14.9499610000000001
21
-6.0641419999999995
0
LINE
8
LYELLOW
6
CONTINUOUS
10
14.9499610000000001
20
-6.0641419999999995
11
15.0451999999999995
21
-6.1593799999999996
0
LINE
8
LYELLOW
6
CONTINUOUS
10
15.0451999999999995
20
-6.1593799999999996
11
15.0928189999999987
21
-6.3022369999999999
0
LINE
8
LYELLOW
6
CONTINUOUS
10
15.0928189999999987
20
-6.3022369999999999
11
15.0928189999999987
21
-6.397475
0
LINE
8
LYELLOW
6
CONTINUOUS
10
14.1880569999999988
20
-5.5879509999999994
11
14.1404379999999996
21
-5.5403319999999994
0
LINE
8
LYELLOW
6
CONTINUOUS
10
14.1404379999999996
20
-5.5403319999999994
11
14.0928189999999987
21
-5.4450940000000001
0
LINE
8
LYELLOW
6
CONTINUOUS
10
14.0928189999999987
20
-5.4450940000000001
11
14.0928189999999987
21
-5.2069989999999997
0
LINE
8
LYELLOW
6
CONTINUOUS
10
14.0928189999999987
20
-5.2069989999999997
11
14.1404379999999996
21
-5.1117609999999996
0
LINE
8
LYELLOW
6
CONTINUOUS
10
14.1404379999999996
20
-5.1117609999999996
11
14.1880569999999988
21
-5.0641419999999995
0
LINE
8
LYELLOW
6
CONTINUOUS
10
14.1880569999999988
20
-5.0641419999999995
11
14.283294999999999
21
-5.0165229999999994
0
LINE
8
LYELLOW
6
CONTINUOUS
10
14.283294999999999
20
-5.0165229999999994
11
14.3785329999999991
21
-5.0165229999999994
0
LINE
8
LYELLOW
6
CONTINUOUS
10
14.3785329999999991
20
-5.0165229999999994
11
14.5213899999999985
21
-5.0641419999999995
0
LINE
8
LYELLOW
6
CONTINUOUS
10
14.5213899999999985
20
-5.0641419999999995
11
15.0928189999999987
21
-5.6355699999999995
0
LINE
8
LYELLOW
6
CONTINUOUS
10
15.0928189999999987
20
-5.6355699999999995
11
15.0928189999999987
21
-5.0165229999999994
0
LINE
8
LYELLOW
6
CONTINUOUS
10
14.1880569999999988
20
-4.6355699999999995
11
14.1404379999999996
21
-4.5879509999999994
0
LINE
8
LYELLOW
6
CONTINUOUS
10
14.1404379999999996
20
-4.5879509999999994
11
14.0928189999999987
21
-4.4927130000000002
0
LINE
8
LYELLOW
6
CONTINUOUS
10
14.0928189999999987
20
-4.4927130000000002
11
14.0928189999999987
21
-4.2546179999999998
0
LINE
8
LYELLOW
6
CONTINUOUS
10
14.0928189999999987
20
-4.2546179999999998
11
14.1404379999999996
21
-4.1593799999999996
0
LINE
8
LYELLOW
6
CONTINUOUS
10
14.1404379999999996
20
-4.1593799999999996
11
14.1880569999999988
21
-4.1117609999999996
0
LINE
8
LYELLOW
6
CONTINUOUS
10
14.1880569999999988
20
-4.1117609999999996
11
14.283294999999999
21
-4.0641419999999995
0
LINE
8
LYELLOW
6
CONTINUOUS
10
14.283294999999999
20
-4.0641419999999995
11
14.3785329999999991
21
-4.0641419999999995
0
LINE
8
LYELLOW
6
CONTINUOUS
10
14.3785329999999991
20
-4.0641419999999995
11
14.5213899999999985
21
-4.1117609999999996
0
LINE
8
LYELLOW
6
CONTINUOUS
10
14.5213899999999985
20
-4.1117609999999996
11
15.0928189999999987
21
-4.6831889999999996
0
LINE
8
LYELLOW
6
CONTINUOUS
10
15.0928189999999987
20
-4.6831889999999996
11
15.0928189999999987
21
-4.0641419999999995
0
LINE
8
LYELLOW
6
CONTINUOUS
10
42.7948189999999968
20
-52.8795229999999989
11
43.5091040000000007
21
-52.8795229999999989
0
LINE
8
LYELLOW
6
CONTINUOUS
10
43.5091040000000007
20
-52.8795229999999989
11
43.651961
21
-52.9271419999999964
0
LINE
8
LYELLOW
6
CONTINUOUS
10
43.651961
20
-52.9271419999999964
11
43.7471999999999994
21
-53.0223799999999983
0
LINE
8
LYELLOW
6
CONTINUOUS
10
43.7471999999999994
20
-53.0223799999999983
11
43.7948189999999968
21
-53.1652369999999976
0
LINE
8
LYELLOW
6
CONTINUOUS
10
43.7948189999999968
20
-53.1652369999999976
11
43.7948189999999968
21
-53.2604749999999996
0
LINE
8
LYELLOW
6
CONTINUOUS
10
43.7948189999999968
20
-51.8795229999999989
11
43.7948189999999968
21
-52.4509509999999963
0
LINE
8
LYELLOW
6
CONTINUOUS
10
43.7948189999999968
20
-52.1652369999999976
11
42.7948189999999968
21
-52.1652369999999976
0
LINE
8
LYELLOW
6
CONTINUOUS
10
42.7948189999999968
20
-52.1652369999999976
11
42.9376759999999962
21
-52.2604749999999996
0
LINE
8
LYELLOW
6
CONTINUOUS
10
42.9376759999999962
20
-52.2604749999999996
11
43.0329139999999981
21
-52.3557129999999944
0
LINE
8
LYELLOW
6
CONTINUOUS
10
43.0329139999999981
20
-52.3557129999999944
11
43.0805329999999955
21
-52.4509509999999963
0
LINE
8
LYELLOW
6
CONTINUOUS
10
43.7948189999999968
20
-50.9271419999999964
11
43.7948189999999968
21
-51.4985700000000008
0
LINE
8
LYELLOW
6
CONTINUOUS
10
43.7948189999999968
20
-51.212855999999995
11
42.7948189999999968
21
-51.212855999999995
0
LINE
8
LYELLOW
6
CONTINUOUS
10
42.7948189999999968
20
-51.212855999999995
11
42.9376759999999962
21
-51.308093999999997
0
LINE
8
LYELLOW
6
CONTINUOUS
10
42.9376759999999962
20
-51.308093999999997
11
43.0329139999999981
21
-51.4033319999999989
0
LINE
8
LYELLOW
6
CONTINUOUS
10
43.0329139999999981
20
-51.4033319999999989
11
43.0805329999999955
21
-51.4985700000000008
0
LINE
8
LYELLOW
6
CONTINUOUS
10
9.9434740000000001
20
-58.4555340000000001
11
10.6577589999999987
21
-58.4555340000000001
0
LINE
8
LYELLOW
6
CONTINUOUS
10
10.6577589999999987
20
-58.4555340000000001
11
10.8006159999999998
21
-58.5031529999999975
0
LINE
8
LYELLOW
6
CONTINUOUS
10
10.8006159999999998
20
-58.5031529999999975
11
10.8958549999999992
21
-58.5983909999999995
0
LINE
8
LYELLOW
6
CONTINUOUS
10
10.8958549999999992
20
-58.5983909999999995
11
10.9434740000000001
21
-58.7412479999999988
0
LINE
8
LYELLOW
6
CONTINUOUS
10
10.9434740000000001
20
-58.7412479999999988
11
10.9434740000000001
21
-58.8364860000000007
0
LINE
8
LYELLOW
6
CONTINUOUS
10
10.9434740000000001
20
-57.4555340000000001
11
10.9434740000000001
21
-58.0269619999999975
0
LINE
8
LYELLOW
6
CONTINUOUS
10
10.9434740000000001
20
-57.7412479999999988
11
9.9434740000000001
21
-57.7412479999999988
0
LINE
8
LYELLOW
6
CONTINUOUS
10
9.9434740000000001
20
-57.7412479999999988
11
10.0863309999999995
21
-57.8364860000000007
0
LINE
8
LYELLOW
6
CONTINUOUS
10
10.0863309999999995
20
-57.8364860000000007
11
10.1815689999999996
21
-57.9317239999999956
0
LINE
8
LYELLOW
6
CONTINUOUS
10
10.1815689999999996
20
-57.9317239999999956
11
10.2291879999999988
21
-58.0269619999999975
0
LINE
8
LYELLOW
6
CONTINUOUS
10
10.0387120000000003
20
-57.0745809999999949
11
9.9910929999999993
21
-57.0269619999999975
0
LINE
8
LYELLOW
6
CONTINUOUS
10
9.9910929999999993
20
-57.0269619999999975
11
9.9434740000000001
21
-56.9317239999999956
0
LINE
8
LYELLOW
6
CONTINUOUS
10
9.9434740000000001
20
-56.9317239999999956
11
9.9434740000000001
21
-56.6936289999999943
0
LINE
8
LYELLOW
6
CONTINUOUS
10
9.9434740000000001
20
-56.6936289999999943
11
9.9910929999999993
21
-56.5983909999999995
0
LINE
8
LYELLOW
6
CONTINUOUS
10
9.9910929999999993
20
-56.5983909999999995
11
10.0387120000000003
21
-56.5507719999999949
0
LINE
8
LYELLOW
6
CONTINUOUS
10
10.0387120000000003
20
-56.5507719999999949
11
10.1339499999999987
21
-56.5031529999999975
0
LINE
8
LYELLOW
6
CONTINUOUS
10
10.1339499999999987
20
-56.5031529999999975
11
10.2291879999999988
21
-56.5031529999999975
0
LINE
8
LYELLOW
6
CONTINUOUS
10
10.2291879999999988
20
-56.5031529999999975
11
10.372045
21
-56.5507719999999949
0
LINE
8
LYELLOW
6
CONTINUOUS
10
10.372045
20
-56.5507719999999949
11
10.9434740000000001
21
-57.1221999999999994
0
LINE
8
LYELLOW
6
CONTINUOUS
10
10.9434740000000001
20
-57.1221999999999994
11
10.9434740000000001
21
-56.5031529999999975
0
LINE
8
LYELLOW
6
CONTINUOUS
10
10.7058269999999993
20
-14.2979839999999996
11
11.4201119999999996
21
-14.2979839999999996
0
LINE
8
LYELLOW
6
CONTINUOUS
10
11.4201119999999996
20
-14.2979839999999996
11
11.5629689999999989
21
-14.3456029999999988
0
LINE
8
LYELLOW
6
CONTINUOUS
10
11.5629689999999989
20
-14.3456029999999988
11
11.6582080000000001
21
-14.4408409999999989
0
LINE
8
LYELLOW
6
CONTINUOUS
10
11.6582080000000001
20
-14.4408409999999989
11
11.7058269999999993
21
-14.5836980000000001
0
LINE
8
LYELLOW
6
CONTINUOUS
10
11.7058269999999993
20
-14.5836980000000001
11
11.7058269999999993
21
-14.6789360000000002
0
LINE
8
LYELLOW
6
CONTINUOUS
10
10.7058269999999993
20
-13.9170309999999997
11
10.7058269999999993
21
-13.2979839999999996
0
LINE
8
LYELLOW
6
CONTINUOUS
10
10.7058269999999993
20
-13.2979839999999996
11
11.0867789999999999
21
-13.6313169999999992
0
LINE
8
LYELLOW
6
CONTINUOUS
10
11.0867789999999999
20
-13.6313169999999992
11
11.0867789999999999
21
-13.4884599999999999
0
LINE
8
LYELLOW
6
CONTINUOUS
10
11.0867789999999999
20
-13.4884599999999999
11
11.1343979999999991
21
-13.3932219999999997
0
LINE
8
LYELLOW
6
CONTINUOUS
10
11.1343979999999991
20
-13.3932219999999997
11
11.1820170000000001
21
-13.3456029999999988
0
LINE
8
LYELLOW
6
CONTINUOUS
10
11.1820170000000001
20
-13.3456029999999988
11
11.2772550000000003
21
-13.2979839999999996
0
LINE
8
LYELLOW
6
CONTINUOUS
10
11.2772550000000003
20
-13.2979839999999996
11
11.5153499999999998
21
-13.2979839999999996
0
LINE
8
LYELLOW
6
CONTINUOUS
10
11.5153499999999998
20
-13.2979839999999996
11
11.6105879999999999
21
-13.3456029999999988
0
LINE
8
LYELLOW
6
CONTINUOUS
10
11.6105879999999999
20
-13.3456029999999988
11
11.6582080000000001
21
-13.3932219999999997
0
LINE
8
LYELLOW
6
CONTINUOUS
10
11.6582080000000001
20
-13.3932219999999997
11
11.7058269999999993
21
-13.4884599999999999
0
LINE
8
LYELLOW
6
CONTINUOUS
10
11.7058269999999993
20
-13.4884599999999999
11
11.7058269999999993
21
-13.7741739999999986
0
LINE
8
LYELLOW
6
CONTINUOUS
10
11.7058269999999993
20
-13.7741739999999986
11
11.6582080000000001
21
-13.8694119999999987
0
LINE
8
LYELLOW
6
CONTINUOUS
10
11.6582080000000001
20
-13.8694119999999987
11
11.6105879999999999
21
-13.9170309999999997
0
LINE
8
LYELLOW
6
CONTINUOUS
10
10.7058269999999993
20
-21.759173999999998
11
11.4201119999999996
21
-21.759173999999998
0
LINE
8
LYELLOW
6
CONTINUOUS
10
11.4201119999999996
20
-21.759173999999998
11
11.5629689999999989
21
-21.806792999999999
0
LINE
8
LYELLOW
6
CONTINUOUS
10
11.5629689999999989
20
-21.806792999999999
11
11.6582080000000001
21
-21.9020309999999974
0
LINE
8
LYELLOW
6
CONTINUOUS
10
11.6582080000000001
20
-21.9020309999999974
11
11.7058269999999993
21
-22.0448880000000003
0
LINE
8
LYELLOW
6
CONTINUOUS
10
11.7058269999999993
20
-22.0448880000000003
11
11.7058269999999993
21
-22.1401259999999986
0
LINE
8
LYELLOW
6
CONTINUOUS
10
11.7058269999999993
20
-20.759173999999998
11
11.7058269999999993
21
-21.330601999999999
0
LINE
8
LYELLOW
6
CONTINUOUS
10
11.7058269999999993
20
-21.0448880000000003
11
10.7058269999999993
21
-21.0448880000000003
0
LINE
8
LYELLOW
6
CONTINUOUS
10
10.7058269999999993
20
-21.0448880000000003
11
10.8486839999999987
21
-21.1401259999999986
0
LINE
8
LYELLOW
6
CONTINUOUS
10
10.8486839999999987
20
-21.1401259999999986
11
10.9439219999999988
21
-21.2353640000000006
0
LINE
8
LYELLOW
6
CONTINUOUS
10
10.9439219999999988
20
-21.2353640000000006
11
10.9915409999999998
21
-21.330601999999999
0
LINE
8
LYELLOW
6
CONTINUOUS
10
11.1343979999999991
20
-20.1877449999999996
11
11.0867789999999999
21
-20.282982999999998
0
LINE
8
LYELLOW
6
CONTINUOUS
10
11.0867789999999999
20
-20.282982999999998
11
11.039159999999999
21
-20.330601999999999
0
LINE
8
LYELLOW
6
CONTINUOUS
10
11.039159999999999
20
-20.330601999999999
11
10.9439219999999988
21
-20.3782209999999999
0
LINE
8
LYELLOW
6
CONTINUOUS
10
10.9439219999999988
20
-20.3782209999999999
11
10.8963029999999996
21
-20.3782209999999999
0
LINE
8
LYELLOW
6
CONTINUOUS
10
10.8963029999999996
20
-20.3782209999999999
11
10.8010649999999995
21
-20.330601999999999
0
LINE
8
LYELLOW
6
CONTINUOUS
10
10.8010649999999995
20
-20.330601999999999
11
10.7534460000000003
21
-20.282982999999998
0
LINE
8
LYELLOW
6
CONTINUOUS
10
10.7534460000000003
20
-20.282982999999998
11
10.7058269999999993
21
-20.1877449999999996
0
LINE
8
LYELLOW
6
CONTINUOUS
10
10.7058269999999993
20
-20.1877449999999996
11
10.7058269999999993
21
-19.9972689999999993
0
LINE
8
LYELLOW
6
CONTINUOUS
10
10.7058269999999993
20
-19.9972689999999993
11
10.7534460000000003
21
-19.9020309999999974
0
LINE
8
LYELLOW
6
CONTINUOUS
10
10.7534460000000003
20
-19.9020309999999974
11
10.8010649999999995
21
-19.8544119999999999
0
LINE
8
LYELLOW
6
CONTINUOUS
10
10.8010649999999995
20
-19.8544119999999999
11
10.8963029999999996
21
-19.806792999999999
0
LINE
8
LYELLOW
6
CONTINUOUS
10
10.8963029999999996
20
-19.806792999999999
11
10.9439219999999988
21
-19.806792999999999
0
LINE
8
LYELLOW
6
CONTINUOUS
10
10.9439219999999988
20
-19.806792999999999
11
11.039159999999999
21
-19.8544119999999999
0
LINE
8
LYELLOW
6
CONTINUOUS
10
11.039159999999999
20
-19.8544119999999999
11
11.0867789999999999
21
-19.9020309999999974
0
LINE
8
LYELLOW
6
CONTINUOUS
10
11.0867789999999999
20
-19.9020309999999974
11
11.1343979999999991
21
-19.9972689999999993
0
LINE
8
LYELLOW
6
CONTINUOUS
10
11.1343979999999991
20
-19.9972689999999993
11
11.1343979999999991
21
-20.1877449999999996
0
LINE
8
LYELLOW
6
CONTINUOUS
10
11.1343979999999991
20
-20.1877449999999996
11
11.1820170000000001
21
-20.282982999999998
0
LINE
8
LYELLOW
6
CONTINUOUS
10
11.1820170000000001
20
-20.282982999999998
11
11.2296359999999993
21
-20.330601999999999
0
LINE
8
LYELLOW
6
CONTINUOUS
10
11.2296359999999993
20
-20.330601999999999
11
11.3248739999999994
21
-20.3782209999999999
0
LINE
8
LYELLOW
6
CONTINUOUS
10
11.3248739999999994
20
-20.3782209999999999
11
11.5153499999999998
21
-20.3782209999999999
0
LINE
8
LYELLOW
6
CONTINUOUS
10
11.5153499999999998
20
-20.3782209999999999
11
11.6105879999999999
21
-20.330601999999999
0
LINE
8
LYELLOW
6
CONTINUOUS
10
11.6105879999999999
20
-20.330601999999999
11
11.6582080000000001
21
-20.282982999999998
0
LINE
8
LYELLOW
6
CONTINUOUS
10
11.6582080000000001
20
-20.282982999999998
11
11.7058269999999993
21
-20.1877449999999996
0
LINE
8
LYELLOW
6
CONTINUOUS
10
11.7058269999999993
20
-20.1877449999999996
11
11.7058269999999993
21
-19.9972689999999993
0
LINE
8
LYELLOW
6
CONTINUOUS
10
11.7058269999999993
20
-19.9972689999999993
11
11.6582080000000001
21
-19.9020309999999974
0
LINE
8
LYELLOW
6
CONTINUOUS
10
11.6582080000000001
20
-19.9020309999999974
11
11.6105879999999999
21
-19.8544119999999999
0
LINE
8
LYELLOW
6
CONTINUOUS
10
11.6105879999999999
20
-19.8544119999999999
11
11.5153499999999998
21
-19.806792999999999
0
LINE
8
LYELLOW
6
CONTINUOUS
10
11.5153499999999998
20
-19.806792999999999
11
11.3248739999999994
21
-19.806792999999999
0
LINE
8
LYELLOW
6
CONTINUOUS
10
11.3248739999999994
20
-19.806792999999999
11
11.2296359999999993
21
-19.8544119999999999
0
LINE
8
LYELLOW
6
CONTINUOUS
10
11.2296359999999993
20
-19.8544119999999999
11
11.1820170000000001
21
-19.9020309999999974
0
LINE
8
LYELLOW
6
CONTINUOUS
10
11.1820170000000001
20
-19.9020309999999974
11
11.1343979999999991
21
-19.9972689999999993
0
LINE
8
LYELLOW
6
CONTINUOUS
10
41.5248190000000008
20
-13.0333329999999989
11
42.2391039999999975
21
-13.0333329999999989
0
LINE
8
LYELLOW
6
CONTINUOUS
10
42.2391039999999975
20
-13.0333329999999989
11
42.3819609999999969
21
-13.0809519999999999
0
LINE
8
LYELLOW
6
CONTINUOUS
10
42.3819609999999969
20
-13.0809519999999999
11
42.4771999999999963
21
-13.1761900000000001
0
LINE
8
LYELLOW
6
CONTINUOUS
10
42.4771999999999963
20
-13.1761900000000001
11
42.5248190000000008
21
-13.3190469999999994
0
LINE
8
LYELLOW
6
CONTINUOUS
10
42.5248190000000008
20
-13.3190469999999994
11
42.5248190000000008
21
-13.4142849999999996
0
LINE
8
LYELLOW
6
CONTINUOUS
10
41.5248190000000008
20
-12.6523799999999991
11
41.5248190000000008
21
-11.9857139999999998
0
LINE
8
LYELLOW
6
CONTINUOUS
10
41.5248190000000008
20
-11.9857139999999998
11
42.5248190000000008
21
-12.4142849999999996
0
LINE
8
LYELLOW
6
CONTINUOUS
10
48.0854759999999999
20
-17.3948189999999983
11
48.0854759999999999
21
-18.1091039999999985
0
LINE
8
LYELLOW
6
CONTINUOUS
10
48.0854759999999999
20
-18.1091039999999985
11
48.0378569999999954
21
-18.2519609999999979
0
LINE
8
LYELLOW
6
CONTINUOUS
10
48.0378569999999954
20
-18.2519609999999979
11
47.9426190000000005
21
-18.3472000000000008
0
LINE
8
LYELLOW
6
CONTINUOUS
10
47.9426190000000005
20
-18.3472000000000008
11
47.7997620000000012
21
-18.3948189999999983
0
LINE
8
LYELLOW
6
CONTINUOUS
10
47.7997620000000012
20
-18.3948189999999983
11
47.7045239999999993
21
-18.3948189999999983
0
LINE
8
LYELLOW
6
CONTINUOUS
10
48.5140479999999954
20
-17.4900570000000002
11
48.5616669999999999
21
-17.4424379999999992
0
LINE
8
LYELLOW
6
CONTINUOUS
10
48.5616669999999999
20
-17.4424379999999992
11
48.6569049999999947
21
-17.3948189999999983
0
LINE
8
LYELLOW
6
CONTINUOUS
10
48.6569049999999947
20
-17.3948189999999983
11
48.894999999999996
21
-17.3948189999999983
0
LINE
8
LYELLOW
6
CONTINUOUS
10
48.894999999999996
20
-17.3948189999999983
11
48.990237999999998
21
-17.4424379999999992
0
LINE
8
LYELLOW
6
CONTINUOUS
10
48.990237999999998
20
-17.4424379999999992
11
49.0378569999999954
21
-17.4900570000000002
0
LINE
8
LYELLOW
6
CONTINUOUS
10
49.0378569999999954
20
-17.4900570000000002
11
49.0854759999999999
21
-17.5852949999999986
0
LINE
8
LYELLOW
6
CONTINUOUS
10
49.0854759999999999
20
-17.5852949999999986
11
49.0854759999999999
21
-17.6805330000000005
0
LINE
8
LYELLOW
6
CONTINUOUS
10
49.0854759999999999
20
-17.6805330000000005
11
49.0378569999999954
21
-17.8233899999999998
0
LINE
8
LYELLOW
6
CONTINUOUS
10
49.0378569999999954
20
-17.8233899999999998
11
48.466428999999998
21
-18.3948189999999983
0
LINE
8
LYELLOW
6
CONTINUOUS
10
48.466428999999998
20
-18.3948189999999983
11
49.0854759999999999
21
-18.3948189999999983
0
LINE
8
LYELLOW
6
CONTINUOUS
10
50.0378569999999954
20
-18.3948189999999983
11
49.466428999999998
21
-18.3948189999999983
0
LINE
8
LYELLOW
6
CONTINUOUS
10
49.7521429999999967
20
-18.3948189999999983
11
49.7521429999999967
21
-17.3948189999999983
0
LINE
8
LYELLOW
6
CONTINUOUS
10
49.7521429999999967
20
-17.3948189999999983
11
49.6569049999999947
21
-17.5376759999999976
0
LINE
8
LYELLOW
6
CONTINUOUS
10
49.6569049999999947
20
-17.5376759999999976
11
49.5616669999999999
21
-17.6329139999999995
0
LINE
8
LYELLOW
6
CONTINUOUS
10
49.5616669999999999
20
-17.6329139999999995
11
49.466428999999998
21
-17.6805330000000005
0
LINE
8
LYELLOW
6
CONTINUOUS
10
42.7948189999999968
20
-56.6895229999999941
11
43.5091040000000007
21
-56.6895229999999941
0
LINE
8
LYELLOW
6
CONTINUOUS
10
43.5091040000000007
20
-56.6895229999999941
11
43.651961
21
-56.7371419999999986
0
LINE
8
LYELLOW
6
CONTINUOUS
10
43.651961
20
-56.7371419999999986
11
43.7471999999999994
21
-56.8323800000000006
0
LINE
8
LYELLOW
6
CONTINUOUS
10
43.7471999999999994
20
-56.8323800000000006
11
43.7948189999999968
21
-56.9752369999999999
0
LINE
8
LYELLOW
6
CONTINUOUS
10
43.7948189999999968
20
-56.9752369999999999
11
43.7948189999999968
21
-57.0704749999999947
0
LINE
8
LYELLOW
6
CONTINUOUS
10
43.7948189999999968
20
-55.6895229999999941
11
43.7948189999999968
21
-56.2609509999999986
0
LINE
8
LYELLOW
6
CONTINUOUS
10
43.7948189999999968
20
-55.9752369999999999
11
42.7948189999999968
21
-55.9752369999999999
0
LINE
8
LYELLOW
6
CONTINUOUS
10
42.7948189999999968
20
-55.9752369999999999
11
42.9376759999999962
21
-56.0704749999999947
0
LINE
8
LYELLOW
6
CONTINUOUS
10
42.9376759999999962
20
-56.0704749999999947
11
43.0329139999999981
21
-56.1657129999999967
0
LINE
8
LYELLOW
6
CONTINUOUS
10
43.0329139999999981
20
-56.1657129999999967
11
43.0805329999999955
21
-56.2609509999999986
0
LINE
8
LYELLOW
6
CONTINUOUS
10
42.7948189999999968
20
-55.3561890000000005
11
42.7948189999999968
21
-54.7371419999999986
0
LINE
8
LYELLOW
6
CONTINUOUS
10
42.7948189999999968
20
-54.7371419999999986
11
43.1757709999999975
21
-55.0704749999999947
0
LINE
8
LYELLOW
6
CONTINUOUS
10
43.1757709999999975
20
-55.0704749999999947
11
43.1757709999999975
21
-54.9276179999999954
0
LINE
8
LYELLOW
6
CONTINUOUS
10
43.1757709999999975
20
-54.9276179999999954
11
43.2233899999999949
21
-54.8323800000000006
0
LINE
8
LYELLOW
6
CONTINUOUS
10
43.2233899999999949
20
-54.8323800000000006
11
43.2710089999999994
21
-54.784760999999996
0
LINE
8
LYELLOW
6
CONTINUOUS
10
43.2710089999999994
20
-54.784760999999996
11
43.3662470000000013
21
-54.7371419999999986
0
LINE
8
LYELLOW
6
CONTINUOUS
10
43.3662470000000013
20
-54.7371419999999986
11
43.6043419999999955
21
-54.7371419999999986
0
LINE
8
LYELLOW
6
CONTINUOUS
10
43.6043419999999955
20
-54.7371419999999986
11
43.6995799999999974
21
-54.784760999999996
0
LINE
8
LYELLOW
6
CONTINUOUS
10
43.6995799999999974
20
-54.784760999999996
11
43.7471999999999994
21
-54.8323800000000006
0
LINE
8
LYELLOW
6
CONTINUOUS
10
43.7471999999999994
20
-54.8323800000000006
11
43.7948189999999968
21
-54.9276179999999954
0
LINE
8
LYELLOW
6
CONTINUOUS
10
43.7948189999999968
20
-54.9276179999999954
11
43.7948189999999968
21
-55.2133319999999941
0
LINE
8
LYELLOW
6
CONTINUOUS
10
43.7948189999999968
20
-55.2133319999999941
11
43.7471999999999994
21
-55.308569999999996
0
LINE
8
LYELLOW
6
CONTINUOUS
10
43.7471999999999994
20
-55.308569999999996
11
43.6995799999999974
21
-55.3561890000000005
0
LINE
8
LYELLOW
6
CONTINUOUS
10
10.7058269999999993
20
-18.5841740000000009
11
11.4201119999999996
21
-18.5841740000000009
0
LINE
8
LYELLOW
6
CONTINUOUS
10
11.4201119999999996
20
-18.5841740000000009
11
11.5629689999999989
21
-18.6317929999999983
0
LINE
8
LYELLOW
6
CONTINUOUS
10
11.5629689999999989
20
-18.6317929999999983
11
11.6582080000000001
21
-18.7270310000000002
0
LINE
8
LYELLOW
6
CONTINUOUS
10
11.6582080000000001
20
-18.7270310000000002
11
11.7058269999999993
21
-18.8698879999999996
0
LINE
8
LYELLOW
6
CONTINUOUS
10
11.7058269999999993
20
-18.8698879999999996
11
11.7058269999999993
21
-18.9651259999999979
0
LINE
8
LYELLOW
6
CONTINUOUS
10
11.7058269999999993
20
-17.5841740000000009
11
11.7058269999999993
21
-18.1556019999999982
0
LINE
8
LYELLOW
6
CONTINUOUS
10
11.7058269999999993
20
-17.8698879999999996
11
10.7058269999999993
21
-17.8698879999999996
0
LINE
8
LYELLOW
6
CONTINUOUS
10
10.7058269999999993
20
-17.8698879999999996
11
10.8486839999999987
21
-17.9651259999999979
0
LINE
8
LYELLOW
6
CONTINUOUS
10
10.8486839999999987
20
-17.9651259999999979
11
10.9439219999999988
21
-18.0603639999999999
0
LINE
8
LYELLOW
6
CONTINUOUS
10
10.9439219999999988
20
-18.0603639999999999
11
10.9915409999999998
21
-18.1556019999999982
0
LINE
8
LYELLOW
6
CONTINUOUS
10
10.7058269999999993
20
-17.2508400000000002
11
10.7058269999999993
21
-16.5841740000000009
0
LINE
8
LYELLOW
6
CONTINUOUS
10
10.7058269999999993
20
-16.5841740000000009
11
11.7058269999999993
21
-17.0127449999999989
0
LINE
8
LYELLOW
6
CONTINUOUS
10
42.7948189999999968
20
-37.1633330000000015
11
43.5091040000000007
21
-37.1633330000000015
0
LINE
8
LYELLOW
6
CONTINUOUS
10
43.5091040000000007
20
-37.1633330000000015
11
43.651961
21
-37.2109519999999989
0
LINE
8
LYELLOW
6
CONTINUOUS
10
43.651961
20
-37.2109519999999989
11
43.7471999999999994
21
-37.3061900000000009
0
LINE
8
LYELLOW
6
CONTINUOUS
10
43.7471999999999994
20
-37.3061900000000009
11
43.7948189999999968
21
-37.4490470000000002
0
LINE
8
LYELLOW
6
CONTINUOUS
10
43.7948189999999968
20
-37.4490470000000002
11
43.7948189999999968
21
-37.544284999999995
0
LINE
8
LYELLOW
6
CONTINUOUS
10
43.7948189999999968
20
-36.1633330000000015
11
43.7948189999999968
21
-36.7347609999999989
0
LINE
8
LYELLOW
6
CONTINUOUS
10
43.7948189999999968
20
-36.4490470000000002
11
42.7948189999999968
21
-36.4490470000000002
0
LINE
8
LYELLOW
6
CONTINUOUS
10
42.7948189999999968
20
-36.4490470000000002
11
42.9376759999999962
21
-36.544284999999995
0
LINE
8
LYELLOW
6
CONTINUOUS
10
42.9376759999999962
20
-36.544284999999995
11
43.0329139999999981
21
-36.639522999999997
0
LINE
8
LYELLOW
6
CONTINUOUS
10
43.0329139999999981
20
-36.639522999999997
11
43.0805329999999955
21
-36.7347609999999989
0
LINE
8
LYELLOW
6
CONTINUOUS
10
6.5274579999999993
20
-51.6002799999999979
11
6.5274579999999993
21
-52.3145649999999947
0
LINE
8
LYELLOW
6
CONTINUOUS
10
6.5274579999999993
20
-52.3145649999999947
11
6.4798390000000001
21
-52.4574220000000011
0
LINE
8
LYELLOW
6
CONTINUOUS
10
6.4798390000000001
20
-52.4574220000000011
11
6.384601
21
-52.5526610000000005
0
LINE
8
LYELLOW
6
CONTINUOUS
10
6.384601
20
-52.5526610000000005
11
6.2417439999999997
21
-52.6002799999999979
0
LINE
8
LYELLOW
6
CONTINUOUS
10
6.2417439999999997
20
-52.6002799999999979
11
6.1465059999999996
21
-52.6002799999999979
0
LINE
8
LYELLOW
6
CONTINUOUS
10
7.5274579999999993
20
-52.6002799999999979
11
6.9560299999999993
21
-52.6002799999999979
0
LINE
8
LYELLOW
6
CONTINUOUS
10
7.2417439999999997
20
-52.6002799999999979
11
7.2417439999999997
21
-51.6002799999999979
0
LINE
8
LYELLOW
6
CONTINUOUS
10
7.2417439999999997
20
-51.6002799999999979
11
7.1465059999999996
21
-51.7431369999999973
0
LINE
8
LYELLOW
6
CONTINUOUS
10
7.1465059999999996
20
-51.7431369999999973
11
7.0512679999999994
21
-51.8383749999999992
0
LINE
8
LYELLOW
6
CONTINUOUS
10
7.0512679999999994
20
-51.8383749999999992
11
6.9560299999999993
21
-51.8859939999999966
0
LINE
8
LYELLOW
6
CONTINUOUS
10
8.384601
20
-51.6002799999999979
11
8.1941249999999997
21
-51.6002799999999979
0
LINE
8
LYELLOW
6
CONTINUOUS
10
8.1941249999999997
20
-51.6002799999999979
11
8.0988869999999995
21
-51.6478989999999953
0
LINE
8
LYELLOW
6
CONTINUOUS
10
8.0988869999999995
20
-51.6478989999999953
11
8.0512680000000003
21
-51.6955179999999999
0
LINE
8
LYELLOW
6
CONTINUOUS
10
8.0512680000000003
20
-51.6955179999999999
11
7.9560299999999993
21
-51.8383749999999992
0
LINE
8
LYELLOW
6
CONTINUOUS
10
7.9560299999999993
20
-51.8383749999999992
11
7.9084110000000001
21
-52.028850999999996
0
LINE
8
LYELLOW
6
CONTINUOUS
10
7.9084110000000001
20
-52.028850999999996
11
7.9084110000000001
21
-52.4098029999999966
0
LINE
8
LYELLOW
6
CONTINUOUS
10
7.9084110000000001
20
-52.4098029999999966
11
7.9560299999999993
21
-52.5050409999999985
0
LINE
8
LYELLOW
6
CONTINUOUS
10
7.9560299999999993
20
-52.5050409999999985
11
8.0036489999999993
21
-52.5526610000000005
0
LINE
8
LYELLOW
6
CONTINUOUS
10
8.0036489999999993
20
-52.5526610000000005
11
8.0988869999999995
21
-52.6002799999999979
0
LINE
8
LYELLOW
6
CONTINUOUS
10
8.0988869999999995
20
-52.6002799999999979
11
8.2893629999999998
21
-52.6002799999999979
0
LINE
8
LYELLOW
6
CONTINUOUS
10
8.2893629999999998
20
-52.6002799999999979
11
8.384601
21
-52.5526610000000005
0
LINE
8
LYELLOW
6
CONTINUOUS
10
8.384601
20
-52.5526610000000005
11
8.4322199999999992
21
-52.5050409999999985
0
LINE
8
LYELLOW
6
CONTINUOUS
10
8.4322199999999992
20
-52.5050409999999985
11
8.4798390000000001
21
-52.4098029999999966
0
LINE
8
LYELLOW
6
CONTINUOUS
10
8.4798390000000001
20
-52.4098029999999966
11
8.4798390000000001
21
-52.1717079999999953
0
LINE
8
LYELLOW
6
CONTINUOUS
10
8.4798390000000001
20
-52.1717079999999953
11
8.4322199999999992
21
-52.0764700000000005
0
LINE
8
LYELLOW
6
CONTINUOUS
10
8.4322199999999992
20
-52.0764700000000005
11
8.384601
21
-52.028850999999996
0
LINE
8
LYELLOW
6
CONTINUOUS
10
8.384601
20
-52.028850999999996
11
8.2893629999999998
21
-51.9812319999999985
0
LINE
8
LYELLOW
6
CONTINUOUS
10
8.2893629999999998
20
-51.9812319999999985
11
8.0988869999999995
21
-51.9812319999999985
0
LINE
8
LYELLOW
6
CONTINUOUS
10
8.0988869999999995
20
-51.9812319999999985
11
8.0036489999999993
21
-52.028850999999996
0
LINE
8
LYELLOW
6
CONTINUOUS
10
8.0036489999999993
20
-52.028850999999996
11
7.9560299999999993
21
-52.0764700000000005
0
LINE
8
LYELLOW
6
CONTINUOUS
10
7.9560299999999993
20
-52.0764700000000005
11
7.9084110000000001
21
-52.1717079999999953
0
LINE
8
LYELLOW
6
CONTINUOUS
10
27.5548189999999984
20
-5.8895229999999996
11
28.2691039999999987
21
-5.8895229999999996
0
LINE
8
LYELLOW
6
CONTINUOUS
10
28.2691039999999987
20
-5.8895229999999996
11
28.411960999999998
21
-5.9371419999999997
0
LINE
8
LYELLOW
6
CONTINUOUS
10
28.411960999999998
20
-5.9371419999999997
11
28.5071999999999974
21
-6.0323799999999999
0
LINE
8
LYELLOW
6
CONTINUOUS
10
28.5071999999999974
20
-6.0323799999999999
11
28.5548189999999984
21
-6.1752370000000001
0
LINE
8
LYELLOW
6
CONTINUOUS
10
28.5548189999999984
20
-6.1752370000000001
11
28.5548189999999984
21
-6.2704749999999994
0
LINE
8
LYELLOW
6
CONTINUOUS
10
28.5548189999999984
20
-4.8895229999999996
11
28.5548189999999984
21
-5.4609509999999997
0
LINE
8
LYELLOW
6
CONTINUOUS
10
28.5548189999999984
20
-5.1752370000000001
11
27.5548189999999984
21
-5.1752370000000001
0
LINE
8
LYELLOW
6
CONTINUOUS
10
27.5548189999999984
20
-5.1752370000000001
11
27.6976759999999977
21
-5.2704749999999994
0
LINE
8
LYELLOW
6
CONTINUOUS
10
27.6976759999999977
20
-5.2704749999999994
11
27.7929139999999997
21
-5.3657129999999995
0
LINE
8
LYELLOW
6
CONTINUOUS
10
27.7929139999999997
20
-5.3657129999999995
11
27.8405329999999971
21
-5.4609509999999997
0
LINE
8
LYELLOW
6
CONTINUOUS
10
27.5548189999999984
20
-4.2704750000000002
11
27.5548189999999984
21
-4.1752370000000001
0
LINE
8
LYELLOW
6
CONTINUOUS
10
27.5548189999999984
20
-4.1752370000000001
11
27.6024379999999994
21
-4.0799989999999999
0
LINE
8
LYELLOW
6
CONTINUOUS
10
27.6024379999999994
20
-4.0799989999999999
11
27.6500570000000003
21
-4.0323799999999999
0
LINE
8
LYELLOW
6
CONTINUOUS
10
27.6500570000000003
20
-4.0323799999999999
11
27.7452949999999987
21
-3.9847609999999998
0
LINE
8
LYELLOW
6
CONTINUOUS
10
27.7452949999999987
20
-3.9847609999999998
11
27.935770999999999
21
-3.9371419999999997
0
LINE
8
LYELLOW
6
CONTINUOUS
10
27.935770999999999
20
-3.9371419999999997
11
28.1738660000000003
21
-3.9371419999999997
0
LINE
8
LYELLOW
6
CONTINUOUS
10
28.1738660000000003
20
-3.9371419999999997
11
28.3643419999999971
21
-3.9847609999999998
0
LINE
8
LYELLOW
6
CONTINUOUS
10
28.3643419999999971
20
-3.9847609999999998
11
28.459579999999999
21
-4.0323799999999999
0
LINE
8
LYELLOW
6
CONTINUOUS
10
28.459579999999999
20
-4.0323799999999999
11
28.5071999999999974
21
-4.0799989999999999
0
LINE
8
LYELLOW
6
CONTINUOUS
10
28.5071999999999974
20
-4.0799989999999999
11
28.5548189999999984
21
-4.1752370000000001
0
LINE
8
LYELLOW
6
CONTINUOUS
10
28.5548189999999984
20
-4.1752370000000001
11
28.5548189999999984
21
-4.2704750000000002
0
LINE
8
LYELLOW
6
CONTINUOUS
10
28.5548189999999984
20
-4.2704750000000002
11
28.5071999999999974
21
-4.3657129999999995
0
LINE
8
LYELLOW
6
CONTINUOUS
10
28.5071999999999974
20
-4.3657129999999995
11
28.459579999999999
21
-4.4133319999999996
0
LINE
8
LYELLOW
6
CONTINUOUS
10
28.459579999999999
20
-4.4133319999999996
11
28.3643419999999971
21
-4.4609509999999997
0
LINE
8
LYELLOW
6
CONTINUOUS
10
28.3643419999999971
20
-4.4609509999999997
11
28.1738660000000003
21
-4.5085699999999997
0
LINE
8
LYELLOW
6
CONTINUOUS
10
28.1738660000000003
20
-4.5085699999999997
11
27.935770999999999
21
-4.5085699999999997
0
LINE
8
LYELLOW
6
CONTINUOUS
10
27.935770999999999
20
-4.5085699999999997
11
27.7452949999999987
21
-4.4609509999999997
0
LINE
8
LYELLOW
6
CONTINUOUS
10
27.7452949999999987
20
-4.4609509999999997
11
27.6500570000000003
21
-4.4133319999999996
0
LINE
8
LYELLOW
6
CONTINUOUS
10
27.6500570000000003
20
-4.4133319999999996
11
27.6024379999999994
21
-4.3657129999999995
0
LINE
8
LYELLOW
6
CONTINUOUS
10
27.6024379999999994
20
-4.3657129999999995
11
27.5548189999999984
21
-4.2704750000000002
0
LINE
8
LYELLOW
6
CONTINUOUS
10
10.7058269999999993
20
-28.7441739999999974
11
11.4201119999999996
21
-28.7441739999999974
0
LINE
8
LYELLOW
6
CONTINUOUS
10
11.4201119999999996
20
-28.7441739999999974
11
11.5629689999999989
21
-28.7917929999999984
0
LINE
8
LYELLOW
6
CONTINUOUS
10
11.5629689999999989
20
-28.7917929999999984
11
11.6582080000000001
21
-28.8870310000000003
0
LINE
8
LYELLOW
6
CONTINUOUS
10
11.6582080000000001
20
-28.8870310000000003
11
11.7058269999999993
21
-29.0298879999999997
0
LINE
8
LYELLOW
6
CONTINUOUS
10
11.7058269999999993
20
-29.0298879999999997
11
11.7058269999999993
21
-29.1251259999999981
0
LINE
8
LYELLOW
6
CONTINUOUS
10
11.7058269999999993
20
-27.7441739999999974
11
11.7058269999999993
21
-28.3156019999999984
0
LINE
8
LYELLOW
6
CONTINUOUS
10
11.7058269999999993
20
-28.0298879999999997
11
10.7058269999999993
21
-28.0298879999999997
0
LINE
8
LYELLOW
6
CONTINUOUS
10
10.7058269999999993
20
-28.0298879999999997
11
10.8486839999999987
21
-28.1251259999999981
0
LINE
8
LYELLOW
6
CONTINUOUS
10
10.8486839999999987
20
-28.1251259999999981
11
10.9439219999999988
21
-28.220364
0
LINE
8
LYELLOW
6
CONTINUOUS
10
10.9439219999999988
20
-28.220364
11
10.9915409999999998
21
-28.3156019999999984
0
LINE
8
LYELLOW
6
CONTINUOUS
10
11.039159999999999
20
-26.8870310000000003
11
11.7058269999999993
21
-26.8870310000000003
0
LINE
8
LYELLOW
6
CONTINUOUS
10
10.6582080000000001
20
-27.1251259999999981
11
11.3724929999999986
21
-27.3632209999999993
0
LINE
8
LYELLOW
6
CONTINUOUS
10
11.3724929999999986
20
-27.3632209999999993
11
11.3724929999999986
21
-26.7441739999999974
0
LINE
8
LYELLOW
6
CONTINUOUS
10
27.6858009999999979
20
-29.9346119999999978
11
27.6858009999999979
21
-30.7444479999999984
0
LINE
8
LYELLOW
6
CONTINUOUS
10
27.6858009999999979
20
-30.7444479999999984
11
27.7334379999999996
21
-30.8397229999999993
0
LINE
8
LYELLOW
6
CONTINUOUS
10
27.7334379999999996
20
-30.8397229999999993
11
27.7810759999999988
21
-30.8873609999999985
0
LINE
8
LYELLOW
6
CONTINUOUS
10
27.7810759999999988
20
-30.8873609999999985
11
27.8763499999999986
21
-30.9349980000000002
0
LINE
8
LYELLOW
6
CONTINUOUS
10
27.8763499999999986
20
-30.9349980000000002
11
28.0669000000000004
21
-30.9349980000000002
0
LINE
8
LYELLOW
6
CONTINUOUS
10
28.0669000000000004
20
-30.9349980000000002
11
28.1621749999999977
21
-30.8873609999999985
0
LINE
8
LYELLOW
6
CONTINUOUS
10
28.1621749999999977
20
-30.8873609999999985
11
28.2098119999999994
21
-30.8397229999999993
0
LINE
8
LYELLOW
6
CONTINUOUS
10
28.2098119999999994
20
-30.8397229999999993
11
28.2574499999999986
21
-30.7444479999999984
0
LINE
8
LYELLOW
6
CONTINUOUS
10
28.2574499999999986
20
-30.7444479999999984
11
28.2574499999999986
21
-29.9346119999999978
0
LINE
8
LYELLOW
6
CONTINUOUS
10
29.257835
20
-30.9349980000000002
11
28.6861859999999993
21
-30.9349980000000002
0
LINE
8
LYELLOW
6
CONTINUOUS
10
28.9720109999999984
20
-30.9349980000000002
11
28.9720109999999984
21
-29.9346119999999978
0
LINE
8
LYELLOW
6
CONTINUOUS
10
28.9720109999999984
20
-29.9346119999999978
11
28.8767359999999975
21
-30.0775240000000004
0
LINE
8
LYELLOW
6
CONTINUOUS
10
28.8767359999999975
20
-30.0775240000000004
11
28.7814610000000002
21
-30.1727989999999977
0
LINE
8
LYELLOW
6
CONTINUOUS
10
28.7814610000000002
20
-30.1727989999999977
11
28.6861859999999993
21
-30.2204369999999969
0
LINE
8
LYELLOW
6
CONTINUOUS
10
42.7948189999999968
20
-44.7833329999999989
11
43.5091040000000007
21
-44.7833329999999989
0
LINE
8
LYELLOW
6
CONTINUOUS
10
43.5091040000000007
20
-44.7833329999999989
11
43.651961
21
-44.8309519999999964
0
LINE
8
LYELLOW
6
CONTINUOUS
10
43.651961
20
-44.8309519999999964
11
43.7471999999999994
21
-44.9261899999999983
0
LINE
8
LYELLOW
6
CONTINUOUS
10
43.7471999999999994
20
-44.9261899999999983
11
43.7948189999999968
21
-45.0690469999999976
0
LINE
8
LYELLOW
6
CONTINUOUS
10
43.7948189999999968
20
-45.0690469999999976
11
43.7948189999999968
21
-45.1642849999999996
0
LINE
8
LYELLOW
6
CONTINUOUS
10
43.128152
20
-43.8785710000000009
11
43.7948189999999968
21
-43.8785710000000009
0
LINE
8
LYELLOW
6
CONTINUOUS
10
42.7471999999999994
20
-44.1166659999999951
11
43.4614849999999961
21
-44.3547609999999963
0
LINE
8
LYELLOW
6
CONTINUOUS
10
43.4614849999999961
20
-44.3547609999999963
11
43.4614849999999961
21
-43.7357140000000015
0
LINE
8
LYELLOW
6
CONTINUOUS
10
10.7058269999999993
20
-25.5691740000000003
11
11.4201119999999996
21
-25.5691740000000003
0
LINE
8
LYELLOW
6
CONTINUOUS
10
11.4201119999999996
20
-25.5691740000000003
11
11.5629689999999989
21
-25.6167929999999977
0
LINE
8
LYELLOW
6
CONTINUOUS
10
11.5629689999999989
20
-25.6167929999999977
11
11.6582080000000001
21
-25.7120309999999996
0
LINE
8
LYELLOW
6
CONTINUOUS
10
11.6582080000000001
20
-25.7120309999999996
11
11.7058269999999993
21
-25.854887999999999
0
LINE
8
LYELLOW
6
CONTINUOUS
10
11.7058269999999993
20
-25.854887999999999
11
11.7058269999999993
21
-25.9501259999999974
0
LINE
8
LYELLOW
6
CONTINUOUS
10
11.7058269999999993
20
-24.5691740000000003
11
11.7058269999999993
21
-25.1406019999999977
0
LINE
8
LYELLOW
6
CONTINUOUS
10
11.7058269999999993
20
-24.854887999999999
11
10.7058269999999993
21
-24.854887999999999
0
LINE
8
LYELLOW
6
CONTINUOUS
10
10.7058269999999993
20
-24.854887999999999
11
10.8486839999999987
21
-24.9501259999999974
0
LINE
8
LYELLOW
6
CONTINUOUS
10
10.8486839999999987
20
-24.9501259999999974
11
10.9439219999999988
21
-25.0453639999999993
0
LINE
8
LYELLOW
6
CONTINUOUS
10
10.9439219999999988
20
-25.0453639999999993
11
10.9915409999999998
21
-25.1406019999999977
0
LINE
8
LYELLOW
6
CONTINUOUS
10
11.7058269999999993
20
-24.0929830000000003
11
11.7058269999999993
21
-23.9025069999999999
0
LINE
8
LYELLOW
6
CONTINUOUS
10
11.7058269999999993
20
-23.9025069999999999
11
11.6582080000000001
21
-23.807268999999998
0
LINE
8
LYELLOW
6
CONTINUOUS
10
11.6582080000000001
20
-23.807268999999998
11
11.6105879999999999
21
-23.7596500000000006
0
LINE
8
LYELLOW
6
CONTINUOUS
10
11.6105879999999999
20
-23.7596500000000006
11
11.4677309999999988
21
-23.6644119999999987
0
LINE
8
LYELLOW
6
CONTINUOUS
10
11.4677309999999988
20
-23.6644119999999987
11
11.2772550000000003
21
-23.6167929999999977
0
LINE
8
LYELLOW
6
CONTINUOUS
10
11.2772550000000003
20
-23.6167929999999977
11
10.8963029999999996
21
-23.6167929999999977
0
LINE
8
LYELLOW
6
CONTINUOUS
10
10.8963029999999996
20
-23.6167929999999977
11
10.8010649999999995
21
-23.6644119999999987
0
LINE
8
LYELLOW
6
CONTINUOUS
10
10.8010649999999995
20
-23.6644119999999987
11
10.7534460000000003
21
-23.7120309999999996
0
LINE
8
LYELLOW
6
CONTINUOUS
10
10.7534460000000003
20
-23.7120309999999996
11
10.7058269999999993
21
-23.807268999999998
0
LINE
8
LYELLOW
6
CONTINUOUS
10
10.7058269999999993
20
-23.807268999999998
11
10.7058269999999993
21
-23.9977449999999983
0
LINE
8
LYELLOW
6
CONTINUOUS
10
10.7058269999999993
20
-23.9977449999999983
11
10.7534460000000003
21
-24.0929830000000003
0
LINE
8
LYELLOW
6
CONTINUOUS
10
10.7534460000000003
20
-24.0929830000000003
11
10.8010649999999995
21
-24.1406019999999977
0
LINE
8
LYELLOW
6
CONTINUOUS
10
10.8010649999999995
20
-24.1406019999999977
11
10.8963029999999996
21
-24.1882209999999986
0
LINE
8
LYELLOW
6
CONTINUOUS
10
10.8963029999999996
20
-24.1882209999999986
11
11.1343979999999991
21
-24.1882209999999986
0
LINE
8
LYELLOW
6
CONTINUOUS
10
11.1343979999999991
20
-24.1882209999999986
11
11.2296359999999993
21
-24.1406019999999977
0
LINE
8
LYELLOW
6
CONTINUOUS
10
11.2296359999999993
20
-24.1406019999999977
11
11.2772550000000003
21
-24.0929830000000003
0
LINE
8
LYELLOW
6
CONTINUOUS
10
11.2772550000000003
20
-24.0929830000000003
11
11.3248739999999994
21
-23.9977449999999983
0
LINE
8
LYELLOW
6
CONTINUOUS
10
11.3248739999999994
20
-23.9977449999999983
11
11.3248739999999994
21
-23.807268999999998
0
LINE
8
LYELLOW
6
CONTINUOUS
10
11.3248739999999994
20
-23.807268999999998
11
11.2772550000000003
21
-23.7120309999999996
0
LINE
8
LYELLOW
6
CONTINUOUS
10
11.2772550000000003
20
-23.7120309999999996
11
11.2296359999999993
21
-23.6644119999999987
0
LINE
8
LYELLOW
6
CONTINUOUS
10
11.2296359999999993
20
-23.6644119999999987
11
11.1343979999999991
21
-23.6167929999999977
0
LINE
8
LYELLOW
6
CONTINUOUS
10
42.7948189999999968
20
-48.5933330000000012
11
43.5091040000000007
21
-48.5933330000000012
0
LINE
8
LYELLOW
6
CONTINUOUS
10
43.5091040000000007
20
-48.5933330000000012
11
43.651961
21
-48.6409519999999986
0
LINE
8
LYELLOW
6
CONTINUOUS
10
43.651961
20
-48.6409519999999986
11
43.7471999999999994
21
-48.7361900000000006
0
LINE
8
LYELLOW
6
CONTINUOUS
10
43.7471999999999994
20
-48.7361900000000006
11
43.7948189999999968
21
-48.8790469999999999
0
LINE
8
LYELLOW
6
CONTINUOUS
10
43.7948189999999968
20
-48.8790469999999999
11
43.7948189999999968
21
-48.9742849999999947
0
LINE
8
LYELLOW
6
CONTINUOUS
10
42.7948189999999968
20
-47.6409519999999986
11
42.7948189999999968
21
-48.1171420000000012
0
LINE
8
LYELLOW
6
CONTINUOUS
10
42.7948189999999968
20
-48.1171420000000012
11
43.2710089999999994
21
-48.1647609999999986
0
LINE
8
LYELLOW
6
CONTINUOUS
10
43.2710089999999994
20
-48.1647609999999986
11
43.2233899999999949
21
-48.1171420000000012
0
LINE
8
LYELLOW
6
CONTINUOUS
10
43.2233899999999949
20
-48.1171420000000012
11
43.1757709999999975
21
-48.0219039999999993
0
LINE
8
LYELLOW
6
CONTINUOUS
10
43.1757709999999975
20
-48.0219039999999993
11
43.1757709999999975
21
-47.783808999999998
0
LINE
8
LYELLOW
6
CONTINUOUS
10
43.1757709999999975
20
-47.783808999999998
11
43.2233899999999949
21
-47.688570999999996
0
LINE
8
LYELLOW
6
CONTINUOUS
10
43.2233899999999949
20
-47.688570999999996
11
43.2710089999999994
21
-47.6409519999999986
0
LINE
8
LYELLOW
6
CONTINUOUS
10
43.2710089999999994
20
-47.6409519999999986
11
43.3662470000000013
21
-47.5933330000000012
0
LINE
8
LYELLOW
6
CONTINUOUS
10
43.3662470000000013
20
-47.5933330000000012
11
43.6043419999999955
21
-47.5933330000000012
0
LINE
8
LYELLOW
6
CONTINUOUS
10
43.6043419999999955
20
-47.5933330000000012
11
43.6995799999999974
21
-47.6409519999999986
0
LINE
8
LYELLOW
6
CONTINUOUS
10
43.6995799999999974
20
-47.6409519999999986
11
43.7471999999999994
21
-47.688570999999996
0
LINE
8
LYELLOW
6
CONTINUOUS
10
43.7471999999999994
20
-47.688570999999996
11
43.7948189999999968
21
-47.783808999999998
0
LINE
8
LYELLOW
6
CONTINUOUS
10
43.7948189999999968
20
-47.783808999999998
11
43.7948189999999968
21
-48.0219039999999993
0
LINE
8
LYELLOW
6
CONTINUOUS
10
43.7948189999999968
20
-48.0219039999999993
11
43.7471999999999994
21
-48.1171420000000012
0
LINE
8
LYELLOW
6
CONTINUOUS
10
43.7471999999999994
20
-48.1171420000000012
11
43.6995799999999974
21
-48.1647609999999986
0
LINE
8
LYELLOW
6
CONTINUOUS
10
42.7948189999999968
20
-40.9733329999999967
11
43.5091040000000007
21
-40.9733329999999967
0
LINE
8
LYELLOW
6
CONTINUOUS
10
43.5091040000000007
20
-40.9733329999999967
11
43.651961
21
-41.0209520000000012
0
LINE
8
LYELLOW
6
CONTINUOUS
10
43.651961
20
-41.0209520000000012
11
43.7471999999999994
21
-41.116189999999996
0
LINE
8
LYELLOW
6
CONTINUOUS
10
43.7471999999999994
20
-41.116189999999996
11
43.7948189999999968
21
-41.2590469999999954
0
LINE
8
LYELLOW
6
CONTINUOUS
10
43.7948189999999968
20
-41.2590469999999954
11
43.7948189999999968
21
-41.3542849999999973
0
LINE
8
LYELLOW
6
CONTINUOUS
10
42.8900569999999988
20
-40.5447610000000012
11
42.8424380000000014
21
-40.4971419999999966
0
LINE
8
LYELLOW
6
CONTINUOUS
10
42.8424380000000014
20
-40.4971419999999966
11
42.7948189999999968
21
-40.4019039999999947
0
LINE
8
LYELLOW
6
CONTINUOUS
10
42.7948189999999968
20
-40.4019039999999947
11
42.7948189999999968
21
-40.1638090000000005
0
LINE
8
LYELLOW
6
CONTINUOUS
10
42.7948189999999968
20
-40.1638090000000005
11
42.8424380000000014
21
-40.0685709999999986
0
LINE
8
LYELLOW
6
CONTINUOUS
10
42.8424380000000014
20
-40.0685709999999986
11
42.8900569999999988
21
-40.0209520000000012
0
LINE
8
LYELLOW
6
CONTINUOUS
10
42.8900569999999988
20
-40.0209520000000012
11
42.9852950000000007
21
-39.9733329999999967
0
LINE
8
LYELLOW
6
CONTINUOUS
10
42.9852950000000007
20
-39.9733329999999967
11
43.0805329999999955
21
-39.9733329999999967
0
LINE
8
LYELLOW
6
CONTINUOUS
10
43.0805329999999955
20
-39.9733329999999967
11
43.2233899999999949
21
-40.0209520000000012
0
LINE
8
LYELLOW
6
CONTINUOUS
10
43.2233899999999949
20
-40.0209520000000012
11
43.7948189999999968
21
-40.5923799999999986
0
LINE
8
LYELLOW
6
CONTINUOUS
10
43.7948189999999968
20
-40.5923799999999986
11
43.7948189999999968
21
-39.9733329999999967
0
LINE
8
LYELLOW
6
CONTINUOUS
10
2.4110079999999998
20
-30.3646509999999985
11
2.4110079999999998
21
-33.1246510000000001
0
LINE
8
LYELLOW
6
CONTINUOUS
10
7.6010079999999993
20
-30.3646509999999985
11
2.4110079999999998
21
-30.3646509999999985
0
LINE
8
LYELLOW
6
CONTINUOUS
10
7.6010079999999993
20
-30.3646509999999985
11
7.6010079999999993
21
-33.1246510000000001
0
LINE
8
LYELLOW
6
CONTINUOUS
10
7.6010079999999993
20
-33.1246510000000001
11
2.4110079999999998
21
-33.1246510000000001
0
LINE
8
LYELLOW
6
CONTINUOUS
10
8.8710079999999998
20
-30.3646509999999985
11
10.2510079999999988
21
-30.3646509999999985
0
LINE
8
LYELLOW
6
CONTINUOUS
10
10.2510079999999988
20
-30.3646509999999985
11
10.2510079999999988
21
-31.7446509999999975
0
LINE
8
LYELLOW
6
CONTINUOUS
10
43.0700000000000003
20
-10.3970000000000002
11
43.0700000000000003
21
-9.0169999999999995
0
LINE
8
LYELLOW
6
CONTINUOUS
10
44.4499999999999957
20
-10.3970000000000002
11
43.0700000000000003
21
-10.3970000000000002
0
LINE
8
LYELLOW
6
CONTINUOUS
10
45.7199999999999989
20
-7.6369999999999996
11
53.4499999999999957
21
-7.6369999999999996
0
LINE
8
LYELLOW
6
CONTINUOUS
10
45.7199999999999989
20
-10.3970000000000002
11
45.7199999999999989
21
-7.6369999999999996
0
LINE
8
LYELLOW
6
CONTINUOUS
10
45.7199999999999989
20
-10.3970000000000002
11
53.4499999999999957
21
-10.3970000000000002
0
LINE
8
LYELLOW
6
CONTINUOUS
10
53.4499999999999957
20
-10.3970000000000002
11
53.4499999999999957
21
-7.6369999999999996
0
LINE
8
LYELLOW
6
CONTINUOUS
10
43.0700000000000003
20
-17.8900000000000006
11
43.0700000000000003
21
-16.509999999999998
0
LINE
8
LYELLOW
6
CONTINUOUS
10
44.4499999999999957
20
-17.8900000000000006
11
43.0700000000000003
21
-17.8900000000000006
0
LINE
8
LYELLOW
6
CONTINUOUS
10
45.7199999999999989
20
-15.129999999999999
11
53.4499999999999957
21
-15.129999999999999
0
LINE
8
LYELLOW
6
CONTINUOUS
10
45.7199999999999989
20
-17.8900000000000006
11
45.7199999999999989
21
-15.129999999999999
0
LINE
8
LYELLOW
6
CONTINUOUS
10
45.7199999999999989
20
-17.8900000000000006
11
53.4499999999999957
21
-17.8900000000000006
0
LINE
8
LYELLOW
6
CONTINUOUS
10
53.4499999999999957
20
-17.8900000000000006
11
53.4499999999999957
21
-15.129999999999999
0
LINE
8
LYELLOW
6
CONTINUOUS
10
43.0700000000000003
20
-6.7139999999999995
11
43.0700000000000003
21
-5.3339999999999996
0
LINE
8
LYELLOW
6
CONTINUOUS
10
44.4499999999999957
20
-6.7139999999999995
11
43.0700000000000003
21
-6.7139999999999995
0
LINE
8
LYELLOW
6
CONTINUOUS
10
45.7199999999999989
20
-3.9539999999999997
11
53.4499999999999957
21
-3.9539999999999997
0
LINE
8
LYELLOW
6
CONTINUOUS
10
45.7199999999999989
20
-6.7139999999999995
11
45.7199999999999989
21
-3.9539999999999997
0
LINE
8
LYELLOW
6
CONTINUOUS
10
45.7199999999999989
20
-6.7139999999999995
11
53.4499999999999957
21
-6.7139999999999995
0
LINE
8
LYELLOW
6
CONTINUOUS
10
53.4499999999999957
20
-6.7139999999999995
11
53.4499999999999957
21
-3.9539999999999997
0
LINE
8
LYELLOW
6
CONTINUOUS
10
1.648655
20
-52.7100109999999944
11
1.648655
21
-55.4700109999999995
0
LINE
8
LYELLOW
6
CONTINUOUS
10
6.8386549999999993
20
-52.7100109999999944
11
1.648655
21
-52.7100109999999944
0
LINE
8
LYELLOW
6
CONTINUOUS
10
6.8386549999999993
20
-52.7100109999999944
11
6.8386549999999993
21
-55.4700109999999995
0
LINE
8
LYELLOW
6
CONTINUOUS
10
6.8386549999999993
20
-55.4700109999999995
11
1.648655
21
-55.4700109999999995
0
LINE
8
LYELLOW
6
CONTINUOUS
10
8.1086549999999988
20
-52.7100109999999944
11
9.4886549999999996
21
-52.7100109999999944
0
LINE
8
LYELLOW
6
CONTINUOUS
10
9.4886549999999996
20
-52.7100109999999944
11
9.4886549999999996
21
-54.090010999999997
0
LINE
8
LYELLOW
6
CONTINUOUS
10
15.6379999999999999
20
-6.5869999999999997
11
15.6379999999999999
21
-5.2069999999999999
0
LINE
8
LYELLOW
6
CONTINUOUS
10
17.0180000000000007
20
-6.5869999999999997
11
15.6379999999999999
21
-6.5869999999999997
0
LINE
8
LYELLOW
6
CONTINUOUS
10
18.2880000000000003
20
-3.827
11
23.477999999999998
21
-3.827
0
LINE
8
LYELLOW
6
CONTINUOUS
10
18.2880000000000003
20
-6.5869999999999997
11
18.2880000000000003
21
-3.827
0
LINE
8
LYELLOW
6
CONTINUOUS
10
18.2880000000000003
20
-6.5869999999999997
11
23.477999999999998
21
-6.5869999999999997
0
LINE
8
LYELLOW
6
CONTINUOUS
10
23.477999999999998
20
-6.5869999999999997
11
23.477999999999998
21
-3.827
0
LINE
8
LYELLOW
6
CONTINUOUS
10
44.3399999999999963
20
-53.4499999999999957
11
44.3399999999999963
21
-52.0700000000000003
0
LINE
8
LYELLOW
6
CONTINUOUS
10
45.7199999999999989
20
-53.4499999999999957
11
44.3399999999999963
21
-53.4499999999999957
0
LINE
8
LYELLOW
6
CONTINUOUS
10
46.9899999999999949
20
-50.6899999999999977
11
52.1799999999999997
21
-50.6899999999999977
0
LINE
8
LYELLOW
6
CONTINUOUS
10
46.9899999999999949
20
-53.4499999999999957
11
46.9899999999999949
21
-50.6899999999999977
0
LINE
8
LYELLOW
6
CONTINUOUS
10
46.9899999999999949
20
-53.4499999999999957
11
52.1799999999999997
21
-53.4499999999999957
0
LINE
8
LYELLOW
6
CONTINUOUS
10
52.1799999999999997
20
-53.4499999999999957
11
52.1799999999999997
21
-50.6899999999999977
0
LINE
8
LYELLOW
6
CONTINUOUS
10
1.648655
20
-56.2660109999999989
11
1.648655
21
-59.0260109999999969
0
LINE
8
LYELLOW
6
CONTINUOUS
10
6.8386549999999993
20
-56.2660109999999989
11
1.648655
21
-56.2660109999999989
0
LINE
8
LYELLOW
6
CONTINUOUS
10
6.8386549999999993
20
-56.2660109999999989
11
6.8386549999999993
21
-59.0260109999999969
0
LINE
8
LYELLOW
6
CONTINUOUS
10
6.8386549999999993
20
-59.0260109999999969
11
1.648655
21
-59.0260109999999969
0
LINE
8
LYELLOW
6
CONTINUOUS
10
8.1086549999999988
20
-56.2660109999999989
11
9.4886549999999996
21
-56.2660109999999989
0
LINE
8
LYELLOW
6
CONTINUOUS
10
9.4886549999999996
20
-56.2660109999999989
11
9.4886549999999996
21
-57.6460109999999943
0
LINE
8
LYELLOW
6
CONTINUOUS
10
2.4110079999999998
20
-12.5846509999999991
11
2.4110079999999998
21
-15.3446509999999989
0
LINE
8
LYELLOW
6
CONTINUOUS
10
7.6010079999999993
20
-12.5846509999999991
11
2.4110079999999998
21
-12.5846509999999991
0
LINE
8
LYELLOW
6
CONTINUOUS
10
7.6010079999999993
20
-12.5846509999999991
11
7.6010079999999993
21
-15.3446509999999989
0
LINE
8
LYELLOW
6
CONTINUOUS
10
7.6010079999999993
20
-15.3446509999999989
11
2.4110079999999998
21
-15.3446509999999989
0
LINE
8
LYELLOW
6
CONTINUOUS
10
8.8710079999999998
20
-12.5846509999999991
11
10.2510079999999988
21
-12.5846509999999991
0
LINE
8
LYELLOW
6
CONTINUOUS
10
10.2510079999999988
20
-12.5846509999999991
11
10.2510079999999988
21
-13.9646509999999999
0
LINE
8
LYELLOW
6
CONTINUOUS
10
2.4110079999999998
20
-19.5696510000000004
11
2.4110079999999998
21
-22.3296509999999984
0
LINE
8
LYELLOW
6
CONTINUOUS
10
7.6010079999999993
20
-19.5696510000000004
11
2.4110079999999998
21
-19.5696510000000004
0
LINE
8
LYELLOW
6
CONTINUOUS
10
7.6010079999999993
20
-19.5696510000000004
11
7.6010079999999993
21
-22.3296509999999984
0
LINE
8
LYELLOW
6
CONTINUOUS
10
7.6010079999999993
20
-22.3296509999999984
11
2.4110079999999998
21
-22.3296509999999984
0
LINE
8
LYELLOW
6
CONTINUOUS
10
8.8710079999999998
20
-19.5696510000000004
11
10.2510079999999988
21
-19.5696510000000004
0
LINE
8
LYELLOW
6
CONTINUOUS
10
10.2510079999999988
20
-19.5696510000000004
11
10.2510079999999988
21
-20.9496509999999994
0
LINE
8
LYELLOW
6
CONTINUOUS
10
43.0700000000000003
20
-14.0800000000000001
11
43.0700000000000003
21
-12.6999999999999993
0
LINE
8
LYELLOW
6
CONTINUOUS
10
44.4499999999999957
20
-14.0800000000000001
11
43.0700000000000003
21
-14.0800000000000001
0
LINE
8
LYELLOW
6
CONTINUOUS
10
45.7199999999999989
20
-11.3200000000000003
11
53.4499999999999957
21
-11.3200000000000003
0
LINE
8
LYELLOW
6
CONTINUOUS
10
45.7199999999999989
20
-14.0800000000000001
11
45.7199999999999989
21
-11.3200000000000003
0
LINE
8
LYELLOW
6
CONTINUOUS
10
45.7199999999999989
20
-14.0800000000000001
11
53.4499999999999957
21
-14.0800000000000001
0
LINE
8
LYELLOW
6
CONTINUOUS
10
53.4499999999999957
20
-14.0800000000000001
11
53.4499999999999957
21
-11.3200000000000003
0
LINE
8
LYELLOW
6
CONTINUOUS
10
47.5150000000000006
20
-18.9399999999999977
11
48.894999999999996
21
-18.9399999999999977
0
LINE
8
LYELLOW
6
CONTINUOUS
10
47.5150000000000006
20
-20.3200000000000003
11
47.5150000000000006
21
-18.9399999999999977
0
LINE
8
LYELLOW
6
CONTINUOUS
10
47.5150000000000006
20
-21.5899999999999999
11
47.5150000000000006
21
-34.3999999999999986
0
LINE
8
LYELLOW
6
CONTINUOUS
10
47.5150000000000006
20
-21.5899999999999999
11
50.2749999999999986
21
-21.5899999999999999
0
LINE
8
LYELLOW
6
CONTINUOUS
10
47.5150000000000006
20
-34.3999999999999986
11
50.2749999999999986
21
-34.3999999999999986
0
LINE
8
LYELLOW
6
CONTINUOUS
10
50.2749999999999986
20
-21.5899999999999999
11
50.2749999999999986
21
-34.3999999999999986
0
LINE
8
LYELLOW
6
CONTINUOUS
10
44.3399999999999963
20
-57.259999999999998
11
44.3399999999999963
21
-55.8799999999999955
0
LINE
8
LYELLOW
6
CONTINUOUS
10
45.7199999999999989
20
-57.259999999999998
11
44.3399999999999963
21
-57.259999999999998
0
LINE
8
LYELLOW
6
CONTINUOUS
10
46.9899999999999949
20
-54.5
11
52.1799999999999997
21
-54.5
0
LINE
8
LYELLOW
6
CONTINUOUS
10
46.9899999999999949
20
-57.259999999999998
11
46.9899999999999949
21
-54.5
0
LINE
8
LYELLOW
6
CONTINUOUS
10
46.9899999999999949
20
-57.259999999999998
11
52.1799999999999997
21
-57.259999999999998
0
LINE
8
LYELLOW
6
CONTINUOUS
10
52.1799999999999997
20
-57.259999999999998
11
52.1799999999999997
21
-54.5
0
LINE
8
LYELLOW
6
CONTINUOUS
10
2.4110079999999998
20
-16.3946509999999996
11
2.4110079999999998
21
-19.1546509999999977
0
LINE
8
LYELLOW
6
CONTINUOUS
10
7.6010079999999993
20
-16.3946509999999996
11
2.4110079999999998
21
-16.3946509999999996
0
LINE
8
LYELLOW
6
CONTINUOUS
10
7.6010079999999993
20
-16.3946509999999996
11
7.6010079999999993
21
-19.1546509999999977
0
LINE
8
LYELLOW
6
CONTINUOUS
10
7.6010079999999993
20
-19.1546509999999977
11
2.4110079999999998
21
-19.1546509999999977
0
LINE
8
LYELLOW
6
CONTINUOUS
10
8.8710079999999998
20
-16.3946509999999996
11
10.2510079999999988
21
-16.3946509999999996
0
LINE
8
LYELLOW
6
CONTINUOUS
10
10.2510079999999988
20
-16.3946509999999996
11
10.2510079999999988
21
-17.7746509999999986
0
LINE
8
LYELLOW
6
CONTINUOUS
10
44.3399999999999963
20
-38.2100000000000009
11
44.3399999999999963
21
-36.8299999999999983
0
LINE
8
LYELLOW
6
CONTINUOUS
10
45.7199999999999989
20
-38.2100000000000009
11
44.3399999999999963
21
-38.2100000000000009
0
LINE
8
LYELLOW
6
CONTINUOUS
10
46.9899999999999949
20
-35.4499999999999957
11
52.1799999999999997
21
-35.4499999999999957
0
LINE
8
LYELLOW
6
CONTINUOUS
10
46.9899999999999949
20
-38.2100000000000009
11
46.9899999999999949
21
-35.4499999999999957
0
LINE
8
LYELLOW
6
CONTINUOUS
10
46.9899999999999949
20
-38.2100000000000009
11
52.1799999999999997
21
-38.2100000000000009
0
LINE
8
LYELLOW
6
CONTINUOUS
10
52.1799999999999997
20
-38.2100000000000009
11
52.1799999999999997
21
-35.4499999999999957
0
LINE
8
LYELLOW
6
CONTINUOUS
10
5.956982
20
-48.4954609999999988
11
5.956982
21
-35.6854609999999965
0
LINE
8
LYELLOW
6
CONTINUOUS
10
8.7169819999999998
20
-35.6854609999999965
11
5.956982
21
-35.6854609999999965
0
LINE
8
LYELLOW
6
CONTINUOUS
10
8.7169819999999998
20
-48.4954609999999988
11
5.956982
21
-48.4954609999999988
0
LINE
8
LYELLOW
6
CONTINUOUS
10
8.7169819999999998
20
-48.4954609999999988
11
8.7169819999999998
21
-35.6854609999999965
0
LINE
8
LYELLOW
6
CONTINUOUS
10
8.7169819999999998
20
-49.7654609999999948
11
8.7169819999999998
21
-51.1454609999999974
0
LINE
8
LYELLOW
6
CONTINUOUS
10
8.7169819999999998
20
-51.1454609999999974
11
7.3369819999999999
21
-51.1454609999999974
0
LINE
8
LYELLOW
6
CONTINUOUS
10
29.0999999999999979
20
-6.46
11
29.0999999999999979
21
-5.0800000000000001
0
LINE
8
LYELLOW
6
CONTINUOUS
10
30.4799999999999969
20
-6.46
11
29.0999999999999979
21
-6.46
0
LINE
8
LYELLOW
6
CONTINUOUS
10
31.75
20
-3.6999999999999997
11
39.4799999999999969
21
-3.6999999999999997
0
LINE
8
LYELLOW
6
CONTINUOUS
10
31.75
20
-6.46
11
31.75
21
-3.6999999999999997
0
LINE
8
LYELLOW
6
CONTINUOUS
10
31.75
20
-6.46
11
39.4799999999999969
21
-6.46
0
LINE
8
LYELLOW
6
CONTINUOUS
10
39.4799999999999969
20
-6.46
11
39.4799999999999969
21
-3.6999999999999997
0
LINE
8
LYELLOW
6
CONTINUOUS
10
2.4110079999999998
20
-26.5546509999999998
11
2.4110079999999998
21
-29.3146509999999978
0
LINE
8
LYELLOW
6
CONTINUOUS
10
7.6010079999999993
20
-26.5546509999999998
11
2.4110079999999998
21
-26.5546509999999998
0
LINE
8
LYELLOW
6
CONTINUOUS
10
7.6010079999999993
20
-26.5546509999999998
11
7.6010079999999993
21
-29.3146509999999978
0
LINE
8
LYELLOW
6
CONTINUOUS
10
7.6010079999999993
20
-29.3146509999999978
11
2.4110079999999998
21
-29.3146509999999978
0
LINE
8
LYELLOW
6
CONTINUOUS
10
8.8710079999999998
20
-26.5546509999999998
11
10.2510079999999988
21
-26.5546509999999998
0
LINE
8
LYELLOW
6
CONTINUOUS
10
10.2510079999999988
20
-26.5546509999999998
11
10.2510079999999988
21
-27.9346509999999988
0
LINE
8
LYELLOW
6
CONTINUOUS
10
13.7159999999999993
20
-8.8899999999999988
11
39.7509999999999977
21
-8.8899999999999988
0
LINE
8
LYELLOW
6
CONTINUOUS
10
39.7509999999999977
20
-8.8899999999999988
11
39.7509999999999977
21
-60.3249999999999957
0
LINE
8
LYELLOW
6
CONTINUOUS
10
39.7509999999999977
20
-60.3249999999999957
11
13.7159999999999993
21
-60.3249999999999957
0
LINE
8
LYELLOW
6
CONTINUOUS
10
13.7159999999999993
20
-60.3249999999999957
11
13.7159999999999993
21
-8.8899999999999988
0
LINE
8
LYELLOW
6
CONTINUOUS
10
22.6059999999999981
20
-60.1980000000000004
11
32.5120000000000005
21
-60.1980000000000004
0
LINE
8
LYELLOW
6
CONTINUOUS
10
32.5120000000000005
20
-60.1980000000000004
11
32.5120000000000005
21
-62.9919999999999973
0
LINE
8
LYELLOW
6
CONTINUOUS
10
32.5120000000000005
20
-62.9919999999999973
11
22.6059999999999981
21
-62.9919999999999973
0
LINE
8
LYELLOW
6
CONTINUOUS
10
22.6059999999999981
20
-62.9919999999999973
11
22.6059999999999981
21
-60.1980000000000004
0
LINE
8
LYELLOW
6
CONTINUOUS
10
44.3399999999999963
20
-45.8299999999999983
11
44.3399999999999963
21
-44.4499999999999957
0
LINE
8
LYELLOW
6
CONTINUOUS
10
45.7199999999999989
20
-45.8299999999999983
11
44.3399999999999963
21
-45.8299999999999983
0
LINE
8
LYELLOW
6
CONTINUOUS
10
46.9899999999999949
20
-43.0700000000000003
11
52.1799999999999997
21
-43.0700000000000003
0
LINE
8
LYELLOW
6
CONTINUOUS
10
46.9899999999999949
20
-45.8299999999999983
11
46.9899999999999949
21
-43.0700000000000003
0
LINE
8
LYELLOW
6
CONTINUOUS
10
46.9899999999999949
20
-45.8299999999999983
11
52.1799999999999997
21
-45.8299999999999983
0
LINE
8
LYELLOW
6
CONTINUOUS
10
52.1799999999999997
20
-45.8299999999999983
11
52.1799999999999997
21
-43.0700000000000003
0
LINE
8
LYELLOW
6
CONTINUOUS
10
2.4110079999999998
20
-23.3796509999999991
11
2.4110079999999998
21
-26.1396509999999971
0
LINE
8
LYELLOW
6
CONTINUOUS
10
7.6010079999999993
20
-23.3796509999999991
11
2.4110079999999998
21
-23.3796509999999991
0
LINE
8
LYELLOW
6
CONTINUOUS
10
7.6010079999999993
20
-23.3796509999999991
11
7.6010079999999993
21
-26.1396509999999971
0
LINE
8
LYELLOW
6
CONTINUOUS
10
7.6010079999999993
20
-26.1396509999999971
11
2.4110079999999998
21
-26.1396509999999971
0
LINE
8
LYELLOW
6
CONTINUOUS
10
8.8710079999999998
20
-23.3796509999999991
11
10.2510079999999988
21
-23.3796509999999991
0
LINE
8
LYELLOW
6
CONTINUOUS
10
10.2510079999999988
20
-23.3796509999999991
11
10.2510079999999988
21
-24.7596509999999981
0
LINE
8
LYELLOW
6
CONTINUOUS
10
44.3399999999999963
20
-49.6400000000000006
11
44.3399999999999963
21
-48.259999999999998
0
LINE
8
LYELLOW
6
CONTINUOUS
10
45.7199999999999989
20
-49.6400000000000006
11
44.3399999999999963
21
-49.6400000000000006
0
LINE
8
LYELLOW
6
CONTINUOUS
10
46.9899999999999949
20
-46.8799999999999955
11
52.1799999999999997
21
-46.8799999999999955
0
LINE
8
LYELLOW
6
CONTINUOUS
10
46.9899999999999949
20
-49.6400000000000006
11
46.9899999999999949
21
-46.8799999999999955
0
LINE
8
LYELLOW
6
CONTINUOUS
10
46.9899999999999949
20
-49.6400000000000006
11
52.1799999999999997
21
-49.6400000000000006
0
LINE
8
LYELLOW
6
CONTINUOUS
10
52.1799999999999997
20
-49.6400000000000006
11
52.1799999999999997
21
-46.8799999999999955
0
LINE
8
LYELLOW
6
CONTINUOUS
10
44.3399999999999963
20
-42.019999999999996
11
44.3399999999999963
21
-40.6400000000000006
0
LINE
8
LYELLOW
6
CONTINUOUS
10
45.7199999999999989
20
-42.019999999999996
11
44.3399999999999963
21
-42.019999999999996
0
LINE
8
LYELLOW
6
CONTINUOUS
10
46.9899999999999949
20
-39.259999999999998
11
52.1799999999999997
21
-39.259999999999998
0
LINE
8
LYELLOW
6
CONTINUOUS
10
46.9899999999999949
20
-42.019999999999996
11
46.9899999999999949
21
-39.259999999999998
0
LINE
8
LYELLOW
6
CONTINUOUS
10
46.9899999999999949
20
-42.019999999999996
11
52.1799999999999997
21
-42.019999999999996
0
LINE
8
LYELLOW
6
CONTINUOUS
10
52.1799999999999997
20
-42.019999999999996
11
52.1799999999999997
21
-39.259999999999998
0
CIRCLE
8
BLACK
10
8.8710079999999998
20
-31.7446509999999975
40
0.5
0
CIRCLE
8
BLACK
10
6.3310079999999997
20
-31.7446509999999975
40
0.5
0
CIRCLE
8
BLACK
10
3.7910079999999997
20
-31.7446509999999975
40
0.5
0
CIRCLE
8
BLACK
10
44.4499999999999957
20
-9.0169999999999995
40
0.5
0
CIRCLE
8
BLACK
10
46.9899999999999949
20
-9.0169999999999995
40
0.5
0
CIRCLE
8
BLACK
10
49.5300000000000011
20
-9.0169999999999995
40
0.5
0
CIRCLE
8
BLACK
10
52.0700000000000003
20
-9.0169999999999995
40
0.5
0
CIRCLE
8
BLACK
10
44.4499999999999957
20
-16.509999999999998
40
0.5
0
CIRCLE
8
BLACK
10
46.9899999999999949
20
-16.509999999999998
40
0.5
0
CIRCLE
8
BLACK
10
49.5300000000000011
20
-16.509999999999998
40
0.5
0
CIRCLE
8
BLACK
10
52.0700000000000003
20
-16.509999999999998
40
0.5
0
CIRCLE
8
BLACK
10
44.4499999999999957
20
-5.3339999999999996
40
0.5
0
CIRCLE
8
BLACK
10
46.9899999999999949
20
-5.3339999999999996
40
0.5
0
CIRCLE
8
BLACK
10
49.5300000000000011
20
-5.3339999999999996
40
0.5
0
CIRCLE
8
BLACK
10
52.0700000000000003
20
-5.3339999999999996
40
0.5
0
CIRCLE
8
BLACK
10
8.1086549999999988
20
-54.090010999999997
40
0.5
0
CIRCLE
8
BLACK
10
5.5686549999999997
20
-54.090010999999997
40
0.5
0
CIRCLE
8
BLACK
10
3.0286549999999997
20
-54.090010999999997
40
0.5
0
CIRCLE
8
BLACK
10
17.0180000000000007
20
-5.2069999999999999
40
0.5
0
CIRCLE
8
BLACK
10
19.5579999999999998
20
-5.2069999999999999
40
0.5
0
CIRCLE
8
BLACK
10
22.097999999999999
20
-5.2069999999999999
40
0.5
0
CIRCLE
8
BLACK
10
45.7199999999999989
20
-52.0700000000000003
40
0.5
0
CIRCLE
8
BLACK
10
48.259999999999998
20
-52.0700000000000003
40
0.5
0
CIRCLE
8
BLACK
10
50.7999999999999972
20
-52.0700000000000003
40
0.5
0
CIRCLE
8
BLACK
10
8.1086549999999988
20
-57.6460109999999943
40
0.5
0
CIRCLE
8
BLACK
10
5.5686549999999997
20
-57.6460109999999943
40
0.5
0
CIRCLE
8
BLACK
10
3.0286549999999997
20
-57.6460109999999943
40
0.5
0
CIRCLE
8
BLACK
10
8.8710079999999998
20
-13.9646509999999999
40
0.5
0
CIRCLE
8
BLACK
10
6.3310079999999997
20
-13.9646509999999999
40
0.5
0
CIRCLE
8
BLACK
10
3.7910079999999997
20
-13.9646509999999999
40
0.5
0
CIRCLE
8
BLACK
10
8.8710079999999998
20
-20.9496509999999994
40
0.5
0
CIRCLE
8
BLACK
10
6.3310079999999997
20
-20.9496509999999994
40
0.5
0
CIRCLE
8
BLACK
10
3.7910079999999997
20
-20.9496509999999994
40
0.5
0
CIRCLE
8
BLACK
10
44.4499999999999957
20
-12.6999999999999993
40
0.5
0
CIRCLE
8
BLACK
10
46.9899999999999949
20
-12.6999999999999993
40
0.5
0
CIRCLE
8
BLACK
10
49.5300000000000011
20
-12.6999999999999993
40
0.5
0
CIRCLE
8
BLACK
10
52.0700000000000003
20
-12.6999999999999993
40
0.5
0
CIRCLE
8
BLACK
10
48.894999999999996
20
-20.3200000000000003
40
0.5
0
CIRCLE
8
BLACK
10
48.894999999999996
20
-22.8599999999999994
40
0.5
0
CIRCLE
8
BLACK
10
48.894999999999996
20
-25.3999999999999986
40
0.5
0
CIRCLE
8
BLACK
10
48.894999999999996
20
-27.9399999999999977
40
0.5
0
CIRCLE
8
BLACK
10
48.894999999999996
20
-30.4799999999999969
40
0.5
0
CIRCLE
8
BLACK
10
48.894999999999996
20
-33.019999999999996
40
0.5
0
CIRCLE
8
BLACK
10
45.7199999999999989
20
-55.8799999999999955
40
0.5
0
CIRCLE
8
BLACK
10
48.259999999999998
20
-55.8799999999999955
40
0.5
0
CIRCLE
8
BLACK
10
50.7999999999999972
20
-55.8799999999999955
40
0.5
0
CIRCLE
8
BLACK
10
8.8710079999999998
20
-17.7746509999999986
40
0.5
0
CIRCLE
8
BLACK
10
6.3310079999999997
20
-17.7746509999999986
40
0.5
0
CIRCLE
8
BLACK
10
3.7910079999999997
20
-17.7746509999999986
40
0.5
0
CIRCLE
8
BLACK
10
45.7199999999999989
20
-36.8299999999999983
40
0.5
0
CIRCLE
8
BLACK
10
48.259999999999998
20
-36.8299999999999983
40
0.5
0
CIRCLE
8
BLACK
10
50.7999999999999972
20
-36.8299999999999983
40
0.5
0
CIRCLE
8
BLACK
10
7.3369819999999999
20
-49.7654609999999948
40
0.5
0
CIRCLE
8
BLACK
10
7.3369819999999999
20
-47.2254609999999957
40
0.5
0
CIRCLE
8
BLACK
10
7.3369819999999999
20
-44.6854609999999965
40
0.5
0
CIRCLE
8
BLACK
10
7.3369819999999999
20
-42.1454609999999974
40
0.5
0
CIRCLE
8
BLACK
10
7.3369819999999999
20
-39.6054609999999983
40
0.5
0
CIRCLE
8
BLACK
10
7.3369819999999999
20
-37.0654609999999991
40
0.5
0
CIRCLE
8
BLACK
10
30.4799999999999969
20
-5.0800000000000001
40
0.5
0
CIRCLE
8
BLACK
10
33.019999999999996
20
-5.0800000000000001
40
0.5
0
CIRCLE
8
BLACK
10
35.5599999999999952
20
-5.0800000000000001
40
0.5
0
CIRCLE
8
BLACK
10
38.1000000000000014
20
-5.0800000000000001
40
0.5
0
CIRCLE
8
BLACK
10
8.8710079999999998
20
-27.9346509999999988
40
0.5
0
CIRCLE
8
BLACK
10
6.3310079999999997
20
-27.9346509999999988
40
0.5
0
CIRCLE
8
BLACK
10
3.7910079999999997
20
-27.9346509999999988
40
0.5
0
CIRCLE
8
BLACK
10
15.2399999999999984
20
-10.1600000000000001
40
0.3937
0
CIRCLE
8
BLACK
10
15.2399999999999984
20
-12.6999999999999993
40
0.3937
0
CIRCLE
8
BLACK
10
15.2399999999999984
20
-15.2399999999999984
40
0.3937
0
CIRCLE
8
BLACK
10
15.2399999999999984
20
-17.7799999999999976
40
0.3937
0
CIRCLE
8
BLACK
10
15.2399999999999984
20
-20.3200000000000003
40
0.3937
0
CIRCLE
8
BLACK
10
15.2399999999999984
20
-22.8599999999999994
40
0.3937
0
CIRCLE
8
BLACK
10
15.2399999999999984
20
-25.3999999999999986
40
0.3937
0
CIRCLE
8
BLACK
10
15.2399999999999984
20
-27.9399999999999977
40
0.3937
0
CIRCLE
8
BLACK
10
15.2399999999999984
20
-30.4799999999999969
40
0.3937
0
CIRCLE
8
BLACK
10
15.2399999999999984
20
-33.019999999999996
40
0.3937
0
CIRCLE
8
BLACK
10
15.2399999999999984
20
-35.5599999999999952
40
0.3937
0
CIRCLE
8
BLACK
10
15.2399999999999984
20
-38.1000000000000014
40
0.3937
0
CIRCLE
8
BLACK
10
15.2399999999999984
20
-40.6400000000000006
40
0.3937
0
CIRCLE
8
BLACK
10
15.2399999999999984
20
-43.1799999999999997
40
0.3937
0
CIRCLE
8
BLACK
10
15.2399999999999984
20
-45.7199999999999989
40
0.3937
0
CIRCLE
8
BLACK
10
15.2399999999999984
20
-48.259999999999998
40
0.3937
0
CIRCLE
8
BLACK
10
15.2399999999999984
20
-50.7999999999999972
40
0.3937
0
CIRCLE
8
BLACK
10
15.2399999999999984
20
-53.3399999999999963
40
0.3937
0
CIRCLE
8
BLACK
10
15.2399999999999984
20
-55.8799999999999955
40
0.3937
0
CIRCLE
8
BLACK
10
38.1000000000000014
20
-10.1600000000000001
40
0.3937
0
CIRCLE
8
BLACK
10
38.1000000000000014
20
-12.6999999999999993
40
0.3937
0
CIRCLE
8
BLACK
10
38.1000000000000014
20
-15.2399999999999984
40
0.3937
0
CIRCLE
8
BLACK
10
38.1000000000000014
20
-17.7799999999999976
40
0.3937
0
CIRCLE
8
BLACK
10
38.1000000000000014
20
-20.3200000000000003
40
0.3937
0
CIRCLE
8
BLACK
10
38.1000000000000014
20
-22.8599999999999994
40
0.3937
0
CIRCLE
8
BLACK
10
38.1000000000000014
20
-25.3999999999999986
40
0.3937
0
CIRCLE
8
BLACK
10
38.1000000000000014
20
-27.9399999999999977
40
0.3937
0
CIRCLE
8
BLACK
10
38.1000000000000014
20
-30.4799999999999969
40
0.3937
0
CIRCLE
8
BLACK
10
38.1000000000000014
20
-33.019999999999996
40
0.3937
0
CIRCLE
8
BLACK
10
38.1000000000000014
20
-35.5599999999999952
40
0.3937
0
CIRCLE
8
BLACK
10
38.1000000000000014
20
-38.1000000000000014
40
0.3937
0
CIRCLE
8
BLACK
10
38.1000000000000014
20
-40.6400000000000006
40
0.3937
0
CIRCLE
8
BLACK
10
38.1000000000000014
20
-43.1799999999999997
40
0.3937
0
CIRCLE
8
BLACK
10
38.1000000000000014
20
-45.7199999999999989
40
0.3937
0
CIRCLE
8
BLACK
10
38.1000000000000014
20
-48.259999999999998
40
0.3937
0
CIRCLE
8
BLACK
10
38.1000000000000014
20
-50.7999999999999972
40
0.3937
0
CIRCLE
8
BLACK
10
38.1000000000000014
20
-53.3399999999999963
40
0.3937
0
CIRCLE
8
BLACK
10
38.1000000000000014
20
-55.8799999999999955
40
0.3937
0
CIRCLE
8
BLACK
10
45.7199999999999989
20
-44.4499999999999957
40
0.5
0
CIRCLE
8
BLACK
10
48.259999999999998
20
-44.4499999999999957
40
0.5
0
CIRCLE
8
BLACK
10
50.7999999999999972
20
-44.4499999999999957
40
0.5
0
CIRCLE
8
BLACK
10
8.8710079999999998
20
-24.7596509999999981
40
0.5
0
CIRCLE
8
BLACK
10
6.3310079999999997
20
-24.7596509999999981
40
0.5
0
CIRCLE
8
BLACK
10
3.7910079999999997
20
-24.7596509999999981
40
0.5
0
CIRCLE
8
BLACK
10
45.7199999999999989
20
-48.259999999999998
40
0.5
0
CIRCLE
8
BLACK
10
48.259999999999998
20
-48.259999999999998
40
0.5
0
CIRCLE
8
BLACK
10
50.7999999999999972
20
-48.259999999999998
40
0.5
0
CIRCLE
8
BLACK
10
45.7199999999999989
20
-40.6400000000000006
40
0.5
0
CIRCLE
8
BLACK
10
48.259999999999998
20
-40.6400000000000006
40
0.5
0
CIRCLE
8
BLACK
10
50.7999999999999972
20
-40.6400000000000006
40
0.5
  0
ENDSEC
  0
EOF
