  0
SECTION
  2
HEADER
  9
$ANGBASE
  50
0.0
  9
$ANGDIR
  70
1
  9
$MEASUREMENT
  70
1
  0
ENDSEC
  0
SECTION
  2
TABLES
  0
TABLE
  2
LTYPE
  70
4
  0
LTYPE
  5
40F
  2
CONTINUOUS
  70
0
  3
Solid line
  72
65
  73
0
  40
0.0
  0
LTYPE
  5
410
  2
DASHDOT
 70
0
  3
Dash Dot ____ _ ____ _
 72
65
 73
4
 40
2.0
 49
1.25
 49
-0.25
 49
0.25
 49
-0.25
  0
LTYPE
  5
411
  2
DASHED
 70
0
  3
Dashed __ __ __ __ __
 72
65
 73
2
 40
0.75
 49
0.5
 49
-0.25
  0
LTYPE
  5
43B
  2
DOTTED
 70
0
  3
Dotted .  .  .  .
 72
65
 73
2
 40
0.2
 49
0.0
 49
-0.2
  0
ENDTAB
  0
TABLE
  2
STYLE
  70
4
  0
STYLE
  2
KICAD
  70
0
  40
0
  41
1
  42
1
  50
0
  71
0
  3
isocp.shx
  0
STYLE
  2
KICADB
  70
0
  40
0
  41
1
  42
1
  50
0
  71
0
  3
isocp.shx
  0
STYLE
  2
KICADI
  70
0
  40
0
  41
1
  42
1
  50
15
  71
0
  3
isocp.shx
  0
STYLE
  2
KICADBI
  70
0
  40
0
  41
1
  42
1
  50
15
  71
0
  3
isocp.shx
  0
ENDTAB
  0
TABLE
  2
LAYER
  70
35
  0
LAYER
  2
BLACK
  70
0
  62
7
  6
CONTINUOUS
  0
LAYER
  2
GRAY1
  70
0
  62
251
  6
CONTINUOUS
  0
LAYER
  2
GRAY2
  70
0
  62
8
  6
CONTINUOUS
  0
LAYER
  2
GRAY3
  70
0
  62
9
  6
CONTINUOUS
  0
LAYER
  2
WHITE
  70
0
  62
7
  6
CONTINUOUS
  0
LAYER
  2
LYELLOW
  70
0
  62
51
  6
CONTINUOUS
  0
LAYER
  2
LORANGE
  70
0
  62
41
  6
CONTINUOUS
  0
LAYER
  2
BLUE1
  70
0
  62
178
  6
CONTINUOUS
  0
LAYER
  2
GREEN1
  70
0
  62
98
  6
CONTINUOUS
  0
LAYER
  2
CYAN1
  70
0
  62
138
  6
CONTINUOUS
  0
LAYER
  2
RED1
  70
0
  62
18
  6
CONTINUOUS
  0
LAYER
  2
MAGENTA1
  70
0
  62
228
  6
CONTINUOUS
  0
LAYER
  2
BROWN1
  70
0
  62
58
  6
CONTINUOUS
  0
LAYER
  2
ORANGE1
  70
0
  62
34
  6
CONTINUOUS
  0
LAYER
  2
BLUE2
  70
0
  62
5
  6
CONTINUOUS
  0
LAYER
  2
GREEN2
  70
0
  62
3
  6
CONTINUOUS
  0
LAYER
  2
CYAN2
  70
0
  62
4
  6
CONTINUOUS
  0
LAYER
  2
RED2
  70
0
  62
1
  6
CONTINUOUS
  0
LAYER
  2
MAGENTA2
  70
0
  62
6
  6
CONTINUOUS
  0
LAYER
  2
BROWN2
  70
0
  62
54
  6
CONTINUOUS
  0
LAYER
  2
ORANGE2
  70
0
  62
42
  6
CONTINUOUS
  0
LAYER
  2
BLUE3
  70
0
  62
171
  6
CONTINUOUS
  0
LAYER
  2
GREEN3
  70
0
  62
91
  6
CONTINUOUS
  0
LAYER
  2
CYAN3
  70
0
  62
131
  6
CONTINUOUS
  0
LAYER
  2
RED3
  70
0
  62
11
  6
CONTINUOUS
  0
LAYER
  2
MAGENTA3
  70
0
  62
221
  6
CONTINUOUS
  0
LAYER
  2
YELLOW3
  70
0
  62
2
  6
CONTINUOUS
  0
LAYER
  2
ORANGE3
  70
0
  62
32
  6
CONTINUOUS
  0
LAYER
  2
BLUE4
  70
0
  62
5
  6
CONTINUOUS
  0
LAYER
  2
GREEN4
  70
0
  62
3
  6
CONTINUOUS
  0
LAYER
  2
CYAN4
  70
0
  62
4
  6
CONTINUOUS
  0
LAYER
  2
RED4
  70
0
  62
1
  6
CONTINUOUS
  0
LAYER
  2
MAGENTA4
  70
0
  62
6
  6
CONTINUOUS
  0
LAYER
  2
YELLOW4
  70
0
  62
2
  6
CONTINUOUS
  0
LAYER
  2
ORANGE4
  70
0
  62
40
  6
CONTINUOUS
  0
ENDTAB
  0
ENDSEC
  0
SECTION
  2
ENTITIES
0
LINE
8
LYELLOW
6
CONTINUOUS
10
23.1626189999999994
20
-11.2848189999999988
11
23.1626189999999994
21
-10.2848189999999988
0
LINE
8
LYELLOW
6
CONTINUOUS
10
23.5911899999999974
20
-10.380056999999999
11
23.6388089999999984
21
-10.3324379999999998
0
LINE
8
LYELLOW
6
CONTINUOUS
10
23.6388089999999984
20
-10.3324379999999998
11
23.7340470000000003
21
-10.2848189999999988
0
LINE
8
LYELLOW
6
CONTINUOUS
10
23.7340470000000003
20
-10.2848189999999988
11
23.9721419999999981
21
-10.2848189999999988
0
LINE
8
LYELLOW
6
CONTINUOUS
10
23.9721419999999981
20
-10.2848189999999988
11
24.06738
21
-10.3324379999999998
0
LINE
8
LYELLOW
6
CONTINUOUS
10
24.06738
20
-10.3324379999999998
11
24.1149989999999974
21
-10.380056999999999
0
LINE
8
LYELLOW
6
CONTINUOUS
10
24.1149989999999974
20
-10.380056999999999
11
24.1626179999999984
21
-10.4752949999999991
0
LINE
8
LYELLOW
6
CONTINUOUS
10
24.1626179999999984
20
-10.4752949999999991
11
24.1626179999999984
21
-10.5705329999999993
0
LINE
8
LYELLOW
6
CONTINUOUS
10
24.1626179999999984
20
-10.5705329999999993
11
24.1149989999999974
21
-10.7133899999999986
0
LINE
8
LYELLOW
6
CONTINUOUS
10
24.1149989999999974
20
-10.7133899999999986
11
23.543571
21
-11.2848189999999988
0
LINE
8
LYELLOW
6
CONTINUOUS
10
23.543571
20
-11.2848189999999988
11
24.1626179999999984
21
-11.2848189999999988
0
LINE
8
LYELLOW
6
CONTINUOUS
10
25.1626179999999984
20
-11.1895799999999994
11
25.1149989999999974
21
-11.2371999999999996
0
LINE
8
LYELLOW
6
CONTINUOUS
10
25.1149989999999974
20
-11.2371999999999996
11
24.9721419999999981
21
-11.2848189999999988
0
LINE
8
LYELLOW
6
CONTINUOUS
10
24.9721419999999981
20
-11.2848189999999988
11
24.8769039999999997
21
-11.2848189999999988
0
LINE
8
LYELLOW
6
CONTINUOUS
10
24.8769039999999997
20
-11.2848189999999988
11
24.7340470000000003
21
-11.2371999999999996
0
LINE
8
LYELLOW
6
CONTINUOUS
10
24.7340470000000003
20
-11.2371999999999996
11
24.6388089999999984
21
-11.1419610000000002
0
LINE
8
LYELLOW
6
CONTINUOUS
10
24.6388089999999984
20
-11.1419610000000002
11
24.5911899999999974
21
-11.0467230000000001
0
LINE
8
LYELLOW
6
CONTINUOUS
10
24.5911899999999974
20
-11.0467230000000001
11
24.543571
21
-10.8562469999999998
0
LINE
8
LYELLOW
6
CONTINUOUS
10
24.543571
20
-10.8562469999999998
11
24.543571
21
-10.7133899999999986
0
LINE
8
LYELLOW
6
CONTINUOUS
10
24.543571
20
-10.7133899999999986
11
24.5911899999999974
21
-10.5229140000000001
0
LINE
8
LYELLOW
6
CONTINUOUS
10
24.5911899999999974
20
-10.5229140000000001
11
24.6388089999999984
21
-10.4276759999999999
0
LINE
8
LYELLOW
6
CONTINUOUS
10
24.6388089999999984
20
-10.4276759999999999
11
24.7340470000000003
21
-10.3324379999999998
0
LINE
8
LYELLOW
6
CONTINUOUS
10
24.7340470000000003
20
-10.3324379999999998
11
24.8769039999999997
21
-10.2848189999999988
0
LINE
8
LYELLOW
6
CONTINUOUS
10
24.8769039999999997
20
-10.2848189999999988
11
24.9721419999999981
21
-10.2848189999999988
0
LINE
8
LYELLOW
6
CONTINUOUS
10
24.9721419999999981
20
-10.2848189999999988
11
25.1149989999999974
21
-10.3324379999999998
0
LINE
8
LYELLOW
6
CONTINUOUS
10
25.1149989999999974
20
-10.3324379999999998
11
25.1626179999999984
21
-10.380056999999999
0
LINE
8
LYELLOW
6
CONTINUOUS
10
25.543571
20
-10.380056999999999
11
25.5911899999999974
21
-10.3324379999999998
0
LINE
8
LYELLOW
6
CONTINUOUS
10
25.5911899999999974
20
-10.3324379999999998
11
25.6864279999999994
21
-10.2848189999999988
0
LINE
8
LYELLOW
6
CONTINUOUS
10
25.6864279999999994
20
-10.2848189999999988
11
25.9245229999999971
21
-10.2848189999999988
0
LINE
8
LYELLOW
6
CONTINUOUS
10
25.9245229999999971
20
-10.2848189999999988
11
26.019760999999999
21
-10.3324379999999998
0
LINE
8
LYELLOW
6
CONTINUOUS
10
26.019760999999999
20
-10.3324379999999998
11
26.06738
21
-10.380056999999999
0
LINE
8
LYELLOW
6
CONTINUOUS
10
26.06738
20
-10.380056999999999
11
26.1149989999999974
21
-10.4752949999999991
0
LINE
8
LYELLOW
6
CONTINUOUS
10
26.1149989999999974
20
-10.4752949999999991
11
26.1149989999999974
21
-10.5705329999999993
0
LINE
8
LYELLOW
6
CONTINUOUS
10
26.1149989999999974
20
-10.5705329999999993
11
26.06738
21
-10.7133899999999986
0
LINE
8
LYELLOW
6
CONTINUOUS
10
26.06738
20
-10.7133899999999986
11
25.4959519999999991
21
-11.2848189999999988
0
LINE
8
LYELLOW
6
CONTINUOUS
10
25.4959519999999991
20
-11.2848189999999988
11
26.1149989999999974
21
-11.2848189999999988
0
LINE
8
LYELLOW
6
CONTINUOUS
10
44.1249959999999959
20
-21.4784359999999985
11
44.1249959999999959
21
-22.1927209999999988
0
LINE
8
LYELLOW
6
CONTINUOUS
10
44.1249959999999959
20
-22.1927209999999988
11
44.0773769999999985
21
-22.3355779999999982
0
LINE
8
LYELLOW
6
CONTINUOUS
10
44.0773769999999985
20
-22.3355779999999982
11
43.9821389999999965
21
-22.4308169999999976
0
LINE
8
LYELLOW
6
CONTINUOUS
10
43.9821389999999965
20
-22.4308169999999976
11
43.8392819999999972
21
-22.4784359999999985
0
LINE
8
LYELLOW
6
CONTINUOUS
10
43.8392819999999972
20
-22.4784359999999985
11
43.7440439999999953
21
-22.4784359999999985
0
LINE
8
LYELLOW
6
CONTINUOUS
10
45.1249959999999959
20
-22.4784359999999985
11
44.5535679999999985
21
-22.4784359999999985
0
LINE
8
LYELLOW
6
CONTINUOUS
10
44.8392819999999972
20
-22.4784359999999985
11
44.8392819999999972
21
-21.4784359999999985
0
LINE
8
LYELLOW
6
CONTINUOUS
10
44.8392819999999972
20
-21.4784359999999985
11
44.7440439999999953
21
-21.6212929999999979
0
LINE
8
LYELLOW
6
CONTINUOUS
10
44.7440439999999953
20
-21.6212929999999979
11
44.6488060000000004
21
-21.7165309999999998
0
LINE
8
LYELLOW
6
CONTINUOUS
10
44.6488060000000004
20
-21.7165309999999998
11
44.5535679999999985
21
-21.7641500000000008
0
LINE
8
LYELLOW
6
CONTINUOUS
10
45.5059490000000011
20
-21.5736740000000005
11
45.5535679999999985
21
-21.5260549999999995
0
LINE
8
LYELLOW
6
CONTINUOUS
10
45.5535679999999985
20
-21.5260549999999995
11
45.6488060000000004
21
-21.4784359999999985
0
LINE
8
LYELLOW
6
CONTINUOUS
10
45.6488060000000004
20
-21.4784359999999985
11
45.8869009999999946
21
-21.4784359999999985
0
LINE
8
LYELLOW
6
CONTINUOUS
10
45.8869009999999946
20
-21.4784359999999985
11
45.9821389999999965
21
-21.5260549999999995
0
LINE
8
LYELLOW
6
CONTINUOUS
10
45.9821389999999965
20
-21.5260549999999995
11
46.0297580000000011
21
-21.5736740000000005
0
LINE
8
LYELLOW
6
CONTINUOUS
10
46.0297580000000011
20
-21.5736740000000005
11
46.0773769999999985
21
-21.6689119999999988
0
LINE
8
LYELLOW
6
CONTINUOUS
10
46.0773769999999985
20
-21.6689119999999988
11
46.0773769999999985
21
-21.7641500000000008
0
LINE
8
LYELLOW
6
CONTINUOUS
10
46.0773769999999985
20
-21.7641500000000008
11
46.0297580000000011
21
-21.9070070000000001
0
LINE
8
LYELLOW
6
CONTINUOUS
10
46.0297580000000011
20
-21.9070070000000001
11
45.4583299999999966
21
-22.4784359999999985
0
LINE
8
LYELLOW
6
CONTINUOUS
10
45.4583299999999966
20
-22.4784359999999985
11
46.0773769999999985
21
-22.4784359999999985
0
LINE
8
LYELLOW
6
CONTINUOUS
10
24.6378009999999996
20
-31.8396119999999989
11
24.6378009999999996
21
-32.6494479999999996
0
LINE
8
LYELLOW
6
CONTINUOUS
10
24.6378009999999996
20
-32.6494479999999996
11
24.6854379999999978
21
-32.7447230000000005
0
LINE
8
LYELLOW
6
CONTINUOUS
10
24.6854379999999978
20
-32.7447230000000005
11
24.7330760000000005
21
-32.7923609999999996
0
LINE
8
LYELLOW
6
CONTINUOUS
10
24.7330760000000005
20
-32.7923609999999996
11
24.8283500000000004
21
-32.8399980000000014
0
LINE
8
LYELLOW
6
CONTINUOUS
10
24.8283500000000004
20
-32.8399980000000014
11
25.0188999999999986
21
-32.8399980000000014
0
LINE
8
LYELLOW
6
CONTINUOUS
10
25.0188999999999986
20
-32.8399980000000014
11
25.1141749999999995
21
-32.7923609999999996
0
LINE
8
LYELLOW
6
CONTINUOUS
10
25.1141749999999995
20
-32.7923609999999996
11
25.1618119999999976
21
-32.7447230000000005
0
LINE
8
LYELLOW
6
CONTINUOUS
10
25.1618119999999976
20
-32.7447230000000005
11
25.2094500000000004
21
-32.6494479999999996
0
LINE
8
LYELLOW
6
CONTINUOUS
10
25.2094500000000004
20
-32.6494479999999996
11
25.2094500000000004
21
-31.8396119999999989
0
LINE
8
LYELLOW
6
CONTINUOUS
10
26.2098349999999982
20
-32.8399980000000014
11
25.6381859999999975
21
-32.8399980000000014
0
LINE
8
LYELLOW
6
CONTINUOUS
10
25.9240110000000001
20
-32.8399980000000014
11
25.9240110000000001
21
-31.8396119999999989
0
LINE
8
LYELLOW
6
CONTINUOUS
10
25.9240110000000001
20
-31.8396119999999989
11
25.8287359999999993
21
-31.982523999999998
0
LINE
8
LYELLOW
6
CONTINUOUS
10
25.8287359999999993
20
-31.982523999999998
11
25.7334609999999984
21
-32.0777989999999988
0
LINE
8
LYELLOW
6
CONTINUOUS
10
25.7334609999999984
20
-32.0777989999999988
11
25.6381859999999975
21
-32.125436999999998
0
LINE
8
LYELLOW
6
CONTINUOUS
10
8.6998189999999997
20
-29.3845229999999979
11
9.414104
21
-29.3845229999999979
0
LINE
8
LYELLOW
6
CONTINUOUS
10
9.414104
20
-29.3845229999999979
11
9.5569609999999994
21
-29.4321419999999989
0
LINE
8
LYELLOW
6
CONTINUOUS
10
9.5569609999999994
20
-29.4321419999999989
11
9.6521999999999988
21
-29.5273799999999973
0
LINE
8
LYELLOW
6
CONTINUOUS
10
9.6521999999999988
20
-29.5273799999999973
11
9.6998189999999997
21
-29.6702370000000002
0
LINE
8
LYELLOW
6
CONTINUOUS
10
9.6998189999999997
20
-29.6702370000000002
11
9.6998189999999997
21
-29.7654749999999986
0
LINE
8
LYELLOW
6
CONTINUOUS
10
9.6998189999999997
20
-28.3845229999999979
11
9.6998189999999997
21
-28.9559509999999989
0
LINE
8
LYELLOW
6
CONTINUOUS
10
9.6998189999999997
20
-28.6702370000000002
11
8.6998189999999997
21
-28.6702370000000002
0
LINE
8
LYELLOW
6
CONTINUOUS
10
8.6998189999999997
20
-28.6702370000000002
11
8.8426759999999991
21
-28.7654749999999986
0
LINE
8
LYELLOW
6
CONTINUOUS
10
8.8426759999999991
20
-28.7654749999999986
11
8.9379139999999992
21
-28.860712999999997
0
LINE
8
LYELLOW
6
CONTINUOUS
10
8.9379139999999992
20
-28.860712999999997
11
8.9855330000000002
21
-28.9559509999999989
0
LINE
8
LYELLOW
6
CONTINUOUS
10
8.6998189999999997
20
-27.4797609999999999
11
8.6998189999999997
21
-27.9559509999999989
0
LINE
8
LYELLOW
6
CONTINUOUS
10
8.6998189999999997
20
-27.9559509999999989
11
9.1760089999999987
21
-28.0035699999999999
0
LINE
8
LYELLOW
6
CONTINUOUS
10
9.1760089999999987
20
-28.0035699999999999
11
9.1283899999999996
21
-27.9559509999999989
0
LINE
8
LYELLOW
6
CONTINUOUS
10
9.1283899999999996
20
-27.9559509999999989
11
9.0807710000000004
21
-27.8607130000000005
0
LINE
8
LYELLOW
6
CONTINUOUS
10
9.0807710000000004
20
-27.8607130000000005
11
9.0807710000000004
21
-27.6226179999999992
0
LINE
8
LYELLOW
6
CONTINUOUS
10
9.0807710000000004
20
-27.6226179999999992
11
9.1283899999999996
21
-27.5273799999999973
0
LINE
8
LYELLOW
6
CONTINUOUS
10
9.1283899999999996
20
-27.5273799999999973
11
9.1760089999999987
21
-27.4797609999999999
0
LINE
8
LYELLOW
6
CONTINUOUS
10
9.1760089999999987
20
-27.4797609999999999
11
9.2712469999999989
21
-27.4321419999999989
0
LINE
8
LYELLOW
6
CONTINUOUS
10
9.2712469999999989
20
-27.4321419999999989
11
9.5093420000000002
21
-27.4321419999999989
0
LINE
8
LYELLOW
6
CONTINUOUS
10
9.5093420000000002
20
-27.4321419999999989
11
9.6045800000000003
21
-27.4797609999999999
0
LINE
8
LYELLOW
6
CONTINUOUS
10
9.6045800000000003
20
-27.4797609999999999
11
9.6521999999999988
21
-27.5273799999999973
0
LINE
8
LYELLOW
6
CONTINUOUS
10
9.6521999999999988
20
-27.5273799999999973
11
9.6998189999999997
21
-27.6226179999999992
0
LINE
8
LYELLOW
6
CONTINUOUS
10
9.6998189999999997
20
-27.6226179999999992
11
9.6998189999999997
21
-27.8607130000000005
0
LINE
8
LYELLOW
6
CONTINUOUS
10
9.6998189999999997
20
-27.8607130000000005
11
9.6521999999999988
21
-27.9559509999999989
0
LINE
8
LYELLOW
6
CONTINUOUS
10
9.6521999999999988
20
-27.9559509999999989
11
9.6045800000000003
21
-28.0035699999999999
0
LINE
8
LYELLOW
6
CONTINUOUS
10
9.6941039999999994
20
-65.4842849999999999
11
9.6941039999999994
21
-65.0080949999999973
0
LINE
8
LYELLOW
6
CONTINUOUS
10
9.9798189999999991
20
-65.5795229999999947
11
8.9798189999999991
21
-65.2461899999999986
0
LINE
8
LYELLOW
6
CONTINUOUS
10
8.9798189999999991
20
-65.2461899999999986
11
9.9798189999999991
21
-64.9128570000000025
0
LINE
8
LYELLOW
6
CONTINUOUS
10
9.3131519999999988
20
-64.1509520000000037
11
9.9798189999999991
21
-64.1509520000000037
0
LINE
8
LYELLOW
6
CONTINUOUS
10
8.9321999999999999
20
-64.3890469999999908
11
9.6464850000000002
21
-64.6271419999999921
0
LINE
8
LYELLOW
6
CONTINUOUS
10
9.6464850000000002
20
-64.6271419999999921
11
9.6464850000000002
21
-64.0080949999999973
0
LINE
8
LYELLOW
6
CONTINUOUS
10
40.0236239999999981
20
-55.937901999999994
11
40.0236239999999981
21
-55.4617119999999986
0
LINE
8
LYELLOW
6
CONTINUOUS
10
40.3093390000000014
20
-56.033139999999996
11
39.3093390000000014
21
-55.6998069999999998
0
LINE
8
LYELLOW
6
CONTINUOUS
10
39.3093390000000014
20
-55.6998069999999998
11
40.3093390000000014
21
-55.3664739999999966
0
LINE
8
LYELLOW
6
CONTINUOUS
10
40.3093390000000014
20
-54.509330999999996
11
40.3093390000000014
21
-55.0807590000000005
0
LINE
8
LYELLOW
6
CONTINUOUS
10
40.3093390000000014
20
-54.7950449999999947
11
39.3093390000000014
21
-54.7950449999999947
0
LINE
8
LYELLOW
6
CONTINUOUS
10
39.3093390000000014
20
-54.7950449999999947
11
39.4521960000000007
21
-54.8902829999999966
0
LINE
8
LYELLOW
6
CONTINUOUS
10
39.4521960000000007
20
-54.8902829999999966
11
39.5474339999999955
21
-54.9855209999999985
0
LINE
8
LYELLOW
6
CONTINUOUS
10
39.5474339999999955
20
-54.9855209999999985
11
39.5950530000000001
21
-55.0807590000000005
0
LINE
8
LYELLOW
6
CONTINUOUS
10
9.414104
20
-52.4542849999999987
11
9.414104
21
-51.9780949999999962
0
LINE
8
LYELLOW
6
CONTINUOUS
10
9.6998189999999997
20
-52.5495230000000006
11
8.6998189999999997
21
-52.2161899999999974
0
LINE
8
LYELLOW
6
CONTINUOUS
10
8.6998189999999997
20
-52.2161899999999974
11
9.6998189999999997
21
-51.8828569999999942
0
LINE
8
LYELLOW
6
CONTINUOUS
10
8.7950569999999999
20
-51.5971419999999981
11
8.7474379999999989
21
-51.5495230000000006
0
LINE
8
LYELLOW
6
CONTINUOUS
10
8.7474379999999989
20
-51.5495230000000006
11
8.6998189999999997
21
-51.4542849999999987
0
LINE
8
LYELLOW
6
CONTINUOUS
10
8.6998189999999997
20
-51.4542849999999987
11
8.6998189999999997
21
-51.2161899999999974
0
LINE
8
LYELLOW
6
CONTINUOUS
10
8.6998189999999997
20
-51.2161899999999974
11
8.7474379999999989
21
-51.1209519999999955
0
LINE
8
LYELLOW
6
CONTINUOUS
10
8.7474379999999989
20
-51.1209519999999955
11
8.7950569999999999
21
-51.0733329999999981
0
LINE
8
LYELLOW
6
CONTINUOUS
10
8.7950569999999999
20
-51.0733329999999981
11
8.8902950000000001
21
-51.0257140000000007
0
LINE
8
LYELLOW
6
CONTINUOUS
10
8.8902950000000001
20
-51.0257140000000007
11
8.9855330000000002
21
-51.0257140000000007
0
LINE
8
LYELLOW
6
CONTINUOUS
10
8.9855330000000002
20
-51.0257140000000007
11
9.1283899999999996
21
-51.0733329999999981
0
LINE
8
LYELLOW
6
CONTINUOUS
10
9.1283899999999996
20
-51.0733329999999981
11
9.6998189999999997
21
-51.6447609999999955
0
LINE
8
LYELLOW
6
CONTINUOUS
10
9.6998189999999997
20
-51.6447609999999955
11
9.6998189999999997
21
-51.0257140000000007
0
LINE
8
LYELLOW
6
CONTINUOUS
10
38.6743389999999962
20
-45.8731399999999994
11
39.6743389999999962
21
-45.206474
0
LINE
8
LYELLOW
6
CONTINUOUS
10
38.6743389999999962
20
-45.206474
11
39.6743389999999962
21
-45.8731399999999994
0
LINE
8
LYELLOW
6
CONTINUOUS
10
39.6743389999999962
20
-44.3017119999999949
11
39.6743389999999962
21
-44.8731399999999994
0
LINE
8
LYELLOW
6
CONTINUOUS
10
39.6743389999999962
20
-44.5874260000000007
11
38.6743389999999962
21
-44.5874260000000007
0
LINE
8
LYELLOW
6
CONTINUOUS
10
38.6743389999999962
20
-44.5874260000000007
11
38.8171959999999956
21
-44.6826639999999955
0
LINE
8
LYELLOW
6
CONTINUOUS
10
38.8171959999999956
20
-44.6826639999999955
11
38.9124339999999975
21
-44.7779019999999974
0
LINE
8
LYELLOW
6
CONTINUOUS
10
38.9124339999999975
20
-44.7779019999999974
11
38.9600529999999949
21
-44.8731399999999994
0
LINE
8
LYELLOW
6
CONTINUOUS
10
44.1249959999999959
20
-23.0134359999999987
11
44.1249959999999959
21
-23.727720999999999
0
LINE
8
LYELLOW
6
CONTINUOUS
10
44.1249959999999959
20
-23.727720999999999
11
44.0773769999999985
21
-23.8705779999999983
0
LINE
8
LYELLOW
6
CONTINUOUS
10
44.0773769999999985
20
-23.8705779999999983
11
43.9821389999999965
21
-23.9658169999999977
0
LINE
8
LYELLOW
6
CONTINUOUS
10
43.9821389999999965
20
-23.9658169999999977
11
43.8392819999999972
21
-24.0134359999999987
0
LINE
8
LYELLOW
6
CONTINUOUS
10
43.8392819999999972
20
-24.0134359999999987
11
43.7440439999999953
21
-24.0134359999999987
0
LINE
8
LYELLOW
6
CONTINUOUS
10
45.1249959999999959
20
-24.0134359999999987
11
44.5535679999999985
21
-24.0134359999999987
0
LINE
8
LYELLOW
6
CONTINUOUS
10
44.8392819999999972
20
-24.0134359999999987
11
44.8392819999999972
21
-23.0134359999999987
0
LINE
8
LYELLOW
6
CONTINUOUS
10
44.8392819999999972
20
-23.0134359999999987
11
44.7440439999999953
21
-23.156292999999998
0
LINE
8
LYELLOW
6
CONTINUOUS
10
44.7440439999999953
20
-23.156292999999998
11
44.6488060000000004
21
-23.2515309999999999
0
LINE
8
LYELLOW
6
CONTINUOUS
10
44.6488060000000004
20
-23.2515309999999999
11
44.5535679999999985
21
-23.2991499999999974
0
LINE
8
LYELLOW
6
CONTINUOUS
10
45.7440439999999953
20
-23.0134359999999987
11
45.8392819999999972
21
-23.0134359999999987
0
LINE
8
LYELLOW
6
CONTINUOUS
10
45.8392819999999972
20
-23.0134359999999987
11
45.9345199999999991
21
-23.0610549999999996
0
LINE
8
LYELLOW
6
CONTINUOUS
10
45.9345199999999991
20
-23.0610549999999996
11
45.9821389999999965
21
-23.1086740000000006
0
LINE
8
LYELLOW
6
CONTINUOUS
10
45.9821389999999965
20
-23.1086740000000006
11
46.0297580000000011
21
-23.203911999999999
0
LINE
8
LYELLOW
6
CONTINUOUS
10
46.0297580000000011
20
-23.203911999999999
11
46.0773769999999985
21
-23.3943879999999993
0
LINE
8
LYELLOW
6
CONTINUOUS
10
46.0773769999999985
20
-23.3943879999999993
11
46.0773769999999985
21
-23.6324830000000006
0
LINE
8
LYELLOW
6
CONTINUOUS
10
46.0773769999999985
20
-23.6324830000000006
11
46.0297580000000011
21
-23.8229589999999973
0
LINE
8
LYELLOW
6
CONTINUOUS
10
46.0297580000000011
20
-23.8229589999999973
11
45.9821389999999965
21
-23.9181969999999993
0
LINE
8
LYELLOW
6
CONTINUOUS
10
45.9821389999999965
20
-23.9181969999999993
11
45.9345199999999991
21
-23.9658169999999977
0
LINE
8
LYELLOW
6
CONTINUOUS
10
45.9345199999999991
20
-23.9658169999999977
11
45.8392819999999972
21
-24.0134359999999987
0
LINE
8
LYELLOW
6
CONTINUOUS
10
45.8392819999999972
20
-24.0134359999999987
11
45.7440439999999953
21
-24.0134359999999987
0
LINE
8
LYELLOW
6
CONTINUOUS
10
45.7440439999999953
20
-24.0134359999999987
11
45.6488060000000004
21
-23.9658169999999977
0
LINE
8
LYELLOW
6
CONTINUOUS
10
45.6488060000000004
20
-23.9658169999999977
11
45.6011869999999959
21
-23.9181969999999993
0
LINE
8
LYELLOW
6
CONTINUOUS
10
45.6011869999999959
20
-23.9181969999999993
11
45.5535679999999985
21
-23.8229589999999973
0
LINE
8
LYELLOW
6
CONTINUOUS
10
45.5535679999999985
20
-23.8229589999999973
11
45.5059490000000011
21
-23.6324830000000006
0
LINE
8
LYELLOW
6
CONTINUOUS
10
45.5059490000000011
20
-23.6324830000000006
11
45.5059490000000011
21
-23.3943879999999993
0
LINE
8
LYELLOW
6
CONTINUOUS
10
45.5059490000000011
20
-23.3943879999999993
11
45.5535679999999985
21
-23.203911999999999
0
LINE
8
LYELLOW
6
CONTINUOUS
10
45.5535679999999985
20
-23.203911999999999
11
45.6011869999999959
21
-23.1086740000000006
0
LINE
8
LYELLOW
6
CONTINUOUS
10
45.6011869999999959
20
-23.1086740000000006
11
45.6488060000000004
21
-23.0610549999999996
0
LINE
8
LYELLOW
6
CONTINUOUS
10
45.6488060000000004
20
-23.0610549999999996
11
45.7440439999999953
21
-23.0134359999999987
0
LINE
8
LYELLOW
6
CONTINUOUS
10
10.4626190000000001
20
-11.2848189999999988
11
10.4626190000000001
21
-10.2848189999999988
0
LINE
8
LYELLOW
6
CONTINUOUS
10
10.8911899999999999
20
-10.380056999999999
11
10.9388089999999991
21
-10.3324379999999998
0
LINE
8
LYELLOW
6
CONTINUOUS
10
10.9388089999999991
20
-10.3324379999999998
11
11.0340469999999993
21
-10.2848189999999988
0
LINE
8
LYELLOW
6
CONTINUOUS
10
11.0340469999999993
20
-10.2848189999999988
11
11.2721419999999988
21
-10.2848189999999988
0
LINE
8
LYELLOW
6
CONTINUOUS
10
11.2721419999999988
20
-10.2848189999999988
11
11.3673799999999989
21
-10.3324379999999998
0
LINE
8
LYELLOW
6
CONTINUOUS
10
11.3673799999999989
20
-10.3324379999999998
11
11.4149989999999999
21
-10.380056999999999
0
LINE
8
LYELLOW
6
CONTINUOUS
10
11.4149989999999999
20
-10.380056999999999
11
11.4626179999999991
21
-10.4752949999999991
0
LINE
8
LYELLOW
6
CONTINUOUS
10
11.4626179999999991
20
-10.4752949999999991
11
11.4626179999999991
21
-10.5705329999999993
0
LINE
8
LYELLOW
6
CONTINUOUS
10
11.4626179999999991
20
-10.5705329999999993
11
11.4149989999999999
21
-10.7133899999999986
0
LINE
8
LYELLOW
6
CONTINUOUS
10
11.4149989999999999
20
-10.7133899999999986
11
10.843570999999999
21
-11.2848189999999988
0
LINE
8
LYELLOW
6
CONTINUOUS
10
10.843570999999999
20
-11.2848189999999988
11
11.4626179999999991
21
-11.2848189999999988
0
LINE
8
LYELLOW
6
CONTINUOUS
10
12.4626179999999991
20
-11.1895799999999994
11
12.4149989999999999
21
-11.2371999999999996
0
LINE
8
LYELLOW
6
CONTINUOUS
10
12.4149989999999999
20
-11.2371999999999996
11
12.2721419999999988
21
-11.2848189999999988
0
LINE
8
LYELLOW
6
CONTINUOUS
10
12.2721419999999988
20
-11.2848189999999988
11
12.1769039999999986
21
-11.2848189999999988
0
LINE
8
LYELLOW
6
CONTINUOUS
10
12.1769039999999986
20
-11.2848189999999988
11
12.0340469999999993
21
-11.2371999999999996
0
LINE
8
LYELLOW
6
CONTINUOUS
10
12.0340469999999993
20
-11.2371999999999996
11
11.9388089999999991
21
-11.1419610000000002
0
LINE
8
LYELLOW
6
CONTINUOUS
10
11.9388089999999991
20
-11.1419610000000002
11
11.8911899999999999
21
-11.0467230000000001
0
LINE
8
LYELLOW
6
CONTINUOUS
10
11.8911899999999999
20
-11.0467230000000001
11
11.843570999999999
21
-10.8562469999999998
0
LINE
8
LYELLOW
6
CONTINUOUS
10
11.843570999999999
20
-10.8562469999999998
11
11.843570999999999
21
-10.7133899999999986
0
LINE
8
LYELLOW
6
CONTINUOUS
10
11.843570999999999
20
-10.7133899999999986
11
11.8911899999999999
21
-10.5229140000000001
0
LINE
8
LYELLOW
6
CONTINUOUS
10
11.8911899999999999
20
-10.5229140000000001
11
11.9388089999999991
21
-10.4276759999999999
0
LINE
8
LYELLOW
6
CONTINUOUS
10
11.9388089999999991
20
-10.4276759999999999
11
12.0340469999999993
21
-10.3324379999999998
0
LINE
8
LYELLOW
6
CONTINUOUS
10
12.0340469999999993
20
-10.3324379999999998
11
12.1769039999999986
21
-10.2848189999999988
0
LINE
8
LYELLOW
6
CONTINUOUS
10
12.1769039999999986
20
-10.2848189999999988
11
12.2721419999999988
21
-10.2848189999999988
0
LINE
8
LYELLOW
6
CONTINUOUS
10
12.2721419999999988
20
-10.2848189999999988
11
12.4149989999999999
21
-10.3324379999999998
0
LINE
8
LYELLOW
6
CONTINUOUS
10
12.4149989999999999
20
-10.3324379999999998
11
12.4626179999999991
21
-10.380056999999999
0
LINE
8
LYELLOW
6
CONTINUOUS
10
12.7959519999999998
20
-10.2848189999999988
11
13.4149989999999999
21
-10.2848189999999988
0
LINE
8
LYELLOW
6
CONTINUOUS
10
13.4149989999999999
20
-10.2848189999999988
11
13.0816660000000002
21
-10.6657709999999994
0
LINE
8
LYELLOW
6
CONTINUOUS
10
13.0816660000000002
20
-10.6657709999999994
11
13.2245229999999996
21
-10.6657709999999994
0
LINE
8
LYELLOW
6
CONTINUOUS
10
13.2245229999999996
20
-10.6657709999999994
11
13.3197609999999997
21
-10.7133899999999986
0
LINE
8
LYELLOW
6
CONTINUOUS
10
13.3197609999999997
20
-10.7133899999999986
11
13.3673799999999989
21
-10.7610089999999996
0
LINE
8
LYELLOW
6
CONTINUOUS
10
13.3673799999999989
20
-10.7610089999999996
11
13.4149989999999999
21
-10.8562469999999998
0
LINE
8
LYELLOW
6
CONTINUOUS
10
13.4149989999999999
20
-10.8562469999999998
11
13.4149989999999999
21
-11.0943419999999993
0
LINE
8
LYELLOW
6
CONTINUOUS
10
13.4149989999999999
20
-11.0943419999999993
11
13.3673799999999989
21
-11.1895799999999994
0
LINE
8
LYELLOW
6
CONTINUOUS
10
13.3673799999999989
20
-11.1895799999999994
11
13.3197609999999997
21
-11.2371999999999996
0
LINE
8
LYELLOW
6
CONTINUOUS
10
13.3197609999999997
20
-11.2371999999999996
11
13.2245229999999996
21
-11.2848189999999988
0
LINE
8
LYELLOW
6
CONTINUOUS
10
13.2245229999999996
20
-11.2848189999999988
11
12.9388089999999991
21
-11.2848189999999988
0
LINE
8
LYELLOW
6
CONTINUOUS
10
12.9388089999999991
20
-11.2848189999999988
11
12.843570999999999
21
-11.2371999999999996
0
LINE
8
LYELLOW
6
CONTINUOUS
10
12.843570999999999
20
-11.2371999999999996
11
12.7959519999999998
21
-11.1895799999999994
0
LINE
8
LYELLOW
6
CONTINUOUS
10
8.6998189999999997
20
-23.0345230000000001
11
9.414104
21
-23.0345230000000001
0
LINE
8
LYELLOW
6
CONTINUOUS
10
9.414104
20
-23.0345230000000001
11
9.5569609999999994
21
-23.0821419999999975
0
LINE
8
LYELLOW
6
CONTINUOUS
10
9.5569609999999994
20
-23.0821419999999975
11
9.6521999999999988
21
-23.1773799999999994
0
LINE
8
LYELLOW
6
CONTINUOUS
10
9.6521999999999988
20
-23.1773799999999994
11
9.6998189999999997
21
-23.3202369999999988
0
LINE
8
LYELLOW
6
CONTINUOUS
10
9.6998189999999997
20
-23.3202369999999988
11
9.6998189999999997
21
-23.4154750000000007
0
LINE
8
LYELLOW
6
CONTINUOUS
10
9.6998189999999997
20
-22.0345230000000001
11
9.6998189999999997
21
-22.6059509999999975
0
LINE
8
LYELLOW
6
CONTINUOUS
10
9.6998189999999997
20
-22.3202369999999988
11
8.6998189999999997
21
-22.3202369999999988
0
LINE
8
LYELLOW
6
CONTINUOUS
10
8.6998189999999997
20
-22.3202369999999988
11
8.8426759999999991
21
-22.4154750000000007
0
LINE
8
LYELLOW
6
CONTINUOUS
10
8.8426759999999991
20
-22.4154750000000007
11
8.9379139999999992
21
-22.5107129999999991
0
LINE
8
LYELLOW
6
CONTINUOUS
10
8.9379139999999992
20
-22.5107129999999991
11
8.9855330000000002
21
-22.6059509999999975
0
LINE
8
LYELLOW
6
CONTINUOUS
10
9.0331519999999994
20
-21.1773799999999994
11
9.6998189999999997
21
-21.1773799999999994
0
LINE
8
LYELLOW
6
CONTINUOUS
10
8.6521999999999988
20
-21.4154750000000007
11
9.3664849999999991
21
-21.6535699999999984
0
LINE
8
LYELLOW
6
CONTINUOUS
10
9.3664849999999991
20
-21.6535699999999984
11
9.3664849999999991
21
-21.0345230000000001
0
LINE
8
LYELLOW
6
CONTINUOUS
10
16.812618999999998
20
-11.2848189999999988
11
16.812618999999998
21
-10.2848189999999988
0
LINE
8
LYELLOW
6
CONTINUOUS
10
17.2411899999999996
20
-10.380056999999999
11
17.2888090000000005
21
-10.3324379999999998
0
LINE
8
LYELLOW
6
CONTINUOUS
10
17.2888090000000005
20
-10.3324379999999998
11
17.3840469999999989
21
-10.2848189999999988
0
LINE
8
LYELLOW
6
CONTINUOUS
10
17.3840469999999989
20
-10.2848189999999988
11
17.6221420000000002
21
-10.2848189999999988
0
LINE
8
LYELLOW
6
CONTINUOUS
10
17.6221420000000002
20
-10.2848189999999988
11
17.7173799999999986
21
-10.3324379999999998
0
LINE
8
LYELLOW
6
CONTINUOUS
10
17.7173799999999986
20
-10.3324379999999998
11
17.7649989999999995
21
-10.380056999999999
0
LINE
8
LYELLOW
6
CONTINUOUS
10
17.7649989999999995
20
-10.380056999999999
11
17.8126180000000005
21
-10.4752949999999991
0
LINE
8
LYELLOW
6
CONTINUOUS
10
17.8126180000000005
20
-10.4752949999999991
11
17.8126180000000005
21
-10.5705329999999993
0
LINE
8
LYELLOW
6
CONTINUOUS
10
17.8126180000000005
20
-10.5705329999999993
11
17.7649989999999995
21
-10.7133899999999986
0
LINE
8
LYELLOW
6
CONTINUOUS
10
17.7649989999999995
20
-10.7133899999999986
11
17.1935709999999986
21
-11.2848189999999988
0
LINE
8
LYELLOW
6
CONTINUOUS
10
17.1935709999999986
20
-11.2848189999999988
11
17.8126180000000005
21
-11.2848189999999988
0
LINE
8
LYELLOW
6
CONTINUOUS
10
18.8126180000000005
20
-11.1895799999999994
11
18.7649989999999995
21
-11.2371999999999996
0
LINE
8
LYELLOW
6
CONTINUOUS
10
18.7649989999999995
20
-11.2371999999999996
11
18.6221420000000002
21
-11.2848189999999988
0
LINE
8
LYELLOW
6
CONTINUOUS
10
18.6221420000000002
20
-11.2848189999999988
11
18.5269039999999983
21
-11.2848189999999988
0
LINE
8
LYELLOW
6
CONTINUOUS
10
18.5269039999999983
20
-11.2848189999999988
11
18.3840469999999989
21
-11.2371999999999996
0
LINE
8
LYELLOW
6
CONTINUOUS
10
18.3840469999999989
20
-11.2371999999999996
11
18.2888090000000005
21
-11.1419610000000002
0
LINE
8
LYELLOW
6
CONTINUOUS
10
18.2888090000000005
20
-11.1419610000000002
11
18.2411899999999996
21
-11.0467230000000001
0
LINE
8
LYELLOW
6
CONTINUOUS
10
18.2411899999999996
20
-11.0467230000000001
11
18.1935709999999986
21
-10.8562469999999998
0
LINE
8
LYELLOW
6
CONTINUOUS
10
18.1935709999999986
20
-10.8562469999999998
11
18.1935709999999986
21
-10.7133899999999986
0
LINE
8
LYELLOW
6
CONTINUOUS
10
18.1935709999999986
20
-10.7133899999999986
11
18.2411899999999996
21
-10.5229140000000001
0
LINE
8
LYELLOW
6
CONTINUOUS
10
18.2411899999999996
20
-10.5229140000000001
11
18.2888090000000005
21
-10.4276759999999999
0
LINE
8
LYELLOW
6
CONTINUOUS
10
18.2888090000000005
20
-10.4276759999999999
11
18.3840469999999989
21
-10.3324379999999998
0
LINE
8
LYELLOW
6
CONTINUOUS
10
18.3840469999999989
20
-10.3324379999999998
11
18.5269039999999983
21
-10.2848189999999988
0
LINE
8
LYELLOW
6
CONTINUOUS
10
18.5269039999999983
20
-10.2848189999999988
11
18.6221420000000002
21
-10.2848189999999988
0
LINE
8
LYELLOW
6
CONTINUOUS
10
18.6221420000000002
20
-10.2848189999999988
11
18.7649989999999995
21
-10.3324379999999998
0
LINE
8
LYELLOW
6
CONTINUOUS
10
18.7649989999999995
20
-10.3324379999999998
11
18.8126180000000005
21
-10.380056999999999
0
LINE
8
LYELLOW
6
CONTINUOUS
10
19.6697609999999976
20
-10.6181520000000003
11
19.6697609999999976
21
-11.2848189999999988
0
LINE
8
LYELLOW
6
CONTINUOUS
10
19.4316659999999999
20
-10.2371999999999996
11
19.1935709999999986
21
-10.9514849999999999
0
LINE
8
LYELLOW
6
CONTINUOUS
10
19.1935709999999986
20
-10.9514849999999999
11
19.8126180000000005
21
-10.9514849999999999
0
LINE
8
LYELLOW
6
CONTINUOUS
10
4.9054760000000002
20
-45.9898189999999971
11
4.9054760000000002
21
-46.704104000000001
0
LINE
8
LYELLOW
6
CONTINUOUS
10
4.9054760000000002
20
-46.704104000000001
11
4.8578570000000001
21
-46.8469610000000003
0
LINE
8
LYELLOW
6
CONTINUOUS
10
4.8578570000000001
20
-46.8469610000000003
11
4.7626189999999999
21
-46.9421999999999997
0
LINE
8
LYELLOW
6
CONTINUOUS
10
4.7626189999999999
20
-46.9421999999999997
11
4.6197619999999997
21
-46.9898189999999971
0
LINE
8
LYELLOW
6
CONTINUOUS
10
4.6197619999999997
20
-46.9898189999999971
11
4.5245239999999995
21
-46.9898189999999971
0
LINE
8
LYELLOW
6
CONTINUOUS
10
5.9054760000000002
20
-46.9898189999999971
11
5.3340480000000001
21
-46.9898189999999971
0
LINE
8
LYELLOW
6
CONTINUOUS
10
5.6197619999999997
20
-46.9898189999999971
11
5.6197619999999997
21
-45.9898189999999971
0
LINE
8
LYELLOW
6
CONTINUOUS
10
5.6197619999999997
20
-45.9898189999999971
11
5.5245239999999995
21
-46.1326759999999965
0
LINE
8
LYELLOW
6
CONTINUOUS
10
5.5245239999999995
20
-46.1326759999999965
11
5.4292859999999994
21
-46.2279139999999984
0
LINE
8
LYELLOW
6
CONTINUOUS
10
5.4292859999999994
20
-46.2279139999999984
11
5.3340480000000001
21
-46.2755329999999958
0
LINE
8
LYELLOW
6
CONTINUOUS
10
6.7626189999999999
20
-45.9898189999999971
11
6.5721429999999996
21
-45.9898189999999971
0
LINE
8
LYELLOW
6
CONTINUOUS
10
6.5721429999999996
20
-45.9898189999999971
11
6.4769049999999995
21
-46.0374379999999945
0
LINE
8
LYELLOW
6
CONTINUOUS
10
6.4769049999999995
20
-46.0374379999999945
11
6.4292859999999994
21
-46.0850569999999991
0
LINE
8
LYELLOW
6
CONTINUOUS
10
6.4292859999999994
20
-46.0850569999999991
11
6.3340480000000001
21
-46.2279139999999984
0
LINE
8
LYELLOW
6
CONTINUOUS
10
6.3340480000000001
20
-46.2279139999999984
11
6.286429
21
-46.4183899999999952
0
LINE
8
LYELLOW
6
CONTINUOUS
10
6.286429
20
-46.4183899999999952
11
6.286429
21
-46.7993419999999958
0
LINE
8
LYELLOW
6
CONTINUOUS
10
6.286429
20
-46.7993419999999958
11
6.3340480000000001
21
-46.8945799999999977
0
LINE
8
LYELLOW
6
CONTINUOUS
10
6.3340480000000001
20
-46.8945799999999977
11
6.3816669999999993
21
-46.9421999999999997
0
LINE
8
LYELLOW
6
CONTINUOUS
10
6.3816669999999993
20
-46.9421999999999997
11
6.4769049999999995
21
-46.9898189999999971
0
LINE
8
LYELLOW
6
CONTINUOUS
10
6.4769049999999995
20
-46.9898189999999971
11
6.6673809999999998
21
-46.9898189999999971
0
LINE
8
LYELLOW
6
CONTINUOUS
10
6.6673809999999998
20
-46.9898189999999971
11
6.7626189999999999
21
-46.9421999999999997
0
LINE
8
LYELLOW
6
CONTINUOUS
10
6.7626189999999999
20
-46.9421999999999997
11
6.810238
21
-46.8945799999999977
0
LINE
8
LYELLOW
6
CONTINUOUS
10
6.810238
20
-46.8945799999999977
11
6.8578570000000001
21
-46.7993419999999958
0
LINE
8
LYELLOW
6
CONTINUOUS
10
6.8578570000000001
20
-46.7993419999999958
11
6.8578570000000001
21
-46.5612469999999945
0
LINE
8
LYELLOW
6
CONTINUOUS
10
6.8578570000000001
20
-46.5612469999999945
11
6.810238
21
-46.4660089999999997
0
LINE
8
LYELLOW
6
CONTINUOUS
10
6.810238
20
-46.4660089999999997
11
6.7626189999999999
21
-46.4183899999999952
0
LINE
8
LYELLOW
6
CONTINUOUS
10
6.7626189999999999
20
-46.4183899999999952
11
6.6673809999999998
21
-46.3707709999999977
0
LINE
8
LYELLOW
6
CONTINUOUS
10
6.6673809999999998
20
-46.3707709999999977
11
6.4769049999999995
21
-46.3707709999999977
0
LINE
8
LYELLOW
6
CONTINUOUS
10
6.4769049999999995
20
-46.3707709999999977
11
6.3816669999999993
21
-46.4183899999999952
0
LINE
8
LYELLOW
6
CONTINUOUS
10
6.3816669999999993
20
-46.4183899999999952
11
6.3340480000000001
21
-46.4660089999999997
0
LINE
8
LYELLOW
6
CONTINUOUS
10
6.3340480000000001
20
-46.4660089999999997
11
6.286429
21
-46.5612469999999945
0
LINE
8
LYELLOW
6
CONTINUOUS
10
29.5126189999999973
20
-11.2848189999999988
11
29.5126189999999973
21
-10.2848189999999988
0
LINE
8
LYELLOW
6
CONTINUOUS
10
29.9411899999999989
20
-10.380056999999999
11
29.9888089999999998
21
-10.3324379999999998
0
LINE
8
LYELLOW
6
CONTINUOUS
10
29.9888089999999998
20
-10.3324379999999998
11
30.0840469999999982
21
-10.2848189999999988
0
LINE
8
LYELLOW
6
CONTINUOUS
10
30.0840469999999982
20
-10.2848189999999988
11
30.3221419999999995
21
-10.2848189999999988
0
LINE
8
LYELLOW
6
CONTINUOUS
10
30.3221419999999995
20
-10.2848189999999988
11
30.4173799999999979
21
-10.3324379999999998
0
LINE
8
LYELLOW
6
CONTINUOUS
10
30.4173799999999979
20
-10.3324379999999998
11
30.4649989999999988
21
-10.380056999999999
0
LINE
8
LYELLOW
6
CONTINUOUS
10
30.4649989999999988
20
-10.380056999999999
11
30.5126179999999998
21
-10.4752949999999991
0
LINE
8
LYELLOW
6
CONTINUOUS
10
30.5126179999999998
20
-10.4752949999999991
11
30.5126179999999998
21
-10.5705329999999993
0
LINE
8
LYELLOW
6
CONTINUOUS
10
30.5126179999999998
20
-10.5705329999999993
11
30.4649989999999988
21
-10.7133899999999986
0
LINE
8
LYELLOW
6
CONTINUOUS
10
30.4649989999999988
20
-10.7133899999999986
11
29.8935709999999979
21
-11.2848189999999988
0
LINE
8
LYELLOW
6
CONTINUOUS
10
29.8935709999999979
20
-11.2848189999999988
11
30.5126179999999998
21
-11.2848189999999988
0
LINE
8
LYELLOW
6
CONTINUOUS
10
31.5126179999999998
20
-11.1895799999999994
11
31.4649989999999988
21
-11.2371999999999996
0
LINE
8
LYELLOW
6
CONTINUOUS
10
31.4649989999999988
20
-11.2371999999999996
11
31.3221419999999995
21
-11.2848189999999988
0
LINE
8
LYELLOW
6
CONTINUOUS
10
31.3221419999999995
20
-11.2848189999999988
11
31.2269039999999976
21
-11.2848189999999988
0
LINE
8
LYELLOW
6
CONTINUOUS
10
31.2269039999999976
20
-11.2848189999999988
11
31.0840469999999982
21
-11.2371999999999996
0
LINE
8
LYELLOW
6
CONTINUOUS
10
31.0840469999999982
20
-11.2371999999999996
11
30.9888089999999998
21
-11.1419610000000002
0
LINE
8
LYELLOW
6
CONTINUOUS
10
30.9888089999999998
20
-11.1419610000000002
11
30.9411899999999989
21
-11.0467230000000001
0
LINE
8
LYELLOW
6
CONTINUOUS
10
30.9411899999999989
20
-11.0467230000000001
11
30.8935709999999979
21
-10.8562469999999998
0
LINE
8
LYELLOW
6
CONTINUOUS
10
30.8935709999999979
20
-10.8562469999999998
11
30.8935709999999979
21
-10.7133899999999986
0
LINE
8
LYELLOW
6
CONTINUOUS
10
30.8935709999999979
20
-10.7133899999999986
11
30.9411899999999989
21
-10.5229140000000001
0
LINE
8
LYELLOW
6
CONTINUOUS
10
30.9411899999999989
20
-10.5229140000000001
11
30.9888089999999998
21
-10.4276759999999999
0
LINE
8
LYELLOW
6
CONTINUOUS
10
30.9888089999999998
20
-10.4276759999999999
11
31.0840469999999982
21
-10.3324379999999998
0
LINE
8
LYELLOW
6
CONTINUOUS
10
31.0840469999999982
20
-10.3324379999999998
11
31.2269039999999976
21
-10.2848189999999988
0
LINE
8
LYELLOW
6
CONTINUOUS
10
31.2269039999999976
20
-10.2848189999999988
11
31.3221419999999995
21
-10.2848189999999988
0
LINE
8
LYELLOW
6
CONTINUOUS
10
31.3221419999999995
20
-10.2848189999999988
11
31.4649989999999988
21
-10.3324379999999998
0
LINE
8
LYELLOW
6
CONTINUOUS
10
31.4649989999999988
20
-10.3324379999999998
11
31.5126179999999998
21
-10.380056999999999
0
LINE
8
LYELLOW
6
CONTINUOUS
10
32.4649989999999988
20
-11.2848189999999988
11
31.8935709999999979
21
-11.2848189999999988
0
LINE
8
LYELLOW
6
CONTINUOUS
10
32.1792850000000001
20
-11.2848189999999988
11
32.1792850000000001
21
-10.2848189999999988
0
LINE
8
LYELLOW
6
CONTINUOUS
10
32.1792850000000001
20
-10.2848189999999988
11
32.0840469999999982
21
-10.4276759999999999
0
LINE
8
LYELLOW
6
CONTINUOUS
10
32.0840469999999982
20
-10.4276759999999999
11
31.9888089999999998
21
-10.5229140000000001
0
LINE
8
LYELLOW
6
CONTINUOUS
10
31.9888089999999998
20
-10.5229140000000001
11
31.8935709999999979
21
-10.5705329999999993
0
LINE
8
LYELLOW
6
CONTINUOUS
10
38.6743389999999962
20
-50.9531399999999977
11
39.6743389999999962
21
-50.2864739999999983
0
LINE
8
LYELLOW
6
CONTINUOUS
10
38.6743389999999962
20
-50.2864739999999983
11
39.6743389999999962
21
-50.9531399999999977
0
LINE
8
LYELLOW
6
CONTINUOUS
10
38.7695769999999982
20
-49.9531399999999977
11
38.7219580000000008
21
-49.9055210000000002
0
LINE
8
LYELLOW
6
CONTINUOUS
10
38.7219580000000008
20
-49.9055210000000002
11
38.6743389999999962
21
-49.8102829999999983
0
LINE
8
LYELLOW
6
CONTINUOUS
10
38.6743389999999962
20
-49.8102829999999983
11
38.6743389999999962
21
-49.572187999999997
0
LINE
8
LYELLOW
6
CONTINUOUS
10
38.6743389999999962
20
-49.572187999999997
11
38.7219580000000008
21
-49.4769499999999951
0
LINE
8
LYELLOW
6
CONTINUOUS
10
38.7219580000000008
20
-49.4769499999999951
11
38.7695769999999982
21
-49.4293309999999977
0
LINE
8
LYELLOW
6
CONTINUOUS
10
38.7695769999999982
20
-49.4293309999999977
11
38.8648150000000001
21
-49.3817120000000003
0
LINE
8
LYELLOW
6
CONTINUOUS
10
38.8648150000000001
20
-49.3817120000000003
11
38.9600529999999949
21
-49.3817120000000003
0
LINE
8
LYELLOW
6
CONTINUOUS
10
38.9600529999999949
20
-49.3817120000000003
11
39.1029100000000014
21
-49.4293309999999977
0
LINE
8
LYELLOW
6
CONTINUOUS
10
39.1029100000000014
20
-49.4293309999999977
11
39.6743389999999962
21
-50.0007589999999951
0
LINE
8
LYELLOW
6
CONTINUOUS
10
39.6743389999999962
20
-50.0007589999999951
11
39.6743389999999962
21
-49.3817120000000003
0
LINE
8
LYELLOW
6
CONTINUOUS
10
10.964103999999999
20
-58.4992850000000004
11
10.964103999999999
21
-58.0230949999999979
0
LINE
8
LYELLOW
6
CONTINUOUS
10
11.2498189999999987
20
-58.5945229999999952
11
10.2498189999999987
21
-58.2611899999999991
0
LINE
8
LYELLOW
6
CONTINUOUS
10
10.2498189999999987
20
-58.2611899999999991
11
11.2498189999999987
21
-57.9278569999999959
0
LINE
8
LYELLOW
6
CONTINUOUS
10
10.2498189999999987
20
-57.6897609999999972
11
10.2498189999999987
21
-57.0707139999999953
0
LINE
8
LYELLOW
6
CONTINUOUS
10
10.2498189999999987
20
-57.0707139999999953
11
10.6307709999999993
21
-57.4040469999999985
0
LINE
8
LYELLOW
6
CONTINUOUS
10
10.6307709999999993
20
-57.4040469999999985
11
10.6307709999999993
21
-57.2611899999999991
0
LINE
8
LYELLOW
6
CONTINUOUS
10
10.6307709999999993
20
-57.2611899999999991
11
10.6783900000000003
21
-57.1659519999999972
0
LINE
8
LYELLOW
6
CONTINUOUS
10
10.6783900000000003
20
-57.1659519999999972
11
10.7260089999999995
21
-57.1183329999999998
0
LINE
8
LYELLOW
6
CONTINUOUS
10
10.7260089999999995
20
-57.1183329999999998
11
10.8212469999999996
21
-57.0707139999999953
0
LINE
8
LYELLOW
6
CONTINUOUS
10
10.8212469999999996
20
-57.0707139999999953
11
11.0593419999999991
21
-57.0707139999999953
0
LINE
8
LYELLOW
6
CONTINUOUS
10
11.0593419999999991
20
-57.0707139999999953
11
11.1545799999999993
21
-57.1183329999999998
0
LINE
8
LYELLOW
6
CONTINUOUS
10
11.1545799999999993
20
-57.1183329999999998
11
11.2021999999999995
21
-57.1659519999999972
0
LINE
8
LYELLOW
6
CONTINUOUS
10
11.2021999999999995
20
-57.1659519999999972
11
11.2498189999999987
21
-57.2611899999999991
0
LINE
8
LYELLOW
6
CONTINUOUS
10
11.2498189999999987
20
-57.2611899999999991
11
11.2498189999999987
21
-57.5469039999999978
0
LINE
8
LYELLOW
6
CONTINUOUS
10
11.2498189999999987
20
-57.5469039999999978
11
11.2021999999999995
21
-57.6421419999999998
0
LINE
8
LYELLOW
6
CONTINUOUS
10
11.2021999999999995
20
-57.6421419999999998
11
11.1545799999999993
21
-57.6897609999999972
0
LINE
8
LYELLOW
6
CONTINUOUS
10
23.3049999999999997
20
-1.3199999999999998
11
23.3049999999999997
21
-0.6699999999999999
0
LINE
8
LYELLOW
6
CONTINUOUS
10
23.3049999999999997
20
-5.3199999999999994
11
23.3049999999999997
21
-2.7399999999999998
0
LINE
8
LYELLOW
6
CONTINUOUS
10
23.3049999999999997
20
-9.3899999999999988
11
23.3049999999999997
21
-6.7399999999999993
0
LINE
8
LYELLOW
6
CONTINUOUS
10
25.9249999999999972
20
-0.6699999999999999
11
23.3049999999999997
21
-0.6699999999999999
0
LINE
8
LYELLOW
6
CONTINUOUS
10
25.9249999999999972
20
-3.3199999999999998
11
25.9249999999999972
21
-0.6699999999999999
0
LINE
8
LYELLOW
6
CONTINUOUS
10
25.9249999999999972
20
-7.3199999999999994
11
25.9249999999999972
21
-4.7400000000000002
0
LINE
8
LYELLOW
6
CONTINUOUS
10
25.9249999999999972
20
-9.3899999999999988
11
23.3049999999999997
21
-9.3899999999999988
0
LINE
8
LYELLOW
6
CONTINUOUS
10
25.9249999999999972
20
-9.3899999999999988
11
25.9249999999999972
21
-8.7400000000000002
0
LINE
8
LYELLOW
6
CONTINUOUS
10
27.1549999999999976
20
-8.7400000000000002
11
25.9249999999999972
21
-8.7400000000000002
0
LINE
8
LYELLOW
6
CONTINUOUS
10
42.39452
20
-24.1136169999999979
11
43.6245199999999969
21
-24.1136169999999979
0
LINE
8
LYELLOW
6
CONTINUOUS
10
43.6245199999999969
20
-23.4636169999999993
11
43.6245199999999969
21
-24.1136169999999979
0
LINE
8
LYELLOW
6
CONTINUOUS
10
43.6245199999999969
20
-23.4636169999999993
11
46.2445200000000014
21
-23.4636169999999993
0
LINE
8
LYELLOW
6
CONTINUOUS
10
43.6245199999999969
20
-25.5336169999999996
11
43.6245199999999969
21
-28.1136169999999979
0
LINE
8
LYELLOW
6
CONTINUOUS
10
43.6245199999999969
20
-29.5336169999999996
11
43.6245199999999969
21
-32.1136169999999979
0
LINE
8
LYELLOW
6
CONTINUOUS
10
43.6245199999999969
20
-33.5336169999999996
11
43.6245199999999969
21
-36.1836169999999981
0
LINE
8
LYELLOW
6
CONTINUOUS
10
43.6245199999999969
20
-36.1836169999999981
11
46.2445200000000014
21
-36.1836169999999981
0
LINE
8
LYELLOW
6
CONTINUOUS
10
46.2445200000000014
20
-23.4636169999999993
11
46.2445200000000014
21
-26.1136169999999979
0
LINE
8
LYELLOW
6
CONTINUOUS
10
46.2445200000000014
20
-27.5336169999999996
11
46.2445200000000014
21
-30.1136169999999979
0
LINE
8
LYELLOW
6
CONTINUOUS
10
46.2445200000000014
20
-31.5336169999999996
11
46.2445200000000014
21
-34.1136169999999979
0
LINE
8
LYELLOW
6
CONTINUOUS
10
46.2445200000000014
20
-35.5336169999999996
11
46.2445200000000014
21
-36.1836169999999981
0
LINE
8
LYELLOW
6
CONTINUOUS
10
11.1760000000000002
20
-10.7949999999999999
11
37.2109999999999985
21
-10.7949999999999999
0
LINE
8
LYELLOW
6
CONTINUOUS
10
37.2109999999999985
20
-10.7949999999999999
11
37.2109999999999985
21
-62.2299999999999969
0
LINE
8
LYELLOW
6
CONTINUOUS
10
37.2109999999999985
20
-62.2299999999999969
11
11.1760000000000002
21
-62.2299999999999969
0
LINE
8
LYELLOW
6
CONTINUOUS
10
11.1760000000000002
20
-62.2299999999999969
11
11.1760000000000002
21
-10.7949999999999999
0
LINE
8
LYELLOW
6
CONTINUOUS
10
20.0659999999999989
20
-62.1029999999999944
11
29.9719999999999978
21
-62.1029999999999944
0
LINE
8
LYELLOW
6
CONTINUOUS
10
29.9719999999999978
20
-62.1029999999999944
11
29.9719999999999978
21
-64.8969999999999914
0
LINE
8
LYELLOW
6
CONTINUOUS
10
29.9719999999999978
20
-64.8969999999999914
11
20.0659999999999989
21
-64.8969999999999914
0
LINE
8
LYELLOW
6
CONTINUOUS
10
20.0659999999999989
20
-64.8969999999999914
11
20.0659999999999989
21
-62.1029999999999944
0
LINE
8
LYELLOW
6
CONTINUOUS
10
1.085
20
-27.264999999999997
11
1.085
21
-29.884999999999998
0
LINE
8
LYELLOW
6
CONTINUOUS
10
1.7349999999999999
20
-27.264999999999997
11
1.085
21
-27.264999999999997
0
LINE
8
LYELLOW
6
CONTINUOUS
10
3.7349999999999999
20
-29.884999999999998
11
1.085
21
-29.884999999999998
0
LINE
8
LYELLOW
6
CONTINUOUS
10
5.7349999999999994
20
-27.264999999999997
11
3.1549999999999998
21
-27.264999999999997
0
LINE
8
LYELLOW
6
CONTINUOUS
10
7.1549999999999994
20
-26.0350000000000001
11
7.1549999999999994
21
-27.264999999999997
0
LINE
8
LYELLOW
6
CONTINUOUS
10
7.8049999999999997
20
-27.264999999999997
11
7.1549999999999994
21
-27.264999999999997
0
LINE
8
LYELLOW
6
CONTINUOUS
10
7.8049999999999997
20
-27.264999999999997
11
7.8049999999999997
21
-29.884999999999998
0
LINE
8
LYELLOW
6
CONTINUOUS
10
7.8049999999999997
20
-29.884999999999998
11
5.1549999999999994
21
-29.884999999999998
0
LINE
8
LYELLOW
6
CONTINUOUS
10
1.085
20
-63.1299999999999955
11
1.085
21
-65.75
0
LINE
8
LYELLOW
6
CONTINUOUS
10
1.7349999999999999
20
-65.75
11
1.085
21
-65.75
0
LINE
8
LYELLOW
6
CONTINUOUS
10
3.7349999999999999
20
-63.1299999999999955
11
1.085
21
-63.1299999999999955
0
LINE
8
LYELLOW
6
CONTINUOUS
10
5.7349999999999994
20
-65.75
11
3.1549999999999998
21
-65.75
0
LINE
8
LYELLOW
6
CONTINUOUS
10
7.1549999999999994
20
-65.75
11
7.1549999999999994
21
-66.980000000000004
0
LINE
8
LYELLOW
6
CONTINUOUS
10
7.8049999999999997
20
-63.1299999999999955
11
5.1549999999999994
21
-63.1299999999999955
0
LINE
8
LYELLOW
6
CONTINUOUS
10
7.8049999999999997
20
-63.1299999999999955
11
7.8049999999999997
21
-65.75
0
LINE
8
LYELLOW
6
CONTINUOUS
10
7.8049999999999997
20
-65.75
11
7.1549999999999994
21
-65.75
0
LINE
8
LYELLOW
6
CONTINUOUS
10
41.5745199999999997
20
-55.1836169999999981
11
44.2245199999999983
21
-55.1836169999999981
0
LINE
8
LYELLOW
6
CONTINUOUS
10
41.5745199999999997
20
-57.8036169999999956
11
41.5745199999999997
21
-55.1836169999999981
0
LINE
8
LYELLOW
6
CONTINUOUS
10
41.5745199999999997
20
-57.8036169999999956
11
42.2245199999999983
21
-57.8036169999999956
0
LINE
8
LYELLOW
6
CONTINUOUS
10
42.2245199999999983
20
-59.0336169999999996
11
42.2245199999999983
21
-57.8036169999999956
0
LINE
8
LYELLOW
6
CONTINUOUS
10
43.64452
20
-57.8036169999999956
11
46.2245199999999983
21
-57.8036169999999956
0
LINE
8
LYELLOW
6
CONTINUOUS
10
45.64452
20
-55.1836169999999981
11
48.2945199999999986
21
-55.1836169999999981
0
LINE
8
LYELLOW
6
CONTINUOUS
10
47.64452
20
-57.8036169999999956
11
48.2945199999999986
21
-57.8036169999999956
0
LINE
8
LYELLOW
6
CONTINUOUS
10
48.2945199999999986
20
-57.8036169999999956
11
48.2945199999999986
21
-55.1836169999999981
0
LINE
8
LYELLOW
6
CONTINUOUS
10
1.085
20
-50.4299999999999997
11
1.085
21
-53.0499999999999972
0
LINE
8
LYELLOW
6
CONTINUOUS
10
1.7349999999999999
20
-53.0499999999999972
11
1.085
21
-53.0499999999999972
0
LINE
8
LYELLOW
6
CONTINUOUS
10
3.7349999999999999
20
-50.4299999999999997
11
1.085
21
-50.4299999999999997
0
LINE
8
LYELLOW
6
CONTINUOUS
10
5.7349999999999994
20
-53.0499999999999972
11
3.1549999999999998
21
-53.0499999999999972
0
LINE
8
LYELLOW
6
CONTINUOUS
10
7.1549999999999994
20
-53.0499999999999972
11
7.1549999999999994
21
-54.279999999999994
0
LINE
8
LYELLOW
6
CONTINUOUS
10
7.8049999999999997
20
-50.4299999999999997
11
5.1549999999999994
21
-50.4299999999999997
0
LINE
8
LYELLOW
6
CONTINUOUS
10
7.8049999999999997
20
-50.4299999999999997
11
7.8049999999999997
21
-53.0499999999999972
0
LINE
8
LYELLOW
6
CONTINUOUS
10
7.8049999999999997
20
-53.0499999999999972
11
7.1549999999999994
21
-53.0499999999999972
0
LINE
8
LYELLOW
6
CONTINUOUS
10
41.5745199999999997
20
-42.4836169999999953
11
44.2245199999999983
21
-42.4836169999999953
0
LINE
8
LYELLOW
6
CONTINUOUS
10
41.5745199999999997
20
-45.1036169999999998
11
41.5745199999999997
21
-42.4836169999999953
0
LINE
8
LYELLOW
6
CONTINUOUS
10
41.5745199999999997
20
-45.1036169999999998
11
42.2245199999999983
21
-45.1036169999999998
0
LINE
8
LYELLOW
6
CONTINUOUS
10
42.2245199999999983
20
-46.3336169999999967
11
42.2245199999999983
21
-45.1036169999999998
0
LINE
8
LYELLOW
6
CONTINUOUS
10
43.64452
20
-45.1036169999999998
11
46.2245199999999983
21
-45.1036169999999998
0
LINE
8
LYELLOW
6
CONTINUOUS
10
45.64452
20
-42.4836169999999953
11
48.2945199999999986
21
-42.4836169999999953
0
LINE
8
LYELLOW
6
CONTINUOUS
10
47.64452
20
-45.1036169999999998
11
48.2945199999999986
21
-45.1036169999999998
0
LINE
8
LYELLOW
6
CONTINUOUS
10
48.2945199999999986
20
-45.1036169999999998
11
48.2945199999999986
21
-42.4836169999999953
0
LINE
8
LYELLOW
6
CONTINUOUS
10
43.6245199999999969
20
-14.0486170000000001
11
43.6245199999999969
21
-13.3986169999999998
0
LINE
8
LYELLOW
6
CONTINUOUS
10
43.6245199999999969
20
-18.0486170000000001
11
43.6245199999999969
21
-15.4686170000000001
0
LINE
8
LYELLOW
6
CONTINUOUS
10
43.6245199999999969
20
-22.1186170000000004
11
43.6245199999999969
21
-19.4686169999999983
0
LINE
8
LYELLOW
6
CONTINUOUS
10
46.2445200000000014
20
-13.3986169999999998
11
43.6245199999999969
21
-13.3986169999999998
0
LINE
8
LYELLOW
6
CONTINUOUS
10
46.2445200000000014
20
-16.0486170000000001
11
46.2445200000000014
21
-13.3986169999999998
0
LINE
8
LYELLOW
6
CONTINUOUS
10
46.2445200000000014
20
-20.0486170000000001
11
46.2445200000000014
21
-17.4686169999999983
0
LINE
8
LYELLOW
6
CONTINUOUS
10
46.2445200000000014
20
-22.1186170000000004
11
43.6245199999999969
21
-22.1186170000000004
0
LINE
8
LYELLOW
6
CONTINUOUS
10
46.2445200000000014
20
-22.1186170000000004
11
46.2445200000000014
21
-21.4686169999999983
0
LINE
8
LYELLOW
6
CONTINUOUS
10
47.4745199999999983
20
-21.4686169999999983
11
46.2445200000000014
21
-21.4686169999999983
0
LINE
8
LYELLOW
6
CONTINUOUS
10
10.6049999999999986
20
-1.3199999999999998
11
10.6049999999999986
21
-0.6699999999999999
0
LINE
8
LYELLOW
6
CONTINUOUS
10
10.6049999999999986
20
-5.3199999999999994
11
10.6049999999999986
21
-2.7399999999999998
0
LINE
8
LYELLOW
6
CONTINUOUS
10
10.6049999999999986
20
-9.3899999999999988
11
10.6049999999999986
21
-6.7399999999999993
0
LINE
8
LYELLOW
6
CONTINUOUS
10
13.2249999999999996
20
-0.6699999999999999
11
10.6049999999999986
21
-0.6699999999999999
0
LINE
8
LYELLOW
6
CONTINUOUS
10
13.2249999999999996
20
-3.3199999999999998
11
13.2249999999999996
21
-0.6699999999999999
0
LINE
8
LYELLOW
6
CONTINUOUS
10
13.2249999999999996
20
-7.3199999999999994
11
13.2249999999999996
21
-4.7400000000000002
0
LINE
8
LYELLOW
6
CONTINUOUS
10
13.2249999999999996
20
-9.3899999999999988
11
10.6049999999999986
21
-9.3899999999999988
0
LINE
8
LYELLOW
6
CONTINUOUS
10
13.2249999999999996
20
-9.3899999999999988
11
13.2249999999999996
21
-8.7400000000000002
0
LINE
8
LYELLOW
6
CONTINUOUS
10
14.4550000000000001
20
-8.7400000000000002
11
13.2249999999999996
21
-8.7400000000000002
0
LINE
8
LYELLOW
6
CONTINUOUS
10
1.085
20
-20.9149999999999991
11
1.085
21
-23.5350000000000001
0
LINE
8
LYELLOW
6
CONTINUOUS
10
1.7349999999999999
20
-20.9149999999999991
11
1.085
21
-20.9149999999999991
0
LINE
8
LYELLOW
6
CONTINUOUS
10
3.7349999999999999
20
-23.5350000000000001
11
1.085
21
-23.5350000000000001
0
LINE
8
LYELLOW
6
CONTINUOUS
10
5.7349999999999994
20
-20.9149999999999991
11
3.1549999999999998
21
-20.9149999999999991
0
LINE
8
LYELLOW
6
CONTINUOUS
10
7.1549999999999994
20
-19.6849999999999987
11
7.1549999999999994
21
-20.9149999999999991
0
LINE
8
LYELLOW
6
CONTINUOUS
10
7.8049999999999997
20
-20.9149999999999991
11
7.1549999999999994
21
-20.9149999999999991
0
LINE
8
LYELLOW
6
CONTINUOUS
10
7.8049999999999997
20
-20.9149999999999991
11
7.8049999999999997
21
-23.5350000000000001
0
LINE
8
LYELLOW
6
CONTINUOUS
10
7.8049999999999997
20
-23.5350000000000001
11
5.1549999999999994
21
-23.5350000000000001
0
LINE
8
LYELLOW
6
CONTINUOUS
10
16.9549999999999983
20
-1.3199999999999998
11
16.9549999999999983
21
-0.6699999999999999
0
LINE
8
LYELLOW
6
CONTINUOUS
10
16.9549999999999983
20
-5.3199999999999994
11
16.9549999999999983
21
-2.7399999999999998
0
LINE
8
LYELLOW
6
CONTINUOUS
10
16.9549999999999983
20
-9.3899999999999988
11
16.9549999999999983
21
-6.7399999999999993
0
LINE
8
LYELLOW
6
CONTINUOUS
10
19.5749999999999993
20
-0.6699999999999999
11
16.9549999999999983
21
-0.6699999999999999
0
LINE
8
LYELLOW
6
CONTINUOUS
10
19.5749999999999993
20
-3.3199999999999998
11
19.5749999999999993
21
-0.6699999999999999
0
LINE
8
LYELLOW
6
CONTINUOUS
10
19.5749999999999993
20
-7.3199999999999994
11
19.5749999999999993
21
-4.7400000000000002
0
LINE
8
LYELLOW
6
CONTINUOUS
10
19.5749999999999993
20
-9.3899999999999988
11
16.9549999999999983
21
-9.3899999999999988
0
LINE
8
LYELLOW
6
CONTINUOUS
10
19.5749999999999993
20
-9.3899999999999988
11
19.5749999999999993
21
-8.7400000000000002
0
LINE
8
LYELLOW
6
CONTINUOUS
10
20.8049999999999997
20
-8.7400000000000002
11
19.5749999999999993
21
-8.7400000000000002
0
LINE
8
LYELLOW
6
CONTINUOUS
10
4.4049999999999994
20
-33.0249999999999986
11
4.4049999999999994
21
-32.375
0
LINE
8
LYELLOW
6
CONTINUOUS
10
4.4049999999999994
20
-37.0249999999999986
11
4.4049999999999994
21
-34.4450000000000003
0
LINE
8
LYELLOW
6
CONTINUOUS
10
4.4049999999999994
20
-41.0249999999999986
11
4.4049999999999994
21
-38.4450000000000003
0
LINE
8
LYELLOW
6
CONTINUOUS
10
4.4049999999999994
20
-45.0949999999999989
11
4.4049999999999994
21
-42.4450000000000003
0
LINE
8
LYELLOW
6
CONTINUOUS
10
7.0249999999999995
20
-32.375
11
4.4049999999999994
21
-32.375
0
LINE
8
LYELLOW
6
CONTINUOUS
10
7.0249999999999995
20
-35.0249999999999986
11
7.0249999999999995
21
-32.375
0
LINE
8
LYELLOW
6
CONTINUOUS
10
7.0249999999999995
20
-39.0249999999999986
11
7.0249999999999995
21
-36.4450000000000003
0
LINE
8
LYELLOW
6
CONTINUOUS
10
7.0249999999999995
20
-43.0249999999999986
11
7.0249999999999995
21
-40.4450000000000003
0
LINE
8
LYELLOW
6
CONTINUOUS
10
7.0249999999999995
20
-45.0949999999999989
11
4.4049999999999994
21
-45.0949999999999989
0
LINE
8
LYELLOW
6
CONTINUOUS
10
7.0249999999999995
20
-45.0949999999999989
11
7.0249999999999995
21
-44.4450000000000003
0
LINE
8
LYELLOW
6
CONTINUOUS
10
8.254999999999999
20
-44.4450000000000003
11
7.0249999999999995
21
-44.4450000000000003
0
LINE
8
LYELLOW
6
CONTINUOUS
10
29.6549999999999976
20
-1.3199999999999998
11
29.6549999999999976
21
-0.6699999999999999
0
LINE
8
LYELLOW
6
CONTINUOUS
10
29.6549999999999976
20
-5.3199999999999994
11
29.6549999999999976
21
-2.7399999999999998
0
LINE
8
LYELLOW
6
CONTINUOUS
10
29.6549999999999976
20
-9.3899999999999988
11
29.6549999999999976
21
-6.7399999999999993
0
LINE
8
LYELLOW
6
CONTINUOUS
10
32.2749999999999986
20
-0.6699999999999999
11
29.6549999999999976
21
-0.6699999999999999
0
LINE
8
LYELLOW
6
CONTINUOUS
10
32.2749999999999986
20
-3.3199999999999998
11
32.2749999999999986
21
-0.6699999999999999
0
LINE
8
LYELLOW
6
CONTINUOUS
10
32.2749999999999986
20
-7.3199999999999994
11
32.2749999999999986
21
-4.7400000000000002
0
LINE
8
LYELLOW
6
CONTINUOUS
10
32.2749999999999986
20
-9.3899999999999988
11
29.6549999999999976
21
-9.3899999999999988
0
LINE
8
LYELLOW
6
CONTINUOUS
10
32.2749999999999986
20
-9.3899999999999988
11
32.2749999999999986
21
-8.7400000000000002
0
LINE
8
LYELLOW
6
CONTINUOUS
10
33.5049999999999955
20
-8.7400000000000002
11
32.2749999999999986
21
-8.7400000000000002
0
LINE
8
LYELLOW
6
CONTINUOUS
10
41.5745199999999997
20
-48.8336169999999967
11
44.2245199999999983
21
-48.8336169999999967
0
LINE
8
LYELLOW
6
CONTINUOUS
10
41.5745199999999997
20
-51.4536169999999942
11
41.5745199999999997
21
-48.8336169999999967
0
LINE
8
LYELLOW
6
CONTINUOUS
10
41.5745199999999997
20
-51.4536169999999942
11
42.2245199999999983
21
-51.4536169999999942
0
LINE
8
LYELLOW
6
CONTINUOUS
10
42.2245199999999983
20
-52.6836169999999981
11
42.2245199999999983
21
-51.4536169999999942
0
LINE
8
LYELLOW
6
CONTINUOUS
10
43.64452
20
-51.4536169999999942
11
46.2245199999999983
21
-51.4536169999999942
0
LINE
8
LYELLOW
6
CONTINUOUS
10
45.64452
20
-48.8336169999999967
11
48.2945199999999986
21
-48.8336169999999967
0
LINE
8
LYELLOW
6
CONTINUOUS
10
47.64452
20
-51.4536169999999942
11
48.2945199999999986
21
-51.4536169999999942
0
LINE
8
LYELLOW
6
CONTINUOUS
10
48.2945199999999986
20
-51.4536169999999942
11
48.2945199999999986
21
-48.8336169999999967
0
LINE
8
LYELLOW
6
CONTINUOUS
10
1.085
20
-56.779999999999994
11
1.085
21
-59.3999999999999986
0
LINE
8
LYELLOW
6
CONTINUOUS
10
1.7349999999999999
20
-59.3999999999999986
11
1.085
21
-59.3999999999999986
0
LINE
8
LYELLOW
6
CONTINUOUS
10
3.7349999999999999
20
-56.779999999999994
11
1.085
21
-56.779999999999994
0
LINE
8
LYELLOW
6
CONTINUOUS
10
5.7349999999999994
20
-59.3999999999999986
11
3.1549999999999998
21
-59.3999999999999986
0
LINE
8
LYELLOW
6
CONTINUOUS
10
7.1549999999999994
20
-59.3999999999999986
11
7.1549999999999994
21
-60.6299999999999955
0
LINE
8
LYELLOW
6
CONTINUOUS
10
7.8049999999999997
20
-56.779999999999994
11
5.1549999999999994
21
-56.779999999999994
0
LINE
8
LYELLOW
6
CONTINUOUS
10
7.8049999999999997
20
-56.779999999999994
11
7.8049999999999997
21
-59.3999999999999986
0
LINE
8
LYELLOW
6
CONTINUOUS
10
7.8049999999999997
20
-59.3999999999999986
11
7.1549999999999994
21
-59.3999999999999986
  0
ENDSEC
  0
EOF
