  0
SECTION
  2
HEADER
  9
$ANGBASE
  50
0.0
  9
$ANGDIR
  70
1
  9
$MEASUREMENT
  70
1
  0
ENDSEC
  0
SECTION
  2
TABLES
  0
TABLE
  2
LTYPE
  70
4
  0
LTYPE
  5
40F
  2
CONTINUOUS
  70
0
  3
Solid line
  72
65
  73
0
  40
0.0
  0
LTYPE
  5
410
  2
DASHDOT
 70
0
  3
Dash Dot ____ _ ____ _
 72
65
 73
4
 40
2.0
 49
1.25
 49
-0.25
 49
0.25
 49
-0.25
  0
LTYPE
  5
411
  2
DASHED
 70
0
  3
Dashed __ __ __ __ __
 72
65
 73
2
 40
0.75
 49
0.5
 49
-0.25
  0
LTYPE
  5
43B
  2
DOTTED
 70
0
  3
Dotted .  .  .  .
 72
65
 73
2
 40
0.2
 49
0.0
 49
-0.2
  0
ENDTAB
  0
TABLE
  2
STYLE
  70
4
  0
STYLE
  2
KICAD
  70
0
  40
0
  41
1
  42
1
  50
0
  71
0
  3
isocp.shx
  0
STYLE
  2
KICADB
  70
0
  40
0
  41
1
  42
1
  50
0
  71
0
  3
isocp.shx
  0
STYLE
  2
KICADI
  70
0
  40
0
  41
1
  42
1
  50
15
  71
0
  3
isocp.shx
  0
STYLE
  2
KICADBI
  70
0
  40
0
  41
1
  42
1
  50
15
  71
0
  3
isocp.shx
  0
ENDTAB
  0
TABLE
  2
LAYER
  70
35
  0
LAYER
  2
BLACK
  70
0
  62
7
  6
CONTINUOUS
  0
LAYER
  2
GRAY1
  70
0
  62
251
  6
CONTINUOUS
  0
LAYER
  2
GRAY2
  70
0
  62
8
  6
CONTINUOUS
  0
LAYER
  2
GRAY3
  70
0
  62
9
  6
CONTINUOUS
  0
LAYER
  2
WHITE
  70
0
  62
7
  6
CONTINUOUS
  0
LAYER
  2
LYELLOW
  70
0
  62
51
  6
CONTINUOUS
  0
LAYER
  2
LORANGE
  70
0
  62
41
  6
CONTINUOUS
  0
LAYER
  2
BLUE1
  70
0
  62
178
  6
CONTINUOUS
  0
LAYER
  2
GREEN1
  70
0
  62
98
  6
CONTINUOUS
  0
LAYER
  2
CYAN1
  70
0
  62
138
  6
CONTINUOUS
  0
LAYER
  2
RED1
  70
0
  62
18
  6
CONTINUOUS
  0
LAYER
  2
MAGENTA1
  70
0
  62
228
  6
CONTINUOUS
  0
LAYER
  2
BROWN1
  70
0
  62
58
  6
CONTINUOUS
  0
LAYER
  2
ORANGE1
  70
0
  62
34
  6
CONTINUOUS
  0
LAYER
  2
BLUE2
  70
0
  62
5
  6
CONTINUOUS
  0
LAYER
  2
GREEN2
  70
0
  62
3
  6
CONTINUOUS
  0
LAYER
  2
CYAN2
  70
0
  62
4
  6
CONTINUOUS
  0
LAYER
  2
RED2
  70
0
  62
1
  6
CONTINUOUS
  0
LAYER
  2
MAGENTA2
  70
0
  62
6
  6
CONTINUOUS
  0
LAYER
  2
BROWN2
  70
0
  62
54
  6
CONTINUOUS
  0
LAYER
  2
ORANGE2
  70
0
  62
42
  6
CONTINUOUS
  0
LAYER
  2
BLUE3
  70
0
  62
171
  6
CONTINUOUS
  0
LAYER
  2
GREEN3
  70
0
  62
91
  6
CONTINUOUS
  0
LAYER
  2
CYAN3
  70
0
  62
131
  6
CONTINUOUS
  0
LAYER
  2
RED3
  70
0
  62
11
  6
CONTINUOUS
  0
LAYER
  2
MAGENTA3
  70
0
  62
221
  6
CONTINUOUS
  0
LAYER
  2
YELLOW3
  70
0
  62
2
  6
CONTINUOUS
  0
LAYER
  2
ORANGE3
  70
0
  62
32
  6
CONTINUOUS
  0
LAYER
  2
BLUE4
  70
0
  62
5
  6
CONTINUOUS
  0
LAYER
  2
GREEN4
  70
0
  62
3
  6
CONTINUOUS
  0
LAYER
  2
CYAN4
  70
0
  62
4
  6
CONTINUOUS
  0
LAYER
  2
RED4
  70
0
  62
1
  6
CONTINUOUS
  0
LAYER
  2
MAGENTA4
  70
0
  62
6
  6
CONTINUOUS
  0
LAYER
  2
YELLOW4
  70
0
  62
2
  6
CONTINUOUS
  0
LAYER
  2
ORANGE4
  70
0
  62
40
  6
CONTINUOUS
  0
ENDTAB
  0
ENDSEC
  0
SECTION
  2
ENTITIES
0
LINE
8
GRAY3
6
CONTINUOUS
10
8.3448189999999993
20
-14.3033329999999985
11
9.0591039999999996
21
-14.3033329999999985
0
LINE
8
GRAY3
6
CONTINUOUS
10
9.0591039999999996
20
-14.3033329999999985
11
9.2019609999999989
21
-14.3509519999999995
0
LINE
8
GRAY3
6
CONTINUOUS
10
9.2019609999999989
20
-14.3509519999999995
11
9.2972000000000001
21
-14.4461899999999996
0
LINE
8
GRAY3
6
CONTINUOUS
10
9.2972000000000001
20
-14.4461899999999996
11
9.3448189999999993
21
-14.589046999999999
0
LINE
8
GRAY3
6
CONTINUOUS
10
9.3448189999999993
20
-14.589046999999999
11
9.3448189999999993
21
-14.6842849999999991
0
LINE
8
GRAY3
6
CONTINUOUS
10
9.3448189999999993
20
-13.3033329999999985
11
9.3448189999999993
21
-13.8747609999999995
0
LINE
8
GRAY3
6
CONTINUOUS
10
9.3448189999999993
20
-13.589046999999999
11
8.3448189999999993
21
-13.589046999999999
0
LINE
8
GRAY3
6
CONTINUOUS
10
8.3448189999999993
20
-13.589046999999999
11
8.4876760000000004
21
-13.6842849999999991
0
LINE
8
GRAY3
6
CONTINUOUS
10
8.4876760000000004
20
-13.6842849999999991
11
8.5829139999999988
21
-13.7795229999999993
0
LINE
8
GRAY3
6
CONTINUOUS
10
8.5829139999999988
20
-13.7795229999999993
11
8.6305329999999998
21
-13.8747609999999995
0
LINE
8
GRAY3
6
CONTINUOUS
10
13.4248189999999994
20
-16.8433329999999977
11
14.1391039999999997
21
-16.8433329999999977
0
LINE
8
GRAY3
6
CONTINUOUS
10
14.1391039999999997
20
-16.8433329999999977
11
14.281960999999999
21
-16.8909519999999986
0
LINE
8
GRAY3
6
CONTINUOUS
10
14.281960999999999
20
-16.8909519999999986
11
14.3772000000000002
21
-16.9861900000000006
0
LINE
8
GRAY3
6
CONTINUOUS
10
14.3772000000000002
20
-16.9861900000000006
11
14.4248189999999994
21
-17.1290469999999999
0
LINE
8
GRAY3
6
CONTINUOUS
10
14.4248189999999994
20
-17.1290469999999999
11
14.4248189999999994
21
-17.2242849999999983
0
LINE
8
GRAY3
6
CONTINUOUS
10
13.5200569999999995
20
-16.4147609999999986
11
13.4724379999999986
21
-16.3671419999999976
0
LINE
8
GRAY3
6
CONTINUOUS
10
13.4724379999999986
20
-16.3671419999999976
11
13.4248189999999994
21
-16.2719039999999993
0
LINE
8
GRAY3
6
CONTINUOUS
10
13.4248189999999994
20
-16.2719039999999993
11
13.4248189999999994
21
-16.033808999999998
0
LINE
8
GRAY3
6
CONTINUOUS
10
13.4248189999999994
20
-16.033808999999998
11
13.4724379999999986
21
-15.9385709999999996
0
LINE
8
GRAY3
6
CONTINUOUS
10
13.4724379999999986
20
-15.9385709999999996
11
13.5200569999999995
21
-15.8909519999999986
0
LINE
8
GRAY3
6
CONTINUOUS
10
13.5200569999999995
20
-15.8909519999999986
11
13.6152949999999997
21
-15.8433329999999994
0
LINE
8
GRAY3
6
CONTINUOUS
10
13.6152949999999997
20
-15.8433329999999994
11
13.7105329999999999
21
-15.8433329999999994
0
LINE
8
GRAY3
6
CONTINUOUS
10
13.7105329999999999
20
-15.8433329999999994
11
13.8533899999999992
21
-15.8909519999999986
0
LINE
8
GRAY3
6
CONTINUOUS
10
13.8533899999999992
20
-15.8909519999999986
11
14.4248189999999994
21
-16.4623799999999996
0
LINE
8
GRAY3
6
CONTINUOUS
10
14.4248189999999994
20
-16.4623799999999996
11
14.4248189999999994
21
-15.8433329999999994
0
LINE
8
GRAY3
6
CONTINUOUS
10
4.7466659999999994
20
-4.5348189999999997
11
4.7466659999999994
21
-5.249104
0
LINE
8
GRAY3
6
CONTINUOUS
10
4.7466659999999994
20
-5.249104
11
4.6990470000000002
21
-5.3919609999999993
0
LINE
8
GRAY3
6
CONTINUOUS
10
4.6990470000000002
20
-5.3919609999999993
11
4.603809
21
-5.4871999999999996
0
LINE
8
GRAY3
6
CONTINUOUS
10
4.603809
20
-5.4871999999999996
11
4.4609519999999998
21
-5.5348189999999997
0
LINE
8
GRAY3
6
CONTINUOUS
10
4.4609519999999998
20
-5.5348189999999997
11
4.3657139999999997
21
-5.5348189999999997
0
LINE
8
GRAY3
6
CONTINUOUS
10
5.1276190000000001
20
-4.5348189999999997
11
5.7466659999999994
21
-4.5348189999999997
0
LINE
8
GRAY3
6
CONTINUOUS
10
5.7466659999999994
20
-4.5348189999999997
11
5.4133329999999997
21
-4.9157709999999994
0
LINE
8
GRAY3
6
CONTINUOUS
10
5.4133329999999997
20
-4.9157709999999994
11
5.55619
21
-4.9157709999999994
0
LINE
8
GRAY3
6
CONTINUOUS
10
5.55619
20
-4.9157709999999994
11
5.6514280000000001
21
-4.9633899999999995
0
LINE
8
GRAY3
6
CONTINUOUS
10
5.6514280000000001
20
-4.9633899999999995
11
5.6990469999999993
21
-5.0110089999999996
0
LINE
8
GRAY3
6
CONTINUOUS
10
5.6990469999999993
20
-5.0110089999999996
11
5.7466659999999994
21
-5.1062469999999998
0
LINE
8
GRAY3
6
CONTINUOUS
10
5.7466659999999994
20
-5.1062469999999998
11
5.7466659999999994
21
-5.3443420000000001
0
LINE
8
GRAY3
6
CONTINUOUS
10
5.7466659999999994
20
-5.3443420000000001
11
5.6990469999999993
21
-5.4395799999999994
0
LINE
8
GRAY3
6
CONTINUOUS
10
5.6990469999999993
20
-5.4395799999999994
11
5.6514280000000001
21
-5.4871999999999996
0
LINE
8
GRAY3
6
CONTINUOUS
10
5.6514280000000001
20
-5.4871999999999996
11
5.55619
21
-5.5348189999999997
0
LINE
8
GRAY3
6
CONTINUOUS
10
5.55619
20
-5.5348189999999997
11
5.2704759999999995
21
-5.5348189999999997
0
LINE
8
GRAY3
6
CONTINUOUS
10
5.2704759999999995
20
-5.5348189999999997
11
5.1752379999999993
21
-5.4871999999999996
0
LINE
8
GRAY3
6
CONTINUOUS
10
5.1752379999999993
20
-5.4871999999999996
11
5.1276190000000001
21
-5.4395799999999994
0
LINE
8
GRAY3
6
CONTINUOUS
10
16.2345799999999976
20
-3.9566659999999998
11
16.2821999999999996
21
-4.0042849999999994
0
LINE
8
GRAY3
6
CONTINUOUS
10
16.2821999999999996
20
-4.0042849999999994
11
16.3298190000000005
21
-4.1471419999999997
0
LINE
8
GRAY3
6
CONTINUOUS
10
16.3298190000000005
20
-4.1471419999999997
11
16.3298190000000005
21
-4.2423799999999998
0
LINE
8
GRAY3
6
CONTINUOUS
10
16.3298190000000005
20
-4.2423799999999998
11
16.2821999999999996
21
-4.3852370000000001
0
LINE
8
GRAY3
6
CONTINUOUS
10
16.2821999999999996
20
-4.3852370000000001
11
16.1869610000000002
21
-4.4804750000000002
0
LINE
8
GRAY3
6
CONTINUOUS
10
16.1869610000000002
20
-4.4804750000000002
11
16.0917229999999982
21
-4.5280939999999994
0
LINE
8
GRAY3
6
CONTINUOUS
10
16.0917229999999982
20
-4.5280939999999994
11
15.9012469999999997
21
-4.5757129999999995
0
LINE
8
GRAY3
6
CONTINUOUS
10
15.9012469999999997
20
-4.5757129999999995
11
15.7583899999999986
21
-4.5757129999999995
0
LINE
8
GRAY3
6
CONTINUOUS
10
15.7583899999999986
20
-4.5757129999999995
11
15.567914
21
-4.5280939999999994
0
LINE
8
GRAY3
6
CONTINUOUS
10
15.567914
20
-4.5280939999999994
11
15.4726759999999999
21
-4.4804750000000002
0
LINE
8
GRAY3
6
CONTINUOUS
10
15.4726759999999999
20
-4.4804750000000002
11
15.3774379999999997
21
-4.3852370000000001
0
LINE
8
GRAY3
6
CONTINUOUS
10
15.3774379999999997
20
-4.3852370000000001
11
15.3298189999999988
21
-4.2423799999999998
0
LINE
8
GRAY3
6
CONTINUOUS
10
15.3298189999999988
20
-4.2423799999999998
11
15.3298189999999988
21
-4.1471419999999997
0
LINE
8
GRAY3
6
CONTINUOUS
10
15.3298189999999988
20
-4.1471419999999997
11
15.3774379999999997
21
-4.0042849999999994
0
LINE
8
GRAY3
6
CONTINUOUS
10
15.3774379999999997
20
-4.0042849999999994
11
15.4250569999999989
21
-3.9566659999999998
0
LINE
8
GRAY3
6
CONTINUOUS
10
16.3298190000000005
20
-3.0042849999999999
11
16.3298190000000005
21
-3.5757129999999999
0
LINE
8
GRAY3
6
CONTINUOUS
10
16.3298190000000005
20
-3.2899989999999999
11
15.3298189999999988
21
-3.2899989999999999
0
LINE
8
GRAY3
6
CONTINUOUS
10
15.3298189999999988
20
-3.2899989999999999
11
15.4726759999999999
21
-3.3852370000000001
0
LINE
8
GRAY3
6
CONTINUOUS
10
15.4726759999999999
20
-3.3852370000000001
11
15.567914
21
-3.4804749999999998
0
LINE
8
GRAY3
6
CONTINUOUS
10
15.567914
20
-3.4804749999999998
11
15.6155329999999992
21
-3.5757129999999999
0
LINE
8
GRAY3
6
CONTINUOUS
10
22.584579999999999
20
-3.9166659999999998
11
22.6321999999999974
21
-3.9642849999999998
0
LINE
8
GRAY3
6
CONTINUOUS
10
22.6321999999999974
20
-3.9642849999999998
11
22.6798189999999984
21
-4.1071419999999996
0
LINE
8
GRAY3
6
CONTINUOUS
10
22.6798189999999984
20
-4.1071419999999996
11
22.6798189999999984
21
-4.2023799999999998
0
LINE
8
GRAY3
6
CONTINUOUS
10
22.6798189999999984
20
-4.2023799999999998
11
22.6321999999999974
21
-4.345237
0
LINE
8
GRAY3
6
CONTINUOUS
10
22.6321999999999974
20
-4.345237
11
22.536960999999998
21
-4.4404750000000002
0
LINE
8
GRAY3
6
CONTINUOUS
10
22.536960999999998
20
-4.4404750000000002
11
22.4417229999999996
21
-4.4880939999999994
0
LINE
8
GRAY3
6
CONTINUOUS
10
22.4417229999999996
20
-4.4880939999999994
11
22.2512469999999993
21
-4.5357129999999994
0
LINE
8
GRAY3
6
CONTINUOUS
10
22.2512469999999993
20
-4.5357129999999994
11
22.10839
21
-4.5357129999999994
0
LINE
8
GRAY3
6
CONTINUOUS
10
22.10839
20
-4.5357129999999994
11
21.9179139999999997
21
-4.4880939999999994
0
LINE
8
GRAY3
6
CONTINUOUS
10
21.9179139999999997
20
-4.4880939999999994
11
21.8226759999999977
21
-4.4404750000000002
0
LINE
8
GRAY3
6
CONTINUOUS
10
21.8226759999999977
20
-4.4404750000000002
11
21.7274379999999994
21
-4.345237
0
LINE
8
GRAY3
6
CONTINUOUS
10
21.7274379999999994
20
-4.345237
11
21.6798189999999984
21
-4.2023799999999998
0
LINE
8
GRAY3
6
CONTINUOUS
10
21.6798189999999984
20
-4.2023799999999998
11
21.6798189999999984
21
-4.1071419999999996
0
LINE
8
GRAY3
6
CONTINUOUS
10
21.6798189999999984
20
-4.1071419999999996
11
21.7274379999999994
21
-3.9642849999999998
0
LINE
8
GRAY3
6
CONTINUOUS
10
21.7274379999999994
20
-3.9642849999999998
11
21.7750570000000003
21
-3.9166659999999998
0
LINE
8
GRAY3
6
CONTINUOUS
10
21.7750570000000003
20
-3.5357129999999999
11
21.7274379999999994
21
-3.4880939999999998
0
LINE
8
GRAY3
6
CONTINUOUS
10
21.7274379999999994
20
-3.4880939999999998
11
21.6798189999999984
21
-3.3928559999999996
0
LINE
8
GRAY3
6
CONTINUOUS
10
21.6798189999999984
20
-3.3928559999999996
11
21.6798189999999984
21
-3.1547609999999997
0
LINE
8
GRAY3
6
CONTINUOUS
10
21.6798189999999984
20
-3.1547609999999997
11
21.7274379999999994
21
-3.059523
0
LINE
8
GRAY3
6
CONTINUOUS
10
21.7274379999999994
20
-3.059523
11
21.7750570000000003
21
-3.0119039999999999
0
LINE
8
GRAY3
6
CONTINUOUS
10
21.7750570000000003
20
-3.0119039999999999
11
21.8702949999999987
21
-2.9642849999999998
0
LINE
8
GRAY3
6
CONTINUOUS
10
21.8702949999999987
20
-2.9642849999999998
11
21.9655330000000006
21
-2.9642849999999998
0
LINE
8
GRAY3
6
CONTINUOUS
10
21.9655330000000006
20
-2.9642849999999998
11
22.10839
21
-3.0119039999999999
0
LINE
8
GRAY3
6
CONTINUOUS
10
22.10839
20
-3.0119039999999999
11
22.6798189999999984
21
-3.583332
0
LINE
8
GRAY3
6
CONTINUOUS
10
22.6798189999999984
20
-3.583332
11
22.6798189999999984
21
-2.9642849999999998
0
LINE
8
GRAY3
6
CONTINUOUS
10
7.6199999999999992
20
-3.8099999999999996
11
10.1600000000000001
21
-3.8099999999999996
0
LINE
8
GRAY3
6
CONTINUOUS
10
7.6199999999999992
20
-24.129999999999999
11
7.6199999999999992
21
-3.8099999999999996
0
LINE
8
GRAY3
6
CONTINUOUS
10
9.5250000000000004
20
-24.129999999999999
11
7.6199999999999992
21
-24.129999999999999
0
LINE
8
GRAY3
6
CONTINUOUS
10
10.1600000000000001
20
-3.8099999999999996
11
10.1600000000000001
21
-23.4949999999999974
0
LINE
8
GRAY3
6
CONTINUOUS
10
10.1600000000000001
20
-23.4949999999999974
11
9.5250000000000004
21
-24.129999999999999
0
LINE
8
GRAY3
6
CONTINUOUS
10
12.6999999999999993
20
-8.8899999999999988
11
15.2399999999999984
21
-8.8899999999999988
0
LINE
8
GRAY3
6
CONTINUOUS
10
12.6999999999999993
20
-24.129999999999999
11
12.6999999999999993
21
-8.8899999999999988
0
LINE
8
GRAY3
6
CONTINUOUS
10
14.6049999999999986
20
-24.129999999999999
11
12.6999999999999993
21
-24.129999999999999
0
LINE
8
GRAY3
6
CONTINUOUS
10
15.2399999999999984
20
-8.8899999999999988
11
15.2399999999999984
21
-23.4949999999999974
0
LINE
8
GRAY3
6
CONTINUOUS
10
15.2399999999999984
20
-23.4949999999999974
11
14.6049999999999986
21
-24.129999999999999
0
LINE
8
GRAY3
6
CONTINUOUS
10
2.54
20
-3.8099999999999996
11
6.9849999999999994
21
-3.8099999999999996
0
LINE
8
GRAY3
6
CONTINUOUS
10
2.54
20
-6.3499999999999996
11
2.54
21
-3.8099999999999996
0
LINE
8
GRAY3
6
CONTINUOUS
10
6.9849999999999994
20
-3.8099999999999996
11
7.6199999999999992
21
-4.4449999999999994
0
LINE
8
GRAY3
6
CONTINUOUS
10
7.6199999999999992
20
-4.4449999999999994
11
7.6199999999999992
21
-6.3499999999999996
0
LINE
8
GRAY3
6
CONTINUOUS
10
7.6199999999999992
20
-6.3499999999999996
11
2.54
21
-6.3499999999999996
0
LINE
8
GRAY3
6
CONTINUOUS
10
16.9624999999999986
20
-1.6563949999999998
11
16.9624999999999986
21
-2.1563949999999998
0
LINE
8
GRAY3
6
CONTINUOUS
10
17.2124999999999986
20
-1.9063949999999998
11
16.7124999999999986
21
-1.9063949999999998
0
CIRCLE
8
GRAY3
10
15.875
20
-3.79
40
2.5
0
LINE
8
GRAY3
6
CONTINUOUS
10
23.3125
20
-1.616395
11
23.3125
21
-2.1163949999999998
0
LINE
8
GRAY3
6
CONTINUOUS
10
23.5625
20
-1.866395
11
23.0625
21
-1.866395
0
CIRCLE
8
GRAY3
10
22.2249999999999979
20
-3.75
40
2.5
0
CIRCLE
8
BLACK
10
8.8899999999999988
20
-22.8599999999999994
40
0.4064
0
CIRCLE
8
BLACK
10
8.8899999999999988
20
-20.3200000000000003
40
0.4064
0
CIRCLE
8
BLACK
10
8.8899999999999988
20
-17.7799999999999976
40
0.4064
0
CIRCLE
8
BLACK
10
8.8899999999999988
20
-15.2399999999999984
40
0.4064
0
CIRCLE
8
BLACK
10
8.8899999999999988
20
-12.6999999999999993
40
0.4064
0
CIRCLE
8
BLACK
10
8.8899999999999988
20
-10.1600000000000001
40
0.4064
0
CIRCLE
8
BLACK
10
8.8899999999999988
20
-7.6199999999999992
40
0.4064
0
CIRCLE
8
BLACK
10
8.8899999999999988
20
-5.0800000000000001
40
0.4064
0
CIRCLE
8
BLACK
10
13.9699999999999989
20
-22.8599999999999994
40
0.4064
0
CIRCLE
8
BLACK
10
13.9699999999999989
20
-20.3200000000000003
40
0.4064
0
CIRCLE
8
BLACK
10
13.9699999999999989
20
-17.7799999999999976
40
0.4064
0
CIRCLE
8
BLACK
10
13.9699999999999989
20
-15.2399999999999984
40
0.4064
0
CIRCLE
8
BLACK
10
13.9699999999999989
20
-12.6999999999999993
40
0.4064
0
CIRCLE
8
BLACK
10
13.9699999999999989
20
-10.1600000000000001
40
0.4064
0
CIRCLE
8
BLACK
10
6.3499999999999996
20
-5.0800000000000001
40
0.4064
0
CIRCLE
8
BLACK
10
3.8099999999999996
20
-5.0800000000000001
40
0.4064
0
CIRCLE
8
BLACK
10
15.875
20
-2.54
40
0.4064
0
CIRCLE
8
BLACK
10
15.875
20
-5.04
40
0.4064
0
CIRCLE
8
BLACK
10
22.2249999999999979
20
-2.5
40
0.4064
0
CIRCLE
8
BLACK
10
22.2249999999999979
20
-5.
40
0.4064
  0
ENDSEC
  0
EOF
