  0
SECTION
  2
HEADER
  9
$ANGBASE
  50
0.0
  9
$ANGDIR
  70
1
  9
$MEASUREMENT
  70
1
  0
ENDSEC
  0
SECTION
  2
TABLES
  0
TABLE
  2
LTYPE
  70
4
  0
LTYPE
  5
40F
  2
CONTINUOUS
  70
0
  3
Solid line
  72
65
  73
0
  40
0.0
  0
LTYPE
  5
410
  2
DASHDOT
 70
0
  3
Dash Dot ____ _ ____ _
 72
65
 73
4
 40
2.0
 49
1.25
 49
-0.25
 49
0.25
 49
-0.25
  0
LTYPE
  5
411
  2
DASHED
 70
0
  3
Dashed __ __ __ __ __
 72
65
 73
2
 40
0.75
 49
0.5
 49
-0.25
  0
LTYPE
  5
43B
  2
DOTTED
 70
0
  3
Dotted .  .  .  .
 72
65
 73
2
 40
0.2
 49
0.0
 49
-0.2
  0
ENDTAB
  0
TABLE
  2
STYLE
  70
4
  0
STYLE
  2
KICAD
  70
0
  40
0
  41
1
  42
1
  50
0
  71
0
  3
isocp.shx
  0
STYLE
  2
KICADB
  70
0
  40
0
  41
1
  42
1
  50
0
  71
0
  3
isocp.shx
  0
STYLE
  2
KICADI
  70
0
  40
0
  41
1
  42
1
  50
15
  71
0
  3
isocp.shx
  0
STYLE
  2
KICADBI
  70
0
  40
0
  41
1
  42
1
  50
15
  71
0
  3
isocp.shx
  0
ENDTAB
  0
TABLE
  2
LAYER
  70
35
  0
LAYER
  2
BLACK
  70
0
  62
7
  6
CONTINUOUS
  0
LAYER
  2
GRAY1
  70
0
  62
251
  6
CONTINUOUS
  0
LAYER
  2
GRAY2
  70
0
  62
8
  6
CONTINUOUS
  0
LAYER
  2
GRAY3
  70
0
  62
9
  6
CONTINUOUS
  0
LAYER
  2
WHITE
  70
0
  62
7
  6
CONTINUOUS
  0
LAYER
  2
LYELLOW
  70
0
  62
51
  6
CONTINUOUS
  0
LAYER
  2
LORANGE
  70
0
  62
41
  6
CONTINUOUS
  0
LAYER
  2
BLUE1
  70
0
  62
178
  6
CONTINUOUS
  0
LAYER
  2
GREEN1
  70
0
  62
98
  6
CONTINUOUS
  0
LAYER
  2
CYAN1
  70
0
  62
138
  6
CONTINUOUS
  0
LAYER
  2
RED1
  70
0
  62
18
  6
CONTINUOUS
  0
LAYER
  2
MAGENTA1
  70
0
  62
228
  6
CONTINUOUS
  0
LAYER
  2
BROWN1
  70
0
  62
58
  6
CONTINUOUS
  0
LAYER
  2
ORANGE1
  70
0
  62
34
  6
CONTINUOUS
  0
LAYER
  2
BLUE2
  70
0
  62
5
  6
CONTINUOUS
  0
LAYER
  2
GREEN2
  70
0
  62
3
  6
CONTINUOUS
  0
LAYER
  2
CYAN2
  70
0
  62
4
  6
CONTINUOUS
  0
LAYER
  2
RED2
  70
0
  62
1
  6
CONTINUOUS
  0
LAYER
  2
MAGENTA2
  70
0
  62
6
  6
CONTINUOUS
  0
LAYER
  2
BROWN2
  70
0
  62
54
  6
CONTINUOUS
  0
LAYER
  2
ORANGE2
  70
0
  62
42
  6
CONTINUOUS
  0
LAYER
  2
BLUE3
  70
0
  62
171
  6
CONTINUOUS
  0
LAYER
  2
GREEN3
  70
0
  62
91
  6
CONTINUOUS
  0
LAYER
  2
CYAN3
  70
0
  62
131
  6
CONTINUOUS
  0
LAYER
  2
RED3
  70
0
  62
11
  6
CONTINUOUS
  0
LAYER
  2
MAGENTA3
  70
0
  62
221
  6
CONTINUOUS
  0
LAYER
  2
YELLOW3
  70
0
  62
2
  6
CONTINUOUS
  0
LAYER
  2
ORANGE3
  70
0
  62
32
  6
CONTINUOUS
  0
LAYER
  2
BLUE4
  70
0
  62
5
  6
CONTINUOUS
  0
LAYER
  2
GREEN4
  70
0
  62
3
  6
CONTINUOUS
  0
LAYER
  2
CYAN4
  70
0
  62
4
  6
CONTINUOUS
  0
LAYER
  2
RED4
  70
0
  62
1
  6
CONTINUOUS
  0
LAYER
  2
MAGENTA4
  70
0
  62
6
  6
CONTINUOUS
  0
LAYER
  2
YELLOW4
  70
0
  62
2
  6
CONTINUOUS
  0
LAYER
  2
ORANGE4
  70
0
  62
40
  6
CONTINUOUS
  0
ENDTAB
  0
ENDSEC
  0
SECTION
  2
ENTITIES
0
LINE
8
GRAY3
6
CONTINUOUS
10
7.0748189999999997
20
-12.3983329999999992
11
7.789104
21
-12.3983329999999992
0
LINE
8
GRAY3
6
CONTINUOUS
10
7.789104
20
-12.3983329999999992
11
7.9319609999999994
21
-12.4459520000000001
0
LINE
8
GRAY3
6
CONTINUOUS
10
7.9319609999999994
20
-12.4459520000000001
11
8.0271999999999988
21
-12.5411900000000003
0
LINE
8
GRAY3
6
CONTINUOUS
10
8.0271999999999988
20
-12.5411900000000003
11
8.0748189999999997
21
-12.6840469999999996
0
LINE
8
GRAY3
6
CONTINUOUS
10
8.0748189999999997
20
-12.6840469999999996
11
8.0748189999999997
21
-12.7792849999999998
0
LINE
8
GRAY3
6
CONTINUOUS
10
8.0748189999999997
20
-11.3983329999999992
11
8.0748189999999997
21
-11.9697610000000001
0
LINE
8
GRAY3
6
CONTINUOUS
10
8.0748189999999997
20
-11.6840469999999996
11
7.0748189999999997
21
-11.6840469999999996
0
LINE
8
GRAY3
6
CONTINUOUS
10
7.0748189999999997
20
-11.6840469999999996
11
7.217676
21
-11.7792849999999998
0
LINE
8
GRAY3
6
CONTINUOUS
10
7.217676
20
-11.7792849999999998
11
7.3129139999999992
21
-11.8745229999999999
0
LINE
8
GRAY3
6
CONTINUOUS
10
7.3129139999999992
20
-11.8745229999999999
11
7.3605329999999993
21
-11.9697610000000001
0
LINE
8
GRAY3
6
CONTINUOUS
10
2.801666
20
-2.6698189999999999
11
2.801666
21
-3.3841039999999998
0
LINE
8
GRAY3
6
CONTINUOUS
10
2.801666
20
-3.3841039999999998
11
2.7540469999999999
21
-3.526961
0
LINE
8
GRAY3
6
CONTINUOUS
10
2.7540469999999999
20
-3.526961
11
2.6588089999999998
21
-3.6221999999999999
0
LINE
8
GRAY3
6
CONTINUOUS
10
2.6588089999999998
20
-3.6221999999999999
11
2.515952
21
-3.6698189999999999
0
LINE
8
GRAY3
6
CONTINUOUS
10
2.515952
20
-3.6698189999999999
11
2.4207139999999998
21
-3.6698189999999999
0
LINE
8
GRAY3
6
CONTINUOUS
10
3.1826189999999999
20
-2.6698189999999999
11
3.801666
21
-2.6698189999999999
0
LINE
8
GRAY3
6
CONTINUOUS
10
3.801666
20
-2.6698189999999999
11
3.4683329999999999
21
-3.0507709999999997
0
LINE
8
GRAY3
6
CONTINUOUS
10
3.4683329999999999
20
-3.0507709999999997
11
3.6111899999999997
21
-3.0507709999999997
0
LINE
8
GRAY3
6
CONTINUOUS
10
3.6111899999999997
20
-3.0507709999999997
11
3.7064279999999998
21
-3.0983899999999998
0
LINE
8
GRAY3
6
CONTINUOUS
10
3.7064279999999998
20
-3.0983899999999998
11
3.7540469999999999
21
-3.1460089999999998
0
LINE
8
GRAY3
6
CONTINUOUS
10
3.7540469999999999
20
-3.1460089999999998
11
3.801666
21
-3.241247
0
LINE
8
GRAY3
6
CONTINUOUS
10
3.801666
20
-3.241247
11
3.801666
21
-3.4793419999999999
0
LINE
8
GRAY3
6
CONTINUOUS
10
3.801666
20
-3.4793419999999999
11
3.7540469999999999
21
-3.5745799999999996
0
LINE
8
GRAY3
6
CONTINUOUS
10
3.7540469999999999
20
-3.5745799999999996
11
3.7064279999999998
21
-3.6221999999999999
0
LINE
8
GRAY3
6
CONTINUOUS
10
3.7064279999999998
20
-3.6221999999999999
11
3.6111899999999997
21
-3.6698189999999999
0
LINE
8
GRAY3
6
CONTINUOUS
10
3.6111899999999997
20
-3.6698189999999999
11
3.3254759999999997
21
-3.6698189999999999
0
LINE
8
GRAY3
6
CONTINUOUS
10
3.3254759999999997
20
-3.6698189999999999
11
3.2302379999999999
21
-3.6221999999999999
0
LINE
8
GRAY3
6
CONTINUOUS
10
3.2302379999999999
20
-3.6221999999999999
11
3.1826189999999999
21
-3.5745799999999996
0
LINE
8
GRAY3
6
CONTINUOUS
10
11.9183329999999987
20
-13.6945800000000002
11
11.8707139999999995
21
-13.7421999999999986
0
LINE
8
GRAY3
6
CONTINUOUS
10
11.8707139999999995
20
-13.7421999999999986
11
11.7278570000000002
21
-13.7898189999999996
0
LINE
8
GRAY3
6
CONTINUOUS
10
11.7278570000000002
20
-13.7898189999999996
11
11.632619
21
-13.7898189999999996
0
LINE
8
GRAY3
6
CONTINUOUS
10
11.632619
20
-13.7898189999999996
11
11.4897619999999989
21
-13.7421999999999986
0
LINE
8
GRAY3
6
CONTINUOUS
10
11.4897619999999989
20
-13.7421999999999986
11
11.3945239999999988
21
-13.6469609999999992
0
LINE
8
GRAY3
6
CONTINUOUS
10
11.3945239999999988
20
-13.6469609999999992
11
11.3469049999999996
21
-13.5517229999999991
0
LINE
8
GRAY3
6
CONTINUOUS
10
11.3469049999999996
20
-13.5517229999999991
11
11.2992859999999986
21
-13.3612469999999988
0
LINE
8
GRAY3
6
CONTINUOUS
10
11.2992859999999986
20
-13.3612469999999988
11
11.2992859999999986
21
-13.2183899999999994
0
LINE
8
GRAY3
6
CONTINUOUS
10
11.2992859999999986
20
-13.2183899999999994
11
11.3469049999999996
21
-13.0279139999999991
0
LINE
8
GRAY3
6
CONTINUOUS
10
11.3469049999999996
20
-13.0279139999999991
11
11.3945239999999988
21
-12.932675999999999
0
LINE
8
GRAY3
6
CONTINUOUS
10
11.3945239999999988
20
-12.932675999999999
11
11.4897619999999989
21
-12.8374379999999988
0
LINE
8
GRAY3
6
CONTINUOUS
10
11.4897619999999989
20
-12.8374379999999988
11
11.632619
21
-12.7898189999999996
0
LINE
8
GRAY3
6
CONTINUOUS
10
11.632619
20
-12.7898189999999996
11
11.7278570000000002
21
-12.7898189999999996
0
LINE
8
GRAY3
6
CONTINUOUS
10
11.7278570000000002
20
-12.7898189999999996
11
11.8707139999999995
21
-12.8374379999999988
0
LINE
8
GRAY3
6
CONTINUOUS
10
11.8707139999999995
20
-12.8374379999999988
11
11.9183329999999987
21
-12.8850569999999998
0
LINE
8
GRAY3
6
CONTINUOUS
10
12.8707139999999995
20
-13.7898189999999996
11
12.2992859999999986
21
-13.7898189999999996
0
LINE
8
GRAY3
6
CONTINUOUS
10
12.5849999999999991
20
-13.7898189999999996
11
12.5849999999999991
21
-12.7898189999999996
0
LINE
8
GRAY3
6
CONTINUOUS
10
12.5849999999999991
20
-12.7898189999999996
11
12.4897619999999989
21
-12.932675999999999
0
LINE
8
GRAY3
6
CONTINUOUS
10
12.4897619999999989
20
-12.932675999999999
11
12.3945239999999988
21
-13.0279139999999991
0
LINE
8
GRAY3
6
CONTINUOUS
10
12.3945239999999988
20
-13.0279139999999991
11
12.2992859999999986
21
-13.0755330000000001
0
LINE
8
GRAY3
6
CONTINUOUS
10
11.9183329999999987
20
-8.6145800000000001
11
11.8707139999999995
21
-8.6622000000000003
0
LINE
8
GRAY3
6
CONTINUOUS
10
11.8707139999999995
20
-8.6622000000000003
11
11.7278570000000002
21
-8.7098189999999995
0
LINE
8
GRAY3
6
CONTINUOUS
10
11.7278570000000002
20
-8.7098189999999995
11
11.632619
21
-8.7098189999999995
0
LINE
8
GRAY3
6
CONTINUOUS
10
11.632619
20
-8.7098189999999995
11
11.4897619999999989
21
-8.6622000000000003
0
LINE
8
GRAY3
6
CONTINUOUS
10
11.4897619999999989
20
-8.6622000000000003
11
11.3945239999999988
21
-8.5669609999999992
0
LINE
8
GRAY3
6
CONTINUOUS
10
11.3945239999999988
20
-8.5669609999999992
11
11.3469049999999996
21
-8.471722999999999
0
LINE
8
GRAY3
6
CONTINUOUS
10
11.3469049999999996
20
-8.471722999999999
11
11.2992859999999986
21
-8.2812470000000005
0
LINE
8
GRAY3
6
CONTINUOUS
10
11.2992859999999986
20
-8.2812470000000005
11
11.2992859999999986
21
-8.1383899999999993
0
LINE
8
GRAY3
6
CONTINUOUS
10
11.2992859999999986
20
-8.1383899999999993
11
11.3469049999999996
21
-7.9479139999999999
0
LINE
8
GRAY3
6
CONTINUOUS
10
11.3469049999999996
20
-7.9479139999999999
11
11.3945239999999988
21
-7.8526759999999998
0
LINE
8
GRAY3
6
CONTINUOUS
10
11.3945239999999988
20
-7.8526759999999998
11
11.4897619999999989
21
-7.7574379999999996
0
LINE
8
GRAY3
6
CONTINUOUS
10
11.4897619999999989
20
-7.7574379999999996
11
11.632619
21
-7.7098189999999995
0
LINE
8
GRAY3
6
CONTINUOUS
10
11.632619
20
-7.7098189999999995
11
11.7278570000000002
21
-7.7098189999999995
0
LINE
8
GRAY3
6
CONTINUOUS
10
11.7278570000000002
20
-7.7098189999999995
11
11.8707139999999995
21
-7.7574379999999996
0
LINE
8
GRAY3
6
CONTINUOUS
10
11.8707139999999995
20
-7.7574379999999996
11
11.9183329999999987
21
-7.8050569999999997
0
LINE
8
GRAY3
6
CONTINUOUS
10
12.2992859999999986
20
-7.8050569999999997
11
12.3469049999999996
21
-7.7574379999999996
0
LINE
8
GRAY3
6
CONTINUOUS
10
12.3469049999999996
20
-7.7574379999999996
11
12.4421429999999997
21
-7.7098189999999995
0
LINE
8
GRAY3
6
CONTINUOUS
10
12.4421429999999997
20
-7.7098189999999995
11
12.6802379999999992
21
-7.7098189999999995
0
LINE
8
GRAY3
6
CONTINUOUS
10
12.6802379999999992
20
-7.7098189999999995
11
12.7754759999999994
21
-7.7574379999999996
0
LINE
8
GRAY3
6
CONTINUOUS
10
12.7754759999999994
20
-7.7574379999999996
11
12.8230949999999986
21
-7.8050569999999997
0
LINE
8
GRAY3
6
CONTINUOUS
10
12.8230949999999986
20
-7.8050569999999997
11
12.8707139999999995
21
-7.9002949999999998
0
LINE
8
GRAY3
6
CONTINUOUS
10
12.8707139999999995
20
-7.9002949999999998
11
12.8707139999999995
21
-7.995533
0
LINE
8
GRAY3
6
CONTINUOUS
10
12.8707139999999995
20
-7.995533
11
12.8230949999999986
21
-8.1383899999999993
0
LINE
8
GRAY3
6
CONTINUOUS
10
12.8230949999999986
20
-8.1383899999999993
11
12.2516669999999994
21
-8.7098189999999995
0
LINE
8
GRAY3
6
CONTINUOUS
10
12.2516669999999994
20
-8.7098189999999995
11
12.8707139999999995
21
-8.7098189999999995
0
LINE
8
GRAY3
6
CONTINUOUS
10
6.3499999999999996
20
-1.9049999999999998
11
8.8899999999999988
21
-1.9049999999999998
0
LINE
8
GRAY3
6
CONTINUOUS
10
6.3499999999999996
20
-22.2249999999999979
11
6.3499999999999996
21
-1.9049999999999998
0
LINE
8
GRAY3
6
CONTINUOUS
10
8.254999999999999
20
-22.2249999999999979
11
6.3499999999999996
21
-22.2249999999999979
0
LINE
8
GRAY3
6
CONTINUOUS
10
8.8899999999999988
20
-1.9049999999999998
11
8.8899999999999988
21
-21.5899999999999999
0
LINE
8
GRAY3
6
CONTINUOUS
10
8.8899999999999988
20
-21.5899999999999999
11
8.254999999999999
21
-22.2249999999999979
0
LINE
8
GRAY3
6
CONTINUOUS
10
15.2399999999999984
20
-17.1449999999999996
11
29.8449999999999989
21
-17.1449999999999996
0
LINE
8
GRAY3
6
CONTINUOUS
10
15.2399999999999984
20
-19.6849999999999987
11
15.2399999999999984
21
-17.1449999999999996
0
LINE
8
GRAY3
6
CONTINUOUS
10
29.8449999999999989
20
-17.1449999999999996
11
30.4799999999999969
21
-17.7799999999999976
0
LINE
8
GRAY3
6
CONTINUOUS
10
30.4799999999999969
20
-17.7799999999999976
11
30.4799999999999969
21
-19.6849999999999987
0
LINE
8
GRAY3
6
CONTINUOUS
10
30.4799999999999969
20
-19.6849999999999987
11
15.2399999999999984
21
-19.6849999999999987
0
LINE
8
GRAY3
6
CONTINUOUS
10
0.595
20
-1.9449999999999998
11
5.04
21
-1.9449999999999998
0
LINE
8
GRAY3
6
CONTINUOUS
10
0.595
20
-4.4849999999999994
11
0.595
21
-1.9449999999999998
0
LINE
8
GRAY3
6
CONTINUOUS
10
5.04
20
-1.9449999999999998
11
5.6749999999999998
21
-2.5800000000000001
0
LINE
8
GRAY3
6
CONTINUOUS
10
5.6749999999999998
20
-2.5800000000000001
11
5.6749999999999998
21
-4.4849999999999994
0
LINE
8
GRAY3
6
CONTINUOUS
10
5.6749999999999998
20
-4.4849999999999994
11
0.595
21
-4.4849999999999994
0
LINE
8
GRAY3
6
CONTINUOUS
10
13.9686050000000002
20
-14.6724999999999994
11
13.9686050000000002
21
-14.1724999999999994
0
LINE
8
GRAY3
6
CONTINUOUS
10
14.2186050000000002
20
-14.4224999999999994
11
13.7186050000000002
21
-14.4224999999999994
0
CIRCLE
8
GRAY3
10
12.0849999999999991
20
-13.3349999999999991
40
2.5
0
LINE
8
GRAY3
6
CONTINUOUS
10
13.9686050000000002
20
-9.5924999999999994
11
13.9686050000000002
21
-9.0924999999999994
0
LINE
8
GRAY3
6
CONTINUOUS
10
14.2186050000000002
20
-9.3424999999999994
11
13.7186050000000002
21
-9.3424999999999994
0
CIRCLE
8
GRAY3
10
12.0849999999999991
20
-8.254999999999999
40
2.5
0
CIRCLE
8
BLACK
10
7.6199999999999992
20
-20.9549999999999983
40
0.4064
0
CIRCLE
8
BLACK
10
7.6199999999999992
20
-18.4149999999999991
40
0.4064
0
CIRCLE
8
BLACK
10
7.6199999999999992
20
-15.875
40
0.4064
0
CIRCLE
8
BLACK
10
7.6199999999999992
20
-13.3349999999999991
40
0.381
0
CIRCLE
8
BLACK
10
7.6199999999999992
20
-10.7949999999999999
40
0.381
0
CIRCLE
8
BLACK
10
7.6199999999999992
20
-8.254999999999999
40
0.381
0
CIRCLE
8
BLACK
10
7.6199999999999992
20
-5.7149999999999999
40
0.381
0
CIRCLE
8
BLACK
10
7.6199999999999992
20
-3.1749999999999998
40
0.4064
0
CIRCLE
8
BLACK
10
29.2099999999999973
20
-18.4149999999999991
40
0.4064
0
CIRCLE
8
BLACK
10
26.6699999999999982
20
-18.4149999999999991
40
0.4064
0
CIRCLE
8
BLACK
10
24.129999999999999
20
-18.4149999999999991
40
0.4064
0
CIRCLE
8
BLACK
10
21.5899999999999999
20
-18.4149999999999991
40
0.4064
0
CIRCLE
8
BLACK
10
19.0500000000000007
20
-18.4149999999999991
40
0.4064
0
CIRCLE
8
BLACK
10
16.509999999999998
20
-18.4149999999999991
40
0.4064
0
CIRCLE
8
BLACK
10
4.4049999999999994
20
-3.2149999999999999
40
0.4064
0
CIRCLE
8
BLACK
10
1.865
20
-3.2149999999999999
40
0.4064
0
CIRCLE
8
BLACK
10
13.3349999999999991
20
-13.3349999999999991
40
0.4064
0
CIRCLE
8
BLACK
10
10.8349999999999991
20
-13.3349999999999991
40
0.4064
0
CIRCLE
8
BLACK
10
13.3349999999999991
20
-8.254999999999999
40
0.4064
0
CIRCLE
8
BLACK
10
10.8349999999999991
20
-8.254999999999999
40
0.4064
  0
ENDSEC
  0
EOF
