  0
SECTION
  2
HEADER
  9
$ANGBASE
  50
0.0
  9
$ANGDIR
  70
1
  9
$MEASUREMENT
  70
1
  0
ENDSEC
  0
SECTION
  2
TABLES
  0
TABLE
  2
LTYPE
  70
4
  0
LTYPE
  5
40F
  2
CONTINUOUS
  70
0
  3
Solid line
  72
65
  73
0
  40
0.0
  0
LTYPE
  5
410
  2
DASHDOT
 70
0
  3
Dash Dot ____ _ ____ _
 72
65
 73
4
 40
2.0
 49
1.25
 49
-0.25
 49
0.25
 49
-0.25
  0
LTYPE
  5
411
  2
DASHED
 70
0
  3
Dashed __ __ __ __ __
 72
65
 73
2
 40
0.75
 49
0.5
 49
-0.25
  0
LTYPE
  5
43B
  2
DOTTED
 70
0
  3
Dotted .  .  .  .
 72
65
 73
2
 40
0.2
 49
0.0
 49
-0.2
  0
ENDTAB
  0
TABLE
  2
STYLE
  70
4
  0
STYLE
  2
KICAD
  70
0
  40
0
  41
1
  42
1
  50
0
  71
0
  3
isocp.shx
  0
STYLE
  2
KICADB
  70
0
  40
0
  41
1
  42
1
  50
0
  71
0
  3
isocp.shx
  0
STYLE
  2
KICADI
  70
0
  40
0
  41
1
  42
1
  50
15
  71
0
  3
isocp.shx
  0
STYLE
  2
KICADBI
  70
0
  40
0
  41
1
  42
1
  50
15
  71
0
  3
isocp.shx
  0
ENDTAB
  0
TABLE
  2
LAYER
  70
35
  0
LAYER
  2
BLACK
  70
0
  62
7
  6
CONTINUOUS
  0
LAYER
  2
GRAY1
  70
0
  62
251
  6
CONTINUOUS
  0
LAYER
  2
GRAY2
  70
0
  62
8
  6
CONTINUOUS
  0
LAYER
  2
GRAY3
  70
0
  62
9
  6
CONTINUOUS
  0
LAYER
  2
WHITE
  70
0
  62
7
  6
CONTINUOUS
  0
LAYER
  2
LYELLOW
  70
0
  62
51
  6
CONTINUOUS
  0
LAYER
  2
LORANGE
  70
0
  62
41
  6
CONTINUOUS
  0
LAYER
  2
BLUE1
  70
0
  62
178
  6
CONTINUOUS
  0
LAYER
  2
GREEN1
  70
0
  62
98
  6
CONTINUOUS
  0
LAYER
  2
CYAN1
  70
0
  62
138
  6
CONTINUOUS
  0
LAYER
  2
RED1
  70
0
  62
18
  6
CONTINUOUS
  0
LAYER
  2
MAGENTA1
  70
0
  62
228
  6
CONTINUOUS
  0
LAYER
  2
BROWN1
  70
0
  62
58
  6
CONTINUOUS
  0
LAYER
  2
ORANGE1
  70
0
  62
34
  6
CONTINUOUS
  0
LAYER
  2
BLUE2
  70
0
  62
5
  6
CONTINUOUS
  0
LAYER
  2
GREEN2
  70
0
  62
3
  6
CONTINUOUS
  0
LAYER
  2
CYAN2
  70
0
  62
4
  6
CONTINUOUS
  0
LAYER
  2
RED2
  70
0
  62
1
  6
CONTINUOUS
  0
LAYER
  2
MAGENTA2
  70
0
  62
6
  6
CONTINUOUS
  0
LAYER
  2
BROWN2
  70
0
  62
54
  6
CONTINUOUS
  0
LAYER
  2
ORANGE2
  70
0
  62
42
  6
CONTINUOUS
  0
LAYER
  2
BLUE3
  70
0
  62
171
  6
CONTINUOUS
  0
LAYER
  2
GREEN3
  70
0
  62
91
  6
CONTINUOUS
  0
LAYER
  2
CYAN3
  70
0
  62
131
  6
CONTINUOUS
  0
LAYER
  2
RED3
  70
0
  62
11
  6
CONTINUOUS
  0
LAYER
  2
MAGENTA3
  70
0
  62
221
  6
CONTINUOUS
  0
LAYER
  2
YELLOW3
  70
0
  62
2
  6
CONTINUOUS
  0
LAYER
  2
ORANGE3
  70
0
  62
32
  6
CONTINUOUS
  0
LAYER
  2
BLUE4
  70
0
  62
5
  6
CONTINUOUS
  0
LAYER
  2
GREEN4
  70
0
  62
3
  6
CONTINUOUS
  0
LAYER
  2
CYAN4
  70
0
  62
4
  6
CONTINUOUS
  0
LAYER
  2
RED4
  70
0
  62
1
  6
CONTINUOUS
  0
LAYER
  2
MAGENTA4
  70
0
  62
6
  6
CONTINUOUS
  0
LAYER
  2
YELLOW4
  70
0
  62
2
  6
CONTINUOUS
  0
LAYER
  2
ORANGE4
  70
0
  62
40
  6
CONTINUOUS
  0
ENDTAB
  0
ENDSEC
  0
SECTION
  2
ENTITIES
0
LINE
8
GRAY3
6
CONTINUOUS
10
6.3998189999999999
20
-11.8033330000000003
11
7.1141039999999993
21
-11.8033330000000003
0
LINE
8
GRAY3
6
CONTINUOUS
10
7.1141039999999993
20
-11.8033330000000003
11
7.2569609999999996
21
-11.8509519999999995
0
LINE
8
GRAY3
6
CONTINUOUS
10
7.2569609999999996
20
-11.8509519999999995
11
7.3521999999999998
21
-11.9461899999999996
0
LINE
8
GRAY3
6
CONTINUOUS
10
7.3521999999999998
20
-11.9461899999999996
11
7.3998189999999999
21
-12.089046999999999
0
LINE
8
GRAY3
6
CONTINUOUS
10
7.3998189999999999
20
-12.089046999999999
11
7.3998189999999999
21
-12.1842849999999991
0
LINE
8
GRAY3
6
CONTINUOUS
10
7.3998189999999999
20
-10.8033330000000003
11
7.3998189999999999
21
-11.3747609999999995
0
LINE
8
GRAY3
6
CONTINUOUS
10
7.3998189999999999
20
-11.089046999999999
11
6.3998189999999999
21
-11.089046999999999
0
LINE
8
GRAY3
6
CONTINUOUS
10
6.3998189999999999
20
-11.089046999999999
11
6.5426759999999993
21
-11.1842849999999991
0
LINE
8
GRAY3
6
CONTINUOUS
10
6.5426759999999993
20
-11.1842849999999991
11
6.6379139999999994
21
-11.2795229999999993
0
LINE
8
GRAY3
6
CONTINUOUS
10
6.6379139999999994
20
-11.2795229999999993
11
6.6855329999999995
21
-11.3747609999999995
0
LINE
8
GRAY3
6
CONTINUOUS
10
2.801666
20
-2.0348189999999997
11
2.801666
21
-2.749104
0
LINE
8
GRAY3
6
CONTINUOUS
10
2.801666
20
-2.749104
11
2.7540469999999999
21
-2.8919609999999998
0
LINE
8
GRAY3
6
CONTINUOUS
10
2.7540469999999999
20
-2.8919609999999998
11
2.6588089999999998
21
-2.9872000000000001
0
LINE
8
GRAY3
6
CONTINUOUS
10
2.6588089999999998
20
-2.9872000000000001
11
2.515952
21
-3.0348189999999997
0
LINE
8
GRAY3
6
CONTINUOUS
10
2.515952
20
-3.0348189999999997
11
2.4207139999999998
21
-3.0348189999999997
0
LINE
8
GRAY3
6
CONTINUOUS
10
3.1826189999999999
20
-2.0348189999999997
11
3.801666
21
-2.0348189999999997
0
LINE
8
GRAY3
6
CONTINUOUS
10
3.801666
20
-2.0348189999999997
11
3.4683329999999999
21
-2.4157709999999999
0
LINE
8
GRAY3
6
CONTINUOUS
10
3.4683329999999999
20
-2.4157709999999999
11
3.6111899999999997
21
-2.4157709999999999
0
LINE
8
GRAY3
6
CONTINUOUS
10
3.6111899999999997
20
-2.4157709999999999
11
3.7064279999999998
21
-2.46339
0
LINE
8
GRAY3
6
CONTINUOUS
10
3.7064279999999998
20
-2.46339
11
3.7540469999999999
21
-2.511009
0
LINE
8
GRAY3
6
CONTINUOUS
10
3.7540469999999999
20
-2.511009
11
3.801666
21
-2.6062469999999998
0
LINE
8
GRAY3
6
CONTINUOUS
10
3.801666
20
-2.6062469999999998
11
3.801666
21
-2.8443419999999997
0
LINE
8
GRAY3
6
CONTINUOUS
10
3.801666
20
-2.8443419999999997
11
3.7540469999999999
21
-2.9395799999999999
0
LINE
8
GRAY3
6
CONTINUOUS
10
3.7540469999999999
20
-2.9395799999999999
11
3.7064279999999998
21
-2.9872000000000001
0
LINE
8
GRAY3
6
CONTINUOUS
10
3.7064279999999998
20
-2.9872000000000001
11
3.6111899999999997
21
-3.0348189999999997
0
LINE
8
GRAY3
6
CONTINUOUS
10
3.6111899999999997
20
-3.0348189999999997
11
3.3254759999999997
21
-3.0348189999999997
0
LINE
8
GRAY3
6
CONTINUOUS
10
3.3254759999999997
20
-3.0348189999999997
11
3.2302379999999999
21
-2.9872000000000001
0
LINE
8
GRAY3
6
CONTINUOUS
10
3.2302379999999999
20
-2.9872000000000001
11
3.1826189999999999
21
-2.9395799999999999
0
LINE
8
GRAY3
6
CONTINUOUS
10
11.2833329999999989
20
-13.0595799999999986
11
11.2357139999999998
21
-13.1071999999999989
0
LINE
8
GRAY3
6
CONTINUOUS
10
11.2357139999999998
20
-13.1071999999999989
11
11.0928569999999986
21
-13.1548189999999998
0
LINE
8
GRAY3
6
CONTINUOUS
10
11.0928569999999986
20
-13.1548189999999998
11
10.9976190000000003
21
-13.1548189999999998
0
LINE
8
GRAY3
6
CONTINUOUS
10
10.9976190000000003
20
-13.1548189999999998
11
10.8547619999999991
21
-13.1071999999999989
0
LINE
8
GRAY3
6
CONTINUOUS
10
10.8547619999999991
20
-13.1071999999999989
11
10.759523999999999
21
-13.0119609999999994
0
LINE
8
GRAY3
6
CONTINUOUS
10
10.759523999999999
20
-13.0119609999999994
11
10.7119049999999998
21
-12.9167229999999993
0
LINE
8
GRAY3
6
CONTINUOUS
10
10.7119049999999998
20
-12.9167229999999993
11
10.6642859999999988
21
-12.726246999999999
0
LINE
8
GRAY3
6
CONTINUOUS
10
10.6642859999999988
20
-12.726246999999999
11
10.6642859999999988
21
-12.5833899999999996
0
LINE
8
GRAY3
6
CONTINUOUS
10
10.6642859999999988
20
-12.5833899999999996
11
10.7119049999999998
21
-12.3929139999999993
0
LINE
8
GRAY3
6
CONTINUOUS
10
10.7119049999999998
20
-12.3929139999999993
11
10.759523999999999
21
-12.2976759999999992
0
LINE
8
GRAY3
6
CONTINUOUS
10
10.759523999999999
20
-12.2976759999999992
11
10.8547619999999991
21
-12.202437999999999
0
LINE
8
GRAY3
6
CONTINUOUS
10
10.8547619999999991
20
-12.202437999999999
11
10.9976190000000003
21
-12.1548189999999998
0
LINE
8
GRAY3
6
CONTINUOUS
10
10.9976190000000003
20
-12.1548189999999998
11
11.0928569999999986
21
-12.1548189999999998
0
LINE
8
GRAY3
6
CONTINUOUS
10
11.0928569999999986
20
-12.1548189999999998
11
11.2357139999999998
21
-12.202437999999999
0
LINE
8
GRAY3
6
CONTINUOUS
10
11.2357139999999998
20
-12.202437999999999
11
11.2833329999999989
21
-12.250057
0
LINE
8
GRAY3
6
CONTINUOUS
10
12.2357139999999998
20
-13.1548189999999998
11
11.6642859999999988
21
-13.1548189999999998
0
LINE
8
GRAY3
6
CONTINUOUS
10
11.9499999999999993
20
-13.1548189999999998
11
11.9499999999999993
21
-12.1548189999999998
0
LINE
8
GRAY3
6
CONTINUOUS
10
11.9499999999999993
20
-12.1548189999999998
11
11.8547619999999991
21
-12.2976759999999992
0
LINE
8
GRAY3
6
CONTINUOUS
10
11.8547619999999991
20
-12.2976759999999992
11
11.759523999999999
21
-12.3929139999999993
0
LINE
8
GRAY3
6
CONTINUOUS
10
11.759523999999999
20
-12.3929139999999993
11
11.6642859999999988
21
-12.4405330000000003
0
LINE
8
GRAY3
6
CONTINUOUS
10
11.2833329999999989
20
-7.9795799999999995
11
11.2357139999999998
21
-8.0271999999999988
0
LINE
8
GRAY3
6
CONTINUOUS
10
11.2357139999999998
20
-8.0271999999999988
11
11.0928569999999986
21
-8.0748189999999997
0
LINE
8
GRAY3
6
CONTINUOUS
10
11.0928569999999986
20
-8.0748189999999997
11
10.9976190000000003
21
-8.0748189999999997
0
LINE
8
GRAY3
6
CONTINUOUS
10
10.9976190000000003
20
-8.0748189999999997
11
10.8547619999999991
21
-8.0271999999999988
0
LINE
8
GRAY3
6
CONTINUOUS
10
10.8547619999999991
20
-8.0271999999999988
11
10.759523999999999
21
-7.9319609999999994
0
LINE
8
GRAY3
6
CONTINUOUS
10
10.759523999999999
20
-7.9319609999999994
11
10.7119049999999998
21
-7.8367229999999992
0
LINE
8
GRAY3
6
CONTINUOUS
10
10.7119049999999998
20
-7.8367229999999992
11
10.6642859999999988
21
-7.6462469999999998
0
LINE
8
GRAY3
6
CONTINUOUS
10
10.6642859999999988
20
-7.6462469999999998
11
10.6642859999999988
21
-7.5033899999999996
0
LINE
8
GRAY3
6
CONTINUOUS
10
10.6642859999999988
20
-7.5033899999999996
11
10.7119049999999998
21
-7.3129139999999992
0
LINE
8
GRAY3
6
CONTINUOUS
10
10.7119049999999998
20
-7.3129139999999992
11
10.759523999999999
21
-7.217676
0
LINE
8
GRAY3
6
CONTINUOUS
10
10.759523999999999
20
-7.217676
11
10.8547619999999991
21
-7.1224379999999998
0
LINE
8
GRAY3
6
CONTINUOUS
10
10.8547619999999991
20
-7.1224379999999998
11
10.9976190000000003
21
-7.0748189999999997
0
LINE
8
GRAY3
6
CONTINUOUS
10
10.9976190000000003
20
-7.0748189999999997
11
11.0928569999999986
21
-7.0748189999999997
0
LINE
8
GRAY3
6
CONTINUOUS
10
11.0928569999999986
20
-7.0748189999999997
11
11.2357139999999998
21
-7.1224379999999998
0
LINE
8
GRAY3
6
CONTINUOUS
10
11.2357139999999998
20
-7.1224379999999998
11
11.2833329999999989
21
-7.1700569999999999
0
LINE
8
GRAY3
6
CONTINUOUS
10
11.6642859999999988
20
-7.1700569999999999
11
11.7119049999999998
21
-7.1224379999999998
0
LINE
8
GRAY3
6
CONTINUOUS
10
11.7119049999999998
20
-7.1224379999999998
11
11.8071429999999999
21
-7.0748189999999997
0
LINE
8
GRAY3
6
CONTINUOUS
10
11.8071429999999999
20
-7.0748189999999997
11
12.0452379999999994
21
-7.0748189999999997
0
LINE
8
GRAY3
6
CONTINUOUS
10
12.0452379999999994
20
-7.0748189999999997
11
12.1404759999999996
21
-7.1224379999999998
0
LINE
8
GRAY3
6
CONTINUOUS
10
12.1404759999999996
20
-7.1224379999999998
11
12.1880949999999988
21
-7.1700569999999999
0
LINE
8
GRAY3
6
CONTINUOUS
10
12.1880949999999988
20
-7.1700569999999999
11
12.2357139999999998
21
-7.2652950000000001
0
LINE
8
GRAY3
6
CONTINUOUS
10
12.2357139999999998
20
-7.2652950000000001
11
12.2357139999999998
21
-7.3605329999999993
0
LINE
8
GRAY3
6
CONTINUOUS
10
12.2357139999999998
20
-7.3605329999999993
11
12.1880949999999988
21
-7.5033899999999996
0
LINE
8
GRAY3
6
CONTINUOUS
10
12.1880949999999988
20
-7.5033899999999996
11
11.6166669999999996
21
-8.0748189999999997
0
LINE
8
GRAY3
6
CONTINUOUS
10
11.6166669999999996
20
-8.0748189999999997
11
12.2357139999999998
21
-8.0748189999999997
0
LINE
8
GRAY3
6
CONTINUOUS
10
5.6749999999999998
20
-1.3099999999999998
11
8.2149999999999999
21
-1.3099999999999998
0
LINE
8
GRAY3
6
CONTINUOUS
10
5.6749999999999998
20
-21.629999999999999
11
5.6749999999999998
21
-1.3099999999999998
0
LINE
8
GRAY3
6
CONTINUOUS
10
7.5800000000000001
20
-21.629999999999999
11
5.6749999999999998
21
-21.629999999999999
0
LINE
8
GRAY3
6
CONTINUOUS
10
8.2149999999999999
20
-1.3099999999999998
11
8.2149999999999999
21
-20.9949999999999974
0
LINE
8
GRAY3
6
CONTINUOUS
10
8.2149999999999999
20
-20.9949999999999974
11
7.5800000000000001
21
-21.629999999999999
0
LINE
8
GRAY3
6
CONTINUOUS
10
15.2399999999999984
20
-16.509999999999998
11
29.8449999999999989
21
-16.509999999999998
0
LINE
8
GRAY3
6
CONTINUOUS
10
15.2399999999999984
20
-19.0500000000000007
11
15.2399999999999984
21
-16.509999999999998
0
LINE
8
GRAY3
6
CONTINUOUS
10
29.8449999999999989
20
-16.509999999999998
11
30.4799999999999969
21
-17.1449999999999996
0
LINE
8
GRAY3
6
CONTINUOUS
10
30.4799999999999969
20
-17.1449999999999996
11
30.4799999999999969
21
-19.0500000000000007
0
LINE
8
GRAY3
6
CONTINUOUS
10
30.4799999999999969
20
-19.0500000000000007
11
15.2399999999999984
21
-19.0500000000000007
0
LINE
8
GRAY3
6
CONTINUOUS
10
0.595
20
-1.3099999999999998
11
5.04
21
-1.3099999999999998
0
LINE
8
GRAY3
6
CONTINUOUS
10
0.595
20
-3.8499999999999996
11
0.595
21
-1.3099999999999998
0
LINE
8
GRAY3
6
CONTINUOUS
10
5.04
20
-1.3099999999999998
11
5.6749999999999998
21
-1.9449999999999998
0
LINE
8
GRAY3
6
CONTINUOUS
10
5.6749999999999998
20
-1.9449999999999998
11
5.6749999999999998
21
-3.8499999999999996
0
LINE
8
GRAY3
6
CONTINUOUS
10
5.6749999999999998
20
-3.8499999999999996
11
0.595
21
-3.8499999999999996
0
LINE
8
GRAY3
6
CONTINUOUS
10
13.3336049999999986
20
-14.0374999999999996
11
13.3336049999999986
21
-13.5374999999999996
0
LINE
8
GRAY3
6
CONTINUOUS
10
13.5836049999999986
20
-13.7874999999999996
11
13.0836049999999986
21
-13.7874999999999996
0
CIRCLE
8
GRAY3
10
11.4499999999999993
20
-12.6999999999999993
40
2.5
0
LINE
8
GRAY3
6
CONTINUOUS
10
13.3336049999999986
20
-8.9574999999999996
11
13.3336049999999986
21
-8.4574999999999996
0
LINE
8
GRAY3
6
CONTINUOUS
10
13.5836049999999986
20
-8.7074999999999996
11
13.0836049999999986
21
-8.7074999999999996
0
CIRCLE
8
GRAY3
10
11.4499999999999993
20
-7.6199999999999992
40
2.5
0
CIRCLE
8
BLACK
10
6.9449999999999994
20
-20.3599999999999994
40
0.4064
0
CIRCLE
8
BLACK
10
6.9449999999999994
20
-17.8200000000000003
40
0.4064
0
CIRCLE
8
BLACK
10
6.9449999999999994
20
-15.2799999999999994
40
0.4064
0
CIRCLE
8
BLACK
10
6.9449999999999994
20
-12.7400000000000002
40
0.254
0
CIRCLE
8
BLACK
10
6.9449999999999994
20
-10.1999999999999993
40
0.254
0
CIRCLE
8
BLACK
10
6.9449999999999994
20
-7.6599999999999993
40
0.254
0
CIRCLE
8
BLACK
10
6.9449999999999994
20
-5.1200000000000001
40
0.254
0
CIRCLE
8
BLACK
10
6.9449999999999994
20
-2.5800000000000001
40
0.4064
0
CIRCLE
8
BLACK
10
29.2099999999999973
20
-17.7799999999999976
40
0.4064
0
CIRCLE
8
BLACK
10
26.6699999999999982
20
-17.7799999999999976
40
0.4064
0
CIRCLE
8
BLACK
10
24.129999999999999
20
-17.7799999999999976
40
0.4064
0
CIRCLE
8
BLACK
10
21.5899999999999999
20
-17.7799999999999976
40
0.4064
0
CIRCLE
8
BLACK
10
19.0500000000000007
20
-17.7799999999999976
40
0.4064
0
CIRCLE
8
BLACK
10
16.509999999999998
20
-17.7799999999999976
40
0.4064
0
CIRCLE
8
BLACK
10
4.4049999999999994
20
-2.5800000000000001
40
0.4064
0
CIRCLE
8
BLACK
10
1.865
20
-2.5800000000000001
40
0.4064
0
CIRCLE
8
BLACK
10
12.6999999999999993
20
-12.6999999999999993
40
0.4064
0
CIRCLE
8
BLACK
10
10.1999999999999993
20
-12.6999999999999993
40
0.4064
0
CIRCLE
8
BLACK
10
12.6999999999999993
20
-7.6199999999999992
40
0.4064
0
CIRCLE
8
BLACK
10
10.1999999999999993
20
-7.6199999999999992
40
0.4064
  0
ENDSEC
  0
EOF
