  0
SECTION
  2
HEADER
  9
$ANGBASE
  50
0.0
  9
$ANGDIR
  70
1
  9
$MEASUREMENT
  70
1
  0
ENDSEC
  0
SECTION
  2
TABLES
  0
TABLE
  2
LTYPE
  70
4
  0
LTYPE
  5
40F
  2
CONTINUOUS
  70
0
  3
Solid line
  72
65
  73
0
  40
0.0
  0
LTYPE
  5
410
  2
DASHDOT
 70
0
  3
Dash Dot ____ _ ____ _
 72
65
 73
4
 40
2.0
 49
1.25
 49
-0.25
 49
0.25
 49
-0.25
  0
LTYPE
  5
411
  2
DASHED
 70
0
  3
Dashed __ __ __ __ __
 72
65
 73
2
 40
0.75
 49
0.5
 49
-0.25
  0
LTYPE
  5
43B
  2
DOTTED
 70
0
  3
Dotted .  .  .  .
 72
65
 73
2
 40
0.2
 49
0.0
 49
-0.2
  0
ENDTAB
  0
TABLE
  2
STYLE
  70
4
  0
STYLE
  2
KICAD
  70
0
  40
0
  41
1
  42
1
  50
0
  71
0
  3
isocp.shx
  0
STYLE
  2
KICADB
  70
0
  40
0
  41
1
  42
1
  50
0
  71
0
  3
isocp.shx
  0
STYLE
  2
KICADI
  70
0
  40
0
  41
1
  42
1
  50
15
  71
0
  3
isocp.shx
  0
STYLE
  2
KICADBI
  70
0
  40
0
  41
1
  42
1
  50
15
  71
0
  3
isocp.shx
  0
ENDTAB
  0
TABLE
  2
LAYER
  70
35
  0
LAYER
  2
BLACK
  70
0
  62
7
  6
CONTINUOUS
  0
LAYER
  2
GRAY1
  70
0
  62
251
  6
CONTINUOUS
  0
LAYER
  2
GRAY2
  70
0
  62
8
  6
CONTINUOUS
  0
LAYER
  2
GRAY3
  70
0
  62
9
  6
CONTINUOUS
  0
LAYER
  2
WHITE
  70
0
  62
7
  6
CONTINUOUS
  0
LAYER
  2
LYELLOW
  70
0
  62
51
  6
CONTINUOUS
  0
LAYER
  2
LORANGE
  70
0
  62
41
  6
CONTINUOUS
  0
LAYER
  2
BLUE1
  70
0
  62
178
  6
CONTINUOUS
  0
LAYER
  2
GREEN1
  70
0
  62
98
  6
CONTINUOUS
  0
LAYER
  2
CYAN1
  70
0
  62
138
  6
CONTINUOUS
  0
LAYER
  2
RED1
  70
0
  62
18
  6
CONTINUOUS
  0
LAYER
  2
MAGENTA1
  70
0
  62
228
  6
CONTINUOUS
  0
LAYER
  2
BROWN1
  70
0
  62
58
  6
CONTINUOUS
  0
LAYER
  2
ORANGE1
  70
0
  62
34
  6
CONTINUOUS
  0
LAYER
  2
BLUE2
  70
0
  62
5
  6
CONTINUOUS
  0
LAYER
  2
GREEN2
  70
0
  62
3
  6
CONTINUOUS
  0
LAYER
  2
CYAN2
  70
0
  62
4
  6
CONTINUOUS
  0
LAYER
  2
RED2
  70
0
  62
1
  6
CONTINUOUS
  0
LAYER
  2
MAGENTA2
  70
0
  62
6
  6
CONTINUOUS
  0
LAYER
  2
BROWN2
  70
0
  62
54
  6
CONTINUOUS
  0
LAYER
  2
ORANGE2
  70
0
  62
42
  6
CONTINUOUS
  0
LAYER
  2
BLUE3
  70
0
  62
171
  6
CONTINUOUS
  0
LAYER
  2
GREEN3
  70
0
  62
91
  6
CONTINUOUS
  0
LAYER
  2
CYAN3
  70
0
  62
131
  6
CONTINUOUS
  0
LAYER
  2
RED3
  70
0
  62
11
  6
CONTINUOUS
  0
LAYER
  2
MAGENTA3
  70
0
  62
221
  6
CONTINUOUS
  0
LAYER
  2
YELLOW3
  70
0
  62
2
  6
CONTINUOUS
  0
LAYER
  2
ORANGE3
  70
0
  62
32
  6
CONTINUOUS
  0
LAYER
  2
BLUE4
  70
0
  62
5
  6
CONTINUOUS
  0
LAYER
  2
GREEN4
  70
0
  62
3
  6
CONTINUOUS
  0
LAYER
  2
CYAN4
  70
0
  62
4
  6
CONTINUOUS
  0
LAYER
  2
RED4
  70
0
  62
1
  6
CONTINUOUS
  0
LAYER
  2
MAGENTA4
  70
0
  62
6
  6
CONTINUOUS
  0
LAYER
  2
YELLOW4
  70
0
  62
2
  6
CONTINUOUS
  0
LAYER
  2
ORANGE4
  70
0
  62
40
  6
CONTINUOUS
  0
ENDTAB
  0
ENDSEC
  0
SECTION
  2
ENTITIES
0
CIRCLE
8
BLACK
10
39.394999999999996
20
-1.661
40
0.5
0
CIRCLE
8
BLACK
10
41.9349999999999952
20
-1.661
40
0.5
0
CIRCLE
8
BLACK
10
44.4750000000000014
20
-1.661
40
0.5
0
CIRCLE
8
BLACK
10
47.0150000000000006
20
-1.661
40
0.5
0
CIRCLE
8
BLACK
10
39.394999999999996
20
-6.7409999999999997
40
0.5
0
CIRCLE
8
BLACK
10
41.9349999999999952
20
-6.7409999999999997
40
0.5
0
CIRCLE
8
BLACK
10
44.4750000000000014
20
-6.7409999999999997
40
0.5
0
CIRCLE
8
BLACK
10
47.0150000000000006
20
-6.7409999999999997
40
0.5
0
CIRCLE
8
BLACK
10
6.3249999999999993
20
-11.4199999999999999
40
0.5
0
CIRCLE
8
BLACK
10
6.3249999999999993
20
-13.9599999999999991
40
0.5
0
CIRCLE
8
BLACK
10
6.3249999999999993
20
-16.5
40
0.5
0
CIRCLE
8
BLACK
10
6.3249999999999993
20
-19.0399999999999991
40
0.5
0
CIRCLE
8
BLACK
10
6.3249999999999993
20
-21.5799999999999983
40
0.5
0
CIRCLE
8
BLACK
10
6.3249999999999993
20
-24.1199999999999974
40
0.5
0
CIRCLE
8
BLACK
10
6.3249999999999993
20
-26.6600000000000001
40
0.5
0
CIRCLE
8
BLACK
10
6.3249999999999993
20
-29.1999999999999993
40
0.5
0
CIRCLE
8
BLACK
10
6.3249999999999993
20
-31.7399999999999984
40
0.5
0
CIRCLE
8
BLACK
10
6.3249999999999993
20
-34.2800000000000011
40
0.5
0
CIRCLE
8
BLACK
10
6.3249999999999993
20
-36.8200000000000003
40
0.5
0
CIRCLE
8
BLACK
10
6.3249999999999993
20
-39.3599999999999994
40
0.5
0
CIRCLE
8
BLACK
10
6.3249999999999993
20
-41.8999999999999986
40
0.5
0
CIRCLE
8
BLACK
10
6.3249999999999993
20
-44.4399999999999977
40
0.5
0
CIRCLE
8
BLACK
10
6.3249999999999993
20
-46.9799999999999969
40
0.5
0
CIRCLE
8
BLACK
10
6.3249999999999993
20
-49.519999999999996
40
0.5
0
CIRCLE
8
BLACK
10
6.3249999999999993
20
-52.0599999999999952
40
0.5
0
CIRCLE
8
BLACK
10
6.3249999999999993
20
-54.5999999999999943
40
0.5
0
CIRCLE
8
BLACK
10
6.3249999999999993
20
-57.1400000000000006
40
0.5
0
CIRCLE
8
BLACK
10
44.4249999999999972
20
-11.4199999999999999
40
0.5
0
CIRCLE
8
BLACK
10
44.4249999999999972
20
-13.9599999999999991
40
0.5
0
CIRCLE
8
BLACK
10
44.4249999999999972
20
-16.5
40
0.5
0
CIRCLE
8
BLACK
10
44.4249999999999972
20
-19.0399999999999991
40
0.5
0
CIRCLE
8
BLACK
10
44.4249999999999972
20
-21.5799999999999983
40
0.5
0
CIRCLE
8
BLACK
10
44.4249999999999972
20
-24.1199999999999974
40
0.5
0
CIRCLE
8
BLACK
10
44.4249999999999972
20
-26.6600000000000001
40
0.5
0
CIRCLE
8
BLACK
10
44.4249999999999972
20
-29.1999999999999993
40
0.5
0
CIRCLE
8
BLACK
10
44.4249999999999972
20
-31.7399999999999984
40
0.5
0
CIRCLE
8
BLACK
10
44.4249999999999972
20
-34.2800000000000011
40
0.5
0
CIRCLE
8
BLACK
10
44.4249999999999972
20
-36.8200000000000003
40
0.5
0
CIRCLE
8
BLACK
10
44.4249999999999972
20
-39.3599999999999994
40
0.5
0
CIRCLE
8
BLACK
10
44.4249999999999972
20
-41.8999999999999986
40
0.5
0
CIRCLE
8
BLACK
10
44.4249999999999972
20
-44.4399999999999977
40
0.5
0
CIRCLE
8
BLACK
10
44.4249999999999972
20
-46.9799999999999969
40
0.5
0
CIRCLE
8
BLACK
10
44.4249999999999972
20
-49.519999999999996
40
0.5
0
CIRCLE
8
BLACK
10
44.4249999999999972
20
-52.0599999999999952
40
0.5
0
CIRCLE
8
BLACK
10
44.4249999999999972
20
-54.5999999999999943
40
0.5
0
CIRCLE
8
BLACK
10
44.4249999999999972
20
-57.1400000000000006
40
0.5
0
CIRCLE
8
BLACK
10
46.9899999999999949
20
-11.4299999999999997
40
0.5
0
CIRCLE
8
BLACK
10
46.9899999999999949
20
-13.9699999999999989
40
0.5
0
CIRCLE
8
BLACK
10
46.9899999999999949
20
-16.509999999999998
40
0.5
0
CIRCLE
8
BLACK
10
46.9899999999999949
20
-19.0500000000000007
40
0.5
0
CIRCLE
8
BLACK
10
46.9899999999999949
20
-21.5899999999999999
40
0.5
0
CIRCLE
8
BLACK
10
46.9899999999999949
20
-24.129999999999999
40
0.5
0
CIRCLE
8
BLACK
10
46.9899999999999949
20
-26.6699999999999982
40
0.5
0
CIRCLE
8
BLACK
10
46.9899999999999949
20
-29.2099999999999973
40
0.5
0
CIRCLE
8
BLACK
10
46.9899999999999949
20
-31.75
40
0.5
0
CIRCLE
8
BLACK
10
46.9899999999999949
20
-34.2899999999999991
40
0.5
0
CIRCLE
8
BLACK
10
46.9899999999999949
20
-36.8299999999999983
40
0.5
0
CIRCLE
8
BLACK
10
46.9899999999999949
20
-39.3699999999999974
40
0.5
0
CIRCLE
8
BLACK
10
46.9899999999999949
20
-41.9099999999999966
40
0.5
0
CIRCLE
8
BLACK
10
46.9899999999999949
20
-44.4499999999999957
40
0.5
0
CIRCLE
8
BLACK
10
46.9899999999999949
20
-46.9899999999999949
40
0.5
0
CIRCLE
8
BLACK
10
46.9899999999999949
20
-49.5300000000000011
40
0.5
0
CIRCLE
8
BLACK
10
46.9899999999999949
20
-52.0700000000000003
40
0.5
0
CIRCLE
8
BLACK
10
46.9899999999999949
20
-54.6099999999999994
40
0.5
0
CIRCLE
8
BLACK
10
46.9899999999999949
20
-57.1499999999999986
40
0.5
0
CIRCLE
8
BLACK
10
41.8599999999999994
20
-57.1299999999999955
40
0.5
0
CIRCLE
8
BLACK
10
41.8599999999999994
20
-54.5899999999999963
40
0.5
0
CIRCLE
8
BLACK
10
41.8599999999999994
20
-52.0499999999999972
40
0.5
0
CIRCLE
8
BLACK
10
41.8599999999999994
20
-49.509999999999998
40
0.5
0
CIRCLE
8
BLACK
10
41.8599999999999994
20
-46.9699999999999989
40
0.5
0
CIRCLE
8
BLACK
10
41.8599999999999994
20
-44.4299999999999997
40
0.5
0
CIRCLE
8
BLACK
10
41.8599999999999994
20
-41.8900000000000006
40
0.5
0
CIRCLE
8
BLACK
10
41.8599999999999994
20
-39.3500000000000014
40
0.5
0
CIRCLE
8
BLACK
10
41.8599999999999994
20
-36.8099999999999952
40
0.5
0
CIRCLE
8
BLACK
10
41.8599999999999994
20
-34.269999999999996
40
0.5
0
CIRCLE
8
BLACK
10
41.8599999999999994
20
-31.7299999999999969
40
0.5
0
CIRCLE
8
BLACK
10
41.8599999999999994
20
-29.1899999999999977
40
0.5
0
CIRCLE
8
BLACK
10
41.8599999999999994
20
-26.6499999999999986
40
0.5
0
CIRCLE
8
BLACK
10
41.8599999999999994
20
-24.1099999999999994
40
0.5
0
CIRCLE
8
BLACK
10
41.8599999999999994
20
-21.5700000000000003
40
0.5
0
CIRCLE
8
BLACK
10
41.8599999999999994
20
-19.0299999999999976
40
0.5
0
CIRCLE
8
BLACK
10
41.8599999999999994
20
-16.4899999999999984
40
0.5
0
CIRCLE
8
BLACK
10
41.8599999999999994
20
-13.9499999999999993
40
0.5
0
CIRCLE
8
BLACK
10
41.8599999999999994
20
-11.4100000000000001
40
0.5
0
CIRCLE
8
BLACK
10
8.8650000000000002
20
-11.4199999999999999
40
0.5
0
CIRCLE
8
BLACK
10
8.8650000000000002
20
-13.9599999999999991
40
0.5
0
CIRCLE
8
BLACK
10
8.8650000000000002
20
-16.5
40
0.5
0
CIRCLE
8
BLACK
10
8.8650000000000002
20
-19.0399999999999991
40
0.5
0
CIRCLE
8
BLACK
10
8.8650000000000002
20
-21.5799999999999983
40
0.5
0
CIRCLE
8
BLACK
10
8.8650000000000002
20
-24.1199999999999974
40
0.5
0
CIRCLE
8
BLACK
10
8.8650000000000002
20
-26.6600000000000001
40
0.5
0
CIRCLE
8
BLACK
10
8.8650000000000002
20
-29.1999999999999993
40
0.5
0
CIRCLE
8
BLACK
10
8.8650000000000002
20
-31.7399999999999984
40
0.5
0
CIRCLE
8
BLACK
10
8.8650000000000002
20
-34.2800000000000011
40
0.5
0
CIRCLE
8
BLACK
10
8.8650000000000002
20
-36.8200000000000003
40
0.5
0
CIRCLE
8
BLACK
10
8.8650000000000002
20
-39.3599999999999994
40
0.5
0
CIRCLE
8
BLACK
10
8.8650000000000002
20
-41.8999999999999986
40
0.5
0
CIRCLE
8
BLACK
10
8.8650000000000002
20
-44.4399999999999977
40
0.5
0
CIRCLE
8
BLACK
10
8.8650000000000002
20
-46.9799999999999969
40
0.5
0
CIRCLE
8
BLACK
10
8.8650000000000002
20
-49.519999999999996
40
0.5
0
CIRCLE
8
BLACK
10
8.8650000000000002
20
-52.0599999999999952
40
0.5
0
CIRCLE
8
BLACK
10
8.8650000000000002
20
-54.5999999999999943
40
0.5
0
CIRCLE
8
BLACK
10
8.8650000000000002
20
-57.1400000000000006
40
0.5
0
CIRCLE
8
BLACK
10
39.394999999999996
20
-4.2009999999999996
40
0.5
0
CIRCLE
8
BLACK
10
41.9349999999999952
20
-4.2009999999999996
40
0.5
0
CIRCLE
8
BLACK
10
44.4750000000000014
20
-4.2009999999999996
40
0.5
0
CIRCLE
8
BLACK
10
47.0150000000000006
20
-4.2009999999999996
40
0.5
0
CIRCLE
8
BLACK
10
13.9699999999999989
20
-4.4449999999999994
40
0.5
0
CIRCLE
8
BLACK
10
11.4299999999999997
20
-4.4449999999999994
40
0.5
0
CIRCLE
8
BLACK
10
8.8899999999999988
20
-4.4449999999999994
40
0.5
0
CIRCLE
8
BLACK
10
6.3499999999999996
20
-4.4449999999999994
40
0.5
0
CIRCLE
8
BLACK
10
15.2149999999999999
20
-11.4199999999999999
40
0.3937
0
CIRCLE
8
BLACK
10
15.2149999999999999
20
-13.9599999999999991
40
0.3937
0
CIRCLE
8
BLACK
10
15.2149999999999999
20
-16.5
40
0.3937
0
CIRCLE
8
BLACK
10
15.2149999999999999
20
-19.0399999999999991
40
0.3937
0
CIRCLE
8
BLACK
10
15.2149999999999999
20
-21.5799999999999983
40
0.3937
0
CIRCLE
8
BLACK
10
15.2149999999999999
20
-24.1199999999999974
40
0.3937
0
CIRCLE
8
BLACK
10
15.2149999999999999
20
-26.6600000000000001
40
0.3937
0
CIRCLE
8
BLACK
10
15.2149999999999999
20
-29.1999999999999993
40
0.3937
0
CIRCLE
8
BLACK
10
15.2149999999999999
20
-31.7399999999999984
40
0.3937
0
CIRCLE
8
BLACK
10
15.2149999999999999
20
-34.2800000000000011
40
0.3937
0
CIRCLE
8
BLACK
10
15.2149999999999999
20
-36.8200000000000003
40
0.3937
0
CIRCLE
8
BLACK
10
15.2149999999999999
20
-39.3599999999999994
40
0.3937
0
CIRCLE
8
BLACK
10
15.2149999999999999
20
-41.8999999999999986
40
0.3937
0
CIRCLE
8
BLACK
10
15.2149999999999999
20
-44.4399999999999977
40
0.3937
0
CIRCLE
8
BLACK
10
15.2149999999999999
20
-46.9799999999999969
40
0.3937
0
CIRCLE
8
BLACK
10
15.2149999999999999
20
-49.519999999999996
40
0.3937
0
CIRCLE
8
BLACK
10
15.2149999999999999
20
-52.0599999999999952
40
0.3937
0
CIRCLE
8
BLACK
10
15.2149999999999999
20
-54.5999999999999943
40
0.3937
0
CIRCLE
8
BLACK
10
15.2149999999999999
20
-57.1400000000000006
40
0.3937
0
CIRCLE
8
BLACK
10
38.0749999999999957
20
-11.4199999999999999
40
0.3937
0
CIRCLE
8
BLACK
10
38.0749999999999957
20
-13.9599999999999991
40
0.3937
0
CIRCLE
8
BLACK
10
38.0749999999999957
20
-16.5
40
0.3937
0
CIRCLE
8
BLACK
10
38.0749999999999957
20
-19.0399999999999991
40
0.3937
0
CIRCLE
8
BLACK
10
38.0749999999999957
20
-21.5799999999999983
40
0.3937
0
CIRCLE
8
BLACK
10
38.0749999999999957
20
-24.1199999999999974
40
0.3937
0
CIRCLE
8
BLACK
10
38.0749999999999957
20
-26.6600000000000001
40
0.3937
0
CIRCLE
8
BLACK
10
38.0749999999999957
20
-29.1999999999999993
40
0.3937
0
CIRCLE
8
BLACK
10
38.0749999999999957
20
-31.7399999999999984
40
0.3937
0
CIRCLE
8
BLACK
10
38.0749999999999957
20
-34.2800000000000011
40
0.3937
0
CIRCLE
8
BLACK
10
38.0749999999999957
20
-36.8200000000000003
40
0.3937
0
CIRCLE
8
BLACK
10
38.0749999999999957
20
-39.3599999999999994
40
0.3937
0
CIRCLE
8
BLACK
10
38.0749999999999957
20
-41.8999999999999986
40
0.3937
0
CIRCLE
8
BLACK
10
38.0749999999999957
20
-44.4399999999999977
40
0.3937
0
CIRCLE
8
BLACK
10
38.0749999999999957
20
-46.9799999999999969
40
0.3937
0
CIRCLE
8
BLACK
10
38.0749999999999957
20
-49.519999999999996
40
0.3937
0
CIRCLE
8
BLACK
10
38.0749999999999957
20
-52.0599999999999952
40
0.3937
0
CIRCLE
8
BLACK
10
38.0749999999999957
20
-54.5999999999999943
40
0.3937
0
CIRCLE
8
BLACK
10
38.0749999999999957
20
-57.1400000000000006
40
0.3937
0
CIRCLE
8
BLACK
10
11.4299999999999997
20
-11.4299999999999997
40
0.5
0
CIRCLE
8
BLACK
10
11.4299999999999997
20
-13.9699999999999989
40
0.5
0
CIRCLE
8
BLACK
10
11.4299999999999997
20
-16.509999999999998
40
0.5
0
CIRCLE
8
BLACK
10
11.4299999999999997
20
-19.0500000000000007
40
0.5
0
CIRCLE
8
BLACK
10
11.4299999999999997
20
-21.5899999999999999
40
0.5
0
CIRCLE
8
BLACK
10
11.4299999999999997
20
-24.129999999999999
40
0.5
0
CIRCLE
8
BLACK
10
11.4299999999999997
20
-26.6699999999999982
40
0.5
0
CIRCLE
8
BLACK
10
11.4299999999999997
20
-29.2099999999999973
40
0.5
0
CIRCLE
8
BLACK
10
11.4299999999999997
20
-31.75
40
0.5
0
CIRCLE
8
BLACK
10
11.4299999999999997
20
-34.2899999999999991
40
0.5
0
CIRCLE
8
BLACK
10
11.4299999999999997
20
-36.8299999999999983
40
0.5
0
CIRCLE
8
BLACK
10
11.4299999999999997
20
-39.3699999999999974
40
0.5
0
CIRCLE
8
BLACK
10
11.4299999999999997
20
-41.9099999999999966
40
0.5
0
CIRCLE
8
BLACK
10
11.4299999999999997
20
-44.4499999999999957
40
0.5
0
CIRCLE
8
BLACK
10
11.4299999999999997
20
-46.9899999999999949
40
0.5
0
CIRCLE
8
BLACK
10
11.4299999999999997
20
-49.5300000000000011
40
0.5
0
CIRCLE
8
BLACK
10
11.4299999999999997
20
-52.0700000000000003
40
0.5
0
CIRCLE
8
BLACK
10
11.4299999999999997
20
-54.6099999999999994
40
0.5
0
CIRCLE
8
BLACK
10
11.4299999999999997
20
-57.1499999999999986
40
0.5
  0
ENDSEC
  0
EOF
