  0
SECTION
  2
HEADER
  9
$ANGBASE
  50
0.0
  9
$ANGDIR
  70
1
  9
$MEASUREMENT
  70
1
  0
ENDSEC
  0
SECTION
  2
TABLES
  0
TABLE
  2
LTYPE
  70
4
  0
LTYPE
  5
40F
  2
CONTINUOUS
  70
0
  3
Solid line
  72
65
  73
0
  40
0.0
  0
LTYPE
  5
410
  2
DASHDOT
 70
0
  3
Dash Dot ____ _ ____ _
 72
65
 73
4
 40
2.0
 49
1.25
 49
-0.25
 49
0.25
 49
-0.25
  0
LTYPE
  5
411
  2
DASHED
 70
0
  3
Dashed __ __ __ __ __
 72
65
 73
2
 40
0.75
 49
0.5
 49
-0.25
  0
LTYPE
  5
43B
  2
DOTTED
 70
0
  3
Dotted .  .  .  .
 72
65
 73
2
 40
0.2
 49
0.0
 49
-0.2
  0
ENDTAB
  0
TABLE
  2
STYLE
  70
4
  0
STYLE
  2
KICAD
  70
0
  40
0
  41
1
  42
1
  50
0
  71
0
  3
isocp.shx
  0
STYLE
  2
KICADB
  70
0
  40
0
  41
1
  42
1
  50
0
  71
0
  3
isocp.shx
  0
STYLE
  2
KICADI
  70
0
  40
0
  41
1
  42
1
  50
15
  71
0
  3
isocp.shx
  0
STYLE
  2
KICADBI
  70
0
  40
0
  41
1
  42
1
  50
15
  71
0
  3
isocp.shx
  0
ENDTAB
  0
TABLE
  2
LAYER
  70
35
  0
LAYER
  2
BLACK
  70
0
  62
7
  6
CONTINUOUS
  0
LAYER
  2
GRAY1
  70
0
  62
251
  6
CONTINUOUS
  0
LAYER
  2
GRAY2
  70
0
  62
8
  6
CONTINUOUS
  0
LAYER
  2
GRAY3
  70
0
  62
9
  6
CONTINUOUS
  0
LAYER
  2
WHITE
  70
0
  62
7
  6
CONTINUOUS
  0
LAYER
  2
LYELLOW
  70
0
  62
51
  6
CONTINUOUS
  0
LAYER
  2
LORANGE
  70
0
  62
41
  6
CONTINUOUS
  0
LAYER
  2
BLUE1
  70
0
  62
178
  6
CONTINUOUS
  0
LAYER
  2
GREEN1
  70
0
  62
98
  6
CONTINUOUS
  0
LAYER
  2
CYAN1
  70
0
  62
138
  6
CONTINUOUS
  0
LAYER
  2
RED1
  70
0
  62
18
  6
CONTINUOUS
  0
LAYER
  2
MAGENTA1
  70
0
  62
228
  6
CONTINUOUS
  0
LAYER
  2
BROWN1
  70
0
  62
58
  6
CONTINUOUS
  0
LAYER
  2
ORANGE1
  70
0
  62
34
  6
CONTINUOUS
  0
LAYER
  2
BLUE2
  70
0
  62
5
  6
CONTINUOUS
  0
LAYER
  2
GREEN2
  70
0
  62
3
  6
CONTINUOUS
  0
LAYER
  2
CYAN2
  70
0
  62
4
  6
CONTINUOUS
  0
LAYER
  2
RED2
  70
0
  62
1
  6
CONTINUOUS
  0
LAYER
  2
MAGENTA2
  70
0
  62
6
  6
CONTINUOUS
  0
LAYER
  2
BROWN2
  70
0
  62
54
  6
CONTINUOUS
  0
LAYER
  2
ORANGE2
  70
0
  62
42
  6
CONTINUOUS
  0
LAYER
  2
BLUE3
  70
0
  62
171
  6
CONTINUOUS
  0
LAYER
  2
GREEN3
  70
0
  62
91
  6
CONTINUOUS
  0
LAYER
  2
CYAN3
  70
0
  62
131
  6
CONTINUOUS
  0
LAYER
  2
RED3
  70
0
  62
11
  6
CONTINUOUS
  0
LAYER
  2
MAGENTA3
  70
0
  62
221
  6
CONTINUOUS
  0
LAYER
  2
YELLOW3
  70
0
  62
2
  6
CONTINUOUS
  0
LAYER
  2
ORANGE3
  70
0
  62
32
  6
CONTINUOUS
  0
LAYER
  2
BLUE4
  70
0
  62
5
  6
CONTINUOUS
  0
LAYER
  2
GREEN4
  70
0
  62
3
  6
CONTINUOUS
  0
LAYER
  2
CYAN4
  70
0
  62
4
  6
CONTINUOUS
  0
LAYER
  2
RED4
  70
0
  62
1
  6
CONTINUOUS
  0
LAYER
  2
MAGENTA4
  70
0
  62
6
  6
CONTINUOUS
  0
LAYER
  2
YELLOW4
  70
0
  62
2
  6
CONTINUOUS
  0
LAYER
  2
ORANGE4
  70
0
  62
40
  6
CONTINUOUS
  0
ENDTAB
  0
ENDSEC
  0
SECTION
  2
ENTITIES
0
CIRCLE
8
BLACK
10
8.8710079999999998
20
-31.7446509999999975
40
0.5
0
CIRCLE
8
BLACK
10
6.3310079999999997
20
-31.7446509999999975
40
0.5
0
CIRCLE
8
BLACK
10
3.7910079999999997
20
-31.7446509999999975
40
0.5
0
CIRCLE
8
BLACK
10
44.4499999999999957
20
-9.0169999999999995
40
0.5
0
CIRCLE
8
BLACK
10
46.9899999999999949
20
-9.0169999999999995
40
0.5
0
CIRCLE
8
BLACK
10
49.5300000000000011
20
-9.0169999999999995
40
0.5
0
CIRCLE
8
BLACK
10
52.0700000000000003
20
-9.0169999999999995
40
0.5
0
CIRCLE
8
BLACK
10
44.4499999999999957
20
-16.509999999999998
40
0.5
0
CIRCLE
8
BLACK
10
46.9899999999999949
20
-16.509999999999998
40
0.5
0
CIRCLE
8
BLACK
10
49.5300000000000011
20
-16.509999999999998
40
0.5
0
CIRCLE
8
BLACK
10
52.0700000000000003
20
-16.509999999999998
40
0.5
0
CIRCLE
8
BLACK
10
44.4499999999999957
20
-5.3339999999999996
40
0.5
0
CIRCLE
8
BLACK
10
46.9899999999999949
20
-5.3339999999999996
40
0.5
0
CIRCLE
8
BLACK
10
49.5300000000000011
20
-5.3339999999999996
40
0.5
0
CIRCLE
8
BLACK
10
52.0700000000000003
20
-5.3339999999999996
40
0.5
0
CIRCLE
8
BLACK
10
8.1086549999999988
20
-54.090010999999997
40
0.5
0
CIRCLE
8
BLACK
10
5.5686549999999997
20
-54.090010999999997
40
0.5
0
CIRCLE
8
BLACK
10
3.0286549999999997
20
-54.090010999999997
40
0.5
0
CIRCLE
8
BLACK
10
17.0180000000000007
20
-5.2069999999999999
40
0.5
0
CIRCLE
8
BLACK
10
19.5579999999999998
20
-5.2069999999999999
40
0.5
0
CIRCLE
8
BLACK
10
22.097999999999999
20
-5.2069999999999999
40
0.5
0
CIRCLE
8
BLACK
10
45.7199999999999989
20
-52.0700000000000003
40
0.5
0
CIRCLE
8
BLACK
10
48.259999999999998
20
-52.0700000000000003
40
0.5
0
CIRCLE
8
BLACK
10
50.7999999999999972
20
-52.0700000000000003
40
0.5
0
CIRCLE
8
BLACK
10
8.1086549999999988
20
-57.6460109999999943
40
0.5
0
CIRCLE
8
BLACK
10
5.5686549999999997
20
-57.6460109999999943
40
0.5
0
CIRCLE
8
BLACK
10
3.0286549999999997
20
-57.6460109999999943
40
0.5
0
CIRCLE
8
BLACK
10
8.8710079999999998
20
-13.9646509999999999
40
0.5
0
CIRCLE
8
BLACK
10
6.3310079999999997
20
-13.9646509999999999
40
0.5
0
CIRCLE
8
BLACK
10
3.7910079999999997
20
-13.9646509999999999
40
0.5
0
CIRCLE
8
BLACK
10
8.8710079999999998
20
-20.9496509999999994
40
0.5
0
CIRCLE
8
BLACK
10
6.3310079999999997
20
-20.9496509999999994
40
0.5
0
CIRCLE
8
BLACK
10
3.7910079999999997
20
-20.9496509999999994
40
0.5
0
CIRCLE
8
BLACK
10
44.4499999999999957
20
-12.6999999999999993
40
0.5
0
CIRCLE
8
BLACK
10
46.9899999999999949
20
-12.6999999999999993
40
0.5
0
CIRCLE
8
BLACK
10
49.5300000000000011
20
-12.6999999999999993
40
0.5
0
CIRCLE
8
BLACK
10
52.0700000000000003
20
-12.6999999999999993
40
0.5
0
CIRCLE
8
BLACK
10
48.894999999999996
20
-20.3200000000000003
40
0.5
0
CIRCLE
8
BLACK
10
48.894999999999996
20
-22.8599999999999994
40
0.5
0
CIRCLE
8
BLACK
10
48.894999999999996
20
-25.3999999999999986
40
0.5
0
CIRCLE
8
BLACK
10
48.894999999999996
20
-27.9399999999999977
40
0.5
0
CIRCLE
8
BLACK
10
48.894999999999996
20
-30.4799999999999969
40
0.5
0
CIRCLE
8
BLACK
10
48.894999999999996
20
-33.019999999999996
40
0.5
0
CIRCLE
8
BLACK
10
45.7199999999999989
20
-55.8799999999999955
40
0.5
0
CIRCLE
8
BLACK
10
48.259999999999998
20
-55.8799999999999955
40
0.5
0
CIRCLE
8
BLACK
10
50.7999999999999972
20
-55.8799999999999955
40
0.5
0
CIRCLE
8
BLACK
10
8.8710079999999998
20
-17.7746509999999986
40
0.5
0
CIRCLE
8
BLACK
10
6.3310079999999997
20
-17.7746509999999986
40
0.5
0
CIRCLE
8
BLACK
10
3.7910079999999997
20
-17.7746509999999986
40
0.5
0
CIRCLE
8
BLACK
10
45.7199999999999989
20
-36.8299999999999983
40
0.5
0
CIRCLE
8
BLACK
10
48.259999999999998
20
-36.8299999999999983
40
0.5
0
CIRCLE
8
BLACK
10
50.7999999999999972
20
-36.8299999999999983
40
0.5
0
CIRCLE
8
BLACK
10
7.3369819999999999
20
-49.7654609999999948
40
0.5
0
CIRCLE
8
BLACK
10
7.3369819999999999
20
-47.2254609999999957
40
0.5
0
CIRCLE
8
BLACK
10
7.3369819999999999
20
-44.6854609999999965
40
0.5
0
CIRCLE
8
BLACK
10
7.3369819999999999
20
-42.1454609999999974
40
0.5
0
CIRCLE
8
BLACK
10
7.3369819999999999
20
-39.6054609999999983
40
0.5
0
CIRCLE
8
BLACK
10
7.3369819999999999
20
-37.0654609999999991
40
0.5
0
CIRCLE
8
BLACK
10
30.4799999999999969
20
-5.0800000000000001
40
0.5
0
CIRCLE
8
BLACK
10
33.019999999999996
20
-5.0800000000000001
40
0.5
0
CIRCLE
8
BLACK
10
35.5599999999999952
20
-5.0800000000000001
40
0.5
0
CIRCLE
8
BLACK
10
38.1000000000000014
20
-5.0800000000000001
40
0.5
0
CIRCLE
8
BLACK
10
8.8710079999999998
20
-27.9346509999999988
40
0.5
0
CIRCLE
8
BLACK
10
6.3310079999999997
20
-27.9346509999999988
40
0.5
0
CIRCLE
8
BLACK
10
3.7910079999999997
20
-27.9346509999999988
40
0.5
0
CIRCLE
8
BLACK
10
15.2399999999999984
20
-10.1600000000000001
40
0.3937
0
CIRCLE
8
BLACK
10
15.2399999999999984
20
-12.6999999999999993
40
0.3937
0
CIRCLE
8
BLACK
10
15.2399999999999984
20
-15.2399999999999984
40
0.3937
0
CIRCLE
8
BLACK
10
15.2399999999999984
20
-17.7799999999999976
40
0.3937
0
CIRCLE
8
BLACK
10
15.2399999999999984
20
-20.3200000000000003
40
0.3937
0
CIRCLE
8
BLACK
10
15.2399999999999984
20
-22.8599999999999994
40
0.3937
0
CIRCLE
8
BLACK
10
15.2399999999999984
20
-25.3999999999999986
40
0.3937
0
CIRCLE
8
BLACK
10
15.2399999999999984
20
-27.9399999999999977
40
0.3937
0
CIRCLE
8
BLACK
10
15.2399999999999984
20
-30.4799999999999969
40
0.3937
0
CIRCLE
8
BLACK
10
15.2399999999999984
20
-33.019999999999996
40
0.3937
0
CIRCLE
8
BLACK
10
15.2399999999999984
20
-35.5599999999999952
40
0.3937
0
CIRCLE
8
BLACK
10
15.2399999999999984
20
-38.1000000000000014
40
0.3937
0
CIRCLE
8
BLACK
10
15.2399999999999984
20
-40.6400000000000006
40
0.3937
0
CIRCLE
8
BLACK
10
15.2399999999999984
20
-43.1799999999999997
40
0.3937
0
CIRCLE
8
BLACK
10
15.2399999999999984
20
-45.7199999999999989
40
0.3937
0
CIRCLE
8
BLACK
10
15.2399999999999984
20
-48.259999999999998
40
0.3937
0
CIRCLE
8
BLACK
10
15.2399999999999984
20
-50.7999999999999972
40
0.3937
0
CIRCLE
8
BLACK
10
15.2399999999999984
20
-53.3399999999999963
40
0.3937
0
CIRCLE
8
BLACK
10
15.2399999999999984
20
-55.8799999999999955
40
0.3937
0
CIRCLE
8
BLACK
10
38.1000000000000014
20
-10.1600000000000001
40
0.3937
0
CIRCLE
8
BLACK
10
38.1000000000000014
20
-12.6999999999999993
40
0.3937
0
CIRCLE
8
BLACK
10
38.1000000000000014
20
-15.2399999999999984
40
0.3937
0
CIRCLE
8
BLACK
10
38.1000000000000014
20
-17.7799999999999976
40
0.3937
0
CIRCLE
8
BLACK
10
38.1000000000000014
20
-20.3200000000000003
40
0.3937
0
CIRCLE
8
BLACK
10
38.1000000000000014
20
-22.8599999999999994
40
0.3937
0
CIRCLE
8
BLACK
10
38.1000000000000014
20
-25.3999999999999986
40
0.3937
0
CIRCLE
8
BLACK
10
38.1000000000000014
20
-27.9399999999999977
40
0.3937
0
CIRCLE
8
BLACK
10
38.1000000000000014
20
-30.4799999999999969
40
0.3937
0
CIRCLE
8
BLACK
10
38.1000000000000014
20
-33.019999999999996
40
0.3937
0
CIRCLE
8
BLACK
10
38.1000000000000014
20
-35.5599999999999952
40
0.3937
0
CIRCLE
8
BLACK
10
38.1000000000000014
20
-38.1000000000000014
40
0.3937
0
CIRCLE
8
BLACK
10
38.1000000000000014
20
-40.6400000000000006
40
0.3937
0
CIRCLE
8
BLACK
10
38.1000000000000014
20
-43.1799999999999997
40
0.3937
0
CIRCLE
8
BLACK
10
38.1000000000000014
20
-45.7199999999999989
40
0.3937
0
CIRCLE
8
BLACK
10
38.1000000000000014
20
-48.259999999999998
40
0.3937
0
CIRCLE
8
BLACK
10
38.1000000000000014
20
-50.7999999999999972
40
0.3937
0
CIRCLE
8
BLACK
10
38.1000000000000014
20
-53.3399999999999963
40
0.3937
0
CIRCLE
8
BLACK
10
38.1000000000000014
20
-55.8799999999999955
40
0.3937
0
CIRCLE
8
BLACK
10
45.7199999999999989
20
-44.4499999999999957
40
0.5
0
CIRCLE
8
BLACK
10
48.259999999999998
20
-44.4499999999999957
40
0.5
0
CIRCLE
8
BLACK
10
50.7999999999999972
20
-44.4499999999999957
40
0.5
0
CIRCLE
8
BLACK
10
8.8710079999999998
20
-24.7596509999999981
40
0.5
0
CIRCLE
8
BLACK
10
6.3310079999999997
20
-24.7596509999999981
40
0.5
0
CIRCLE
8
BLACK
10
3.7910079999999997
20
-24.7596509999999981
40
0.5
0
CIRCLE
8
BLACK
10
45.7199999999999989
20
-48.259999999999998
40
0.5
0
CIRCLE
8
BLACK
10
48.259999999999998
20
-48.259999999999998
40
0.5
0
CIRCLE
8
BLACK
10
50.7999999999999972
20
-48.259999999999998
40
0.5
0
CIRCLE
8
BLACK
10
45.7199999999999989
20
-40.6400000000000006
40
0.5
0
CIRCLE
8
BLACK
10
48.259999999999998
20
-40.6400000000000006
40
0.5
0
CIRCLE
8
BLACK
10
50.7999999999999972
20
-40.6400000000000006
40
0.5
  0
ENDSEC
  0
EOF
