<?xml version="1.0" standalone="no"?>
 <!DOCTYPE svg PUBLIC "-//W3C//DTD SVG 1.1//EN" 
 "http://www.w3.org/Graphics/SVG/1.1/DTD/svg11.dtd"> 
<svg
  xmlns:svg="http://www.w3.org/2000/svg"
  xmlns="http://www.w3.org/2000/svg"
  xmlns:xlink="http://www.w3.org/1999/xlink"
  version="1.1"
  width="31.1150mm" height="26.0350mm" viewBox="0.0000 0.0000 31.1150 26.0350">
<title>SVG Image created as front.svg date 2025/12/20 17:09:41 </title>
  <desc>Image generated by PCBNEW </desc>
<g style="fill:#000000; fill-opacity:1.0000;stroke:#000000; stroke-opacity:1.0000;
stroke-linecap:round; stroke-linejoin:round;"
 transform="translate(0 0) scale(1 1)">
</g>
<g style="fill:#000000; fill-opacity:1.0000; 
stroke:#000000; stroke-width:0.0212; stroke-opacity:1; 
stroke-linecap:round; stroke-linejoin:round;">
<rect x="-6.363250" y="-5.053250" width="43.801500" height="36.113250" rx="0.000000" />
</g>
<g style="fill:#FFFFFF; fill-opacity:1.0000; stroke:none;">
<circle cx="7.6200" cy="20.9550" r="1.0160" /> 
</g>
<g style="fill:#FFFFFF; fill-opacity:1.0000; stroke:none;">
<circle cx="7.6200" cy="18.4150" r="1.0160" /> 
</g>
<g style="fill:#FFFFFF; fill-opacity:1.0000; stroke:none;">
<circle cx="7.6200" cy="15.8750" r="1.0160" /> 
</g>
<g style="fill:#FFFFFF; fill-opacity:1.0000; stroke:none;">
<circle cx="7.6200" cy="13.3350" r="0.5080" /> 
</g>
<g style="fill:#FFFFFF; fill-opacity:1.0000; stroke:none;">
<circle cx="7.6200" cy="10.7950" r="0.5080" /> 
</g>
<g style="fill:#FFFFFF; fill-opacity:1.0000; stroke:none;">
<circle cx="7.6200" cy="8.2550" r="0.5080" /> 
</g>
<g style="fill:#FFFFFF; fill-opacity:1.0000; stroke:none;">
<circle cx="7.6200" cy="5.7150" r="0.5080" /> 
</g>
<g style="fill:#FFFFFF; fill-opacity:1.0000; stroke:none;">
<circle cx="7.6200" cy="3.1750" r="1.0160" /> 
</g>
<g style="fill:#FFFFFF; fill-opacity:1.0000; stroke:none;">
<circle cx="29.2100" cy="18.4150" r="1.0160" /> 
</g>
<g style="fill:#FFFFFF; fill-opacity:1.0000; stroke:none;">
<circle cx="26.6700" cy="18.4150" r="1.0160" /> 
</g>
<g style="fill:#FFFFFF; fill-opacity:1.0000; stroke:none;">
<circle cx="24.1300" cy="18.4150" r="1.0160" /> 
</g>
<g style="fill:#FFFFFF; fill-opacity:1.0000; stroke:none;">
<circle cx="21.5900" cy="18.4150" r="1.0160" /> 
</g>
<g style="fill:#FFFFFF; fill-opacity:1.0000; stroke:none;">
<circle cx="19.0500" cy="18.4150" r="1.0160" /> 
<path style="fill:#FFFFFF; fill-opacity:1.0000; stroke:none;fill-rule:evenodd;"
d="M 15.4940,17.3990
17.5260,17.3990
17.5260,19.4310
15.4940,19.4310
Z" /> 
<path style="fill:#FFFFFF; fill-opacity:1.0000; stroke:none;fill-rule:evenodd;"
d="M 3.3890,2.1990
5.4210,2.1990
5.4210,4.2310
3.3890,4.2310
Z" /> 
</g>
<g style="fill:#FFFFFF; fill-opacity:1.0000; stroke:none;">
<circle cx="1.8650" cy="3.2150" r="1.0160" /> 
<path style="fill:#FFFFFF; fill-opacity:1.0000; stroke:none;fill-rule:evenodd;"
d="M 14.3510,12.3190
14.3510,14.3510
12.3190,14.3510
12.3190,12.3190
Z" /> 
</g>
<g style="fill:#FFFFFF; fill-opacity:1.0000; stroke:none;">
<circle cx="10.8350" cy="13.3350" r="1.0160" /> 
<path style="fill:#FFFFFF; fill-opacity:1.0000; stroke:none;fill-rule:evenodd;"
d="M 14.3510,7.2390
14.3510,9.2710
12.3190,9.2710
12.3190,7.2390
Z" /> 
</g>
<g style="fill:#FFFFFF; fill-opacity:1.0000; stroke:none;">
<circle cx="10.8350" cy="8.2550" r="1.0160" /> 
</g>
<g style="fill:none; 
stroke:#FFFFFF; stroke-width:1.0160; stroke-opacity:1; 
stroke-linecap:round; stroke-linejoin:round;">
<path d="M1.0090 24.5040
L1.2700 24.7650
" />
</g>
<g style="fill:none; 
stroke:#FFFFFF; stroke-width:1.2700; stroke-opacity:1; 
stroke-linecap:round; stroke-linejoin:round;">
<path d="M1.0160 25.0190
L28.9560 25.0190
" />
</g>
<g style="fill:none; 
stroke:#FFFFFF; stroke-width:1.0160; stroke-opacity:1; 
stroke-linecap:round; stroke-linejoin:round;">
<path d="M30.1060 1.0230
L30.1060 18.2880
" />
</g>
<g style="fill:none; 
stroke:#FFFFFF; stroke-width:1.2700; stroke-opacity:1; 
stroke-linecap:round; stroke-linejoin:round;">
<path d="M1.0090 10.1600
L1.0090 11.4300
" />
</g>
<g style="fill:none; 
stroke:#FFFFFF; stroke-width:1.0160; stroke-opacity:1; 
stroke-linecap:round; stroke-linejoin:round;">
<path d="M30.0920 1.0090
L30.1060 1.0230
" />
<path d="M29.3370 18.2880
L29.2100 18.4150
" />
</g>
<g style="fill:none; 
stroke:#FFFFFF; stroke-width:1.5240; stroke-opacity:1; 
stroke-linecap:round; stroke-linejoin:round;">
<path d="M1.0090 10.1600
L1.6440 9.5250
" />
</g>
<g style="fill:none; 
stroke:#FFFFFF; stroke-width:1.0160; stroke-opacity:1; 
stroke-linecap:round; stroke-linejoin:round;">
<path d="M1.8650 3.2150
L1.8650 1.3100
" />
</g>
<g style="fill:none; 
stroke:#FFFFFF; stroke-width:0.5080; stroke-opacity:1; 
stroke-linecap:round; stroke-linejoin:round;">
<path d="M1.6440 12.0650
L9.5650 12.0650
" />
</g>
<g style="fill:none; 
stroke:#FFFFFF; stroke-width:1.0160; stroke-opacity:1; 
stroke-linecap:round; stroke-linejoin:round;">
<path d="M1.8650 1.3100
L2.1660 1.0090
" />
<path d="M30.1060 25.0260
L29.0830 25.0260
" />
</g>
<g style="fill:none; 
stroke:#FFFFFF; stroke-width:0.5080; stroke-opacity:1; 
stroke-linecap:round; stroke-linejoin:round;">
<path d="M9.5650 9.5250
L10.8350 8.2550
" />
</g>
<g style="fill:none; 
stroke:#FFFFFF; stroke-width:1.0160; stroke-opacity:1; 
stroke-linecap:round; stroke-linejoin:round;">
<path d="M30.1060 18.2880
L30.1060 25.0260
" />
</g>
<g style="fill:none; 
stroke:#FFFFFF; stroke-width:1.2700; stroke-opacity:1; 
stroke-linecap:round; stroke-linejoin:round;">
<path d="M1.0090 11.4300
L1.0090 24.5040
" />
<path d="M1.0090 5.3410
L1.0090 10.1600
" />
</g>
<g style="fill:none; 
stroke:#FFFFFF; stroke-width:0.5080; stroke-opacity:1; 
stroke-linecap:round; stroke-linejoin:round;">
<path d="M1.6440 9.5250
L9.5650 9.5250
" />
</g>
<g style="fill:none; 
stroke:#FFFFFF; stroke-width:1.0160; stroke-opacity:1; 
stroke-linecap:round; stroke-linejoin:round;">
<path d="M30.1060 18.2880
L29.3370 18.2880
" />
</g>
<g style="fill:none; 
stroke:#FFFFFF; stroke-width:0.5080; stroke-opacity:1; 
stroke-linecap:round; stroke-linejoin:round;">
<path d="M1.0090 11.4300
L1.6440 12.0650
" />
</g>
<g style="fill:none; 
stroke:#FFFFFF; stroke-width:1.0160; stroke-opacity:1; 
stroke-linecap:round; stroke-linejoin:round;">
<path d="M1.8650 4.4850
L1.0090 5.3410
" />
</g>
<g style="fill:none; 
stroke:#FFFFFF; stroke-width:0.5080; stroke-opacity:1; 
stroke-linecap:round; stroke-linejoin:round;">
<path d="M9.5650 12.0650
L10.8350 13.3350
" />
</g>
<g style="fill:none; 
stroke:#FFFFFF; stroke-width:1.0160; stroke-opacity:1; 
stroke-linecap:round; stroke-linejoin:round;">
<path d="M2.1660 1.0090
L30.0920 1.0090
" />
<path d="M1.8650 3.2150
L1.8650 4.4850
" />
</g>
<g style="fill:none; 
stroke:#FFFFFF; stroke-width:0.5080; stroke-opacity:1; 
stroke-linecap:round; stroke-linejoin:round;">
<path d="M4.4050 3.2150
L4.4050 5.6750
" />
<path d="M8.2550 6.9850
L9.5250 5.7150
" />
<path d="M13.3350 8.2550
L13.3350 13.3350
" />
<path d="M13.3350 5.7150
L13.3350 8.2550
" />
<path d="M5.7150 6.9850
L8.2550 6.9850
" />
<path d="M4.4050 5.6750
L5.7150 6.9850
" />
<path d="M9.5250 5.7150
L13.3350 5.7150
" />
<path d="M13.3350 13.3350
L13.3350 15.8750
" />
<path d="M13.3350 15.8750
L16.5100 18.4150
" />
<path d="M21.5900 11.4300
L21.5900 18.4150
" />
<path d="M13.3750 3.2150
L21.5900 11.4300
" />
<path d="M6.9450 3.2150
L13.3750 3.2150
" />
<path d="M24.1300 20.9550
L24.1300 18.4150
" />
<path d="M3.8100 19.6850
L3.8100 22.2250
" />
<path d="M3.8100 22.2250
L6.2607 22.6470
" />
<path d="M22.4380 22.6470
L24.1300 20.9550
" />
<path d="M6.2607 22.6470
L22.4380 22.6470
" />
<path d="M6.9450 18.4550
L3.8100 19.6850
" />
<path d="M18.3750 20.9950
L19.0500 20.3200
" />
<path d="M6.9450 20.9950
L18.3750 20.9950
" />
<path d="M19.0500 20.3200
L19.0500 18.4150
" />
<path d="M2.5400 23.4950
L5.8921 23.5370
" />
<path d="M26.6700 20.9550
L26.6700 18.4150
" />
<path d="M24.0880 23.5370
L26.6700 20.9550
" />
<path d="M2.5400 18.4150
L2.5400 23.4950
" />
<path d="M5.8921 23.5370
L24.0880 23.5370
" />
<path d="M6.9450 15.9150
L2.5400 18.4150
" />
<path style="fill:#FFFFFF; fill-opacity:1.0000; stroke:none;fill-rule:evenodd;"
d="M 1.0331,4.7904
1.0705,4.8094
1.0769,4.8131
1.2922,4.9023
1.5174,4.9626
1.5174,4.9626
1.7485,4.9930
1.7485,4.9930
1.9815,4.9930
1.9815,4.9930
2.2126,4.9626
2.2126,4.9626
2.3750,4.9191
2.3802,4.9186
2.3851,4.9165
2.4424,4.9125
2.4995,4.9070
2.5046,4.9082
2.5099,4.9079
2.5654,4.9227
2.6212,4.9361
2.6271,4.9393
2.6307,4.9402
2.6427,4.9477
2.6855,4.9709
2.7005,4.9809
2.8215,5.0803
2.9507,5.1493
2.9667,5.1601
2.9983,5.1900
3.0327,5.2165
3.0434,5.2327
3.0575,5.2460
3.0777,5.2846
3.1017,5.3209
3.1066,5.3397
3.1156,5.3569
3.1221,5.3999
3.1330,5.4420
3.1345,5.4753
3.1345,5.5750
3.1345,5.7750
3.1658,5.9725
3.1658,5.9725
3.2276,6.1627
3.3184,6.3409
3.3184,6.3409
3.4359,6.5027
3.4359,6.5027
4.8873,7.9541
4.8873,7.9541
5.0491,8.0716
5.0491,8.0716
5.0491,8.0716
5.0491,8.0716
5.1011,8.0981
5.1931,8.1450
5.2273,8.1624
5.4175,8.2242
5.6150,8.2555
5.6150,8.2555
5.7911,8.2555
5.8293,8.2634
5.8517,8.2721
5.8754,8.2761
5.9096,8.2946
5.9459,8.3087
5.9643,8.3242
5.9854,8.3356
6.0118,8.3643
6.0415,8.3894
6.0539,8.4100
6.0701,8.4277
6.0858,8.4633
6.1058,8.4967
6.1107,8.5202
6.1204,8.5422
6.1273,8.5761
6.1330,8.6120
6.1728,8.7343
6.2072,8.8402
6.2638,8.9513
6.3161,9.0540
6.3161,9.0540
6.4572,9.2481
6.4572,9.2481
6.4572,9.2481
6.4653,9.2563
6.5380,9.3581
6.5737,9.4780
6.5685,9.6030
6.5231,9.7195
6.4653,9.7937
6.4572,9.8019
6.4572,9.8019
6.4572,9.8019
6.3161,9.9960
6.3161,9.9960
6.2223,10.1802
6.2072,10.2098
6.1330,10.4380
6.0955,10.6750
6.0955,10.9150
6.1330,11.1520
6.2072,11.3802
6.2223,11.4098
6.3161,11.5940
6.3161,11.5940
6.4572,11.7881
6.4572,11.7881
6.4572,11.7881
6.4653,11.7963
6.5380,11.8981
6.5737,12.0180
6.5685,12.1430
6.5231,12.2595
6.4653,12.3337
6.4572,12.3419
6.4572,12.3419
6.4572,12.3419
6.3161,12.5360
6.3161,12.5360
6.2072,12.7498
6.1330,12.9780
6.0955,13.2150
6.0955,13.4550
6.1330,13.6920
6.2072,13.9202
6.2483,14.0009
6.2860,14.1202
6.2829,14.2453
6.2394,14.3626
6.1784,14.4422
6.0886,14.5320
5.9264,14.7434
5.9264,14.7434
5.7932,14.9741
5.7932,14.9741
5.7707,15.0283
5.7045,15.1344
5.6074,15.2133
5.6072,15.2134
1.9452,17.2917
1.9452,17.2917
1.9378,17.2959
1.8741,17.3284
1.8509,17.3452
1.8324,17.3558
1.8323,17.3558
1.8259,17.3594
1.8259,17.3594
1.7768,17.3986
1.7632,17.4089
1.7123,17.4459
1.7123,17.4459
1.7071,17.4511
1.6754,17.4795
1.6696,17.4841
1.6696,17.4841
1.6272,17.5305
1.6272,17.5305
1.6214,17.5368
1.5709,17.5873
1.5541,17.6105
1.5397,17.6263
1.5397,17.6263
1.5347,17.6317
1.5347,17.6317
1.5001,17.6842
1.4953,17.6913
1.4534,17.7491
1.4403,17.7747
1.4286,17.7925
1.4286,17.7925
1.4245,17.7986
1.4245,17.7986
1.3985,17.8559
1.3911,17.8713
1.3626,17.9273
1.3603,17.9343
1.3603,17.9343
1.3537,17.9546
1.3418,17.9807
1.3229,18.0495
1.3202,18.0577
1.3008,18.1175
1.3008,18.1175
1.2996,18.1248
1.2996,18.1248
1.2963,18.1458
1.2887,18.1735
1.2807,18.2444
1.2793,18.2529
1.2700,18.3118
1.2695,18.3150
1.2695,18.3437
1.2663,18.3722
1.2695,18.4436
1.2695,23.4847
1.2695,23.4894
1.2683,23.5791
1.2687,23.5840
1.2687,23.5840
1.2690,23.5892
1.2691,23.5901
1.2695,23.5950
1.2835,23.6835
1.2842,23.6882
1.2972,23.7770
1.2983,23.7818
1.2983,23.7819
1.2994,23.7869
1.2996,23.7877
1.3008,23.7925
1.3285,23.8778
1.3299,23.8823
1.3566,23.9679
1.3584,23.9725
1.3584,23.9725
1.3603,23.9773
1.3607,23.9781
1.3626,23.9827
1.3626,23.9827
1.3626,23.9827
1.4033,24.0626
1.4033,24.0626
1.4044,24.0648
1.4451,24.1472
1.4497,24.1537
1.4534,24.1609
1.4534,24.1609
1.5060,24.2334
1.5088,24.2372
1.5606,24.3105
1.5638,24.3143
1.5638,24.3143
1.5671,24.3183
1.5677,24.3189
1.5709,24.3227
1.6343,24.3861
1.6360,24.3878
1.7002,24.4536
1.7067,24.4584
1.7123,24.4641
1.7123,24.4641
1.7123,24.4641
1.7701,24.5061
1.7868,24.5182
1.8606,24.5732
1.8676,24.5769
1.8741,24.5816
1.9540,24.6223
1.9582,24.6245
2.0376,24.6662
2.0376,24.6662
2.0421,24.6681
2.0470,24.6703
2.0478,24.6705
2.0523,24.6724
2.0523,24.6724
2.1399,24.7009
2.2270,24.7304
2.2349,24.7317
2.2425,24.7342
2.3311,24.7483
2.3357,24.7490
2.4241,24.7641
2.4290,24.7646
2.4290,24.7646
2.4342,24.7651
2.4351,24.7651
2.4400,24.7655
2.4400,24.7655
2.5296,24.7655
2.5344,24.7655
3.2527,24.7745
3.3758,24.7967
3.4851,24.8576
3.5687,24.9507
3.6175,25.0658
3.6262,25.1906
3.5940,25.3115
3.5243,25.4153
3.4246,25.4909
3.3058,25.5301
3.2480,25.5345
0.8805,25.5345
0.7571,25.5139
0.6471,25.4544
0.5624,25.3623
0.5121,25.2478
0.5005,25.1545
0.5005,5.1384
0.5211,5.0151
0.5806,4.9050
0.6727,4.8203
0.7872,4.7701
0.9119,4.7597
Z" /> 
<path style="fill:#FFFFFF; fill-opacity:1.0000; stroke:none;fill-rule:evenodd;"
d="M 30.4061,19.9763
30.5069,20.0504
30.5782,20.1532
30.6122,20.2735
30.6145,20.3153
30.6145,25.1545
30.5939,25.2779
30.5344,25.3879
30.4423,25.4726
30.3278,25.5229
30.2345,25.5345
24.4263,25.5345
24.3029,25.5139
24.1928,25.4544
24.1081,25.3623
24.0579,25.2478
24.0475,25.1231
24.0783,25.0019
24.1467,24.8971
24.2454,24.8203
24.3637,24.7797
24.3668,24.7792
24.3855,24.7762
24.3855,24.7762
24.3855,24.7762
24.5757,24.7144
24.7539,24.6236
24.8117,24.5816
24.9157,24.5061
24.9157,24.5061
24.9157,24.5061
27.6391,21.7827
27.7566,21.6209
27.8474,21.4427
27.9092,21.2525
27.9258,21.1477
27.9405,21.0550
27.9405,20.3824
27.9611,20.2590
28.0206,20.1490
28.1127,20.0642
28.2272,20.0140
28.3519,20.0037
28.4659,20.0313
28.6373,20.1023
28.8624,20.1626
28.8624,20.1626
29.0935,20.1930
29.0935,20.1930
29.3265,20.1930
29.3265,20.1930
29.5576,20.1626
29.5576,20.1626
29.7827,20.1023
29.9981,20.0131
29.9981,20.0131
30.0445,19.9863
30.1616,19.9424
30.2867,19.9389
Z" /> 
<path style="fill:#FFFFFF; fill-opacity:1.0000; stroke:none;fill-rule:evenodd;"
d="M 30.3579,0.5211
30.4679,0.5806
30.5526,0.6727
30.6029,0.7872
30.6145,0.8805
30.6145,16.5147
30.5939,16.6380
30.5344,16.7481
30.4423,16.8328
30.3278,16.8830
30.2031,16.8934
30.0819,16.8626
30.0445,16.8437
29.9981,16.8169
29.9981,16.8169
29.7827,16.7277
29.5576,16.6674
29.5576,16.6674
29.3265,16.6370
29.0935,16.6370
28.8624,16.6674
28.8624,16.6674
28.6372,16.7277
28.4219,16.8169
28.4219,16.8169
28.3589,16.8533
28.2417,16.8972
28.1167,16.9006
27.9973,16.8633
27.9376,16.8257
27.8016,16.7214
27.5709,16.5882
27.5709,16.5882
27.5709,16.5882
27.3247,16.4862
27.3247,16.4862
27.3247,16.4862
27.2094,16.4553
27.0674,16.4173
26.8032,16.3825
26.8032,16.3825
26.5368,16.3825
26.5368,16.3825
26.2726,16.4173
26.0497,16.4770
26.0164,16.4859
26.0153,16.4862
26.0153,16.4862
25.7691,16.5882
25.7691,16.5882
25.7691,16.5882
25.5900,16.6916
25.4728,16.7355
25.3478,16.7389
25.2284,16.7016
25.2100,16.6916
25.0309,16.5882
25.0309,16.5882
25.0309,16.5882
24.7847,16.4862
24.7847,16.4862
24.7847,16.4862
24.6694,16.4553
24.5274,16.4173
24.2632,16.3825
24.2632,16.3825
23.9968,16.3825
23.9968,16.3825
23.7326,16.4173
23.4753,16.4862
23.3859,16.5232
23.2640,16.5514
23.1396,16.5385
23.0261,16.4859
22.9359,16.3993
22.8786,16.2881
22.8605,16.1722
22.8605,11.3300
22.8605,11.3300
22.8292,11.1325
22.7674,10.9423
22.6766,10.7641
22.6766,10.7641
22.6766,10.7641
22.5591,10.6023
22.5591,10.6023
22.4177,10.4609
22.4177,10.4609
14.2027,2.2459
14.2027,2.2459
14.2027,2.2459
14.2027,2.2459
14.0409,2.1284
14.0409,2.1284
13.8627,2.0376
13.6725,1.9758
13.4750,1.9445
13.4750,1.9445
9.4213,1.9445
9.2979,1.9239
9.1879,1.8644
9.1526,1.8332
9.1514,1.8320
9.1514,1.8320
8.9630,1.6436
8.7516,1.4814
8.5209,1.3482
8.5209,1.3482
8.5209,1.3482
8.2747,1.2462
8.2630,1.2422
8.2636,1.2403
8.1658,1.1957
8.0749,1.1097
8.0169,0.9989
7.9980,0.8753
8.0203,0.7522
8.0814,0.6430
8.1746,0.5595
8.2898,0.5109
8.3780,0.5005
30.2345,0.5005
Z" /> 
<path style="fill:#FFFFFF; fill-opacity:1.0000; stroke:none;fill-rule:evenodd;"
d="M 10.4286,8.2015
10.4286,8.3085
10.4563,8.4119
10.5098,8.5045
10.5855,8.5802
10.6781,8.6337
10.7815,8.6614
10.8885,8.6614
10.9191,8.6532
10.8934,8.7189
10.8357,8.7931
9.8750,9.7538
10.0469,9.8531
10.0469,9.8531
10.2622,9.9423
10.4874,10.0026
10.4874,10.0026
10.7185,10.0330
10.7185,10.0330
10.9515,10.0330
10.9515,10.0330
11.1826,10.0026
11.1826,10.0026
11.3148,9.9671
11.3194,9.9667
11.3236,9.9649
11.3815,9.9607
11.4394,9.9551
11.4438,9.9562
11.4483,9.9558
11.5045,9.9706
11.5610,9.9841
11.5662,9.9869
11.5693,9.9877
11.5796,9.9942
11.6242,10.0182
11.6398,10.0286
11.7515,10.1203
11.8800,10.1890
11.8955,10.1993
11.9277,10.2295
11.9627,10.2565
11.9730,10.2721
11.9867,10.2849
12.0073,10.3240
12.0317,10.3609
12.0364,10.3790
12.0451,10.3955
12.0520,10.4392
12.0630,10.4820
12.0645,10.5153
12.0645,11.0747
12.0439,11.1981
11.9844,11.3081
11.8923,11.3928
11.8636,11.4098
11.7515,11.4697
11.7515,11.4697
11.6543,11.5495
11.5458,11.6119
11.4230,11.6357
11.3148,11.6229
11.1826,11.5874
11.1826,11.5874
10.9515,11.5570
10.7185,11.5570
10.4874,11.5874
10.4874,11.5874
10.2622,11.6477
10.0469,11.7369
10.0469,11.7369
9.8750,11.8362
10.8357,12.7969
10.8449,12.8098
10.8570,12.8200
10.8811,12.8604
10.9084,12.8987
10.9129,12.9139
10.9210,12.9275
10.9232,12.9379
10.8885,12.9286
10.7815,12.9286
10.6781,12.9563
10.5855,13.0098
10.5098,13.0855
10.4563,13.1781
10.4286,13.2815
10.4286,13.3885
10.4368,13.4191
10.3711,13.3934
10.2969,13.3357
9.3362,12.3750
9.3060,12.3790
9.2569,12.4077
9.2072,12.4382
9.2030,12.4392
9.1993,12.4413
9.1421,12.4528
9.0851,12.4656
9.0808,12.4651
9.0766,12.4660
9.0188,12.4582
8.9608,12.4518
8.9569,12.4500
8.9527,12.4494
8.9004,12.4233
8.8476,12.3984
8.8434,12.3949
8.8407,12.3935
8.8296,12.3832
8.7932,12.3526
8.7833,12.3425
8.7828,12.3419
8.7735,12.3325
8.7724,12.3314
8.7374,12.2816
8.7020,12.2319
8.7015,12.2303
8.7006,12.2290
8.6837,12.1705
8.6663,12.1120
8.6664,12.1104
8.6659,12.1088
8.6689,12.0479
8.6715,11.9870
8.6721,11.9855
8.6721,11.9839
8.6948,11.9272
8.7169,11.8705
8.7181,11.8690
8.7186,11.8677
8.7236,11.8618
8.7747,11.7963
8.7828,11.7881
8.8094,11.7515
8.9239,11.5940
8.9239,11.5940
8.9239,11.5940
9.0328,11.3802
9.1070,11.1520
9.1445,10.9150
9.1445,10.6750
9.1070,10.4380
9.0328,10.2098
8.9239,9.9960
8.9239,9.9960
8.9239,9.9960
8.7828,9.8019
8.7828,9.8019
8.7828,9.8019
8.7747,9.7937
8.7664,9.7821
8.7555,9.7731
8.7303,9.7315
8.7020,9.6919
8.6979,9.6783
8.6906,9.6661
8.6802,9.6186
8.6663,9.5720
8.6669,9.5578
8.6638,9.5439
8.6694,9.4956
8.6715,9.4470
8.6766,9.4338
8.6783,9.4197
8.6992,9.3758
8.7169,9.3305
8.7274,9.3169
8.7322,9.3068
8.7684,9.2637
8.7724,9.2586
8.7735,9.2575
8.7828,9.2481
8.7833,9.2475
8.7932,9.2374
8.8331,9.2084
8.8710,9.1766
8.8835,9.1718
8.8944,9.1639
8.9416,9.1494
8.9877,9.1316
9.0011,9.1311
9.0140,9.1272
9.0633,9.1288
9.1127,9.1269
9.1256,9.1308
9.1390,9.1313
9.1851,9.1488
9.2324,9.1631
9.2433,9.1710
9.2559,9.1757
9.2939,9.2074
9.2974,9.2099
9.3362,9.2150
10.2969,8.2543
10.3987,8.1816
10.4370,8.1702
Z" /> 
<path style="fill:#FFFFFF; fill-opacity:1.0000; stroke:none;fill-rule:evenodd;"
d="M 2.9498,0.5047
2.9752,0.5039
3.0111,0.5149
3.0481,0.5211
3.0705,0.5332
3.0947,0.5407
3.1251,0.5628
3.1581,0.5806
3.1753,0.5993
3.1959,0.6143
3.2174,0.6450
3.2428,0.6727
3.2530,0.6959
3.2676,0.7167
3.2780,0.7528
3.2931,0.7872
3.2952,0.8125
3.3022,0.8370
3.3003,0.8745
3.3034,0.9119
3.2972,0.9365
3.2959,0.9619
3.2819,0.9967
3.2727,1.0331
3.2588,1.0544
3.2494,1.0780
3.2248,1.1064
3.2043,1.1379
3.1842,1.1535
3.1676,1.1727
3.1162,1.2087
3.0777,1.2312
2.9981,1.2553
2.8215,1.3497
2.6910,1.4568
2.6649,1.4721
2.5479,1.5165
2.4229,1.5205
2.3750,1.5109
2.2126,1.4674
2.2126,1.4674
1.9815,1.4370
1.7485,1.4370
1.5174,1.4674
1.5174,1.4674
1.2922,1.5277
1.0769,1.6169
1.0705,1.6206
1.0659,1.6224
1.0658,1.6224
1.0658,1.6224
0.9533,1.6645
0.8283,1.6680
0.7089,1.6306
0.6081,1.5565
0.5368,1.4537
0.5028,1.3334
0.5005,1.2916
0.5005,0.8805
0.5211,0.7571
0.5806,0.6471
0.6727,0.5624
0.7872,0.5121
0.8805,0.5005
2.9247,0.5005
Z" /> 
<path style="fill:#FFFFFF; fill-opacity:1.0000; stroke:none;fill-rule:evenodd;"
d="M 6.9854,0.5211
7.0954,0.5806
7.1801,0.6727
7.2304,0.7872
7.2407,0.9119
7.2100,1.0331
7.1416,1.1379
7.0429,1.2147
6.9766,1.2411
6.9770,1.2422
6.9653,1.2462
6.7191,1.3482
6.7191,1.3482
6.5169,1.4650
6.3997,1.5088
6.2747,1.5123
6.1553,1.4749
6.1367,1.4648
6.1098,1.4493
5.9885,1.3497
5.8119,1.2553
5.7330,1.2314
5.6951,1.2095
5.6802,1.1972
5.6629,1.1886
5.6322,1.1576
5.5985,1.1299
5.5885,1.1134
5.5749,1.0997
5.5559,1.0604
5.5331,1.0233
5.5289,1.0044
5.5205,0.9870
5.5154,0.9437
5.5058,0.9012
5.5080,0.8820
5.5057,0.8628
5.5149,0.8202
5.5197,0.7768
5.5279,0.7594
5.5320,0.7405
5.5545,0.7032
5.5732,0.6638
5.5866,0.6499
5.5966,0.6334
5.6300,0.6054
5.6604,0.5742
5.6777,0.5655
5.6925,0.5531
5.7332,0.5374
5.7721,0.5177
5.7912,0.5151
5.8092,0.5082
5.8853,0.5005
6.8620,0.5005
Z" /> 
<path style="fill:none; 
stroke:#FFFFFF; stroke-width:0.0500; stroke-opacity:1; 
stroke-linecap:round; stroke-linejoin:round;fill:none"
d="M 0.0000,0.0000
31.1150,0.0000
31.1150,26.0350
0.0000,26.0350
Z" /> 
</g>
<g style="fill:#000000; fill-opacity:1.0000; stroke:none;">
<circle cx="7.6200" cy="20.9550" r="0.4064" /> 
</g>
<g style="fill:#000000; fill-opacity:1.0000; stroke:none;">
<circle cx="7.6200" cy="18.4150" r="0.4064" /> 
</g>
<g style="fill:#000000; fill-opacity:1.0000; stroke:none;">
<circle cx="7.6200" cy="15.8750" r="0.4064" /> 
</g>
<g style="fill:#000000; fill-opacity:1.0000; stroke:none;">
<circle cx="7.6200" cy="13.3350" r="0.3810" /> 
</g>
<g style="fill:#000000; fill-opacity:1.0000; stroke:none;">
<circle cx="7.6200" cy="10.7950" r="0.3810" /> 
</g>
<g style="fill:#000000; fill-opacity:1.0000; stroke:none;">
<circle cx="7.6200" cy="8.2550" r="0.3810" /> 
</g>
<g style="fill:#000000; fill-opacity:1.0000; stroke:none;">
<circle cx="7.6200" cy="5.7150" r="0.3810" /> 
</g>
<g style="fill:#000000; fill-opacity:1.0000; stroke:none;">
<circle cx="7.6200" cy="3.1750" r="0.4064" /> 
</g>
<g style="fill:#000000; fill-opacity:1.0000; stroke:none;">
<circle cx="29.2100" cy="18.4150" r="0.4064" /> 
</g>
<g style="fill:#000000; fill-opacity:1.0000; stroke:none;">
<circle cx="26.6700" cy="18.4150" r="0.4064" /> 
</g>
<g style="fill:#000000; fill-opacity:1.0000; stroke:none;">
<circle cx="24.1300" cy="18.4150" r="0.4064" /> 
</g>
<g style="fill:#000000; fill-opacity:1.0000; stroke:none;">
<circle cx="21.5900" cy="18.4150" r="0.4064" /> 
</g>
<g style="fill:#000000; fill-opacity:1.0000; stroke:none;">
<circle cx="19.0500" cy="18.4150" r="0.4064" /> 
</g>
<g style="fill:#000000; fill-opacity:1.0000; stroke:none;">
<circle cx="16.5100" cy="18.4150" r="0.4064" /> 
</g>
<g style="fill:#000000; fill-opacity:1.0000; stroke:none;">
<circle cx="4.4050" cy="3.2150" r="0.4064" /> 
</g>
<g style="fill:#000000; fill-opacity:1.0000; stroke:none;">
<circle cx="1.8650" cy="3.2150" r="0.4064" /> 
</g>
<g style="fill:#000000; fill-opacity:1.0000; stroke:none;">
<circle cx="13.3350" cy="13.3350" r="0.4064" /> 
</g>
<g style="fill:#000000; fill-opacity:1.0000; stroke:none;">
<circle cx="10.8350" cy="13.3350" r="0.4064" /> 
</g>
<g style="fill:#000000; fill-opacity:1.0000; stroke:none;">
<circle cx="13.3350" cy="8.2550" r="0.4064" /> 
</g>
<g style="fill:#000000; fill-opacity:1.0000; stroke:none;">
<circle cx="10.8350" cy="8.2550" r="0.4064" /> 
</g> 
</svg>
