<?xml version="1.0" standalone="no"?>
 <!DOCTYPE svg PUBLIC "-//W3C//DTD SVG 1.1//EN" 
 "http://www.w3.org/Graphics/SVG/1.1/DTD/svg11.dtd"> 
<svg
  xmlns:svg="http://www.w3.org/2000/svg"
  xmlns="http://www.w3.org/2000/svg"
  xmlns:xlink="http://www.w3.org/1999/xlink"
  version="1.1"
  width="25.4000mm" height="25.4000mm" viewBox="0.0000 0.0000 25.4000 25.4000">
<title>SVG Image created as front.svg date 2025/12/20 14:15:29 </title>
  <desc>Image generated by PCBNEW </desc>
<g style="fill:#000000; fill-opacity:1.0000;stroke:#000000; stroke-opacity:1.0000;
stroke-linecap:round; stroke-linejoin:round;"
 transform="translate(0 0) scale(1 1)">
</g>
<g style="fill:#000000; fill-opacity:1.0000; 
stroke:#000000; stroke-width:0.0212; stroke-opacity:1; 
stroke-linecap:round; stroke-linejoin:round;">
<rect x="-6.363250" y="-5.660000" width="43.801500" height="36.085000" rx="0.000000" />
</g>
<g style="fill:#FFFFFF; fill-opacity:1.0000; stroke:none;">
<circle cx="6.9450" cy="20.3600" r="1.0160" /> 
</g>
<g style="fill:#FFFFFF; fill-opacity:1.0000; stroke:none;">
<circle cx="6.9450" cy="17.8200" r="1.0160" /> 
</g>
<g style="fill:#FFFFFF; fill-opacity:1.0000; stroke:none;">
<circle cx="6.9450" cy="15.2800" r="1.0160" /> 
</g>
<g style="fill:#FFFFFF; fill-opacity:1.0000; stroke:none;">
<circle cx="6.9450" cy="12.7400" r="0.5080" /> 
</g>
<g style="fill:#FFFFFF; fill-opacity:1.0000; stroke:none;">
<circle cx="6.9450" cy="10.2000" r="0.5080" /> 
</g>
<g style="fill:#FFFFFF; fill-opacity:1.0000; stroke:none;">
<circle cx="6.9450" cy="7.6600" r="0.5080" /> 
</g>
<g style="fill:#FFFFFF; fill-opacity:1.0000; stroke:none;">
<circle cx="6.9450" cy="5.1200" r="0.5080" /> 
</g>
<g style="fill:#FFFFFF; fill-opacity:1.0000; stroke:none;">
<circle cx="6.9450" cy="2.5800" r="1.0160" /> 
</g>
<g style="fill:#FFFFFF; fill-opacity:1.0000; stroke:none;">
<circle cx="29.2100" cy="17.7800" r="1.0160" /> 
</g>
<g style="fill:#FFFFFF; fill-opacity:1.0000; stroke:none;">
<circle cx="26.6700" cy="17.7800" r="1.0160" /> 
</g>
<g style="fill:#FFFFFF; fill-opacity:1.0000; stroke:none;">
<circle cx="24.1300" cy="17.7800" r="1.0160" /> 
</g>
<g style="fill:#FFFFFF; fill-opacity:1.0000; stroke:none;">
<circle cx="21.5900" cy="17.7800" r="1.0160" /> 
</g>
<g style="fill:#FFFFFF; fill-opacity:1.0000; stroke:none;">
<circle cx="19.0500" cy="17.7800" r="1.0160" /> 
<path style="fill:#FFFFFF; fill-opacity:1.0000; stroke:none;fill-rule:evenodd;"
d="M 15.4940,16.7640
17.5260,16.7640
17.5260,18.7960
15.4940,18.7960
Z" /> 
<path style="fill:#FFFFFF; fill-opacity:1.0000; stroke:none;fill-rule:evenodd;"
d="M 3.3890,1.5640
5.4210,1.5640
5.4210,3.5960
3.3890,3.5960
Z" /> 
</g>
<g style="fill:#FFFFFF; fill-opacity:1.0000; stroke:none;">
<circle cx="1.8650" cy="2.5800" r="1.0160" /> 
<path style="fill:#FFFFFF; fill-opacity:1.0000; stroke:none;fill-rule:evenodd;"
d="M 13.7160,11.6840
13.7160,13.7160
11.6840,13.7160
11.6840,11.6840
Z" /> 
</g>
<g style="fill:#FFFFFF; fill-opacity:1.0000; stroke:none;">
<circle cx="10.2000" cy="12.7000" r="1.0160" /> 
<path style="fill:#FFFFFF; fill-opacity:1.0000; stroke:none;fill-rule:evenodd;"
d="M 13.7160,6.6040
13.7160,8.6360
11.6840,8.6360
11.6840,6.6040
Z" /> 
</g>
<g style="fill:#FFFFFF; fill-opacity:1.0000; stroke:none;">
<circle cx="10.2000" cy="7.6200" r="1.0160" /> 
</g>
<g style="fill:none; 
stroke:#FFFFFF; stroke-width:1.0160; stroke-opacity:1; 
stroke-linecap:round; stroke-linejoin:round;">
<path d="M1.0090 23.8690
L1.2700 24.1300
" />
</g>
<g style="fill:none; 
stroke:#FFFFFF; stroke-width:0.5080; stroke-opacity:1; 
stroke-linecap:round; stroke-linejoin:round;">
<path d="M10.2000 12.7000
L8.9300 11.4300
" />
</g>
<g style="fill:none; 
stroke:#FFFFFF; stroke-width:1.0160; stroke-opacity:1; 
stroke-linecap:round; stroke-linejoin:round;">
<path d="M1.2700 24.1300
L29.2100 24.1300
" />
<path d="M1.0090 9.5250
L1.0090 10.7950
" />
</g>
<g style="fill:none; 
stroke:#FFFFFF; stroke-width:0.5080; stroke-opacity:1; 
stroke-linecap:round; stroke-linejoin:round;">
<path d="M10.2000 7.6200
L8.9300 8.8900
" />
<path d="M8.9300 11.4300
L1.6440 11.4300
" />
</g>
<g style="fill:none; 
stroke:#FFFFFF; stroke-width:1.0160; stroke-opacity:1; 
stroke-linecap:round; stroke-linejoin:round;">
<path d="M1.8650 2.5800
L1.8650 0.6750
" />
<path d="M1.8650 0.6750
L2.1660 0.3740
" />
</g>
<g style="fill:none; 
stroke:#FFFFFF; stroke-width:0.5080; stroke-opacity:1; 
stroke-linecap:round; stroke-linejoin:round;">
<path d="M1.6440 11.4300
L1.0090 10.7950
" />
</g>
<g style="fill:none; 
stroke:#FFFFFF; stroke-width:1.0160; stroke-opacity:1; 
stroke-linecap:round; stroke-linejoin:round;">
<path d="M29.2100 0.3740
L29.2100 17.7800
" />
<path d="M1.0090 10.7950
L1.0090 23.8690
" />
<path d="M1.0090 4.7060
L1.0090 9.5250
" />
</g>
<g style="fill:none; 
stroke:#FFFFFF; stroke-width:0.5080; stroke-opacity:1; 
stroke-linecap:round; stroke-linejoin:round;">
<path d="M1.6440 8.8900
L1.0090 9.5250
" />
</g>
<g style="fill:none; 
stroke:#FFFFFF; stroke-width:1.0160; stroke-opacity:1; 
stroke-linecap:round; stroke-linejoin:round;">
<path d="M2.1660 0.3740
L29.2100 0.3740
" />
<path d="M29.2100 24.1300
L29.2100 17.7800
" />
<path d="M1.8650 3.8500
L1.0090 4.7060
" />
</g>
<g style="fill:none; 
stroke:#FFFFFF; stroke-width:0.5080; stroke-opacity:1; 
stroke-linecap:round; stroke-linejoin:round;">
<path d="M8.9300 8.8900
L1.6440 8.8900
" />
</g>
<g style="fill:none; 
stroke:#FFFFFF; stroke-width:1.0160; stroke-opacity:1; 
stroke-linecap:round; stroke-linejoin:round;">
<path d="M1.8650 2.5800
L1.8650 3.8500
" />
</g>
<g style="fill:none; 
stroke:#FFFFFF; stroke-width:0.5080; stroke-opacity:1; 
stroke-linecap:round; stroke-linejoin:round;">
<path d="M9.5250 5.0800
L12.0650 5.0800
" />
<path d="M4.4050 2.5800
L4.4050 5.0400
" />
<path d="M5.7150 6.3500
L8.2550 6.3500
" />
<path d="M12.7000 5.7150
L12.7000 7.6200
" />
<path d="M13.3350 13.3350
L12.7000 12.7000
" />
<path d="M12.7000 12.7000
L12.7000 7.6200
" />
<path d="M8.2550 6.3500
L9.5250 5.0800
" />
<path d="M4.4050 5.0400
L5.7150 6.3500
" />
<path d="M12.0650 5.0800
L12.7000 5.7150
" />
<path d="M21.5900 10.7950
L21.5900 17.7800
" />
<path d="M13.3750 2.5800
L21.5900 10.7950
" />
<path d="M6.9450 2.5800
L13.3750 2.5800
" />
<path d="M24.1300 20.3200
L24.1300 17.7800
" />
<path d="M3.8100 19.0500
L3.8100 21.5900
" />
<path d="M3.8100 21.5900
L6.2607 22.0120
" />
<path d="M22.4380 22.0120
L24.1300 20.3200
" />
<path d="M6.2607 22.0120
L22.4380 22.0120
" />
<path d="M6.9450 17.8200
L3.8100 19.0500
" />
<path d="M18.3750 20.3600
L19.0500 19.6850
" />
<path d="M6.9450 20.3600
L18.3750 20.3600
" />
<path d="M19.0500 19.6850
L19.0500 17.7800
" />
<path d="M2.5400 22.8600
L5.8921 22.9020
" />
<path d="M26.6700 20.3200
L26.6700 17.7800
" />
<path d="M24.0880 22.9020
L26.6700 20.3200
" />
<path d="M2.5400 17.7800
L2.5400 22.8600
" />
<path d="M5.8921 22.9020
L24.0880 22.9020
" />
<path d="M6.9450 15.2800
L2.5400 17.7800
" />
<path style="fill:#FFFFFF; fill-opacity:1.0000; stroke:none;fill-rule:evenodd;"
d="M 1.0331,4.1554
1.0705,4.1744
1.0769,4.1781
1.2922,4.2673
1.5174,4.3276
1.5174,4.3276
1.7485,4.3580
1.7485,4.3580
1.9815,4.3580
1.9815,4.3580
2.2126,4.3276
2.2126,4.3276
2.3750,4.2841
2.3802,4.2836
2.3851,4.2815
2.4424,4.2775
2.4995,4.2720
2.5046,4.2732
2.5099,4.2729
2.5654,4.2877
2.6212,4.3011
2.6271,4.3043
2.6307,4.3052
2.6427,4.3127
2.6855,4.3359
2.7005,4.3459
2.8215,4.4453
2.9507,4.5143
2.9667,4.5251
2.9983,4.5550
3.0327,4.5815
3.0434,4.5977
3.0575,4.6110
3.0777,4.6496
3.1017,4.6859
3.1066,4.7047
3.1156,4.7219
3.1221,4.7649
3.1330,4.8070
3.1345,4.8403
3.1345,4.9400
3.1345,5.1400
3.1483,5.2273
3.1658,5.3375
3.1658,5.3375
3.2276,5.5277
3.3184,5.7059
3.3184,5.7059
3.4359,5.8677
3.4359,5.8677
4.8873,7.3191
4.8873,7.3191
5.0491,7.4366
5.0491,7.4366
5.0491,7.4366
5.1011,7.4631
5.2127,7.5200
5.2127,7.5200
5.2128,7.5200
5.2214,7.5244
5.3220,7.5988
5.3930,7.7018
5.4242,7.8036
5.4580,8.0170
5.5322,8.2452
5.5888,8.3563
5.6411,8.4590
5.6411,8.4590
5.7822,8.6531
5.7822,8.6531
5.7822,8.6531
5.7903,8.6613
5.8630,8.7631
5.8987,8.8830
5.8935,9.0080
5.8481,9.1245
5.7903,9.1987
5.7856,9.2035
5.7822,9.2069
5.7822,9.2069
5.6411,9.4010
5.6411,9.4010
5.5677,9.5452
5.5322,9.6148
5.4580,9.8430
5.4205,10.0800
5.4205,10.3200
5.4580,10.5570
5.5322,10.7852
5.5574,10.8347
5.6411,10.9990
5.6411,10.9990
5.7822,11.1931
5.7822,11.1931
5.7822,11.1931
5.7903,11.2013
5.8630,11.3031
5.8987,11.4230
5.8935,11.5480
5.8481,11.6645
5.7903,11.7387
5.7822,11.7469
5.7822,11.7469
5.7822,11.7469
5.6411,11.9410
5.6411,11.9410
5.5322,12.1548
5.4580,12.3830
5.4205,12.6200
5.4205,12.8600
5.4580,13.0970
5.5322,13.3252
5.5733,13.4059
5.6110,13.5252
5.6079,13.6503
5.5644,13.7676
5.5034,13.8472
5.4136,13.9370
5.4136,13.9370
5.2514,14.1484
5.1182,14.3791
5.1182,14.3791
5.1182,14.3791
5.0162,14.6253
5.0162,14.6253
5.0162,14.6253
4.9875,14.7325
4.9662,14.8119
4.9144,14.9258
4.8284,15.0166
4.7867,15.0440
1.9452,16.6567
1.9452,16.6567
1.9378,16.6609
1.8741,16.6934
1.8509,16.7102
1.8324,16.7208
1.8323,16.7208
1.8259,16.7244
1.8259,16.7244
1.7768,16.7636
1.7632,16.7739
1.7123,16.8109
1.7123,16.8109
1.7071,16.8161
1.6754,16.8445
1.6696,16.8491
1.6696,16.8491
1.6272,16.8955
1.6272,16.8955
1.6214,16.9018
1.5709,16.9523
1.5541,16.9755
1.5397,16.9913
1.5397,16.9913
1.5347,16.9967
1.5347,16.9967
1.5001,17.0492
1.4953,17.0563
1.4534,17.1141
1.4403,17.1397
1.4286,17.1575
1.4286,17.1575
1.4245,17.1636
1.4245,17.1636
1.3985,17.2209
1.3911,17.2363
1.3626,17.2923
1.3603,17.2993
1.3603,17.2993
1.3537,17.3196
1.3418,17.3457
1.3229,17.4145
1.3202,17.4227
1.3008,17.4825
1.3008,17.4825
1.2996,17.4898
1.2996,17.4898
1.2963,17.5108
1.2887,17.5385
1.2807,17.6094
1.2793,17.6179
1.2748,17.6468
1.2695,17.6800
1.2695,17.7087
1.2663,17.7372
1.2695,17.8086
1.2695,22.8497
1.2695,22.8544
1.2683,22.9441
1.2687,22.9490
1.2687,22.9490
1.2690,22.9542
1.2691,22.9551
1.2695,22.9600
1.2835,23.0485
1.2842,23.0532
1.2972,23.1420
1.2983,23.1468
1.2983,23.1469
1.2994,23.1519
1.2996,23.1527
1.3008,23.1575
1.3285,23.2428
1.3299,23.2473
1.3566,23.3329
1.3584,23.3375
1.3584,23.3375
1.3603,23.3423
1.3607,23.3431
1.3626,23.3477
1.3626,23.3477
1.3626,23.3477
1.4033,23.4276
1.4033,23.4276
1.4044,23.4298
1.4451,23.5122
1.4497,23.5187
1.4534,23.5259
1.4534,23.5259
1.5060,23.5984
1.5088,23.6022
1.5606,23.6755
1.5638,23.6793
1.5638,23.6793
1.5671,23.6833
1.5677,23.6839
1.5709,23.6877
1.6343,23.7511
1.6360,23.7528
1.7002,23.8186
1.7067,23.8234
1.7123,23.8291
1.7123,23.8291
1.7123,23.8291
1.7701,23.8711
1.7868,23.8832
1.8606,23.9382
1.8676,23.9419
1.8741,23.9466
1.9540,23.9873
1.9582,23.9895
2.0376,24.0312
2.0376,24.0312
2.0421,24.0331
2.0470,24.0353
2.0478,24.0355
2.0523,24.0374
2.0523,24.0374
2.1399,24.0659
2.2270,24.0954
2.2349,24.0967
2.2425,24.0992
2.3311,24.1133
2.3357,24.1140
2.4241,24.1291
2.4290,24.1296
2.4290,24.1296
2.4342,24.1301
2.4351,24.1301
2.4400,24.1305
2.4400,24.1305
2.5296,24.1305
2.5344,24.1305
3.2527,24.1395
3.3758,24.1617
3.4851,24.2226
3.5687,24.3157
3.6175,24.4308
3.6262,24.5556
3.5940,24.6765
3.5243,24.7803
3.4246,24.8559
3.3058,24.8951
3.2480,24.8995
0.8805,24.8995
0.7571,24.8789
0.6471,24.8194
0.5624,24.7273
0.5121,24.6128
0.5005,24.5195
0.5005,4.5034
0.5211,4.3801
0.5806,4.2700
0.6727,4.1853
0.7872,4.1351
0.9119,4.1247
Z" /> 
<path style="fill:#FFFFFF; fill-opacity:1.0000; stroke:none;fill-rule:evenodd;"
d="M 30.4061,19.3413
30.5069,19.4154
30.5782,19.5182
30.6122,19.6385
30.6145,19.6803
30.6145,24.5195
30.5939,24.6429
30.5344,24.7529
30.4423,24.8376
30.3278,24.8879
30.2345,24.8995
24.4263,24.8995
24.3029,24.8789
24.1928,24.8194
24.1081,24.7273
24.0579,24.6128
24.0475,24.4881
24.0783,24.3669
24.1467,24.2621
24.2454,24.1853
24.3637,24.1447
24.3668,24.1442
24.3855,24.1412
24.3855,24.1412
24.3855,24.1412
24.5757,24.0794
24.7539,23.9886
24.8117,23.9466
24.9157,23.8711
24.9157,23.8711
24.9157,23.8711
27.6391,21.1477
27.7566,20.9859
27.8474,20.8077
27.9092,20.6175
27.9258,20.5127
27.9405,20.4200
27.9405,19.7474
27.9611,19.6240
28.0206,19.5140
28.1127,19.4292
28.2272,19.3790
28.3519,19.3687
28.4659,19.3963
28.6373,19.4673
28.8624,19.5276
28.8624,19.5276
29.0935,19.5580
29.0935,19.5580
29.3265,19.5580
29.3265,19.5580
29.5576,19.5276
29.5576,19.5276
29.7827,19.4673
29.9981,19.3781
29.9981,19.3781
30.0445,19.3513
30.1616,19.3074
30.2867,19.3039
Z" /> 
<path style="fill:#FFFFFF; fill-opacity:1.0000; stroke:none;fill-rule:evenodd;"
d="M 30.3579,-0.1139
30.4679,-0.0544
30.5526,0.0377
30.6029,0.1522
30.6145,0.2455
30.6145,15.8797
30.5939,16.0030
30.5344,16.1131
30.4423,16.1978
30.3278,16.2480
30.2031,16.2584
30.0819,16.2276
30.0445,16.2087
29.9981,16.1819
29.9981,16.1819
29.7827,16.0927
29.5576,16.0324
29.5576,16.0324
29.3265,16.0020
29.0935,16.0020
28.8624,16.0324
28.8624,16.0324
28.6372,16.0927
28.4219,16.1819
28.4219,16.1819
28.3589,16.2183
28.2417,16.2622
28.1167,16.2656
27.9973,16.2283
27.9376,16.1907
27.8016,16.0864
27.5709,15.9532
27.5709,15.9532
27.5709,15.9532
27.3247,15.8512
27.3247,15.8512
27.3247,15.8512
27.2094,15.8203
27.0674,15.7823
26.8032,15.7475
26.8032,15.7475
26.5368,15.7475
26.5368,15.7475
26.2726,15.7823
26.0497,15.8420
26.0164,15.8509
26.0153,15.8512
26.0153,15.8512
25.7691,15.9532
25.7691,15.9532
25.7691,15.9532
25.5900,16.0566
25.4728,16.1005
25.3478,16.1039
25.2284,16.0666
25.2100,16.0566
25.0309,15.9532
25.0309,15.9532
25.0309,15.9532
24.7847,15.8512
24.7847,15.8512
24.7847,15.8512
24.6694,15.8203
24.5274,15.7823
24.2632,15.7475
24.2632,15.7475
23.9968,15.7475
23.9968,15.7475
23.7326,15.7823
23.4753,15.8512
23.3859,15.8882
23.2640,15.9164
23.1396,15.9035
23.0261,15.8509
22.9359,15.7643
22.8786,15.6531
22.8605,15.5372
22.8605,10.6950
22.8605,10.6950
22.8292,10.4975
22.7674,10.3073
22.6766,10.1291
22.6766,10.1291
22.6766,10.1291
22.5591,9.9673
22.5591,9.9673
22.4177,9.8259
22.4177,9.8259
14.2027,1.6109
14.2027,1.6109
14.2027,1.6109
14.2027,1.6109
14.0409,1.4934
14.0409,1.4934
13.8627,1.4026
13.6725,1.3408
13.4750,1.3095
13.4750,1.3095
8.7063,1.3095
8.5829,1.2889
8.4729,1.2294
8.4376,1.1982
8.2880,1.0486
8.0766,0.8864
7.8459,0.7532
7.8459,0.7532
7.8459,0.7532
7.5997,0.6512
7.5997,0.6512
7.5997,0.6512
7.4554,0.6126
7.3415,0.5607
7.2507,0.4747
7.1926,0.3639
7.1737,0.2403
7.1960,0.1172
7.2571,0.0080
7.3503,-0.0755
7.4655,-0.1241
7.5537,-0.1345
30.2345,-0.1345
Z" /> 
<path style="fill:#FFFFFF; fill-opacity:1.0000; stroke:none;fill-rule:evenodd;"
d="M 9.7936,7.5665
9.7936,7.6735
9.8213,7.7769
9.8748,7.8695
9.9505,7.9452
10.0431,7.9987
10.1465,8.0264
10.2535,8.0264
10.2841,8.0182
10.2584,8.0839
10.2007,8.1581
9.2400,9.1188
9.4119,9.2181
9.4119,9.2181
9.6273,9.3073
9.8524,9.3676
9.8524,9.3676
10.0835,9.3980
10.0835,9.3980
10.3165,9.3980
10.3165,9.3980
10.5476,9.3676
10.5476,9.3676
10.6798,9.3321
10.6844,9.3317
10.6886,9.3299
10.7465,9.3257
10.8044,9.3201
10.8088,9.3212
10.8133,9.3208
10.8695,9.3356
10.9260,9.3491
10.9312,9.3519
10.9343,9.3527
10.9446,9.3592
10.9892,9.3832
11.0048,9.3936
11.1165,9.4853
11.2450,9.5540
11.2605,9.5643
11.2927,9.5945
11.3277,9.6215
11.3380,9.6371
11.3517,9.6499
11.3723,9.6890
11.3967,9.7259
11.4014,9.7440
11.4101,9.7605
11.4170,9.8042
11.4280,9.8470
11.4295,9.8803
11.4295,10.4397
11.4089,10.5631
11.3494,10.6731
11.2573,10.7578
11.2286,10.7748
11.1165,10.8347
11.1165,10.8347
11.0193,10.9145
10.9108,10.9769
10.7880,11.0007
10.6798,10.9879
10.5476,10.9524
10.5476,10.9524
10.3165,10.9220
10.0835,10.9220
9.8524,10.9524
9.8524,10.9524
9.6273,11.0127
9.4119,11.1019
9.4119,11.1019
9.2400,11.2012
10.2007,12.1619
10.2099,12.1748
10.2220,12.1850
10.2461,12.2254
10.2734,12.2637
10.2779,12.2789
10.2860,12.2925
10.2882,12.3029
10.2535,12.2936
10.1465,12.2936
10.0431,12.3213
9.9505,12.3748
9.8748,12.4505
9.8213,12.5431
9.7936,12.6465
9.7936,12.7535
9.8018,12.7841
9.7361,12.7584
9.6619,12.7007
8.7012,11.7400
8.6888,11.7416
8.6831,11.7480
8.6488,11.7895
8.6412,11.7942
8.6353,11.8008
8.5881,11.8268
8.5423,11.8550
8.5336,11.8570
8.5258,11.8613
8.4727,11.8706
8.4202,11.8824
8.4113,11.8814
8.4026,11.8830
8.3494,11.8746
8.2959,11.8686
8.2878,11.8648
8.2790,11.8634
8.2314,11.8382
8.1827,11.8152
8.1743,11.8079
8.1685,11.8049
8.1456,11.7832
8.1220,11.7628
8.1106,11.7506
8.1078,11.7469
8.0953,11.7343
8.0911,11.7298
8.0598,11.6828
8.0270,11.6369
8.0252,11.6309
8.0217,11.6257
8.0074,11.5711
7.9913,11.5170
7.9915,11.5107
7.9900,11.5047
7.9941,11.4484
7.9965,11.3920
7.9987,11.3862
7.9992,11.3799
8.0214,11.3281
8.0419,11.2755
8.0464,11.2698
8.0484,11.2650
8.0605,11.2516
8.0997,11.2013
8.1078,11.1931
8.1635,11.1165
8.2489,10.9990
8.2489,10.9990
8.2489,10.9990
8.3578,10.7852
8.4320,10.5570
8.4695,10.3200
8.4695,10.0800
8.4320,9.8430
8.3578,9.6148
8.2489,9.4010
8.2489,9.4010
8.2489,9.4010
8.1078,9.2069
8.1078,9.2069
8.1078,9.2069
8.0997,9.1987
8.0632,9.1476
8.0272,9.0973
8.0271,9.0971
8.0270,9.0969
8.0091,9.0370
7.9913,8.9774
7.9913,8.9772
7.9913,8.9770
7.9939,8.9147
7.9964,8.8524
7.9964,8.8522
7.9965,8.8520
8.0191,8.7940
8.0417,8.7358
8.0419,8.7356
8.0419,8.7355
8.0781,8.6847
8.0884,8.6726
8.1078,8.6531
8.1262,8.6278
8.1352,8.6171
8.1724,8.5856
8.2072,8.5514
8.2199,8.5453
8.2306,8.5362
8.2760,8.5184
8.3200,8.4973
8.3340,8.4957
8.3471,8.4906
8.3958,8.4885
8.4443,8.4829
8.4580,8.4859
8.4721,8.4853
8.5188,8.4992
8.5665,8.5096
8.5785,8.5169
8.5920,8.5209
8.6317,8.5492
8.6734,8.5745
8.6752,8.5766
8.7012,8.5800
9.6619,7.6193
9.7637,7.5466
9.8020,7.5352
Z" /> 
<path style="fill:#FFFFFF; fill-opacity:1.0000; stroke:none;fill-rule:evenodd;"
d="M 2.9498,-0.1303
2.9752,-0.1311
3.0111,-0.1201
3.0481,-0.1139
3.0705,-0.1018
3.0947,-0.0943
3.1251,-0.0722
3.1581,-0.0544
3.1753,-0.0357
3.1959,-0.0207
3.2174,0.0100
3.2428,0.0377
3.2530,0.0609
3.2676,0.0817
3.2780,0.1178
3.2931,0.1522
3.2952,0.1775
3.3022,0.2020
3.3003,0.2395
3.3034,0.2769
3.2972,0.3015
3.2959,0.3269
3.2819,0.3617
3.2727,0.3981
3.2588,0.4194
3.2494,0.4430
3.2248,0.4714
3.2043,0.5029
3.1842,0.5185
3.1676,0.5377
3.1162,0.5737
3.0777,0.5962
2.9981,0.6203
2.8215,0.7147
2.6910,0.8218
2.6649,0.8371
2.5479,0.8815
2.4229,0.8855
2.3750,0.8759
2.2126,0.8324
2.2126,0.8324
1.9815,0.8020
1.7485,0.8020
1.5174,0.8324
1.5174,0.8324
1.2922,0.8927
1.0769,0.9819
1.0705,0.9856
1.0659,0.9874
1.0658,0.9874
1.0658,0.9874
0.9533,1.0295
0.8283,1.0330
0.7089,0.9956
0.6081,0.9215
0.5368,0.8187
0.5028,0.6984
0.5005,0.6566
0.5005,0.2455
0.5211,0.1221
0.5806,0.0121
0.6727,-0.0726
0.7872,-0.1229
0.8805,-0.1345
2.9247,-0.1345
Z" /> 
<path style="fill:none; 
stroke:#FFFFFF; stroke-width:0.0500; stroke-opacity:1; 
stroke-linecap:round; stroke-linejoin:round;fill:none"
d="M 0.0000,-0.6350
31.1150,-0.6350
31.1150,25.4000
0.0000,25.4000
Z" /> 
</g>
<g style="fill:#000000; fill-opacity:1.0000; stroke:none;">
<circle cx="6.9450" cy="20.3600" r="0.4064" /> 
</g>
<g style="fill:#000000; fill-opacity:1.0000; stroke:none;">
<circle cx="6.9450" cy="17.8200" r="0.4064" /> 
</g>
<g style="fill:#000000; fill-opacity:1.0000; stroke:none;">
<circle cx="6.9450" cy="15.2800" r="0.4064" /> 
</g>
<g style="fill:#000000; fill-opacity:1.0000; stroke:none;">
<circle cx="6.9450" cy="12.7400" r="0.2540" /> 
</g>
<g style="fill:#000000; fill-opacity:1.0000; stroke:none;">
<circle cx="6.9450" cy="10.2000" r="0.2540" /> 
</g>
<g style="fill:#000000; fill-opacity:1.0000; stroke:none;">
<circle cx="6.9450" cy="7.6600" r="0.2540" /> 
</g>
<g style="fill:#000000; fill-opacity:1.0000; stroke:none;">
<circle cx="6.9450" cy="5.1200" r="0.2540" /> 
</g>
<g style="fill:#000000; fill-opacity:1.0000; stroke:none;">
<circle cx="6.9450" cy="2.5800" r="0.4064" /> 
</g>
<g style="fill:#000000; fill-opacity:1.0000; stroke:none;">
<circle cx="29.2100" cy="17.7800" r="0.4064" /> 
</g>
<g style="fill:#000000; fill-opacity:1.0000; stroke:none;">
<circle cx="26.6700" cy="17.7800" r="0.4064" /> 
</g>
<g style="fill:#000000; fill-opacity:1.0000; stroke:none;">
<circle cx="24.1300" cy="17.7800" r="0.4064" /> 
</g>
<g style="fill:#000000; fill-opacity:1.0000; stroke:none;">
<circle cx="21.5900" cy="17.7800" r="0.4064" /> 
</g>
<g style="fill:#000000; fill-opacity:1.0000; stroke:none;">
<circle cx="19.0500" cy="17.7800" r="0.4064" /> 
</g>
<g style="fill:#000000; fill-opacity:1.0000; stroke:none;">
<circle cx="16.5100" cy="17.7800" r="0.4064" /> 
</g>
<g style="fill:#000000; fill-opacity:1.0000; stroke:none;">
<circle cx="4.4050" cy="2.5800" r="0.4064" /> 
</g>
<g style="fill:#000000; fill-opacity:1.0000; stroke:none;">
<circle cx="1.8650" cy="2.5800" r="0.4064" /> 
</g>
<g style="fill:#000000; fill-opacity:1.0000; stroke:none;">
<circle cx="12.7000" cy="12.7000" r="0.4064" /> 
</g>
<g style="fill:#000000; fill-opacity:1.0000; stroke:none;">
<circle cx="10.2000" cy="12.7000" r="0.4064" /> 
</g>
<g style="fill:#000000; fill-opacity:1.0000; stroke:none;">
<circle cx="12.7000" cy="7.6200" r="0.4064" /> 
</g>
<g style="fill:#000000; fill-opacity:1.0000; stroke:none;">
<circle cx="10.2000" cy="7.6200" r="0.4064" /> 
</g> 
</svg>
