<?xml version="1.0" standalone="no"?>
 <!DOCTYPE svg PUBLIC "-//W3C//DTD SVG 1.1//EN" 
 "http://www.w3.org/Graphics/SVG/1.1/DTD/svg11.dtd"> 
<svg
  xmlns:svg="http://www.w3.org/2000/svg"
  xmlns="http://www.w3.org/2000/svg"
  xmlns:xlink="http://www.w3.org/1999/xlink"
  version="1.1"
  width="25.4000mm" height="25.4000mm" viewBox="0.0000 0.0000 25.4000 25.4000">
<title>SVG Image created as front.svg date 2025/12/20 11:51:30 </title>
  <desc>Image generated by PCBNEW </desc>
<g style="fill:#000000; fill-opacity:1.0000;stroke:#000000; stroke-opacity:1.0000;
stroke-linecap:round; stroke-linejoin:round;"
 transform="translate(0 0) scale(1 1)">
</g>
<g style="fill:#000000; fill-opacity:1.0000; 
stroke:#000000; stroke-width:0.0212; stroke-opacity:1; 
stroke-linecap:round; stroke-linejoin:round;">
<rect x="-5.025000" y="-5.025000" width="36.848250" height="36.113250" rx="0.000000" />
</g>
<g style="fill:#FFFFFF; fill-opacity:1.0000; stroke:none;">
<circle cx="8.8900" cy="22.8600" r="1.0160" /> 
</g>
<g style="fill:#FFFFFF; fill-opacity:1.0000; stroke:none;">
<circle cx="8.8900" cy="20.3200" r="1.0160" /> 
</g>
<g style="fill:#FFFFFF; fill-opacity:1.0000; stroke:none;">
<circle cx="8.8900" cy="17.7800" r="1.0160" /> 
</g>
<g style="fill:#FFFFFF; fill-opacity:1.0000; stroke:none;">
<circle cx="8.8900" cy="15.2400" r="0.5080" /> 
</g>
<g style="fill:#FFFFFF; fill-opacity:1.0000; stroke:none;">
<circle cx="8.8900" cy="12.7000" r="0.5080" /> 
</g>
<g style="fill:#FFFFFF; fill-opacity:1.0000; stroke:none;">
<circle cx="8.8900" cy="10.1600" r="0.5080" /> 
</g>
<g style="fill:#FFFFFF; fill-opacity:1.0000; stroke:none;">
<circle cx="8.8900" cy="7.6200" r="0.5080" /> 
</g>
<g style="fill:#FFFFFF; fill-opacity:1.0000; stroke:none;">
<circle cx="8.8900" cy="5.0800" r="1.0160" /> 
</g>
<g style="fill:#FFFFFF; fill-opacity:1.0000; stroke:none;">
<circle cx="13.9700" cy="22.8600" r="1.0160" /> 
</g>
<g style="fill:#FFFFFF; fill-opacity:1.0000; stroke:none;">
<circle cx="13.9700" cy="20.3200" r="1.0160" /> 
</g>
<g style="fill:#FFFFFF; fill-opacity:1.0000; stroke:none;">
<circle cx="13.9700" cy="17.7800" r="1.0160" /> 
</g>
<g style="fill:#FFFFFF; fill-opacity:1.0000; stroke:none;">
<circle cx="13.9700" cy="15.2400" r="1.0160" /> 
</g>
<g style="fill:#FFFFFF; fill-opacity:1.0000; stroke:none;">
<circle cx="13.9700" cy="12.7000" r="1.0160" /> 
<path style="fill:#FFFFFF; fill-opacity:1.0000; stroke:none;fill-rule:evenodd;"
d="M 14.9860,9.1440
14.9860,11.1760
12.9540,11.1760
12.9540,9.1440
Z" /> 
<path style="fill:#FFFFFF; fill-opacity:1.0000; stroke:none;fill-rule:evenodd;"
d="M 5.3340,4.0640
7.3660,4.0640
7.3660,6.0960
5.3340,6.0960
Z" /> 
</g>
<g style="fill:#FFFFFF; fill-opacity:1.0000; stroke:none;">
<circle cx="3.8100" cy="5.0800" r="1.0160" /> 
<path style="fill:#FFFFFF; fill-opacity:1.0000; stroke:none;fill-rule:evenodd;"
d="M 14.8590,1.5240
16.8910,1.5240
16.8910,3.5560
14.8590,3.5560
Z" /> 
</g>
<g style="fill:#FFFFFF; fill-opacity:1.0000; stroke:none;">
<circle cx="15.8750" cy="5.0400" r="1.0160" /> 
<path style="fill:#FFFFFF; fill-opacity:1.0000; stroke:none;fill-rule:evenodd;"
d="M 21.2090,1.4840
23.2410,1.4840
23.2410,3.5160
21.2090,3.5160
Z" /> 
</g>
<g style="fill:#FFFFFF; fill-opacity:1.0000; stroke:none;">
<circle cx="22.2250" cy="5.0000" r="1.0160" /> 
</g>
<g style="fill:none; 
stroke:#FFFFFF; stroke-width:1.0160; stroke-opacity:1; 
stroke-linecap:round; stroke-linejoin:round;">
<path d="M11.4300 2.5400
L6.3500 2.5400
" />
<path d="M13.9700 7.6200
L13.9700 10.1600
" />
<path d="M15.8750 2.5400
L12.1050 2.5400
" />
<path d="M12.1050 3.2150
L12.1050 5.7550
" />
<path d="M12.1050 5.7550
L13.9700 7.6200
" />
<path d="M6.3500 2.5400
L6.3500 5.0800
" />
</g>
<g style="fill:none; 
stroke:#FFFFFF; stroke-width:0.5080; stroke-opacity:1; 
stroke-linecap:round; stroke-linejoin:round;">
<path d="M15.9150 3.1750
L15.8750 3.2150
" />
</g>
<g style="fill:none; 
stroke:#FFFFFF; stroke-width:1.0160; stroke-opacity:1; 
stroke-linecap:round; stroke-linejoin:round;">
<path d="M12.1050 3.2150
L11.4300 2.5400
" />
<path d="M22.2250 2.5000
L15.9150 2.5000
" />
</g>
<g style="fill:none; 
stroke:#FFFFFF; stroke-width:0.5080; stroke-opacity:1; 
stroke-linecap:round; stroke-linejoin:round;">
<path d="M11.4300 15.2400
L13.9700 15.2400
" />
<path d="M8.8900 17.7800
L11.4300 15.2400
" />
<path d="M13.9700 17.7800
L11.4300 17.7800
" />
<path d="M10.1600 19.0500
L10.1600 20.3200
" />
<path d="M10.1600 20.3200
L8.8900 20.3200
" />
<path d="M11.4300 17.7800
L10.1600 19.0500
" />
</g>
<g style="fill:none; 
stroke:#FFFFFF; stroke-width:0.3810; stroke-opacity:1; 
stroke-linecap:round; stroke-linejoin:round;">
<path d="M6.3500 13.9700
L6.3500 21.5900
" />
<path d="M13.9700 12.7000
L12.7000 13.9700
" />
<path d="M6.3500 21.5900
L7.6200 22.8600
" />
<path d="M7.6200 22.8600
L8.8900 22.8600
" />
<path d="M12.7000 13.9700
L6.3500 13.9700
" />
<path d="M11.4300 22.6563
L13.9700 20.3200
" />
<path d="M11.4300 7.6200
L11.4300 8.8900
" />
<path d="M11.4300 8.8900
L6.3500 8.8900
" />
<path d="M8.8900 5.0800
L11.4300 7.6200
" />
<path d="M5.4600 11.7925
L5.4600 21.9586
" />
<path d="M6.3500 8.8900
L5.4600 11.7925
" />
<path d="M8.0133 24.5120
L9.5743 24.5120
" />
<path d="M5.4600 21.9586
L8.0133 24.5120
" />
<path d="M9.5743 24.5120
L11.4300 22.6563
" />
<path style="fill:#FFFFFF; fill-opacity:1.0000; stroke:none;fill-rule:evenodd;"
d="M 14.1267,0.5105
14.1869,0.5201
14.1883,0.5208
14.1900,0.5211
14.2436,0.5501
14.2974,0.5787
14.2985,0.5799
14.3000,0.5806
14.3412,0.6254
14.3829,0.6700
14.3836,0.6715
14.3847,0.6727
14.4092,0.7284
14.4341,0.7841
14.4343,0.7857
14.4349,0.7872
14.4400,0.8480
14.4455,0.9087
14.4451,0.9103
14.4453,0.9119
14.4303,0.9710
14.4158,1.0302
14.4148,1.0321
14.4146,1.0331
14.4119,1.0375
14.3864,1.0857
14.3646,1.1196
14.3529,1.1314
14.3029,1.2159
14.2992,1.2217
14.2618,1.2630
14.2259,1.3057
14.2199,1.3092
14.2153,1.3144
14.1665,1.3413
14.1186,1.3700
14.1118,1.3715
14.1057,1.3749
14.0508,1.3845
13.9963,1.3961
13.9894,1.3953
13.9825,1.3965
13.9793,1.3965
12.0150,1.3965
11.9552,1.4060
11.8269,1.4263
11.7081,1.4263
11.5482,1.4010
11.5200,1.3965
11.5200,1.3965
6.4400,1.3965
6.2600,1.3965
6.0822,1.4247
6.0402,1.4383
5.9110,1.4803
5.9110,1.4803
5.7507,1.5620
5.7507,1.5620
5.6051,1.6678
5.4778,1.7951
5.3720,1.9407
5.3720,1.9407
5.2903,2.1010
5.2903,2.1010
5.2347,2.2722
5.2065,2.4500
5.2065,3.1750
5.1859,3.2984
5.1264,3.4084
5.0343,3.4932
4.9198,3.5434
4.7951,3.5537
4.6739,3.5230
4.6365,3.5041
4.5981,3.4819
4.3827,3.3927
4.1576,3.3324
4.1576,3.3324
3.9265,3.3020
3.6935,3.3020
3.4624,3.3324
3.4624,3.3324
3.2372,3.3927
3.0219,3.4819
3.0219,3.4819
2.8500,3.5812
2.8500,3.5812
3.8107,4.5419
3.8199,4.5548
3.8321,4.5651
3.8561,4.6055
3.8834,4.6437
3.8879,4.6589
3.8961,4.6726
3.8982,4.6829
3.8635,4.6736
3.7565,4.6736
3.6531,4.7013
3.5605,4.7548
3.4848,4.8305
3.4313,4.9231
3.4036,5.0265
3.4036,5.1335
3.4313,5.2369
3.4848,5.3295
3.5605,5.4052
3.6531,5.4587
3.7565,5.4864
3.8635,5.4864
3.8941,5.4782
3.8684,5.5439
3.8107,5.6181
2.8500,6.5788
3.0219,6.6781
3.0219,6.6781
3.2372,6.7673
3.4624,6.8276
3.4624,6.8276
3.6935,6.8580
3.6935,6.8580
3.9265,6.8580
3.9265,6.8580
4.1576,6.8276
4.1576,6.8276
4.3827,6.7673
4.5981,6.6781
4.6445,6.6513
4.7616,6.6074
4.8867,6.6040
5.0060,6.6413
5.0279,6.6533
5.0796,6.6839
5.2338,6.7287
5.2698,6.7315
7.3198,6.7315
7.4432,6.7521
7.5532,6.8116
7.6379,6.9037
7.6882,7.0182
7.6985,7.1429
7.6961,7.1643
7.6915,7.1973
7.6508,7.3225
7.6195,7.5200
7.6195,7.7105
7.6158,7.7368
7.6049,7.7715
7.5989,7.8074
7.5863,7.8308
7.5783,7.8561
7.5567,7.8854
7.5394,7.9174
7.5198,7.9354
7.5041,7.9568
7.4741,7.9775
7.4473,8.0021
7.4230,8.0128
7.4011,8.0279
7.3661,8.0378
7.3328,8.0524
7.2992,8.0566
7.2807,8.0618
7.2648,8.0609
7.2395,8.0640
6.4111,8.0640
6.3727,8.0621
6.3525,8.0600
6.3287,8.0623
6.3107,8.0640
6.2686,8.0640
6.2299,8.0717
6.2107,8.0735
6.2107,8.0735
6.2004,8.0745
6.1905,8.0755
6.1905,8.0755
6.1676,8.0823
6.1325,8.0911
6.1091,8.0957
6.1091,8.0957
6.0903,8.1035
6.0903,8.1035
6.0725,8.1109
6.0347,8.1222
5.9976,8.1419
5.9911,8.1446
5.9808,8.1489
5.9808,8.1489
5.9587,8.1580
5.9419,8.1693
5.9419,8.1693
5.9259,8.1800
5.8910,8.1985
5.8584,8.2251
5.8434,8.2351
5.8434,8.2351
5.8235,8.2484
5.8234,8.2484
5.8091,8.2628
5.7806,8.2885
5.7649,8.3013
5.7649,8.3013
5.7496,8.3198
5.7496,8.3198
5.7381,8.3338
5.7084,8.3635
5.6865,8.3963
5.6742,8.4111
5.6742,8.4111
5.6613,8.4268
5.6613,8.4268
5.6499,8.4479
5.6499,8.4479
5.6414,8.4638
5.6180,8.4987
5.6029,8.5353
5.5938,8.5522
5.5938,8.5522
5.5841,8.5701
5.5841,8.5701
5.5771,8.5930
5.5649,8.6269
5.5557,8.6491
5.5557,8.6491
5.5518,8.6690
5.5424,8.7062
4.6871,11.4955
4.6818,11.5128
4.6657,11.5516
4.6580,11.5904
4.6524,11.6087
4.6524,11.6088
4.6464,11.6282
4.6440,11.6520
4.6422,11.6700
4.6340,11.7112
4.6340,11.7507
4.6321,11.7698
4.6321,11.7698
4.6300,11.7900
4.6323,11.8139
4.6340,11.8500
4.6340,22.0400
4.6657,22.1996
4.7280,22.3499
4.7280,22.3499
4.8184,22.4852
4.8184,22.4852
4.8184,22.4852
4.9335,22.6002
4.9335,22.6002
6.5840,24.2508
6.6567,24.3526
6.6924,24.4725
6.6872,24.5975
6.6417,24.7140
6.5609,24.8095
6.4534,24.8735
6.3310,24.8992
6.3153,24.8995
0.8805,24.8995
0.7571,24.8789
0.6471,24.8194
0.5624,24.7273
0.5121,24.6128
0.5005,24.5195
0.5005,4.9635
2.0320,4.9635
2.0320,5.1965
2.0624,5.4276
2.0624,5.4276
2.1227,5.6527
2.2119,5.8681
2.2119,5.8681
2.3112,6.0400
3.2712,5.0800
2.3112,4.1200
2.2119,4.2919
2.2119,4.2919
2.1227,4.5072
2.0624,4.7324
2.0624,4.7324
2.0320,4.9635
0.5005,4.9635
0.5005,0.8805
0.5211,0.7571
0.5806,0.6471
0.6727,0.5624
0.7872,0.5121
0.8805,0.5005
14.0666,0.5005
Z" /> 
<path style="fill:#FFFFFF; fill-opacity:1.0000; stroke:none;fill-rule:evenodd;"
d="M 24.7699,0.5211
24.8799,0.5806
24.9646,0.6727
25.0149,0.7872
25.0265,0.8805
25.0265,24.5195
25.0059,24.6429
24.9464,24.7529
24.8543,24.8376
24.7398,24.8879
24.6465,24.8995
15.2921,24.8995
15.1687,24.8789
15.0587,24.8194
14.9740,24.7273
14.9237,24.6128
14.9134,24.4881
14.9154,24.4699
14.9300,24.3588
13.9700,23.3988
13.0100,24.3588
13.0246,24.4699
13.0203,24.5949
12.9757,24.7118
12.8955,24.8078
12.7885,24.8725
12.6662,24.8991
12.6479,24.8995
11.2723,24.8995
11.1489,24.8789
11.0389,24.8194
10.9542,24.7273
10.9040,24.6128
10.8936,24.4881
10.9243,24.3669
10.9927,24.2621
11.0036,24.2508
11.4344,23.8200
11.7456,23.5089
11.8474,23.4362
11.9673,23.4005
12.0922,23.4056
12.2088,23.4511
12.3042,23.5320
12.3653,23.6321
12.3719,23.6481
12.3719,23.6481
12.4712,23.8200
12.4712,23.8200
13.5957,22.6955
13.5913,22.7031
13.5636,22.8065
13.5636,22.9135
13.5913,23.0169
13.6448,23.1095
13.7205,23.1852
13.8131,23.2387
13.9165,23.2664
14.0235,23.2664
14.1269,23.2387
14.2195,23.1852
14.2952,23.1095
14.3487,23.0169
14.3764,22.9135
14.3764,22.8065
14.3487,22.7031
14.2952,22.6105
14.2195,22.5348
14.1269,22.4813
14.0235,22.4536
13.9165,22.4536
13.8131,22.4813
13.8055,22.4857
14.2976,21.9936
14.3447,21.9599
14.3910,21.9251
14.3970,21.9226
14.3994,21.9209
14.4489,21.9009
14.4531,21.8995
14.5768,21.8810
14.6998,21.9036
14.8088,21.9650
14.8920,22.0584
14.9403,22.1738
14.9486,22.2986
14.9159,22.4193
14.8457,22.5229
14.8392,22.5296
14.5088,22.8600
15.4688,23.8200
15.5681,23.6481
15.5681,23.6481
15.6573,23.4327
15.7176,23.2076
15.7176,23.2076
15.7480,22.9765
15.7480,22.9765
15.7480,22.7435
15.7480,22.7435
15.7176,22.5124
15.7176,22.5124
15.6573,22.2873
15.5681,22.0719
15.5681,22.0719
15.4590,21.8830
15.4299,21.8741
15.3286,21.8007
15.2566,21.6984
15.2217,21.5783
15.2278,21.4533
15.2740,21.3371
15.2917,21.3105
15.3825,21.1856
15.3846,21.1814
15.4219,21.1083
15.5005,20.9540
15.5808,20.7067
15.6215,20.4500
15.6215,20.1900
15.5808,19.9333
15.5005,19.6860
15.4168,19.5218
15.3825,19.4544
15.3825,19.4544
15.3011,19.3424
15.2509,19.2734
15.1951,19.1614
15.1786,19.0374
15.2032,18.9148
15.2509,18.8266
15.2511,18.8265
15.3825,18.6456
15.5005,18.4140
15.5808,18.1667
15.6215,17.9100
15.6215,17.6500
15.5808,17.3933
15.5005,17.1460
15.4617,17.0699
15.3825,16.9144
15.3825,16.9144
15.2509,16.7334
15.1951,16.6214
15.1786,16.4974
15.2032,16.3748
15.2509,16.2866
15.3825,16.1056
15.5005,15.8740
15.5808,15.6267
15.6215,15.3700
15.6215,15.1100
15.5808,14.8533
15.5005,14.6060
15.4617,14.5299
15.3825,14.3744
15.3825,14.3744
15.2509,14.1934
15.1951,14.0814
15.1786,13.9574
15.2032,13.8348
15.2509,13.7466
15.3825,13.5656
15.5005,13.3340
15.5808,13.0867
15.6215,12.8300
15.6215,12.5700
15.5808,12.3133
15.5005,12.0660
15.4537,11.9742
15.4160,11.8549
15.4191,11.7298
15.4627,11.6126
15.4920,11.5687
15.4921,11.5686
15.4921,11.5686
15.5739,11.4304
15.6187,11.2762
15.6215,11.2402
15.6215,9.0798
15.6187,9.0438
15.5739,8.8896
15.4921,8.7514
15.3786,8.6379
15.3786,8.6379
15.3786,8.6379
15.3001,8.5914
15.2043,8.5109
15.1400,8.4036
15.1139,8.2813
15.1135,8.2643
15.1135,7.5300
15.1135,7.5300
15.0853,7.3522
15.0585,7.2696
15.0399,7.1459
15.0626,7.0229
15.1239,6.9139
15.2173,6.8307
15.3327,6.7823
15.4575,6.7740
15.5183,6.7851
15.5274,6.7876
15.5274,6.7876
15.7585,6.8180
15.7585,6.8180
15.9915,6.8180
15.9915,6.8180
16.2226,6.7876
16.2226,6.7876
16.4477,6.7273
16.6631,6.6381
16.6631,6.6381
16.8350,6.5388
16.7950,6.4988
21.2650,6.4988
21.4369,6.5981
21.4369,6.5981
21.6522,6.6873
21.8774,6.7476
21.8774,6.7476
22.1085,6.7780
22.1085,6.7780
22.3415,6.7780
22.3415,6.7780
22.5726,6.7476
22.5726,6.7476
22.7977,6.6873
23.0131,6.5981
23.0131,6.5981
23.1850,6.4988
22.2250,5.5388
21.2650,6.4988
16.7950,6.4988
15.8743,5.5781
15.8651,5.5652
15.8530,5.5550
15.8289,5.5146
15.8016,5.4763
15.7971,5.4611
15.7890,5.4475
15.7868,5.4371
15.8215,5.4464
15.9285,5.4464
16.0319,5.4187
16.1245,5.3652
16.2002,5.2895
16.2537,5.1969
16.2814,5.0935
16.2814,4.9865
16.2732,4.9559
16.3389,4.9816
16.4131,5.0393
17.3738,6.0000
17.4731,5.8281
17.4731,5.8281
17.5623,5.6127
17.6226,5.3876
17.6226,5.3876
17.6530,5.1565
17.6530,5.1565
17.6530,4.9235
17.6530,4.9235
17.6226,4.6924
17.6226,4.6924
17.5623,4.4672
17.4731,4.2519
17.4731,4.2519
17.4580,4.2258
17.4426,4.1847
17.4232,4.1454
17.4208,4.1265
17.4141,4.1086
17.4129,4.0648
17.4073,4.0213
17.4112,4.0026
17.4107,3.9836
17.4237,3.9417
17.4326,3.8988
17.4455,3.8722
17.4480,3.8642
17.4600,3.8424
17.4672,3.8301
17.5478,3.7343
17.6550,3.6700
17.7774,3.6439
17.7943,3.6435
20.2969,3.6435
20.4203,3.6641
20.5303,3.7236
20.6151,3.8157
20.6653,3.9302
20.6756,4.0549
20.6449,4.1761
20.6312,4.2033
20.6269,4.2119
20.5377,4.4272
20.4774,4.6524
20.4774,4.6524
20.4470,4.8835
20.4470,5.1165
20.4774,5.3476
20.4774,5.3476
20.5377,5.5727
20.6269,5.7881
20.6269,5.7881
20.7262,5.9600
21.6869,4.9993
21.6998,4.9901
21.7100,4.9780
21.7504,4.9539
21.7887,4.9266
21.8039,4.9221
21.8175,4.9140
21.8279,4.9118
21.8186,4.9465
21.8186,5.0535
21.8463,5.1569
21.8998,5.2495
21.9755,5.3252
22.0681,5.3787
22.1715,5.4064
22.2785,5.4064
22.3819,5.3787
22.4745,5.3252
22.5502,5.2495
22.6037,5.1569
22.6314,5.0535
22.6314,4.9465
22.6232,4.9159
22.6888,4.9415
22.7631,4.9993
23.7238,5.9600
23.8231,5.7881
23.8231,5.7881
23.9123,5.5727
23.9726,5.3476
23.9726,5.3476
24.0030,5.1165
24.0030,5.1165
24.0030,4.8835
24.0030,4.8835
23.9726,4.6524
23.9726,4.6524
23.9123,4.4272
23.8231,4.2119
23.8231,4.2119
23.8080,4.1858
23.7641,4.0686
23.7607,3.9436
23.7980,3.8242
23.8100,3.8024
23.8289,3.7704
23.8737,3.6162
23.8765,3.5802
23.8765,1.4198
23.8737,1.3838
23.8510,1.3057
23.8289,1.2296
23.8099,1.1975
23.7471,1.0914
23.7471,1.0914
23.7368,1.0739
23.6917,0.9573
23.6870,0.8322
23.7231,0.7125
23.7961,0.6109
23.8981,0.5386
24.0181,0.5033
24.0639,0.5005
24.6465,0.5005
Z" /> 
<path style="fill:none; 
stroke:#FFFFFF; stroke-width:0.0500; stroke-opacity:1; 
stroke-linecap:round; stroke-linejoin:round;fill:none"
d="M 0.0000,0.0000
25.5270,0.0000
25.5270,25.4000
0.0000,25.4000
Z" /> 
</g>
<g style="fill:#000000; fill-opacity:1.0000; stroke:none;">
<circle cx="8.8900" cy="22.8600" r="0.4064" /> 
</g>
<g style="fill:#000000; fill-opacity:1.0000; stroke:none;">
<circle cx="8.8900" cy="20.3200" r="0.4064" /> 
</g>
<g style="fill:#000000; fill-opacity:1.0000; stroke:none;">
<circle cx="8.8900" cy="17.7800" r="0.4064" /> 
</g>
<g style="fill:#000000; fill-opacity:1.0000; stroke:none;">
<circle cx="8.8900" cy="15.2400" r="0.4064" /> 
</g>
<g style="fill:#000000; fill-opacity:1.0000; stroke:none;">
<circle cx="8.8900" cy="12.7000" r="0.4064" /> 
</g>
<g style="fill:#000000; fill-opacity:1.0000; stroke:none;">
<circle cx="8.8900" cy="10.1600" r="0.4064" /> 
</g>
<g style="fill:#000000; fill-opacity:1.0000; stroke:none;">
<circle cx="8.8900" cy="7.6200" r="0.4064" /> 
</g>
<g style="fill:#000000; fill-opacity:1.0000; stroke:none;">
<circle cx="8.8900" cy="5.0800" r="0.4064" /> 
</g>
<g style="fill:#000000; fill-opacity:1.0000; stroke:none;">
<circle cx="13.9700" cy="22.8600" r="0.4064" /> 
</g>
<g style="fill:#000000; fill-opacity:1.0000; stroke:none;">
<circle cx="13.9700" cy="20.3200" r="0.4064" /> 
</g>
<g style="fill:#000000; fill-opacity:1.0000; stroke:none;">
<circle cx="13.9700" cy="17.7800" r="0.4064" /> 
</g>
<g style="fill:#000000; fill-opacity:1.0000; stroke:none;">
<circle cx="13.9700" cy="15.2400" r="0.4064" /> 
</g>
<g style="fill:#000000; fill-opacity:1.0000; stroke:none;">
<circle cx="13.9700" cy="12.7000" r="0.4064" /> 
</g>
<g style="fill:#000000; fill-opacity:1.0000; stroke:none;">
<circle cx="13.9700" cy="10.1600" r="0.4064" /> 
</g>
<g style="fill:#000000; fill-opacity:1.0000; stroke:none;">
<circle cx="6.3500" cy="5.0800" r="0.4064" /> 
</g>
<g style="fill:#000000; fill-opacity:1.0000; stroke:none;">
<circle cx="3.8100" cy="5.0800" r="0.4064" /> 
</g>
<g style="fill:#000000; fill-opacity:1.0000; stroke:none;">
<circle cx="15.8750" cy="2.5400" r="0.4064" /> 
</g>
<g style="fill:#000000; fill-opacity:1.0000; stroke:none;">
<circle cx="15.8750" cy="5.0400" r="0.4064" /> 
</g>
<g style="fill:#000000; fill-opacity:1.0000; stroke:none;">
<circle cx="22.2250" cy="2.5000" r="0.4064" /> 
</g>
<g style="fill:#000000; fill-opacity:1.0000; stroke:none;">
<circle cx="22.2250" cy="5.0000" r="0.4064" /> 
</g> 
</svg>
